<svg width="31" height="32" viewBox="0 0 31 32" fill="none" xmlns="http://www.w3.org/2000/svg">
<path d="M5.67234 23.2851V29.0723L11.2787 27.6426L15.5 32L19.7213 27.6426L25.3277 29.0723V23.2851L31 21.7872L28.1638 16L31 10.2128L25.3277 8.71489V2.92766L19.7213 4.35745L15.5 0L11.2787 4.35745L5.67234 2.92766V8.71489L0 10.2128L2.83617 16L0 21.7872L5.67234 23.2851ZM5.34255 14.7064L4.08936 12.0511L6.33192 11.5064C6.99149 11.3702 7.50816 11.0411 7.88192 10.5191C8.25567 9.99716 8.44255 9.39574 8.44255 8.71489V6.67234L10.5532 7.28511H11.2787C12.0262 7.28511 12.6858 6.99007 13.2574 6.4L15.5 4.08511L17.7426 6.4C18.3142 6.99007 18.9738 7.28511 19.7213 7.28511C19.9851 7.28511 20.227 7.23972 20.4468 7.14894L22.5574 6.67234V8.71489C22.5574 9.39574 22.7443 9.99716 23.1181 10.5191C23.4918 11.0411 24.0085 11.3702 24.6681 11.5064L26.9106 12.0511L25.6574 14.7064C25.2177 15.5688 25.2177 16.4312 25.6574 17.2936L26.9106 19.9489L24.6681 20.4936C24.0085 20.6298 23.4918 20.9589 23.1181 21.4809C22.7443 22.0028 22.5574 22.6043 22.5574 23.2851V25.3277L20.4468 24.7149H19.7213C18.9738 24.7149 18.3142 25.0099 17.7426 25.6L15.5 27.9149L13.2574 25.6C12.6858 25.0099 12.0262 24.7149 11.2787 24.7149C11.0149 24.7149 10.7731 24.7603 10.5532 24.8511L8.44255 25.3277V23.2851C8.44255 22.6043 8.25567 22.0028 7.88192 21.4809C7.50816 20.9589 6.99149 20.6298 6.33192 20.4936L4.08936 19.9489L5.34255 17.2936C5.78227 16.4312 5.78227 15.5688 5.34255 14.7064ZM14.1149 20.9702L20.7106 14.0936C21.3262 13.4582 21.3262 12.7773 20.7106 12.0511C20.0511 11.461 19.3915 11.461 18.7319 12.0511L14.1149 16.8851L12.2681 14.9787C11.6085 14.3887 10.9489 14.3887 10.2894 14.9787C9.71773 15.6596 9.71773 16.3404 10.2894 17.0213L14.1149 20.9702Z" fill="#4ECB71"/>
</svg>
