<svg width="330" height="49" viewBox="0 0 330 49" fill="none" xmlns="http://www.w3.org/2000/svg">
<rect width="330" height="49" rx="5" fill="#FFD233"/>
<path d="M84.28 33.275C83.8947 33.751 83.4243 34.1137 82.869 34.363C82.325 34.6123 81.7243 34.737 81.067 34.737C80.183 34.737 79.384 34.5443 78.67 34.159C77.956 33.785 77.14 33.1163 76.222 32.153C75.1453 32.017 74.182 31.6713 73.332 31.116C72.4933 30.5607 71.836 29.8467 71.36 28.974C70.8953 28.09 70.663 27.1153 70.663 26.05C70.663 24.8827 70.9407 23.8343 71.496 22.905C72.0627 21.9643 72.839 21.2277 73.825 20.695C74.8223 20.1623 75.9387 19.896 77.174 19.896C78.4093 19.896 79.52 20.1623 80.506 20.695C81.492 21.2277 82.2683 21.9643 82.835 22.905C83.4017 23.8343 83.685 24.8827 83.685 26.05C83.685 27.4327 83.294 28.6453 82.512 29.688C81.7413 30.7307 80.7157 31.456 79.435 31.864C79.7183 32.1587 79.9903 32.3683 80.251 32.493C80.523 32.629 80.812 32.697 81.118 32.697C81.8547 32.697 82.5007 32.4023 83.056 31.813L84.28 33.275ZM73.451 26.05C73.451 26.7867 73.6097 27.444 73.927 28.022C74.2557 28.6 74.7033 29.0533 75.27 29.382C75.8367 29.6993 76.4713 29.858 77.174 29.858C77.8767 29.858 78.5113 29.6993 79.078 29.382C79.6447 29.0533 80.0867 28.6 80.404 28.022C80.7327 27.444 80.897 26.7867 80.897 26.05C80.897 25.3133 80.7327 24.656 80.404 24.078C80.0867 23.5 79.6447 23.0523 79.078 22.735C78.5113 22.4063 77.8767 22.242 77.174 22.242C76.4713 22.242 75.8367 22.4063 75.27 22.735C74.7033 23.0523 74.2557 23.5 73.927 24.078C73.6097 24.656 73.451 25.3133 73.451 26.05ZM94.7818 22.854V32H92.2658V30.912C91.9144 31.3087 91.4951 31.6147 91.0078 31.83C90.5204 32.034 89.9934 32.136 89.4268 32.136C88.2254 32.136 87.2734 31.7903 86.5708 31.099C85.8681 30.4077 85.5168 29.382 85.5168 28.022V22.854H88.1688V27.631C88.1688 29.1043 88.7864 29.841 90.0218 29.841C90.6564 29.841 91.1664 29.637 91.5518 29.229C91.9371 28.8097 92.1298 28.192 92.1298 27.376V22.854H94.7818ZM97.2386 22.854H99.8906V32H97.2386V22.854ZM98.5646 21.579C98.0773 21.579 97.6806 21.4373 97.3746 21.154C97.0686 20.8707 96.9156 20.5193 96.9156 20.1C96.9156 19.6807 97.0686 19.3293 97.3746 19.046C97.6806 18.7627 98.0773 18.621 98.5646 18.621C99.052 18.621 99.4486 18.757 99.7546 19.029C100.061 19.301 100.214 19.641 100.214 20.049C100.214 20.491 100.061 20.8593 99.7546 21.154C99.4486 21.4373 99.052 21.579 98.5646 21.579ZM111.311 27.461C111.311 27.495 111.294 27.733 111.26 28.175H104.341C104.466 28.7417 104.76 29.1893 105.225 29.518C105.69 29.8467 106.268 30.011 106.959 30.011C107.435 30.011 107.854 29.943 108.217 29.807C108.591 29.6597 108.937 29.433 109.254 29.127L110.665 30.657C109.804 31.643 108.546 32.136 106.891 32.136C105.86 32.136 104.947 31.9377 104.154 31.541C103.361 31.133 102.749 30.572 102.318 29.858C101.887 29.144 101.672 28.3337 101.672 27.427C101.672 26.5317 101.882 25.727 102.301 25.013C102.732 24.2877 103.315 23.7267 104.052 23.33C104.8 22.922 105.633 22.718 106.551 22.718C107.446 22.718 108.257 22.9107 108.982 23.296C109.707 23.6813 110.274 24.2367 110.682 24.962C111.101 25.676 111.311 26.509 111.311 27.461ZM106.568 24.724C105.967 24.724 105.463 24.894 105.055 25.234C104.647 25.574 104.398 26.0387 104.307 26.628H108.812C108.721 26.05 108.472 25.591 108.064 25.251C107.656 24.8997 107.157 24.724 106.568 24.724ZM115.61 24.061C115.927 23.619 116.352 23.2847 116.885 23.058C117.429 22.8313 118.052 22.718 118.755 22.718V25.166C118.46 25.1433 118.262 25.132 118.16 25.132C117.4 25.132 116.805 25.3473 116.375 25.778C115.944 26.1973 115.729 26.832 115.729 27.682V32H113.077V22.854H115.61V24.061ZM124.6 32.136C123.637 32.136 122.77 31.9377 121.999 31.541C121.24 31.133 120.645 30.572 120.214 29.858C119.784 29.144 119.568 28.3337 119.568 27.427C119.568 26.5203 119.784 25.71 120.214 24.996C120.645 24.282 121.24 23.7267 121.999 23.33C122.77 22.922 123.637 22.718 124.6 22.718C125.564 22.718 126.425 22.922 127.184 23.33C127.944 23.7267 128.539 24.282 128.969 24.996C129.4 25.71 129.615 26.5203 129.615 27.427C129.615 28.3337 129.4 29.144 128.969 29.858C128.539 30.572 127.944 31.133 127.184 31.541C126.425 31.9377 125.564 32.136 124.6 32.136ZM124.6 29.96C125.28 29.96 125.836 29.7333 126.266 29.28C126.708 28.8153 126.929 28.1977 126.929 27.427C126.929 26.6563 126.708 26.0443 126.266 25.591C125.836 25.1263 125.28 24.894 124.6 24.894C123.92 24.894 123.359 25.1263 122.917 25.591C122.475 26.0443 122.254 26.6563 122.254 27.427C122.254 28.1977 122.475 28.8153 122.917 29.28C123.359 29.7333 123.92 29.96 124.6 29.96ZM140.623 32.136C139.648 32.136 138.77 31.9377 137.988 31.541C137.217 31.133 136.611 30.572 136.169 29.858C135.738 29.144 135.523 28.3337 135.523 27.427C135.523 26.5203 135.738 25.71 136.169 24.996C136.611 24.282 137.217 23.7267 137.988 23.33C138.77 22.922 139.648 22.718 140.623 22.718C141.586 22.718 142.425 22.922 143.139 23.33C143.864 23.7267 144.391 24.299 144.72 25.047L142.663 26.152C142.187 25.3133 141.501 24.894 140.606 24.894C139.914 24.894 139.342 25.1207 138.889 25.574C138.435 26.0273 138.209 26.645 138.209 27.427C138.209 28.209 138.435 28.8267 138.889 29.28C139.342 29.7333 139.914 29.96 140.606 29.96C141.512 29.96 142.198 29.5407 142.663 28.702L144.72 29.824C144.391 30.5493 143.864 31.116 143.139 31.524C142.425 31.932 141.586 32.136 140.623 32.136ZM150.482 32.136C149.519 32.136 148.652 31.9377 147.881 31.541C147.122 31.133 146.527 30.572 146.096 29.858C145.666 29.144 145.45 28.3337 145.45 27.427C145.45 26.5203 145.666 25.71 146.096 24.996C146.527 24.282 147.122 23.7267 147.881 23.33C148.652 22.922 149.519 22.718 150.482 22.718C151.446 22.718 152.307 22.922 153.066 23.33C153.826 23.7267 154.421 24.282 154.851 24.996C155.282 25.71 155.497 26.5203 155.497 27.427C155.497 28.3337 155.282 29.144 154.851 29.858C154.421 30.572 153.826 31.133 153.066 31.541C152.307 31.9377 151.446 32.136 150.482 32.136ZM150.482 29.96C151.162 29.96 151.718 29.7333 152.148 29.28C152.59 28.8153 152.811 28.1977 152.811 27.427C152.811 26.6563 152.59 26.0443 152.148 25.591C151.718 25.1263 151.162 24.894 150.482 24.894C149.802 24.894 149.241 25.1263 148.799 25.591C148.357 26.0443 148.136 26.6563 148.136 27.427C148.136 28.1977 148.357 28.8153 148.799 29.28C149.241 29.7333 149.802 29.96 150.482 29.96ZM168.983 22.718C170.128 22.718 171.034 23.058 171.703 23.738C172.383 24.4067 172.723 25.4153 172.723 26.764V32H170.071V27.172C170.071 26.4467 169.918 25.9083 169.612 25.557C169.317 25.1943 168.892 25.013 168.337 25.013C167.714 25.013 167.221 25.217 166.858 25.625C166.495 26.0217 166.314 26.6167 166.314 27.41V32H163.662V27.172C163.662 25.7327 163.084 25.013 161.928 25.013C161.316 25.013 160.829 25.217 160.466 25.625C160.103 26.0217 159.922 26.6167 159.922 27.41V32H157.27V22.854H159.803V23.908C160.143 23.5227 160.557 23.228 161.044 23.024C161.543 22.82 162.087 22.718 162.676 22.718C163.322 22.718 163.906 22.8483 164.427 23.109C164.948 23.3583 165.368 23.7267 165.685 24.214C166.059 23.738 166.529 23.3697 167.096 23.109C167.674 22.8483 168.303 22.718 168.983 22.718ZM180.506 22.718C181.356 22.718 182.127 22.9163 182.818 23.313C183.521 23.6983 184.07 24.248 184.467 24.962C184.864 25.6647 185.062 26.4863 185.062 27.427C185.062 28.3677 184.864 29.195 184.467 29.909C184.07 30.6117 183.521 31.1613 182.818 31.558C182.127 31.9433 181.356 32.136 180.506 32.136C179.339 32.136 178.421 31.7677 177.752 31.031V35.298H175.1V22.854H177.633V23.908C178.29 23.1147 179.248 22.718 180.506 22.718ZM180.047 29.96C180.727 29.96 181.282 29.7333 181.713 29.28C182.155 28.8153 182.376 28.1977 182.376 27.427C182.376 26.6563 182.155 26.0443 181.713 25.591C181.282 25.1263 180.727 24.894 180.047 24.894C179.367 24.894 178.806 25.1263 178.364 25.591C177.933 26.0443 177.718 26.6563 177.718 27.427C177.718 28.1977 177.933 28.8153 178.364 29.28C178.806 29.7333 179.367 29.96 180.047 29.96ZM189.37 24.061C189.688 23.619 190.113 23.2847 190.645 23.058C191.189 22.8313 191.813 22.718 192.515 22.718V25.166C192.221 25.1433 192.022 25.132 191.92 25.132C191.161 25.132 190.566 25.3473 190.135 25.778C189.705 26.1973 189.489 26.832 189.489 27.682V32H186.837V22.854H189.37V24.061ZM197.731 22.718C199.148 22.718 200.236 23.058 200.995 23.738C201.755 24.4067 202.134 25.421 202.134 26.781V32H199.652V30.861C199.154 31.711 198.224 32.136 196.864 32.136C196.162 32.136 195.55 32.017 195.028 31.779C194.518 31.541 194.127 31.2123 193.855 30.793C193.583 30.3737 193.447 29.8977 193.447 29.365C193.447 28.515 193.765 27.8463 194.399 27.359C195.045 26.8717 196.037 26.628 197.374 26.628H199.482C199.482 26.05 199.307 25.608 198.955 25.302C198.604 24.9847 198.077 24.826 197.374 24.826C196.887 24.826 196.405 24.9053 195.929 25.064C195.465 25.2113 195.068 25.4153 194.739 25.676L193.787 23.823C194.286 23.4717 194.881 23.1997 195.572 23.007C196.275 22.8143 196.995 22.718 197.731 22.718ZM197.527 30.351C197.981 30.351 198.383 30.249 198.734 30.045C199.086 29.8297 199.335 29.518 199.482 29.11V28.175H197.663C196.575 28.175 196.031 28.532 196.031 29.246C196.031 29.586 196.162 29.858 196.422 30.062C196.694 30.2547 197.063 30.351 197.527 30.351ZM207.068 24.061C207.385 23.619 207.81 23.2847 208.343 23.058C208.887 22.8313 209.51 22.718 210.213 22.718V25.166C209.918 25.1433 209.72 25.132 209.618 25.132C208.858 25.132 208.263 25.3473 207.833 25.778C207.402 26.1973 207.187 26.832 207.187 27.682V32H204.535V22.854H207.068V24.061ZM222.552 32.204C221.34 32.204 220.24 31.9433 219.254 31.422C218.28 30.8893 217.509 30.1583 216.942 29.229C216.387 28.2883 216.109 27.2287 216.109 26.05C216.109 24.8713 216.387 23.8173 216.942 22.888C217.509 21.9473 218.28 21.2163 219.254 20.695C220.24 20.1623 221.345 19.896 222.569 19.896C223.601 19.896 224.53 20.0773 225.357 20.44C226.196 20.8027 226.899 21.324 227.465 22.004L225.697 23.636C224.893 22.7067 223.895 22.242 222.705 22.242C221.969 22.242 221.311 22.4063 220.733 22.735C220.155 23.0523 219.702 23.5 219.373 24.078C219.056 24.656 218.897 25.3133 218.897 26.05C218.897 26.7867 219.056 27.444 219.373 28.022C219.702 28.6 220.155 29.0533 220.733 29.382C221.311 29.6993 221.969 29.858 222.705 29.858C223.895 29.858 224.893 29.3877 225.697 28.447L227.465 30.079C226.899 30.7703 226.196 31.2973 225.357 31.66C224.519 32.0227 223.584 32.204 222.552 32.204ZM238.063 25.812C238.743 26.0273 239.276 26.39 239.661 26.9C240.046 27.3987 240.239 28.0163 240.239 28.753C240.239 29.7957 239.831 30.6003 239.015 31.167C238.21 31.7223 237.032 32 235.479 32H229.325V20.1H235.139C236.59 20.1 237.7 20.3777 238.471 20.933C239.253 21.4883 239.644 22.242 239.644 23.194C239.644 23.772 239.502 24.2877 239.219 24.741C238.947 25.1943 238.562 25.5513 238.063 25.812ZM232.062 22.174V24.979H234.799C235.479 24.979 235.995 24.86 236.346 24.622C236.697 24.384 236.873 24.0327 236.873 23.568C236.873 23.1033 236.697 22.7577 236.346 22.531C235.995 22.293 235.479 22.174 234.799 22.174H232.062ZM235.275 29.926C236 29.926 236.544 29.807 236.907 29.569C237.281 29.331 237.468 28.9627 237.468 28.464C237.468 27.478 236.737 26.985 235.275 26.985H232.062V29.926H235.275ZM242.324 20.1H247.73C249.022 20.1 250.161 20.3493 251.147 20.848C252.144 21.3353 252.915 22.0267 253.459 22.922C254.014 23.8173 254.292 24.86 254.292 26.05C254.292 27.24 254.014 28.2827 253.459 29.178C252.915 30.0733 252.144 30.7703 251.147 31.269C250.161 31.7563 249.022 32 247.73 32H242.324V20.1ZM247.594 29.739C248.784 29.739 249.73 29.4103 250.433 28.753C251.147 28.0843 251.504 27.1833 251.504 26.05C251.504 24.9167 251.147 24.0213 250.433 23.364C249.73 22.6953 248.784 22.361 247.594 22.361H245.078V29.739H247.594Z" fill="black"/>
</svg>
