<svg width="291" height="92" viewBox="0 0 291 92" fill="none" xmlns="http://www.w3.org/2000/svg">
<path d="M0 5C0 2.23858 2.23858 0 5 0H285C287.761 0 290 2.23858 290 5V87C290 89.7614 287.761 92 285 92H4.99999C2.23857 92 0 89.7614 0 87V5Z" fill="#4ECB71"/>
<rect width="291" height="29" fill="#292929"/>
<path fill-rule="evenodd" clip-rule="evenodd" d="M146.866 8.10174C146.317 8.68836 145.746 9.94557 145.487 11.1409C145.329 11.8665 145.263 12.455 145.238 13.3402L145.218 14.0864L144.922 13.7533C144.149 12.8845 143.138 12.0714 142.095 11.4822C141.387 11.082 140.285 10.6231 140.263 10.719C140.244 10.7971 140.353 11.5229 140.449 11.9628C140.614 12.7165 140.897 13.566 141.219 14.2787C141.487 14.8706 141.989 15.757 142.3 16.1856C142.377 16.2918 142.383 16.3106 142.335 16.2969C142.302 16.2878 142.135 16.2541 141.963 16.2221C141.047 16.0516 140.055 16.0632 139.319 16.2532C138.953 16.3477 138.96 16.3405 139.057 16.5211C139.282 16.9423 139.749 17.509 140.187 17.8939C140.825 18.4548 141.557 18.868 142.525 19.2128L142.617 19.2457L142.419 19.3637C142.027 19.5957 141.705 19.8493 141.157 20.3543C140.852 20.6363 140.602 20.8761 140.602 20.8872C140.602 20.9127 140.987 21.0205 141.275 21.0754C141.639 21.145 142.264 21.1823 143.137 21.1867C143.803 21.19 144.031 21.1805 144.295 21.1385C144.984 21.0289 146.018 20.6974 146.485 20.4363C146.685 20.3245 146.704 20.3312 146.705 20.5146C146.705 20.6599 146.789 21.1497 146.879 21.5268C147.023 22.1321 147.315 22.871 147.447 22.9633C147.475 22.9835 147.573 23 147.663 23C147.802 23 147.836 22.9886 147.891 22.9227C147.98 22.8171 147.973 22.6903 147.866 22.4683C147.628 21.974 147.472 21.3755 147.345 20.4695L147.33 20.3607L147.651 20.515C148.139 20.7496 148.878 20.988 149.483 21.1059C150.176 21.2409 152.01 21.2163 152.768 21.0619C153.01 21.0127 153.371 20.9088 153.371 20.8885C153.371 20.8602 152.315 19.8887 152.132 19.7492C152.045 19.6825 151.836 19.5415 151.667 19.4358L151.361 19.2436L151.45 19.2117C152.429 18.8632 153.119 18.4722 153.797 17.8824C154.209 17.5239 154.688 16.9431 154.906 16.539L155 16.3638L154.89 16.3207C154.73 16.2578 154.304 16.1703 153.981 16.1338C153.3 16.0568 152.318 16.1255 151.655 16.2964C151.591 16.3129 151.603 16.2861 151.751 16.069C152.733 14.6318 153.44 12.8226 153.667 11.1614C153.693 10.9709 153.715 10.7829 153.715 10.7437V10.6725L153.496 10.7466C151.918 11.2803 150.239 12.4158 149.051 13.7531L148.754 14.0864L148.734 13.3549C148.723 12.9525 148.691 12.4318 148.662 12.1977C148.473 10.6593 148.002 9.31166 147.324 8.37327C147.182 8.17712 147.022 8 146.986 8C146.973 8 146.919 8.04579 146.866 8.10174ZM147.09 9.16683C147.504 10.0332 147.836 11.165 147.986 12.219C148.167 13.4967 148.137 14.7354 147.892 16.1311C147.84 16.4298 147.79 16.7006 147.782 16.7329C147.774 16.7652 147.834 16.6661 147.917 16.5127C148.306 15.7898 148.811 15.0711 149.423 14.3699C150.261 13.4094 151.573 12.3911 152.878 11.6882C153.061 11.5894 153.061 11.5881 152.932 12.0509C152.707 12.8606 152.319 13.8198 151.897 14.6092C151.37 15.5961 150.795 16.3649 149.974 17.1782L149.584 17.5648L149.858 17.4502C150.836 17.0408 151.657 16.8267 152.557 16.7459C152.938 16.7117 153.576 16.7257 153.762 16.7723L153.848 16.7939L153.682 16.9836C153.06 17.6923 152.128 18.3128 151.107 18.6972C150.706 18.8483 150.259 18.9726 149.725 19.0817C149.466 19.1344 149.276 19.1848 149.302 19.1937C149.328 19.2026 149.434 19.2254 149.537 19.2445C150.199 19.3668 151.233 19.8558 151.922 20.3732C152.053 20.4713 152.106 20.5287 152.085 20.5487C152.034 20.5958 149.988 20.5876 149.756 20.5393C148.874 20.3562 147.813 19.9474 147.219 19.5622L146.986 19.4114L146.759 19.5571C146.162 19.9407 145.211 20.3181 144.357 20.5104C144.078 20.5732 143.995 20.5774 143.005 20.5778C142.259 20.5781 141.94 20.5685 141.915 20.5449C141.888 20.52 141.934 20.4707 142.093 20.3503C142.739 19.8639 143.652 19.4231 144.35 19.2612C144.449 19.2382 144.572 19.2098 144.623 19.198C144.701 19.1802 144.648 19.1625 144.31 19.0942C142.998 18.8288 142.075 18.4434 141.174 17.7853C140.875 17.5668 140.381 17.1095 140.234 16.9155L140.131 16.7806L140.281 16.7568C140.363 16.7436 140.676 16.7345 140.977 16.7365C141.98 16.743 142.824 16.9304 144.029 17.414C144.166 17.4693 144.3 17.5229 144.326 17.5331C144.352 17.5433 144.208 17.3873 144.007 17.1863C143.548 16.7278 143.292 16.4393 142.979 16.0255C142.283 15.1077 141.669 13.9309 141.249 12.7114C141.106 12.2973 140.946 11.7406 140.946 11.6581C140.946 11.6019 141.237 11.7521 141.807 12.1025C142.88 12.7626 143.865 13.5826 144.6 14.4286C145.143 15.0536 145.599 15.6937 145.947 16.3219C146.09 16.5802 146.199 16.7521 146.188 16.7038C146.119 16.4056 145.982 15.5431 145.935 15.1184C145.867 14.5123 145.859 13.333 145.918 12.7554C146.035 11.6085 146.359 10.3348 146.764 9.42817C146.928 9.06253 146.961 8.99804 146.987 8.99804C146.999 8.99804 147.045 9.07401 147.09 9.16683Z" fill="#4ECB71"/>
<path d="M37.475 66.4C35.625 66.4 33.9583 66.0167 32.475 65.25C30.9917 64.4667 29.825 63.3833 28.975 62C28.1417 60.6 27.725 59.0167 27.725 57.25C27.725 55.4833 28.1417 53.9083 28.975 52.525C29.825 51.125 30.9917 50.0417 32.475 49.275C33.9583 48.4917 35.625 48.1 37.475 48.1C39.175 48.1 40.6917 48.4 42.025 49C43.3583 49.6 44.4583 50.4667 45.325 51.6L41.6 54.925C40.5167 53.5583 39.2417 52.875 37.775 52.875C36.5417 52.875 35.55 53.275 34.8 54.075C34.05 54.8583 33.675 55.9167 33.675 57.25C33.675 58.5833 34.05 59.65 34.8 60.45C35.55 61.2333 36.5417 61.625 37.775 61.625C39.2417 61.625 40.5167 60.9417 41.6 59.575L45.325 62.9C44.4583 64.0333 43.3583 64.9 42.025 65.5C40.6917 66.1 39.175 66.4 37.475 66.4ZM61.0285 56.85C62.0618 57.2333 62.8618 57.7917 63.4285 58.525C63.9952 59.2583 64.2785 60.1417 64.2785 61.175C64.2785 62.7083 63.6452 63.9 62.3785 64.75C61.1118 65.5833 59.2785 66 56.8785 66H47.0285V48.5H56.3785C58.7118 48.5 60.4702 48.9167 61.6535 49.75C62.8535 50.5833 63.4535 51.6917 63.4535 53.075C63.4535 53.8917 63.2452 54.625 62.8285 55.275C62.4285 55.925 61.8285 56.45 61.0285 56.85ZM52.8285 52.625V55.225H55.5785C56.8618 55.225 57.5035 54.7917 57.5035 53.925C57.5035 53.0583 56.8618 52.625 55.5785 52.625H52.8285ZM56.3785 61.875C57.6785 61.875 58.3285 61.4167 58.3285 60.5C58.3285 59.5833 57.6785 59.125 56.3785 59.125H52.8285V61.875H56.3785ZM66.3645 48.5H74.9895C76.9395 48.5 78.6561 48.8583 80.1395 49.575C81.6395 50.275 82.7978 51.2833 83.6145 52.6C84.4478 53.9167 84.8645 55.4667 84.8645 57.25C84.8645 59.0333 84.4478 60.5833 83.6145 61.9C82.7978 63.2167 81.6395 64.2333 80.1395 64.95C78.6561 65.65 76.9395 66 74.9895 66H66.3645V48.5ZM74.7395 61.4C76.0061 61.4 77.0145 61.0417 77.7645 60.325C78.5311 59.5917 78.9145 58.5667 78.9145 57.25C78.9145 55.9333 78.5311 54.9167 77.7645 54.2C77.0145 53.4667 76.0061 53.1 74.7395 53.1H72.2645V61.4H74.7395ZM103.639 55.425C104.989 55.7583 106.022 56.3667 106.739 57.25C107.472 58.1167 107.839 59.1667 107.839 60.4C107.839 61.45 107.547 62.4333 106.964 63.35C106.397 64.25 105.514 64.9833 104.314 65.55C103.114 66.1167 101.622 66.4 99.8389 66.4C98.6055 66.4 97.3722 66.2667 96.1389 66C94.9222 65.7333 93.8555 65.3417 92.9389 64.825L94.9389 60.475C95.6555 60.8917 96.4222 61.2083 97.2389 61.425C98.0722 61.6417 98.8722 61.75 99.6389 61.75C100.322 61.75 100.872 61.6333 101.289 61.4C101.706 61.1667 101.914 60.8333 101.914 60.4C101.914 59.6 101.222 59.2 99.8389 59.2H97.5139V55.575L100.089 52.95H93.8389V48.5H106.889V52.125L103.639 55.425ZM117.095 66.4C115.545 66.4 114.17 66.0417 112.97 65.325C111.787 64.5917 110.854 63.5417 110.17 62.175C109.504 60.7917 109.17 59.15 109.17 57.25C109.17 55.35 109.504 53.7167 110.17 52.35C110.854 50.9667 111.787 49.9167 112.97 49.2C114.17 48.4667 115.545 48.1 117.095 48.1C118.645 48.1 120.012 48.4667 121.195 49.2C122.395 49.9167 123.329 50.9667 123.995 52.35C124.679 53.7167 125.02 55.35 125.02 57.25C125.02 59.15 124.679 60.7917 123.995 62.175C123.329 63.5417 122.395 64.5917 121.195 65.325C120.012 66.0417 118.645 66.4 117.095 66.4ZM117.095 61.675C118.429 61.675 119.095 60.2 119.095 57.25C119.095 54.3 118.429 52.825 117.095 52.825C115.762 52.825 115.095 54.3 115.095 57.25C115.095 60.2 115.762 61.675 117.095 61.675ZM138.3 58C136.933 58 135.817 57.5667 134.95 56.7C134.083 55.8333 133.65 54.6417 133.65 53.125C133.65 52.1083 133.85 51.2333 134.25 50.5C134.65 49.7667 135.2 49.2083 135.9 48.825C136.617 48.4417 137.417 48.25 138.3 48.25C139.183 48.25 139.975 48.4417 140.675 48.825C141.392 49.2083 141.95 49.7667 142.35 50.5C142.75 51.2333 142.95 52.1083 142.95 53.125C142.95 54.6417 142.517 55.8333 141.65 56.7C140.783 57.5667 139.667 58 138.3 58ZM148.575 48.5H152.8L140.85 66H136.625L148.575 48.5ZM138.3 55.3C138.617 55.3 138.875 55.1333 139.075 54.8C139.292 54.45 139.4 53.8917 139.4 53.125C139.4 52.3583 139.292 51.8083 139.075 51.475C138.875 51.125 138.617 50.95 138.3 50.95C137.983 50.95 137.717 51.125 137.5 51.475C137.3 51.8083 137.2 52.3583 137.2 53.125C137.2 53.8917 137.3 54.45 137.5 54.8C137.717 55.1333 137.983 55.3 138.3 55.3ZM151.125 66.25C149.758 66.25 148.642 65.8167 147.775 64.95C146.908 64.0833 146.475 62.8917 146.475 61.375C146.475 60.3583 146.675 59.4833 147.075 58.75C147.475 58.0167 148.025 57.4583 148.725 57.075C149.442 56.6917 150.242 56.5 151.125 56.5C152.008 56.5 152.8 56.6917 153.5 57.075C154.217 57.4583 154.775 58.0167 155.175 58.75C155.575 59.4833 155.775 60.3583 155.775 61.375C155.775 62.8917 155.342 64.0833 154.475 64.95C153.608 65.8167 152.492 66.25 151.125 66.25ZM151.125 63.55C151.442 63.55 151.7 63.3833 151.9 63.05C152.117 62.7 152.225 62.1417 152.225 61.375C152.225 60.6083 152.117 60.0583 151.9 59.725C151.7 59.375 151.442 59.2 151.125 59.2C150.808 59.2 150.542 59.375 150.325 59.725C150.125 60.0583 150.025 60.6083 150.025 61.375C150.025 62.1417 150.125 62.7 150.325 63.05C150.542 63.3833 150.808 63.55 151.125 63.55ZM174.62 66L170.145 60.175L165.67 66H164.245L169.42 59.275L164.52 52.95H165.945L170.145 58.375L174.345 52.95H175.745L170.845 59.275L176.095 66H174.62Z" fill="white"/>
<path d="M193.154 48.5V66H187.254V52.95H184.254V48.5H193.154ZM203.228 66.4C201.678 66.4 200.303 66.0417 199.103 65.325C197.92 64.5917 196.986 63.5417 196.303 62.175C195.636 60.7917 195.303 59.15 195.303 57.25C195.303 55.35 195.636 53.7167 196.303 52.35C196.986 50.9667 197.92 49.9167 199.103 49.2C200.303 48.4667 201.678 48.1 203.228 48.1C204.778 48.1 206.145 48.4667 207.328 49.2C208.528 49.9167 209.461 50.9667 210.128 52.35C210.811 53.7167 211.153 55.35 211.153 57.25C211.153 59.15 210.811 60.7917 210.128 62.175C209.461 63.5417 208.528 64.5917 207.328 65.325C206.145 66.0417 204.778 66.4 203.228 66.4ZM203.228 61.675C204.561 61.675 205.228 60.2 205.228 57.25C205.228 54.3 204.561 52.825 203.228 52.825C201.895 52.825 201.228 54.3 201.228 57.25C201.228 60.2 201.895 61.675 203.228 61.675ZM238.733 52.075C240.383 52.075 241.699 52.5833 242.683 53.6C243.683 54.6167 244.183 56.15 244.183 58.2V66H238.533V59.175C238.533 57.6083 238.024 56.825 237.008 56.825C236.474 56.825 236.041 57.025 235.708 57.425C235.391 57.825 235.233 58.4583 235.233 59.325V66H229.583V59.175C229.583 57.6083 229.074 56.825 228.058 56.825C227.524 56.825 227.091 57.025 226.758 57.425C226.441 57.825 226.283 58.4583 226.283 59.325V66H220.633V52.325H226.008V53.6C227.024 52.5833 228.316 52.075 229.883 52.075C230.799 52.075 231.624 52.25 232.358 52.6C233.091 52.9333 233.691 53.45 234.158 54.15C234.708 53.4833 235.374 52.975 236.158 52.625C236.941 52.2583 237.799 52.075 238.733 52.075ZM246.634 47.45H252.284V66H246.634V47.45ZM257.338 66.25C256.388 66.25 255.596 65.95 254.963 65.35C254.346 64.7333 254.038 63.95 254.038 63C254.038 62.05 254.346 61.2833 254.963 60.7C255.596 60.1 256.388 59.8 257.338 59.8C258.288 59.8 259.071 60.1 259.688 60.7C260.321 61.2833 260.638 62.05 260.638 63C260.638 63.95 260.321 64.7333 259.688 65.35C259.071 65.95 258.288 66.25 257.338 66.25Z" fill="#FFD233"/>
</svg>
