<svg width="291" height="92" viewBox="0 0 291 92" fill="none" xmlns="http://www.w3.org/2000/svg">
<path d="M0 5C0 2.23858 2.23858 0 5 0H285C287.761 0 290 2.23858 290 5V87C290 89.7614 287.761 92 285 92H4.99999C2.23857 92 0 89.7614 0 87V5Z" fill="#292929"/>
<rect width="291" height="30" fill="#FFD233"/>
<path d="M184.029 17.042V19H177.627V11.3H183.886V13.258H180.179V14.16H183.435V16.03H180.179V17.042H184.029ZM192.618 11.3V19H190.484L187.558 15.502V19H185.028V11.3H187.162L190.088 14.798V11.3H192.618ZM202.097 11.3L198.841 19H196.289L193.033 11.3H195.827L197.664 15.799L199.545 11.3H202.097ZM202.356 11.3H204.952V19H202.356V11.3ZM203.951 8.913H206.316L204.149 10.673H202.499L203.951 8.913ZM210.238 19.176C209.41 19.176 208.665 19.0037 208.005 18.659C207.345 18.3143 206.828 17.8377 206.454 17.229C206.08 16.613 205.893 15.92 205.893 15.15C205.893 14.38 206.08 13.6907 206.454 13.082C206.828 12.466 207.345 11.9857 208.005 11.641C208.665 11.2963 209.41 11.124 210.238 11.124C211.067 11.124 211.811 11.2963 212.471 11.641C213.131 11.9857 213.648 12.466 214.022 13.082C214.396 13.6907 214.583 14.38 214.583 15.15C214.583 15.92 214.396 16.613 214.022 17.229C213.648 17.8377 213.131 18.3143 212.471 18.659C211.811 19.0037 211.067 19.176 210.238 19.176ZM210.238 17.075C210.561 17.075 210.851 16.998 211.107 16.844C211.371 16.6827 211.58 16.459 211.734 16.173C211.888 15.8797 211.965 15.5387 211.965 15.15C211.965 14.7613 211.888 14.424 211.734 14.138C211.58 13.8447 211.371 13.621 211.107 13.467C210.851 13.3057 210.561 13.225 210.238 13.225C209.916 13.225 209.622 13.3057 209.358 13.467C209.102 13.621 208.896 13.8447 208.742 14.138C208.588 14.424 208.511 14.7613 208.511 15.15C208.511 15.5387 208.588 15.8797 208.742 16.173C208.896 16.459 209.102 16.6827 209.358 16.844C209.622 16.998 209.916 17.075 210.238 17.075ZM223.916 14.941H226.171V18.197C225.717 18.5123 225.189 18.7543 224.587 18.923C223.986 19.0917 223.396 19.176 222.816 19.176C221.995 19.176 221.258 19.0073 220.605 18.67C219.953 18.3253 219.439 17.8487 219.065 17.24C218.699 16.624 218.515 15.9273 218.515 15.15C218.515 14.3727 218.699 13.6797 219.065 13.071C219.439 12.455 219.956 11.9783 220.616 11.641C221.284 11.2963 222.035 11.124 222.871 11.124C223.627 11.124 224.301 11.2523 224.895 11.509C225.497 11.7583 225.995 12.125 226.391 12.609L224.73 14.072C224.246 13.5073 223.671 13.225 223.003 13.225C222.431 13.225 221.977 13.3973 221.639 13.742C221.302 14.0867 221.133 14.556 221.133 15.15C221.133 15.7293 221.298 16.195 221.628 16.547C221.966 16.899 222.413 17.075 222.97 17.075C223.3 17.075 223.616 17.0127 223.916 16.888V14.941ZM230.577 17.064H229.873V19H227.277V11.3H230.984C231.696 11.3 232.315 11.4173 232.843 11.652C233.371 11.8867 233.778 12.224 234.064 12.664C234.35 13.104 234.493 13.6173 234.493 14.204C234.493 14.754 234.369 15.2343 234.119 15.645C233.87 16.0557 233.511 16.382 233.041 16.624L234.658 19H231.886L230.577 17.064ZM231.875 14.204C231.875 13.918 231.787 13.698 231.611 13.544C231.435 13.3827 231.171 13.302 230.819 13.302H229.873V15.106H230.819C231.171 15.106 231.435 15.029 231.611 14.875C231.787 14.7137 231.875 14.49 231.875 14.204ZM240.721 17.658H237.795L237.278 19H234.638L238.004 11.3H240.556L243.922 19H241.238L240.721 17.658ZM240.006 15.788L239.258 13.852L238.51 15.788H240.006ZM245.621 13.313H243.366V11.3H250.472V13.313H248.217V19H245.621V13.313ZM251.147 11.3H253.743V19H251.147V11.3ZM257.863 19.176C257.225 19.176 256.602 19.1063 255.993 18.967C255.392 18.8203 254.897 18.626 254.508 18.384L255.344 16.492C255.711 16.7047 256.122 16.877 256.576 17.009C257.031 17.1337 257.467 17.196 257.885 17.196C258.245 17.196 258.501 17.163 258.655 17.097C258.809 17.0237 258.886 16.9173 258.886 16.778C258.886 16.6167 258.784 16.4957 258.578 16.415C258.38 16.3343 258.05 16.2463 257.588 16.151C256.994 16.0263 256.499 15.8943 256.103 15.755C255.707 15.6083 255.363 15.3737 255.069 15.051C254.776 14.721 254.629 14.2773 254.629 13.72C254.629 13.236 254.765 12.796 255.036 12.4C255.308 12.004 255.711 11.6923 256.246 11.465C256.789 11.2377 257.445 11.124 258.215 11.124C258.743 11.124 259.26 11.1827 259.766 11.3C260.28 11.41 260.731 11.575 261.119 11.795L260.338 13.676C259.583 13.2947 258.868 13.104 258.193 13.104C257.526 13.104 257.192 13.2653 257.192 13.588C257.192 13.742 257.291 13.8593 257.489 13.94C257.687 14.0133 258.014 14.094 258.468 14.182C259.055 14.292 259.55 14.4203 259.953 14.567C260.357 14.7063 260.705 14.9373 260.998 15.26C261.299 15.5827 261.449 16.0227 261.449 16.58C261.449 17.064 261.314 17.504 261.042 17.9C260.771 18.2887 260.364 18.6003 259.821 18.835C259.286 19.0623 258.633 19.176 257.863 19.176Z" fill="#1E1E1E"/>
<path d="M41.029 17.042V19H34.627V11.3H40.886V13.258H37.179V14.16H40.435V16.03H37.179V17.042H41.029ZM49.6184 11.3V19H47.4844L44.5584 15.502V19H42.0284V11.3H44.1624L47.0884 14.798V11.3H49.6184ZM59.0972 11.3L55.8412 19H53.2892L50.0332 11.3H52.8272L54.6642 15.799L56.5452 11.3H59.0972ZM59.3555 11.3H61.9515V19H59.3555V11.3ZM60.9505 8.913H63.3155L61.1485 10.673H59.4985L60.9505 8.913ZM67.2382 19.176C66.4096 19.176 65.6652 19.0037 65.0052 18.659C64.3452 18.3143 63.8282 17.8377 63.4542 17.229C63.0802 16.613 62.8932 15.92 62.8932 15.15C62.8932 14.38 63.0802 13.6907 63.4542 13.082C63.8282 12.466 64.3452 11.9857 65.0052 11.641C65.6652 11.2963 66.4096 11.124 67.2382 11.124C68.0669 11.124 68.8112 11.2963 69.4712 11.641C70.1312 11.9857 70.6482 12.466 71.0222 13.082C71.3962 13.6907 71.5832 14.38 71.5832 15.15C71.5832 15.92 71.3962 16.613 71.0222 17.229C70.6482 17.8377 70.1312 18.3143 69.4712 18.659C68.8112 19.0037 68.0669 19.176 67.2382 19.176ZM67.2382 17.075C67.5609 17.075 67.8506 16.998 68.1072 16.844C68.3712 16.6827 68.5802 16.459 68.7342 16.173C68.8882 15.8797 68.9652 15.5387 68.9652 15.15C68.9652 14.7613 68.8882 14.424 68.7342 14.138C68.5802 13.8447 68.3712 13.621 68.1072 13.467C67.8506 13.3057 67.5609 13.225 67.2382 13.225C66.9156 13.225 66.6222 13.3057 66.3582 13.467C66.1016 13.621 65.8962 13.8447 65.7422 14.138C65.5882 14.424 65.5112 14.7613 65.5112 15.15C65.5112 15.5387 65.5882 15.8797 65.7422 16.173C65.8962 16.459 66.1016 16.6827 66.3582 16.844C66.6222 16.998 66.9156 17.075 67.2382 17.075ZM80.9163 14.941H83.1713V18.197C82.7166 18.5123 82.1886 18.7543 81.5873 18.923C80.986 19.0917 80.3956 19.176 79.8163 19.176C78.995 19.176 78.258 19.0073 77.6053 18.67C76.9526 18.3253 76.4393 17.8487 76.0653 17.24C75.6986 16.624 75.5153 15.9273 75.5153 15.15C75.5153 14.3727 75.6986 13.6797 76.0653 13.071C76.4393 12.455 76.9563 11.9783 77.6163 11.641C78.2836 11.2963 79.0353 11.124 79.8713 11.124C80.6266 11.124 81.3013 11.2523 81.8953 11.509C82.4966 11.7583 82.9953 12.125 83.3913 12.609L81.7303 14.072C81.2463 13.5073 80.6706 13.225 80.0033 13.225C79.4313 13.225 78.9766 13.3973 78.6393 13.742C78.302 14.0867 78.1333 14.556 78.1333 15.15C78.1333 15.7293 78.2983 16.195 78.6283 16.547C78.9656 16.899 79.413 17.075 79.9703 17.075C80.3003 17.075 80.6156 17.0127 80.9163 16.888V14.941ZM87.5774 17.064H86.8734V19H84.2774V11.3H87.9844C88.6957 11.3 89.3154 11.4173 89.8434 11.652C90.3714 11.8867 90.7784 12.224 91.0644 12.664C91.3504 13.104 91.4934 13.6173 91.4934 14.204C91.4934 14.754 91.3687 15.2343 91.1194 15.645C90.8701 16.0557 90.5107 16.382 90.0414 16.624L91.6584 19H88.8864L87.5774 17.064ZM88.8754 14.204C88.8754 13.918 88.7874 13.698 88.6114 13.544C88.4354 13.3827 88.1714 13.302 87.8194 13.302H86.8734V15.106H87.8194C88.1714 15.106 88.4354 15.029 88.6114 14.875C88.7874 14.7137 88.8754 14.49 88.8754 14.204ZM97.7207 17.658H94.7947L94.2777 19H91.6377L95.0037 11.3H97.5557L100.922 19H98.2377L97.7207 17.658ZM97.0057 15.788L96.2577 13.852L95.5097 15.788H97.0057ZM102.621 13.313H100.366V11.3H107.472V13.313H105.217V19H102.621V13.313ZM108.147 11.3H110.743V19H108.147V11.3ZM114.863 19.176C114.225 19.176 113.602 19.1063 112.993 18.967C112.392 18.8203 111.897 18.626 111.508 18.384L112.344 16.492C112.711 16.7047 113.122 16.877 113.576 17.009C114.031 17.1337 114.467 17.196 114.885 17.196C115.245 17.196 115.501 17.163 115.655 17.097C115.809 17.0237 115.886 16.9173 115.886 16.778C115.886 16.6167 115.784 16.4957 115.578 16.415C115.38 16.3343 115.05 16.2463 114.588 16.151C113.994 16.0263 113.499 15.8943 113.103 15.755C112.707 15.6083 112.363 15.3737 112.069 15.051C111.776 14.721 111.629 14.2773 111.629 13.72C111.629 13.236 111.765 12.796 112.036 12.4C112.308 12.004 112.711 11.6923 113.246 11.465C113.789 11.2377 114.445 11.124 115.215 11.124C115.743 11.124 116.26 11.1827 116.766 11.3C117.28 11.41 117.731 11.575 118.119 11.795L117.338 13.676C116.583 13.2947 115.868 13.104 115.193 13.104C114.526 13.104 114.192 13.2653 114.192 13.588C114.192 13.742 114.291 13.8593 114.489 13.94C114.687 14.0133 115.014 14.094 115.468 14.182C116.055 14.292 116.55 14.4203 116.953 14.567C117.357 14.7063 117.705 14.9373 117.998 15.26C118.299 15.5827 118.449 16.0227 118.449 16.58C118.449 17.064 118.314 17.504 118.042 17.9C117.771 18.2887 117.364 18.6003 116.821 18.835C116.286 19.0623 115.633 19.176 114.863 19.176Z" fill="#1E1E1E"/>
<path fill-rule="evenodd" clip-rule="evenodd" d="M146.866 9.10174C146.317 9.68836 145.746 10.9456 145.487 12.1409C145.329 12.8665 145.263 13.455 145.238 14.3402L145.218 15.0864L144.922 14.7533C144.149 13.8845 143.138 13.0714 142.095 12.4822C141.387 12.082 140.285 11.6231 140.263 11.719C140.244 11.7971 140.353 12.5229 140.449 12.9628C140.614 13.7165 140.897 14.566 141.219 15.2787C141.487 15.8706 141.989 16.757 142.3 17.1856C142.377 17.2918 142.383 17.3106 142.335 17.2969C142.302 17.2878 142.135 17.2541 141.963 17.2221C141.047 17.0516 140.055 17.0632 139.319 17.2532C138.953 17.3477 138.96 17.3405 139.057 17.5211C139.282 17.9423 139.749 18.509 140.187 18.8939C140.825 19.4548 141.557 19.868 142.525 20.2128L142.617 20.2457L142.419 20.3637C142.027 20.5957 141.705 20.8493 141.157 21.3543C140.852 21.6363 140.602 21.8761 140.602 21.8872C140.602 21.9127 140.987 22.0205 141.275 22.0754C141.639 22.145 142.264 22.1823 143.137 22.1867C143.803 22.19 144.031 22.1805 144.295 22.1385C144.984 22.0289 146.018 21.6974 146.485 21.4363C146.685 21.3245 146.704 21.3312 146.705 21.5146C146.705 21.6599 146.789 22.1497 146.879 22.5268C147.023 23.1321 147.315 23.871 147.447 23.9633C147.475 23.9835 147.573 24 147.663 24C147.802 24 147.836 23.9886 147.891 23.9227C147.98 23.8171 147.973 23.6903 147.866 23.4683C147.628 22.974 147.472 22.3755 147.345 21.4695L147.33 21.3607L147.651 21.515C148.139 21.7496 148.878 21.988 149.483 22.1059C150.176 22.2409 152.01 22.2163 152.768 22.0619C153.01 22.0127 153.371 21.9088 153.371 21.8885C153.371 21.8602 152.315 20.8887 152.132 20.7492C152.045 20.6825 151.836 20.5415 151.667 20.4358L151.361 20.2436L151.45 20.2117C152.429 19.8632 153.119 19.4722 153.797 18.8824C154.209 18.5239 154.688 17.9431 154.906 17.539L155 17.3638L154.89 17.3207C154.73 17.2578 154.304 17.1703 153.981 17.1338C153.3 17.0568 152.318 17.1255 151.655 17.2964C151.591 17.3129 151.603 17.2861 151.751 17.069C152.733 15.6318 153.44 13.8226 153.667 12.1614C153.693 11.9709 153.715 11.7829 153.715 11.7437V11.6725L153.496 11.7466C151.918 12.2803 150.239 13.4158 149.051 14.7531L148.754 15.0864L148.734 14.3549C148.723 13.9525 148.691 13.4318 148.662 13.1977C148.473 11.6593 148.002 10.3117 147.324 9.37327C147.182 9.17712 147.022 9 146.986 9C146.973 9 146.919 9.04579 146.866 9.10174ZM147.09 10.1668C147.504 11.0332 147.836 12.165 147.986 13.219C148.167 14.4967 148.137 15.7354 147.892 17.1311C147.84 17.4298 147.79 17.7006 147.782 17.7329C147.774 17.7652 147.834 17.6661 147.917 17.5127C148.306 16.7898 148.811 16.0711 149.423 15.3699C150.261 14.4094 151.573 13.3911 152.878 12.6882C153.061 12.5894 153.061 12.5881 152.932 13.0509C152.707 13.8606 152.319 14.8198 151.897 15.6092C151.37 16.5961 150.795 17.3649 149.974 18.1782L149.584 18.5648L149.858 18.4502C150.836 18.0408 151.657 17.8267 152.557 17.7459C152.938 17.7117 153.576 17.7257 153.762 17.7723L153.848 17.7939L153.682 17.9836C153.06 18.6923 152.128 19.3128 151.107 19.6972C150.706 19.8483 150.259 19.9726 149.725 20.0817C149.466 20.1344 149.276 20.1848 149.302 20.1937C149.328 20.2026 149.434 20.2254 149.537 20.2445C150.199 20.3668 151.233 20.8558 151.922 21.3732C152.053 21.4713 152.106 21.5287 152.085 21.5487C152.034 21.5958 149.988 21.5876 149.756 21.5393C148.874 21.3562 147.813 20.9474 147.219 20.5622L146.986 20.4114L146.759 20.5571C146.162 20.9407 145.211 21.3181 144.357 21.5104C144.078 21.5732 143.995 21.5774 143.005 21.5778C142.259 21.5781 141.94 21.5685 141.915 21.5449C141.888 21.52 141.934 21.4707 142.093 21.3503C142.739 20.8639 143.652 20.4231 144.35 20.2612C144.449 20.2382 144.572 20.2098 144.623 20.198C144.701 20.1802 144.648 20.1625 144.31 20.0942C142.998 19.8288 142.075 19.4434 141.174 18.7853C140.875 18.5668 140.381 18.1095 140.234 17.9155L140.131 17.7806L140.281 17.7568C140.363 17.7436 140.676 17.7345 140.977 17.7365C141.98 17.743 142.824 17.9304 144.029 18.414C144.166 18.4693 144.3 18.5229 144.326 18.5331C144.352 18.5433 144.208 18.3873 144.007 18.1863C143.548 17.7278 143.292 17.4393 142.979 17.0255C142.283 16.1077 141.669 14.9309 141.249 13.7114C141.106 13.2973 140.946 12.7406 140.946 12.6581C140.946 12.6019 141.237 12.7521 141.807 13.1025C142.88 13.7626 143.865 14.5826 144.6 15.4286C145.143 16.0536 145.599 16.6937 145.947 17.3219C146.09 17.5802 146.199 17.7521 146.188 17.7038C146.119 17.4056 145.982 16.5431 145.935 16.1184C145.867 15.5123 145.859 14.333 145.918 13.7554C146.035 12.6085 146.359 11.3348 146.764 10.4282C146.928 10.0625 146.961 9.99804 146.987 9.99804C146.999 9.99804 147.045 10.074 147.09 10.1668Z" fill="#4ECB71"/>
<path d="M36.475 68.4C34.625 68.4 32.9583 68.0167 31.475 67.25C29.9917 66.4667 28.825 65.3833 27.975 64C27.1417 62.6 26.725 61.0167 26.725 59.25C26.725 57.4833 27.1417 55.9083 27.975 54.525C28.825 53.125 29.9917 52.0417 31.475 51.275C32.9583 50.4917 34.625 50.1 36.475 50.1C38.175 50.1 39.6917 50.4 41.025 51C42.3583 51.6 43.4583 52.4667 44.325 53.6L40.6 56.925C39.5167 55.5583 38.2417 54.875 36.775 54.875C35.5417 54.875 34.55 55.275 33.8 56.075C33.05 56.8583 32.675 57.9167 32.675 59.25C32.675 60.5833 33.05 61.65 33.8 62.45C34.55 63.2333 35.5417 63.625 36.775 63.625C38.2417 63.625 39.5167 62.9417 40.6 61.575L44.325 64.9C43.4583 66.0333 42.3583 66.9 41.025 67.5C39.6917 68.1 38.175 68.4 36.475 68.4ZM60.0285 58.85C61.0618 59.2333 61.8618 59.7917 62.4285 60.525C62.9952 61.2583 63.2785 62.1417 63.2785 63.175C63.2785 64.7083 62.6452 65.9 61.3785 66.75C60.1118 67.5833 58.2785 68 55.8785 68H46.0285V50.5H55.3785C57.7118 50.5 59.4702 50.9167 60.6535 51.75C61.8535 52.5833 62.4535 53.6917 62.4535 55.075C62.4535 55.8917 62.2452 56.625 61.8285 57.275C61.4285 57.925 60.8285 58.45 60.0285 58.85ZM51.8285 54.625V57.225H54.5785C55.8618 57.225 56.5035 56.7917 56.5035 55.925C56.5035 55.0583 55.8618 54.625 54.5785 54.625H51.8285ZM55.3785 63.875C56.6785 63.875 57.3285 63.4167 57.3285 62.5C57.3285 61.5833 56.6785 61.125 55.3785 61.125H51.8285V63.875H55.3785ZM65.3645 50.5H73.9895C75.9395 50.5 77.6561 50.8583 79.1395 51.575C80.6395 52.275 81.7978 53.2833 82.6145 54.6C83.4478 55.9167 83.8645 57.4667 83.8645 59.25C83.8645 61.0333 83.4478 62.5833 82.6145 63.9C81.7978 65.2167 80.6395 66.2333 79.1395 66.95C77.6561 67.65 75.9395 68 73.9895 68H65.3645V50.5ZM73.7395 63.4C75.0061 63.4 76.0145 63.0417 76.7645 62.325C77.5311 61.5917 77.9145 60.5667 77.9145 59.25C77.9145 57.9333 77.5311 56.9167 76.7645 56.2C76.0145 55.4667 75.0061 55.1 73.7395 55.1H71.2645V63.4H73.7395ZM102.639 57.425C103.989 57.7583 105.022 58.3667 105.739 59.25C106.472 60.1167 106.839 61.1667 106.839 62.4C106.839 63.45 106.547 64.4333 105.964 65.35C105.397 66.25 104.514 66.9833 103.314 67.55C102.114 68.1167 100.622 68.4 98.8389 68.4C97.6055 68.4 96.3722 68.2667 95.1389 68C93.9222 67.7333 92.8555 67.3417 91.9389 66.825L93.9389 62.475C94.6555 62.8917 95.4222 63.2083 96.2389 63.425C97.0722 63.6417 97.8722 63.75 98.6389 63.75C99.3222 63.75 99.8722 63.6333 100.289 63.4C100.706 63.1667 100.914 62.8333 100.914 62.4C100.914 61.6 100.222 61.2 98.8389 61.2H96.5139V57.575L99.0889 54.95H92.8389V50.5H105.889V54.125L102.639 57.425ZM116.095 68.4C114.545 68.4 113.17 68.0417 111.97 67.325C110.787 66.5917 109.854 65.5417 109.17 64.175C108.504 62.7917 108.17 61.15 108.17 59.25C108.17 57.35 108.504 55.7167 109.17 54.35C109.854 52.9667 110.787 51.9167 111.97 51.2C113.17 50.4667 114.545 50.1 116.095 50.1C117.645 50.1 119.012 50.4667 120.195 51.2C121.395 51.9167 122.329 52.9667 122.995 54.35C123.679 55.7167 124.02 57.35 124.02 59.25C124.02 61.15 123.679 62.7917 122.995 64.175C122.329 65.5417 121.395 66.5917 120.195 67.325C119.012 68.0417 117.645 68.4 116.095 68.4ZM116.095 63.675C117.429 63.675 118.095 62.2 118.095 59.25C118.095 56.3 117.429 54.825 116.095 54.825C114.762 54.825 114.095 56.3 114.095 59.25C114.095 62.2 114.762 63.675 116.095 63.675ZM137.3 60C135.933 60 134.817 59.5667 133.95 58.7C133.083 57.8333 132.65 56.6417 132.65 55.125C132.65 54.1083 132.85 53.2333 133.25 52.5C133.65 51.7667 134.2 51.2083 134.9 50.825C135.617 50.4417 136.417 50.25 137.3 50.25C138.183 50.25 138.975 50.4417 139.675 50.825C140.392 51.2083 140.95 51.7667 141.35 52.5C141.75 53.2333 141.95 54.1083 141.95 55.125C141.95 56.6417 141.517 57.8333 140.65 58.7C139.783 59.5667 138.667 60 137.3 60ZM147.575 50.5H151.8L139.85 68H135.625L147.575 50.5ZM137.3 57.3C137.617 57.3 137.875 57.1333 138.075 56.8C138.292 56.45 138.4 55.8917 138.4 55.125C138.4 54.3583 138.292 53.8083 138.075 53.475C137.875 53.125 137.617 52.95 137.3 52.95C136.983 52.95 136.717 53.125 136.5 53.475C136.3 53.8083 136.2 54.3583 136.2 55.125C136.2 55.8917 136.3 56.45 136.5 56.8C136.717 57.1333 136.983 57.3 137.3 57.3ZM150.125 68.25C148.758 68.25 147.642 67.8167 146.775 66.95C145.908 66.0833 145.475 64.8917 145.475 63.375C145.475 62.3583 145.675 61.4833 146.075 60.75C146.475 60.0167 147.025 59.4583 147.725 59.075C148.442 58.6917 149.242 58.5 150.125 58.5C151.008 58.5 151.8 58.6917 152.5 59.075C153.217 59.4583 153.775 60.0167 154.175 60.75C154.575 61.4833 154.775 62.3583 154.775 63.375C154.775 64.8917 154.342 66.0833 153.475 66.95C152.608 67.8167 151.492 68.25 150.125 68.25ZM150.125 65.55C150.442 65.55 150.7 65.3833 150.9 65.05C151.117 64.7 151.225 64.1417 151.225 63.375C151.225 62.6083 151.117 62.0583 150.9 61.725C150.7 61.375 150.442 61.2 150.125 61.2C149.808 61.2 149.542 61.375 149.325 61.725C149.125 62.0583 149.025 62.6083 149.025 63.375C149.025 64.1417 149.125 64.7 149.325 65.05C149.542 65.3833 149.808 65.55 150.125 65.55ZM173.62 68L169.145 62.175L164.67 68H163.245L168.42 61.275L163.52 54.95H164.945L169.145 60.375L173.345 54.95H174.745L169.845 61.275L175.095 68H173.62Z" fill="white"/>
<path d="M193.679 57.425C195.029 57.7583 196.062 58.3667 196.779 59.25C197.512 60.1167 197.879 61.1667 197.879 62.4C197.879 63.45 197.587 64.4333 197.004 65.35C196.437 66.25 195.554 66.9833 194.354 67.55C193.154 68.1167 191.662 68.4 189.879 68.4C188.646 68.4 187.412 68.2667 186.179 68C184.962 67.7333 183.896 67.3417 182.979 66.825L184.979 62.475C185.696 62.8917 186.462 63.2083 187.279 63.425C188.112 63.6417 188.912 63.75 189.679 63.75C190.362 63.75 190.912 63.6333 191.329 63.4C191.746 63.1667 191.954 62.8333 191.954 62.4C191.954 61.6 191.262 61.2 189.879 61.2H187.554V57.575L190.129 54.95H183.879V50.5H196.929V54.125L193.679 57.425ZM207.135 68.4C205.585 68.4 204.21 68.0417 203.01 67.325C201.827 66.5917 200.894 65.5417 200.21 64.175C199.544 62.7917 199.21 61.15 199.21 59.25C199.21 57.35 199.544 55.7167 200.21 54.35C200.894 52.9667 201.827 51.9167 203.01 51.2C204.21 50.4667 205.585 50.1 207.135 50.1C208.685 50.1 210.052 50.4667 211.235 51.2C212.435 51.9167 213.369 52.9667 214.035 54.35C214.719 55.7167 215.06 57.35 215.06 59.25C215.06 61.15 214.719 62.7917 214.035 64.175C213.369 65.5417 212.435 66.5917 211.235 67.325C210.052 68.0417 208.685 68.4 207.135 68.4ZM207.135 63.675C208.469 63.675 209.135 62.2 209.135 59.25C209.135 56.3 208.469 54.825 207.135 54.825C205.802 54.825 205.135 56.3 205.135 59.25C205.135 62.2 205.802 63.675 207.135 63.675ZM242.64 54.075C244.29 54.075 245.607 54.5833 246.59 55.6C247.59 56.6167 248.09 58.15 248.09 60.2V68H242.44V61.175C242.44 59.6083 241.932 58.825 240.915 58.825C240.382 58.825 239.948 59.025 239.615 59.425C239.298 59.825 239.14 60.4583 239.14 61.325V68H233.49V61.175C233.49 59.6083 232.982 58.825 231.965 58.825C231.432 58.825 230.998 59.025 230.665 59.425C230.348 59.825 230.19 60.4583 230.19 61.325V68H224.54V54.325H229.915V55.6C230.932 54.5833 232.223 54.075 233.79 54.075C234.707 54.075 235.532 54.25 236.265 54.6C236.998 54.9333 237.598 55.45 238.065 56.15C238.615 55.4833 239.282 54.975 240.065 54.625C240.848 54.2583 241.707 54.075 242.64 54.075ZM250.541 49.45H256.191V68H250.541V49.45ZM261.245 68.25C260.295 68.25 259.504 67.95 258.87 67.35C258.254 66.7333 257.945 65.95 257.945 65C257.945 64.05 258.254 63.2833 258.87 62.7C259.504 62.1 260.295 61.8 261.245 61.8C262.195 61.8 262.979 62.1 263.595 62.7C264.229 63.2833 264.545 64.05 264.545 65C264.545 65.95 264.229 66.7333 263.595 67.35C262.979 67.95 262.195 68.25 261.245 68.25Z" fill="#FFD233"/>
</svg>
