<svg width="291" height="92" viewBox="0 0 291 92" fill="none" xmlns="http://www.w3.org/2000/svg">
<path d="M0 5C0 2.23858 2.23858 0 5 0H285C287.761 0 290 2.23858 290 5V87C290 89.7614 287.761 92 285 92H4.99999C2.23857 92 0 89.7614 0 87V5Z" fill="#4ECB71"/>
<path d="M33.475 68.4C31.625 68.4 29.9583 68.0167 28.475 67.25C26.9917 66.4667 25.825 65.3833 24.975 64C24.1417 62.6 23.725 61.0167 23.725 59.25C23.725 57.4833 24.1417 55.9083 24.975 54.525C25.825 53.125 26.9917 52.0417 28.475 51.275C29.9583 50.4917 31.625 50.1 33.475 50.1C35.175 50.1 36.6917 50.4 38.025 51C39.3583 51.6 40.4583 52.4667 41.325 53.6L37.6 56.925C36.5167 55.5583 35.2417 54.875 33.775 54.875C32.5417 54.875 31.55 55.275 30.8 56.075C30.05 56.8583 29.675 57.9167 29.675 59.25C29.675 60.5833 30.05 61.65 30.8 62.45C31.55 63.2333 32.5417 63.625 33.775 63.625C35.2417 63.625 36.5167 62.9417 37.6 61.575L41.325 64.9C40.4583 66.0333 39.3583 66.9 38.025 67.5C36.6917 68.1 35.175 68.4 33.475 68.4ZM57.0285 58.85C58.0618 59.2333 58.8618 59.7917 59.4285 60.525C59.9952 61.2583 60.2785 62.1417 60.2785 63.175C60.2785 64.7083 59.6452 65.9 58.3785 66.75C57.1118 67.5833 55.2785 68 52.8785 68H43.0285V50.5H52.3785C54.7118 50.5 56.4702 50.9167 57.6535 51.75C58.8535 52.5833 59.4535 53.6917 59.4535 55.075C59.4535 55.8917 59.2452 56.625 58.8285 57.275C58.4285 57.925 57.8285 58.45 57.0285 58.85ZM48.8285 54.625V57.225H51.5785C52.8618 57.225 53.5035 56.7917 53.5035 55.925C53.5035 55.0583 52.8618 54.625 51.5785 54.625H48.8285ZM52.3785 63.875C53.6785 63.875 54.3285 63.4167 54.3285 62.5C54.3285 61.5833 53.6785 61.125 52.3785 61.125H48.8285V63.875H52.3785ZM62.3645 50.5H70.9895C72.9395 50.5 74.6561 50.8583 76.1395 51.575C77.6395 52.275 78.7978 53.2833 79.6145 54.6C80.4478 55.9167 80.8645 57.4667 80.8645 59.25C80.8645 61.0333 80.4478 62.5833 79.6145 63.9C78.7978 65.2167 77.6395 66.2333 76.1395 66.95C74.6561 67.65 72.9395 68 70.9895 68H62.3645V50.5ZM70.7395 63.4C72.0061 63.4 73.0145 63.0417 73.7645 62.325C74.5311 61.5917 74.9145 60.5667 74.9145 59.25C74.9145 57.9333 74.5311 56.9167 73.7645 56.2C73.0145 55.4667 72.0061 55.1 70.7395 55.1H68.2645V63.4H70.7395ZM99.6389 57.425C100.989 57.7583 102.022 58.3667 102.739 59.25C103.472 60.1167 103.839 61.1667 103.839 62.4C103.839 63.45 103.547 64.4333 102.964 65.35C102.397 66.25 101.514 66.9833 100.314 67.55C99.1139 68.1167 97.6222 68.4 95.8389 68.4C94.6055 68.4 93.3722 68.2667 92.1389 68C90.9222 67.7333 89.8555 67.3417 88.9389 66.825L90.9389 62.475C91.6555 62.8917 92.4222 63.2083 93.2389 63.425C94.0722 63.6417 94.8722 63.75 95.6389 63.75C96.3222 63.75 96.8722 63.6333 97.2889 63.4C97.7055 63.1667 97.9139 62.8333 97.9139 62.4C97.9139 61.6 97.2222 61.2 95.8389 61.2H93.5139V57.575L96.0889 54.95H89.8389V50.5H102.889V54.125L99.6389 57.425ZM113.095 68.4C111.545 68.4 110.17 68.0417 108.97 67.325C107.787 66.5917 106.854 65.5417 106.17 64.175C105.504 62.7917 105.17 61.15 105.17 59.25C105.17 57.35 105.504 55.7167 106.17 54.35C106.854 52.9667 107.787 51.9167 108.97 51.2C110.17 50.4667 111.545 50.1 113.095 50.1C114.645 50.1 116.012 50.4667 117.195 51.2C118.395 51.9167 119.329 52.9667 119.995 54.35C120.679 55.7167 121.02 57.35 121.02 59.25C121.02 61.15 120.679 62.7917 119.995 64.175C119.329 65.5417 118.395 66.5917 117.195 67.325C116.012 68.0417 114.645 68.4 113.095 68.4ZM113.095 63.675C114.429 63.675 115.095 62.2 115.095 59.25C115.095 56.3 114.429 54.825 113.095 54.825C111.762 54.825 111.095 56.3 111.095 59.25C111.095 62.2 111.762 63.675 113.095 63.675ZM134.3 60C132.933 60 131.817 59.5667 130.95 58.7C130.083 57.8333 129.65 56.6417 129.65 55.125C129.65 54.1083 129.85 53.2333 130.25 52.5C130.65 51.7667 131.2 51.2083 131.9 50.825C132.617 50.4417 133.417 50.25 134.3 50.25C135.183 50.25 135.975 50.4417 136.675 50.825C137.392 51.2083 137.95 51.7667 138.35 52.5C138.75 53.2333 138.95 54.1083 138.95 55.125C138.95 56.6417 138.517 57.8333 137.65 58.7C136.783 59.5667 135.667 60 134.3 60ZM144.575 50.5H148.8L136.85 68H132.625L144.575 50.5ZM134.3 57.3C134.617 57.3 134.875 57.1333 135.075 56.8C135.292 56.45 135.4 55.8917 135.4 55.125C135.4 54.3583 135.292 53.8083 135.075 53.475C134.875 53.125 134.617 52.95 134.3 52.95C133.983 52.95 133.717 53.125 133.5 53.475C133.3 53.8083 133.2 54.3583 133.2 55.125C133.2 55.8917 133.3 56.45 133.5 56.8C133.717 57.1333 133.983 57.3 134.3 57.3ZM147.125 68.25C145.758 68.25 144.642 67.8167 143.775 66.95C142.908 66.0833 142.475 64.8917 142.475 63.375C142.475 62.3583 142.675 61.4833 143.075 60.75C143.475 60.0167 144.025 59.4583 144.725 59.075C145.442 58.6917 146.242 58.5 147.125 58.5C148.008 58.5 148.8 58.6917 149.5 59.075C150.217 59.4583 150.775 60.0167 151.175 60.75C151.575 61.4833 151.775 62.3583 151.775 63.375C151.775 64.8917 151.342 66.0833 150.475 66.95C149.608 67.8167 148.492 68.25 147.125 68.25ZM147.125 65.55C147.442 65.55 147.7 65.3833 147.9 65.05C148.117 64.7 148.225 64.1417 148.225 63.375C148.225 62.6083 148.117 62.0583 147.9 61.725C147.7 61.375 147.442 61.2 147.125 61.2C146.808 61.2 146.542 61.375 146.325 61.725C146.125 62.0583 146.025 62.6083 146.025 63.375C146.025 64.1417 146.125 64.7 146.325 65.05C146.542 65.3833 146.808 65.55 147.125 65.55ZM170.62 68L166.145 62.175L161.67 68H160.245L165.42 61.275L160.52 54.95H161.945L166.145 60.375L170.345 54.95H171.745L166.845 61.275L172.095 68H170.62Z" fill="white"/>
<path d="M190.354 56.675C191.421 56.675 192.412 56.9083 193.329 57.375C194.246 57.8417 194.979 58.5 195.529 59.35C196.079 60.2 196.354 61.175 196.354 62.275C196.354 63.4917 196.037 64.5667 195.404 65.5C194.787 66.4333 193.937 67.15 192.854 67.65C191.771 68.15 190.571 68.4 189.254 68.4C187.571 68.4 186.096 68.075 184.829 67.425C183.579 66.775 182.604 65.8083 181.904 64.525C181.204 63.2417 180.854 61.6667 180.854 59.8C180.854 57.8 181.254 56.0667 182.054 54.6C182.871 53.1333 184.004 52.0167 185.454 51.25C186.921 50.4833 188.621 50.1 190.554 50.1C191.604 50.1 192.604 50.225 193.554 50.475C194.504 50.7083 195.312 51.0417 195.979 51.475L193.854 55.6C192.987 54.9833 191.929 54.675 190.679 54.675C189.662 54.675 188.821 54.9333 188.154 55.45C187.504 55.95 187.079 56.6833 186.879 57.65C187.796 57 188.954 56.675 190.354 56.675ZM188.854 64.325C189.387 64.325 189.821 64.1667 190.154 63.85C190.487 63.5333 190.654 63.1 190.654 62.55C190.654 62 190.487 61.5667 190.154 61.25C189.821 60.9167 189.387 60.75 188.854 60.75C188.321 60.75 187.887 60.9167 187.554 61.25C187.221 61.5667 187.054 62 187.054 62.55C187.054 63.1 187.221 63.5333 187.554 63.85C187.887 64.1667 188.321 64.325 188.854 64.325ZM205.307 68.4C203.757 68.4 202.382 68.0417 201.182 67.325C199.999 66.5917 199.066 65.5417 198.382 64.175C197.716 62.7917 197.382 61.15 197.382 59.25C197.382 57.35 197.716 55.7167 198.382 54.35C199.066 52.9667 199.999 51.9167 201.182 51.2C202.382 50.4667 203.757 50.1 205.307 50.1C206.857 50.1 208.224 50.4667 209.407 51.2C210.607 51.9167 211.541 52.9667 212.207 54.35C212.891 55.7167 213.232 57.35 213.232 59.25C213.232 61.15 212.891 62.7917 212.207 64.175C211.541 65.5417 210.607 66.5917 209.407 67.325C208.224 68.0417 206.857 68.4 205.307 68.4ZM205.307 63.675C206.641 63.675 207.307 62.2 207.307 59.25C207.307 56.3 206.641 54.825 205.307 54.825C203.974 54.825 203.307 56.3 203.307 59.25C203.307 62.2 203.974 63.675 205.307 63.675ZM240.812 54.075C242.462 54.075 243.779 54.5833 244.762 55.6C245.762 56.6167 246.262 58.15 246.262 60.2V68H240.612V61.175C240.612 59.6083 240.104 58.825 239.087 58.825C238.554 58.825 238.12 59.025 237.787 59.425C237.47 59.825 237.312 60.4583 237.312 61.325V68H231.662V61.175C231.662 59.6083 231.154 58.825 230.137 58.825C229.604 58.825 229.17 59.025 228.837 59.425C228.52 59.825 228.362 60.4583 228.362 61.325V68H222.712V54.325H228.087V55.6C229.104 54.5833 230.395 54.075 231.962 54.075C232.879 54.075 233.704 54.25 234.437 54.6C235.17 54.9333 235.77 55.45 236.237 56.15C236.787 55.4833 237.454 54.975 238.237 54.625C239.02 54.2583 239.879 54.075 240.812 54.075ZM248.713 49.45H254.363V68H248.713V49.45ZM259.417 68.25C258.467 68.25 257.676 67.95 257.042 67.35C256.426 66.7333 256.117 65.95 256.117 65C256.117 64.05 256.426 63.2833 257.042 62.7C257.676 62.1 258.467 61.8 259.417 61.8C260.367 61.8 261.151 62.1 261.767 62.7C262.401 63.2833 262.717 64.05 262.717 65C262.717 65.95 262.401 66.7333 261.767 67.35C261.151 67.95 260.367 68.25 259.417 68.25Z" fill="#FFD233"/>
<rect width="291" height="30" fill="#FFD233"/>
<path d="M41.029 17.042V19H34.627V11.3H40.886V13.258H37.179V14.16H40.435V16.03H37.179V17.042H41.029ZM49.6184 11.3V19H47.4844L44.5584 15.502V19H42.0284V11.3H44.1624L47.0884 14.798V11.3H49.6184ZM59.0972 11.3L55.8412 19H53.2892L50.0332 11.3H52.8272L54.6642 15.799L56.5452 11.3H59.0972ZM59.3555 11.3H61.9515V19H59.3555V11.3ZM60.9505 8.913H63.3155L61.1485 10.673H59.4985L60.9505 8.913ZM67.2382 19.176C66.4096 19.176 65.6652 19.0037 65.0052 18.659C64.3452 18.3143 63.8282 17.8377 63.4542 17.229C63.0802 16.613 62.8932 15.92 62.8932 15.15C62.8932 14.38 63.0802 13.6907 63.4542 13.082C63.8282 12.466 64.3452 11.9857 65.0052 11.641C65.6652 11.2963 66.4096 11.124 67.2382 11.124C68.0669 11.124 68.8112 11.2963 69.4712 11.641C70.1312 11.9857 70.6482 12.466 71.0222 13.082C71.3962 13.6907 71.5832 14.38 71.5832 15.15C71.5832 15.92 71.3962 16.613 71.0222 17.229C70.6482 17.8377 70.1312 18.3143 69.4712 18.659C68.8112 19.0037 68.0669 19.176 67.2382 19.176ZM67.2382 17.075C67.5609 17.075 67.8506 16.998 68.1072 16.844C68.3712 16.6827 68.5802 16.459 68.7342 16.173C68.8882 15.8797 68.9652 15.5387 68.9652 15.15C68.9652 14.7613 68.8882 14.424 68.7342 14.138C68.5802 13.8447 68.3712 13.621 68.1072 13.467C67.8506 13.3057 67.5609 13.225 67.2382 13.225C66.9156 13.225 66.6222 13.3057 66.3582 13.467C66.1016 13.621 65.8962 13.8447 65.7422 14.138C65.5882 14.424 65.5112 14.7613 65.5112 15.15C65.5112 15.5387 65.5882 15.8797 65.7422 16.173C65.8962 16.459 66.1016 16.6827 66.3582 16.844C66.6222 16.998 66.9156 17.075 67.2382 17.075ZM80.9163 14.941H83.1713V18.197C82.7166 18.5123 82.1886 18.7543 81.5873 18.923C80.986 19.0917 80.3956 19.176 79.8163 19.176C78.995 19.176 78.258 19.0073 77.6053 18.67C76.9526 18.3253 76.4393 17.8487 76.0653 17.24C75.6986 16.624 75.5153 15.9273 75.5153 15.15C75.5153 14.3727 75.6986 13.6797 76.0653 13.071C76.4393 12.455 76.9563 11.9783 77.6163 11.641C78.2836 11.2963 79.0353 11.124 79.8713 11.124C80.6266 11.124 81.3013 11.2523 81.8953 11.509C82.4966 11.7583 82.9953 12.125 83.3913 12.609L81.7303 14.072C81.2463 13.5073 80.6706 13.225 80.0033 13.225C79.4313 13.225 78.9766 13.3973 78.6393 13.742C78.302 14.0867 78.1333 14.556 78.1333 15.15C78.1333 15.7293 78.2983 16.195 78.6283 16.547C78.9656 16.899 79.413 17.075 79.9703 17.075C80.3003 17.075 80.6156 17.0127 80.9163 16.888V14.941ZM87.5774 17.064H86.8734V19H84.2774V11.3H87.9844C88.6957 11.3 89.3154 11.4173 89.8434 11.652C90.3714 11.8867 90.7784 12.224 91.0644 12.664C91.3504 13.104 91.4934 13.6173 91.4934 14.204C91.4934 14.754 91.3687 15.2343 91.1194 15.645C90.8701 16.0557 90.5107 16.382 90.0414 16.624L91.6584 19H88.8864L87.5774 17.064ZM88.8754 14.204C88.8754 13.918 88.7874 13.698 88.6114 13.544C88.4354 13.3827 88.1714 13.302 87.8194 13.302H86.8734V15.106H87.8194C88.1714 15.106 88.4354 15.029 88.6114 14.875C88.7874 14.7137 88.8754 14.49 88.8754 14.204ZM97.7207 17.658H94.7947L94.2777 19H91.6377L95.0037 11.3H97.5557L100.922 19H98.2377L97.7207 17.658ZM97.0057 15.788L96.2577 13.852L95.5097 15.788H97.0057ZM102.621 13.313H100.366V11.3H107.472V13.313H105.217V19H102.621V13.313ZM108.147 11.3H110.743V19H108.147V11.3ZM114.863 19.176C114.225 19.176 113.602 19.1063 112.993 18.967C112.392 18.8203 111.897 18.626 111.508 18.384L112.344 16.492C112.711 16.7047 113.122 16.877 113.576 17.009C114.031 17.1337 114.467 17.196 114.885 17.196C115.245 17.196 115.501 17.163 115.655 17.097C115.809 17.0237 115.886 16.9173 115.886 16.778C115.886 16.6167 115.784 16.4957 115.578 16.415C115.38 16.3343 115.05 16.2463 114.588 16.151C113.994 16.0263 113.499 15.8943 113.103 15.755C112.707 15.6083 112.363 15.3737 112.069 15.051C111.776 14.721 111.629 14.2773 111.629 13.72C111.629 13.236 111.765 12.796 112.036 12.4C112.308 12.004 112.711 11.6923 113.246 11.465C113.789 11.2377 114.445 11.124 115.215 11.124C115.743 11.124 116.26 11.1827 116.766 11.3C117.28 11.41 117.731 11.575 118.119 11.795L117.338 13.676C116.583 13.2947 115.868 13.104 115.193 13.104C114.526 13.104 114.192 13.2653 114.192 13.588C114.192 13.742 114.291 13.8593 114.489 13.94C114.687 14.0133 115.014 14.094 115.468 14.182C116.055 14.292 116.55 14.4203 116.953 14.567C117.357 14.7063 117.705 14.9373 117.998 15.26C118.299 15.5827 118.449 16.0227 118.449 16.58C118.449 17.064 118.314 17.504 118.042 17.9C117.771 18.2887 117.364 18.6003 116.821 18.835C116.286 19.0623 115.633 19.176 114.863 19.176Z" fill="#1E1E1E"/>
<path d="M184.029 17.042V19H177.627V11.3H183.886V13.258H180.179V14.16H183.435V16.03H180.179V17.042H184.029ZM192.618 11.3V19H190.484L187.558 15.502V19H185.028V11.3H187.162L190.088 14.798V11.3H192.618ZM202.097 11.3L198.841 19H196.289L193.033 11.3H195.827L197.664 15.799L199.545 11.3H202.097ZM202.356 11.3H204.952V19H202.356V11.3ZM203.951 8.913H206.316L204.149 10.673H202.499L203.951 8.913ZM210.238 19.176C209.41 19.176 208.665 19.0037 208.005 18.659C207.345 18.3143 206.828 17.8377 206.454 17.229C206.08 16.613 205.893 15.92 205.893 15.15C205.893 14.38 206.08 13.6907 206.454 13.082C206.828 12.466 207.345 11.9857 208.005 11.641C208.665 11.2963 209.41 11.124 210.238 11.124C211.067 11.124 211.811 11.2963 212.471 11.641C213.131 11.9857 213.648 12.466 214.022 13.082C214.396 13.6907 214.583 14.38 214.583 15.15C214.583 15.92 214.396 16.613 214.022 17.229C213.648 17.8377 213.131 18.3143 212.471 18.659C211.811 19.0037 211.067 19.176 210.238 19.176ZM210.238 17.075C210.561 17.075 210.851 16.998 211.107 16.844C211.371 16.6827 211.58 16.459 211.734 16.173C211.888 15.8797 211.965 15.5387 211.965 15.15C211.965 14.7613 211.888 14.424 211.734 14.138C211.58 13.8447 211.371 13.621 211.107 13.467C210.851 13.3057 210.561 13.225 210.238 13.225C209.916 13.225 209.622 13.3057 209.358 13.467C209.102 13.621 208.896 13.8447 208.742 14.138C208.588 14.424 208.511 14.7613 208.511 15.15C208.511 15.5387 208.588 15.8797 208.742 16.173C208.896 16.459 209.102 16.6827 209.358 16.844C209.622 16.998 209.916 17.075 210.238 17.075ZM223.916 14.941H226.171V18.197C225.717 18.5123 225.189 18.7543 224.587 18.923C223.986 19.0917 223.396 19.176 222.816 19.176C221.995 19.176 221.258 19.0073 220.605 18.67C219.953 18.3253 219.439 17.8487 219.065 17.24C218.699 16.624 218.515 15.9273 218.515 15.15C218.515 14.3727 218.699 13.6797 219.065 13.071C219.439 12.455 219.956 11.9783 220.616 11.641C221.284 11.2963 222.035 11.124 222.871 11.124C223.627 11.124 224.301 11.2523 224.895 11.509C225.497 11.7583 225.995 12.125 226.391 12.609L224.73 14.072C224.246 13.5073 223.671 13.225 223.003 13.225C222.431 13.225 221.977 13.3973 221.639 13.742C221.302 14.0867 221.133 14.556 221.133 15.15C221.133 15.7293 221.298 16.195 221.628 16.547C221.966 16.899 222.413 17.075 222.97 17.075C223.3 17.075 223.616 17.0127 223.916 16.888V14.941ZM230.577 17.064H229.873V19H227.277V11.3H230.984C231.696 11.3 232.315 11.4173 232.843 11.652C233.371 11.8867 233.778 12.224 234.064 12.664C234.35 13.104 234.493 13.6173 234.493 14.204C234.493 14.754 234.369 15.2343 234.119 15.645C233.87 16.0557 233.511 16.382 233.041 16.624L234.658 19H231.886L230.577 17.064ZM231.875 14.204C231.875 13.918 231.787 13.698 231.611 13.544C231.435 13.3827 231.171 13.302 230.819 13.302H229.873V15.106H230.819C231.171 15.106 231.435 15.029 231.611 14.875C231.787 14.7137 231.875 14.49 231.875 14.204ZM240.721 17.658H237.795L237.278 19H234.638L238.004 11.3H240.556L243.922 19H241.238L240.721 17.658ZM240.006 15.788L239.258 13.852L238.51 15.788H240.006ZM245.621 13.313H243.366V11.3H250.472V13.313H248.217V19H245.621V13.313ZM251.147 11.3H253.743V19H251.147V11.3ZM257.863 19.176C257.225 19.176 256.602 19.1063 255.993 18.967C255.392 18.8203 254.897 18.626 254.508 18.384L255.344 16.492C255.711 16.7047 256.122 16.877 256.576 17.009C257.031 17.1337 257.467 17.196 257.885 17.196C258.245 17.196 258.501 17.163 258.655 17.097C258.809 17.0237 258.886 16.9173 258.886 16.778C258.886 16.6167 258.784 16.4957 258.578 16.415C258.38 16.3343 258.05 16.2463 257.588 16.151C256.994 16.0263 256.499 15.8943 256.103 15.755C255.707 15.6083 255.363 15.3737 255.069 15.051C254.776 14.721 254.629 14.2773 254.629 13.72C254.629 13.236 254.765 12.796 255.036 12.4C255.308 12.004 255.711 11.6923 256.246 11.465C256.789 11.2377 257.445 11.124 258.215 11.124C258.743 11.124 259.26 11.1827 259.766 11.3C260.28 11.41 260.731 11.575 261.119 11.795L260.338 13.676C259.583 13.2947 258.868 13.104 258.193 13.104C257.526 13.104 257.192 13.2653 257.192 13.588C257.192 13.742 257.291 13.8593 257.489 13.94C257.687 14.0133 258.014 14.094 258.468 14.182C259.055 14.292 259.55 14.4203 259.953 14.567C260.357 14.7063 260.705 14.9373 260.998 15.26C261.299 15.5827 261.449 16.0227 261.449 16.58C261.449 17.064 261.314 17.504 261.042 17.9C260.771 18.2887 260.364 18.6003 259.821 18.835C259.286 19.0623 258.633 19.176 257.863 19.176Z" fill="#1E1E1E"/>
<path fill-rule="evenodd" clip-rule="evenodd" d="M146.866 9.10174C146.317 9.68836 145.746 10.9456 145.487 12.1409C145.329 12.8665 145.263 13.455 145.238 14.3402L145.218 15.0864L144.922 14.7533C144.149 13.8845 143.138 13.0714 142.095 12.4822C141.387 12.082 140.285 11.6231 140.263 11.719C140.244 11.7971 140.353 12.5229 140.449 12.9628C140.614 13.7165 140.897 14.566 141.219 15.2787C141.487 15.8706 141.989 16.757 142.3 17.1856C142.377 17.2918 142.383 17.3106 142.335 17.2969C142.302 17.2878 142.135 17.2541 141.963 17.2221C141.047 17.0516 140.055 17.0632 139.319 17.2532C138.953 17.3477 138.96 17.3405 139.057 17.5211C139.282 17.9423 139.749 18.509 140.187 18.8939C140.825 19.4548 141.557 19.868 142.525 20.2128L142.617 20.2457L142.419 20.3637C142.027 20.5957 141.705 20.8493 141.157 21.3543C140.852 21.6363 140.602 21.8761 140.602 21.8872C140.602 21.9127 140.987 22.0205 141.275 22.0754C141.639 22.145 142.264 22.1823 143.137 22.1867C143.803 22.19 144.031 22.1805 144.295 22.1385C144.984 22.0289 146.018 21.6974 146.485 21.4363C146.685 21.3245 146.704 21.3312 146.705 21.5146C146.705 21.6599 146.789 22.1497 146.879 22.5268C147.023 23.1321 147.315 23.871 147.447 23.9633C147.475 23.9835 147.573 24 147.663 24C147.802 24 147.836 23.9886 147.891 23.9227C147.98 23.8171 147.973 23.6903 147.866 23.4683C147.628 22.974 147.472 22.3755 147.345 21.4695L147.33 21.3607L147.651 21.515C148.139 21.7496 148.878 21.988 149.483 22.1059C150.176 22.2409 152.01 22.2163 152.768 22.0619C153.01 22.0127 153.371 21.9088 153.371 21.8885C153.371 21.8602 152.315 20.8887 152.132 20.7492C152.045 20.6825 151.836 20.5415 151.667 20.4358L151.361 20.2436L151.45 20.2117C152.429 19.8632 153.119 19.4722 153.797 18.8824C154.209 18.5239 154.688 17.9431 154.906 17.539L155 17.3638L154.89 17.3207C154.73 17.2578 154.304 17.1703 153.981 17.1338C153.3 17.0568 152.318 17.1255 151.655 17.2964C151.591 17.3129 151.603 17.2861 151.751 17.069C152.733 15.6318 153.44 13.8226 153.667 12.1614C153.693 11.9709 153.715 11.7829 153.715 11.7437V11.6725L153.496 11.7466C151.918 12.2803 150.239 13.4158 149.051 14.7531L148.754 15.0864L148.734 14.3549C148.723 13.9525 148.691 13.4318 148.662 13.1977C148.473 11.6593 148.002 10.3117 147.324 9.37327C147.182 9.17712 147.022 9 146.986 9C146.973 9 146.919 9.04579 146.866 9.10174ZM147.09 10.1668C147.504 11.0332 147.836 12.165 147.986 13.219C148.167 14.4967 148.137 15.7354 147.892 17.1311C147.84 17.4298 147.79 17.7006 147.782 17.7329C147.774 17.7652 147.834 17.6661 147.917 17.5127C148.306 16.7898 148.811 16.0711 149.423 15.3699C150.261 14.4094 151.573 13.3911 152.878 12.6882C153.061 12.5894 153.061 12.5881 152.932 13.0509C152.707 13.8606 152.319 14.8198 151.897 15.6092C151.37 16.5961 150.795 17.3649 149.974 18.1782L149.584 18.5648L149.858 18.4502C150.836 18.0408 151.657 17.8267 152.557 17.7459C152.938 17.7117 153.576 17.7257 153.762 17.7723L153.848 17.7939L153.682 17.9836C153.06 18.6923 152.128 19.3128 151.107 19.6972C150.706 19.8483 150.259 19.9726 149.725 20.0817C149.466 20.1344 149.276 20.1848 149.302 20.1937C149.328 20.2026 149.434 20.2254 149.537 20.2445C150.199 20.3668 151.233 20.8558 151.922 21.3732C152.053 21.4713 152.106 21.5287 152.085 21.5487C152.034 21.5958 149.988 21.5876 149.756 21.5393C148.874 21.3562 147.813 20.9474 147.219 20.5622L146.986 20.4114L146.759 20.5571C146.162 20.9407 145.211 21.3181 144.357 21.5104C144.078 21.5732 143.995 21.5774 143.005 21.5778C142.259 21.5781 141.94 21.5685 141.915 21.5449C141.888 21.52 141.934 21.4707 142.093 21.3503C142.739 20.8639 143.652 20.4231 144.35 20.2612C144.449 20.2382 144.572 20.2098 144.623 20.198C144.701 20.1802 144.648 20.1625 144.31 20.0942C142.998 19.8288 142.075 19.4434 141.174 18.7853C140.875 18.5668 140.381 18.1095 140.234 17.9155L140.131 17.7806L140.281 17.7568C140.363 17.7436 140.676 17.7345 140.977 17.7365C141.98 17.743 142.824 17.9304 144.029 18.414C144.166 18.4693 144.3 18.5229 144.326 18.5331C144.352 18.5433 144.208 18.3873 144.007 18.1863C143.548 17.7278 143.292 17.4393 142.979 17.0255C142.283 16.1077 141.669 14.9309 141.249 13.7114C141.106 13.2973 140.946 12.7406 140.946 12.6581C140.946 12.6019 141.237 12.7521 141.807 13.1025C142.88 13.7626 143.865 14.5826 144.6 15.4286C145.143 16.0536 145.599 16.6937 145.947 17.3219C146.09 17.5802 146.199 17.7521 146.188 17.7038C146.119 17.4056 145.982 16.5431 145.935 16.1184C145.867 15.5123 145.859 14.333 145.918 13.7554C146.035 12.6085 146.359 11.3348 146.764 10.4282C146.928 10.0625 146.961 9.99804 146.987 9.99804C146.999 9.99804 147.045 10.074 147.09 10.1668Z" fill="#4ECB71"/>
</svg>
