<svg width="330" height="49" viewBox="0 0 330 49" fill="none" xmlns="http://www.w3.org/2000/svg">
<rect width="330" height="49" rx="5" fill="#FFD233"/>
<path d="M102.248 28.45H96.723L95.669 31H92.847L98.151 19.1H100.871L106.192 31H103.302L102.248 28.45ZM101.381 26.359L99.494 21.803L97.607 26.359H101.381ZM111.577 31.136C110.602 31.136 109.724 30.9377 108.942 30.541C108.171 30.133 107.565 29.572 107.123 28.858C106.692 28.144 106.477 27.3337 106.477 26.427C106.477 25.5203 106.692 24.71 107.123 23.996C107.565 23.282 108.171 22.7267 108.942 22.33C109.724 21.922 110.602 21.718 111.577 21.718C112.54 21.718 113.379 21.922 114.093 22.33C114.818 22.7267 115.345 23.299 115.674 24.047L113.617 25.152C113.141 24.3133 112.455 23.894 111.56 23.894C110.868 23.894 110.296 24.1207 109.843 24.574C109.389 25.0273 109.163 25.645 109.163 26.427C109.163 27.209 109.389 27.8267 109.843 28.28C110.296 28.7333 110.868 28.96 111.56 28.96C112.466 28.96 113.152 28.5407 113.617 27.702L115.674 28.824C115.345 29.5493 114.818 30.116 114.093 30.524C113.379 30.932 112.54 31.136 111.577 31.136ZM126.043 26.461C126.043 26.495 126.026 26.733 125.992 27.175H119.073C119.198 27.7417 119.493 28.1893 119.957 28.518C120.422 28.8467 121 29.011 121.691 29.011C122.167 29.011 122.587 28.943 122.949 28.807C123.323 28.6597 123.669 28.433 123.986 28.127L125.397 29.657C124.536 30.643 123.278 31.136 121.623 31.136C120.592 31.136 119.68 30.9377 118.886 30.541C118.093 30.133 117.481 29.572 117.05 28.858C116.62 28.144 116.404 27.3337 116.404 26.427C116.404 25.5317 116.614 24.727 117.033 24.013C117.464 23.2877 118.048 22.7267 118.784 22.33C119.532 21.922 120.365 21.718 121.283 21.718C122.179 21.718 122.989 21.9107 123.714 22.296C124.44 22.6813 125.006 23.2367 125.414 23.962C125.834 24.676 126.043 25.509 126.043 26.461ZM121.3 23.724C120.7 23.724 120.195 23.894 119.787 24.234C119.379 24.574 119.13 25.0387 119.039 25.628H123.544C123.454 25.05 123.204 24.591 122.796 24.251C122.388 23.8997 121.89 23.724 121.3 23.724ZM127.809 21.854H130.461V31H127.809V21.854ZM129.135 20.579C128.648 20.579 128.251 20.4373 127.945 20.154C127.639 19.8707 127.486 19.5193 127.486 19.1C127.486 18.6807 127.639 18.3293 127.945 18.046C128.251 17.7627 128.648 17.621 129.135 17.621C129.622 17.621 130.019 17.757 130.325 18.029C130.631 18.301 130.784 18.641 130.784 19.049C130.784 19.491 130.631 19.8593 130.325 20.154C130.019 20.4373 129.622 20.579 129.135 20.579ZM138.821 30.558C138.561 30.7507 138.238 30.898 137.852 31C137.478 31.0907 137.082 31.136 136.662 31.136C135.574 31.136 134.73 30.8583 134.129 30.303C133.54 29.7477 133.245 28.9317 133.245 27.855V24.098H131.834V22.058H133.245V19.831H135.897V22.058H138.175V24.098H135.897V27.821C135.897 28.2063 135.994 28.5067 136.186 28.722C136.39 28.926 136.674 29.028 137.036 29.028C137.456 29.028 137.813 28.9147 138.107 28.688L138.821 30.558ZM148.987 26.461C148.987 26.495 148.97 26.733 148.936 27.175H142.017C142.141 27.7417 142.436 28.1893 142.901 28.518C143.365 28.8467 143.943 29.011 144.635 29.011C145.111 29.011 145.53 28.943 145.893 28.807C146.267 28.6597 146.612 28.433 146.93 28.127L148.341 29.657C147.479 30.643 146.221 31.136 144.567 31.136C143.535 31.136 142.623 30.9377 141.83 30.541C141.036 30.133 140.424 29.572 139.994 28.858C139.563 28.144 139.348 27.3337 139.348 26.427C139.348 25.5317 139.557 24.727 139.977 24.013C140.407 23.2877 140.991 22.7267 141.728 22.33C142.476 21.922 143.309 21.718 144.227 21.718C145.122 21.718 145.932 21.9107 146.658 22.296C147.383 22.6813 147.95 23.2367 148.358 23.962C148.777 24.676 148.987 25.509 148.987 26.461ZM144.244 23.724C143.643 23.724 143.139 23.894 142.731 24.234C142.323 24.574 142.073 25.0387 141.983 25.628H146.488C146.397 25.05 146.148 24.591 145.74 24.251C145.332 23.8997 144.833 23.724 144.244 23.724ZM153.829 31.136C153.07 31.136 152.328 31.0453 151.602 30.864C150.877 30.6713 150.299 30.4333 149.868 30.15L150.752 28.246C151.16 28.5067 151.653 28.722 152.231 28.892C152.809 29.0507 153.376 29.13 153.931 29.13C155.053 29.13 155.614 28.8523 155.614 28.297C155.614 28.0363 155.461 27.8493 155.155 27.736C154.849 27.6227 154.379 27.5263 153.744 27.447C152.996 27.3337 152.379 27.2033 151.891 27.056C151.404 26.9087 150.979 26.648 150.616 26.274C150.265 25.9 150.089 25.3673 150.089 24.676C150.089 24.098 150.254 23.588 150.582 23.146C150.922 22.6927 151.41 22.3413 152.044 22.092C152.69 21.8427 153.45 21.718 154.322 21.718C154.968 21.718 155.609 21.7917 156.243 21.939C156.889 22.075 157.422 22.2677 157.841 22.517L156.957 24.404C156.153 23.9507 155.274 23.724 154.322 23.724C153.756 23.724 153.331 23.8033 153.047 23.962C152.764 24.1207 152.622 24.3247 152.622 24.574C152.622 24.8573 152.775 25.0557 153.081 25.169C153.387 25.2823 153.875 25.39 154.543 25.492C155.291 25.6167 155.903 25.7527 156.379 25.9C156.855 26.036 157.269 26.291 157.62 26.665C157.972 27.039 158.147 27.5603 158.147 28.229C158.147 28.7957 157.977 29.3 157.637 29.742C157.297 30.184 156.799 30.5297 156.141 30.779C155.495 31.017 154.725 31.136 153.829 31.136ZM173.914 18.386V31H171.381V29.946C170.724 30.7393 169.772 31.136 168.525 31.136C167.664 31.136 166.882 30.9433 166.179 30.558C165.488 30.1727 164.944 29.623 164.547 28.909C164.15 28.195 163.952 27.3677 163.952 26.427C163.952 25.4863 164.15 24.659 164.547 23.945C164.944 23.231 165.488 22.6813 166.179 22.296C166.882 21.9107 167.664 21.718 168.525 21.718C169.692 21.718 170.605 22.0863 171.262 22.823V18.386H173.914ZM168.984 28.96C169.653 28.96 170.208 28.7333 170.65 28.28C171.092 27.8153 171.313 27.1977 171.313 26.427C171.313 25.6563 171.092 25.0443 170.65 24.591C170.208 24.1263 169.653 23.894 168.984 23.894C168.304 23.894 167.743 24.1263 167.301 24.591C166.859 25.0443 166.638 25.6563 166.638 26.427C166.638 27.1977 166.859 27.8153 167.301 28.28C167.743 28.7333 168.304 28.96 168.984 28.96ZM185.328 26.461C185.328 26.495 185.311 26.733 185.277 27.175H178.358C178.482 27.7417 178.777 28.1893 179.242 28.518C179.706 28.8467 180.284 29.011 180.976 29.011C181.452 29.011 181.871 28.943 182.234 28.807C182.608 28.6597 182.953 28.433 183.271 28.127L184.682 29.657C183.82 30.643 182.562 31.136 180.908 31.136C179.876 31.136 178.964 30.9377 178.171 30.541C177.377 30.133 176.765 29.572 176.335 28.858C175.904 28.144 175.689 27.3337 175.689 26.427C175.689 25.5317 175.898 24.727 176.318 24.013C176.748 23.2877 177.332 22.7267 178.069 22.33C178.817 21.922 179.65 21.718 180.568 21.718C181.463 21.718 182.273 21.9107 182.999 22.296C183.724 22.6813 184.291 23.2367 184.699 23.962C185.118 24.676 185.328 25.509 185.328 26.461ZM180.585 23.724C179.984 23.724 179.48 23.894 179.072 24.234C178.664 24.574 178.414 25.0387 178.324 25.628H182.829C182.738 25.05 182.489 24.591 182.081 24.251C181.673 23.8997 181.174 23.724 180.585 23.724ZM197.79 31.204C196.577 31.204 195.478 30.9433 194.492 30.422C193.517 29.8893 192.746 29.1583 192.18 28.229C191.624 27.2883 191.347 26.2287 191.347 25.05C191.347 23.8713 191.624 22.8173 192.18 21.888C192.746 20.9473 193.517 20.2163 194.492 19.695C195.478 19.1623 196.583 18.896 197.807 18.896C198.838 18.896 199.767 19.0773 200.595 19.44C201.433 19.8027 202.136 20.324 202.703 21.004L200.935 22.636C200.13 21.7067 199.133 21.242 197.943 21.242C197.206 21.242 196.549 21.4063 195.971 21.735C195.393 22.0523 194.939 22.5 194.611 23.078C194.293 23.656 194.135 24.3133 194.135 25.05C194.135 25.7867 194.293 26.444 194.611 27.022C194.939 27.6 195.393 28.0533 195.971 28.382C196.549 28.6993 197.206 28.858 197.943 28.858C199.133 28.858 200.13 28.3877 200.935 27.447L202.703 29.079C202.136 29.7703 201.433 30.2973 200.595 30.66C199.756 31.0227 198.821 31.204 197.79 31.204ZM213.3 24.812C213.98 25.0273 214.513 25.39 214.898 25.9C215.284 26.3987 215.476 27.0163 215.476 27.753C215.476 28.7957 215.068 29.6003 214.252 30.167C213.448 30.7223 212.269 31 210.716 31H204.562V19.1H210.376C211.827 19.1 212.938 19.3777 213.708 19.933C214.49 20.4883 214.881 21.242 214.881 22.194C214.881 22.772 214.74 23.2877 214.456 23.741C214.184 24.1943 213.799 24.5513 213.3 24.812ZM207.299 21.174V23.979H210.036C210.716 23.979 211.232 23.86 211.583 23.622C211.935 23.384 212.11 23.0327 212.11 22.568C212.11 22.1033 211.935 21.7577 211.583 21.531C211.232 21.293 210.716 21.174 210.036 21.174H207.299ZM210.512 28.926C211.238 28.926 211.782 28.807 212.144 28.569C212.518 28.331 212.705 27.9627 212.705 27.464C212.705 26.478 211.974 25.985 210.512 25.985H207.299V28.926H210.512ZM217.561 19.1H222.967C224.259 19.1 225.398 19.3493 226.384 19.848C227.382 20.3353 228.152 21.0267 228.696 21.922C229.252 22.8173 229.529 23.86 229.529 25.05C229.529 26.24 229.252 27.2827 228.696 28.178C228.152 29.0733 227.382 29.7703 226.384 30.269C225.398 30.7563 224.259 31 222.967 31H217.561V19.1ZM222.831 28.739C224.021 28.739 224.968 28.4103 225.67 27.753C226.384 27.0843 226.741 26.1833 226.741 25.05C226.741 23.9167 226.384 23.0213 225.67 22.364C224.968 21.6953 224.021 21.361 222.831 21.361H220.315V28.739H222.831Z" fill="#030303"/>
</svg>
