<svg width="330" height="50" viewBox="0 0 330 50" fill="none" xmlns="http://www.w3.org/2000/svg">
<path d="M0 5.04981C0 2.28838 2.23858 0.0498047 5 0.0498047H325C327.761 0.0498047 330 2.28838 330 5.0498V44.0498C330 46.8112 327.761 49.0498 325 49.0498H5C2.23857 49.0498 0 46.8112 0 44.0498V5.04981Z" fill="#FFD233"/>
<path d="M106.698 31.2535C104.998 31.2535 103.672 30.7832 102.72 29.8425C101.779 28.9019 101.309 27.5589 101.309 25.8135V19.1495H104.063V25.7115C104.063 27.8422 104.947 28.9075 106.715 28.9075C107.576 28.9075 108.233 28.6525 108.687 28.1425C109.14 27.6212 109.367 26.8109 109.367 25.7115V19.1495H112.087V25.8135C112.087 27.5589 111.611 28.9019 110.659 29.8425C109.718 30.7832 108.398 31.2535 106.698 31.2535Z" fill="#030303"/>
<path d="M117.698 31.1855C116.939 31.1855 116.196 31.0949 115.471 30.9135C114.746 30.7209 114.168 30.4829 113.737 30.1995L114.621 28.2955C115.029 28.5562 115.522 28.7715 116.1 28.9415C116.678 29.1002 117.245 29.1795 117.8 29.1795C118.922 29.1795 119.483 28.9019 119.483 28.3465C119.483 28.0859 119.33 27.8989 119.024 27.7855C118.718 27.6722 118.248 27.5759 117.613 27.4965C116.865 27.3832 116.247 27.2529 115.76 27.1055C115.273 26.9582 114.848 26.6975 114.485 26.3235C114.134 25.9495 113.958 25.4169 113.958 24.7255C113.958 24.1475 114.122 23.6375 114.451 23.1955C114.791 22.7422 115.278 22.3909 115.913 22.1415C116.559 21.8922 117.318 21.7675 118.191 21.7675C118.837 21.7675 119.477 21.8412 120.112 21.9885C120.758 22.1245 121.291 22.3172 121.71 22.5665L120.826 24.4535C120.021 24.0002 119.143 23.7735 118.191 23.7735C117.624 23.7735 117.199 23.8529 116.916 24.0115C116.633 24.1702 116.491 24.3742 116.491 24.6235C116.491 24.9069 116.644 25.1052 116.95 25.2185C117.256 25.3319 117.743 25.4395 118.412 25.5415C119.16 25.6662 119.772 25.8022 120.248 25.9495C120.724 26.0855 121.138 26.3405 121.489 26.7145C121.84 27.0885 122.016 27.6099 122.016 28.2785C122.016 28.8452 121.846 29.3495 121.506 29.7915C121.166 30.2335 120.667 30.5792 120.01 30.8285C119.364 31.0665 118.593 31.1855 117.698 31.1855Z" fill="#030303"/>
<path d="M128.004 31.1855C127.041 31.1855 126.174 30.9872 125.403 30.5905C124.644 30.1825 124.049 29.6215 123.618 28.9075C123.188 28.1935 122.972 27.3832 122.972 26.4765C122.972 25.5699 123.188 24.7595 123.618 24.0455C124.049 23.3315 124.644 22.7762 125.403 22.3795C126.174 21.9715 127.041 21.7675 128.004 21.7675C128.968 21.7675 129.829 21.9715 130.588 22.3795C131.348 22.7762 131.943 23.3315 132.373 24.0455C132.804 24.7595 133.019 25.5699 133.019 26.4765C133.019 27.3832 132.804 28.1935 132.373 28.9075C131.943 29.6215 131.348 30.1825 130.588 30.5905C129.829 30.9872 128.968 31.1855 128.004 31.1855ZM128.004 29.0095C128.684 29.0095 129.24 28.7829 129.67 28.3295C130.112 27.8649 130.333 27.2472 130.333 26.4765C130.333 25.7059 130.112 25.0939 129.67 24.6405C129.24 24.1759 128.684 23.9435 128.004 23.9435C127.324 23.9435 126.763 24.1759 126.321 24.6405C125.879 25.0939 125.658 25.7059 125.658 26.4765C125.658 27.2472 125.879 27.8649 126.321 28.3295C126.763 28.7829 127.324 29.0095 128.004 29.0095Z" fill="#030303"/>
<path d="M137.869 31.1855C137.11 31.1855 136.367 31.0949 135.642 30.9135C134.917 30.7209 134.339 30.4829 133.908 30.1995L134.792 28.2955C135.2 28.5562 135.693 28.7715 136.271 28.9415C136.849 29.1002 137.416 29.1795 137.971 29.1795C139.093 29.1795 139.654 28.9019 139.654 28.3465C139.654 28.0859 139.501 27.8989 139.195 27.7855C138.889 27.6722 138.419 27.5759 137.784 27.4965C137.036 27.3832 136.418 27.2529 135.931 27.1055C135.444 26.9582 135.019 26.6975 134.656 26.3235C134.305 25.9495 134.129 25.4169 134.129 24.7255C134.129 24.1475 134.293 23.6375 134.622 23.1955C134.962 22.7422 135.449 22.3909 136.084 22.1415C136.73 21.8922 137.489 21.7675 138.362 21.7675C139.008 21.7675 139.648 21.8412 140.283 21.9885C140.929 22.1245 141.462 22.3172 141.881 22.5665L140.997 24.4535C140.192 24.0002 139.314 23.7735 138.362 23.7735C137.795 23.7735 137.37 23.8529 137.087 24.0115C136.804 24.1702 136.662 24.3742 136.662 24.6235C136.662 24.9069 136.815 25.1052 137.121 25.2185C137.427 25.3319 137.914 25.4395 138.583 25.5415C139.331 25.6662 139.943 25.8022 140.419 25.9495C140.895 26.0855 141.309 26.3405 141.66 26.7145C142.011 27.0885 142.187 27.6099 142.187 28.2785C142.187 28.8452 142.017 29.3495 141.677 29.7915C141.337 30.2335 140.838 30.5792 140.181 30.8285C139.535 31.0665 138.764 31.1855 137.869 31.1855Z" fill="#030303"/>
<path d="M157.954 18.4355V31.0495H155.421V29.9955C154.763 30.7889 153.811 31.1855 152.565 31.1855C151.703 31.1855 150.921 30.9929 150.219 30.6075C149.527 30.2222 148.983 29.6725 148.587 28.9585C148.19 28.2445 147.992 27.4172 147.992 26.4765C147.992 25.5359 148.19 24.7085 148.587 23.9945C148.983 23.2805 149.527 22.7309 150.219 22.3455C150.921 21.9602 151.703 21.7675 152.565 21.7675C153.732 21.7675 154.644 22.1359 155.302 22.8725V18.4355H157.954ZM153.024 29.0095C153.692 29.0095 154.248 28.7829 154.69 28.3295C155.132 27.8649 155.353 27.2472 155.353 26.4765C155.353 25.7059 155.132 25.0939 154.69 24.6405C154.248 24.1759 153.692 23.9435 153.024 23.9435C152.344 23.9435 151.783 24.1759 151.341 24.6405C150.899 25.0939 150.678 25.7059 150.678 26.4765C150.678 27.2472 150.899 27.8649 151.341 28.3295C151.783 28.7829 152.344 29.0095 153.024 29.0095Z" fill="#030303"/>
<path d="M169.367 26.5105C169.367 26.5445 169.35 26.7825 169.316 27.2245H162.397C162.522 27.7912 162.816 28.2389 163.281 28.5675C163.746 28.8962 164.324 29.0605 165.015 29.0605C165.491 29.0605 165.91 28.9925 166.273 28.8565C166.647 28.7092 166.993 28.4825 167.31 28.1765L168.721 29.7065C167.86 30.6925 166.602 31.1855 164.947 31.1855C163.916 31.1855 163.003 30.9872 162.21 30.5905C161.417 30.1825 160.805 29.6215 160.374 28.9075C159.943 28.1935 159.728 27.3832 159.728 26.4765C159.728 25.5812 159.938 24.7765 160.357 24.0625C160.788 23.3372 161.371 22.7762 162.108 22.3795C162.856 21.9715 163.689 21.7675 164.607 21.7675C165.502 21.7675 166.313 21.9602 167.038 22.3455C167.764 22.7309 168.33 23.2862 168.738 24.0115C169.158 24.7255 169.367 25.5585 169.367 26.5105ZM164.624 23.7735C164.023 23.7735 163.519 23.9435 163.111 24.2835C162.703 24.6235 162.454 25.0882 162.363 25.6775H166.868C166.777 25.0995 166.528 24.6405 166.12 24.3005C165.712 23.9492 165.213 23.7735 164.624 23.7735Z" fill="#030303"/>
<path d="M171.133 18.4355H173.785V31.0495H171.133V18.4355Z" fill="#030303"/>
<path d="M186.943 31.2535C185.73 31.2535 184.631 30.9929 183.645 30.4715C182.67 29.9389 181.899 29.2079 181.333 28.2785C180.777 27.3379 180.5 26.2782 180.5 25.0995C180.5 23.9209 180.777 22.8669 181.333 21.9375C181.899 20.9969 182.67 20.2659 183.645 19.7445C184.631 19.2119 185.736 18.9455 186.96 18.9455C187.991 18.9455 188.92 19.1269 189.748 19.4895C190.586 19.8522 191.289 20.3735 191.856 21.0535L190.088 22.6855C189.283 21.7562 188.286 21.2915 187.096 21.2915C186.359 21.2915 185.702 21.4559 185.124 21.7845C184.546 22.1019 184.092 22.5495 183.764 23.1275C183.446 23.7055 183.288 24.3629 183.288 25.0995C183.288 25.8362 183.446 26.4935 183.764 27.0715C184.092 27.6495 184.546 28.1029 185.124 28.4315C185.702 28.7489 186.359 28.9075 187.096 28.9075C188.286 28.9075 189.283 28.4372 190.088 27.4965L191.856 29.1285C191.289 29.8199 190.586 30.3469 189.748 30.7095C188.909 31.0722 187.974 31.2535 186.943 31.2535Z" fill="#030303"/>
<path d="M202.453 24.8615C203.133 25.0769 203.666 25.4395 204.051 25.9495C204.437 26.4482 204.629 27.0659 204.629 27.8025C204.629 28.8452 204.221 29.6499 203.405 30.2165C202.601 30.7719 201.422 31.0495 199.869 31.0495H193.715V19.1495H199.529C200.98 19.1495 202.091 19.4272 202.861 19.9825C203.643 20.5379 204.034 21.2915 204.034 22.2435C204.034 22.8215 203.893 23.3372 203.609 23.7905C203.337 24.2439 202.952 24.6009 202.453 24.8615ZM196.452 21.2235V24.0285H199.189C199.869 24.0285 200.385 23.9095 200.736 23.6715C201.088 23.4335 201.263 23.0822 201.263 22.6175C201.263 22.1529 201.088 21.8072 200.736 21.5805C200.385 21.3425 199.869 21.2235 199.189 21.2235H196.452ZM199.665 28.9755C200.391 28.9755 200.935 28.8565 201.297 28.6185C201.671 28.3805 201.858 28.0122 201.858 27.5135C201.858 26.5275 201.127 26.0345 199.665 26.0345H196.452V28.9755H199.665Z" fill="#030303"/>
<path d="M206.714 19.1495H212.12C213.412 19.1495 214.551 19.3989 215.537 19.8975C216.535 20.3849 217.305 21.0762 217.849 21.9715C218.405 22.8669 218.682 23.9095 218.682 25.0995C218.682 26.2895 218.405 27.3322 217.849 28.2275C217.305 29.1229 216.535 29.8199 215.537 30.3185C214.551 30.8059 213.412 31.0495 212.12 31.0495H206.714V19.1495ZM211.984 28.7885C213.174 28.7885 214.121 28.4599 214.823 27.8025C215.537 27.1339 215.894 26.2329 215.894 25.0995C215.894 23.9662 215.537 23.0709 214.823 22.4135C214.121 21.7449 213.174 21.4105 211.984 21.4105H209.468V28.7885H211.984Z" fill="#030303"/>
</svg>
