<svg width="330" height="49" viewBox="0 0 330 49" fill="none" xmlns="http://www.w3.org/2000/svg">
<rect width="330" height="49" rx="5" fill="#FFD233"/>
<path d="M88.28 32.275C87.8947 32.751 87.4243 33.1137 86.869 33.363C86.325 33.6123 85.7243 33.737 85.067 33.737C84.183 33.737 83.384 33.5443 82.67 33.159C81.956 32.785 81.14 32.1163 80.222 31.153C79.1453 31.017 78.182 30.6713 77.332 30.116C76.4933 29.5607 75.836 28.8467 75.36 27.974C74.8953 27.09 74.663 26.1153 74.663 25.05C74.663 23.8827 74.9407 22.8343 75.496 21.905C76.0627 20.9643 76.839 20.2277 77.825 19.695C78.8223 19.1623 79.9387 18.896 81.174 18.896C82.4093 18.896 83.52 19.1623 84.506 19.695C85.492 20.2277 86.2683 20.9643 86.835 21.905C87.4017 22.8343 87.685 23.8827 87.685 25.05C87.685 26.4327 87.294 27.6453 86.512 28.688C85.7413 29.7307 84.7157 30.456 83.435 30.864C83.7183 31.1587 83.9903 31.3683 84.251 31.493C84.523 31.629 84.812 31.697 85.118 31.697C85.8547 31.697 86.5007 31.4023 87.056 30.813L88.28 32.275ZM77.451 25.05C77.451 25.7867 77.6097 26.444 77.927 27.022C78.2557 27.6 78.7033 28.0533 79.27 28.382C79.8367 28.6993 80.4713 28.858 81.174 28.858C81.8767 28.858 82.5113 28.6993 83.078 28.382C83.6447 28.0533 84.0867 27.6 84.404 27.022C84.7327 26.444 84.897 25.7867 84.897 25.05C84.897 24.3133 84.7327 23.656 84.404 23.078C84.0867 22.5 83.6447 22.0523 83.078 21.735C82.5113 21.4063 81.8767 21.242 81.174 21.242C80.4713 21.242 79.8367 21.4063 79.27 21.735C78.7033 22.0523 78.2557 22.5 77.927 23.078C77.6097 23.656 77.451 24.3133 77.451 25.05ZM98.7818 21.854V31H96.2658V29.912C95.9144 30.3087 95.4951 30.6147 95.0078 30.83C94.5204 31.034 93.9934 31.136 93.4268 31.136C92.2254 31.136 91.2734 30.7903 90.5708 30.099C89.8681 29.4077 89.5168 28.382 89.5168 27.022V21.854H92.1688V26.631C92.1688 28.1043 92.7864 28.841 94.0218 28.841C94.6564 28.841 95.1664 28.637 95.5518 28.229C95.9371 27.8097 96.1298 27.192 96.1298 26.376V21.854H98.7818ZM101.239 21.854H103.891V31H101.239V21.854ZM102.565 20.579C102.077 20.579 101.681 20.4373 101.375 20.154C101.069 19.8707 100.916 19.5193 100.916 19.1C100.916 18.6807 101.069 18.3293 101.375 18.046C101.681 17.7627 102.077 17.621 102.565 17.621C103.052 17.621 103.449 17.757 103.755 18.029C104.061 18.301 104.214 18.641 104.214 19.049C104.214 19.491 104.061 19.8593 103.755 20.154C103.449 20.4373 103.052 20.579 102.565 20.579ZM115.311 26.461C115.311 26.495 115.294 26.733 115.26 27.175H108.341C108.466 27.7417 108.76 28.1893 109.225 28.518C109.69 28.8467 110.268 29.011 110.959 29.011C111.435 29.011 111.854 28.943 112.217 28.807C112.591 28.6597 112.937 28.433 113.254 28.127L114.665 29.657C113.804 30.643 112.546 31.136 110.891 31.136C109.86 31.136 108.947 30.9377 108.154 30.541C107.361 30.133 106.749 29.572 106.318 28.858C105.887 28.144 105.672 27.3337 105.672 26.427C105.672 25.5317 105.882 24.727 106.301 24.013C106.732 23.2877 107.315 22.7267 108.052 22.33C108.8 21.922 109.633 21.718 110.551 21.718C111.446 21.718 112.257 21.9107 112.982 22.296C113.707 22.6813 114.274 23.2367 114.682 23.962C115.101 24.676 115.311 25.509 115.311 26.461ZM110.568 23.724C109.967 23.724 109.463 23.894 109.055 24.234C108.647 24.574 108.398 25.0387 108.307 25.628H112.812C112.721 25.05 112.472 24.591 112.064 24.251C111.656 23.8997 111.157 23.724 110.568 23.724ZM119.61 23.061C119.927 22.619 120.352 22.2847 120.885 22.058C121.429 21.8313 122.052 21.718 122.755 21.718V24.166C122.46 24.1433 122.262 24.132 122.16 24.132C121.4 24.132 120.805 24.3473 120.375 24.778C119.944 25.1973 119.729 25.832 119.729 26.682V31H117.077V21.854H119.61V23.061ZM128.6 31.136C127.637 31.136 126.77 30.9377 125.999 30.541C125.24 30.133 124.645 29.572 124.214 28.858C123.784 28.144 123.568 27.3337 123.568 26.427C123.568 25.5203 123.784 24.71 124.214 23.996C124.645 23.282 125.24 22.7267 125.999 22.33C126.77 21.922 127.637 21.718 128.6 21.718C129.564 21.718 130.425 21.922 131.184 22.33C131.944 22.7267 132.539 23.282 132.969 23.996C133.4 24.71 133.615 25.5203 133.615 26.427C133.615 27.3337 133.4 28.144 132.969 28.858C132.539 29.572 131.944 30.133 131.184 30.541C130.425 30.9377 129.564 31.136 128.6 31.136ZM128.6 28.96C129.28 28.96 129.836 28.7333 130.266 28.28C130.708 27.8153 130.929 27.1977 130.929 26.427C130.929 25.6563 130.708 25.0443 130.266 24.591C129.836 24.1263 129.28 23.894 128.6 23.894C127.92 23.894 127.359 24.1263 126.917 24.591C126.475 25.0443 126.254 25.6563 126.254 26.427C126.254 27.1977 126.475 27.8153 126.917 28.28C127.359 28.7333 127.92 28.96 128.6 28.96ZM144.623 31.136C143.648 31.136 142.77 30.9377 141.988 30.541C141.217 30.133 140.611 29.572 140.169 28.858C139.738 28.144 139.523 27.3337 139.523 26.427C139.523 25.5203 139.738 24.71 140.169 23.996C140.611 23.282 141.217 22.7267 141.988 22.33C142.77 21.922 143.648 21.718 144.623 21.718C145.586 21.718 146.425 21.922 147.139 22.33C147.864 22.7267 148.391 23.299 148.72 24.047L146.663 25.152C146.187 24.3133 145.501 23.894 144.606 23.894C143.914 23.894 143.342 24.1207 142.889 24.574C142.435 25.0273 142.209 25.645 142.209 26.427C142.209 27.209 142.435 27.8267 142.889 28.28C143.342 28.7333 143.914 28.96 144.606 28.96C145.512 28.96 146.198 28.5407 146.663 27.702L148.72 28.824C148.391 29.5493 147.864 30.116 147.139 30.524C146.425 30.932 145.586 31.136 144.623 31.136ZM154.482 31.136C153.519 31.136 152.652 30.9377 151.881 30.541C151.122 30.133 150.527 29.572 150.096 28.858C149.666 28.144 149.45 27.3337 149.45 26.427C149.45 25.5203 149.666 24.71 150.096 23.996C150.527 23.282 151.122 22.7267 151.881 22.33C152.652 21.922 153.519 21.718 154.482 21.718C155.446 21.718 156.307 21.922 157.066 22.33C157.826 22.7267 158.421 23.282 158.851 23.996C159.282 24.71 159.497 25.5203 159.497 26.427C159.497 27.3337 159.282 28.144 158.851 28.858C158.421 29.572 157.826 30.133 157.066 30.541C156.307 30.9377 155.446 31.136 154.482 31.136ZM154.482 28.96C155.162 28.96 155.718 28.7333 156.148 28.28C156.59 27.8153 156.811 27.1977 156.811 26.427C156.811 25.6563 156.59 25.0443 156.148 24.591C155.718 24.1263 155.162 23.894 154.482 23.894C153.802 23.894 153.241 24.1263 152.799 24.591C152.357 25.0443 152.136 25.6563 152.136 26.427C152.136 27.1977 152.357 27.8153 152.799 28.28C153.241 28.7333 153.802 28.96 154.482 28.96ZM166.829 21.718C167.962 21.718 168.875 22.058 169.566 22.738C170.269 23.418 170.62 24.4267 170.62 25.764V31H167.968V26.172C167.968 25.4467 167.809 24.9083 167.492 24.557C167.175 24.1943 166.716 24.013 166.115 24.013C165.446 24.013 164.914 24.2227 164.517 24.642C164.12 25.05 163.922 25.662 163.922 26.478V31H161.27V21.854H163.803V22.925C164.154 22.5397 164.591 22.245 165.112 22.041C165.633 21.8257 166.206 21.718 166.829 21.718ZM178.923 30.558C178.662 30.7507 178.339 30.898 177.954 31C177.58 31.0907 177.183 31.136 176.764 31.136C175.676 31.136 174.831 30.8583 174.231 30.303C173.641 29.7477 173.347 28.9317 173.347 27.855V24.098H171.936V22.058H173.347V19.831H175.999V22.058H178.277V24.098H175.999V27.821C175.999 28.2063 176.095 28.5067 176.288 28.722C176.492 28.926 176.775 29.028 177.138 29.028C177.557 29.028 177.914 28.9147 178.209 28.688L178.923 30.558ZM184.101 21.718C185.517 21.718 186.605 22.058 187.365 22.738C188.124 23.4067 188.504 24.421 188.504 25.781V31H186.022V29.861C185.523 30.711 184.594 31.136 183.234 31.136C182.531 31.136 181.919 31.017 181.398 30.779C180.888 30.541 180.497 30.2123 180.225 29.793C179.953 29.3737 179.817 28.8977 179.817 28.365C179.817 27.515 180.134 26.8463 180.769 26.359C181.415 25.8717 182.406 25.628 183.744 25.628H185.852C185.852 25.05 185.676 24.608 185.325 24.302C184.973 23.9847 184.446 23.826 183.744 23.826C183.256 23.826 182.775 23.9053 182.299 24.064C181.834 24.2113 181.437 24.4153 181.109 24.676L180.157 22.823C180.655 22.4717 181.25 22.1997 181.942 22.007C182.644 21.8143 183.364 21.718 184.101 21.718ZM183.897 29.351C184.35 29.351 184.752 29.249 185.104 29.045C185.455 28.8297 185.704 28.518 185.852 28.11V27.175H184.033C182.945 27.175 182.401 27.532 182.401 28.246C182.401 28.586 182.531 28.858 182.792 29.062C183.064 29.2547 183.432 29.351 183.897 29.351ZM195.423 31.136C194.449 31.136 193.57 30.9377 192.788 30.541C192.018 30.133 191.411 29.572 190.969 28.858C190.539 28.144 190.323 27.3337 190.323 26.427C190.323 25.5203 190.539 24.71 190.969 23.996C191.411 23.282 192.018 22.7267 192.788 22.33C193.57 21.922 194.449 21.718 195.423 21.718C196.387 21.718 197.225 21.922 197.939 22.33C198.665 22.7267 199.192 23.299 199.52 24.047L197.463 25.152C196.987 24.3133 196.302 23.894 195.406 23.894C194.715 23.894 194.143 24.1207 193.689 24.574C193.236 25.0273 193.009 25.645 193.009 26.427C193.009 27.209 193.236 27.8267 193.689 28.28C194.143 28.7333 194.715 28.96 195.406 28.96C196.313 28.96 196.999 28.5407 197.463 27.702L199.52 28.824C199.192 29.5493 198.665 30.116 197.939 30.524C197.225 30.932 196.387 31.136 195.423 31.136ZM207.079 30.558C206.818 30.7507 206.495 30.898 206.11 31C205.736 31.0907 205.339 31.136 204.92 31.136C203.832 31.136 202.988 30.8583 202.387 30.303C201.798 29.7477 201.503 28.9317 201.503 27.855V24.098H200.092V22.058H201.503V19.831H204.155V22.058H206.433V24.098H204.155V27.821C204.155 28.2063 204.251 28.5067 204.444 28.722C204.648 28.926 204.931 29.028 205.294 29.028C205.713 29.028 206.07 28.9147 206.365 28.688L207.079 30.558ZM212.257 21.718C213.673 21.718 214.761 22.058 215.521 22.738C216.28 23.4067 216.66 24.421 216.66 25.781V31H214.178V29.861C213.679 30.711 212.75 31.136 211.39 31.136C210.687 31.136 210.075 31.017 209.554 30.779C209.044 30.541 208.653 30.2123 208.381 29.793C208.109 29.3737 207.973 28.8977 207.973 28.365C207.973 27.515 208.29 26.8463 208.925 26.359C209.571 25.8717 210.562 25.628 211.9 25.628H214.008C214.008 25.05 213.832 24.608 213.481 24.302C213.129 23.9847 212.602 23.826 211.9 23.826C211.412 23.826 210.931 23.9053 210.455 24.064C209.99 24.2113 209.593 24.4153 209.265 24.676L208.313 22.823C208.811 22.4717 209.406 22.1997 210.098 22.007C210.8 21.8143 211.52 21.718 212.257 21.718ZM212.053 29.351C212.506 29.351 212.908 29.249 213.26 29.045C213.611 28.8297 213.86 28.518 214.008 28.11V27.175H212.189C211.101 27.175 210.557 27.532 210.557 28.246C210.557 28.586 210.687 28.858 210.948 29.062C211.22 29.2547 211.588 29.351 212.053 29.351ZM221.593 23.061C221.91 22.619 222.335 22.2847 222.868 22.058C223.412 21.8313 224.035 21.718 224.738 21.718V24.166C224.443 24.1433 224.245 24.132 224.143 24.132C223.384 24.132 222.789 24.3473 222.358 24.778C221.927 25.1973 221.712 25.832 221.712 26.682V31H219.06V21.854H221.593V23.061ZM238.028 21.718C239.172 21.718 240.079 22.058 240.748 22.738C241.428 23.4067 241.768 24.4153 241.768 25.764V31H239.116V26.172C239.116 25.4467 238.963 24.9083 238.657 24.557C238.362 24.1943 237.937 24.013 237.382 24.013C236.758 24.013 236.265 24.217 235.903 24.625C235.54 25.0217 235.359 25.6167 235.359 26.41V31H232.707V26.172C232.707 24.7327 232.129 24.013 230.973 24.013C230.361 24.013 229.873 24.217 229.511 24.625C229.148 25.0217 228.967 25.6167 228.967 26.41V31H226.315V21.854H228.848V22.908C229.188 22.5227 229.601 22.228 230.089 22.024C230.587 21.82 231.131 21.718 231.721 21.718C232.367 21.718 232.95 21.8483 233.472 22.109C233.993 22.3583 234.412 22.7267 234.73 23.214C235.104 22.738 235.574 22.3697 236.141 22.109C236.719 21.8483 237.348 21.718 238.028 21.718ZM253.204 26.461C253.204 26.495 253.187 26.733 253.153 27.175H246.234C246.358 27.7417 246.653 28.1893 247.118 28.518C247.582 28.8467 248.16 29.011 248.852 29.011C249.328 29.011 249.747 28.943 250.11 28.807C250.484 28.6597 250.829 28.433 251.147 28.127L252.558 29.657C251.696 30.643 250.438 31.136 248.784 31.136C247.752 31.136 246.84 30.9377 246.047 30.541C245.253 30.133 244.641 29.572 244.211 28.858C243.78 28.144 243.565 27.3337 243.565 26.427C243.565 25.5317 243.774 24.727 244.194 24.013C244.624 23.2877 245.208 22.7267 245.945 22.33C246.693 21.922 247.526 21.718 248.444 21.718C249.339 21.718 250.149 21.9107 250.875 22.296C251.6 22.6813 252.167 23.2367 252.575 23.962C252.994 24.676 253.204 25.509 253.204 26.461ZM248.461 23.724C247.86 23.724 247.356 23.894 246.948 24.234C246.54 24.574 246.29 25.0387 246.2 25.628H250.705C250.614 25.05 250.365 24.591 249.957 24.251C249.549 23.8997 249.05 23.724 248.461 23.724Z" fill="#030303"/>
</svg>
