<svg width="92" height="93" viewBox="0 0 92 93" fill="none" xmlns="http://www.w3.org/2000/svg">
<path d="M24.3165 79.651L25.8205 80.4025C32.088 84.1595 39.1069 85.9129 46.1262 85.9129C68.1865 85.9129 86.2357 67.8788 86.2357 45.837C86.2357 35.3173 81.9739 25.0478 74.4536 17.5334C66.933 10.0191 56.9053 5.76123 46.1262 5.76123C24.066 5.76123 6.01639 23.7953 6.26723 46.0877C6.26723 53.6017 8.52339 60.8657 12.2835 67.1272L13.2862 68.6303L9.27556 83.4083L24.3165 79.651Z" fill="#00E676"/>
<path d="M78.715 13.5256C70.1917 4.75916 58.4096 0 46.3766 0C20.8071 0 0.250844 20.7893 0.501328 46.0871C0.501328 54.1023 2.75748 61.8673 6.51798 68.8803L0 92.6754L24.3164 86.4135C31.0849 90.1709 38.6051 91.9242 46.1261 91.9242C71.4452 91.9242 92.0014 71.1346 92.0014 45.8371C92.0014 33.5637 87.2383 22.0417 78.7153 13.5256H78.715ZM46.3766 84.1596C39.6082 84.1596 32.8397 82.4066 27.0739 78.8999L25.5699 78.1484L11.0303 81.9053L14.7904 67.6286L13.7878 66.1255C2.75748 48.342 8.02197 24.7969 26.0712 13.7758C44.1205 2.75517 67.4342 8.01523 78.4645 26.0493C89.4944 44.0834 84.23 67.3776 66.1811 78.3986C60.4149 82.1556 53.3959 84.1592 46.3766 84.1592V84.1596ZM68.4369 56.3573L65.6794 55.1048C65.6794 55.1048 61.6687 53.3515 59.1617 52.099C58.9109 52.099 58.6604 51.8484 58.4096 51.8484C57.6574 51.8484 57.1561 52.099 56.6547 52.3497C56.6547 52.3497 56.4043 52.5999 52.8946 56.6076C52.6438 57.1085 52.1424 57.3591 51.6411 57.3591H51.3903C51.1398 57.3591 50.6385 57.1085 50.3876 56.8582L49.1341 56.3573C46.3766 55.1048 43.87 53.6017 41.8643 51.5981C41.363 51.0972 40.6108 50.5963 40.1095 50.0954C38.3547 48.342 36.5998 46.3381 35.3467 44.0838L35.0958 43.5829C34.8454 43.3323 34.8454 43.082 34.5945 42.5811C34.5945 42.0802 34.5945 41.5793 34.8454 41.3286C34.8454 41.3286 35.848 40.0762 36.5998 39.325C37.1015 38.8237 37.352 38.0725 37.8533 37.5716C38.3547 36.8201 38.6055 35.8183 38.3547 35.0667C38.1042 33.8143 35.0958 27.0515 34.344 25.5488C33.8423 24.7972 33.3414 24.547 32.5892 24.2963H29.8317C29.33 24.2963 28.8291 24.547 28.3274 24.547L28.0765 24.7972C27.5752 25.0479 27.0739 25.5488 26.5725 25.7991C26.0712 26.3003 25.8204 26.8009 25.319 27.3021C23.5642 29.5564 22.5616 32.3116 22.5616 35.0667C22.5616 37.0704 23.0629 39.0744 23.8151 40.8277L24.0659 41.5793C26.3221 46.3381 29.33 50.5963 33.3414 54.3533L34.344 55.3551C35.0958 56.1066 35.848 56.6076 36.3493 57.3587C41.6138 61.8676 47.6301 65.1237 54.3986 66.877C55.1508 67.1273 56.1534 67.1273 56.9056 67.378H59.4122C60.6657 67.378 62.1697 66.8771 63.1727 66.3761C63.9245 65.8752 64.4259 65.8752 64.9272 65.3743L65.4289 64.8731C65.9302 64.3722 66.4315 64.1219 66.9329 63.621C67.4342 63.1201 67.9355 62.6192 68.1864 62.1179C68.6877 61.1161 68.9382 59.8636 69.189 58.6115V56.8582C69.189 56.8582 68.9382 56.6076 68.4369 56.3573Z" fill="white"/>
</svg>
