<svg width="25" height="25" viewBox="0 0 25 25" fill="none" xmlns="http://www.w3.org/2000/svg">
<mask id="path-1-outside-1_596_3502" maskUnits="userSpaceOnUse" x="-0.210938" y="0.210449" width="25" height="25" fill="black">
<rect fill="white" x="-0.210938" y="0.210449" width="25" height="25"/>
<path fill-rule="evenodd" clip-rule="evenodd" d="M17.4784 14.9932C17.1929 14.8504 15.7927 14.1624 15.5321 14.0665C15.2714 13.9717 15.0816 13.9247 14.8909 14.2103C14.7012 14.4939 14.1559 15.136 13.9901 15.3258C13.8234 15.5165 13.6576 15.5395 13.3729 15.3977C13.0883 15.2539 12.1702 14.9539 11.0825 13.9841C10.2363 13.2289 9.66419 12.2965 9.4984 12.0109C9.3326 11.7263 9.48019 11.572 9.62298 11.4302C9.7514 11.3027 9.9076 11.0976 10.0504 10.9318C10.1932 10.7651 10.2401 10.6462 10.335 10.4555C10.4309 10.2658 10.3829 10.1 10.3111 9.9572C10.2401 9.81441 9.6709 8.41236 9.43323 7.84216C9.20227 7.28728 8.96748 7.36299 8.79306 7.35341C8.62631 7.34574 8.43656 7.34382 8.24681 7.34382C8.05706 7.34382 7.74848 7.41474 7.48781 7.70032C7.22619 7.98495 6.49115 8.67399 6.49115 10.076C6.49115 11.4771 7.51081 12.8312 7.6536 13.0219C7.7964 13.2117 9.66131 16.0886 12.5181 17.322C13.1985 17.6152 13.7285 17.7906 14.1415 17.9209C14.8239 18.1385 15.4449 18.1078 15.9355 18.034C16.4818 17.9526 17.6203 17.345 17.8579 16.6799C18.0946 16.0148 18.0946 15.4446 18.0237 15.3258C17.9528 15.2069 17.7631 15.136 17.4775 14.9932H17.4784ZM12.2824 22.0878H12.2785C10.5817 22.0881 8.91609 21.632 7.45619 20.7672L7.11119 20.5621L3.5251 21.5032L4.48248 18.0072L4.25727 17.6488C3.30865 16.1388 2.80664 14.3912 2.80923 12.6079C2.81115 7.38503 7.0604 3.13578 12.2862 3.13578C14.8162 3.13578 17.1948 4.12286 18.983 5.91303C19.865 6.79142 20.5641 7.83599 21.0399 8.98631C21.5156 10.1366 21.7585 11.3699 21.7545 12.6147C21.7526 17.8376 17.5034 22.0878 12.2824 22.0878ZM20.3439 4.55316C19.288 3.49029 18.0316 2.64754 16.6476 2.07376C15.2637 1.49997 13.7796 1.20654 12.2814 1.21049C6.00048 1.21049 0.886813 6.3232 0.884896 12.607C0.883938 14.6157 1.40815 16.5764 2.40577 18.3043L0.789062 24.2105L6.8304 22.6254C8.50161 23.5359 10.3744 24.013 12.2776 24.0131H12.2824C18.5633 24.0131 23.6769 18.9004 23.6789 12.6156C23.6835 11.118 23.3911 9.63433 22.8187 8.25044C22.2462 6.86654 21.4051 5.60988 20.3439 4.55316Z"/>
</mask>
<path fill-rule="evenodd" clip-rule="evenodd" d="M17.4784 14.9932C17.1929 14.8504 15.7927 14.1624 15.5321 14.0665C15.2714 13.9717 15.0816 13.9247 14.8909 14.2103C14.7012 14.4939 14.1559 15.136 13.9901 15.3258C13.8234 15.5165 13.6576 15.5395 13.3729 15.3977C13.0883 15.2539 12.1702 14.9539 11.0825 13.9841C10.2363 13.2289 9.66419 12.2965 9.4984 12.0109C9.3326 11.7263 9.48019 11.572 9.62298 11.4302C9.7514 11.3027 9.9076 11.0976 10.0504 10.9318C10.1932 10.7651 10.2401 10.6462 10.335 10.4555C10.4309 10.2658 10.3829 10.1 10.3111 9.9572C10.2401 9.81441 9.6709 8.41236 9.43323 7.84216C9.20227 7.28728 8.96748 7.36299 8.79306 7.35341C8.62631 7.34574 8.43656 7.34382 8.24681 7.34382C8.05706 7.34382 7.74848 7.41474 7.48781 7.70032C7.22619 7.98495 6.49115 8.67399 6.49115 10.076C6.49115 11.4771 7.51081 12.8312 7.6536 13.0219C7.7964 13.2117 9.66131 16.0886 12.5181 17.322C13.1985 17.6152 13.7285 17.7906 14.1415 17.9209C14.8239 18.1385 15.4449 18.1078 15.9355 18.034C16.4818 17.9526 17.6203 17.345 17.8579 16.6799C18.0946 16.0148 18.0946 15.4446 18.0237 15.3258C17.9528 15.2069 17.7631 15.136 17.4775 14.9932H17.4784ZM12.2824 22.0878H12.2785C10.5817 22.0881 8.91609 21.632 7.45619 20.7672L7.11119 20.5621L3.5251 21.5032L4.48248 18.0072L4.25727 17.6488C3.30865 16.1388 2.80664 14.3912 2.80923 12.6079C2.81115 7.38503 7.0604 3.13578 12.2862 3.13578C14.8162 3.13578 17.1948 4.12286 18.983 5.91303C19.865 6.79142 20.5641 7.83599 21.0399 8.98631C21.5156 10.1366 21.7585 11.3699 21.7545 12.6147C21.7526 17.8376 17.5034 22.0878 12.2824 22.0878ZM20.3439 4.55316C19.288 3.49029 18.0316 2.64754 16.6476 2.07376C15.2637 1.49997 13.7796 1.20654 12.2814 1.21049C6.00048 1.21049 0.886813 6.3232 0.884896 12.607C0.883938 14.6157 1.40815 16.5764 2.40577 18.3043L0.789062 24.2105L6.8304 22.6254C8.50161 23.5359 10.3744 24.013 12.2776 24.0131H12.2824C18.5633 24.0131 23.6769 18.9004 23.6789 12.6156C23.6835 11.118 23.3911 9.63433 22.8187 8.25044C22.2462 6.86654 21.4051 5.60988 20.3439 4.55316Z" fill="#4ECB71"/>
<path d="M17.4784 14.9932V15.3932L17.6573 14.6355L17.4784 14.9932ZM15.5321 14.0665L15.6701 13.6911L15.6689 13.6907L15.5321 14.0665ZM14.8909 14.2103L15.2234 14.4327L15.2236 14.4324L14.8909 14.2103ZM13.9901 15.3258L14.2912 15.5891L14.2913 15.589L13.9901 15.3258ZM13.3729 15.3977L13.1926 15.7547L13.1945 15.7557L13.3729 15.3977ZM11.0825 13.9841L10.8162 14.2826L10.8163 14.2827L11.0825 13.9841ZM9.4984 12.0109L9.84433 11.8101L9.84403 11.8096L9.4984 12.0109ZM9.62298 11.4302L9.3412 11.1463L9.34109 11.1464L9.62298 11.4302ZM10.0504 10.9318L10.3535 11.1929L10.3542 11.192L10.0504 10.9318ZM10.335 10.4555L9.97797 10.2752L9.97689 10.2774L10.335 10.4555ZM10.3111 9.9572L9.95281 10.1351L9.95377 10.137L10.3111 9.9572ZM9.43323 7.84216L9.06394 7.99587L9.06402 7.99605L9.43323 7.84216ZM8.79306 7.35341L8.81501 6.95399L8.81143 6.95383L8.79306 7.35341ZM7.48781 7.70032L7.7823 7.97102L7.78325 7.96998L7.48781 7.70032ZM7.6536 13.0219L7.33341 13.2617L7.33399 13.2625L7.6536 13.0219ZM12.5181 17.322L12.3596 17.6892L12.3598 17.6893L12.5181 17.322ZM14.1415 17.9209L14.263 17.5398L14.2619 17.5395L14.1415 17.9209ZM15.9355 18.034L15.8765 17.6384L15.876 17.6385L15.9355 18.034ZM17.8579 16.6799L18.2346 16.8145L18.2348 16.814L17.8579 16.6799ZM17.4775 14.9932V14.5932L17.2986 15.351L17.4775 14.9932ZM12.2785 22.0878V21.6878H12.2784L12.2785 22.0878ZM7.45619 20.7672L7.2518 21.111L7.25233 21.1114L7.45619 20.7672ZM7.11119 20.5621L7.31558 20.2183L7.17163 20.1327L7.00965 20.1752L7.11119 20.5621ZM3.5251 21.5032L3.13931 21.3975L2.95625 22.066L3.62664 21.8901L3.5251 21.5032ZM4.48248 18.0072L4.86827 18.1128L4.91472 17.9433L4.82117 17.7944L4.48248 18.0072ZM4.25727 17.6488L3.91856 17.8616L3.91858 17.8616L4.25727 17.6488ZM2.80923 12.6079L3.20923 12.6085L3.20923 12.6081L2.80923 12.6079ZM18.983 5.91303L18.7 6.19572L18.7008 6.19646L18.983 5.91303ZM21.7545 12.6147L21.3545 12.6134V12.6145L21.7545 12.6147ZM12.2814 1.21049V1.61049L12.2824 1.61049L12.2814 1.21049ZM0.884896 12.607L1.2849 12.6072V12.6071L0.884896 12.607ZM2.40577 18.3043L2.79158 18.4099L2.83566 18.2489L2.75218 18.1043L2.40577 18.3043ZM0.789062 24.2105L0.403255 24.1049L0.220301 24.7733L0.890576 24.5974L0.789062 24.2105ZM6.8304 22.6254L7.02177 22.2742L6.8824 22.1982L6.72888 22.2385L6.8304 22.6254ZM12.2776 24.0131L12.2776 24.4131H12.2776V24.0131ZM23.6789 12.6156L23.2789 12.6144V12.6155L23.6789 12.6156ZM17.6573 14.6355C17.5126 14.5631 17.0895 14.3545 16.6697 14.152C16.2623 13.9554 15.8238 13.7476 15.6701 13.6911L15.394 14.442C15.501 14.4813 15.8929 14.6654 16.3221 14.8725C16.739 15.0737 17.1587 15.2806 17.2996 15.351L17.6573 14.6355ZM15.6689 13.6907C15.5503 13.6475 15.3508 13.5737 15.139 13.5984C14.8836 13.6282 14.6963 13.7815 14.5583 13.9881L15.2236 14.4324C15.2523 14.3894 15.2676 14.3794 15.2652 14.3811C15.259 14.3854 15.2454 14.3914 15.2315 14.393C15.2227 14.3941 15.228 14.3915 15.2586 14.3985C15.2905 14.4059 15.3317 14.4193 15.3953 14.4424L15.6689 13.6907ZM14.5585 13.9879C14.3858 14.2461 13.8589 14.8681 13.6889 15.0626L14.2913 15.589C14.4529 15.404 15.0166 14.7418 15.2234 14.4327L14.5585 13.9879ZM13.689 15.0625C13.6775 15.0756 13.6687 15.0842 13.6625 15.0897C13.6564 15.0951 13.6534 15.097 13.6536 15.0968C13.6561 15.0953 13.6656 15.0908 13.6776 15.0893C13.6876 15.0881 13.6856 15.0908 13.6647 15.0854C13.6424 15.0798 13.6062 15.067 13.5513 15.0396L13.1945 15.7557C13.3628 15.8395 13.5606 15.9094 13.7738 15.8835C14.0037 15.8557 14.1697 15.7281 14.2912 15.5891L13.689 15.0625ZM13.5533 15.0406C13.2271 14.8759 12.3851 14.6096 11.3487 13.6856L10.8163 14.2827C11.9554 15.2983 12.9495 15.6319 13.1926 15.7547L13.5533 15.0406ZM11.3489 13.6857C10.5499 12.9727 10.0031 12.0835 9.84433 11.8101L9.15246 12.2117C9.32531 12.5095 9.9227 13.4852 10.8162 14.2826L11.3489 13.6857ZM9.84403 11.8096C9.82324 11.7739 9.82364 11.7618 9.82461 11.7693C9.82596 11.7799 9.82431 11.7945 9.82008 11.8059C9.81723 11.8136 9.81682 11.8098 9.83137 11.7918C9.84706 11.7723 9.86821 11.7504 9.90487 11.7139L9.34109 11.1464C9.27978 11.2073 9.13937 11.3403 9.06986 11.5281C8.98635 11.7536 9.02229 11.9883 9.15276 12.2122L9.84403 11.8096ZM9.90476 11.7141C10.0463 11.5735 10.2386 11.3262 10.3535 11.1929L9.74731 10.6708C9.57659 10.869 9.45646 11.0319 9.3412 11.1463L9.90476 11.7141ZM10.3542 11.192C10.5369 10.9787 10.6076 10.8057 10.6932 10.6337L9.97689 10.2774C9.87271 10.4868 9.84948 10.5515 9.74657 10.6716L10.3542 11.192ZM10.6921 10.6359C10.8711 10.2814 10.7651 9.96947 10.6684 9.77735L9.95377 10.137C9.97906 10.1873 9.98651 10.2157 9.98825 10.2318C9.989 10.2386 9.98872 10.2435 9.98793 10.248C9.98714 10.2525 9.98502 10.2613 9.97797 10.2752L10.6921 10.6359ZM10.6693 9.77927C10.6695 9.77956 10.6685 9.77767 10.6662 9.77261C10.664 9.76785 10.6611 9.76155 10.6576 9.75354C10.6504 9.73747 10.6413 9.71654 10.6303 9.69083C10.6082 9.63948 10.5798 9.57216 10.5465 9.49242C10.4799 9.33308 10.395 9.1275 10.3046 8.90776C10.1243 8.46964 9.92174 7.97448 9.80244 7.68827L9.06402 7.99605C9.18239 8.28004 9.38326 8.77101 9.56476 9.21216C9.74065 9.63963 9.90908 10.0471 9.95281 10.1351L10.6693 9.77927ZM9.80252 7.68845C9.66946 7.36878 9.50051 7.14384 9.2627 7.03158C9.14674 6.97683 9.03908 6.96122 8.95744 6.95646C8.91866 6.9542 8.88298 6.95433 8.86 6.9544C8.83281 6.95448 8.82282 6.95444 8.81501 6.95401L8.77112 7.7528C8.80691 7.75477 8.84241 7.75446 8.86235 7.7544C8.88649 7.75433 8.89958 7.75445 8.91094 7.75511C8.9296 7.7562 8.92778 7.75813 8.92119 7.75502C8.90211 7.74601 8.96604 7.76066 9.06394 7.99587L9.80252 7.68845ZM8.81143 6.95383C8.63527 6.94573 8.43814 6.94382 8.24681 6.94382V7.74382C8.43498 7.74382 8.61735 7.74575 8.77469 7.75298L8.81143 6.95383ZM8.24681 6.94382C7.96565 6.94382 7.54192 7.04771 7.19238 7.43066L7.78325 7.96998C7.95504 7.78177 8.14848 7.74382 8.24681 7.74382V6.94382ZM7.19332 7.42963C6.92901 7.71717 6.09115 8.50726 6.09115 10.076H6.89115C6.89115 8.84072 7.52336 8.25272 7.7823 7.97102L7.19332 7.42963ZM6.09115 10.076C6.09115 10.8665 6.37639 11.6208 6.66213 12.1839C6.95073 12.7526 7.25784 13.1608 7.33341 13.2617L7.9738 12.7822C7.90657 12.6924 7.63246 12.3282 7.37553 11.8219C7.11574 11.3099 6.89115 10.6866 6.89115 10.076H6.09115ZM7.33399 13.2625C7.33392 13.2624 7.3348 13.2635 7.337 13.2666C7.3391 13.2695 7.34183 13.2733 7.34532 13.2783C7.35238 13.2883 7.36121 13.3009 7.37241 13.317C7.39449 13.3486 7.42397 13.3909 7.45996 13.4417C7.5321 13.5436 7.63048 13.6801 7.75355 13.8422C7.99949 14.1663 8.34421 14.5934 8.77631 15.0542C9.63685 15.972 10.8611 17.0423 12.3596 17.6892L12.6767 16.9548C9.93808 15.7724 8.13836 13.0009 7.97322 12.7814L7.33399 13.2625ZM12.3598 17.6893C13.0575 17.99 13.6015 18.17 14.0212 18.3024L14.2619 17.5395C13.8555 17.4112 13.3396 17.2405 12.6764 16.9547L12.3598 17.6893ZM14.02 18.302C14.7822 18.5451 15.4708 18.5084 15.995 18.4296L15.876 17.6385C15.4189 17.7072 14.8655 17.7319 14.263 17.5398L14.02 18.302ZM15.9945 18.4297C16.3428 18.3777 16.8179 18.1756 17.2283 17.9126C17.6292 17.6557 18.0694 17.2768 18.2346 16.8145L17.4813 16.5453C17.4088 16.7481 17.161 17.0055 16.7966 17.2391C16.4418 17.4664 16.0745 17.6089 15.8765 17.6384L15.9945 18.4297ZM18.2348 16.814C18.3648 16.4488 18.4311 16.1064 18.4547 15.8323C18.4665 15.6957 18.4682 15.5701 18.4598 15.4629C18.4532 15.3777 18.4365 15.2369 18.3672 15.1208L17.6802 15.5308C17.6464 15.474 17.6563 15.4491 17.6622 15.525C17.6664 15.579 17.6666 15.6597 17.6577 15.7637C17.6398 15.9707 17.5878 16.246 17.4811 16.5458L18.2348 16.814ZM18.3672 15.1208C18.2729 14.9627 18.1232 14.8725 18.0234 14.8177C17.9246 14.7636 17.7758 14.6952 17.6564 14.6355L17.2986 15.351C17.373 15.3882 17.4424 15.4213 17.4991 15.4488C17.5582 15.4774 17.6027 15.4994 17.6388 15.5192C17.723 15.5654 17.7036 15.57 17.6802 15.5308L18.3672 15.1208ZM17.4775 15.3932H17.4784V14.5932H17.4775V15.3932ZM12.2824 21.6878H12.2785V22.4878H12.2824V21.6878ZM12.2784 21.6878C10.6534 21.6881 9.05821 21.2512 7.66005 20.423L7.25233 21.1114C8.77396 22.0127 10.51 22.4881 12.2786 22.4878L12.2784 21.6878ZM7.66058 20.4234L7.31558 20.2183L6.9068 20.906L7.2518 21.111L7.66058 20.4234ZM7.00965 20.1752L3.42357 21.1163L3.62664 21.8901L7.21272 20.949L7.00965 20.1752ZM3.9109 21.6088L4.86827 18.1128L4.09668 17.9015L3.13931 21.3975L3.9109 21.6088ZM4.82117 17.7944L4.59596 17.436L3.91858 17.8616L4.14379 18.22L4.82117 17.7944ZM4.59598 17.436C3.68751 15.9899 3.20675 14.3163 3.20923 12.6085L2.40923 12.6074C2.40653 14.4661 2.92979 16.2877 3.91856 17.8616L4.59598 17.436ZM3.20923 12.6081C3.21106 7.60603 7.28126 3.53578 12.2862 3.53578V2.73578C6.83953 2.73578 2.41123 7.16403 2.40923 12.6078L3.20923 12.6081ZM12.2862 3.53578C14.7099 3.53578 16.9867 4.48057 18.7 6.19572L19.266 5.63034C17.4028 3.76515 14.9225 2.73578 12.2862 2.73578V3.53578ZM18.7008 6.19646C19.5453 7.03753 20.2147 8.03772 20.6702 9.13917L21.4095 8.83344C20.9136 7.63425 20.1848 6.54531 19.2653 5.6296L18.7008 6.19646ZM20.6702 9.13917C21.1257 10.2406 21.3583 11.4215 21.3545 12.6134L22.1545 12.6159C22.1587 11.3182 21.9054 10.0326 21.4095 8.83344L20.6702 9.13917ZM21.3545 12.6145C21.3527 17.6168 17.2823 21.6878 12.2824 21.6878V22.4878C17.7244 22.4878 22.1525 18.0584 22.1545 12.6148L21.3545 12.6145ZM20.6276 4.27124C19.5344 3.17083 18.2337 2.29831 16.8008 1.70425L16.4945 2.44326C17.8295 2.99678 19.0415 3.80975 20.0601 4.83507L20.6276 4.27124ZM16.8008 1.70425C15.368 1.11019 13.8315 0.806405 12.2803 0.81049L12.2824 1.61049C13.7277 1.60668 15.1594 1.88974 16.4945 2.44326L16.8008 1.70425ZM12.2814 0.810488C5.77952 0.810488 0.48688 6.1023 0.484896 12.6069L1.2849 12.6071C1.28675 6.54409 6.22144 1.61049 12.2814 1.61049V0.810488ZM0.484896 12.6068C0.483904 14.6854 1.02643 16.7153 2.05936 18.5043L2.75218 18.1043C1.78986 16.4376 1.28397 14.5459 1.2849 12.6072L0.484896 12.6068ZM2.01996 18.1987L0.403255 24.1049L1.17487 24.3161L2.79158 18.4099L2.01996 18.1987ZM0.890576 24.5974L6.93191 23.0123L6.72888 22.2385L0.687549 23.8236L0.890576 24.5974ZM6.63902 22.9767C8.36895 23.9192 10.3075 24.413 12.2776 24.4131L12.2776 23.6131C10.4413 23.613 8.63427 23.1527 7.02177 22.2742L6.63902 22.9767ZM12.2776 24.4131H12.2824V23.6131H12.2776V24.4131ZM12.2824 24.4131C18.7843 24.4131 24.0769 19.1212 24.0789 12.6157L23.2789 12.6155C23.277 18.6795 18.3423 23.6131 12.2824 23.6131V24.4131ZM24.0789 12.6169C24.0836 11.0664 23.781 9.5303 23.1883 8.09754L22.4491 8.40333C23.0013 9.73836 23.2833 11.1696 23.2789 12.6144L24.0789 12.6169ZM23.1883 8.09754C22.5957 6.66478 21.7248 5.36375 20.6261 4.26971L20.0616 4.8366C21.0854 5.85601 21.8968 7.0683 22.4491 8.40333L23.1883 8.09754Z" fill="#4ECB71" mask="url(#path-1-outside-1_596_3502)"/>
</svg>
