<svg width="330" height="49" viewBox="0 0 330 49" fill="none" xmlns="http://www.w3.org/2000/svg">
<rect width="330" height="49" rx="5" fill="#4ECB71"/>
<path d="M111.852 20.1L106.701 32H103.981L98.847 20.1H101.822L105.443 28.6L109.115 20.1H111.852ZM116.33 32.136C115.367 32.136 114.5 31.9377 113.729 31.541C112.97 31.133 112.375 30.572 111.944 29.858C111.513 29.144 111.298 28.3337 111.298 27.427C111.298 26.5203 111.513 25.71 111.944 24.996C112.375 24.282 112.97 23.7267 113.729 23.33C114.5 22.922 115.367 22.718 116.33 22.718C117.293 22.718 118.155 22.922 118.914 23.33C119.673 23.7267 120.268 24.282 120.699 24.996C121.13 25.71 121.345 26.5203 121.345 27.427C121.345 28.3337 121.13 29.144 120.699 29.858C120.268 30.572 119.673 31.133 118.914 31.541C118.155 31.9377 117.293 32.136 116.33 32.136ZM116.33 29.96C117.01 29.96 117.565 29.7333 117.996 29.28C118.438 28.8153 118.659 28.1977 118.659 27.427C118.659 26.6563 118.438 26.0443 117.996 25.591C117.565 25.1263 117.01 24.894 116.33 24.894C115.65 24.894 115.089 25.1263 114.647 25.591C114.205 26.0443 113.984 26.6563 113.984 27.427C113.984 28.1977 114.205 28.8153 114.647 29.28C115.089 29.7333 115.65 29.96 116.33 29.96ZM123.118 19.386H125.77V32H123.118V19.386ZM137.309 22.854L133.45 32H130.713L126.871 22.854H129.608L132.141 29.076L134.759 22.854H137.309ZM147.101 27.461C147.101 27.495 147.084 27.733 147.05 28.175H140.131C140.256 28.7417 140.55 29.1893 141.015 29.518C141.48 29.8467 142.058 30.011 142.749 30.011C143.225 30.011 143.644 29.943 144.007 29.807C144.381 29.6597 144.727 29.433 145.044 29.127L146.455 30.657C145.594 31.643 144.336 32.136 142.681 32.136C141.65 32.136 140.737 31.9377 139.944 31.541C139.151 31.133 138.539 30.572 138.108 29.858C137.677 29.144 137.462 28.3337 137.462 27.427C137.462 26.5317 137.672 25.727 138.091 25.013C138.522 24.2877 139.105 23.7267 139.842 23.33C140.59 22.922 141.423 22.718 142.341 22.718C143.236 22.718 144.047 22.9107 144.772 23.296C145.497 23.6813 146.064 24.2367 146.472 24.962C146.891 25.676 147.101 26.509 147.101 27.461ZM142.358 24.724C141.757 24.724 141.253 24.894 140.845 25.234C140.437 25.574 140.188 26.0387 140.097 26.628H144.602C144.511 26.05 144.262 25.591 143.854 25.251C143.446 24.8997 142.947 24.724 142.358 24.724ZM151.4 24.061C151.717 23.619 152.142 23.2847 152.675 23.058C153.219 22.8313 153.842 22.718 154.545 22.718V25.166C154.25 25.1433 154.052 25.132 153.95 25.132C153.19 25.132 152.595 25.3473 152.165 25.778C151.734 26.1973 151.519 26.832 151.519 27.682V32H148.867V22.854H151.4V24.061ZM164.691 22.718C166.108 22.718 167.196 23.058 167.955 23.738C168.715 24.4067 169.094 25.421 169.094 26.781V32H166.612V30.861C166.114 31.711 165.184 32.136 163.824 32.136C163.122 32.136 162.51 32.017 161.988 31.779C161.478 31.541 161.087 31.2123 160.815 30.793C160.543 30.3737 160.407 29.8977 160.407 29.365C160.407 28.515 160.725 27.8463 161.359 27.359C162.005 26.8717 162.997 26.628 164.334 26.628H166.442C166.442 26.05 166.267 25.608 165.915 25.302C165.564 24.9847 165.037 24.826 164.334 24.826C163.847 24.826 163.365 24.9053 162.889 25.064C162.425 25.2113 162.028 25.4153 161.699 25.676L160.747 23.823C161.246 23.4717 161.841 23.1997 162.532 23.007C163.235 22.8143 163.955 22.718 164.691 22.718ZM164.487 30.351C164.941 30.351 165.343 30.249 165.694 30.045C166.046 29.8297 166.295 29.518 166.442 29.11V28.175H164.623C163.535 28.175 162.991 28.532 162.991 29.246C162.991 29.586 163.122 29.858 163.382 30.062C163.654 30.2547 164.023 30.351 164.487 30.351ZM171.495 19.386H174.147V32H171.495V19.386ZM181.422 22.854H184.074V32H181.422V22.854ZM182.748 21.579C182.261 21.579 181.864 21.4373 181.558 21.154C181.252 20.8707 181.099 20.5193 181.099 20.1C181.099 19.6807 181.252 19.3293 181.558 19.046C181.864 18.7627 182.261 18.621 182.748 18.621C183.236 18.621 183.632 18.757 183.938 19.029C184.244 19.301 184.397 19.641 184.397 20.049C184.397 20.491 184.244 20.8593 183.938 21.154C183.632 21.4373 183.236 21.579 182.748 21.579ZM192.095 22.718C193.228 22.718 194.14 23.058 194.832 23.738C195.534 24.418 195.886 25.4267 195.886 26.764V32H193.234V27.172C193.234 26.4467 193.075 25.9083 192.758 25.557C192.44 25.1943 191.981 25.013 191.381 25.013C190.712 25.013 190.179 25.2227 189.783 25.642C189.386 26.05 189.188 26.662 189.188 27.478V32H186.536V22.854H189.069V23.925C189.42 23.5397 189.856 23.245 190.378 23.041C190.899 22.8257 191.471 22.718 192.095 22.718ZM198.289 22.854H200.941V32H198.289V22.854ZM199.615 21.579C199.128 21.579 198.731 21.4373 198.425 21.154C198.119 20.8707 197.966 20.5193 197.966 20.1C197.966 19.6807 198.119 19.3293 198.425 19.046C198.731 18.7627 199.128 18.621 199.615 18.621C200.103 18.621 200.499 18.757 200.805 19.029C201.111 19.301 201.264 19.641 201.264 20.049C201.264 20.491 201.111 20.8593 200.805 21.154C200.499 21.4373 200.103 21.579 199.615 21.579ZM207.823 32.136C206.848 32.136 205.97 31.9377 205.188 31.541C204.417 31.133 203.811 30.572 203.369 29.858C202.938 29.144 202.723 28.3337 202.723 27.427C202.723 26.5203 202.938 25.71 203.369 24.996C203.811 24.282 204.417 23.7267 205.188 23.33C205.97 22.922 206.848 22.718 207.823 22.718C208.786 22.718 209.625 22.922 210.339 23.33C211.064 23.7267 211.591 24.299 211.92 25.047L209.863 26.152C209.387 25.3133 208.701 24.894 207.806 24.894C207.114 24.894 206.542 25.1207 206.089 25.574C205.635 26.0273 205.409 26.645 205.409 27.427C205.409 28.209 205.635 28.8267 206.089 29.28C206.542 29.7333 207.114 29.96 207.806 29.96C208.712 29.96 209.398 29.5407 209.863 28.702L211.92 29.824C211.591 30.5493 211.064 31.116 210.339 31.524C209.625 31.932 208.786 32.136 207.823 32.136ZM213.447 22.854H216.099V32H213.447V22.854ZM214.773 21.579C214.285 21.579 213.889 21.4373 213.583 21.154C213.277 20.8707 213.124 20.5193 213.124 20.1C213.124 19.6807 213.277 19.3293 213.583 19.046C213.889 18.7627 214.285 18.621 214.773 18.621C215.26 18.621 215.657 18.757 215.963 19.029C216.269 19.301 216.422 19.641 216.422 20.049C216.422 20.491 216.269 20.8593 215.963 21.154C215.657 21.4373 215.26 21.579 214.773 21.579ZM222.912 32.136C221.949 32.136 221.082 31.9377 220.311 31.541C219.552 31.133 218.957 30.572 218.526 29.858C218.095 29.144 217.88 28.3337 217.88 27.427C217.88 26.5203 218.095 25.71 218.526 24.996C218.957 24.282 219.552 23.7267 220.311 23.33C221.082 22.922 221.949 22.718 222.912 22.718C223.875 22.718 224.737 22.922 225.496 23.33C226.255 23.7267 226.85 24.282 227.281 24.996C227.712 25.71 227.927 26.5203 227.927 27.427C227.927 28.3337 227.712 29.144 227.281 29.858C226.85 30.572 226.255 31.133 225.496 31.541C224.737 31.9377 223.875 32.136 222.912 32.136ZM222.912 29.96C223.592 29.96 224.147 29.7333 224.578 29.28C225.02 28.8153 225.241 28.1977 225.241 27.427C225.241 26.6563 225.02 26.0443 224.578 25.591C224.147 25.1263 223.592 24.894 222.912 24.894C222.232 24.894 221.671 25.1263 221.229 25.591C220.787 26.0443 220.566 26.6563 220.566 27.427C220.566 28.1977 220.787 28.8153 221.229 29.28C221.671 29.7333 222.232 29.96 222.912 29.96Z" fill="black"/>
</svg>
