<svg width="24" height="24" viewBox="0 0 24 24" fill="none" xmlns="http://www.w3.org/2000/svg">
<path d="M0.969697 5.06056e-05C0.712517 5.06056e-05 0.465871 0.126479 0.284018 0.351522C0.102164 0.576565 0 0.881789 0 1.20005C0 1.51831 0.102164 1.82353 0.284018 2.04857C0.465871 2.27362 0.712517 2.40005 0.969697 2.40005H3.12242L5.66691 15C5.88315 16.068 6.656 16.8 7.54521 16.8H19.6373C20.513 16.8 21.2567 16.08 21.4865 15.036L24 3.60004H21.9695L19.6364 14.4H7.54424L5.00073 1.80005C4.89566 1.28312 4.65345 0.824783 4.3129 0.498426C3.97235 0.172069 3.55314 -0.00342351 3.12242 5.06056e-05H0.969697ZM18.4242 16.8C16.8291 16.8 15.5152 18.426 15.5152 20.4C15.5152 22.374 16.8291 24 18.4242 24C20.0194 24 21.3333 22.374 21.3333 20.4C21.3333 18.426 20.0194 16.8 18.4242 16.8ZM9.69697 16.8C8.10182 16.8 6.78788 18.426 6.78788 20.4C6.78788 22.374 8.10182 24 9.69697 24C11.2921 24 12.6061 22.374 12.6061 20.4C12.6061 18.426 11.2921 16.8 9.69697 16.8ZM12.6061 5.06056e-05V6.00004H9.69697L13.5758 10.8L17.4545 6.00004H14.5455V5.06056e-05H12.6061ZM9.69697 19.2C10.2439 19.2 10.6667 19.7232 10.6667 20.4C10.6667 21.0768 10.2439 21.6 9.69697 21.6C9.15006 21.6 8.72727 21.0768 8.72727 20.4C8.72727 19.7232 9.15006 19.2 9.69697 19.2ZM18.4242 19.2C18.9712 19.2 19.3939 19.7232 19.3939 20.4C19.3939 21.0768 18.9712 21.6 18.4242 21.6C17.8773 21.6 17.4545 21.0768 17.4545 20.4C17.4545 19.7232 17.8773 19.2 18.4242 19.2Z" fill="#4ECB71"/>
</svg>
