<svg width="30" height="27" viewBox="0 0 30 27" fill="none" xmlns="http://www.w3.org/2000/svg">
<path d="M29.3779 13.2833L16.5917 1.1053L15.7347 0.288604C15.5394 0.103748 15.2753 0 15.0001 0C14.7248 0 14.4607 0.103748 14.2655 0.288604L0.622238 13.2833C0.422144 13.4732 0.264006 13.6994 0.157159 13.9485C0.0503114 14.1976 -0.00307949 14.4646 0.000137159 14.7338C0.0133734 15.8437 0.982925 16.7298 2.14771 16.7298H3.55406V27H26.4461V16.7298H27.8822C28.448 16.7298 28.9808 16.5185 29.3812 16.137C29.5783 15.9497 29.7346 15.727 29.8408 15.4818C29.947 15.2366 30.0011 14.9738 30 14.7085C30 14.1725 29.7783 13.6648 29.3779 13.2833ZM16.8531 24.7296H13.147V18.297H16.8531V24.7296ZM24.0635 14.4594V24.7296H18.9709V17.5402C18.9709 16.8433 18.3786 16.2789 17.6473 16.2789H12.3528C11.6215 16.2789 11.0292 16.8433 11.0292 17.5402V24.7296H5.93657V14.4594H2.75988L15.0034 2.80176L15.7678 3.53017L27.2435 14.4594H24.0635Z" fill="#4ECB71"/>
</svg>
