<svg width="24" height="24" viewBox="0 0 24 24" fill="none" xmlns="http://www.w3.org/2000/svg">
<path d="M4.39149 17.4638V21.8043L8.73192 20.7319L12 24L15.2681 20.7319L19.6085 21.8043V17.4638L24 16.3404L21.8043 12L24 7.65957L19.6085 6.53617V2.19574L15.2681 3.26808L12 0L8.73192 3.26808L4.39149 2.19574V6.53617L0 7.65957L2.19574 12L0 16.3404L4.39149 17.4638ZM4.13617 11.0298L3.16596 9.0383L4.90213 8.62979C5.41277 8.52766 5.81277 8.28085 6.10213 7.88936C6.39149 7.49787 6.53617 7.04681 6.53617 6.53617V5.00425L8.17021 5.46383H8.73192C9.31064 5.46383 9.82128 5.24255 10.2638 4.8L12 3.06383L13.7362 4.8C14.1787 5.24255 14.6894 5.46383 15.2681 5.46383C15.4723 5.46383 15.6596 5.42979 15.8298 5.3617L17.4638 5.00425V6.53617C17.4638 7.04681 17.6085 7.49787 17.8979 7.88936C18.1872 8.28085 18.5872 8.52766 19.0979 8.62979L20.834 9.0383L19.8638 11.0298C19.5234 11.6766 19.5234 12.3234 19.8638 12.9702L20.834 14.9617L19.0979 15.3702C18.5872 15.4723 18.1872 15.7191 17.8979 16.1106C17.6085 16.5021 17.4638 16.9532 17.4638 17.4638V18.9957L15.8298 18.5362H15.2681C14.6894 18.5362 14.1787 18.7574 13.7362 19.2L12 20.9362L10.2638 19.2C9.82128 18.7574 9.31064 18.5362 8.73192 18.5362C8.52766 18.5362 8.34043 18.5702 8.17021 18.6383L6.53617 18.9957V17.4638C6.53617 16.9532 6.39149 16.5021 6.10213 16.1106C5.81277 15.7191 5.41277 15.4723 4.90213 15.3702L3.16596 14.9617L4.13617 12.9702C4.4766 12.3234 4.4766 11.6766 4.13617 11.0298ZM10.9277 15.7277L16.034 10.5702C16.5106 10.0936 16.5106 9.58298 16.034 9.0383C15.5234 8.59574 15.0128 8.59574 14.5021 9.0383L10.9277 12.6638L9.49787 11.234C8.98723 10.7915 8.4766 10.7915 7.96596 11.234C7.5234 11.7447 7.5234 12.2553 7.96596 12.766L10.9277 15.7277Z" fill="#4ECB71"/>
</svg>
