<svg width="24" height="24" viewBox="0 0 24 24" fill="none" xmlns="http://www.w3.org/2000/svg">
<path d="M9 15L15 9" stroke="#4ECB71" stroke-width="2" stroke-linecap="round" stroke-linejoin="round"/>
<path d="M9.5 10C9.77614 10 10 9.77614 10 9.5C10 9.22386 9.77614 9 9.5 9C9.22386 9 9 9.22386 9 9.5C9 9.77614 9.22386 10 9.5 10Z" fill="#4ECB71" stroke="#4ECB71" stroke-width="2" stroke-linecap="round" stroke-linejoin="round"/>
<path d="M14.5 15C14.7761 15 15 14.7761 15 14.5C15 14.2239 14.7761 14 14.5 14C14.2239 14 14 14.2239 14 14.5C14 14.7761 14.2239 15 14.5 15Z" fill="#4ECB71" stroke="#4ECB71" stroke-width="2" stroke-linecap="round" stroke-linejoin="round"/>
<path d="M5 7.2C5 6.61652 5.23179 6.05694 5.64437 5.64436C6.05695 5.23178 6.61653 5 7.2 5H8.2C8.7809 4.99967 9.33809 4.7696 9.75 4.36L10.45 3.66C10.6545 3.4544 10.8975 3.29124 11.1652 3.17991C11.433 3.06857 11.7201 3.01126 12.01 3.01126C12.3 3.01126 12.587 3.06857 12.8548 3.17991C13.1225 3.29124 13.3656 3.4544 13.57 3.66L14.27 4.36C14.6819 4.7696 15.2391 4.99967 15.82 5H16.82C17.4035 5 17.9631 5.23178 18.3756 5.64436C18.7882 6.05694 19.02 6.61652 19.02 7.2V8.2C19.0203 8.7809 19.2504 9.33809 19.66 9.75L20.36 10.45C20.5656 10.6544 20.7288 10.8975 20.8401 11.1652C20.9514 11.433 21.0087 11.7201 21.0087 12.01C21.0087 12.2999 20.9514 12.587 20.8401 12.8548C20.7288 13.1225 20.5656 13.3656 20.36 13.57L19.66 14.27C19.2504 14.6819 19.0203 15.2391 19.02 15.82V16.82C19.02 17.4035 18.7882 17.9631 18.3756 18.3756C17.9631 18.7882 17.4035 19.02 16.82 19.02H15.82C15.2391 19.0203 14.6819 19.2504 14.27 19.66L13.57 20.36C13.3656 20.5656 13.1225 20.7288 12.8548 20.8401C12.587 20.9514 12.3 21.0087 12.01 21.0087C11.7201 21.0087 11.433 20.9514 11.1652 20.8401C10.8975 20.7288 10.6545 20.5656 10.45 20.36L9.75 19.66C9.33809 19.2504 8.7809 19.0203 8.2 19.02H7.2C6.61653 19.02 6.05695 18.7882 5.64437 18.3756C5.23179 17.9631 5 17.4035 5 16.82V15.82C4.99967 15.2391 4.76961 14.6819 4.36 14.27L3.66 13.57C3.4544 13.3656 3.29125 13.1225 3.17991 12.8548C3.06858 12.587 3.01126 12.2999 3.01126 12.01C3.01126 11.7201 3.06858 11.433 3.17991 11.1652C3.29125 10.8975 3.4544 10.6544 3.66 10.45L4.36 9.75C4.76961 9.33809 4.99967 8.7809 5 8.2V7.2" stroke="#4ECB71" stroke-width="2" stroke-linecap="round" stroke-linejoin="round"/>
</svg>
