<svg width="28" height="31" viewBox="0 0 28 31" fill="none" xmlns="http://www.w3.org/2000/svg">
<path d="M23.4 16.2H23.6C24.5017 16.2 25.3665 15.8418 26.0042 15.2042C26.6418 14.5665 27 13.7017 27 12.8V4.4C27 3.49826 26.6418 2.63346 26.0042 1.99584C25.3665 1.35821 24.5017 1 23.6 1H11.6C9.72772 1 8.2 2.52772 8.2 4.4V12.8C8.2 13.7017 8.55821 14.5665 9.19584 15.2042C9.83346 15.8418 10.6983 16.2 11.6 16.2H18.3858L18.7858 16.6H11.6C10.5922 16.6 9.62563 16.1996 8.91299 15.487C8.20036 14.7744 7.8 13.8078 7.8 12.8V9.2V8.2H6.8H4.4C2.52772 8.2 1 9.72772 1 11.6V20C1 20.9017 1.35821 21.7665 1.99584 22.4042C2.63346 23.0418 3.49826 23.4 4.4 23.4H4.6V26V28.4142L6.30711 26.7071L9.61421 23.4H16.4C17.3017 23.4 18.1665 23.0418 18.8042 22.4042C19.4418 21.7665 19.8 20.9017 19.8 20V17.6142L21.6929 19.5071L23.4 21.2142V18.8V16.2Z" stroke="#4ECB71" stroke-width="2"/>
<path d="M23.4 16.2H23.6C24.5017 16.2 25.3665 15.8418 26.0042 15.2042C26.6418 14.5665 27 13.7017 27 12.8V4.4C27 3.49826 26.6418 2.63346 26.0042 1.99584C25.3665 1.35821 24.5017 1 23.6 1H11.6C9.72772 1 8.2 2.52772 8.2 4.4V12.8C8.2 13.7017 8.55821 14.5665 9.19584 15.2042C9.83346 15.8418 10.6983 16.2 11.6 16.2H18.3858L18.7858 16.6H11.6C10.5922 16.6 9.62563 16.1996 8.91299 15.487C8.20036 14.7744 7.8 13.8078 7.8 12.8V9.2V8.2H6.8H4.4C2.52772 8.2 1 9.72772 1 11.6V20C1 20.9017 1.35821 21.7665 1.99584 22.4042C2.63346 23.0418 3.49826 23.4 4.4 23.4H4.6V26V28.4142L6.30711 26.7071L9.61421 23.4H16.4C17.3017 23.4 18.1665 23.0418 18.8042 22.4042C19.4418 21.7665 19.8 20.9017 19.8 20V17.6142L21.6929 19.5071L23.4 21.2142V18.8V16.2Z" stroke="#4ECB71" stroke-width="2"/>
<path d="M23.4 16.2H23.6C24.5017 16.2 25.3665 15.8418 26.0042 15.2042C26.6418 14.5665 27 13.7017 27 12.8V4.4C27 3.49826 26.6418 2.63346 26.0042 1.99584C25.3665 1.35821 24.5017 1 23.6 1H11.6C9.72772 1 8.2 2.52772 8.2 4.4V12.8C8.2 13.7017 8.55821 14.5665 9.19584 15.2042C9.83346 15.8418 10.6983 16.2 11.6 16.2H18.3858L18.7858 16.6H11.6C10.5922 16.6 9.62563 16.1996 8.91299 15.487C8.20036 14.7744 7.8 13.8078 7.8 12.8V9.2V8.2H6.8H4.4C2.52772 8.2 1 9.72772 1 11.6V20C1 20.9017 1.35821 21.7665 1.99584 22.4042C2.63346 23.0418 3.49826 23.4 4.4 23.4H4.6V26V28.4142L6.30711 26.7071L9.61421 23.4H16.4C17.3017 23.4 18.1665 23.0418 18.8042 22.4042C19.4418 21.7665 19.8 20.9017 19.8 20V17.6142L21.6929 19.5071L23.4 21.2142V18.8V16.2Z" stroke="#4ECB71" stroke-width="2"/>
</svg>
