<svg width="29" height="29" viewBox="0 0 29 29" fill="none" xmlns="http://www.w3.org/2000/svg">
<path d="M1.18685 8.80124L1.18582 8.81239L1.18503 8.82356C1.1625 9.14478 1.25323 9.44049 1.40598 9.68175C1.55446 9.91625 1.75376 10.0896 1.9533 10.2131C2.15437 10.3376 2.37342 10.4231 2.59075 10.477C2.80738 10.5308 3.03213 10.5559 3.25387 10.554H6.90008C7.36414 10.554 7.81563 10.4402 8.19166 10.2209C8.55235 10.0105 8.93358 9.64353 9.05311 9.10394C9.29104 8.06499 10.6057 6.85344 14.0162 6.85344C15.4568 6.85344 16.7468 7.07438 17.6367 7.49272C18.5062 7.90147 18.8312 8.39975 18.8312 8.97644C18.8312 9.41141 18.6572 9.76521 18.0765 10.201C17.443 10.6764 16.4913 11.1215 15.1529 11.7291C13.6456 12.3911 12.1889 13.1515 11.1238 14.1193C10.0342 15.1093 9.2907 16.3806 9.39248 17.9991L9.40527 18.5581L9.40536 18.5617C9.4223 19.2012 9.84383 19.6344 10.2242 19.8606C10.6149 20.0928 11.0782 20.193 11.5114 20.193C11.5114 20.193 11.5114 20.193 11.5114 20.193H15.1004C15.5376 20.193 16.0064 20.0908 16.3998 19.8531C16.7839 19.6211 17.2067 19.1752 17.2067 18.5246V18.2438C17.2067 17.8701 17.2651 17.6305 17.3497 17.4523C17.4336 17.2759 17.5749 17.0928 17.8423 16.8793C18.4324 16.4083 19.4092 15.9513 21.093 15.1796L21.0938 15.1793C22.4227 14.5689 23.9202 13.8661 25.0767 12.9104C26.2684 11.9256 27.1816 10.6019 27.1816 8.77323C27.1816 6.18546 25.3472 4.41911 22.9992 3.35184C20.6406 2.27968 17.5282 1.78125 14.3525 1.78125C11.4767 1.78125 8.39275 2.18295 5.93539 3.21486C3.47904 4.24634 1.44556 6.01076 1.18685 8.80124ZM8.07296 24.3026C8.07296 25.5136 8.87913 26.4098 9.8509 26.9503C10.831 27.4954 12.1271 27.7812 13.5426 27.7812C15.0053 27.7812 16.3217 27.4976 17.3109 26.952C18.2963 26.4085 19.092 25.5104 19.092 24.3026C19.092 23.0794 18.307 22.1696 17.3102 21.6176C16.3172 21.0678 14.9979 20.7893 13.5382 20.7893C12.1276 20.7893 10.8306 21.0701 9.84813 21.6198C8.86588 22.1694 8.07296 23.0773 8.07296 24.3026Z" stroke="#4ECB71" stroke-width="2"/>
</svg>
