<svg width="24" height="25" viewBox="0 0 24 25" fill="none" xmlns="http://www.w3.org/2000/svg">
<path fill-rule="evenodd" clip-rule="evenodd" d="M4 0.625C2.93913 0.625 1.92172 1.1869 1.17157 2.1871C0.421427 3.18729 0 4.54385 0 5.95833L0 19.2917C0 20.7062 0.421427 22.0627 1.17157 23.0629C1.92172 24.0631 2.93913 24.625 4 24.625H20C21.0609 24.625 22.0783 24.0631 22.8284 23.0629C23.5786 22.0627 24 20.7062 24 19.2917V5.95833C24 4.54385 23.5786 3.18729 22.8284 2.1871C22.0783 1.1869 21.0609 0.625 20 0.625H4ZM20 3.29167H4C3.46957 3.29167 2.96086 3.57262 2.58579 4.07272C2.21071 4.57281 2 5.25109 2 5.95833V15.2917H22V5.95833C22 5.25109 21.7893 4.57281 21.4142 4.07272C21.0391 3.57262 20.5304 3.29167 20 3.29167V3.29167ZM22 17.9583H2V19.2917C2 19.9989 2.21071 20.6772 2.58579 21.1773C2.96086 21.6774 3.46957 21.9583 4 21.9583H20C20.5304 21.9583 21.0391 21.6774 21.4142 21.1773C21.7893 20.6772 22 19.9989 22 19.2917V17.9583Z" fill="#4ECB71"/>
</svg>
