<svg width="24" height="24" viewBox="0 0 24 24" fill="none" xmlns="http://www.w3.org/2000/svg">
<path d="M19.9646 5.2249e-06C19.4346 -0.000849156 18.9096 0.103086 18.4199 0.305834C17.9303 0.508582 17.4855 0.806142 17.1112 1.1814L14.2588 4.03482L13.6243 3.40032C13.5411 3.31703 13.4422 3.25095 13.3335 3.20587C13.2247 3.16079 13.1081 3.13759 12.9903 3.13759C12.8725 3.13759 12.7559 3.16079 12.6471 3.20587C12.5384 3.25095 12.4395 3.31703 12.3563 3.40032L10.4537 5.30291C10.3705 5.38616 10.3044 5.485 10.2593 5.59379C10.2142 5.70258 10.191 5.81919 10.191 5.93695C10.191 6.05471 10.2142 6.17132 10.2593 6.28011C10.3044 6.3889 10.3705 6.48775 10.4537 6.57099L11.0596 7.17599L4.71941 13.5164C3.73172 14.5032 3.1747 15.2364 2.81688 15.8801C2.45998 16.5229 2.3484 17.0975 2.26909 17.4941C2.1907 17.8906 2.13168 18.1332 1.89467 18.5602C1.65766 18.9872 1.19563 19.5765 0.28079 20.4913C0.191962 20.5773 0.121331 20.6803 0.0730941 20.7941C0.0248573 20.908 0 21.0303 0 21.154C0 21.2776 0.0248573 21.4 0.0730941 21.5138C0.121331 21.6276 0.191962 21.7306 0.28079 21.8166L2.18332 23.7192C2.26931 23.808 2.37228 23.8787 2.48611 23.9269C2.59994 23.9751 2.7223 24 2.84593 24C2.96956 24 3.09193 23.9751 3.20576 23.9269C3.31959 23.8787 3.42256 23.808 3.50854 23.7192C4.42338 22.8043 5.01268 22.3423 5.43966 22.1053C5.86665 21.8683 6.11011 21.8102 6.50574 21.7299C6.9023 21.6515 7.47684 21.5399 8.11962 21.183C8.76333 20.8252 9.49557 20.2682 10.4833 19.2804C11.6379 18.1276 15.9566 13.8069 16.8235 12.94L17.4285 13.545C17.7789 13.8955 18.3461 13.8955 18.6965 13.545L20.599 11.6433C20.6825 11.5602 20.7488 11.4614 20.794 11.3526C20.8393 11.2438 20.8625 11.1271 20.8625 11.0093C20.8625 10.8915 20.8393 10.7748 20.794 10.666C20.7488 10.5572 20.6825 10.4584 20.599 10.3753L19.9646 9.74075L22.8179 6.88825C23.3823 6.32396 23.7667 5.60496 23.9224 4.82218C24.0782 4.03941 23.9983 3.22802 23.6928 2.49066C23.3874 1.7533 22.8701 1.1231 22.2065 0.679755C21.5429 0.236414 20.7627 -0.000143599 19.9646 5.2249e-06V5.2249e-06ZM12.3563 8.53076L15.4688 11.6433L9.15711 17.9552C8.24227 18.87 7.62439 19.3321 7.19741 19.5691C6.77134 19.8061 6.55647 19.8642 6.15991 19.9435C5.76336 20.0228 5.18974 20.1335 4.54604 20.4913C4.10337 20.7376 3.48733 21.2706 2.90357 21.788L2.21191 21.0963C2.72835 20.5126 3.26231 19.8974 3.50854 19.4538C3.86636 18.8101 3.97703 18.2365 4.05634 17.8399C4.13565 17.4433 4.19467 17.1999 4.43076 16.7729C4.66777 16.3468 5.1298 15.7575 6.04464 14.8426L12.3563 8.53076Z" fill="#4ECB71"/>
</svg>
