<svg width="26" height="26" viewBox="0 0 26 26" fill="none" xmlns="http://www.w3.org/2000/svg">
<mask id="path-1-outside-1_9_4" maskUnits="userSpaceOnUse" x="0" y="0" width="26" height="26" fill="black">
<rect fill="white" width="26" height="26"/>
<path fill-rule="evenodd" clip-rule="evenodd" d="M12.7992 1.16279C11.9755 2.10137 11.1196 4.11291 10.7301 6.02544C10.4936 7.18641 10.394 8.128 10.3576 9.54428L10.3269 10.7383L9.88278 10.2053C8.72416 8.81512 7.20632 7.51424 5.6429 6.57148C4.58117 5.93127 2.92809 5.19699 2.89396 5.35043C2.86617 5.47541 3.02958 6.63657 3.17403 7.34051C3.42147 8.54638 3.84495 9.90564 4.32847 11.0459C4.73008 11.9929 5.48414 13.4112 5.95067 14.097C6.06624 14.2668 6.07493 14.297 6.00202 14.275C5.95372 14.2604 5.70294 14.2066 5.44475 14.1553C4.07014 13.8825 2.58277 13.9012 1.47799 14.2052C0.929026 14.3563 0.939541 14.3448 1.08479 14.6337C1.42349 15.3077 2.12333 16.2145 2.77998 16.8303C3.73698 17.7277 4.83584 18.3888 6.28754 18.9405L6.42616 18.9932L6.12788 19.1819C5.54094 19.5532 5.05676 19.9588 4.23595 20.7669C3.77768 21.2181 3.40269 21.6018 3.40269 21.6195C3.40269 21.6602 3.98109 21.8328 4.41199 21.9206C4.95916 22.0321 5.89537 22.0917 7.20515 22.0987C8.20506 22.1039 8.54592 22.0888 8.94208 22.0216C9.97564 21.8463 11.5269 21.3158 12.2279 20.8981C12.5281 20.7192 12.5565 20.73 12.557 21.0234C12.5575 21.2558 12.684 22.0395 12.8186 22.6428C13.0346 23.6113 13.4724 24.7936 13.6698 24.9413C13.713 24.9736 13.8589 25 13.9941 25C14.2037 25 14.2543 24.9818 14.3372 24.8762C14.47 24.7074 14.4594 24.5045 14.2991 24.1493C13.9422 23.3583 13.7083 22.4007 13.518 20.9512L13.4952 20.7772L13.9766 21.024C14.7084 21.3993 15.8172 21.7808 16.7245 21.9694C17.7636 22.1854 20.5155 22.1461 21.6525 21.899C22.0143 21.8204 22.5558 21.654 22.5558 21.6215C22.5558 21.5763 20.9721 20.0219 20.6986 19.7987C20.5679 19.6921 20.254 19.4664 20.0012 19.2973L19.5414 18.9897L19.6755 18.9388C21.1428 18.3812 22.1782 17.7555 23.195 16.8119C23.8131 16.2383 24.5323 15.309 24.8586 14.6624L25 14.382L24.8353 14.3131C24.5945 14.2125 23.9557 14.0724 23.4712 14.014C22.4505 13.891 20.9775 14.0009 19.9827 14.2743C19.8868 14.3006 19.9038 14.2578 20.1264 13.9104C21.6002 11.6109 22.66 8.71621 23.0011 6.05827C23.0402 5.75341 23.0722 5.45268 23.0722 5.38998V5.27599L22.7438 5.39454C20.3775 6.24853 17.8592 8.06535 16.076 10.205L15.6316 10.7383L15.6013 9.56776C15.5846 8.92399 15.5358 8.0908 15.4927 7.71624C15.2098 5.2549 14.5028 3.09866 13.4862 1.59723C13.2736 1.2834 13.0331 1 12.9793 1C12.9588 1 12.8778 1.07327 12.7992 1.16279ZM13.1345 2.86693C13.756 4.25315 14.2543 6.064 14.4786 7.75039C14.7503 9.79476 14.7059 11.7767 14.3384 14.0098C14.2597 14.4877 14.1852 14.9209 14.1729 14.9726C14.1605 15.0243 14.2516 14.8658 14.3754 14.6204C14.9588 13.4637 15.7164 12.3137 16.6341 11.1918C17.8911 9.65508 19.8589 8.0258 21.8165 6.90109C22.0914 6.74309 22.0911 6.74098 21.898 7.48141C21.5602 8.77689 20.9782 10.3117 20.3459 11.5747C19.5553 13.1538 18.6919 14.3839 17.4609 15.6851L16.8756 16.3037L17.2864 16.1204C18.7541 15.4653 19.9852 15.1227 21.3353 14.9935C21.9071 14.9388 22.8643 14.9611 23.1429 15.0357L23.2723 15.0703L23.0228 15.3737C22.0902 16.5077 20.6915 17.5005 19.1603 18.1156C18.5585 18.3573 17.8879 18.5562 17.0869 18.7307C16.6996 18.815 16.4144 18.8957 16.4531 18.9099C16.4918 18.9241 16.6503 18.9607 16.8052 18.9912C17.7988 19.1868 19.3489 19.9693 20.3827 20.797C20.5788 20.9541 20.6587 21.046 20.6269 21.0779C20.5515 21.1533 17.4827 21.1401 17.1338 21.0629C15.8116 20.77 14.219 20.1158 13.3279 19.4994L12.9793 19.2583L12.6389 19.4914C11.7425 20.1051 10.316 20.709 9.03596 21.0166C8.6176 21.1171 8.49207 21.1238 7.00798 21.1245C5.88809 21.125 5.41039 21.1097 5.3726 21.0718C5.33274 21.032 5.40048 20.9532 5.64018 20.7605C6.60812 19.9823 7.97803 19.277 9.0246 19.0178C9.17285 18.9811 9.35753 18.9357 9.43499 18.9168C9.55183 18.8883 9.47184 18.86 8.96555 18.7507C6.99747 18.3261 5.61248 17.7095 4.26153 16.6565C3.81293 16.3069 3.07108 15.5752 2.85035 15.2647L2.69698 15.049L2.92076 15.0108C3.0438 14.9898 3.51418 14.9752 3.96602 14.9783C5.47048 14.9889 6.73627 15.2886 8.54305 16.0624C8.74961 16.1509 8.95029 16.2366 8.98902 16.253C9.02775 16.2694 8.81246 16.0197 8.51061 15.6981C7.82195 14.9645 7.4386 14.5029 6.96804 13.8408C5.92443 12.3724 5.00287 10.4895 4.37279 8.53816C4.15886 7.8756 3.91907 6.98502 3.91907 6.85299C3.91907 6.7631 4.35532 7.00338 5.21003 7.56402C6.82007 8.62016 8.2973 9.93218 9.4002 11.2857C10.2151 12.2858 10.8982 13.31 11.4207 14.3151C11.6356 14.7284 11.7978 15.0033 11.7813 14.9261C11.6792 14.4489 11.4729 13.0689 11.402 12.3894C11.3009 11.4197 11.2883 9.53282 11.3767 8.60861C11.5524 6.77353 12.0385 4.73569 12.6467 3.28507C12.8919 2.70005 12.9419 2.59687 12.9804 2.59687C12.9985 2.59687 13.0679 2.71842 13.1345 2.86693Z"/>
</mask>
<path fill-rule="evenodd" clip-rule="evenodd" d="M12.7992 1.16279C11.9755 2.10137 11.1196 4.11291 10.7301 6.02544C10.4936 7.18641 10.394 8.128 10.3576 9.54428L10.3269 10.7383L9.88278 10.2053C8.72416 8.81512 7.20632 7.51424 5.6429 6.57148C4.58117 5.93127 2.92809 5.19699 2.89396 5.35043C2.86617 5.47541 3.02958 6.63657 3.17403 7.34051C3.42147 8.54638 3.84495 9.90564 4.32847 11.0459C4.73008 11.9929 5.48414 13.4112 5.95067 14.097C6.06624 14.2668 6.07493 14.297 6.00202 14.275C5.95372 14.2604 5.70294 14.2066 5.44475 14.1553C4.07014 13.8825 2.58277 13.9012 1.47799 14.2052C0.929026 14.3563 0.939541 14.3448 1.08479 14.6337C1.42349 15.3077 2.12333 16.2145 2.77998 16.8303C3.73698 17.7277 4.83584 18.3888 6.28754 18.9405L6.42616 18.9932L6.12788 19.1819C5.54094 19.5532 5.05676 19.9588 4.23595 20.7669C3.77768 21.2181 3.40269 21.6018 3.40269 21.6195C3.40269 21.6602 3.98109 21.8328 4.41199 21.9206C4.95916 22.0321 5.89537 22.0917 7.20515 22.0987C8.20506 22.1039 8.54592 22.0888 8.94208 22.0216C9.97564 21.8463 11.5269 21.3158 12.2279 20.8981C12.5281 20.7192 12.5565 20.73 12.557 21.0234C12.5575 21.2558 12.684 22.0395 12.8186 22.6428C13.0346 23.6113 13.4724 24.7936 13.6698 24.9413C13.713 24.9736 13.8589 25 13.9941 25C14.2037 25 14.2543 24.9818 14.3372 24.8762C14.47 24.7074 14.4594 24.5045 14.2991 24.1493C13.9422 23.3583 13.7083 22.4007 13.518 20.9512L13.4952 20.7772L13.9766 21.024C14.7084 21.3993 15.8172 21.7808 16.7245 21.9694C17.7636 22.1854 20.5155 22.1461 21.6525 21.899C22.0143 21.8204 22.5558 21.654 22.5558 21.6215C22.5558 21.5763 20.9721 20.0219 20.6986 19.7987C20.5679 19.6921 20.254 19.4664 20.0012 19.2973L19.5414 18.9897L19.6755 18.9388C21.1428 18.3812 22.1782 17.7555 23.195 16.8119C23.8131 16.2383 24.5323 15.309 24.8586 14.6624L25 14.382L24.8353 14.3131C24.5945 14.2125 23.9557 14.0724 23.4712 14.014C22.4505 13.891 20.9775 14.0009 19.9827 14.2743C19.8868 14.3006 19.9038 14.2578 20.1264 13.9104C21.6002 11.6109 22.66 8.71621 23.0011 6.05827C23.0402 5.75341 23.0722 5.45268 23.0722 5.38998V5.27599L22.7438 5.39454C20.3775 6.24853 17.8592 8.06535 16.076 10.205L15.6316 10.7383L15.6013 9.56776C15.5846 8.92399 15.5358 8.0908 15.4927 7.71624C15.2098 5.2549 14.5028 3.09866 13.4862 1.59723C13.2736 1.2834 13.0331 1 12.9793 1C12.9588 1 12.8778 1.07327 12.7992 1.16279ZM13.1345 2.86693C13.756 4.25315 14.2543 6.064 14.4786 7.75039C14.7503 9.79476 14.7059 11.7767 14.3384 14.0098C14.2597 14.4877 14.1852 14.9209 14.1729 14.9726C14.1605 15.0243 14.2516 14.8658 14.3754 14.6204C14.9588 13.4637 15.7164 12.3137 16.6341 11.1918C17.8911 9.65508 19.8589 8.0258 21.8165 6.90109C22.0914 6.74309 22.0911 6.74098 21.898 7.48141C21.5602 8.77689 20.9782 10.3117 20.3459 11.5747C19.5553 13.1538 18.6919 14.3839 17.4609 15.6851L16.8756 16.3037L17.2864 16.1204C18.7541 15.4653 19.9852 15.1227 21.3353 14.9935C21.9071 14.9388 22.8643 14.9611 23.1429 15.0357L23.2723 15.0703L23.0228 15.3737C22.0902 16.5077 20.6915 17.5005 19.1603 18.1156C18.5585 18.3573 17.8879 18.5562 17.0869 18.7307C16.6996 18.815 16.4144 18.8957 16.4531 18.9099C16.4918 18.9241 16.6503 18.9607 16.8052 18.9912C17.7988 19.1868 19.3489 19.9693 20.3827 20.797C20.5788 20.9541 20.6587 21.046 20.6269 21.0779C20.5515 21.1533 17.4827 21.1401 17.1338 21.0629C15.8116 20.77 14.219 20.1158 13.3279 19.4994L12.9793 19.2583L12.6389 19.4914C11.7425 20.1051 10.316 20.709 9.03596 21.0166C8.6176 21.1171 8.49207 21.1238 7.00798 21.1245C5.88809 21.125 5.41039 21.1097 5.3726 21.0718C5.33274 21.032 5.40048 20.9532 5.64018 20.7605C6.60812 19.9823 7.97803 19.277 9.0246 19.0178C9.17285 18.9811 9.35753 18.9357 9.43499 18.9168C9.55183 18.8883 9.47184 18.86 8.96555 18.7507C6.99747 18.3261 5.61248 17.7095 4.26153 16.6565C3.81293 16.3069 3.07108 15.5752 2.85035 15.2647L2.69698 15.049L2.92076 15.0108C3.0438 14.9898 3.51418 14.9752 3.96602 14.9783C5.47048 14.9889 6.73627 15.2886 8.54305 16.0624C8.74961 16.1509 8.95029 16.2366 8.98902 16.253C9.02775 16.2694 8.81246 16.0197 8.51061 15.6981C7.82195 14.9645 7.4386 14.5029 6.96804 13.8408C5.92443 12.3724 5.00287 10.4895 4.37279 8.53816C4.15886 7.8756 3.91907 6.98502 3.91907 6.85299C3.91907 6.7631 4.35532 7.00338 5.21003 7.56402C6.82007 8.62016 8.2973 9.93218 9.4002 11.2857C10.2151 12.2858 10.8982 13.31 11.4207 14.3151C11.6356 14.7284 11.7978 15.0033 11.7813 14.9261C11.6792 14.4489 11.4729 13.0689 11.402 12.3894C11.3009 11.4197 11.2883 9.53282 11.3767 8.60861C11.5524 6.77353 12.0385 4.73569 12.6467 3.28507C12.8919 2.70005 12.9419 2.59687 12.9804 2.59687C12.9985 2.59687 13.0679 2.71842 13.1345 2.86693Z" fill="#59CE7A"/>
<path fill-rule="evenodd" clip-rule="evenodd" d="M12.7992 1.16279C11.9755 2.10137 11.1196 4.11291 10.7301 6.02544C10.4936 7.18641 10.394 8.128 10.3576 9.54428L10.3269 10.7383L9.88278 10.2053C8.72416 8.81512 7.20632 7.51424 5.6429 6.57148C4.58117 5.93127 2.92809 5.19699 2.89396 5.35043C2.86617 5.47541 3.02958 6.63657 3.17403 7.34051C3.42147 8.54638 3.84495 9.90564 4.32847 11.0459C4.73008 11.9929 5.48414 13.4112 5.95067 14.097C6.06624 14.2668 6.07493 14.297 6.00202 14.275C5.95372 14.2604 5.70294 14.2066 5.44475 14.1553C4.07014 13.8825 2.58277 13.9012 1.47799 14.2052C0.929026 14.3563 0.939541 14.3448 1.08479 14.6337C1.42349 15.3077 2.12333 16.2145 2.77998 16.8303C3.73698 17.7277 4.83584 18.3888 6.28754 18.9405L6.42616 18.9932L6.12788 19.1819C5.54094 19.5532 5.05676 19.9588 4.23595 20.7669C3.77768 21.2181 3.40269 21.6018 3.40269 21.6195C3.40269 21.6602 3.98109 21.8328 4.41199 21.9206C4.95916 22.0321 5.89537 22.0917 7.20515 22.0987C8.20506 22.1039 8.54592 22.0888 8.94208 22.0216C9.97564 21.8463 11.5269 21.3158 12.2279 20.8981C12.5281 20.7192 12.5565 20.73 12.557 21.0234C12.5575 21.2558 12.684 22.0395 12.8186 22.6428C13.0346 23.6113 13.4724 24.7936 13.6698 24.9413C13.713 24.9736 13.8589 25 13.9941 25C14.2037 25 14.2543 24.9818 14.3372 24.8762C14.47 24.7074 14.4594 24.5045 14.2991 24.1493C13.9422 23.3583 13.7083 22.4007 13.518 20.9512L13.4952 20.7772L13.9766 21.024C14.7084 21.3993 15.8172 21.7808 16.7245 21.9694C17.7636 22.1854 20.5155 22.1461 21.6525 21.899C22.0143 21.8204 22.5558 21.654 22.5558 21.6215C22.5558 21.5763 20.9721 20.0219 20.6986 19.7987C20.5679 19.6921 20.254 19.4664 20.0012 19.2973L19.5414 18.9897L19.6755 18.9388C21.1428 18.3812 22.1782 17.7555 23.195 16.8119C23.8131 16.2383 24.5323 15.309 24.8586 14.6624L25 14.382L24.8353 14.3131C24.5945 14.2125 23.9557 14.0724 23.4712 14.014C22.4505 13.891 20.9775 14.0009 19.9827 14.2743C19.8868 14.3006 19.9038 14.2578 20.1264 13.9104C21.6002 11.6109 22.66 8.71621 23.0011 6.05827C23.0402 5.75341 23.0722 5.45268 23.0722 5.38998V5.27599L22.7438 5.39454C20.3775 6.24853 17.8592 8.06535 16.076 10.205L15.6316 10.7383L15.6013 9.56776C15.5846 8.92399 15.5358 8.0908 15.4927 7.71624C15.2098 5.2549 14.5028 3.09866 13.4862 1.59723C13.2736 1.2834 13.0331 1 12.9793 1C12.9588 1 12.8778 1.07327 12.7992 1.16279ZM13.1345 2.86693C13.756 4.25315 14.2543 6.064 14.4786 7.75039C14.7503 9.79476 14.7059 11.7767 14.3384 14.0098C14.2597 14.4877 14.1852 14.9209 14.1729 14.9726C14.1605 15.0243 14.2516 14.8658 14.3754 14.6204C14.9588 13.4637 15.7164 12.3137 16.6341 11.1918C17.8911 9.65508 19.8589 8.0258 21.8165 6.90109C22.0914 6.74309 22.0911 6.74098 21.898 7.48141C21.5602 8.77689 20.9782 10.3117 20.3459 11.5747C19.5553 13.1538 18.6919 14.3839 17.4609 15.6851L16.8756 16.3037L17.2864 16.1204C18.7541 15.4653 19.9852 15.1227 21.3353 14.9935C21.9071 14.9388 22.8643 14.9611 23.1429 15.0357L23.2723 15.0703L23.0228 15.3737C22.0902 16.5077 20.6915 17.5005 19.1603 18.1156C18.5585 18.3573 17.8879 18.5562 17.0869 18.7307C16.6996 18.815 16.4144 18.8957 16.4531 18.9099C16.4918 18.9241 16.6503 18.9607 16.8052 18.9912C17.7988 19.1868 19.3489 19.9693 20.3827 20.797C20.5788 20.9541 20.6587 21.046 20.6269 21.0779C20.5515 21.1533 17.4827 21.1401 17.1338 21.0629C15.8116 20.77 14.219 20.1158 13.3279 19.4994L12.9793 19.2583L12.6389 19.4914C11.7425 20.1051 10.316 20.709 9.03596 21.0166C8.6176 21.1171 8.49207 21.1238 7.00798 21.1245C5.88809 21.125 5.41039 21.1097 5.3726 21.0718C5.33274 21.032 5.40048 20.9532 5.64018 20.7605C6.60812 19.9823 7.97803 19.277 9.0246 19.0178C9.17285 18.9811 9.35753 18.9357 9.43499 18.9168C9.55183 18.8883 9.47184 18.86 8.96555 18.7507C6.99747 18.3261 5.61248 17.7095 4.26153 16.6565C3.81293 16.3069 3.07108 15.5752 2.85035 15.2647L2.69698 15.049L2.92076 15.0108C3.0438 14.9898 3.51418 14.9752 3.96602 14.9783C5.47048 14.9889 6.73627 15.2886 8.54305 16.0624C8.74961 16.1509 8.95029 16.2366 8.98902 16.253C9.02775 16.2694 8.81246 16.0197 8.51061 15.6981C7.82195 14.9645 7.4386 14.5029 6.96804 13.8408C5.92443 12.3724 5.00287 10.4895 4.37279 8.53816C4.15886 7.8756 3.91907 6.98502 3.91907 6.85299C3.91907 6.7631 4.35532 7.00338 5.21003 7.56402C6.82007 8.62016 8.2973 9.93218 9.4002 11.2857C10.2151 12.2858 10.8982 13.31 11.4207 14.3151C11.6356 14.7284 11.7978 15.0033 11.7813 14.9261C11.6792 14.4489 11.4729 13.0689 11.402 12.3894C11.3009 11.4197 11.2883 9.53282 11.3767 8.60861C11.5524 6.77353 12.0385 4.73569 12.6467 3.28507C12.8919 2.70005 12.9419 2.59687 12.9804 2.59687C12.9985 2.59687 13.0679 2.71842 13.1345 2.86693Z" stroke="#7FC981" mask="url(#path-1-outside-1_9_4)"/>
</svg>
