<svg width="26" height="26" viewBox="0 0 26 26" fill="none" xmlns="http://www.w3.org/2000/svg">
<mask id="path-1-outside-1_9_10" maskUnits="userSpaceOnUse" x="0" y="0" width="26" height="26" fill="black">
<rect fill="white" width="26" height="26"/>
<path fill-rule="evenodd" clip-rule="evenodd" d="M18.4988 15.382C18.1994 15.233 16.7313 14.515 16.458 14.415C16.1847 14.316 15.9858 14.267 15.7858 14.565C15.5869 14.861 15.0151 15.531 14.8413 15.729C14.6665 15.928 14.4926 15.952 14.1942 15.804C13.8958 15.654 12.9332 15.341 11.7927 14.329C10.9054 13.541 10.3056 12.568 10.1317 12.27C9.9579 11.973 10.1126 11.812 10.2624 11.664C10.397 11.531 10.5608 11.317 10.7105 11.144C10.8602 10.97 10.9095 10.846 11.0089 10.647C11.1094 10.449 11.0592 10.276 10.9838 10.127C10.9095 9.97803 10.3126 8.51503 10.0634 7.92003C9.82125 7.34103 9.57507 7.42003 9.39219 7.41003C9.21736 7.40203 9.0184 7.40003 8.81945 7.40003C8.6205 7.40003 8.29695 7.47403 8.02364 7.77203C7.74932 8.06903 6.97863 8.78803 6.97863 10.251C6.97863 11.713 8.04775 13.126 8.19747 13.325C8.34719 13.523 10.3026 16.525 13.2979 17.812C14.0113 18.118 14.567 18.301 15.0001 18.437C15.7155 18.664 16.3666 18.632 16.8811 18.555C17.4538 18.47 18.6475 17.836 18.8967 17.142C19.1449 16.448 19.1449 15.853 19.0705 15.729C18.9962 15.605 18.7972 15.531 18.4978 15.382H18.4988ZM13.0507 22.785H13.0467C11.2676 22.7853 9.52118 22.3094 7.99048 21.407L7.62875 21.193L3.86874 22.175L4.87255 18.527L4.63642 18.153C3.64179 16.5774 3.11543 14.7538 3.11814 12.893C3.12015 7.44303 7.57549 3.00904 13.0547 3.00904C15.7074 3.00904 18.2014 4.03904 20.0764 5.90703C21.0012 6.82361 21.7342 7.9136 22.233 9.11392C22.7318 10.3143 22.9864 11.6011 22.9823 12.9C22.9803 18.35 18.5249 22.785 13.0507 22.785V22.785ZM21.5032 4.48804C20.3961 3.37896 19.0788 2.49958 17.6277 1.90084C16.1766 1.3021 14.6206 0.995924 13.0497 1.00004C6.46417 1.00004 1.10249 6.33503 1.10048 12.892C1.09948 14.988 1.64911 17.034 2.69512 18.837L1 25L7.33434 23.346C9.0866 24.2961 11.0502 24.794 13.0457 24.794H13.0507C19.6363 24.794 24.9979 19.459 24.9999 12.901C25.0048 11.3383 24.6983 9.79013 24.0981 8.34606C23.4978 6.902 22.6159 5.5907 21.5032 4.48804"/>
</mask>
<path fill-rule="evenodd" clip-rule="evenodd" d="M18.4988 15.382C18.1994 15.233 16.7313 14.515 16.458 14.415C16.1847 14.316 15.9858 14.267 15.7858 14.565C15.5869 14.861 15.0151 15.531 14.8413 15.729C14.6665 15.928 14.4926 15.952 14.1942 15.804C13.8958 15.654 12.9332 15.341 11.7927 14.329C10.9054 13.541 10.3056 12.568 10.1317 12.27C9.9579 11.973 10.1126 11.812 10.2624 11.664C10.397 11.531 10.5608 11.317 10.7105 11.144C10.8602 10.97 10.9095 10.846 11.0089 10.647C11.1094 10.449 11.0592 10.276 10.9838 10.127C10.9095 9.97803 10.3126 8.51503 10.0634 7.92003C9.82125 7.34103 9.57507 7.42003 9.39219 7.41003C9.21736 7.40203 9.0184 7.40003 8.81945 7.40003C8.6205 7.40003 8.29695 7.47403 8.02364 7.77203C7.74932 8.06903 6.97863 8.78803 6.97863 10.251C6.97863 11.713 8.04775 13.126 8.19747 13.325C8.34719 13.523 10.3026 16.525 13.2979 17.812C14.0113 18.118 14.567 18.301 15.0001 18.437C15.7155 18.664 16.3666 18.632 16.8811 18.555C17.4538 18.47 18.6475 17.836 18.8967 17.142C19.1449 16.448 19.1449 15.853 19.0705 15.729C18.9962 15.605 18.7972 15.531 18.4978 15.382H18.4988ZM13.0507 22.785H13.0467C11.2676 22.7853 9.52118 22.3094 7.99048 21.407L7.62875 21.193L3.86874 22.175L4.87255 18.527L4.63642 18.153C3.64179 16.5774 3.11543 14.7538 3.11814 12.893C3.12015 7.44303 7.57549 3.00904 13.0547 3.00904C15.7074 3.00904 18.2014 4.03904 20.0764 5.90703C21.0012 6.82361 21.7342 7.9136 22.233 9.11392C22.7318 10.3143 22.9864 11.6011 22.9823 12.9C22.9803 18.35 18.5249 22.785 13.0507 22.785V22.785ZM21.5032 4.48804C20.3961 3.37896 19.0788 2.49958 17.6277 1.90084C16.1766 1.3021 14.6206 0.995924 13.0497 1.00004C6.46417 1.00004 1.10249 6.33503 1.10048 12.892C1.09948 14.988 1.64911 17.034 2.69512 18.837L1 25L7.33434 23.346C9.0866 24.2961 11.0502 24.794 13.0457 24.794H13.0507C19.6363 24.794 24.9979 19.459 24.9999 12.901C25.0048 11.3383 24.6983 9.79013 24.0981 8.34606C23.4978 6.902 22.6159 5.5907 21.5032 4.48804" fill="#4ECB71"/>
<path d="M18.4988 15.382V15.782L18.677 15.0239L18.4988 15.382ZM16.458 14.415L16.5955 14.0394L16.5943 14.0389L16.458 14.415ZM15.7858 14.565L16.1178 14.7882L16.118 14.7879L15.7858 14.565ZM14.8413 15.729L15.1418 15.993L15.1419 15.9929L14.8413 15.729ZM14.1942 15.804L14.0146 16.1614L14.0165 16.1624L14.1942 15.804ZM11.7927 14.329L11.5271 14.6281L11.5272 14.6282L11.7927 14.329ZM10.1317 12.27L10.4772 12.0685L10.477 12.068L10.1317 12.27ZM10.2624 11.664L9.98126 11.3794L9.98115 11.3796L10.2624 11.664ZM10.7105 11.144L11.013 11.4058L11.0137 11.4049L10.7105 11.144ZM11.0089 10.647L10.6522 10.466L10.6511 10.4682L11.0089 10.647ZM10.9838 10.127L10.6259 10.3056L10.6269 10.3076L10.9838 10.127ZM10.0634 7.92003L9.69438 8.07437L9.69446 8.07455L10.0634 7.92003ZM9.39219 7.41003L9.41403 7.01061L9.41048 7.01045L9.39219 7.41003ZM8.02364 7.77203L8.31748 8.04343L8.31843 8.0424L8.02364 7.77203ZM8.19747 13.325L7.87783 13.5655L7.87842 13.5663L8.19747 13.325ZM13.2979 17.812L13.14 18.1795L13.1402 18.1796L13.2979 17.812ZM15.0001 18.437L15.121 18.0557L15.1199 18.0554L15.0001 18.437ZM16.8811 18.555L16.8223 18.1593L16.8219 18.1594L16.8811 18.555ZM18.8967 17.142L19.2732 17.2772L19.2734 17.2767L18.8967 17.142ZM18.4978 15.382V14.982L18.3196 15.7401L18.4978 15.382ZM13.0467 22.785L13.0467 22.385L13.0466 22.385L13.0467 22.785ZM7.99048 21.407L7.78681 21.7513L7.78735 21.7516L7.99048 21.407ZM7.62875 21.193L7.83241 20.8487L7.68895 20.7639L7.52767 20.806L7.62875 21.193ZM3.86874 22.175L3.48307 22.0689L3.29918 22.7372L3.96982 22.562L3.86874 22.175ZM4.87255 18.527L5.25821 18.6331L5.30508 18.4628L5.21077 18.3135L4.87255 18.527ZM4.63642 18.153L4.29817 18.3665L4.29819 18.3666L4.63642 18.153ZM3.11814 12.893L3.51814 12.8936L3.51814 12.8932L3.11814 12.893ZM20.0764 5.90703L19.794 6.1904L19.7948 6.19114L20.0764 5.90703ZM22.9823 12.9L22.5823 12.8987L22.5823 12.8999L22.9823 12.9ZM13.0497 1.00004L13.0497 1.40004L13.0508 1.40004L13.0497 1.00004ZM1.10048 12.892L1.50048 12.8922L1.50048 12.8921L1.10048 12.892ZM2.69512 18.837L3.0808 18.9431L3.12528 18.7814L3.04111 18.6363L2.69512 18.837ZM1 25L0.614323 24.8939L0.430539 25.5621L1.10106 25.387L1 25ZM7.33434 23.346L7.525 22.9944L7.38613 22.9191L7.23328 22.959L7.33434 23.346ZM13.0457 24.794L13.0457 25.194H13.0457V24.794ZM24.9999 12.901L24.5999 12.8998L24.5999 12.9009L24.9999 12.901ZM18.677 15.0239C18.5254 14.9484 18.0818 14.7309 17.6418 14.5196C17.214 14.3141 16.7554 14.0979 16.5955 14.0394L16.3206 14.7907C16.434 14.8321 16.846 15.0249 17.2955 15.2407C17.7327 15.4507 18.1728 15.6666 18.3206 15.7401L18.677 15.0239ZM16.5943 14.0389C16.4692 13.9936 16.2647 13.9187 16.0484 13.9438C15.7886 13.9739 15.5966 14.1291 15.4537 14.3421L16.118 14.7879C16.1489 14.7418 16.1663 14.7295 16.1663 14.7295C16.1625 14.7322 16.1515 14.7372 16.1405 14.7385C16.1345 14.7392 16.1426 14.7369 16.1761 14.7446C16.2109 14.7526 16.2551 14.767 16.3218 14.7911L16.5943 14.0389ZM15.4538 14.3419C15.272 14.6124 14.7187 15.2623 14.5407 15.4651L15.1419 15.9929C15.3115 15.7997 15.9017 15.1096 16.1178 14.7882L15.4538 14.3419ZM14.5408 15.465C14.5153 15.494 14.5015 15.5031 14.4993 15.5045C14.4986 15.5049 14.5004 15.5037 14.5044 15.5023C14.5085 15.5009 14.5127 15.4999 14.5162 15.4995C14.5236 15.4986 14.5187 15.501 14.4948 15.495C14.4696 15.4886 14.4302 15.4746 14.3719 15.4457L14.0165 16.1624C14.1916 16.2492 14.3946 16.32 14.612 16.2938C14.846 16.2655 15.016 16.1362 15.1418 15.993L14.5408 15.465ZM14.3738 15.4466C14.0339 15.2757 13.1473 14.9963 12.0582 14.0298L11.5272 14.6282C12.719 15.6858 13.7577 16.0323 14.0146 16.1614L14.3738 15.4466ZM12.0583 14.0299C11.2185 13.284 10.644 12.3543 10.4772 12.0685L9.78622 12.4716C9.96718 12.7818 10.5924 13.798 11.5271 14.6281L12.0583 14.0299ZM10.477 12.068C10.4543 12.0292 10.4538 12.0145 10.4545 12.0199C10.4556 12.0284 10.4542 12.041 10.4506 12.0506C10.4484 12.0565 10.4491 12.0509 10.4652 12.0312C10.4823 12.01 10.5052 11.9864 10.5436 11.9485L9.98115 11.3796C9.91651 11.4435 9.77223 11.5798 9.70082 11.7717C9.6152 12.0018 9.65172 12.2418 9.78652 12.4721L10.477 12.068ZM10.5435 11.9486C10.6913 11.8026 10.8913 11.5464 11.013 11.4058L10.408 10.8823C10.2303 11.0876 10.1027 11.2595 9.98126 11.3794L10.5435 11.9486ZM11.0137 11.4049C11.2035 11.1844 11.2766 11.0062 11.3667 10.8259L10.6511 10.4682C10.5423 10.6859 10.517 10.7557 10.4073 10.8831L11.0137 11.4049ZM11.3656 10.828C11.55 10.4647 11.4411 10.1449 11.3408 9.94649L10.6269 10.3076C10.6538 10.3609 10.6626 10.3925 10.6647 10.4119C10.6656 10.4204 10.6653 10.427 10.6642 10.4332C10.6631 10.4394 10.6603 10.4501 10.6522 10.466L11.3656 10.828ZM11.3417 9.94842C11.3418 9.94852 11.3407 9.94639 11.3382 9.94103C11.3359 9.93598 11.3329 9.92934 11.3291 9.92093C11.3216 9.90407 11.312 9.88217 11.3004 9.8553C11.2772 9.80165 11.2474 9.73134 11.2125 9.64811C11.1426 9.48181 11.0536 9.26725 10.9588 9.03795C10.7698 8.58072 10.5574 8.06412 10.4324 7.76551L9.69446 8.07455C9.81859 8.37094 10.0292 8.88334 10.2195 9.3436C10.4041 9.79016 10.5804 10.2144 10.6259 10.3056L11.3417 9.94842ZM10.4324 7.76569C10.2935 7.43361 10.1187 7.20379 9.87566 7.08962C9.75721 7.03397 9.6472 7.01805 9.56331 7.01318C9.52337 7.01087 9.48657 7.011 9.46244 7.01107C9.43413 7.01115 9.42297 7.01112 9.41403 7.01063L9.37035 7.80943C9.40713 7.81144 9.44367 7.81113 9.46478 7.81107C9.49006 7.81099 9.50438 7.81111 9.51703 7.81184C9.53829 7.81308 9.53925 7.81546 9.53548 7.81369C9.52181 7.80727 9.59111 7.82745 9.69438 8.07437L10.4324 7.76569ZM9.41048 7.01045C9.22627 7.00202 9.01997 7.00003 8.81945 7.00003V7.80003C9.01683 7.80003 9.20844 7.80204 9.37391 7.80961L9.41048 7.01045ZM8.81945 7.00003C8.52969 7.00003 8.0912 7.10658 7.72885 7.50166L8.31843 8.0424C8.5027 7.84148 8.7113 7.80003 8.81945 7.80003V7.00003ZM7.7298 7.50063C7.45302 7.8003 6.57863 8.62058 6.57863 10.251H7.37863C7.37863 8.95548 8.04563 8.33776 8.31748 8.04343L7.7298 7.50063ZM6.57863 10.251C6.57863 11.0724 6.87653 11.8569 7.17556 12.4434C7.47749 13.0355 7.79879 13.4604 7.87783 13.5655L8.51711 13.0845C8.44643 12.9906 8.15831 12.6096 7.88826 12.0799C7.6153 11.5446 7.37863 10.8916 7.37863 10.251H6.57863ZM7.87842 13.5663C7.87835 13.5662 7.8786 13.5665 7.87923 13.5674C7.87984 13.5682 7.88069 13.5694 7.88179 13.5709C7.88403 13.574 7.88692 13.578 7.8906 13.5832C7.89804 13.5937 7.90733 13.6069 7.91907 13.6236C7.94222 13.6566 7.9731 13.7007 8.01079 13.7537C8.08635 13.8599 8.18939 14.0022 8.31828 14.1712C8.57587 14.509 8.9369 14.9541 9.38944 15.4344C10.2909 16.3912 11.5724 17.506 13.14 18.1795L13.4558 17.4445C10.5786 16.2083 8.68853 13.3112 8.51653 13.0838L7.87842 13.5663ZM13.1402 18.1796C13.8708 18.493 14.4406 18.6806 14.8802 18.8186L15.1199 18.0554C14.6934 17.9215 14.1518 17.743 13.4556 17.4444L13.1402 18.1796ZM14.8791 18.8183C15.674 19.0705 16.3924 19.0326 16.9403 18.9506L16.8219 18.1594C16.3408 18.2314 15.7569 18.2575 15.121 18.0557L14.8791 18.8183ZM16.9398 18.9507C17.301 18.8971 17.7963 18.6878 18.2253 18.4141C18.6445 18.1468 19.1019 17.7541 19.2732 17.2772L18.5202 17.0068C18.4423 17.2239 18.1783 17.4953 17.7951 17.7396C17.4218 17.9778 17.0339 18.1279 16.8223 18.1593L16.9398 18.9507ZM19.2734 17.2767C19.4092 16.8969 19.4784 16.5409 19.5031 16.2563C19.5154 16.1144 19.5171 15.9841 19.5084 15.8733C19.5015 15.7845 19.4841 15.6409 19.4136 15.5233L18.7275 15.9347C18.6941 15.8791 18.7047 15.8564 18.7109 15.9357C18.7154 15.9931 18.7155 16.0782 18.7061 16.1873C18.6873 16.4046 18.6324 16.6931 18.5201 17.0073L19.2734 17.2767ZM19.4136 15.5233C19.3173 15.3627 19.1643 15.2706 19.0601 15.2137C18.9569 15.1574 18.8024 15.0868 18.676 15.0239L18.3196 15.7401C18.4926 15.8262 18.5873 15.8671 18.677 15.916C18.7658 15.9645 18.7494 15.9713 18.7275 15.9347L19.4136 15.5233ZM18.4978 15.782H18.4988V14.982H18.4978V15.782ZM13.0507 22.385H13.0467V23.185H13.0507V22.385ZM13.0466 22.385C11.3389 22.3853 9.66267 21.9284 8.19361 21.0624L7.78735 21.7516C9.3797 22.6903 11.1963 23.1853 13.0468 23.185L13.0466 22.385ZM8.19415 21.0627L7.83241 20.8487L7.42508 21.5373L7.78681 21.7513L8.19415 21.0627ZM7.52767 20.806L3.76766 21.788L3.96982 22.562L7.72982 21.58L7.52767 20.806ZM4.2544 22.2811L5.25821 18.6331L4.48688 18.4209L3.48307 22.0689L4.2544 22.2811ZM5.21077 18.3135L4.97464 17.9395L4.29819 18.3666L4.53432 18.7406L5.21077 18.3135ZM4.97466 17.9395C4.02043 16.4278 3.51554 14.6785 3.51814 12.8936L2.71814 12.8924C2.71532 14.8291 3.26315 16.7269 4.29817 18.3665L4.97466 17.9395ZM3.51814 12.8932C3.52007 7.66584 7.79454 3.40904 13.0547 3.40904V2.60904C7.35644 2.60904 2.72024 7.22023 2.71814 12.8929L3.51814 12.8932ZM13.0547 3.40904C15.6018 3.40904 17.9942 4.39721 19.794 6.1904L20.3587 5.62366C18.4086 3.68086 15.8131 2.60904 13.0547 2.60904V3.40904ZM19.7948 6.19114C20.682 7.07049 21.3852 8.1161 21.8636 9.26742L22.6023 8.96043C22.0832 7.71109 21.3203 6.57673 20.3579 5.62293L19.7948 6.19114ZM21.8636 9.26742C22.342 10.4187 22.5863 11.653 22.5823 12.8987L23.3823 12.9013C23.3866 11.5492 23.1215 10.2098 22.6023 8.96043L21.8636 9.26742ZM22.5823 12.8999C22.5804 18.1274 18.3057 22.385 13.0507 22.385V23.185C18.7442 23.185 23.3802 18.5726 23.3823 12.9002L22.5823 12.8999ZM21.7863 4.20544C20.6418 3.05891 19.2801 2.14993 17.7803 1.53108L17.4752 2.2706C18.8775 2.84922 20.1504 3.69901 21.2201 4.77063L21.7863 4.20544ZM17.7803 1.53108C16.2804 0.912229 14.6722 0.595787 13.0487 0.600042L13.0508 1.40004C14.569 1.39606 16.0728 1.69198 17.4752 2.2706L17.7803 1.53108ZM13.0497 0.600041C6.24502 0.600041 0.702559 6.11233 0.700481 12.8919L1.50048 12.8921C1.50242 6.55774 6.68332 1.40004 13.0497 1.40004V0.600041ZM0.700481 12.8918C0.699443 15.0581 1.26758 17.1735 2.34913 19.0377L3.04111 18.6363C2.03063 16.8945 1.49951 14.9179 1.50048 12.8922L0.700481 12.8918ZM2.30944 18.7309L0.614323 24.8939L1.38568 25.1061L3.0808 18.9431L2.30944 18.7309ZM1.10106 25.387L7.4354 23.733L7.23328 22.959L0.898942 24.613L1.10106 25.387ZM7.14367 23.6976C8.95454 24.6795 10.9837 25.194 13.0457 25.194L13.0457 24.394C11.1167 24.394 9.21866 23.9127 7.525 22.9944L7.14367 23.6976ZM13.0457 25.194H13.0507V24.394H13.0457V25.194ZM13.0507 25.194C19.8554 25.194 25.3979 19.6817 25.3999 12.9011L24.5999 12.9009C24.598 19.2363 19.4171 24.394 13.0507 24.394V25.194ZM25.3999 12.9023C25.405 11.2864 25.088 9.68561 24.4674 8.19254L23.7287 8.49958C24.3085 9.89464 24.6046 11.3902 24.5999 12.8998L25.3999 12.9023ZM24.4674 8.19254C23.8468 6.69947 22.935 5.34381 21.7848 4.20392L21.2216 4.77215C22.2968 5.8376 23.1488 7.10452 23.7287 8.49958L24.4674 8.19254Z" fill="#4ECB71" mask="url(#path-1-outside-1_9_10)"/>
</svg>
