<svg width="337" height="184" viewBox="0 0 337 184" fill="none" xmlns="http://www.w3.org/2000/svg">
<rect width="337" height="184" fill="#4BC06C"/>
<g clip-path="url(#clip0_49_3406)">
<path d="M240 91.5205C239.819 131.075 208.033 163.035 168.462 163.006C128.874 162.971 96.9651 131.145 97 91.4272C97.035 51.8206 128.933 19.9534 168.614 20.0001C208.056 20.0467 239.831 51.9371 240 91.5205ZM169.645 160.162C206.885 159.562 237.268 129.058 237.169 91.0601C237.064 53.6097 206.215 22.8441 168.544 22.8383C130.669 22.8324 99.9305 53.5398 99.8198 91.2757C99.7091 129.186 130.692 160.762 169.645 160.162Z" fill="#4ECB71"/>
<path d="M169.646 160.162C130.693 160.762 99.7099 129.187 99.8206 91.2758C99.9313 53.5399 130.669 22.8326 168.545 22.8384C206.216 22.8442 237.065 53.6099 237.164 91.066C237.268 129.058 206.886 159.568 169.646 160.162ZM132.295 41.8549C133.332 42.1114 134.398 42.292 135.4 42.6417C136.338 42.9739 137.031 42.8049 137.655 41.9948C136.798 41.75 135.971 41.5169 135.109 41.2721C135.202 41.1031 135.243 40.9982 135.307 40.9166C136.134 39.9434 135.534 39.1916 134.893 38.498C134.264 37.822 133.565 38.0609 132.907 38.5213C131.998 39.1566 131.101 39.8035 130.174 40.4038C129.731 40.6893 129.679 40.9283 129.999 41.3654C130.873 42.5543 131.712 43.7723 132.534 44.9962C132.808 45.3983 133.012 45.3867 133.396 45.1186C133.827 44.8213 133.775 44.6057 133.513 44.2386C132.994 43.5217 132.516 42.7757 132.027 42.0472C132.108 41.9831 132.202 41.919 132.295 41.8549ZM164.361 118.894L164.391 118.929C164.711 119.244 164.274 119.623 164.513 120.025C165.2 119.162 165.87 118.329 166.54 117.49C164.041 118.632 161.419 119.495 159.374 121.383C158.891 121.826 157.755 121.954 158.401 123.079C158.436 123.137 158.355 123.335 158.279 123.37C156.828 124.052 156.17 125.369 155.541 126.721C155.459 126.896 155.197 126.984 155.016 127.118C154.842 127.252 154.585 127.415 154.824 127.63C155.395 128.155 154.9 128.435 154.632 128.802C153.875 129.833 153.123 130.865 153.065 132.223C152.907 132.165 152.89 132.235 152.942 132.363C152.977 132.31 153.012 132.258 153.047 132.205C153.175 132.089 153.327 131.984 153.426 131.85C154.009 131.092 154.428 130.02 155.197 129.624C156.537 128.936 157.324 127.934 157.924 126.663C157.994 126.511 158.145 126.383 158.262 126.459C159.223 127.071 159.281 126.115 159.567 125.678C159.951 125.095 160.237 124.448 160.575 123.836C160.674 123.656 160.796 123.289 160.965 123.399C161.716 123.901 161.775 123.125 161.961 122.84C162.8 121.546 163.569 120.211 164.361 118.894ZM171.481 118.877C172.366 120.223 172.972 121.733 173.957 123.015C174.114 123.219 174.382 123.603 174.435 123.574C175.373 123.102 175.291 124.017 175.542 124.396C175.909 124.944 176.182 125.55 176.503 126.127C176.666 126.424 176.911 126.826 177.237 126.616C177.936 126.173 177.924 126.785 178.134 127.1C178.612 127.823 178.845 128.825 179.748 129.093C180.418 129.291 180.808 129.635 181.17 130.171C181.618 130.842 182.148 131.454 182.638 132.095C182.725 132.17 182.754 132.398 182.9 132.287C183.011 132.205 182.923 132.042 182.795 131.955C182.585 130.667 181.81 129.676 181.076 128.668C180.931 128.47 180.669 128.097 180.698 128.062C181.641 127.193 180.54 127.059 180.214 126.64C180.033 126.412 179.824 126.15 179.789 125.882C179.655 124.851 179.061 124.256 178.146 123.854C177.721 123.667 177.144 123.248 177.493 122.776C177.878 122.251 177.534 122.176 177.289 121.954C176.316 121.103 175.332 120.322 174.458 119.297C173.194 117.822 171.283 116.895 169.646 115.741C170.077 117.233 170.45 118.673 171.358 120.153C171.358 119.594 171.358 119.285 171.358 118.976C171.399 118.958 171.44 118.918 171.481 118.877ZM122.67 119.786C122.647 119.763 122.63 119.739 122.606 119.728C122.6 119.722 122.577 119.739 122.56 119.751C122.6 119.757 122.641 119.763 122.688 119.769C122.455 120.112 122.769 120.316 122.915 120.538C125.059 123.924 127.523 127.065 130.407 129.833C142.91 141.851 157.819 147.166 175.041 145.068C192.361 142.958 205.546 134.082 214.809 119.337C214.931 119.145 215.182 118.964 214.978 118.591C214.46 118.743 213.947 118.976 213.411 119.028C211.692 119.203 210.69 120.223 209.7 121.581C197.465 138.389 176.439 146.07 156.257 141.07C144.419 138.132 134.864 131.675 127.506 121.948C127.104 121.412 126.842 120.724 126.009 120.579C124.878 120.381 123.777 120.06 122.67 119.786ZM109.853 90.6755C109.777 90.6406 109.702 90.6056 109.626 90.5706C109.643 90.658 109.655 90.7455 109.672 90.8387C112.073 95.6817 115.545 99.2251 121.097 100.262C120.387 100.297 119.682 100.332 118.685 100.379C119.845 101.23 120.975 101.632 121.569 102.681C122.35 104.062 123.602 104.779 125.088 105.152C125.863 105.344 126.644 105.531 127.558 105.752C126.719 106.306 127.185 106.621 127.669 106.877C128.968 107.582 130.326 108.154 131.747 108.585C131.992 108.661 132.505 108.626 132.429 108.993C132.19 110.129 133.111 110.193 133.722 110.391C134.876 110.764 136.21 110.747 137.235 111.312C138.948 112.256 140.58 113.224 142.601 113.288C142.974 113.3 143.562 113.661 143.423 114.016C142.922 115.334 143.953 114.867 144.419 114.896C145.147 114.937 145.945 114.646 146.58 115.106C147.314 115.637 148.008 115.59 148.765 115.275C149.662 114.896 150.525 114.745 151.317 115.549C151.62 115.858 152.086 115.747 152.488 115.771C155.191 115.934 157.865 115.607 160.545 115.304C162.491 115.083 164.449 114.955 166.61 114.768C166.29 114.605 166.173 114.523 166.045 114.477C160.394 112.466 155.011 109.884 149.901 106.749C147.367 105.193 145.007 103.316 141.995 102.652C141.034 102.436 140.09 102.32 139.129 102.203C138.22 102.092 137.346 101.247 136.361 100.909C136.175 100.845 135.872 100.635 135.814 100.962C135.662 101.813 135.237 101.259 134.963 101.142C133.571 100.548 132.196 99.9186 130.815 99.3067C130.477 99.161 130.133 98.957 129.842 99.3883C129.51 99.8778 129.207 99.6564 128.846 99.3825C126.632 97.6865 124.144 96.6317 121.383 96.2354C121.051 96.1888 120.754 96.0897 120.503 95.8332C119.938 95.2679 119.221 94.9358 118.458 94.7842C115.236 94.1373 112.399 92.7153 109.853 90.6755ZM170.56 112.897L170.543 112.88C170.432 113.457 169.587 113.69 169.785 114.436C175.338 113.247 191.167 105.041 192.915 102.407C192.641 102.495 192.443 102.599 192.233 102.623C191.895 102.658 191.418 103.217 191.237 102.553C191.097 102.04 191.703 102.104 192.006 101.993C192.938 101.65 193.888 101.352 194.82 101.02C195.228 100.874 195.577 100.577 195.414 100.111C195.234 99.5981 194.82 99.8662 194.482 99.9769C194.237 100.059 193.987 100.117 193.742 100.187C193.69 100.123 193.637 100.058 193.585 99.9944C196.008 98.3975 197.733 96.1538 199.353 93.8051C201.887 90.1277 204.619 86.5843 206.489 82.4873C206.792 81.8287 207.002 81.1527 206.682 80.465C206.239 79.515 206.513 78.7283 207.171 78.0347C208.22 76.9274 208.616 75.587 208.744 74.1125C208.901 72.3059 209.1 70.5109 210.09 68.914C210.381 68.4478 210.527 67.8883 210.072 67.4862C209.059 66.6003 209.257 65.6329 209.694 64.5722C209.973 63.8903 210.195 63.1852 210.393 62.4742C211.051 60.1546 211.278 58.1265 211.01 56.9493C210.906 57.1533 210.824 57.3106 210.748 57.468C209.181 60.685 207.119 63.5873 204.619 66.105C203.308 67.4221 201.823 68.5061 201.38 70.4293C201.31 70.7323 201.141 70.7673 200.908 70.6041C199.976 69.9514 199.283 70.6158 198.805 71.1927C196.107 74.4214 193.101 77.3995 190.899 81.0186C190.678 81.38 190.415 81.6247 190.025 81.8112C187.73 82.8894 186.232 84.5737 186.028 87.2137C185.999 87.5926 185.889 87.9655 185.778 88.5542C185.667 88.1287 185.638 87.9073 185.557 87.7091C185.382 87.2778 185.621 86.5901 185.079 86.4386C184.479 86.2754 183.984 86.7242 183.547 87.1496C182.416 88.2511 181.56 89.5449 181.07 91.0369C180.861 91.6721 180.54 92.0684 180.016 92.3365C179.684 91.9635 180.348 91.6255 179.911 91.2525C179.241 91.6255 179.142 92.319 179.113 92.9543C179.072 93.9275 178.676 94.7026 178.152 95.4836C175.705 99.1086 173.706 102.972 172.063 107.017C171.329 108.83 170.671 110.671 170.17 112.559C170.123 112.74 169.925 112.991 170.234 113.113C170.292 113.136 170.444 112.973 170.56 112.897ZM144.862 100.251C144.471 100.367 144.151 100.105 143.801 100.035C143.44 99.9653 143.021 99.534 142.712 100.041C142.432 100.507 142.892 100.77 143.149 101.055C143.294 101.218 143.487 101.341 143.656 101.481C149.482 106.184 156.013 109.663 162.899 112.513C164.723 113.27 166.552 114.016 168.451 114.518C168.644 114.22 168.504 114.016 168.451 113.812C166.744 107 163.715 100.787 159.811 94.9824C159.363 94.3122 159.048 93.6886 158.996 92.8727C158.961 92.2724 158.833 91.6313 158.244 91.27C157.854 91.5497 158.372 91.9926 158.029 92.2666C157.428 92.0101 157.213 91.5264 157.026 90.9844C156.479 89.3759 155.552 88.0063 154.277 86.899C153.292 86.054 152.872 86.2172 152.604 87.4643C152.54 87.7499 152.622 88.1171 152.237 88.2744C151.783 84.4455 151.235 83.6179 147.839 81.6947C147.478 81.4907 147.344 81.1702 147.151 80.8671C144.868 77.3004 141.931 74.2641 139.187 71.082C138.739 70.5575 138.086 70.0272 137.241 70.5692C136.694 70.9247 136.729 70.4001 136.653 70.1321C136.292 68.9257 135.622 67.9291 134.684 67.1074C134.072 66.577 133.396 66.1341 132.866 65.4989C130.734 62.9404 128.7 60.3178 127.273 57.2815C127.209 57.1474 127.168 56.9201 126.894 56.9959C126.982 59.7525 127.523 62.4101 128.56 64.9685C128.863 65.7203 129.038 66.4838 128.322 67.1074C127.576 67.7543 127.687 68.442 128.135 69.1821C128.753 70.2137 129.073 71.3384 129.172 72.539C129.347 74.7303 129.627 76.875 131.31 78.5476C131.765 78.9963 131.73 79.6607 131.491 80.226C131.13 81.0944 131.27 81.8928 131.706 82.6621C135.359 89.067 138.896 95.5593 144.844 100.251H144.862ZM177.93 85.308C178.909 82.5397 179.544 79.719 179.532 76.6477C178.559 77.2072 178.583 78.262 177.808 79.008C178.099 76.91 178.361 75.01 178.635 73.1101C178.857 71.589 178.437 71.1345 176.847 71.2394C177.295 69.3977 177.557 67.5386 177.592 65.6562C177.604 65.1026 177.616 64.4673 176.847 64.3915C175.944 64.3041 176.165 63.9253 176.491 63.3891C177.243 62.1536 177.388 60.8365 176.928 59.4495C176.689 58.7385 176.357 58.3713 175.582 58.7909C174.976 59.1173 174.743 58.9774 174.802 58.2431C174.918 56.6987 174.965 55.1426 175.023 53.5924C175.046 52.9979 174.953 52.351 174.155 52.5434C173.287 52.7532 173.345 52.1412 173.275 51.6866C173.188 51.1155 173.526 50.6318 173.765 50.1306C174.009 49.6177 174.493 49.0816 173.864 48.5454C173.264 48.0325 172.99 48.8251 172.541 48.9475C172.495 48.9592 172.43 48.9126 172.308 48.8718C172.716 47.8868 173.077 46.8844 173.264 45.8296C173.392 45.1069 173.188 44.8272 172.454 45.171C172.296 45.241 172.128 45.3575 171.935 45.1768C171.807 44.7281 172.052 44.326 172.151 43.9064C172.64 41.8258 172.448 39.9492 170.741 38.4281C170.205 37.9502 170.001 37.2567 169.855 36.5573C169.634 35.52 169.867 34.4942 169.902 33.4685C169.931 32.5477 169.943 31.6386 169.314 30.7527C168.783 31.318 168.655 31.9591 168.62 32.6118C168.585 33.3869 168.603 34.1621 168.614 34.9372C168.632 36.3475 168.411 37.6763 167.333 38.702C165.987 39.9783 165.69 41.5286 166.057 43.2769C166.197 43.9355 166.307 44.5999 166.447 45.3109C164.833 44.9146 164.81 44.9204 165.189 46.424C165.404 47.2691 165.69 48.0908 165.969 49.0116C165.777 48.9417 165.672 48.9242 165.597 48.8659C165.218 48.6037 164.88 48.1083 164.361 48.592C163.901 49.0233 164.192 49.4837 164.408 49.9033C164.705 50.4978 165.119 51.0514 165.026 51.7624C164.973 52.1529 164.892 52.7065 164.373 52.5958C163.196 52.3452 163.237 53.0912 163.266 53.8255C163.319 55.265 163.377 56.7045 163.499 58.1382C163.569 58.9716 163.284 59.1406 162.602 58.7676C161.984 58.4296 161.705 58.6452 161.46 59.263C160.872 60.7607 161.052 62.1595 161.874 63.4999C162.124 63.9078 162.311 64.3041 161.664 64.3624C160.691 64.4498 160.691 65.0734 160.714 65.7786C160.773 67.6202 161.011 69.4385 161.46 71.2394C159.84 71.1286 159.473 71.5366 159.689 73.1626C159.951 75.1324 160.237 77.1023 160.528 79.1828C159.794 78.4544 159.776 77.347 158.798 76.671C158.699 79.7831 159.456 82.563 160.365 85.3721C160.062 85.3954 159.84 85.4479 159.631 85.4187C158.693 85.2905 158.524 85.6227 158.798 86.5086C159.363 88.3502 159.992 90.1568 160.895 91.8644C161.349 92.7211 161.833 93.5662 162.311 94.4287C161.728 94.656 161.175 94.4404 160.65 94.7842C162.485 97.6224 164.163 100.519 165.585 103.561C167.001 106.592 168.177 109.71 169.215 112.921C168.277 91.3749 167.909 69.8465 168.993 48.3181C168.83 69.2928 169.279 90.2559 169.605 111.248C171.562 105.368 174.306 99.9011 177.738 94.6677C177.062 94.5919 176.561 94.5395 176.066 94.4812C176.025 94.0499 176.316 93.8226 176.48 93.5487C177.674 91.5789 178.618 89.5041 179.27 87.2953C179.771 85.5411 179.765 85.5411 177.93 85.308ZM227.3 89.6731C225.745 90.728 224.294 92.0334 222.494 92.5463C219.458 93.403 216.685 94.9591 213.621 95.705C211.884 96.1305 210.3 96.9172 208.814 97.908C208.214 98.3101 207.672 99.2368 206.822 98.1994C206.752 98.1178 206.344 98.2635 206.117 98.3626C204.701 98.9862 203.291 99.6331 201.869 100.251C201.671 100.338 201.31 100.694 201.24 100.338C201.036 99.3417 200.483 100.012 200.192 100.123C199.51 100.379 198.875 100.775 198.222 101.119C197.972 101.253 197.756 101.55 197.43 101.358C196.44 100.781 195.729 101.411 195.059 101.947C188.359 107.308 180.832 111.149 172.85 114.191C172.594 114.29 172.279 114.284 172.215 114.453C173.351 114.453 174.528 114.488 175.699 114.448C178.216 114.354 180.692 115.007 183.209 114.826C184.071 114.762 185.032 115.042 185.772 114.459C186.489 113.894 187.188 113.941 187.951 114.203C188.475 114.384 189.075 114.762 189.542 114.477C190.672 113.795 191.843 113.859 193.06 113.952C193.387 113.976 194.004 113.847 193.678 113.375C193.189 112.664 193.818 112.612 194.103 112.443C194.721 112.076 195.438 112.041 196.137 112.029C196.865 112.023 197.523 111.854 198.048 111.312C198.776 110.566 199.702 110.234 200.687 110.007C201.689 109.774 202.738 109.686 203.693 109.272C204.089 109.098 204.718 108.87 204.579 108.427C204.334 107.676 204.858 107.734 205.214 107.617C206.589 107.18 207.911 106.632 209.193 105.974C209.758 105.682 210.166 105.368 209.408 104.785C210.102 104.61 210.702 104.447 211.313 104.313C212.747 103.992 214.116 103.544 214.99 102.261C215.689 101.23 216.522 100.379 217.658 99.8429C217.821 99.7671 217.996 99.6739 217.874 99.4058C217.227 99.3708 216.569 99.3358 215.91 99.3067C221.579 98.246 224.946 94.5802 227.3 89.6731ZM170.636 115.444C172.285 116.359 173.782 117.198 175.297 118.014C175.512 118.131 175.85 118.236 176.031 118.148C177.324 117.484 178.286 118.259 179.305 118.836C180.208 119.349 181.146 119.873 182.224 119.57C182.993 119.355 183.669 119.471 184.374 119.751C185.16 120.066 185.959 120.351 186.763 120.637C187.182 120.783 187.765 120.987 188.033 120.649C188.953 119.471 189.879 120.153 190.759 120.567C191.645 120.987 192.495 121.15 193.416 120.753C194.476 120.305 195.566 120.27 196.673 120.538C197.057 120.631 197.512 120.812 197.803 120.404C198.374 119.605 199.184 119.652 200.005 119.71C203.448 119.943 206.868 119.78 210.259 119.104C212.49 118.655 214.669 118.044 217.064 117.024C214.681 117.076 212.624 117.624 210.597 117.059C209.047 116.627 207.538 116.697 206 117.012C205.651 117.082 205.26 117.303 204.951 116.989C204.142 116.173 203.128 116.295 202.143 116.377C200.815 116.487 199.498 116.68 198.147 116.837C198.339 116.336 199.05 116.447 199.178 115.782C197.331 115.922 195.566 116.05 193.8 116.184C193.795 115.771 194.331 115.91 194.331 115.45C192.798 115.363 191.307 115.217 189.798 115.194C188.19 115.17 186.669 114.757 184.98 115.334C183.535 115.829 181.834 115.602 180.261 115.403C177.103 115.001 173.963 115.071 170.636 115.444ZM167.269 37.5248C165.661 37.414 164.204 37.6005 162.759 37.7637C149.47 39.2732 138.203 44.8971 129.009 54.6064C127.185 56.5355 127.419 55.6904 128.531 58.1149C128.875 58.8608 129.102 59.0648 129.743 58.2839C132.487 54.962 135.692 52.1237 139.222 49.6585C146.843 44.3376 155.296 41.3246 164.56 40.5786C164.804 40.5611 165.154 40.6835 165.259 40.3921C165.661 39.3023 166.564 38.5621 167.269 37.5248ZM171.015 37.4723C171.574 38.4631 172.46 38.9701 172.739 39.8618C172.955 40.5553 173.415 40.701 174.05 40.7709C187.421 42.3037 198.467 48.254 207.317 58.3538C208.633 59.8574 208.616 59.8632 209.601 58.0566C209.904 57.5029 210.201 57.0775 209.618 56.4131C199.434 44.7922 186.617 38.568 171.015 37.4723ZM168.102 115.421C166.383 115.514 164.927 115.537 163.482 115.677C159.916 116.021 156.467 117.041 152.907 117.472C146.079 118.3 139.245 118.702 132.365 118.259C130.891 118.166 129.487 117.385 128.007 117.74C125.525 118.335 123.037 118.236 120.532 118.014C120.509 118.014 120.48 118.102 120.433 118.195C120.812 118.341 121.179 118.498 121.558 118.632C126.422 120.363 131.439 120.998 136.583 120.678C137.241 120.637 138.103 120.369 138.511 120.835C139.356 121.797 140.247 121.494 141.22 121.348C141.721 121.272 142.269 121.226 142.753 121.453C144.168 122.123 145.508 122.018 146.86 121.231C147.314 120.963 148.101 120.649 148.41 121.086C149.202 122.193 150.018 121.604 150.851 121.342C151.87 121.027 152.867 120.206 153.88 120.439C155.762 120.87 157.19 120.095 158.658 119.221C159.223 118.883 159.835 118.696 160.452 118.964C161.041 119.215 161.512 119.058 162.025 118.789C162.969 118.288 163.936 117.834 164.88 117.332C165.905 116.796 167.012 116.394 168.102 115.421ZM126.189 58.1731C126.009 58.2372 125.921 58.2431 125.88 58.2897C125.642 58.5753 125.409 58.8608 125.193 59.1581C118.091 68.8033 114.479 79.6083 114.485 91.6022C114.485 92.0451 114.211 92.6337 114.776 92.9076C115.539 93.2748 116.337 93.6012 117.194 93.6711C117.538 93.7002 117.491 93.3214 117.462 93.065C117.339 91.8819 117.439 90.7047 117.479 89.5274C117.811 80.5816 120.305 72.2826 125.065 64.7179C126.172 62.952 127.075 61.3435 126.259 59.2397C126.148 58.9424 126.213 58.5811 126.189 58.1731ZM211.867 59.3504C211.657 60.3761 211.558 61.2678 211.278 62.0953C211.005 62.9171 211.168 63.529 211.622 64.24C214.751 69.0889 216.924 74.3515 218.229 79.9696C219.132 83.8627 219.557 87.8198 219.563 91.8178C219.563 92.1267 219.301 92.6162 219.86 92.7328C221.02 92.9776 222.511 91.7304 222.494 90.559C222.336 81.2518 219.901 72.574 215.304 64.5023C214.314 62.7481 213.236 61.0405 211.867 59.3504ZM115.044 98.485C114.992 98.654 114.945 98.7239 114.951 98.7822C115.79 105.14 117.747 111.137 120.73 116.808C120.888 117.111 121.051 117.373 121.459 117.391C122.437 117.432 123.404 117.63 124.389 117.519C124.441 117.14 124.208 116.919 124.069 116.68C121.703 112.554 119.99 108.171 118.872 103.555C118.656 102.664 118.47 101.754 118.178 100.886C117.677 99.3883 116.087 99.33 115.044 98.485ZM222.173 97.4592C221.492 97.8264 220.944 98.2227 220.326 98.4267C219.248 98.7764 218.893 99.5864 218.724 100.571C218.136 103.998 217.139 107.308 215.864 110.543C215.054 112.594 214.023 114.547 213.003 116.604C213.924 116.552 214.728 116.458 215.526 116.464C216.254 116.47 216.656 116.155 216.93 115.491C217.518 114.057 218.223 112.676 218.788 111.236C220.524 106.836 221.672 102.291 222.173 97.4592ZM134.695 137.987C134.317 137.94 133.979 138.109 133.722 138.383C133.39 138.739 132.773 139.176 133.116 139.624C133.384 139.974 134.014 140.825 134.654 139.788C134.835 139.49 135.126 139.747 135.33 139.869C136.152 140.364 136.956 140.883 137.777 141.373C138.138 141.588 138.342 141.792 138.063 142.247C137.795 142.678 137.521 142.806 137.078 142.521C136.455 142.125 135.808 141.769 135.208 141.344C134.707 140.982 134.427 141.041 134.084 141.577C133.728 142.13 133.839 142.387 134.375 142.672C135.022 143.016 135.627 143.453 136.262 143.826C136.717 144.094 136.734 144.38 136.466 144.823C136.187 145.272 135.919 145.202 135.558 144.974C134.748 144.462 133.926 143.972 133.116 143.453C132.883 143.308 132.516 143.144 132.767 142.777C133.402 141.862 132.435 141.798 132.062 141.588C131.439 141.233 131.386 141.979 131.217 142.282C130.699 143.232 131.101 144.019 131.905 144.566C132.936 145.272 134.002 145.93 135.091 146.548C136.187 147.172 136.997 146.915 137.713 145.831C138.249 145.015 138.605 144.112 139.222 143.319C140.428 141.769 140.195 141.006 138.494 139.939C137.678 139.432 136.868 138.925 136.047 138.424C135.645 138.179 135.22 137.963 134.695 137.987ZM150.146 153.297C151.34 153.413 151.9 153.017 152.197 152.242C152.663 151.041 153.117 149.835 153.572 148.629C153.944 147.638 153.659 146.845 152.709 146.426C151.433 145.86 150.123 145.353 148.794 144.922C147.885 144.631 147.076 144.934 146.691 145.86C146.167 147.107 145.73 148.395 145.258 149.666C144.961 150.464 145.159 151.175 145.875 151.589C147.32 152.417 148.911 152.865 150.146 153.297ZM193.305 143.249C193.148 143.273 192.944 143.261 192.787 143.337C191.324 144.036 189.879 144.759 188.411 145.446C187.963 145.656 188.19 145.901 188.318 146.152C189.116 147.772 189.926 149.38 190.707 151.006C190.876 151.356 190.998 151.537 191.435 151.309C192.74 150.627 194.086 150.033 195.379 149.328C196.416 148.763 196.638 148.063 196.078 147.02C195.577 146.093 195.111 145.161 194.698 144.199C194.441 143.628 194.004 143.249 193.305 143.249ZM162.497 152.72C161.448 153.681 160.639 154.421 159.858 155.138C161.239 155.843 162.083 155.004 162.899 154.078C163.412 155.389 164.099 155.826 165.346 155.698C166.185 155.61 166.709 155.185 166.791 154.311C166.843 153.769 166.966 153.203 166.651 152.696C166.331 152.184 165.777 152.02 165.02 151.851C165.946 150.942 166.727 150.179 167.502 149.421C166.162 148.821 165.253 149.468 164.501 150.523C163.884 149.182 162.975 148.669 161.792 148.914C160.726 149.136 160.569 149.922 160.505 150.826C160.429 151.985 161.052 152.504 162.497 152.72ZM204.742 134.892C204.654 134.927 204.369 134.962 204.182 135.114C202.918 136.18 201.671 137.276 200.419 138.36C200.087 138.651 200.308 138.867 200.512 139.1C201.718 140.446 202.918 141.792 204.118 143.139C204.316 143.36 204.48 143.587 204.823 143.267C205.977 142.183 207.189 141.163 208.319 140.05C208.954 139.426 208.954 138.663 208.342 137.969C207.591 137.113 206.827 136.256 206.058 135.411C205.761 135.079 205.394 134.84 204.742 134.892ZM174.668 150.313C174.93 151.612 175.151 152.918 175.46 154.2C175.67 155.068 176.381 155.336 177.173 155.22C178.338 155.051 179.497 154.824 180.639 154.55C181.49 154.346 181.974 153.769 181.845 152.848C181.799 152.533 181.939 151.956 181.391 152.038C181.012 152.096 180.226 151.857 180.36 152.761C180.424 153.186 180.092 153.221 179.8 153.273C179.043 153.425 178.286 153.559 177.528 153.716C176.992 153.827 176.788 153.635 176.654 153.087C175.938 150.196 176.142 149.893 179.142 149.625C179.463 149.596 179.754 149.549 179.847 149.922C180.057 150.75 180.581 150.26 180.971 150.196C181.63 150.085 181.216 149.596 181.175 149.328C181.03 148.471 180.435 148.022 179.597 148.133C178.326 148.302 177.062 148.559 175.804 148.844C175.081 149.013 174.685 149.526 174.668 150.313ZM150.169 33.6667C149.959 33.3636 150.117 32.6468 149.301 33.0081C148.561 33.3345 147.763 33.5093 147.017 33.8182C146.569 34.0047 146.359 33.9406 146.202 33.4802C146.021 32.9557 146.429 32.944 146.714 32.8391C147.681 32.4836 148.649 32.1281 149.633 31.8192C150.099 31.6677 150.321 31.5103 150.105 30.9683C149.925 30.5079 149.697 30.473 149.284 30.6245C147.938 31.1199 146.586 31.6036 145.223 32.0582C144.704 32.2272 144.512 32.4078 144.751 33.0023C145.27 34.3019 145.741 35.619 146.143 36.9595C146.33 37.5772 146.563 37.6821 147.134 37.4723C148.445 36.9828 149.773 36.5457 151.084 36.0678C151.439 35.9396 151.853 35.8988 151.602 35.2519C151.381 34.6749 151.107 34.7448 150.694 34.8905C149.686 35.246 148.678 35.5841 147.676 35.9571C147.309 36.0911 147.116 36.0969 146.953 35.654C146.773 35.1528 147.041 35.1004 147.379 34.9896C148.148 34.7332 148.905 34.4418 149.668 34.1795C149.919 34.0921 150.187 34.0513 150.169 33.6667ZM125.141 52.3277C124.989 51.4127 124.016 50.929 123.235 50.4162C122.694 50.0607 122.519 50.9407 122.169 51.2496C121.785 51.5876 121.517 52.048 121.167 52.421C120.864 52.7415 120.911 52.9455 121.243 53.2136C121.575 53.4875 121.837 53.6157 122.14 53.1961C122.379 52.8697 122.664 52.5783 122.898 52.2461C123.206 51.8032 123.568 52.0305 123.649 52.3161C123.952 53.3418 122.851 53.639 122.484 54.3267C122.327 54.6123 122.117 55.1776 121.581 54.7813C120.934 54.2976 120.322 53.7614 119.699 53.2427C119.536 53.1087 119.478 52.8872 119.612 52.7532C120.322 52.0538 120.637 50.964 121.703 50.6143C122.123 50.4744 122.501 50.1015 122.402 49.7693C122.274 49.3496 121.738 49.2273 121.272 49.3089C120.899 49.3788 120.608 49.6177 120.369 49.9033C119.92 50.4395 119.466 50.9756 119.023 51.5118C117.875 52.9047 117.928 53.3476 119.297 54.4957C122.123 56.8677 122 56.9318 124.389 53.977C124.727 53.5516 125.135 53.1553 125.141 52.3277ZM161.221 29.8028C161.297 30.9101 161.39 32.0115 161.443 33.1189C161.466 33.5909 161.606 33.7366 162.101 33.69C163.569 33.5501 165.043 33.4452 166.511 33.3753C167.012 33.352 167.123 33.148 167.123 32.6934C167.123 32.1339 166.797 32.1281 166.395 32.1572C165.404 32.233 164.408 32.3204 163.412 32.3612C163.074 32.3729 162.573 32.6235 162.567 31.8833C162.561 31.184 163.068 31.3588 163.406 31.3239C164.105 31.2539 164.804 31.2597 165.509 31.2189C165.993 31.1956 166.191 30.9975 166.162 30.4497C166.133 29.8436 165.8 29.9368 165.428 29.9659C164.659 30.03 163.884 30.0883 163.115 30.1408C162.777 30.1641 162.445 30.2049 162.404 29.7037C162.357 29.1559 162.701 29.1092 163.091 29.0801C164.088 29.016 165.078 28.9635 166.074 28.8878C166.447 28.8586 166.872 28.9635 166.837 28.2758C166.803 27.5357 166.389 27.6756 165.952 27.7047C164.962 27.7746 163.965 27.8446 162.969 27.9029C161.14 28.0136 161.14 28.0136 161.221 29.8028ZM178.967 30.4438C179.789 31.9474 180.482 33.1596 181.105 34.401C181.379 34.943 181.857 35.0071 182.306 35.0013C182.818 34.9954 182.69 34.4651 182.76 34.1446C183.034 32.8857 183.255 31.6152 183.552 30.3622C183.675 29.8319 183.739 29.4881 183.04 29.354C182.224 29.1967 182.445 29.8319 182.358 30.1699C182.137 30.9975 181.991 31.8425 181.822 32.6584C181.472 32.6526 181.449 32.4312 181.368 32.2855C180.785 31.2248 180.173 30.1699 179.643 29.0801C179.358 28.4915 178.833 28.4215 178.361 28.4449C177.884 28.4682 178.035 29.0276 177.965 29.3424C177.656 30.6653 177.453 32.0174 177.126 33.3403C176.998 33.8648 177.185 33.9522 177.598 34.0746C178.082 34.2145 178.257 34.0688 178.338 33.5909C178.495 32.6526 178.705 31.726 178.967 30.4438ZM205.633 46.4007C205.948 46.4124 206.239 46.3308 206.431 46.0918C207.165 45.171 207.923 44.256 208.593 43.2886C208.977 42.7291 208.773 42.1288 208.266 41.7092C207.445 41.0274 206.594 40.3688 205.726 39.7452C205.08 39.2848 204.456 39.4363 203.967 40.0366C203.338 40.8117 202.714 41.5927 202.126 42.3969C201.601 43.1196 201.753 43.7956 202.417 44.3493C203.07 44.8913 203.751 45.3983 204.427 45.917C204.788 46.1851 205.161 46.424 205.633 46.4007ZM137.83 116.732C137.806 116.825 137.783 116.913 137.76 117.006C138.389 117.338 138.931 117.845 139.735 117.822C144.972 117.682 150.181 117.233 154.166 116.738C152.756 117.21 150.257 115.036 147.612 116.202C147.437 116.278 147.175 116.161 146.953 116.161C145.508 116.149 144.064 116.19 142.689 116.464C142.689 116.849 143.178 116.744 143.085 117.134C141.325 117 139.577 116.866 137.83 116.732ZM222.435 67.4512C222.348 67.2531 222.272 67.0841 222.191 66.9209C221.824 66.1574 221.509 65.3648 221.06 64.648C220.565 63.8496 220.606 63.3775 221.567 63.022C222.424 62.7073 223.222 62.2236 224.061 61.8506C224.527 61.6408 224.486 61.3902 224.282 60.9939C224.084 60.6034 223.915 60.5509 223.531 60.7491C222.191 61.4368 220.827 62.0779 219.47 62.7422C219.225 62.8646 218.876 62.8996 219.097 63.3483C219.837 64.8286 220.565 66.3148 221.282 67.8067C221.422 68.0923 221.573 68.0748 221.794 67.9291C222.016 67.7717 222.365 67.7834 222.435 67.4512ZM217.705 51.2729C217.507 50.999 217.355 50.7542 217.163 50.5385C216.871 50.2064 216.708 50.5735 216.545 50.7017C215.397 51.6109 214.279 52.555 213.12 53.4583C212.718 53.7672 212.636 53.9887 212.997 54.4141C213.335 54.8104 213.539 54.7172 213.871 54.4374C214.966 53.5166 216.085 52.6308 217.192 51.7274C217.355 51.5934 217.507 51.4477 217.705 51.2729ZM138.558 117.909C135.989 116.954 132.662 117.059 132.097 118.014C133.99 118.014 135.866 118.014 137.742 118.014C137.911 118.009 138.08 117.968 138.558 117.909Z" fill="#1F2120"/>
<path d="M177.928 85.3076C179.763 85.5407 179.769 85.5407 179.256 87.2775C178.604 89.4863 177.666 91.5668 176.466 93.5308C176.297 93.8047 176.011 94.032 176.052 94.4633C176.547 94.5158 177.048 94.574 177.724 94.6498C174.293 99.8833 171.549 105.35 169.591 111.23C169.271 90.2439 168.822 69.275 168.979 48.3003C167.896 69.8286 168.263 91.357 169.201 112.903C168.164 109.698 166.987 106.574 165.571 103.543C164.15 100.501 162.472 97.5987 160.636 94.7663C161.155 94.4225 161.708 94.6381 162.297 94.4109C161.819 93.5483 161.33 92.7091 160.881 91.8466C159.978 90.139 159.349 88.3323 158.784 86.4907C158.51 85.599 158.673 85.2727 159.617 85.4009C159.827 85.43 160.048 85.3776 160.351 85.3542C159.442 82.5452 158.685 79.7653 158.784 76.6531C159.757 77.3292 159.78 78.4365 160.514 79.165C160.223 77.0902 159.937 75.1204 159.675 73.1447C159.46 71.5187 159.827 71.1166 161.446 71.2215C160.998 69.4149 160.759 67.6024 160.701 65.7607C160.677 65.0556 160.677 64.4378 161.65 64.3446C162.303 64.2863 162.11 63.89 161.86 63.482C161.038 62.1474 160.858 60.7429 161.446 59.2451C161.691 58.6273 161.971 58.4117 162.588 58.7497C163.27 59.1227 163.561 58.9595 163.485 58.1203C163.363 56.6866 163.305 55.2471 163.252 53.8076C163.223 53.0733 163.188 52.3274 164.359 52.578C164.878 52.6887 164.959 52.1409 165.012 51.7446C165.105 51.0336 164.691 50.4799 164.394 49.8854C164.184 49.4658 163.887 48.9996 164.348 48.5742C164.866 48.0963 165.204 48.5858 165.583 48.8481C165.658 48.9005 165.763 48.918 165.956 48.9938C165.676 48.0788 165.385 47.2512 165.175 46.4062C164.796 44.9026 164.82 44.8967 166.433 45.293C166.299 44.582 166.183 43.9176 166.043 43.2591C165.676 41.5107 165.973 39.9605 167.319 38.6842C168.397 37.6584 168.618 36.3297 168.601 34.9193C168.589 34.1442 168.572 33.3691 168.606 32.594C168.636 31.9412 168.77 31.3002 169.3 30.7349C169.929 31.6207 169.923 32.5299 169.888 33.4507C169.853 34.4822 169.62 35.5021 169.842 36.5395C169.993 37.2388 170.197 37.9324 170.727 38.4103C172.428 39.9372 172.621 41.8079 172.137 43.8885C172.038 44.3023 171.799 44.7102 171.921 45.159C172.108 45.3397 172.283 45.2231 172.44 45.1532C173.174 44.8093 173.372 45.0891 173.25 45.8117C173.069 46.8666 172.708 47.869 172.294 48.8539C172.417 48.8947 172.481 48.9472 172.527 48.9297C172.976 48.8073 173.25 48.0205 173.85 48.5275C174.485 49.0637 173.996 49.6057 173.751 50.1127C173.512 50.6139 173.168 51.0977 173.261 51.6688C173.331 52.1175 173.273 52.7353 174.141 52.5255C174.945 52.3332 175.033 52.9801 175.009 53.5745C174.951 55.1248 174.899 56.675 174.788 58.2252C174.735 58.9595 174.968 59.1052 175.569 58.773C176.343 58.3534 176.681 58.7206 176.914 59.4316C177.375 60.8187 177.223 62.1358 176.477 63.3713C176.151 63.9133 175.93 64.2863 176.833 64.3737C177.602 64.4495 177.59 65.0847 177.579 65.6384C177.544 67.5208 177.276 69.3799 176.833 71.2215C178.423 71.1166 178.843 71.577 178.621 73.0923C178.348 74.9864 178.091 76.8863 177.794 78.9901C178.569 78.25 178.546 77.1951 179.519 76.6298C179.542 79.7186 178.907 82.5394 177.928 85.3076Z" fill="#4ECB71"/>
<path d="M144.839 100.268C138.89 95.5766 135.36 89.0843 131.701 82.6794C131.258 81.9042 131.118 81.1116 131.485 80.2433C131.724 79.678 131.759 79.0136 131.305 78.5648C129.621 76.8922 129.341 74.7417 129.167 72.5562C129.068 71.3557 128.747 70.2367 128.13 69.1993C127.687 68.4592 127.576 67.7715 128.316 67.1246C129.033 66.501 128.858 65.7376 128.555 64.9858C127.518 62.4273 126.976 59.7698 126.889 57.0131C127.162 56.9374 127.203 57.1647 127.267 57.2987C128.695 60.3351 130.722 62.9576 132.86 65.5161C133.391 66.1513 134.066 66.5943 134.678 67.1246C135.616 67.9463 136.286 68.9429 136.647 70.1493C136.729 70.4174 136.694 70.9419 137.236 70.5864C138.075 70.0386 138.727 70.5747 139.182 71.0993C141.926 74.2871 144.862 77.3235 147.146 80.8844C147.338 81.1874 147.472 81.5079 147.833 81.7119C151.23 83.6293 151.778 84.4627 152.232 88.2917C152.622 88.1343 152.541 87.7671 152.599 87.4816C152.873 86.2402 153.292 86.0712 154.271 86.9163C155.553 88.0236 156.479 89.3931 157.021 91.0017C157.207 91.5436 157.423 92.0274 158.023 92.2838C158.373 92.0099 157.854 91.567 158.239 91.2872C158.827 91.6485 158.949 92.2955 158.99 92.8899C159.043 93.7 159.357 94.3294 159.806 94.9996C163.709 100.798 166.739 107.017 168.446 113.83C168.498 114.034 168.638 114.238 168.446 114.535C166.547 114.039 164.717 113.288 162.894 112.53C156.007 109.68 149.476 106.201 143.65 101.498C143.475 101.358 143.289 101.236 143.143 101.072C142.887 100.781 142.427 100.524 142.706 100.058C143.015 99.5454 143.429 99.9825 143.796 100.052C144.151 100.122 144.466 100.385 144.856 100.268C144.827 100.39 144.856 100.449 144.984 100.367C144.938 100.326 144.891 100.297 144.839 100.268ZM165.673 111.592C165.824 111.341 165.626 111.248 165.469 111.137C165.358 110.991 165.259 110.84 165.142 110.7C155.471 99.7377 146.348 88.3266 137.544 76.6533C135.395 73.8034 133.251 70.9419 131.107 68.0862C130.897 67.6433 130.757 67.1421 130.198 66.9964C130.279 66.6234 130.105 66.4194 129.755 66.332C129.609 66.0523 129.47 65.7725 129.324 65.487C129.295 65.5044 129.272 65.5219 129.242 65.5336C129.417 65.79 129.592 66.0523 129.767 66.3087C129.86 66.571 129.965 66.8216 130.21 66.9789C130.408 67.4277 130.617 67.8648 131.043 68.1503C131.171 68.4126 131.264 68.6923 131.427 68.9313C141.465 83.6934 152.5 97.6688 164.74 110.671C164.933 110.875 165.061 111.277 165.492 111.114C165.306 111.382 165.533 111.464 165.696 111.568C165.777 111.784 165.906 111.953 166.145 112.011C166.203 112.081 166.255 112.157 166.313 112.227C166.337 112.186 166.36 112.151 166.383 112.11C166.296 112.081 166.214 112.052 166.127 112.023C166.098 111.761 166.04 111.522 165.673 111.592Z" fill="#4ECB71"/>
<path d="M193.746 100.187C193.991 100.117 194.242 100.053 194.486 99.9768C194.83 99.8661 195.238 99.598 195.418 100.111C195.582 100.577 195.232 100.869 194.824 101.02C193.892 101.358 192.942 101.649 192.01 101.993C191.707 102.104 191.101 102.046 191.241 102.553C191.422 103.217 191.894 102.658 192.237 102.623C192.447 102.605 192.645 102.5 192.919 102.407C191.171 105.041 175.336 113.247 169.79 114.436C169.592 113.69 170.436 113.451 170.547 112.88C170.868 112.915 170.984 112.734 171.007 112.454C171.404 112.414 171.561 112.122 171.677 111.796C171.829 111.802 171.899 111.726 171.905 111.58C172.044 111.58 172.12 111.51 172.138 111.37C172.248 111.341 172.359 111.26 172.266 111.166C172.167 111.062 172.103 111.196 172.062 111.289C171.934 111.347 171.835 111.417 171.899 111.58C171.718 111.557 171.654 111.639 171.683 111.808C171.299 111.866 171.118 112.128 171.019 112.472C170.78 112.524 170.675 112.717 170.553 112.897C170.436 112.973 170.285 113.136 170.215 113.107C169.906 112.985 170.104 112.734 170.151 112.554C170.658 110.665 171.31 108.824 172.044 107.011C173.687 102.961 175.686 99.0968 178.133 95.4777C178.657 94.6967 179.053 93.9216 179.094 92.9483C179.123 92.3131 179.216 91.6254 179.892 91.2466C180.329 91.6254 179.665 91.9576 179.997 92.3306C180.521 92.0683 180.842 91.6662 181.051 91.031C181.547 89.539 182.397 88.251 183.528 87.1437C183.964 86.7183 184.46 86.2695 185.06 86.4327C185.602 86.5842 185.363 87.2719 185.538 87.7032C185.619 87.9014 185.648 88.1228 185.759 88.5483C185.875 87.9538 185.98 87.5866 186.009 87.2078C186.213 84.5678 187.711 82.8835 190.006 81.8053C190.396 81.6247 190.659 81.3799 190.88 81.0127C193.088 77.3936 196.088 74.4097 198.786 71.1868C199.269 70.6099 199.957 69.9513 200.889 70.5982C201.128 70.7614 201.291 70.7264 201.361 70.4234C201.81 68.5002 203.295 67.4162 204.6 66.099C207.1 63.5814 209.162 60.6791 210.729 57.462C210.805 57.3047 210.887 57.1473 210.991 56.9434C211.259 58.1206 211.032 60.1487 210.374 62.4682C210.17 63.1793 209.954 63.8844 209.675 64.5663C209.238 65.627 209.04 66.5944 210.053 67.4803C210.508 67.8766 210.362 68.4419 210.071 68.9081C209.081 70.505 208.882 72.3 208.725 74.1066C208.597 75.5811 208.201 76.9274 207.152 78.0288C206.494 78.7224 206.22 79.5091 206.663 80.4591C206.983 81.1468 206.773 81.8228 206.47 82.4814C204.606 86.5784 201.868 90.1276 199.334 93.7992C197.714 96.1537 195.984 98.3916 193.566 99.9885C193.455 100.047 193.274 100.07 193.403 100.268C193.304 100.152 193.222 100.233 193.14 100.297C193.129 100.309 193.14 100.385 193.158 100.391C193.28 100.431 193.356 100.379 193.385 100.257C193.519 100.239 193.636 100.21 193.746 100.187ZM206.523 65.6911C205.713 66.4021 205.189 67.3346 204.594 68.2088C203.668 69.4967 202.736 70.7847 201.815 72.0785C192.47 85.203 183.096 98.3042 172.586 110.537C172.493 110.648 172.283 110.776 172.569 111.003C175.185 108.241 177.667 105.362 180.09 102.436C186.738 94.3995 192.89 85.9956 198.774 77.3936C200.819 74.4097 202.917 71.4666 204.746 68.337C205.486 67.5502 205.929 66.5653 206.511 65.6736C206.523 65.6445 206.54 65.6153 206.546 65.5862C206.552 65.5571 206.558 65.5279 206.558 65.5046C206.546 65.5687 206.535 65.627 206.523 65.6911Z" fill="#4ECB71"/>
<path d="M109.852 90.6753C112.398 92.7151 115.236 94.1371 118.452 94.7782C119.209 94.9297 119.931 95.2619 120.497 95.8272C120.753 96.0836 121.044 96.1827 121.376 96.2293C124.138 96.6256 126.626 97.6805 128.84 99.3764C129.201 99.6503 129.504 99.8718 129.836 99.3822C130.133 98.951 130.477 99.1491 130.809 99.3006C132.189 99.9126 133.564 100.542 134.957 101.136C135.236 101.253 135.662 101.807 135.807 100.956C135.866 100.629 136.169 100.839 136.355 100.903C137.34 101.241 138.214 102.086 139.122 102.197C140.084 102.314 141.028 102.43 141.989 102.646C145.007 103.31 147.36 105.187 149.895 106.743C155.01 109.878 160.387 112.46 166.039 114.471C166.167 114.517 166.283 114.593 166.604 114.762C164.437 114.949 162.485 115.077 160.539 115.298C157.859 115.601 155.185 115.928 152.482 115.765C152.08 115.741 151.619 115.858 151.311 115.543C150.518 114.739 149.656 114.89 148.759 115.269C148.001 115.584 147.308 115.63 146.574 115.1C145.939 114.646 145.141 114.937 144.412 114.89C143.946 114.861 142.915 115.327 143.416 114.01C143.55 113.649 142.968 113.293 142.595 113.282C140.573 113.218 138.936 112.25 137.229 111.306C136.204 110.741 134.869 110.758 133.716 110.385C133.104 110.187 132.178 110.123 132.423 108.987C132.498 108.625 131.986 108.654 131.741 108.579C130.319 108.147 128.962 107.576 127.663 106.871C127.179 106.609 126.719 106.294 127.552 105.746C126.637 105.525 125.857 105.338 125.082 105.146C123.59 104.773 122.338 104.056 121.563 102.675C120.969 101.626 119.838 101.23 118.679 100.373C119.675 100.326 120.386 100.291 121.091 100.256C115.533 99.2249 112.066 95.6815 109.666 90.8326C109.73 90.7802 109.794 90.7277 109.852 90.6753ZM118.883 96.7305C127.954 101.649 154.282 112.099 158.179 112.344C144.768 107.512 131.753 102.325 118.883 96.7305Z" fill="#4ECB71"/>
<path d="M227.3 89.6729C224.946 94.58 221.579 98.2457 215.928 99.3123C216.586 99.3472 217.244 99.3822 217.891 99.4113C218.013 99.6794 217.844 99.7727 217.676 99.8484C216.539 100.385 215.706 101.235 215.007 102.267C214.139 103.549 212.764 103.998 211.331 104.318C210.725 104.452 210.119 104.622 209.426 104.791C210.183 105.373 209.77 105.688 209.21 105.979C207.929 106.638 206.606 107.186 205.231 107.623C204.882 107.734 204.357 107.675 204.596 108.433C204.736 108.87 204.107 109.103 203.71 109.278C202.755 109.692 201.706 109.773 200.704 110.012C199.72 110.245 198.793 110.572 198.065 111.318C197.541 111.854 196.882 112.023 196.154 112.035C195.455 112.04 194.733 112.081 194.121 112.448C193.835 112.617 193.2 112.67 193.696 113.381C194.022 113.853 193.404 113.981 193.078 113.958C191.86 113.87 190.689 113.8 189.559 114.482C189.087 114.768 188.487 114.389 187.969 114.208C187.205 113.946 186.506 113.9 185.79 114.465C185.05 115.048 184.088 114.768 183.226 114.832C180.709 115.013 178.233 114.36 175.716 114.453C174.54 114.5 173.363 114.459 172.232 114.459C172.297 114.284 172.611 114.29 172.867 114.197C180.843 111.16 188.376 107.32 195.076 101.952C195.746 101.416 196.457 100.781 197.448 101.364C197.774 101.556 197.989 101.253 198.24 101.125C198.892 100.781 199.522 100.385 200.209 100.128C200.5 100.017 201.054 99.3472 201.258 100.344C201.328 100.693 201.689 100.338 201.887 100.256C203.309 99.6386 204.713 98.9917 206.134 98.3681C206.361 98.2691 206.769 98.1175 206.839 98.2049C207.69 99.2481 208.237 98.3157 208.832 97.9136C210.317 96.917 211.896 96.1302 213.638 95.7106C216.703 94.9646 219.476 93.4086 222.511 92.5518C224.294 92.039 225.745 90.7277 227.3 89.6729ZM216.912 96.7013C217.093 96.6955 217.326 96.7713 217.332 96.4624C217.518 96.4682 217.722 96.509 217.81 96.2642C218.037 96.1943 218.264 96.1244 218.491 96.0544L218.509 96.0253L218.479 96.0661C218.264 96.136 218.043 96.2118 217.827 96.2817C217.67 96.3458 217.507 96.4099 217.349 96.474C217.209 96.5556 217.07 96.6372 216.936 96.7188C216.767 96.7538 216.574 96.7421 216.487 96.9403C216.062 96.9345 215.724 97.1851 215.357 97.3482C209.117 100.105 202.889 102.867 196.649 105.618C189.973 108.561 183.156 111.155 176.363 113.806C176.311 113.841 176.258 113.882 176.206 113.917C176.252 113.876 176.299 113.83 176.346 113.789C177.266 113.55 178.204 113.358 179.107 113.06C191.703 108.876 203.786 103.468 215.648 97.5406C215.945 97.389 216.376 97.3657 216.475 96.9228C216.668 96.9461 216.872 96.9869 216.912 96.7013Z" fill="#4ECB71"/>
<path d="M122.67 119.786C123.777 120.054 124.878 120.38 126.002 120.579C126.836 120.73 127.092 121.412 127.5 121.948C134.858 131.675 144.419 138.132 156.251 141.07C176.433 146.076 197.459 138.389 209.693 121.581C210.684 120.223 211.686 119.203 213.405 119.028C213.941 118.976 214.453 118.743 214.972 118.591C215.176 118.964 214.925 119.145 214.803 119.337C205.534 134.082 192.355 142.964 175.034 145.068C157.813 147.166 142.904 141.851 130.401 129.833C127.517 127.059 125.053 123.918 122.909 120.538C122.769 120.316 122.454 120.112 122.682 119.769L122.67 119.786Z" fill="#4ECB71"/>
<path d="M170.635 115.444C173.961 115.071 177.102 114.996 180.254 115.398C181.827 115.596 183.528 115.829 184.973 115.328C186.656 114.751 188.183 115.165 189.791 115.188C191.306 115.211 192.791 115.357 194.323 115.444C194.323 115.899 193.787 115.759 193.793 116.179C195.559 116.045 197.324 115.916 199.171 115.776C199.043 116.441 198.332 116.33 198.139 116.831C199.491 116.674 200.808 116.482 202.136 116.371C203.121 116.289 204.134 116.167 204.944 116.983C205.259 117.298 205.643 117.076 205.993 117.006C207.531 116.691 209.04 116.622 210.59 117.053C212.617 117.618 214.674 117.07 217.057 117.018C214.662 118.044 212.477 118.655 210.252 119.098C206.861 119.78 203.441 119.938 199.998 119.704C199.182 119.646 198.373 119.6 197.796 120.398C197.504 120.806 197.05 120.625 196.665 120.532C195.553 120.258 194.469 120.299 193.409 120.748C192.488 121.138 191.643 120.975 190.752 120.561C189.872 120.147 188.946 119.466 188.025 120.643C187.763 120.981 187.181 120.777 186.755 120.631C185.951 120.351 185.153 120.06 184.367 119.745C183.662 119.466 182.986 119.349 182.217 119.565C181.139 119.868 180.201 119.343 179.298 118.83C178.279 118.253 177.317 117.484 176.024 118.143C175.843 118.236 175.5 118.125 175.29 118.009C173.781 117.204 172.284 116.359 170.635 115.444ZM174.031 115.759C184.209 118.119 194.481 118.935 204.874 118.084C194.533 117.979 184.233 117.379 174.031 115.759Z" fill="#4ECB71"/>
<path d="M167.268 37.5246C166.569 38.562 165.66 39.3021 165.264 40.392C165.159 40.6834 164.809 40.561 164.564 40.5785C155.301 41.3244 146.847 44.3433 139.227 49.6584C135.696 52.1236 132.492 54.9618 129.748 58.2837C129.101 59.0647 128.88 58.8607 128.536 58.1147C127.423 55.6903 127.185 56.5353 129.014 54.6063C138.207 44.897 149.475 39.273 162.764 37.7636C164.203 37.6004 165.66 37.4139 167.268 37.5246Z" fill="#4ECB71"/>
<path d="M171.014 37.4722C186.616 38.5678 199.433 44.7921 209.611 56.413C210.2 57.0832 209.897 57.5086 209.594 58.0564C208.609 59.8631 208.627 59.8573 207.31 58.3537C198.466 48.248 187.42 42.3035 174.043 40.7708C173.408 40.695 172.948 40.5551 172.732 39.8616C172.459 38.9699 171.573 38.4629 171.014 37.4722Z" fill="#4ECB71"/>
<path d="M168.102 115.421C167.019 116.394 165.906 116.79 164.886 117.332C163.942 117.834 162.975 118.288 162.032 118.789C161.525 119.058 161.047 119.215 160.458 118.964C159.841 118.696 159.229 118.883 158.664 119.221C157.196 120.095 155.769 120.87 153.887 120.439C152.873 120.206 151.871 121.027 150.857 121.342C150.018 121.604 149.208 122.193 148.416 121.086C148.101 120.649 147.321 120.963 146.866 121.231C145.515 122.018 144.175 122.123 142.759 121.453C142.275 121.226 141.734 121.266 141.227 121.348C140.26 121.494 139.362 121.802 138.518 120.835C138.11 120.369 137.248 120.637 136.589 120.678C131.445 120.992 126.429 120.363 121.564 118.632C121.185 118.498 120.818 118.341 120.439 118.195C120.486 118.108 120.515 118.014 120.538 118.014C123.044 118.236 125.526 118.329 128.013 117.74C129.493 117.385 130.897 118.166 132.371 118.259C139.252 118.702 146.086 118.3 152.914 117.472C156.473 117.041 159.922 116.021 163.488 115.677C164.927 115.543 166.384 115.514 168.102 115.421Z" fill="#4ECB71"/>
<path d="M126.189 58.1729C126.212 58.5808 126.154 58.948 126.265 59.2394C127.08 61.3433 126.177 62.9518 125.07 64.7176C120.31 72.2823 117.817 80.5813 117.485 89.5272C117.444 90.7102 117.345 91.8875 117.467 93.0647C117.496 93.3211 117.537 93.6941 117.199 93.6708C116.349 93.6067 115.545 93.2745 114.781 92.9074C114.216 92.6334 114.49 92.0448 114.49 91.6019C114.478 79.608 118.091 68.803 125.193 59.1578C125.414 58.8605 125.647 58.575 125.88 58.2894C125.915 58.2428 126.002 58.237 126.189 58.1729Z" fill="#4ECB71"/>
<path d="M211.867 59.3501C213.236 61.0402 214.313 62.7478 215.31 64.4962C219.906 72.5737 222.342 81.2515 222.499 90.5529C222.517 91.7243 221.025 92.9656 219.866 92.7267C219.306 92.6101 219.569 92.1206 219.569 91.8117C219.563 87.8137 219.143 83.8566 218.234 79.9635C216.929 74.3454 214.756 69.0828 211.628 64.2339C211.173 63.5229 211.01 62.911 211.284 62.0892C211.558 61.2675 211.657 60.3758 211.867 59.3501Z" fill="#4ECB71"/>
<path d="M115.042 98.4849C116.085 99.3299 117.676 99.3882 118.177 100.88C118.468 101.749 118.654 102.652 118.87 103.549C119.989 108.171 121.701 112.548 124.067 116.674C124.207 116.919 124.44 117.134 124.387 117.513C123.403 117.624 122.43 117.426 121.457 117.385C121.049 117.367 120.886 117.105 120.728 116.802C117.746 111.131 115.788 105.135 114.949 98.7763C114.937 98.718 114.984 98.6539 115.042 98.4849Z" fill="#4ECB71"/>
<path d="M222.172 97.459C221.677 102.285 220.529 106.83 218.793 111.23C218.228 112.67 217.523 114.051 216.935 115.485C216.661 116.155 216.259 116.464 215.53 116.458C214.726 116.452 213.928 116.54 213.008 116.598C214.033 114.535 215.059 112.588 215.868 110.537C217.144 107.302 218.141 103.992 218.729 100.565C218.898 99.5862 219.253 98.7761 220.331 98.4206C220.937 98.2283 221.491 97.8261 222.172 97.459Z" fill="#4ECB71"/>
<path d="M171.352 118.999C171.352 119.308 171.352 119.617 171.352 120.176C170.443 118.702 170.064 117.257 169.639 115.765C171.276 116.924 173.187 117.845 174.451 119.32C175.325 120.34 176.309 121.126 177.282 121.977C177.533 122.193 177.871 122.274 177.486 122.799C177.143 123.271 177.719 123.691 178.139 123.877C179.054 124.279 179.648 124.874 179.782 125.905C179.817 126.173 180.032 126.436 180.207 126.663C180.533 127.077 181.634 127.211 180.691 128.085C180.656 128.114 180.924 128.487 181.069 128.691C181.809 129.699 182.578 130.696 182.788 131.978C182.736 132.019 182.683 132.065 182.631 132.118C182.135 131.477 181.605 130.865 181.163 130.195C180.801 129.653 180.411 129.315 179.741 129.116C178.838 128.848 178.605 127.846 178.127 127.123C177.917 126.809 177.929 126.197 177.23 126.64C176.904 126.844 176.659 126.441 176.496 126.15C176.175 125.573 175.896 124.967 175.535 124.419C175.284 124.04 175.36 123.125 174.428 123.597C174.375 123.627 174.107 123.236 173.95 123.038C172.965 121.756 172.354 120.246 171.474 118.9C171.433 118.842 171.392 118.789 171.352 118.731C171.247 118.807 171.276 118.9 171.352 118.999Z" fill="#4ECB71"/>
<path d="M134.693 137.986C135.217 137.963 135.643 138.179 136.05 138.429C136.866 138.93 137.682 139.437 138.497 139.944C140.199 141.005 140.432 141.769 139.226 143.325C138.608 144.117 138.253 145.021 137.717 145.836C137 146.926 136.19 147.177 135.095 146.553C134.005 145.936 132.939 145.277 131.908 144.572C131.104 144.018 130.702 143.237 131.221 142.287C131.39 141.978 131.442 141.238 132.065 141.594C132.438 141.804 133.405 141.868 132.77 142.783C132.514 143.15 132.887 143.307 133.12 143.459C133.93 143.977 134.751 144.467 135.561 144.98C135.916 145.207 136.19 145.277 136.47 144.828C136.744 144.391 136.726 144.1 136.266 143.832C135.631 143.459 135.025 143.027 134.378 142.678C133.842 142.392 133.732 142.136 134.087 141.582C134.431 141.046 134.705 140.988 135.211 141.349C135.811 141.774 136.464 142.13 137.082 142.526C137.524 142.812 137.798 142.684 138.066 142.252C138.346 141.804 138.142 141.6 137.781 141.378C136.959 140.883 136.149 140.37 135.334 139.874C135.13 139.752 134.839 139.496 134.658 139.793C134.017 140.83 133.388 139.979 133.12 139.63C132.776 139.181 133.394 138.744 133.726 138.388C133.982 138.109 134.314 137.94 134.693 137.986Z" fill="white"/>
<path d="M150.144 153.296C148.909 152.865 147.313 152.416 145.88 151.589C145.163 151.175 144.965 150.464 145.262 149.666C145.734 148.395 146.177 147.113 146.695 145.86C147.08 144.933 147.89 144.63 148.798 144.922C150.127 145.353 151.438 145.86 152.713 146.425C153.657 146.845 153.949 147.637 153.576 148.628C153.121 149.835 152.667 151.041 152.201 152.242C151.898 153.017 151.339 153.413 150.144 153.296ZM150.261 151.688C150.657 151.758 150.762 151.536 150.855 151.28C151.216 150.318 151.572 149.351 151.956 148.395C152.131 147.964 151.95 147.806 151.583 147.672C150.686 147.34 149.789 147.008 148.909 146.641C148.396 146.425 148.117 146.489 147.93 147.066C147.651 147.941 147.289 148.791 146.969 149.648C146.87 149.916 146.649 150.254 147.027 150.417C148.111 150.872 149.218 151.28 150.261 151.688Z" fill="white"/>
<path d="M153.066 132.223C153.118 130.871 153.875 129.833 154.633 128.802C154.901 128.435 155.396 128.155 154.825 127.63C154.586 127.415 154.843 127.246 155.017 127.118C155.192 126.983 155.46 126.896 155.542 126.721C156.171 125.369 156.823 124.052 158.28 123.37C158.356 123.335 158.437 123.137 158.402 123.079C157.756 121.954 158.897 121.826 159.375 121.383C161.42 119.495 164.042 118.632 166.541 117.49C165.871 118.323 165.201 119.162 164.514 120.025C164.275 119.629 164.712 119.25 164.391 118.929C164.438 118.906 164.485 118.877 164.531 118.853C164.508 118.813 164.479 118.772 164.455 118.731C164.426 118.784 164.391 118.842 164.362 118.894C163.57 120.211 162.801 121.546 161.968 122.834C161.781 123.125 161.717 123.895 160.972 123.393C160.803 123.277 160.68 123.65 160.581 123.831C160.243 124.442 159.958 125.089 159.573 125.672C159.282 126.109 159.224 127.065 158.268 126.453C158.152 126.377 158 126.506 157.93 126.657C157.33 127.928 156.544 128.936 155.204 129.618C154.435 130.014 154.021 131.086 153.433 131.844C153.328 131.978 153.182 132.083 153.054 132.199C153.048 132.205 153.066 132.223 153.066 132.223Z" fill="#4ECB71"/>
<path d="M193.304 143.249C194.003 143.243 194.446 143.628 194.691 144.205C195.11 145.166 195.576 146.099 196.071 147.026C196.631 148.063 196.409 148.768 195.372 149.333C194.079 150.039 192.733 150.633 191.428 151.315C190.991 151.542 190.869 151.362 190.7 151.012C189.913 149.386 189.109 147.777 188.311 146.157C188.189 145.907 187.956 145.662 188.404 145.452C189.867 144.759 191.317 144.036 192.78 143.342C192.943 143.261 193.147 143.272 193.304 143.249ZM194.772 147.661C194.615 147.317 194.545 146.862 193.945 147.195C193.176 147.614 192.389 148.005 191.585 148.349C191.131 148.541 191.201 148.751 191.37 149.1C191.55 149.473 191.719 149.596 192.121 149.368C192.855 148.96 193.619 148.599 194.376 148.232C194.615 148.115 194.836 148.005 194.772 147.661ZM193.648 145.423C193.52 145.102 193.461 144.59 192.873 144.858C192.011 145.254 191.183 145.714 190.327 146.122C189.972 146.291 190.047 146.489 190.199 146.728C190.333 146.95 190.344 147.364 190.793 147.136C191.673 146.693 192.558 146.25 193.438 145.808C193.572 145.738 193.671 145.639 193.648 145.423Z" fill="white"/>
<path d="M162.497 152.72C161.052 152.504 160.428 151.991 160.51 150.826C160.574 149.922 160.731 149.13 161.798 148.914C162.974 148.669 163.889 149.182 164.507 150.523C165.258 149.468 166.161 148.827 167.507 149.421C166.732 150.179 165.957 150.942 165.025 151.851C165.783 152.02 166.336 152.183 166.656 152.696C166.971 153.203 166.849 153.769 166.796 154.311C166.715 155.185 166.19 155.61 165.351 155.698C164.099 155.826 163.411 155.389 162.904 154.078C162.089 155.004 161.244 155.843 159.863 155.138C160.644 154.416 161.448 153.681 162.497 152.72ZM165.101 154.247C165.316 154.217 165.439 154.048 165.41 153.745C165.375 153.407 165.136 153.361 164.874 153.367C164.571 153.372 164.547 153.623 164.524 153.827C164.478 154.171 164.734 154.229 165.101 154.247ZM162.829 150.756C162.864 150.383 162.613 150.342 162.345 150.359C162.106 150.371 161.943 150.488 161.932 150.756C161.914 151.094 162.112 151.199 162.392 151.216C162.724 151.239 162.84 151.059 162.829 150.756Z" fill="white"/>
<path d="M204.741 134.892C205.394 134.84 205.761 135.078 206.064 135.417C206.833 136.262 207.596 137.112 208.348 137.975C208.959 138.668 208.959 139.432 208.324 140.056C207.194 141.163 205.982 142.189 204.829 143.273C204.485 143.593 204.322 143.366 204.124 143.144C202.918 141.798 201.718 140.452 200.517 139.106C200.313 138.878 200.092 138.657 200.424 138.365C201.677 137.281 202.918 136.186 204.188 135.119C204.368 134.962 204.654 134.927 204.741 134.892ZM204.613 141.507C205.376 140.831 206.11 140.16 206.868 139.519C207.27 139.181 207.246 138.925 206.932 138.517C205.038 136.075 205.05 136.069 202.778 138.191C202.725 138.243 202.667 138.284 202.609 138.33C202.259 138.599 202.172 138.832 202.539 139.211C203.261 139.933 203.92 140.726 204.613 141.507Z" fill="white"/>
<path d="M174.666 150.313C174.683 149.52 175.08 149.007 175.802 148.844C177.055 148.559 178.319 148.302 179.595 148.133C180.434 148.022 181.028 148.477 181.174 149.328C181.22 149.596 181.628 150.08 180.97 150.196C180.579 150.266 180.049 150.75 179.845 149.922C179.752 149.549 179.461 149.596 179.14 149.625C176.14 149.887 175.936 150.19 176.653 153.087C176.787 153.641 176.991 153.833 177.527 153.716C178.284 153.559 179.041 153.419 179.799 153.273C180.09 153.215 180.416 153.18 180.358 152.761C180.23 151.857 181.011 152.096 181.389 152.038C181.937 151.95 181.797 152.527 181.844 152.848C181.972 153.775 181.482 154.346 180.638 154.55C179.496 154.824 178.336 155.051 177.171 155.22C176.373 155.337 175.662 155.068 175.458 154.2C175.15 152.918 174.922 151.612 174.666 150.313Z" fill="white"/>
<path d="M150.17 33.6665C150.188 34.0511 149.926 34.0861 149.675 34.1735C148.906 34.4357 148.154 34.7271 147.385 34.9836C147.042 35.1001 146.779 35.1526 146.96 35.648C147.123 36.0909 147.315 36.0909 147.683 35.951C148.685 35.578 149.693 35.24 150.7 34.8845C151.114 34.7388 151.382 34.6689 151.609 35.2458C151.86 35.8986 151.446 35.9335 151.091 36.0617C149.774 36.5396 148.446 36.9767 147.141 37.4663C146.57 37.6819 146.337 37.5712 146.15 36.9534C145.748 35.613 145.276 34.2959 144.758 32.9962C144.519 32.4076 144.711 32.227 145.23 32.0521C146.593 31.5975 147.945 31.1138 149.291 30.6184C149.704 30.4669 149.931 30.4961 150.112 30.9623C150.322 31.5043 150.106 31.6616 149.64 31.8132C148.655 32.1221 147.688 32.4834 146.721 32.8331C146.436 32.938 146.034 32.9496 146.209 33.4741C146.366 33.9345 146.581 33.9986 147.024 33.8122C147.77 33.5033 148.574 33.3226 149.308 33.0021C150.112 32.6524 149.961 33.3692 150.17 33.6665Z" fill="white"/>
<path d="M125.139 52.3276C125.133 53.1494 124.725 53.5515 124.382 53.9769C121.987 56.9375 122.115 56.8734 119.29 54.4956C117.921 53.3475 117.868 52.9046 119.016 51.5117C119.459 50.9697 119.913 50.4394 120.362 49.9032C120.606 49.6176 120.892 49.3787 121.265 49.3088C121.731 49.2213 122.267 49.3437 122.395 49.7692C122.494 50.1014 122.115 50.4743 121.696 50.6142C120.636 50.9697 120.315 52.0537 119.604 52.7531C119.47 52.8813 119.529 53.1027 119.692 53.2426C120.315 53.7613 120.927 54.2975 121.574 54.7812C122.104 55.1775 122.319 54.6122 122.477 54.3266C122.849 53.6389 123.951 53.3417 123.642 52.316C123.56 52.0362 123.199 51.8031 122.89 52.246C122.657 52.5782 122.372 52.8696 122.133 53.196C121.83 53.6156 121.568 53.4874 121.236 53.2135C120.909 52.9454 120.863 52.7414 121.16 52.4209C121.515 52.0479 121.783 51.5816 122.162 51.2495C122.512 50.9464 122.681 50.0606 123.228 50.4161C124.015 50.9289 124.982 51.4126 125.139 52.3276Z" fill="white"/>
<path d="M161.219 29.8025C161.143 28.0075 161.143 28.0133 162.972 27.9142C163.969 27.8559 164.959 27.786 165.955 27.7161C166.392 27.6869 166.806 27.547 166.841 28.2872C166.87 28.9749 166.451 28.87 166.078 28.8991C165.087 28.9749 164.091 29.0273 163.095 29.0914C162.699 29.1148 162.355 29.1672 162.407 29.715C162.454 30.2162 162.78 30.1813 163.118 30.1521C163.887 30.0939 164.662 30.0356 165.431 29.9773C165.798 29.9482 166.13 29.8491 166.165 30.461C166.194 31.0088 165.996 31.207 165.513 31.2303C164.813 31.2653 164.108 31.2594 163.409 31.3352C163.071 31.3702 162.565 31.1953 162.57 31.8947C162.576 32.6348 163.083 32.3842 163.415 32.3726C164.411 32.3318 165.402 32.2444 166.398 32.1686C166.8 32.1395 167.126 32.1453 167.126 32.7048C167.126 33.1593 167.016 33.3633 166.515 33.3866C165.041 33.4566 163.567 33.5556 162.104 33.7013C161.603 33.748 161.463 33.5964 161.446 33.1302C161.388 32.0112 161.294 30.9098 161.219 29.8025Z" fill="white"/>
<path d="M132.02 42.0469C132.515 42.7812 132.993 43.5272 133.505 44.2382C133.768 44.5996 133.82 44.8152 133.389 45.1182C132.999 45.3863 132.8 45.4038 132.527 44.9959C131.699 43.772 130.86 42.5539 129.992 41.365C129.672 40.9279 129.724 40.6948 130.167 40.4034C131.093 39.7973 131.991 39.1504 132.899 38.521C133.558 38.0606 134.257 37.8217 134.886 38.4977C135.527 39.1854 136.127 39.943 135.3 40.9163C135.23 40.9921 135.195 41.097 135.102 41.2718C135.964 41.5166 136.797 41.7497 137.648 41.9945C137.024 42.8045 136.337 42.9736 135.393 42.6414C134.391 42.2859 133.325 42.111 132.288 41.8546C132.731 41.1319 133.552 40.8755 134.152 40.351C134.368 40.1645 134.496 40.0013 134.292 39.7041C134.088 39.4127 133.884 39.2961 133.569 39.5176C133.115 39.8323 132.69 40.1995 132.2 40.4501C131.309 40.9163 131.245 41.4175 132.02 42.0469Z" fill="white"/>
<path d="M178.967 30.4436C178.705 31.7258 178.495 32.6524 178.338 33.5849C178.256 34.0628 178.081 34.2085 177.598 34.0686C177.184 33.9462 176.998 33.8588 177.126 33.3343C177.452 32.0114 177.656 30.6651 177.965 29.3363C178.035 29.0275 177.883 28.4621 178.361 28.4388C178.833 28.4155 179.357 28.4855 179.643 29.0741C180.173 30.1639 180.785 31.2129 181.367 32.2794C181.449 32.4251 181.472 32.6466 181.822 32.6524C181.991 31.8365 182.142 30.9915 182.358 30.1639C182.445 29.8259 182.224 29.1906 183.039 29.348C183.744 29.482 183.674 29.8259 183.552 30.3562C183.261 31.6092 183.033 32.8797 182.76 34.1385C182.69 34.4649 182.818 34.9894 182.305 34.9953C181.857 35.0011 181.379 34.937 181.105 34.395C180.482 33.1595 179.788 31.9472 178.967 30.4436Z" fill="white"/>
<path d="M205.631 46.4061C205.154 46.4236 204.786 46.1847 204.431 45.9166C203.755 45.3979 203.074 44.8909 202.421 44.3489C201.757 43.801 201.605 43.1192 202.13 42.3965C202.718 41.5923 203.342 40.8113 203.971 40.0362C204.46 39.4359 205.084 39.2844 205.73 39.7448C206.598 40.3684 207.443 41.0269 208.27 41.7088C208.777 42.1284 208.975 42.7345 208.597 43.2882C207.933 44.2614 207.175 45.1706 206.435 46.0914C206.243 46.3362 205.946 46.4178 205.631 46.4061ZM205.089 40.823C204.816 40.8113 204.728 41.0386 204.594 41.2076C204.274 41.6097 204.006 42.0585 203.645 42.414C203.01 43.0492 203.161 43.4339 203.849 43.9409C205.62 45.2464 205.602 45.2813 206.965 43.4689C207.152 43.2241 207.478 43.0259 207.408 42.6413C207.385 42.4839 205.253 40.823 205.089 40.823Z" fill="white"/>
<path d="M137.83 116.732C139.577 116.866 141.325 116.995 143.073 117.129C143.166 116.738 142.677 116.843 142.677 116.458C144.052 116.185 145.497 116.144 146.942 116.155C147.163 116.155 147.419 116.278 147.6 116.196C150.245 115.031 152.75 117.21 154.154 116.732C150.175 117.228 144.967 117.682 139.723 117.816C138.919 117.84 138.377 117.333 137.748 117C137.783 116.919 137.806 116.826 137.83 116.732Z" fill="#4ECB71"/>
<path d="M222.435 67.4509C222.365 67.7831 222.015 67.7715 221.794 67.923C221.573 68.0687 221.421 68.092 221.281 67.8006C220.565 66.3086 219.836 64.8225 219.096 63.3422C218.875 62.8993 219.219 62.8585 219.469 62.7361C220.821 62.0717 222.184 61.4307 223.53 60.743C223.92 60.5448 224.084 60.5973 224.282 60.9877C224.486 61.3899 224.526 61.6346 224.06 61.8444C223.221 62.2233 222.423 62.7012 221.567 63.0159C220.611 63.3714 220.565 63.8376 221.06 64.6419C221.503 65.3587 221.817 66.1513 222.19 66.9147C222.272 67.0838 222.342 67.2528 222.435 67.4509Z" fill="white"/>
<path d="M217.703 51.2726C217.511 51.4475 217.354 51.5932 217.191 51.7272C216.084 52.6306 214.965 53.5164 213.87 54.4372C213.538 54.717 213.334 54.816 212.996 54.4139C212.635 53.9885 212.722 53.7728 213.118 53.4581C214.272 52.5548 215.396 51.6107 216.544 50.7015C216.707 50.5733 216.87 50.2061 217.161 50.5383C217.348 50.754 217.505 50.9987 217.703 51.2726Z" fill="white"/>
<path d="M138.557 117.909C138.079 117.968 137.91 118.008 137.741 118.008C135.865 118.014 133.989 118.008 132.096 118.008C132.655 117.058 135.987 116.954 138.557 117.909Z" fill="#4ECB71"/>
<path d="M182.794 131.966C182.922 132.048 183.015 132.211 182.899 132.299C182.753 132.403 182.724 132.182 182.637 132.106C182.689 132.054 182.742 132.007 182.794 131.966Z" fill="#4ECB71"/>
<path d="M109.672 90.8325C109.654 90.7451 109.642 90.6577 109.625 90.5645C109.701 90.5994 109.776 90.6344 109.852 90.6694C109.794 90.7276 109.73 90.7801 109.672 90.8325Z" fill="#4ECB71"/>
<path d="M122.686 119.77C122.643 119.764 122.601 119.758 122.553 119.752C122.571 119.746 122.595 119.722 122.601 119.728C122.625 119.746 122.649 119.77 122.668 119.788C122.674 119.788 122.686 119.77 122.686 119.77Z" fill="#4ECB71"/>
<path d="M153.046 132.205C153.011 132.257 152.977 132.309 152.942 132.361C152.89 132.234 152.901 132.164 153.063 132.222L153.046 132.205Z" fill="#4ECB71"/>
<path d="M130.855 68.3721C132.999 71.2278 135.143 74.0835 137.293 76.9391C146.096 88.6067 155.22 100.018 164.891 110.986C165.013 111.12 165.112 111.277 165.217 111.423L165.24 111.411C164.809 111.575 164.681 111.172 164.489 110.968C152.248 97.9605 141.22 83.9909 131.176 69.2288C131.012 68.9898 130.919 68.7101 130.791 68.4478L130.855 68.3721Z" fill="#1F2120"/>
<path d="M131.04 68.1621C130.615 67.8766 130.405 67.4395 130.207 66.9907L130.189 67.0024C130.755 67.1481 130.889 67.6493 131.098 68.0864C131.104 68.0922 131.04 68.1621 131.04 68.1621Z" fill="#1F2120"/>
<path d="M129.765 66.3203C129.59 66.0638 129.415 65.8016 129.24 65.5452C129.269 65.5277 129.293 65.5102 129.322 65.4985C129.467 65.7783 129.607 66.058 129.753 66.3436C129.747 66.3378 129.765 66.3203 129.765 66.3203Z" fill="#1F2120"/>
<path d="M130.208 66.9905C129.964 66.8332 129.859 66.5826 129.766 66.3203L129.748 66.3378C130.098 66.4252 130.272 66.6292 130.191 67.0022L130.208 66.9905Z" fill="#1F2120"/>
<path d="M166.127 112.035C166.214 112.064 166.296 112.093 166.383 112.122C166.36 112.163 166.337 112.198 166.313 112.239C166.255 112.169 166.203 112.093 166.144 112.023C166.144 112.017 166.127 112.035 166.127 112.035Z" fill="#1F2120"/>
<path d="M165.672 111.592C166.039 111.522 166.097 111.761 166.126 112.035L166.144 112.023C165.905 111.965 165.777 111.796 165.695 111.58C165.695 111.574 165.672 111.592 165.672 111.592Z" fill="#1F2120"/>
<path d="M165.469 111.137C165.632 111.248 165.824 111.341 165.672 111.592L165.696 111.58C165.533 111.47 165.305 111.394 165.492 111.126C165.492 111.12 165.469 111.137 165.469 111.137Z" fill="#1F2120"/>
<path d="M144.838 100.268C144.884 100.297 144.937 100.326 144.984 100.356C144.855 100.431 144.826 100.379 144.855 100.257C144.861 100.251 144.838 100.268 144.838 100.268Z" fill="#1F2120"/>
<path d="M204.74 68.3367C202.91 71.4605 200.813 74.4095 198.768 77.3934C192.878 85.9954 186.726 94.3993 180.084 102.436C177.66 105.367 175.178 108.241 172.562 111.003C172.277 110.776 172.487 110.648 172.58 110.537C183.09 98.2982 192.464 85.2028 201.809 72.0783C202.73 70.7845 203.662 69.5023 204.588 68.2144C204.641 68.2552 204.693 68.2959 204.74 68.3367Z" fill="#1F2120"/>
<path d="M206.51 65.6733C205.928 66.565 205.479 67.5441 204.745 68.3309C204.693 68.2901 204.646 68.2493 204.594 68.2026C205.194 67.3285 205.718 66.396 206.522 65.685L206.51 65.6733Z" fill="#1F2120"/>
<path d="M171.025 112.471C171.124 112.128 171.299 111.86 171.689 111.807L171.678 111.795C171.555 112.122 171.404 112.407 171.008 112.454L171.025 112.471Z" fill="#1F2120"/>
<path d="M171.009 112.455C170.986 112.74 170.869 112.921 170.549 112.88L170.566 112.898C170.683 112.717 170.794 112.525 171.032 112.472C171.027 112.472 171.009 112.455 171.009 112.455Z" fill="#1F2120"/>
<path d="M206.523 65.6909C206.535 65.6268 206.547 65.5685 206.558 65.5044C206.553 65.5335 206.553 65.5627 206.547 65.586C206.535 65.6151 206.523 65.6443 206.512 65.6734L206.523 65.6909Z" fill="#1F2120"/>
<path d="M193.41 100.262C193.38 100.384 193.305 100.437 193.182 100.396C193.165 100.39 193.153 100.315 193.165 100.303C193.241 100.239 193.322 100.157 193.427 100.274L193.41 100.262Z" fill="#1F2120"/>
<path d="M193.747 100.186C193.637 100.21 193.526 100.233 193.415 100.256L193.433 100.268C193.305 100.07 193.485 100.047 193.596 99.9883C193.643 100.058 193.695 100.122 193.747 100.186Z" fill="#1F2120"/>
<path d="M172.062 111.283C172.103 111.196 172.167 111.056 172.266 111.166C172.36 111.265 172.249 111.341 172.138 111.37C172.109 111.341 172.086 111.312 172.062 111.283Z" fill="#1F2120"/>
<path d="M171.9 111.575C171.836 111.411 171.929 111.336 172.063 111.283C172.086 111.312 172.109 111.341 172.138 111.371C172.121 111.51 172.045 111.58 171.9 111.575Z" fill="#1F2120"/>
<path d="M171.907 111.58C171.901 111.726 171.831 111.801 171.68 111.796L171.691 111.807C171.662 111.632 171.72 111.551 171.907 111.58C171.901 111.574 171.907 111.58 171.907 111.58Z" fill="#1F2120"/>
<path d="M118.883 96.7305C131.753 102.325 144.762 107.512 158.179 112.343C154.282 112.099 127.954 101.649 118.883 96.7305Z" fill="#1F2120"/>
<path d="M216.464 96.9229C216.365 97.3658 215.934 97.3949 215.636 97.5406C203.775 103.468 191.697 108.876 179.096 113.06C178.192 113.358 177.254 113.55 176.334 113.789L176.351 113.806C183.145 111.155 189.961 108.561 196.638 105.618C202.877 102.867 209.111 100.099 215.345 97.3483C215.712 97.1851 216.05 96.9403 216.475 96.9403C216.481 96.9403 216.464 96.9229 216.464 96.9229Z" fill="#1F2120"/>
<path d="M217.828 96.2761C218.044 96.2062 218.265 96.1304 218.481 96.0605L218.492 96.0547C218.265 96.1246 218.038 96.1946 217.811 96.2645C217.811 96.2587 217.828 96.2761 217.828 96.2761Z" fill="#1F2120"/>
<path d="M176.338 113.789C176.292 113.829 176.246 113.876 176.199 113.916C176.251 113.881 176.304 113.841 176.356 113.806L176.338 113.789Z" fill="#1F2120"/>
<path d="M217.332 96.4565C217.326 96.7712 217.099 96.6955 216.918 96.7013L216.935 96.7188C217.075 96.6372 217.215 96.5556 217.349 96.474L217.332 96.4565Z" fill="#1F2120"/>
<path d="M217.344 96.474C217.501 96.4099 217.664 96.3457 217.821 96.2816L217.804 96.2642C217.722 96.5089 217.513 96.4681 217.326 96.4623C217.332 96.4565 217.344 96.474 217.344 96.474Z" fill="#1F2120"/>
<path d="M216.911 96.7017C216.871 96.9872 216.667 96.9522 216.463 96.9231L216.475 96.9406C216.562 96.7425 216.754 96.7541 216.923 96.7191C216.929 96.7191 216.911 96.7017 216.911 96.7017Z" fill="#1F2120"/>
<path d="M218.48 96.0646L218.513 96.0195L218.493 96.0582L218.48 96.0646Z" fill="#1F2120"/>
<path d="M174.031 115.759C184.233 117.373 194.533 117.979 204.874 118.084C194.481 118.941 184.209 118.125 174.031 115.759Z" fill="#1F2120"/>
<path d="M171.351 118.999C171.27 118.9 171.247 118.807 171.351 118.708C171.392 118.766 171.433 118.818 171.474 118.877C171.439 118.917 171.398 118.958 171.351 118.999Z" fill="#1F2120"/>
<path d="M150.261 151.688C149.219 151.28 148.112 150.872 147.034 150.412C146.649 150.249 146.871 149.911 146.976 149.642C147.302 148.78 147.663 147.935 147.937 147.061C148.123 146.484 148.403 146.42 148.916 146.635C149.795 147.002 150.693 147.34 151.59 147.667C151.957 147.801 152.143 147.958 151.963 148.389C151.572 149.339 151.223 150.313 150.861 151.274C150.762 151.531 150.658 151.758 150.261 151.688Z" fill="#1F2120"/>
<path d="M164.361 118.894C164.39 118.842 164.425 118.783 164.455 118.731C164.478 118.772 164.507 118.813 164.53 118.853C164.484 118.877 164.437 118.9 164.39 118.929L164.361 118.894Z" fill="#1F2120"/>
<path d="M194.772 147.661C194.836 148.005 194.615 148.115 194.37 148.238C193.613 148.605 192.849 148.966 192.115 149.374C191.713 149.596 191.544 149.479 191.364 149.106C191.195 148.756 191.125 148.547 191.579 148.354C192.383 148.01 193.17 147.62 193.939 147.2C194.551 146.862 194.615 147.311 194.772 147.661Z" fill="#1F2120"/>
<path d="M193.649 145.423C193.673 145.639 193.574 145.738 193.44 145.808C192.56 146.251 191.674 146.688 190.795 147.136C190.346 147.364 190.34 146.95 190.2 146.728C190.055 146.489 189.979 146.291 190.328 146.122C191.185 145.72 192.018 145.254 192.874 144.858C193.463 144.59 193.521 145.102 193.649 145.423Z" fill="#1F2120"/>
<path d="M165.1 154.247C164.733 154.229 164.476 154.171 164.523 153.821C164.546 153.617 164.57 153.367 164.873 153.361C165.141 153.355 165.379 153.407 165.409 153.74C165.438 154.048 165.315 154.218 165.1 154.247Z" fill="#1F2120"/>
<path d="M162.829 150.756C162.84 151.059 162.718 151.239 162.392 151.216C162.106 151.193 161.908 151.088 161.932 150.756C161.949 150.487 162.106 150.371 162.345 150.359C162.613 150.342 162.864 150.383 162.829 150.756Z" fill="#1F2120"/>
<path d="M204.612 141.507C203.913 140.726 203.254 139.939 202.538 139.204C202.171 138.826 202.258 138.593 202.608 138.324C202.666 138.278 202.724 138.231 202.777 138.185C205.049 136.063 205.037 136.069 206.931 138.511C207.245 138.919 207.263 139.181 206.867 139.513C206.109 140.154 205.381 140.825 204.612 141.507Z" fill="#1F2120"/>
<path d="M132.019 42.047C131.25 41.4176 131.314 40.9164 132.211 40.4502C132.7 40.1996 133.126 39.8324 133.58 39.5177C133.895 39.2963 134.099 39.4128 134.303 39.7042C134.506 40.0014 134.378 40.1588 134.163 40.3511C133.563 40.8756 132.741 41.1262 132.298 41.8547C132.199 41.9188 132.106 41.9829 132.019 42.047Z" fill="#1F2120"/>
<path d="M205.092 40.8232C205.249 40.8232 207.382 42.4841 207.411 42.6415C207.481 43.0261 207.154 43.2185 206.968 43.4691C205.605 45.2816 205.622 45.2466 203.851 43.9411C203.163 43.4341 203.012 43.0495 203.647 42.4142C204.008 42.0529 204.282 41.61 204.597 41.2078C204.731 41.0388 204.824 40.8115 205.092 40.8232Z" fill="#1F2120"/>
</g>
<defs>
<clipPath id="clip0_49_3406">
<rect width="143" height="143" fill="white" transform="translate(97 20)"/>
</clipPath>
</defs>
</svg>
