<svg width="330" height="49" viewBox="0 0 330 49" fill="none" xmlns="http://www.w3.org/2000/svg">
<rect width="330" height="49" rx="5" fill="#FFD233"/>
<path d="M76.562 20.1C77.616 20.1 78.5283 20.2757 79.299 20.627C80.081 20.9783 80.6817 21.477 81.101 22.123C81.5203 22.769 81.73 23.534 81.73 24.418C81.73 25.2907 81.5203 26.0557 81.101 26.713C80.6817 27.359 80.081 27.8577 79.299 28.209C78.5283 28.549 77.616 28.719 76.562 28.719H74.165V32H71.411V20.1H76.562ZM76.409 26.475C77.2363 26.475 77.8653 26.2993 78.296 25.948C78.7267 25.5853 78.942 25.0753 78.942 24.418C78.942 23.7493 78.7267 23.2393 78.296 22.888C77.8653 22.5253 77.2363 22.344 76.409 22.344H74.165V26.475H76.409ZM86.0422 24.061C86.3595 23.619 86.7845 23.2847 87.3172 23.058C87.8612 22.8313 88.4845 22.718 89.1872 22.718V25.166C88.8925 25.1433 88.6942 25.132 88.5922 25.132C87.8328 25.132 87.2378 25.3473 86.8072 25.778C86.3765 26.1973 86.1612 26.832 86.1612 27.682V32H83.5092V22.854H86.0422V24.061ZM99.64 27.461C99.64 27.495 99.623 27.733 99.589 28.175H92.67C92.7947 28.7417 93.0894 29.1893 93.554 29.518C94.0187 29.8467 94.5967 30.011 95.288 30.011C95.764 30.011 96.1834 29.943 96.546 29.807C96.92 29.6597 97.2657 29.433 97.583 29.127L98.994 30.657C98.1327 31.643 96.8747 32.136 95.22 32.136C94.1887 32.136 93.2764 31.9377 92.483 31.541C91.6897 31.133 91.0777 30.572 90.647 29.858C90.2164 29.144 90.001 28.3337 90.001 27.427C90.001 26.5317 90.2107 25.727 90.63 25.013C91.0607 24.2877 91.6444 23.7267 92.381 23.33C93.129 22.922 93.962 22.718 94.88 22.718C95.7754 22.718 96.5857 22.9107 97.311 23.296C98.0364 23.6813 98.603 24.2367 99.011 24.962C99.4304 25.676 99.64 26.509 99.64 27.461ZM94.897 24.724C94.2964 24.724 93.792 24.894 93.384 25.234C92.976 25.574 92.7267 26.0387 92.636 26.628H97.141C97.0504 26.05 96.801 25.591 96.393 25.251C95.985 24.8997 95.4864 24.724 94.897 24.724ZM104.313 23.058H106.659V25.098H104.381V32H101.729V25.098H100.318V23.058H101.729V22.65C101.729 21.6073 102.035 20.78 102.647 20.168C103.27 19.556 104.143 19.25 105.265 19.25C105.661 19.25 106.035 19.2953 106.387 19.386C106.749 19.4653 107.05 19.5843 107.288 19.743L106.591 21.664C106.285 21.4487 105.928 21.341 105.52 21.341C104.715 21.341 104.313 21.783 104.313 22.667V23.058ZM109.345 22.854H111.997V32H109.345V22.854ZM110.671 21.579C110.183 21.579 109.787 21.4373 109.481 21.154C109.175 20.8707 109.022 20.5193 109.022 20.1C109.022 19.6807 109.175 19.3293 109.481 19.046C109.787 18.7627 110.183 18.621 110.671 18.621C111.158 18.621 111.555 18.757 111.861 19.029C112.167 19.301 112.32 19.641 112.32 20.049C112.32 20.491 112.167 20.8593 111.861 21.154C111.555 21.4373 111.158 21.579 110.671 21.579ZM123.413 27.461C123.413 27.495 123.396 27.733 123.362 28.175H116.443C116.568 28.7417 116.863 29.1893 117.327 29.518C117.792 29.8467 118.37 30.011 119.061 30.011C119.537 30.011 119.957 29.943 120.319 29.807C120.693 29.6597 121.039 29.433 121.356 29.127L122.767 30.657C121.906 31.643 120.648 32.136 118.993 32.136C117.962 32.136 117.05 31.9377 116.256 31.541C115.463 31.133 114.851 30.572 114.42 29.858C113.99 29.144 113.774 28.3337 113.774 27.427C113.774 26.5317 113.984 25.727 114.403 25.013C114.834 24.2877 115.418 23.7267 116.154 23.33C116.902 22.922 117.735 22.718 118.653 22.718C119.549 22.718 120.359 22.9107 121.084 23.296C121.81 23.6813 122.376 24.2367 122.784 24.962C123.204 25.676 123.413 26.509 123.413 27.461ZM118.67 24.724C118.07 24.724 117.565 24.894 117.157 25.234C116.749 25.574 116.5 26.0387 116.409 26.628H120.914C120.824 26.05 120.574 25.591 120.166 25.251C119.758 24.8997 119.26 24.724 118.67 24.724ZM127.712 24.061C128.029 23.619 128.454 23.2847 128.987 23.058C129.531 22.8313 130.154 22.718 130.857 22.718V25.166C130.562 25.1433 130.364 25.132 130.262 25.132C129.503 25.132 128.908 25.3473 128.477 25.778C128.046 26.1973 127.831 26.832 127.831 27.682V32H125.179V22.854H127.712V24.061ZM136.703 32.136C135.74 32.136 134.873 31.9377 134.102 31.541C133.343 31.133 132.748 30.572 132.317 29.858C131.886 29.144 131.671 28.3337 131.671 27.427C131.671 26.5203 131.886 25.71 132.317 24.996C132.748 24.282 133.343 23.7267 134.102 23.33C134.873 22.922 135.74 22.718 136.703 22.718C137.666 22.718 138.528 22.922 139.287 23.33C140.046 23.7267 140.641 24.282 141.072 24.996C141.503 25.71 141.718 26.5203 141.718 27.427C141.718 28.3337 141.503 29.144 141.072 29.858C140.641 30.572 140.046 31.133 139.287 31.541C138.528 31.9377 137.666 32.136 136.703 32.136ZM136.703 29.96C137.383 29.96 137.938 29.7333 138.369 29.28C138.811 28.8153 139.032 28.1977 139.032 27.427C139.032 26.6563 138.811 26.0443 138.369 25.591C137.938 25.1263 137.383 24.894 136.703 24.894C136.023 24.894 135.462 25.1263 135.02 25.591C134.578 26.0443 134.357 26.6563 134.357 27.427C134.357 28.1977 134.578 28.8153 135.02 29.28C135.462 29.7333 136.023 29.96 136.703 29.96ZM151.994 22.718C153.411 22.718 154.499 23.058 155.258 23.738C156.017 24.4067 156.397 25.421 156.397 26.781V32H153.915V30.861C153.416 31.711 152.487 32.136 151.127 32.136C150.424 32.136 149.812 32.017 149.291 31.779C148.781 31.541 148.39 31.2123 148.118 30.793C147.846 30.3737 147.71 29.8977 147.71 29.365C147.71 28.515 148.027 27.8463 148.662 27.359C149.308 26.8717 150.3 26.628 151.637 26.628H153.745C153.745 26.05 153.569 25.608 153.218 25.302C152.867 24.9847 152.34 24.826 151.637 24.826C151.15 24.826 150.668 24.9053 150.192 25.064C149.727 25.2113 149.331 25.4153 149.002 25.676L148.05 23.823C148.549 23.4717 149.144 23.1997 149.835 23.007C150.538 22.8143 151.257 22.718 151.994 22.718ZM151.79 30.351C152.243 30.351 152.646 30.249 152.997 30.045C153.348 29.8297 153.598 29.518 153.745 29.11V28.175H151.926C150.838 28.175 150.294 28.532 150.294 29.246C150.294 29.586 150.424 29.858 150.685 30.062C150.957 30.2547 151.325 30.351 151.79 30.351ZM161.874 32.136C161.115 32.136 160.373 32.0453 159.647 31.864C158.922 31.6713 158.344 31.4333 157.913 31.15L158.797 29.246C159.205 29.5067 159.698 29.722 160.276 29.892C160.854 30.0507 161.421 30.13 161.976 30.13C163.098 30.13 163.659 29.8523 163.659 29.297C163.659 29.0363 163.506 28.8493 163.2 28.736C162.894 28.6227 162.424 28.5263 161.789 28.447C161.041 28.3337 160.424 28.2033 159.936 28.056C159.449 27.9087 159.024 27.648 158.661 27.274C158.31 26.9 158.134 26.3673 158.134 25.676C158.134 25.098 158.299 24.588 158.627 24.146C158.967 23.6927 159.455 23.3413 160.089 23.092C160.735 22.8427 161.495 22.718 162.367 22.718C163.013 22.718 163.654 22.7917 164.288 22.939C164.934 23.075 165.467 23.2677 165.886 23.517L165.002 25.404C164.198 24.9507 163.319 24.724 162.367 24.724C161.801 24.724 161.376 24.8033 161.092 24.962C160.809 25.1207 160.667 25.3247 160.667 25.574C160.667 25.8573 160.82 26.0557 161.126 26.169C161.432 26.2823 161.92 26.39 162.588 26.492C163.336 26.6167 163.948 26.7527 164.424 26.9C164.9 27.036 165.314 27.291 165.665 27.665C166.017 28.039 166.192 28.5603 166.192 29.229C166.192 29.7957 166.022 30.3 165.682 30.742C165.342 31.184 164.844 31.5297 164.186 31.779C163.54 32.017 162.77 32.136 161.874 32.136ZM176.787 27.461C176.787 27.495 176.77 27.733 176.736 28.175H169.817C169.942 28.7417 170.237 29.1893 170.701 29.518C171.166 29.8467 171.744 30.011 172.435 30.011C172.911 30.011 173.331 29.943 173.693 29.807C174.067 29.6597 174.413 29.433 174.73 29.127L176.141 30.657C175.28 31.643 174.022 32.136 172.367 32.136C171.336 32.136 170.424 31.9377 169.63 31.541C168.837 31.133 168.225 30.572 167.794 29.858C167.364 29.144 167.148 28.3337 167.148 27.427C167.148 26.5317 167.358 25.727 167.777 25.013C168.208 24.2877 168.792 23.7267 169.528 23.33C170.276 22.922 171.109 22.718 172.027 22.718C172.923 22.718 173.733 22.9107 174.458 23.296C175.184 23.6813 175.75 24.2367 176.158 24.962C176.578 25.676 176.787 26.509 176.787 27.461ZM172.044 24.724C171.444 24.724 170.939 24.894 170.531 25.234C170.123 25.574 169.874 26.0387 169.783 26.628H174.288C174.198 26.05 173.948 25.591 173.54 25.251C173.132 24.8997 172.634 24.724 172.044 24.724ZM181.63 32.136C180.871 32.136 180.128 32.0453 179.403 31.864C178.678 31.6713 178.1 31.4333 177.669 31.15L178.553 29.246C178.961 29.5067 179.454 29.722 180.032 29.892C180.61 30.0507 181.177 30.13 181.732 30.13C182.854 30.13 183.415 29.8523 183.415 29.297C183.415 29.0363 183.262 28.8493 182.956 28.736C182.65 28.6227 182.18 28.5263 181.545 28.447C180.797 28.3337 180.179 28.2033 179.692 28.056C179.205 27.9087 178.78 27.648 178.417 27.274C178.066 26.9 177.89 26.3673 177.89 25.676C177.89 25.098 178.054 24.588 178.383 24.146C178.723 23.6927 179.21 23.3413 179.845 23.092C180.491 22.8427 181.25 22.718 182.123 22.718C182.769 22.718 183.409 22.7917 184.044 22.939C184.69 23.075 185.223 23.2677 185.642 23.517L184.758 25.404C183.953 24.9507 183.075 24.724 182.123 24.724C181.556 24.724 181.131 24.8033 180.848 24.962C180.565 25.1207 180.423 25.3247 180.423 25.574C180.423 25.8573 180.576 26.0557 180.882 26.169C181.188 26.2823 181.675 26.39 182.344 26.492C183.092 26.6167 183.704 26.7527 184.18 26.9C184.656 27.036 185.07 27.291 185.421 27.665C185.772 28.039 185.948 28.5603 185.948 29.229C185.948 29.7957 185.778 30.3 185.438 30.742C185.098 31.184 184.599 31.5297 183.942 31.779C183.296 32.017 182.525 32.136 181.63 32.136ZM191.936 32.136C190.973 32.136 190.106 31.9377 189.335 31.541C188.576 31.133 187.981 30.572 187.55 29.858C187.12 29.144 186.904 28.3337 186.904 27.427C186.904 26.5203 187.12 25.71 187.55 24.996C187.981 24.282 188.576 23.7267 189.335 23.33C190.106 22.922 190.973 22.718 191.936 22.718C192.9 22.718 193.761 22.922 194.52 23.33C195.28 23.7267 195.875 24.282 196.305 24.996C196.736 25.71 196.951 26.5203 196.951 27.427C196.951 28.3337 196.736 29.144 196.305 29.858C195.875 30.572 195.28 31.133 194.52 31.541C193.761 31.9377 192.9 32.136 191.936 32.136ZM191.936 29.96C192.616 29.96 193.172 29.7333 193.602 29.28C194.044 28.8153 194.265 28.1977 194.265 27.427C194.265 26.6563 194.044 26.0443 193.602 25.591C193.172 25.1263 192.616 24.894 191.936 24.894C191.256 24.894 190.695 25.1263 190.253 25.591C189.811 26.0443 189.59 26.6563 189.59 27.427C189.59 28.1977 189.811 28.8153 190.253 29.28C190.695 29.7333 191.256 29.96 191.936 29.96ZM201.257 24.061C201.574 23.619 201.999 23.2847 202.532 23.058C203.076 22.8313 203.699 22.718 204.402 22.718V25.166C204.107 25.1433 203.909 25.132 203.807 25.132C203.048 25.132 202.453 25.3473 202.022 25.778C201.591 26.1973 201.376 26.832 201.376 27.682V32H198.724V22.854H201.257V24.061ZM209.618 22.718C211.035 22.718 212.123 23.058 212.882 23.738C213.641 24.4067 214.021 25.421 214.021 26.781V32H211.539V30.861C211.04 31.711 210.111 32.136 208.751 32.136C208.048 32.136 207.436 32.017 206.915 31.779C206.405 31.541 206.014 31.2123 205.742 30.793C205.47 30.3737 205.334 29.8977 205.334 29.365C205.334 28.515 205.651 27.8463 206.286 27.359C206.932 26.8717 207.924 26.628 209.261 26.628H211.369C211.369 26.05 211.193 25.608 210.842 25.302C210.491 24.9847 209.964 24.826 209.261 24.826C208.774 24.826 208.292 24.9053 207.816 25.064C207.351 25.2113 206.955 25.4153 206.626 25.676L205.674 23.823C206.173 23.4717 206.768 23.1997 207.459 23.007C208.162 22.8143 208.881 22.718 209.618 22.718ZM209.414 30.351C209.867 30.351 210.27 30.249 210.621 30.045C210.972 29.8297 211.222 29.518 211.369 29.11V28.175H209.55C208.462 28.175 207.918 28.532 207.918 29.246C207.918 29.586 208.048 29.858 208.309 30.062C208.581 30.2547 208.949 30.351 209.414 30.351ZM218.954 24.061C219.272 23.619 219.697 23.2847 220.229 23.058C220.773 22.8313 221.397 22.718 222.099 22.718V25.166C221.805 25.1433 221.606 25.132 221.504 25.132C220.745 25.132 220.15 25.3473 219.719 25.778C219.289 26.1973 219.073 26.832 219.073 27.682V32H216.421V22.854H218.954V24.061ZM235.389 22.718C236.534 22.718 237.44 23.058 238.109 23.738C238.789 24.4067 239.129 25.4153 239.129 26.764V32H236.477V27.172C236.477 26.4467 236.324 25.9083 236.018 25.557C235.723 25.1943 235.298 25.013 234.743 25.013C234.12 25.013 233.627 25.217 233.264 25.625C232.901 26.0217 232.72 26.6167 232.72 27.41V32H230.068V27.172C230.068 25.7327 229.49 25.013 228.334 25.013C227.722 25.013 227.235 25.217 226.872 25.625C226.509 26.0217 226.328 26.6167 226.328 27.41V32H223.676V22.854H226.209V23.908C226.549 23.5227 226.963 23.228 227.45 23.024C227.949 22.82 228.493 22.718 229.082 22.718C229.728 22.718 230.312 22.8483 230.833 23.109C231.354 23.3583 231.774 23.7267 232.091 24.214C232.465 23.738 232.935 23.3697 233.502 23.109C234.08 22.8483 234.709 22.718 235.389 22.718ZM250.565 27.461C250.565 27.495 250.548 27.733 250.514 28.175H243.595C243.72 28.7417 244.014 29.1893 244.479 29.518C244.944 29.8467 245.522 30.011 246.213 30.011C246.689 30.011 247.108 29.943 247.471 29.807C247.845 29.6597 248.191 29.433 248.508 29.127L249.919 30.657C249.058 31.643 247.8 32.136 246.145 32.136C245.114 32.136 244.201 31.9377 243.408 31.541C242.615 31.133 242.003 30.572 241.572 29.858C241.141 29.144 240.926 28.3337 240.926 27.427C240.926 26.5317 241.136 25.727 241.555 25.013C241.986 24.2877 242.569 23.7267 243.306 23.33C244.054 22.922 244.887 22.718 245.805 22.718C246.7 22.718 247.511 22.9107 248.236 23.296C248.961 23.6813 249.528 24.2367 249.936 24.962C250.355 25.676 250.565 26.509 250.565 27.461ZM245.822 24.724C245.221 24.724 244.717 24.894 244.309 25.234C243.901 25.574 243.652 26.0387 243.561 26.628H248.066C247.975 26.05 247.726 25.591 247.318 25.251C246.91 24.8997 246.411 24.724 245.822 24.724Z" fill="black"/>
</svg>
