<svg width="330" height="49" viewBox="0 0 330 49" fill="none" xmlns="http://www.w3.org/2000/svg">
<rect width="330" height="49" rx="5" fill="#4ECB71"/>
<path d="M86.28 32.275C85.8947 32.751 85.4243 33.1137 84.869 33.363C84.325 33.6123 83.7243 33.737 83.067 33.737C82.183 33.737 81.384 33.5443 80.67 33.159C79.956 32.785 79.14 32.1163 78.222 31.153C77.1453 31.017 76.182 30.6713 75.332 30.116C74.4933 29.5607 73.836 28.8467 73.36 27.974C72.8953 27.09 72.663 26.1153 72.663 25.05C72.663 23.8827 72.9407 22.8343 73.496 21.905C74.0627 20.9643 74.839 20.2277 75.825 19.695C76.8223 19.1623 77.9387 18.896 79.174 18.896C80.4093 18.896 81.52 19.1623 82.506 19.695C83.492 20.2277 84.2683 20.9643 84.835 21.905C85.4017 22.8343 85.685 23.8827 85.685 25.05C85.685 26.4327 85.294 27.6453 84.512 28.688C83.7413 29.7307 82.7157 30.456 81.435 30.864C81.7183 31.1587 81.9903 31.3683 82.251 31.493C82.523 31.629 82.812 31.697 83.118 31.697C83.8547 31.697 84.5007 31.4023 85.056 30.813L86.28 32.275ZM75.451 25.05C75.451 25.7867 75.6097 26.444 75.927 27.022C76.2557 27.6 76.7033 28.0533 77.27 28.382C77.8367 28.6993 78.4713 28.858 79.174 28.858C79.8767 28.858 80.5113 28.6993 81.078 28.382C81.6447 28.0533 82.0867 27.6 82.404 27.022C82.7327 26.444 82.897 25.7867 82.897 25.05C82.897 24.3133 82.7327 23.656 82.404 23.078C82.0867 22.5 81.6447 22.0523 81.078 21.735C80.5113 21.4063 79.8767 21.242 79.174 21.242C78.4713 21.242 77.8367 21.4063 77.27 21.735C76.7033 22.0523 76.2557 22.5 75.927 23.078C75.6097 23.656 75.451 24.3133 75.451 25.05ZM96.7818 21.854V31H94.2658V29.912C93.9144 30.3087 93.4951 30.6147 93.0078 30.83C92.5204 31.034 91.9934 31.136 91.4268 31.136C90.2254 31.136 89.2734 30.7903 88.5708 30.099C87.8681 29.4077 87.5168 28.382 87.5168 27.022V21.854H90.1688V26.631C90.1688 28.1043 90.7864 28.841 92.0218 28.841C92.6564 28.841 93.1664 28.637 93.5518 28.229C93.9371 27.8097 94.1298 27.192 94.1298 26.376V21.854H96.7818ZM99.2386 21.854H101.891V31H99.2386V21.854ZM100.565 20.579C100.077 20.579 99.6806 20.4373 99.3746 20.154C99.0686 19.8707 98.9156 19.5193 98.9156 19.1C98.9156 18.6807 99.0686 18.3293 99.3746 18.046C99.6806 17.7627 100.077 17.621 100.565 17.621C101.052 17.621 101.449 17.757 101.755 18.029C102.061 18.301 102.214 18.641 102.214 19.049C102.214 19.491 102.061 19.8593 101.755 20.154C101.449 20.4373 101.052 20.579 100.565 20.579ZM113.311 26.461C113.311 26.495 113.294 26.733 113.26 27.175H106.341C106.466 27.7417 106.76 28.1893 107.225 28.518C107.69 28.8467 108.268 29.011 108.959 29.011C109.435 29.011 109.854 28.943 110.217 28.807C110.591 28.6597 110.937 28.433 111.254 28.127L112.665 29.657C111.804 30.643 110.546 31.136 108.891 31.136C107.86 31.136 106.947 30.9377 106.154 30.541C105.361 30.133 104.749 29.572 104.318 28.858C103.887 28.144 103.672 27.3337 103.672 26.427C103.672 25.5317 103.882 24.727 104.301 24.013C104.732 23.2877 105.315 22.7267 106.052 22.33C106.8 21.922 107.633 21.718 108.551 21.718C109.446 21.718 110.257 21.9107 110.982 22.296C111.707 22.6813 112.274 23.2367 112.682 23.962C113.101 24.676 113.311 25.509 113.311 26.461ZM108.568 23.724C107.967 23.724 107.463 23.894 107.055 24.234C106.647 24.574 106.398 25.0387 106.307 25.628H110.812C110.721 25.05 110.472 24.591 110.064 24.251C109.656 23.8997 109.157 23.724 108.568 23.724ZM117.61 23.061C117.927 22.619 118.352 22.2847 118.885 22.058C119.429 21.8313 120.052 21.718 120.755 21.718V24.166C120.46 24.1433 120.262 24.132 120.16 24.132C119.4 24.132 118.805 24.3473 118.375 24.778C117.944 25.1973 117.729 25.832 117.729 26.682V31H115.077V21.854H117.61V23.061ZM126.6 31.136C125.637 31.136 124.77 30.9377 123.999 30.541C123.24 30.133 122.645 29.572 122.214 28.858C121.784 28.144 121.568 27.3337 121.568 26.427C121.568 25.5203 121.784 24.71 122.214 23.996C122.645 23.282 123.24 22.7267 123.999 22.33C124.77 21.922 125.637 21.718 126.6 21.718C127.564 21.718 128.425 21.922 129.184 22.33C129.944 22.7267 130.539 23.282 130.969 23.996C131.4 24.71 131.615 25.5203 131.615 26.427C131.615 27.3337 131.4 28.144 130.969 28.858C130.539 29.572 129.944 30.133 129.184 30.541C128.425 30.9377 127.564 31.136 126.6 31.136ZM126.6 28.96C127.28 28.96 127.836 28.7333 128.266 28.28C128.708 27.8153 128.929 27.1977 128.929 26.427C128.929 25.6563 128.708 25.0443 128.266 24.591C127.836 24.1263 127.28 23.894 126.6 23.894C125.92 23.894 125.359 24.1263 124.917 24.591C124.475 25.0443 124.254 25.6563 124.254 26.427C124.254 27.1977 124.475 27.8153 124.917 28.28C125.359 28.7333 125.92 28.96 126.6 28.96ZM142.623 31.136C141.648 31.136 140.77 30.9377 139.988 30.541C139.217 30.133 138.611 29.572 138.169 28.858C137.738 28.144 137.523 27.3337 137.523 26.427C137.523 25.5203 137.738 24.71 138.169 23.996C138.611 23.282 139.217 22.7267 139.988 22.33C140.77 21.922 141.648 21.718 142.623 21.718C143.586 21.718 144.425 21.922 145.139 22.33C145.864 22.7267 146.391 23.299 146.72 24.047L144.663 25.152C144.187 24.3133 143.501 23.894 142.606 23.894C141.914 23.894 141.342 24.1207 140.889 24.574C140.435 25.0273 140.209 25.645 140.209 26.427C140.209 27.209 140.435 27.8267 140.889 28.28C141.342 28.7333 141.914 28.96 142.606 28.96C143.512 28.96 144.198 28.5407 144.663 27.702L146.72 28.824C146.391 29.5493 145.864 30.116 145.139 30.524C144.425 30.932 143.586 31.136 142.623 31.136ZM152.482 31.136C151.519 31.136 150.652 30.9377 149.881 30.541C149.122 30.133 148.527 29.572 148.096 28.858C147.666 28.144 147.45 27.3337 147.45 26.427C147.45 25.5203 147.666 24.71 148.096 23.996C148.527 23.282 149.122 22.7267 149.881 22.33C150.652 21.922 151.519 21.718 152.482 21.718C153.446 21.718 154.307 21.922 155.066 22.33C155.826 22.7267 156.421 23.282 156.851 23.996C157.282 24.71 157.497 25.5203 157.497 26.427C157.497 27.3337 157.282 28.144 156.851 28.858C156.421 29.572 155.826 30.133 155.066 30.541C154.307 30.9377 153.446 31.136 152.482 31.136ZM152.482 28.96C153.162 28.96 153.718 28.7333 154.148 28.28C154.59 27.8153 154.811 27.1977 154.811 26.427C154.811 25.6563 154.59 25.0443 154.148 24.591C153.718 24.1263 153.162 23.894 152.482 23.894C151.802 23.894 151.241 24.1263 150.799 24.591C150.357 25.0443 150.136 25.6563 150.136 26.427C150.136 27.1977 150.357 27.8153 150.799 28.28C151.241 28.7333 151.802 28.96 152.482 28.96ZM170.983 21.718C172.128 21.718 173.034 22.058 173.703 22.738C174.383 23.4067 174.723 24.4153 174.723 25.764V31H172.071V26.172C172.071 25.4467 171.918 24.9083 171.612 24.557C171.317 24.1943 170.892 24.013 170.337 24.013C169.714 24.013 169.221 24.217 168.858 24.625C168.495 25.0217 168.314 25.6167 168.314 26.41V31H165.662V26.172C165.662 24.7327 165.084 24.013 163.928 24.013C163.316 24.013 162.829 24.217 162.466 24.625C162.103 25.0217 161.922 25.6167 161.922 26.41V31H159.27V21.854H161.803V22.908C162.143 22.5227 162.557 22.228 163.044 22.024C163.543 21.82 164.087 21.718 164.676 21.718C165.322 21.718 165.906 21.8483 166.427 22.109C166.948 22.3583 167.368 22.7267 167.685 23.214C168.059 22.738 168.529 22.3697 169.096 22.109C169.674 21.8483 170.303 21.718 170.983 21.718ZM182.506 21.718C183.356 21.718 184.127 21.9163 184.818 22.313C185.521 22.6983 186.07 23.248 186.467 23.962C186.864 24.6647 187.062 25.4863 187.062 26.427C187.062 27.3677 186.864 28.195 186.467 28.909C186.07 29.6117 185.521 30.1613 184.818 30.558C184.127 30.9433 183.356 31.136 182.506 31.136C181.339 31.136 180.421 30.7677 179.752 30.031V34.298H177.1V21.854H179.633V22.908C180.29 22.1147 181.248 21.718 182.506 21.718ZM182.047 28.96C182.727 28.96 183.282 28.7333 183.713 28.28C184.155 27.8153 184.376 27.1977 184.376 26.427C184.376 25.6563 184.155 25.0443 183.713 24.591C183.282 24.1263 182.727 23.894 182.047 23.894C181.367 23.894 180.806 24.1263 180.364 24.591C179.933 25.0443 179.718 25.6563 179.718 26.427C179.718 27.1977 179.933 27.8153 180.364 28.28C180.806 28.7333 181.367 28.96 182.047 28.96ZM191.37 23.061C191.688 22.619 192.113 22.2847 192.645 22.058C193.189 21.8313 193.813 21.718 194.515 21.718V24.166C194.221 24.1433 194.022 24.132 193.92 24.132C193.161 24.132 192.566 24.3473 192.135 24.778C191.705 25.1973 191.489 25.832 191.489 26.682V31H188.837V21.854H191.37V23.061ZM199.731 21.718C201.148 21.718 202.236 22.058 202.995 22.738C203.755 23.4067 204.134 24.421 204.134 25.781V31H201.652V29.861C201.154 30.711 200.224 31.136 198.864 31.136C198.162 31.136 197.55 31.017 197.028 30.779C196.518 30.541 196.127 30.2123 195.855 29.793C195.583 29.3737 195.447 28.8977 195.447 28.365C195.447 27.515 195.765 26.8463 196.399 26.359C197.045 25.8717 198.037 25.628 199.374 25.628H201.482C201.482 25.05 201.307 24.608 200.955 24.302C200.604 23.9847 200.077 23.826 199.374 23.826C198.887 23.826 198.405 23.9053 197.929 24.064C197.465 24.2113 197.068 24.4153 196.739 24.676L195.787 22.823C196.286 22.4717 196.881 22.1997 197.572 22.007C198.275 21.8143 198.995 21.718 199.731 21.718ZM199.527 29.351C199.981 29.351 200.383 29.249 200.734 29.045C201.086 28.8297 201.335 28.518 201.482 28.11V27.175H199.663C198.575 27.175 198.031 27.532 198.031 28.246C198.031 28.586 198.162 28.858 198.422 29.062C198.694 29.2547 199.063 29.351 199.527 29.351ZM209.068 23.061C209.385 22.619 209.81 22.2847 210.343 22.058C210.887 21.8313 211.51 21.718 212.213 21.718V24.166C211.918 24.1433 211.72 24.132 211.618 24.132C210.858 24.132 210.263 24.3473 209.833 24.778C209.402 25.1973 209.187 25.832 209.187 26.682V31H206.535V21.854H209.068V23.061ZM224.552 31.204C223.34 31.204 222.24 30.9433 221.254 30.422C220.28 29.8893 219.509 29.1583 218.942 28.229C218.387 27.2883 218.109 26.2287 218.109 25.05C218.109 23.8713 218.387 22.8173 218.942 21.888C219.509 20.9473 220.28 20.2163 221.254 19.695C222.24 19.1623 223.345 18.896 224.569 18.896C225.601 18.896 226.53 19.0773 227.357 19.44C228.196 19.8027 228.899 20.324 229.465 21.004L227.697 22.636C226.893 21.7067 225.895 21.242 224.705 21.242C223.969 21.242 223.311 21.4063 222.733 21.735C222.155 22.0523 221.702 22.5 221.373 23.078C221.056 23.656 220.897 24.3133 220.897 25.05C220.897 25.7867 221.056 26.444 221.373 27.022C221.702 27.6 222.155 28.0533 222.733 28.382C223.311 28.6993 223.969 28.858 224.705 28.858C225.895 28.858 226.893 28.3877 227.697 27.447L229.465 29.079C228.899 29.7703 228.196 30.2973 227.357 30.66C226.519 31.0227 225.584 31.204 224.552 31.204ZM240.063 24.812C240.743 25.0273 241.276 25.39 241.661 25.9C242.046 26.3987 242.239 27.0163 242.239 27.753C242.239 28.7957 241.831 29.6003 241.015 30.167C240.21 30.7223 239.032 31 237.479 31H231.325V19.1H237.139C238.59 19.1 239.7 19.3777 240.471 19.933C241.253 20.4883 241.644 21.242 241.644 22.194C241.644 22.772 241.502 23.2877 241.219 23.741C240.947 24.1943 240.562 24.5513 240.063 24.812ZM234.062 21.174V23.979H236.799C237.479 23.979 237.995 23.86 238.346 23.622C238.697 23.384 238.873 23.0327 238.873 22.568C238.873 22.1033 238.697 21.7577 238.346 21.531C237.995 21.293 237.479 21.174 236.799 21.174H234.062ZM237.275 28.926C238 28.926 238.544 28.807 238.907 28.569C239.281 28.331 239.468 27.9627 239.468 27.464C239.468 26.478 238.737 25.985 237.275 25.985H234.062V28.926H237.275ZM244.324 19.1H249.73C251.022 19.1 252.161 19.3493 253.147 19.848C254.144 20.3353 254.915 21.0267 255.459 21.922C256.014 22.8173 256.292 23.86 256.292 25.05C256.292 26.24 256.014 27.2827 255.459 28.178C254.915 29.0733 254.144 29.7703 253.147 30.269C252.161 30.7563 251.022 31 249.73 31H244.324V19.1ZM249.594 28.739C250.784 28.739 251.73 28.4103 252.433 27.753C253.147 27.0843 253.504 26.1833 253.504 25.05C253.504 23.9167 253.147 23.0213 252.433 22.364C251.73 21.6953 250.784 21.361 249.594 21.361H247.078V28.739H249.594Z" fill="#030303"/>
</svg>
