<svg width="62" height="63" viewBox="0 0 62 63" fill="none" xmlns="http://www.w3.org/2000/svg">
<path d="M62 31.0089C61.9217 48.1582 48.14 62.0152 30.9836 62.0026C13.8196 61.9874 -0.0151434 48.1886 1.24404e-05 30.9684C0.0151683 13.7963 13.8449 -0.0201922 31.0493 2.21528e-05C48.1501 0.0202365 61.9267 13.8469 62 31.0089ZM31.4964 60.7695C47.6424 60.5092 60.8153 47.284 60.7724 30.8092C60.7269 14.5721 47.3519 1.2331 31.0189 1.23057C14.5976 1.22805 1.27058 14.5417 1.22258 30.9027C1.17459 47.3396 14.6077 61.0297 31.4964 60.7695Z" fill="#4ECB71"/>
<path d="M31.4966 60.7694C14.6079 61.0296 1.17479 47.3394 1.22278 30.9026C1.27078 14.5416 14.5978 1.22794 31.0192 1.23047C47.3521 1.233 60.7271 14.572 60.7701 30.8117C60.8155 47.2839 47.6426 60.5116 31.4966 60.7694ZM15.3026 9.4754C15.7522 9.58658 16.2144 9.66491 16.6489 9.81652C17.0556 9.96055 17.3562 9.88727 17.6265 9.53605C17.2551 9.42992 16.8964 9.32885 16.5226 9.22273C16.563 9.14945 16.5807 9.10397 16.6085 9.06859C16.9672 8.64662 16.707 8.32066 16.4291 8.01997C16.1563 7.72686 15.8532 7.83046 15.5678 8.03008C15.1737 8.3055 14.7847 8.58597 14.3831 8.84623C14.1911 8.97005 14.1684 9.07364 14.3073 9.26315C14.6862 9.77862 15.05 10.3067 15.4061 10.8373C15.5248 11.0117 15.6133 11.0066 15.78 10.8904C15.9669 10.7615 15.9442 10.6681 15.8305 10.5089C15.6057 10.1981 15.3985 9.87464 15.1864 9.55879C15.2217 9.53099 15.2621 9.5032 15.3026 9.4754ZM29.2055 42.8771L29.2181 42.8923C29.3571 43.0287 29.1676 43.193 29.2712 43.3673C29.5693 42.9934 29.8597 42.632 30.1502 42.2682C29.0666 42.7634 27.9299 43.1374 27.0433 43.9561C26.8336 44.1481 26.3411 44.2037 26.6214 44.6914C26.6366 44.7166 26.6012 44.8025 26.5684 44.8177C25.9394 45.1133 25.654 45.6844 25.3812 46.2706C25.3458 46.3464 25.2322 46.3843 25.1539 46.4424C25.0781 46.5006 24.9669 46.5713 25.0705 46.6648C25.318 46.8922 25.1033 47.0135 24.9871 47.1727C24.6588 47.6199 24.3329 48.0672 24.3077 48.6559C24.2395 48.6306 24.2319 48.661 24.2546 48.7166C24.2698 48.6938 24.2849 48.6711 24.3001 48.6483C24.3556 48.5978 24.4213 48.5523 24.4643 48.4942C24.7169 48.1657 24.8987 47.7008 25.2322 47.529C25.8131 47.2308 26.1541 46.7962 26.4143 46.2453C26.4446 46.1796 26.5103 46.1241 26.5608 46.1569C26.9776 46.4222 27.0029 46.0078 27.1266 45.8183C27.2934 45.5656 27.4171 45.2852 27.5636 45.0198C27.6066 44.9415 27.6596 44.7823 27.7329 44.8303C28.0587 45.0476 28.084 44.7116 28.1648 44.5878C28.5286 44.0268 28.862 43.4482 29.2055 42.8771ZM32.2923 42.8695C32.6762 43.4532 32.9389 44.1077 33.3658 44.6636C33.434 44.752 33.5502 44.9188 33.5729 44.9061C33.9796 44.7015 33.9442 45.0982 34.0529 45.2624C34.212 45.4999 34.3307 45.7627 34.4696 46.0129C34.5404 46.1417 34.6465 46.3161 34.7879 46.2251C35.091 46.0331 35.086 46.2984 35.1769 46.4349C35.384 46.7482 35.4851 47.1828 35.8766 47.299C36.1671 47.3849 36.3363 47.534 36.4929 47.7665C36.6874 48.0571 36.9173 48.3224 37.1295 48.6003C37.1674 48.6332 37.18 48.7317 37.2432 48.6837C37.2912 48.6483 37.2533 48.5776 37.1977 48.5397C37.1068 47.9813 36.7708 47.5517 36.4525 47.1146C36.3894 47.0287 36.2757 46.8669 36.2883 46.8518C36.6976 46.4753 36.2201 46.4172 36.0787 46.2352C36.0004 46.1367 35.9094 46.023 35.8943 45.9068C35.8362 45.4595 35.5785 45.2018 35.182 45.0274C34.9976 44.9466 34.7475 44.7646 34.8991 44.56C35.0658 44.3326 34.9167 44.2997 34.8106 44.2037C34.3888 43.8348 33.9619 43.4962 33.583 43.0515C33.0349 42.4122 32.2064 42.0104 31.4966 41.5101C31.6835 42.157 31.8452 42.7811 32.2392 43.4229C32.2392 43.1803 32.2392 43.0464 32.2392 42.9125C32.2569 42.9049 32.2746 42.8872 32.2923 42.8695ZM11.1297 43.2637C11.1195 43.2536 11.112 43.2435 11.1019 43.2385C11.0993 43.2359 11.0892 43.2435 11.0817 43.2486C11.0993 43.2511 11.117 43.2536 11.1372 43.2561C11.0362 43.4052 11.1726 43.4937 11.2357 43.5897C12.1653 45.0577 13.2338 46.4197 14.4841 47.6199C19.9049 52.8302 26.3688 55.1346 33.8356 54.225C41.3453 53.3103 47.0616 49.462 51.0779 43.0692C51.131 42.9858 51.2396 42.9074 51.1512 42.7457C50.9264 42.8114 50.7041 42.9125 50.4717 42.9352C49.7265 43.011 49.2921 43.4532 48.8626 44.042C43.5581 51.3293 34.4419 54.6596 25.6919 52.4916C20.5591 51.2181 16.4165 48.4184 13.2262 44.2012C13.0519 43.9687 12.9382 43.6705 12.577 43.6074C12.087 43.5215 11.6096 43.3825 11.1297 43.2637ZM5.57251 30.6424C5.53967 30.6272 5.50683 30.6121 5.474 30.5969C5.48157 30.6348 5.48663 30.6727 5.4942 30.7131C6.53491 32.8129 8.04039 34.3492 10.4476 34.799C10.1395 34.8141 9.83383 34.8293 9.40189 34.8495C9.90455 35.2184 10.3946 35.3928 10.6522 35.8476C10.9907 36.4464 11.5338 36.7572 12.1779 36.9189C12.5139 37.0023 12.8524 37.0832 13.2489 37.1792C12.8852 37.4192 13.0873 37.5557 13.2969 37.6669C13.8602 37.9726 14.4488 38.2202 15.0651 38.4072C15.1712 38.4401 15.3935 38.4249 15.3607 38.5841C15.2571 39.0768 15.6562 39.1046 15.9214 39.1905C16.4216 39.3522 17 39.3447 17.4446 39.5898C18.1872 39.9991 18.8945 40.4186 19.771 40.4463C19.9327 40.4514 20.1878 40.6081 20.1272 40.7622C19.9099 41.3333 20.357 41.1311 20.5591 41.1437C20.8749 41.1614 21.2209 41.0351 21.4962 41.2347C21.8145 41.4646 22.1151 41.4444 22.4435 41.308C22.8325 41.1437 23.2063 41.078 23.5499 41.4267C23.6812 41.5607 23.8833 41.5127 24.0576 41.5228C25.2296 41.5935 26.3891 41.452 27.551 41.3206C28.3947 41.2246 29.2434 41.169 30.1805 41.0882C30.0416 41.0174 29.9911 40.982 29.9355 40.9618C27.4853 40.0901 25.1513 38.9707 22.936 37.6113C21.8373 36.9366 20.8142 36.123 19.5083 35.8349C19.0915 35.7415 18.6823 35.6909 18.2655 35.6404C17.8715 35.5924 17.4926 35.226 17.0657 35.0794C16.9849 35.0516 16.8535 34.9607 16.8282 35.1022C16.7626 35.4711 16.5782 35.231 16.4595 35.1805C15.8557 34.9228 15.2596 34.6499 14.661 34.3846C14.5145 34.3214 14.3654 34.233 14.2391 34.4199C14.0951 34.6322 13.9638 34.5362 13.8072 34.4174C12.8473 33.6821 11.7687 33.2248 10.5714 33.0529C10.4274 33.0327 10.2986 32.9898 10.19 32.8786C9.94497 32.6335 9.63427 32.4895 9.30337 32.4238C7.90651 32.1433 6.67636 31.5268 5.57251 30.6424ZM31.8931 40.277L31.8856 40.2695C31.8376 40.5196 31.4713 40.6207 31.5572 40.9441C33.9644 40.4287 40.8275 36.8709 41.5853 35.7288C41.4666 35.7667 41.3807 35.8122 41.2898 35.8223C41.1433 35.8375 40.9361 36.08 40.8578 35.792C40.7972 35.5696 41.0599 35.5974 41.1913 35.5494C41.5954 35.4003 42.0071 35.2715 42.4113 35.1274C42.5881 35.0643 42.7397 34.9354 42.6689 34.7333C42.5906 34.5109 42.4113 34.6271 42.2648 34.6751C42.1587 34.7105 42.0501 34.7358 41.944 34.7661C41.9213 34.7383 41.8985 34.7105 41.8758 34.6827C42.9266 33.9904 43.6743 33.0176 44.3765 31.9993C45.4753 30.4049 46.66 28.8686 47.4708 27.0922C47.6022 26.8067 47.6931 26.5136 47.5542 26.2154C47.3622 25.8036 47.4809 25.4624 47.7664 25.1618C48.221 24.6817 48.3928 24.1005 48.4484 23.4612C48.5166 22.6779 48.6025 21.8997 49.0319 21.2073C49.1582 21.0052 49.2213 20.7626 49.0243 20.5883C48.5848 20.2042 48.6707 19.7847 48.8601 19.3249C48.9814 19.0292 49.0773 18.7235 49.1632 18.4152C49.4487 17.4095 49.5472 16.5302 49.431 16.0198C49.3855 16.1082 49.3501 16.1765 49.3173 16.2447C48.6378 17.6395 47.7436 18.8978 46.66 19.9894C46.0916 20.5605 45.4475 21.0304 45.2555 21.8643C45.2252 21.9957 45.152 22.0108 45.0509 21.9401C44.6468 21.6571 44.3462 21.9451 44.1391 22.1953C42.9695 23.5951 41.6661 24.8863 40.7113 26.4555C40.6153 26.6121 40.5017 26.7183 40.3324 26.7991C39.3372 27.2666 38.688 27.9968 38.5996 29.1415C38.587 29.3057 38.539 29.4674 38.491 29.7226C38.443 29.5382 38.4304 29.4421 38.395 29.3562C38.3192 29.1693 38.4228 28.8711 38.1879 28.8054C37.9277 28.7346 37.713 28.9292 37.5235 29.1137C37.0335 29.5912 36.6622 30.1522 36.45 30.799C36.3591 31.0745 36.2201 31.2463 35.9928 31.3625C35.8488 31.2008 36.1368 31.0542 35.9473 30.8925C35.6568 31.0542 35.6139 31.3549 35.6013 31.6304C35.5836 32.0523 35.4118 32.3884 35.1845 32.727C34.1236 34.2987 33.2572 35.9739 32.5448 37.7275C32.2266 38.5133 31.9411 39.3118 31.7239 40.1305C31.7037 40.2088 31.6178 40.3175 31.7517 40.3705C31.777 40.3807 31.8426 40.3099 31.8931 40.277ZM20.7511 34.7939C20.5818 34.8444 20.4429 34.7307 20.2914 34.7004C20.1347 34.6701 19.9529 34.4831 19.819 34.7029C19.6978 34.9051 19.8973 35.0188 20.0084 35.1426C20.0716 35.2134 20.155 35.2664 20.2282 35.3271C22.7542 37.3662 25.5858 38.8747 28.5715 40.1103C29.3621 40.4388 30.1553 40.7622 30.9787 40.9795C31.0621 40.8506 31.0015 40.7622 30.9787 40.6738C30.2386 37.7199 28.9251 35.0264 27.2327 32.5097C27.0382 32.2191 26.9018 31.9487 26.8791 31.595C26.8639 31.3347 26.8084 31.0568 26.5532 30.9001C26.384 31.0214 26.6088 31.2134 26.4598 31.3322C26.1996 31.221 26.1061 31.0113 26.0253 30.7763C25.7879 30.0789 25.3862 29.4851 24.8331 29.005C24.4062 28.6386 24.2243 28.7094 24.1081 29.2501C24.0803 29.3739 24.1157 29.5331 23.949 29.6013C23.7519 27.9412 23.5145 27.5824 22.0419 26.7486C21.8852 26.6601 21.8271 26.5212 21.7438 26.3898C20.7536 24.8434 19.4805 23.5269 18.2908 22.1473C18.0963 21.9199 17.8134 21.6899 17.4471 21.9249C17.2097 22.0791 17.2248 21.8517 17.192 21.7354C17.0354 21.2124 16.7449 20.7803 16.3382 20.424C16.073 20.1941 15.78 20.002 15.5501 19.7266C14.6256 18.6174 13.744 17.4803 13.1252 16.1638C13.0974 16.1057 13.0797 16.0072 12.961 16.04C12.9989 17.2352 13.2338 18.3874 13.6834 19.4967C13.8148 19.8226 13.8905 20.1536 13.5798 20.424C13.2565 20.7045 13.3045 21.0026 13.499 21.3236C13.7668 21.7708 13.9057 22.2585 13.9486 22.779C14.0244 23.7291 14.1457 24.6589 14.8757 25.3841C15.0727 25.5787 15.0575 25.8667 14.954 26.1118C14.7974 26.4883 14.858 26.8345 15.0474 27.168C16.6312 29.945 18.1645 32.7598 20.7435 34.7939H20.7511ZM35.0885 28.3152C35.5129 27.115 35.7882 25.892 35.7831 24.5604C35.3613 24.803 35.3714 25.2603 35.0355 25.5837C35.1618 24.6741 35.2754 23.8503 35.3941 23.0266C35.4901 22.3671 35.3083 22.17 34.6187 22.2155C34.8132 21.417 34.9268 20.611 34.942 19.7948C34.9471 19.5548 34.9521 19.2794 34.6187 19.2465C34.2271 19.2086 34.3231 19.0444 34.4646 18.8119C34.7904 18.2762 34.8536 17.7052 34.654 17.1038C34.5505 16.7955 34.4065 16.6363 34.0705 16.8183C33.8078 16.9598 33.7068 16.8991 33.7321 16.5808C33.7826 15.9112 33.8028 15.2365 33.828 14.5644C33.8381 14.3066 33.7977 14.0262 33.4517 14.1095C33.0753 14.2005 33.1006 13.9352 33.0703 13.7381C33.0324 13.4905 33.1789 13.2808 33.2824 13.0635C33.3885 12.8411 33.5982 12.6086 33.3254 12.3762C33.0652 12.1538 32.9465 12.4975 32.752 12.5505C32.7318 12.5556 32.704 12.5354 32.6509 12.5177C32.8278 12.0906 32.9844 11.656 33.0652 11.1987C33.1208 10.8854 33.0324 10.7641 32.7141 10.9132C32.6459 10.9435 32.5726 10.994 32.4893 10.9157C32.4337 10.7211 32.5398 10.5468 32.5827 10.3648C32.7949 9.46277 32.7116 8.64914 31.9715 7.98965C31.7391 7.78245 31.6507 7.48176 31.5875 7.17855C31.4915 6.72878 31.5926 6.28406 31.6077 5.83935C31.6203 5.44011 31.6254 5.04593 31.3526 4.66186C31.1227 4.90696 31.0672 5.1849 31.052 5.46791C31.0368 5.80397 31.0444 6.14003 31.0495 6.4761C31.0571 7.08758 30.9611 7.66369 30.4938 8.10841C29.9103 8.66178 29.7814 9.3339 29.9406 10.0919C30.0012 10.3775 30.0492 10.6655 30.1098 10.9738C29.4101 10.802 29.4 10.8045 29.5642 11.4564C29.6577 11.8228 29.7814 12.1791 29.9027 12.5783C29.8193 12.548 29.7739 12.5404 29.741 12.5151C29.5768 12.4014 29.4303 12.1867 29.2055 12.3964C29.006 12.5834 29.1323 12.783 29.2257 12.9649C29.3545 13.2226 29.5339 13.4627 29.4935 13.771C29.4707 13.9403 29.4354 14.1803 29.2106 14.1323C28.7003 14.0236 28.718 14.3471 28.7306 14.6654C28.7534 15.2896 28.7786 15.9137 28.8317 16.5353C28.862 16.8966 28.7382 16.9699 28.4427 16.8082C28.1749 16.6616 28.0537 16.7551 27.9476 17.0229C27.6925 17.6723 27.7708 18.2788 28.1269 18.8599C28.2355 19.0368 28.3164 19.2086 28.036 19.2339C27.6141 19.2718 27.6142 19.5422 27.6243 19.8479C27.6495 20.6464 27.7531 21.4347 27.9476 22.2155C27.2454 22.1675 27.0862 22.3444 27.1797 23.0494C27.2934 23.9034 27.4171 24.7575 27.5434 25.6595C27.2252 25.3437 27.2176 24.8636 26.7932 24.5705C26.7503 25.9198 27.0786 27.1251 27.4727 28.343C27.3413 28.3531 27.2454 28.3758 27.1544 28.3632C26.7477 28.3076 26.6745 28.4516 26.7932 28.8357C27.0382 29.6342 27.311 30.4175 27.7026 31.1578C27.8996 31.5293 28.1092 31.8957 28.3164 32.2696C28.0638 32.3682 27.8238 32.2747 27.5965 32.4238C28.3922 33.6543 29.1196 34.9101 29.736 36.2291C30.3498 37.5431 30.86 38.8949 31.3096 40.2872C30.903 30.9456 30.7438 21.6116 31.2137 12.2776C31.1429 21.3716 31.3374 30.4604 31.4789 39.562C32.3276 37.0124 33.5173 34.6423 35.0051 32.3732C34.7121 32.3404 34.4949 32.3176 34.2802 32.2924C34.2625 32.1054 34.3888 32.0068 34.4595 31.8881C34.9774 31.034 35.3866 30.1345 35.6695 29.1768C35.8867 28.4163 35.8842 28.4163 35.0885 28.3152ZM56.4936 30.2078C55.8192 30.6651 55.1902 31.2311 54.4097 31.4535C53.0936 31.8249 51.8913 32.4996 50.5626 32.823C49.8099 33.0075 49.1228 33.3486 48.4787 33.7781C48.2185 33.9525 47.9836 34.3542 47.6148 33.9045C47.5845 33.8691 47.4077 33.9323 47.3092 33.9752C46.6953 34.2456 46.0841 34.5261 45.4677 34.7939C45.3818 34.8318 45.2252 34.9859 45.1949 34.8318C45.1065 34.3997 44.8665 34.6903 44.7402 34.7383C44.4447 34.8495 44.1694 35.0213 43.8865 35.1704C43.7779 35.2285 43.6844 35.3574 43.5429 35.274C43.1135 35.0238 42.8054 35.2967 42.5149 35.5292C39.61 37.8539 36.3464 39.519 32.8859 40.838C32.7747 40.881 32.6383 40.8784 32.6105 40.9517C33.1031 40.9517 33.6133 40.9669 34.1211 40.9492C35.2123 40.9087 36.2858 41.1918 37.377 41.1134C37.7509 41.0856 38.1677 41.2069 38.4885 40.9542C38.7992 40.7091 39.1023 40.7293 39.4332 40.8431C39.6605 40.9214 39.9207 41.0856 40.1228 40.9618C40.6128 40.6662 41.1205 40.694 41.6485 40.7344C41.7899 40.7445 42.0577 40.6889 41.9162 40.4842C41.704 40.176 41.9768 40.1532 42.1006 40.08C42.3684 39.9208 42.6791 39.9056 42.9822 39.9006C43.2979 39.898 43.5834 39.8248 43.8107 39.5898C44.1264 39.2663 44.5281 39.1223 44.955 39.0238C45.3894 38.9227 45.8441 38.8848 46.2584 38.7054C46.4301 38.6296 46.7029 38.531 46.6423 38.339C46.5362 38.013 46.7636 38.0383 46.9176 37.9878C47.5138 37.7983 48.0872 37.5607 48.6429 37.2752C48.8879 37.1489 49.0647 37.0124 48.7363 36.7597C49.0369 36.6839 49.2971 36.6132 49.5623 36.5551C50.1837 36.4161 50.7773 36.2215 51.1562 35.6656C51.4593 35.2184 51.8206 34.8495 52.3131 34.617C52.3838 34.5842 52.4596 34.5438 52.4066 34.4275C52.1262 34.4124 51.8408 34.3972 51.5553 34.3846C54.0131 33.9247 55.4731 32.3353 56.4936 30.2078ZM31.926 41.3813C32.6408 41.778 33.29 42.1418 33.9468 42.4956C34.0402 42.5461 34.1867 42.5916 34.265 42.5537C34.8258 42.2656 35.2426 42.6017 35.6846 42.8519C36.0762 43.0742 36.4828 43.3016 36.9501 43.1702C37.2836 43.0767 37.5766 43.1273 37.8822 43.2486C38.2232 43.385 38.5693 43.5088 38.9179 43.6326C39.0998 43.6958 39.3523 43.7842 39.4685 43.6377C39.8676 43.1273 40.2693 43.4229 40.6507 43.6023C41.0346 43.7842 41.4034 43.855 41.8025 43.6832C42.2623 43.4886 42.7346 43.4734 43.2146 43.5897C43.3813 43.6301 43.5783 43.7084 43.7046 43.5316C43.9521 43.1854 44.3033 43.2056 44.6594 43.2309C46.1523 43.3319 47.635 43.2612 49.1051 42.9681C50.0726 42.7735 51.0173 42.5082 52.0555 42.066C51.0223 42.0888 50.1307 42.3263 49.2516 42.0812C48.5797 41.8942 47.9255 41.9245 47.2586 42.061C47.1071 42.0913 46.9378 42.1873 46.804 42.0509C46.4529 41.6971 46.0133 41.7502 45.5864 41.7855C45.0105 41.8336 44.4397 41.9169 43.8536 41.9852C43.937 41.7679 44.2452 41.8159 44.3007 41.5278C43.5 41.5885 42.7346 41.644 41.9693 41.7022C41.9667 41.5228 42.1991 41.5834 42.1991 41.3838C41.5348 41.3459 40.8881 41.2827 40.2339 41.2726C39.5367 41.2625 38.8775 41.0831 38.1449 41.3333C37.5185 41.548 36.7809 41.4495 36.0989 41.3636C34.7298 41.1892 33.3683 41.2195 31.926 41.3813ZM30.466 7.598C29.7688 7.54999 29.1373 7.63084 28.5109 7.70159C22.7491 8.35603 17.8639 10.7944 13.8779 15.004C13.0873 15.8404 13.1883 15.474 13.6708 16.5252C13.8198 16.8486 13.9183 16.937 14.1962 16.5984C15.3859 15.1582 16.7752 13.9276 18.3059 12.8588C21.6099 10.5518 25.2751 9.24547 29.2914 8.92204C29.3975 8.91446 29.549 8.96752 29.5945 8.84118C29.7688 8.36867 30.1603 8.04776 30.466 7.598ZM32.0902 7.57525C32.3327 8.00481 32.7166 8.22464 32.8379 8.61124C32.9313 8.91193 33.1309 8.9751 33.4062 9.00542C39.2033 9.66997 43.9926 12.2498 47.8295 16.6288C48.4004 17.2807 48.3928 17.2832 48.8197 16.4999C48.951 16.2599 49.0799 16.0754 48.8273 15.7873C44.4119 10.7489 38.8547 8.05029 32.0902 7.57525ZM30.8272 41.3712C30.082 41.4116 29.4505 41.4217 28.8241 41.4823C27.2782 41.6314 25.7828 42.0736 24.2395 42.2606C21.279 42.6194 18.316 42.7937 15.3329 42.6017C14.6938 42.5613 14.085 42.2227 13.4434 42.3768C12.3674 42.6346 11.2888 42.5916 10.2026 42.4956C10.1925 42.4956 10.1799 42.5335 10.1597 42.5739C10.3239 42.6371 10.483 42.7053 10.6472 42.7634C12.7564 43.5139 14.9312 43.7893 17.1617 43.6503C17.4471 43.6326 17.821 43.5164 17.9978 43.7185C18.364 44.1355 18.7505 44.0041 19.1723 43.9409C19.3896 43.9081 19.627 43.8878 19.8367 43.9864C20.4505 44.277 21.0315 44.2315 21.6175 43.8904C21.8145 43.7741 22.1555 43.6377 22.2894 43.8272C22.6329 44.3073 22.9866 44.0521 23.3478 43.9384C23.7898 43.8019 24.2218 43.4457 24.6613 43.5467C25.4772 43.7337 26.096 43.3976 26.7326 43.0186C26.9776 42.8721 27.2428 42.7912 27.5106 42.9074C27.7657 43.0161 27.9703 42.9479 28.1926 42.8316C28.6018 42.6143 29.0211 42.4172 29.4303 42.1999C29.8749 41.9675 30.3548 41.7931 30.8272 41.3712ZM12.6553 16.5504C12.577 16.5782 12.5391 16.5808 12.5215 16.601C12.4179 16.7248 12.3169 16.8486 12.2234 16.9775C9.14424 21.1593 7.57813 25.844 7.58066 31.0441C7.58066 31.2362 7.46194 31.4914 7.70696 31.6101C8.03786 31.7693 8.38392 31.9108 8.75524 31.9412C8.90427 31.9538 8.88406 31.7895 8.87143 31.6784C8.81838 31.1654 8.86133 30.655 8.87901 30.1446C9.02299 26.266 10.1041 22.6678 12.1678 19.388C12.6478 18.6224 13.0393 17.925 12.6857 17.0128C12.6377 16.884 12.6654 16.7273 12.6553 16.5504ZM49.8023 17.0608C49.7114 17.5056 49.6684 17.8922 49.5472 18.251C49.4285 18.6072 49.4992 18.8726 49.6962 19.1808C51.0527 21.2831 51.9948 23.5648 52.5607 26.0007C52.9522 27.6886 53.1366 29.4042 53.1391 31.1376C53.1391 31.2716 53.0254 31.4838 53.2679 31.5343C53.7706 31.6405 54.4172 31.0997 54.4097 30.5918C54.3415 26.5565 53.2856 22.7941 51.2926 19.2945C50.8632 18.534 50.3959 17.7936 49.8023 17.0608ZM7.82315 34.0283C7.80042 34.1016 7.78021 34.1319 7.78274 34.1571C8.14648 36.9139 8.9952 39.514 10.2885 41.9725C10.3567 42.1039 10.4274 42.2176 10.6042 42.2252C11.0286 42.2429 11.4479 42.3288 11.8748 42.2808C11.8975 42.1166 11.7965 42.0205 11.7359 41.9169C10.7103 40.128 9.9677 38.2278 9.48272 36.2266C9.38926 35.84 9.30842 35.4458 9.18212 35.0693C8.96489 34.4199 8.2753 34.3947 7.82315 34.0283ZM54.2707 33.5836C53.9752 33.7428 53.7378 33.9146 53.47 34.003C53.0027 34.1546 52.8486 34.5058 52.7754 34.9329C52.5202 36.4186 52.0883 37.8539 51.5351 39.2562C51.184 40.1457 50.7369 40.9921 50.2949 41.8841C50.694 41.8614 51.0426 41.8209 51.3886 41.8235C51.7044 41.826 51.8786 41.6895 51.9974 41.4015C52.2525 40.7799 52.5581 40.181 52.8032 39.5569C53.5559 37.6492 54.0535 35.6783 54.2707 33.5836ZM16.3433 51.1549C16.1791 51.1347 16.0326 51.208 15.9214 51.3267C15.7774 51.4809 15.5097 51.6704 15.6587 51.8649C15.7749 52.0165 16.0477 52.3855 16.3256 51.9357C16.4039 51.8068 16.5302 51.918 16.6186 51.9711C16.9748 52.1858 17.3233 52.4107 17.6795 52.623C17.8361 52.7165 17.9245 52.8049 17.8033 53.002C17.6871 53.189 17.5684 53.2446 17.3764 53.1208C17.1061 52.9489 16.8257 52.7948 16.5655 52.6103C16.3483 52.4537 16.2271 52.4789 16.078 52.7114C15.9239 52.9515 15.9719 53.0626 16.2043 53.1865C16.4847 53.3355 16.7474 53.525 17.0227 53.6868C17.2198 53.803 17.2273 53.9268 17.1112 54.1188C16.9899 54.3134 16.8737 54.2831 16.7171 54.1845C16.366 53.9622 16.0098 53.7499 15.6587 53.525C15.5577 53.4619 15.3985 53.3911 15.5072 53.2319C15.7825 52.8352 15.3632 52.8074 15.2015 52.7165C14.9312 52.5623 14.9085 52.8858 14.8353 53.0172C14.6104 53.429 14.7847 53.7701 15.1333 54.0077C15.5804 54.3134 16.0427 54.5989 16.515 54.8668C16.9899 55.1371 17.341 55.026 17.6517 54.556C17.8841 54.2022 18.0382 53.8106 18.3059 53.4669C18.8288 52.7948 18.7278 52.4638 17.9902 52.0014C17.6366 51.7816 17.2854 51.5617 16.9293 51.3444C16.755 51.2383 16.5706 51.1448 16.3433 51.1549ZM23.0421 57.7928C23.56 57.8433 23.8025 57.6715 23.9313 57.3355C24.1334 56.8149 24.3304 56.2919 24.5274 55.7688C24.6891 55.3393 24.5653 54.9956 24.1536 54.8137C23.6004 54.5686 23.032 54.3488 22.4561 54.1618C22.0621 54.0355 21.711 54.1669 21.5442 54.5686C21.3169 55.1093 21.1275 55.6678 20.9228 56.2186C20.794 56.5648 20.8799 56.873 21.1906 57.0524C21.817 57.4113 22.5066 57.6058 23.0421 57.7928ZM41.7545 53.4366C41.6863 53.4467 41.5979 53.4417 41.5297 53.4745C40.8957 53.7777 40.2693 54.091 39.6327 54.3892C39.4382 54.4802 39.5367 54.5863 39.5923 54.695C39.9384 55.3974 40.2895 56.0948 40.628 56.7998C40.7012 56.9514 40.7543 57.0297 40.9437 56.9312C41.5095 56.6355 42.093 56.3778 42.6538 56.0721C43.1034 55.827 43.1994 55.5237 42.9569 55.0714C42.7397 54.6697 42.5376 54.2654 42.3583 53.8485C42.2471 53.6008 42.0577 53.4366 41.7545 53.4366ZM28.3972 57.5426C27.9425 57.9596 27.5914 58.2805 27.2529 58.5913C27.8516 58.897 28.2179 58.5332 28.5715 58.1314C28.7938 58.6999 29.0918 58.8894 29.6324 58.8338C29.9961 58.7959 30.2235 58.6115 30.2588 58.2325C30.2816 57.9975 30.3346 57.7524 30.1982 57.5325C30.0593 57.3102 29.8193 57.2394 29.4909 57.1662C29.8926 56.772 30.2311 56.441 30.567 56.1125C29.986 55.8522 29.592 56.1327 29.2661 56.59C28.9984 56.0089 28.6043 55.7865 28.0916 55.8927C27.6293 55.9887 27.5611 56.3298 27.5333 56.7214C27.5005 57.2243 27.7708 57.4492 28.3972 57.5426ZM46.713 49.8132C46.6751 49.8283 46.5514 49.8435 46.4705 49.9092C45.9224 50.3716 45.3818 50.8466 44.8388 51.3166C44.6948 51.443 44.7908 51.5365 44.8792 51.6375C45.4021 52.2212 45.9224 52.8049 46.4428 53.3886C46.5286 53.4846 46.5994 53.5832 46.7484 53.4442C47.2485 52.9742 47.7739 52.532 48.264 52.0494C48.5393 51.779 48.5393 51.448 48.2741 51.1473C47.9482 50.7759 47.6173 50.4044 47.2839 50.0381C47.1551 49.894 46.9959 49.7904 46.713 49.8132ZM33.674 56.4991C33.7876 57.0626 33.8836 57.6286 34.0175 58.1845C34.1084 58.5609 34.4166 58.6772 34.7601 58.6266C35.2653 58.5534 35.768 58.4548 36.2631 58.3361C36.6319 58.2476 36.8415 57.9975 36.786 57.5982C36.7658 57.4618 36.8264 57.2116 36.5889 57.247C36.4247 57.2723 36.0837 57.1687 36.1418 57.5603C36.1696 57.7448 36.0256 57.76 35.8993 57.7827C35.571 57.8484 35.2426 57.9065 34.9142 57.9747C34.6818 58.0227 34.5934 57.9394 34.5353 57.7018C34.2246 56.4485 34.313 56.3172 35.6139 56.2009C35.7528 56.1883 35.8791 56.1681 35.9195 56.3298C36.0105 56.6886 36.2378 56.4763 36.4071 56.4485C36.6925 56.4005 36.5132 56.1883 36.4955 56.0721C36.4323 55.7006 36.1747 55.5061 35.8109 55.5541C35.2603 55.6273 34.7121 55.7385 34.1665 55.8623C33.8533 55.9356 33.6815 56.158 33.674 56.4991ZM23.0522 5.92526C22.9613 5.79386 23.0295 5.48307 22.6759 5.63973C22.3551 5.78123 22.009 5.85703 21.6857 5.99095C21.4912 6.07181 21.4003 6.04402 21.3321 5.8444C21.2537 5.61699 21.4306 5.61193 21.5543 5.56645C21.9737 5.41232 22.393 5.25818 22.8199 5.12426C23.0219 5.05857 23.1179 4.99034 23.0245 4.75535C22.9462 4.55573 22.8476 4.54057 22.6683 4.60627C22.0848 4.82105 21.4988 5.03077 20.9077 5.22786C20.6829 5.30114 20.5995 5.37947 20.7031 5.6372C20.9279 6.20068 21.1325 6.77173 21.3068 7.3529C21.3876 7.62074 21.4887 7.66622 21.7362 7.57525C22.3046 7.363 22.8805 7.17349 23.4488 6.9663C23.6029 6.91071 23.7822 6.89302 23.6736 6.61254C23.5776 6.36239 23.4589 6.39271 23.2796 6.45588C22.8426 6.61002 22.4056 6.75657 21.9711 6.91829C21.812 6.9764 21.7286 6.97893 21.6579 6.78689C21.5796 6.56959 21.6958 6.54685 21.8423 6.49884C22.1757 6.38766 22.5041 6.26132 22.835 6.14761C22.9436 6.10971 23.0598 6.09203 23.0522 5.92526ZM12.2007 14.0161C12.135 13.6194 11.7132 13.4096 11.3747 13.1873C11.1398 13.0331 11.064 13.4147 10.9124 13.5486C10.7457 13.6952 10.6295 13.8948 10.4779 14.0565C10.3466 14.1955 10.3668 14.2839 10.5108 14.4001C10.6548 14.5189 10.7684 14.5745 10.8998 14.3925C11.0034 14.251 11.1271 14.1247 11.2282 13.9807C11.362 13.7886 11.5187 13.8872 11.554 14.011C11.6854 14.4557 11.208 14.5846 11.0488 14.8827C10.9806 15.0066 10.8897 15.2517 10.6573 15.0798C10.3769 14.8701 10.1117 14.6376 9.8414 14.4128C9.77068 14.3546 9.74542 14.2586 9.80352 14.2005C10.1117 13.8973 10.2481 13.4248 10.7103 13.2732C10.8922 13.2125 11.0564 13.0508 11.0135 12.9068C10.9579 12.7249 10.7255 12.6718 10.5234 12.7072C10.3618 12.7375 10.2355 12.8411 10.1319 12.9649C9.93739 13.1974 9.74037 13.4298 9.54839 13.6623C9.05077 14.2662 9.07351 14.4582 9.66711 14.956C10.8922 15.9844 10.8392 16.0122 11.8748 14.7311C12.0213 14.5467 12.1981 14.3749 12.2007 14.0161ZM27.844 4.24999C27.8769 4.73008 27.9173 5.20765 27.94 5.68774C27.9501 5.89241 28.0107 5.95558 28.2254 5.93536C28.862 5.87472 29.5011 5.82924 30.1376 5.79892C30.3548 5.78881 30.4028 5.70037 30.4028 5.50328C30.4028 5.26071 30.2614 5.25818 30.0871 5.27082C29.6577 5.30366 29.2257 5.34157 28.7938 5.35925C28.6473 5.36431 28.43 5.47296 28.4275 5.15206C28.425 4.84884 28.6447 4.92465 28.7913 4.90948C29.0944 4.87916 29.3975 4.88169 29.7031 4.864C29.9128 4.85389 29.9987 4.76798 29.986 4.53046C29.9734 4.26768 29.8294 4.30811 29.6678 4.32074C29.3343 4.34854 28.9984 4.3738 28.665 4.39654C28.5184 4.40665 28.3745 4.42434 28.3568 4.20703C28.3366 3.96952 28.4856 3.9493 28.6549 3.93667C29.0868 3.90887 29.5162 3.88613 29.9481 3.85328C30.1098 3.84065 30.2942 3.88613 30.2791 3.58797C30.2639 3.26707 30.0846 3.32771 29.8951 3.34034C29.4657 3.37067 29.0337 3.40099 28.6018 3.42625C27.8087 3.47426 27.8087 3.47426 27.844 4.24999ZM35.5381 4.52794C35.8943 5.17985 36.1949 5.70542 36.4652 6.24363C36.5839 6.47862 36.791 6.50642 36.9855 6.50389C37.2078 6.50137 37.1522 6.27143 37.1825 6.13245C37.3013 5.58667 37.3972 5.03582 37.5261 4.49256C37.5791 4.26262 37.6069 4.11354 37.3038 4.05543C36.9501 3.9872 37.0461 4.26262 37.0082 4.40918C36.9123 4.76798 36.8491 5.13437 36.7759 5.48812C36.6243 5.48559 36.6142 5.38958 36.5788 5.32641C36.3262 4.86653 36.061 4.40918 35.8311 3.93667C35.7074 3.68146 35.48 3.65114 35.2754 3.66125C35.0683 3.67135 35.134 3.91393 35.1037 4.05037C34.9698 4.62396 34.8814 5.21017 34.7399 5.78376C34.6843 6.01117 34.7652 6.04907 34.9445 6.10213C35.1542 6.16278 35.23 6.09961 35.2653 5.89241C35.3335 5.48559 35.4245 5.08383 35.5381 4.52794ZM47.0995 11.4463C47.2359 11.4514 47.3622 11.416 47.4456 11.3124C47.7638 10.9132 48.0922 10.5164 48.3827 10.097C48.5494 9.85442 48.461 9.59416 48.2412 9.41223C47.8851 9.1166 47.5163 8.83107 47.1399 8.5607C46.8595 8.36109 46.5893 8.42678 46.3771 8.68704C46.1043 9.02311 45.834 9.3617 45.5789 9.7104C45.3515 10.0237 45.4172 10.3168 45.7052 10.5569C45.9881 10.7919 46.2836 11.0117 46.5766 11.2366C46.7332 11.3528 46.8949 11.4564 47.0995 11.4463ZM17.7022 41.9397C17.6921 41.9801 17.682 42.018 17.6719 42.0584C17.9447 42.2025 18.1796 42.4223 18.5282 42.4122C20.7991 42.3516 23.0573 42.157 24.7851 41.9422C24.1738 42.1469 23.0901 41.2044 21.9433 41.7097C21.8676 41.7426 21.7539 41.6921 21.6579 41.6921C21.0315 41.687 20.405 41.7047 19.8089 41.8235C19.8089 41.9902 20.0211 41.9447 19.9807 42.114C19.2178 42.0559 18.46 41.9978 17.7022 41.9397ZM54.3844 20.5731C54.3465 20.4872 54.3137 20.4139 54.2783 20.3432C54.1192 20.0121 53.9828 19.6685 53.7883 19.3577C53.5736 19.0115 53.5913 18.8069 54.008 18.6527C54.3794 18.5163 54.7254 18.3066 55.0892 18.1448C55.2912 18.0539 55.2736 17.9452 55.1851 17.7734C55.0993 17.6041 55.026 17.5814 54.8593 17.6673C54.2783 17.9654 53.6872 18.2434 53.0987 18.5314C52.9926 18.5845 52.841 18.5997 52.937 18.7942C53.2578 19.436 53.5736 20.0804 53.8843 20.7272C53.9449 20.851 54.0106 20.8435 54.1066 20.7803C54.2025 20.7121 54.3541 20.7171 54.3844 20.5731ZM52.3333 13.5587C52.2474 13.4399 52.1818 13.3338 52.0984 13.2403C51.9721 13.0963 51.9014 13.2555 51.8307 13.3111C51.333 13.7053 50.848 14.1146 50.3454 14.5063C50.1711 14.6402 50.1357 14.7362 50.2923 14.9207C50.4388 15.0925 50.5273 15.052 50.6712 14.9308C51.1461 14.5315 51.6311 14.1475 52.111 13.7558C52.1818 13.6977 52.2474 13.6345 52.3333 13.5587ZM18.018 42.4501C16.904 42.0357 15.4617 42.0812 15.2167 42.4956C16.0376 42.4956 16.851 42.4956 17.6643 42.4956C17.7376 42.493 17.8108 42.4754 18.018 42.4501Z" fill="#1F2120"/>
<path d="M35.0886 28.3152C35.8843 28.4163 35.8868 28.4163 35.6645 29.1693C35.3816 30.1269 34.9749 31.029 34.4546 31.8805C34.3813 31.9993 34.2575 32.0978 34.2752 32.2848C34.4899 32.3076 34.7072 32.3328 35.0002 32.3657C33.5124 34.6347 32.3226 37.0049 31.4739 39.5544C31.335 30.4554 31.1405 21.364 31.2087 12.2701C30.7389 21.604 30.898 30.938 31.3047 40.2796C30.855 38.8899 30.3448 37.5355 29.731 36.2216C29.1146 34.9026 28.3872 33.6442 27.5915 32.4162C27.8163 32.2671 28.0563 32.3606 28.3114 32.2621C28.1043 31.8881 27.8921 31.5242 27.6976 31.1503C27.3061 30.4099 27.0332 29.6266 26.7882 28.8282C26.6695 28.4416 26.7402 28.3001 27.1494 28.3556C27.2404 28.3683 27.3364 28.3455 27.4677 28.3354C27.0737 27.1175 26.7453 25.9122 26.7882 24.5629C27.2101 24.856 27.2202 25.3361 27.5384 25.652C27.4121 24.7524 27.2884 23.8984 27.1747 23.0418C27.0812 22.3368 27.2404 22.1625 27.9426 22.2079C27.7481 21.4246 27.6445 20.6388 27.6193 19.8403C27.6092 19.5346 27.6092 19.2668 28.031 19.2263C28.3139 19.2011 28.2306 19.0292 28.1219 18.8524C27.7658 18.2737 27.6875 17.6648 27.9426 17.0154C28.0487 16.7475 28.1699 16.654 28.4377 16.8006C28.7332 16.9623 28.8595 16.8916 28.8267 16.5277C28.7736 15.9061 28.7484 15.282 28.7256 14.6579C28.713 14.3395 28.6979 14.0161 29.2056 14.1247C29.4304 14.1727 29.4658 13.9352 29.4885 13.7634C29.5289 13.4551 29.3496 13.2151 29.2207 12.9573C29.1298 12.7754 29.001 12.5733 29.2005 12.3888C29.4253 12.1816 29.5719 12.3939 29.736 12.5076C29.7689 12.5303 29.8143 12.5379 29.8977 12.5707C29.7765 12.174 29.6502 11.8152 29.5592 11.4489C29.395 10.7969 29.4051 10.7944 30.1048 10.9662C30.0467 10.658 29.9962 10.3699 29.9356 10.0844C29.7765 9.32634 29.9053 8.65421 30.4888 8.10085C30.9561 7.65613 31.0521 7.08002 31.0445 6.46854C31.0394 6.13247 31.0319 5.79641 31.047 5.46034C31.0596 5.17734 31.1177 4.8994 31.3476 4.6543C31.6204 5.03837 31.6179 5.43255 31.6027 5.83178C31.5876 6.27903 31.4865 6.72122 31.5825 7.17099C31.6482 7.4742 31.7366 7.77489 31.9665 7.98209C32.7041 8.64411 32.7874 9.45521 32.5778 10.3573C32.5348 10.5367 32.4313 10.7136 32.4843 10.9081C32.5651 10.9864 32.6409 10.9359 32.7091 10.9056C33.0274 10.7565 33.1133 10.8778 33.0602 11.1911C32.9819 11.6485 32.8253 12.0831 32.646 12.5101C32.699 12.5278 32.7268 12.5505 32.747 12.543C32.9415 12.4899 33.0602 12.1488 33.3204 12.3686C33.5957 12.6011 33.3835 12.8361 33.2775 13.0559C33.1739 13.2732 33.0249 13.4829 33.0653 13.7305C33.0956 13.9251 33.0703 14.193 33.4467 14.102C33.7953 14.0186 33.8332 14.2991 33.8231 14.5568C33.7978 15.2289 33.7751 15.9011 33.7271 16.5732C33.7043 16.8916 33.8054 16.9547 34.0656 16.8107C34.4015 16.6288 34.548 16.788 34.6491 17.0962C34.8486 17.6976 34.7829 18.2687 34.4596 18.8044C34.3182 19.0393 34.2222 19.2011 34.6137 19.239C34.9471 19.2718 34.9421 19.5472 34.937 19.7873C34.9219 20.6034 34.8057 21.4095 34.6137 22.2079C35.3033 22.1625 35.4852 22.3621 35.3892 23.019C35.2704 23.8403 35.1593 24.664 35.0305 25.5762C35.3664 25.2553 35.3563 24.7979 35.7782 24.5528C35.7883 25.892 35.5129 27.115 35.0886 28.3152Z" fill="#4ECB71"/>
<path d="M20.7415 34.8014C18.1625 32.7674 16.6318 29.9525 15.0454 27.1756C14.8535 26.8395 14.7928 26.4959 14.952 26.1194C15.0555 25.8743 15.0707 25.5862 14.8737 25.3917C14.1437 24.6665 14.0224 23.7341 13.9466 22.7865C13.9037 22.266 13.7648 21.7809 13.497 21.3311C13.305 21.0102 13.257 20.712 13.5778 20.4316C13.8885 20.1612 13.8128 19.8302 13.6814 19.5042C13.2318 18.395 12.9969 17.2427 12.959 16.0476C13.0777 16.0147 13.0954 16.1133 13.1232 16.1714C13.742 17.4878 14.6211 18.6249 15.5481 19.7342C15.778 20.0096 16.071 20.2016 16.3362 20.4316C16.7429 20.7878 17.0334 21.2199 17.19 21.743C17.2254 21.8592 17.2102 22.0866 17.4451 21.9325C17.8089 21.6949 18.0918 21.9274 18.2888 22.1548C19.4785 23.537 20.7516 24.8534 21.7418 26.3973C21.8252 26.5287 21.8833 26.6677 22.0399 26.7561C23.5125 27.5874 23.7499 27.9488 23.947 29.6089C24.1162 29.5407 24.0808 29.3815 24.1061 29.2576C24.2248 28.7194 24.4067 28.6462 24.8311 29.0125C25.3868 29.4926 25.7884 30.0864 26.0233 30.7838C26.1042 31.0188 26.1976 31.2285 26.4578 31.3397C26.6093 31.221 26.3845 31.0289 26.5513 30.9076C26.8064 31.0643 26.8594 31.3448 26.8771 31.6025C26.8998 31.9537 27.0362 32.2266 27.2307 32.5172C28.9231 35.0314 30.2366 37.7275 30.9768 40.6813C30.9995 40.7697 31.0601 40.8582 30.9768 40.987C30.1533 40.7723 29.3601 40.4463 28.5695 40.1178C25.5838 38.8822 22.7522 37.3737 20.2262 35.3346C20.1504 35.2739 20.0696 35.2209 20.0065 35.1501C19.8953 35.0238 19.6958 34.9126 19.817 34.7105C19.9509 34.4881 20.1302 34.6776 20.2894 34.7079C20.4434 34.7383 20.5798 34.852 20.7491 34.8014C20.7365 34.8545 20.7491 34.8798 20.8047 34.8444C20.7845 34.8267 20.7642 34.8141 20.7415 34.8014ZM29.7744 39.711C29.8401 39.6024 29.7542 39.5619 29.686 39.5139C29.638 39.4507 29.5951 39.385 29.5445 39.3244C25.3514 34.5715 21.3957 29.624 17.579 24.5629C16.6469 23.3273 15.7173 22.0866 14.7878 20.8485C14.6969 20.6564 14.6362 20.4391 14.3937 20.376C14.4291 20.2142 14.3533 20.1258 14.2018 20.0879C14.1386 19.9666 14.078 19.8453 14.0148 19.7215C14.0022 19.7291 13.9921 19.7367 13.9795 19.7417C14.0553 19.8529 14.131 19.9666 14.2068 20.0778C14.2472 20.1915 14.2927 20.3002 14.3988 20.3684C14.4847 20.5629 14.5756 20.7525 14.76 20.8763C14.8156 20.99 14.856 21.1113 14.9267 21.2149C19.279 27.6152 24.0632 33.6745 29.3702 39.3118C29.4536 39.4002 29.5092 39.5746 29.6961 39.5038C29.6153 39.62 29.7138 39.6554 29.7845 39.7009C29.8199 39.7944 29.8754 39.8677 29.979 39.8929C30.0043 39.9233 30.027 39.9561 30.0523 39.9864C30.0624 39.9687 30.0725 39.9536 30.0826 39.9359C30.0447 39.9233 30.0093 39.9106 29.9714 39.898C29.9588 39.7843 29.9335 39.6807 29.7744 39.711Z" fill="#4ECB71"/>
<path d="M41.9467 34.7659C42.0528 34.7356 42.1614 34.7078 42.2675 34.675C42.4165 34.627 42.5933 34.5107 42.6716 34.7331C42.7424 34.9352 42.5908 35.0616 42.414 35.1273C42.0098 35.2738 41.5981 35.4002 41.1939 35.5492C41.0626 35.5972 40.7999 35.572 40.8605 35.7918C40.9388 36.0799 41.1434 35.8373 41.2924 35.8221C41.3834 35.8146 41.4693 35.7691 41.588 35.7286C40.8302 36.8708 33.9646 40.4285 31.5599 40.944C31.474 40.6205 31.8402 40.5169 31.8882 40.2693C32.0272 40.2845 32.0777 40.2061 32.0878 40.0848C32.2596 40.0672 32.3278 39.9408 32.3783 39.7993C32.444 39.8018 32.4743 39.769 32.4768 39.7058C32.5374 39.7058 32.5703 39.6755 32.5778 39.6149C32.6258 39.6022 32.6738 39.5668 32.6334 39.5264C32.5905 39.4809 32.5627 39.5391 32.545 39.5795C32.4894 39.6048 32.4465 39.6351 32.4743 39.7058C32.396 39.6957 32.3682 39.7311 32.3808 39.8044C32.2141 39.8296 32.1358 39.9433 32.0928 40.0924C31.9893 40.1152 31.9438 40.1985 31.8908 40.2769C31.8402 40.3097 31.7746 40.3805 31.7443 40.3678C31.6104 40.3148 31.6963 40.2061 31.7165 40.1278C31.9362 39.3091 32.2191 38.5106 32.5374 37.7248C33.2497 35.9687 34.1162 34.2934 35.1771 32.7243C35.4044 32.3857 35.5762 32.0496 35.5938 31.6276C35.6065 31.3522 35.6469 31.0541 35.9399 30.8898C36.1294 31.0541 35.8414 31.1981 35.9854 31.3598C36.2127 31.2461 36.3516 31.0718 36.4426 30.7963C36.6573 30.1495 37.0261 29.5911 37.5161 29.111C37.7056 28.9265 37.9203 28.7319 38.1804 28.8027C38.4154 28.8684 38.3118 29.1665 38.3876 29.3535C38.4229 29.4394 38.4356 29.5355 38.4836 29.7199C38.5341 29.4622 38.5795 29.303 38.5922 29.1388C38.6806 27.9941 39.3298 27.2639 40.325 26.7964C40.4942 26.7181 40.6079 26.612 40.7039 26.4528C41.6612 24.8836 42.9621 23.5899 44.1316 22.1926C44.3413 21.9424 44.6394 21.6569 45.0435 21.9374C45.1471 22.0081 45.2178 21.993 45.2481 21.8616C45.4426 21.0277 46.0867 20.5577 46.6526 19.9867C47.7362 18.8951 48.6304 17.6368 49.3099 16.242C49.3427 16.1738 49.3781 16.1055 49.4236 16.0171C49.5398 16.5275 49.4412 17.4068 49.1558 18.4125C49.0674 18.7208 48.9739 19.0265 48.8527 19.3221C48.6632 19.782 48.5774 20.2015 49.0169 20.5855C49.2139 20.7574 49.1508 21.0025 49.0245 21.2046C48.595 21.8969 48.5092 22.6752 48.441 23.4585C48.3854 24.0978 48.2136 24.6815 47.7589 25.159C47.4735 25.4597 47.3548 25.8009 47.5468 26.2127C47.6857 26.5109 47.5947 26.804 47.4634 27.0895C46.6551 28.8659 45.4679 30.4047 44.3691 31.9966C43.6669 33.0174 42.9166 33.9877 41.8684 34.68C41.8204 34.7053 41.7421 34.7154 41.7976 34.8013C41.7547 34.7508 41.7193 34.7861 41.684 34.8139C41.6789 34.819 41.684 34.8518 41.6916 34.8544C41.7446 34.8721 41.7774 34.8493 41.7901 34.7963C41.8482 34.7887 41.8987 34.776 41.9467 34.7659ZM47.4861 19.8098C47.135 20.1181 46.9077 20.5224 46.65 20.9014C46.2484 21.4598 45.8443 22.0182 45.4451 22.5792C41.3935 28.2695 37.3292 33.9498 32.7723 39.2535C32.7319 39.3015 32.641 39.3571 32.7648 39.4557C33.8989 38.258 34.975 37.0097 36.0258 35.7413C38.9079 32.2568 41.5754 28.6132 44.1266 24.8836C45.0132 23.5899 45.9226 22.3139 46.7157 20.957C47.0365 20.6159 47.2285 20.1888 47.4811 19.8022C47.4861 19.7896 47.4937 19.777 47.4962 19.7643C47.4988 19.7517 47.5013 19.7391 47.5013 19.729C47.4962 19.7568 47.4912 19.782 47.4861 19.8098Z" fill="#4ECB71"/>
<path d="M5.57302 30.6426C6.67687 31.527 7.90702 32.1435 9.30136 32.4214C9.62973 32.4871 9.94295 32.6312 10.188 32.8763C10.2991 32.9874 10.4254 33.0304 10.5694 33.0506C11.7667 33.2224 12.8453 33.6798 13.8052 34.4151C13.9618 34.5338 14.0931 34.6299 14.2371 34.4176C14.3659 34.2306 14.515 34.3165 14.6589 34.3822C15.2576 34.6475 15.8537 34.9204 16.4574 35.1782C16.5787 35.2287 16.7631 35.4688 16.8262 35.0998C16.8515 34.9583 16.9828 35.0493 17.0637 35.0771C17.4906 35.2237 17.8695 35.59 18.2635 35.638C18.6803 35.6886 19.0895 35.7391 19.5063 35.8326C20.8147 36.1207 21.8352 36.9343 22.934 37.6089C25.1518 38.9684 27.4833 40.0877 29.9335 40.9595C29.9891 40.9797 30.0396 41.0125 30.1785 41.0858C29.2389 41.1667 28.3927 41.2223 27.549 41.3183C26.387 41.4497 25.2276 41.5912 24.0556 41.5204C23.8813 41.5103 23.6817 41.5609 23.5478 41.4244C23.2043 41.0757 22.8305 41.1414 22.4415 41.3057C22.1131 41.4421 21.8125 41.4623 21.4942 41.2324C21.2189 41.0353 20.8728 41.1616 20.5571 41.1414C20.355 41.1288 19.9079 41.3309 20.1252 40.7599C20.1833 40.6032 19.9307 40.4491 19.769 40.444C18.8925 40.4162 18.1827 39.9968 17.4426 39.5874C16.998 39.3423 16.4195 39.3499 15.9194 39.1882C15.6542 39.1023 15.2526 39.0745 15.3586 38.5818C15.3915 38.4251 15.1692 38.4377 15.0631 38.4049C14.4468 38.2179 13.8582 37.9703 13.2949 37.6645C13.0853 37.5508 12.8857 37.4144 13.2469 37.1769C12.8503 37.0809 12.5119 37 12.1759 36.9166C11.5293 36.7549 10.9862 36.4441 10.6502 35.8452C10.3926 35.3904 9.90254 35.2186 9.39987 34.8472C9.83181 34.827 10.14 34.8118 10.4456 34.7966C8.03584 34.3494 6.53289 32.8131 5.49219 30.7108C5.51997 30.6881 5.54776 30.6653 5.57302 30.6426ZM9.48828 33.2679C13.4212 35.4005 24.8361 39.9311 26.526 40.0372C20.7112 37.9425 15.0682 35.6936 9.48828 33.2679Z" fill="#4ECB71"/>
<path d="M56.4927 30.208C55.4722 32.3356 54.0122 33.9249 51.562 34.3873C51.8474 34.4025 52.1329 34.4176 52.4132 34.4303C52.4663 34.5465 52.393 34.5869 52.3198 34.6198C51.8272 34.8523 51.466 35.2212 51.1629 35.6684C50.7865 36.2243 50.1904 36.4189 49.569 36.5578C49.3063 36.616 49.0436 36.6892 48.743 36.7625C49.0714 37.0152 48.892 37.1516 48.6495 37.278C48.0938 37.5635 47.5204 37.801 46.9243 37.9905C46.7727 38.0385 46.5454 38.0133 46.649 38.3418C46.7096 38.5313 46.4368 38.6323 46.265 38.7081C45.8508 38.8876 45.3961 38.9229 44.9616 39.0265C44.5347 39.1276 44.1331 39.2691 43.8174 39.5925C43.59 39.825 43.3046 39.8983 42.9888 39.9033C42.6857 39.9058 42.3725 39.9235 42.1073 40.0827C41.9835 40.156 41.7082 40.1787 41.9229 40.487C42.0643 40.6917 41.7966 40.7473 41.6551 40.7372C41.1272 40.6993 40.6195 40.6689 40.1294 40.9646C39.9248 41.0884 39.6647 40.9241 39.4398 40.8458C39.1089 40.7321 38.8058 40.7119 38.4951 40.957C38.1743 41.2097 37.7575 41.0884 37.3837 41.1162C36.2925 41.1945 35.2189 40.9115 34.1277 40.9519C33.6175 40.9722 33.1072 40.9545 32.6172 40.9545C32.645 40.8787 32.7814 40.8812 32.8925 40.8408C36.3506 39.5243 39.6167 37.8591 42.5215 35.532C42.812 35.2995 43.1202 35.0241 43.5496 35.2768C43.6911 35.3601 43.7845 35.2287 43.8931 35.1732C44.176 35.0241 44.4489 34.8523 44.7469 34.7411C44.8732 34.6931 45.1132 34.4025 45.2016 34.8346C45.2319 34.9862 45.3885 34.832 45.4744 34.7967C46.0907 34.5288 46.6995 34.2484 47.3158 33.978C47.4143 33.935 47.5912 33.8693 47.6215 33.9072C47.9903 34.3595 48.2277 33.9552 48.4854 33.7809C49.1295 33.3488 49.814 33.0077 50.5693 32.8258C51.898 32.5023 53.1003 31.8277 54.4163 31.4562C55.1893 31.2339 55.8183 30.6654 56.4927 30.208ZM51.9889 33.2553C52.0672 33.2528 52.1682 33.2856 52.1708 33.1517C52.2516 33.1542 52.34 33.1719 52.3779 33.0658C52.4764 33.0355 52.5749 33.0052 52.6734 32.9748L52.681 32.9622L52.6684 32.9799C52.5749 33.0102 52.4789 33.0431 52.3855 33.0734C52.3173 33.1012 52.2465 33.129 52.1783 33.1568C52.1177 33.1922 52.0571 33.2275 51.999 33.2629C51.9257 33.2781 51.8424 33.273 51.8045 33.3589C51.6201 33.3564 51.4736 33.465 51.3145 33.5358C48.6091 34.731 45.9089 35.9287 43.2035 37.1213C40.3088 38.3974 37.3534 39.5218 34.4081 40.6715C34.3854 40.6866 34.3626 40.7043 34.3399 40.7195C34.3601 40.7018 34.3803 40.6816 34.4005 40.6639C34.7996 40.5603 35.2063 40.4769 35.5978 40.348C41.059 38.5338 46.2979 36.1889 51.4407 33.6192C51.5696 33.5535 51.7565 33.5434 51.7994 33.3513C51.8828 33.3614 51.9712 33.3791 51.9889 33.2553Z" fill="#4ECB71"/>
<path d="M11.1293 43.2641C11.6092 43.3803 12.0866 43.5218 12.5741 43.6077C12.9353 43.6734 13.0465 43.9691 13.2233 44.2015C16.4136 48.4188 20.5587 51.2185 25.689 52.492C34.4389 54.6625 43.5552 51.3296 48.8597 44.0423C49.2891 43.4536 49.7236 43.0114 50.4688 42.9356C50.7012 42.9129 50.9234 42.8118 51.1483 42.7461C51.2367 42.9078 51.128 42.9861 51.075 43.0695C47.0562 49.4623 41.3424 53.3132 33.8327 54.2253C26.3659 55.135 19.902 52.8306 14.4812 47.6203C13.2309 46.4175 12.1624 45.0556 11.2328 43.59C11.1722 43.494 11.0358 43.4056 11.1343 43.2565L11.1293 43.2641Z" fill="#4ECB71"/>
<path d="M31.9258 41.3816C33.3681 41.2199 34.7296 41.187 36.0962 41.3614C36.7782 41.4473 37.5158 41.5484 38.1422 41.3311C38.8722 41.0809 39.534 41.2603 40.2312 41.2704C40.8879 41.2805 41.5321 41.3437 42.1964 41.3816C42.1964 41.5787 41.964 41.5181 41.9665 41.7C42.7319 41.6419 43.4973 41.5863 44.298 41.5256C44.2424 41.8137 43.9343 41.7657 43.8509 41.983C44.4369 41.9148 45.0078 41.8314 45.5837 41.7834C46.0106 41.748 46.4501 41.6949 46.8012 42.0487C46.9376 42.1851 47.1044 42.0891 47.2559 42.0588C47.9228 41.9223 48.577 41.892 49.2489 42.079C50.1279 42.3241 51.0196 42.0866 52.0527 42.0638C51.0146 42.5086 50.0673 42.7739 49.1024 42.9659C47.6323 43.2616 46.1495 43.3298 44.6567 43.2287C44.3031 43.2034 43.9519 43.1832 43.7019 43.5294C43.5756 43.7063 43.3785 43.6279 43.2118 43.5875C42.7294 43.4688 42.2595 43.4864 41.7998 43.681C41.4007 43.8503 41.0344 43.7796 40.648 43.6001C40.2665 43.4207 39.8649 43.1251 39.4658 43.6355C39.3521 43.7821 39.0995 43.6936 38.9151 43.6305C38.5666 43.5092 38.2205 43.3828 37.8795 43.2464C37.5739 43.1251 37.2808 43.0746 36.9474 43.1681C36.4801 43.2995 36.0734 43.072 35.6819 42.8497C35.2399 42.5995 34.8231 42.266 34.2623 42.5515C34.184 42.592 34.035 42.5439 33.944 42.4934C33.2898 42.1447 32.6406 41.7783 31.9258 41.3816ZM33.3984 41.5181C37.8113 42.5414 42.2646 42.8952 46.7709 42.5263C42.2873 42.4808 37.8214 42.2205 33.3984 41.5181Z" fill="#4ECB71"/>
<path d="M30.4651 7.59798C30.162 8.04775 29.768 8.36865 29.5962 8.84116C29.5507 8.9675 29.3992 8.91444 29.2931 8.92202C25.2768 9.24545 21.6116 10.5543 18.3076 12.8588C16.7769 13.9276 15.3876 15.1582 14.1979 16.5984C13.9175 16.937 13.8215 16.8486 13.6725 16.5252C13.19 15.474 13.0864 15.8404 13.8796 15.004C17.8656 10.7944 22.7508 8.35602 28.5126 7.70158C29.1365 7.63083 29.768 7.54997 30.4651 7.59798Z" fill="#4ECB71"/>
<path d="M32.0898 7.5752C38.8544 8.05023 44.4115 10.7489 48.8244 15.7873C49.0795 16.0779 48.9482 16.2623 48.8168 16.4998C48.3899 17.2832 48.3975 17.2806 47.8266 16.6287C43.9922 12.2472 39.203 9.66991 33.4034 9.00536C33.128 8.97251 32.9285 8.91187 32.835 8.61118C32.7163 8.22458 32.3323 8.00475 32.0898 7.5752Z" fill="#4ECB71"/>
<path d="M30.8271 41.3711C30.3573 41.7931 29.8748 41.9649 29.4327 42.1999C29.0235 42.4172 28.6042 42.6143 28.195 42.8316C27.9753 42.9478 27.7681 43.016 27.513 42.9074C27.2453 42.7912 26.98 42.872 26.735 43.0186C26.0985 43.3976 25.4796 43.7336 24.6637 43.5467C24.2242 43.4456 23.7897 43.8019 23.3502 43.9383C22.9865 44.052 22.6354 44.3072 22.2918 43.8271C22.1554 43.6376 21.8169 43.7741 21.6199 43.8903C21.0339 44.2314 20.4529 44.2769 19.8391 43.9863C19.6295 43.8878 19.3945 43.9055 19.1748 43.9408C18.7555 44.004 18.3665 44.1379 18.0002 43.7185C17.8234 43.5163 17.4495 43.6326 17.1641 43.6503C14.9337 43.7867 12.7588 43.5138 10.6496 42.7634C10.4854 42.7052 10.3263 42.637 10.1621 42.5739C10.1823 42.536 10.1949 42.4955 10.2051 42.4955C11.2912 42.5915 12.3673 42.632 13.4459 42.3768C14.0875 42.2226 14.6962 42.5612 15.3353 42.6016C18.3185 42.7937 21.2814 42.6193 24.2419 42.2605C25.7852 42.0735 27.2806 41.6314 28.8265 41.4823C29.4504 41.4242 30.0819 41.4115 30.8271 41.3711Z" fill="#4ECB71"/>
<path d="M12.6556 16.5503C12.6657 16.7272 12.6404 16.8864 12.6884 17.0127C13.0421 17.9249 12.6505 18.6223 12.1706 19.3879C10.1069 22.6677 9.02577 26.2658 8.88179 30.1445C8.86411 30.6574 8.82117 31.1678 8.87422 31.6782C8.88684 31.7894 8.90453 31.9511 8.75802 31.941C8.38923 31.9132 8.04064 31.7692 7.70974 31.61C7.46472 31.4913 7.58344 31.236 7.58344 31.044C7.57839 25.8439 9.14449 21.1592 12.2237 16.9773C12.3196 16.8485 12.4207 16.7246 12.5217 16.6008C12.5369 16.5806 12.5748 16.5781 12.6556 16.5503Z" fill="#4ECB71"/>
<path d="M49.8027 17.061C50.3963 17.7938 50.8636 18.5342 51.2955 19.2922C53.2885 22.7943 54.3444 26.5567 54.4126 30.5895C54.4202 31.0974 53.7735 31.6356 53.2708 31.532C53.0284 31.4815 53.142 31.2692 53.142 31.1353C53.1395 29.4019 52.9576 27.6862 52.5636 25.9983C51.9978 23.5625 51.0556 21.2808 49.6991 19.1785C49.5021 18.8702 49.4314 18.6049 49.5501 18.2486C49.6688 17.8924 49.7118 17.5058 49.8027 17.061Z" fill="#4ECB71"/>
<path d="M7.82244 34.0283C8.27459 34.3947 8.96418 34.42 9.18142 35.0668C9.30772 35.4433 9.38855 35.835 9.48201 36.2241C9.967 38.2279 10.7096 40.1255 11.7352 41.9144C11.7958 42.0206 11.8968 42.1141 11.8741 42.2783C11.4472 42.3263 11.0254 42.2404 10.6035 42.2227C10.4267 42.2151 10.356 42.1014 10.2878 41.97C8.9945 39.5115 8.14577 36.9114 7.78203 34.1547C7.77698 34.1294 7.79719 34.1016 7.82244 34.0283Z" fill="#4ECB71"/>
<path d="M54.2702 33.5835C54.0555 35.6757 53.5579 37.6466 52.8052 39.5543C52.5602 40.1784 52.2545 40.7773 51.9994 41.3989C51.8807 41.6895 51.7064 41.8234 51.3906 41.8209C51.042 41.8183 50.696 41.8562 50.2969 41.8815C50.7414 40.987 51.186 40.1431 51.5371 39.2536C52.0903 37.8513 52.5223 36.416 52.7774 34.9303C52.8506 34.5058 53.0047 34.1546 53.472 34.0004C53.7347 33.917 53.9747 33.7427 54.2702 33.5835Z" fill="#4ECB71"/>
<path d="M32.2368 42.9229C32.2368 43.0568 32.2368 43.1907 32.2368 43.4333C31.8427 42.794 31.6785 42.1674 31.4941 41.5205C32.2039 42.0233 33.0325 42.4226 33.5806 43.0619C33.9595 43.504 34.3864 43.8452 34.8082 44.2141C34.9168 44.3076 35.0633 44.3429 34.8966 44.5703C34.7476 44.775 34.9977 44.957 35.1795 45.0378C35.5761 45.2122 35.8337 45.4699 35.8918 45.9171C35.907 46.0334 36.0005 46.1471 36.0762 46.2456C36.2177 46.425 36.6951 46.4831 36.2859 46.8622C36.2707 46.8748 36.3869 47.0365 36.4501 47.1249C36.7709 47.5621 37.1043 47.9942 37.1952 48.5501C37.1725 48.5677 37.1498 48.588 37.127 48.6107C36.9123 48.3328 36.6825 48.0674 36.4905 47.7769C36.3339 47.5419 36.1647 47.3953 35.8742 47.3094C35.4826 47.1932 35.3816 46.7586 35.1745 46.4452C35.0835 46.3088 35.0886 46.0435 34.7855 46.2355C34.644 46.3239 34.5379 46.1496 34.4672 46.0233C34.3283 45.7731 34.207 45.5103 34.0504 45.2728C33.9418 45.1086 33.9746 44.7118 33.5705 44.9165C33.5477 44.9292 33.4316 44.7599 33.3634 44.6739C32.9365 44.1181 32.6712 43.4636 32.2898 42.8799C32.2721 42.8547 32.2545 42.8319 32.2368 42.8066C32.1913 42.8395 32.2039 42.8799 32.2368 42.9229Z" fill="#4ECB71"/>
<path d="M16.3425 51.1547C16.5699 51.1446 16.7543 51.2381 16.9311 51.3467C17.2847 51.564 17.6384 51.7839 17.992 52.0037C18.7296 52.4636 18.8306 52.7946 18.3077 53.4693C18.04 53.8129 17.8859 54.2046 17.6535 54.5583C17.3428 55.0308 16.9917 55.1395 16.5168 54.8691C16.0445 54.6013 15.5822 54.3157 15.1351 54.01C14.7865 53.7699 14.6122 53.4314 14.837 53.0195C14.9103 52.8856 14.933 52.5647 15.2033 52.7188C15.365 52.8098 15.7843 52.8376 15.509 53.2343C15.3978 53.3935 15.5595 53.4617 15.6605 53.5274C16.0116 53.7523 16.3678 53.9645 16.7189 54.1869C16.873 54.2854 16.9917 54.3157 17.1129 54.1212C17.2317 53.9317 17.2241 53.8053 17.0245 53.6891C16.7492 53.5274 16.4865 53.3404 16.2061 53.1888C15.9737 53.065 15.9257 52.9538 16.0798 52.7137C16.2289 52.4813 16.3476 52.456 16.5673 52.6127C16.8275 52.7971 17.1104 52.9513 17.3782 53.1231C17.5702 53.2469 17.6889 53.1913 17.8051 53.0043C17.9263 52.8098 17.8379 52.7213 17.6813 52.6253C17.3251 52.4105 16.974 52.1882 16.6204 51.9734C16.532 51.9203 16.4057 51.8091 16.3274 51.938C16.0495 52.3878 15.7767 52.0189 15.6605 51.8673C15.5115 51.6727 15.7792 51.4832 15.9232 51.3291C16.0344 51.2078 16.1783 51.1345 16.3425 51.1547Z" fill="white"/>
<path d="M23.0417 57.793C22.5061 57.606 21.814 57.4114 21.1926 57.0526C20.8819 56.8732 20.7961 56.565 20.9249 56.2188C21.1295 55.6679 21.3215 55.1121 21.5463 54.5688C21.713 54.167 22.0641 54.0356 22.4582 54.162C23.0341 54.349 23.6024 54.5688 24.1556 54.8139C24.5648 54.9958 24.6911 55.3395 24.5295 55.769C24.3324 56.2921 24.1354 56.8151 23.9333 57.3356C23.802 57.6717 23.5595 57.8435 23.0417 57.793ZM23.0922 57.0956C23.2639 57.1259 23.3094 57.0299 23.3498 56.9187C23.5064 56.5018 23.6605 56.0823 23.8272 55.6679C23.903 55.481 23.8247 55.4127 23.6656 55.3546C23.2766 55.2106 22.8876 55.0666 22.5061 54.9074C22.2839 54.8139 22.1626 54.8417 22.0818 55.0918C21.9605 55.4709 21.8039 55.8398 21.665 56.2112C21.6221 56.3274 21.5261 56.474 21.6903 56.5447C22.1601 56.7418 22.64 56.9187 23.0922 57.0956Z" fill="white"/>
<path d="M24.3083 48.6558C24.331 48.0696 24.6594 47.6198 24.9878 47.1726C25.104 47.0134 25.3187 46.8921 25.0711 46.6647C24.9676 46.5712 25.0787 46.4979 25.1545 46.4423C25.2303 46.3842 25.3465 46.3463 25.3818 46.2705C25.6546 45.6843 25.9376 45.1132 26.569 44.8176C26.6019 44.8024 26.6372 44.7165 26.6221 44.6913C26.3417 44.2036 26.8368 44.148 27.0439 43.956C27.9305 43.1373 29.0672 42.7633 30.1509 42.2681C29.8604 42.6294 29.5699 42.9933 29.2718 43.3672C29.1683 43.1954 29.3577 43.0312 29.2188 42.8922C29.239 42.8821 29.2592 42.8694 29.2794 42.8593C29.2693 42.8416 29.2567 42.824 29.2466 42.8063C29.2339 42.829 29.2188 42.8543 29.2062 42.877C28.8626 43.4481 28.5292 44.0267 28.168 44.5851C28.0872 44.7115 28.0594 45.045 27.736 44.8277C27.6628 44.7772 27.6097 44.9389 27.5668 45.0172C27.4203 45.2825 27.2965 45.563 27.1298 45.8157C27.0035 46.0052 26.9783 46.4196 26.564 46.1543C26.5135 46.1214 26.4478 46.177 26.4175 46.2427C26.1573 46.7936 25.8163 47.2307 25.2353 47.5263C24.9019 47.6982 24.7226 48.1631 24.4674 48.4916C24.422 48.5497 24.3588 48.5952 24.3032 48.6457C24.3007 48.6482 24.3083 48.6558 24.3083 48.6558Z" fill="#4ECB71"/>
<path d="M41.7543 53.4366C42.0574 53.434 42.2494 53.6008 42.3555 53.8509C42.5374 54.2679 42.7395 54.6722 42.9542 55.0739C43.1967 55.5237 43.1007 55.8294 42.6511 56.0745C42.0903 56.3803 41.5068 56.638 40.941 56.9336C40.7515 57.0322 40.6985 56.9538 40.6252 56.8022C40.2842 56.0973 39.9356 55.3999 39.5896 54.6974C39.5365 54.5888 39.4355 54.4826 39.63 54.3917C40.264 54.091 40.893 53.7777 41.527 53.477C41.5977 53.4416 41.6861 53.4467 41.7543 53.4366ZM42.3909 55.3493C42.3227 55.2003 42.2924 55.0032 42.0322 55.1472C41.6988 55.3291 41.3578 55.4984 41.0092 55.6475C40.8121 55.7309 40.8425 55.8218 40.9157 55.9734C40.994 56.1352 41.0673 56.1882 41.2416 56.0897C41.5598 55.9128 41.8907 55.7561 42.2191 55.597C42.3227 55.5464 42.4187 55.4984 42.3909 55.3493ZM41.9034 54.379C41.8478 54.2401 41.8225 54.0177 41.5674 54.1339C41.1936 54.3058 40.8349 54.5054 40.4636 54.6823C40.3095 54.7555 40.3423 54.8414 40.408 54.945C40.4661 55.0411 40.4711 55.2205 40.6656 55.1219C41.0471 54.9299 41.431 54.7378 41.8124 54.5458C41.8705 54.5155 41.9135 54.4725 41.9034 54.379Z" fill="white"/>
<path d="M28.3976 57.5428C27.7712 57.4493 27.5009 57.2269 27.5362 56.7216C27.564 56.3299 27.6322 55.9863 28.0945 55.8928C28.6047 55.7867 29.0013 56.009 29.2691 56.5902C29.5949 56.1328 29.9864 55.8549 30.5699 56.1126C30.234 56.4411 29.898 56.7721 29.4939 57.1663C29.8223 57.2396 30.0622 57.3103 30.2011 57.5327C30.3376 57.7525 30.2845 57.9976 30.2618 58.2326C30.2264 58.6116 29.9991 58.7961 29.6353 58.834C29.0922 58.8896 28.7942 58.7001 28.5744 58.1315C28.2208 58.5333 27.8545 58.8971 27.2559 58.5914C27.5943 58.2781 27.9429 57.9597 28.3976 57.5428ZM29.5267 58.2048C29.6202 58.1922 29.6732 58.1189 29.6606 57.9875C29.6454 57.8409 29.5419 57.8207 29.4282 57.8233C29.2968 57.8258 29.2867 57.9344 29.2766 58.0229C29.2564 58.172 29.3676 58.1972 29.5267 58.2048ZM28.5416 56.6912C28.5567 56.5295 28.4481 56.5118 28.3319 56.5194C28.2284 56.5245 28.1576 56.575 28.1526 56.6912C28.145 56.8378 28.2309 56.8833 28.3521 56.8909C28.4961 56.901 28.5466 56.8226 28.5416 56.6912Z" fill="white"/>
<path d="M46.7131 49.8132C46.996 49.7905 47.1552 49.894 47.2865 50.0406C47.6199 50.407 47.9509 50.7759 48.2767 51.1499C48.5419 51.4506 48.5419 51.7816 48.2666 52.0519C47.7766 52.532 47.2512 52.9767 46.751 53.4467C46.602 53.5857 46.5313 53.4872 46.4454 53.3911C45.9225 52.8075 45.4021 52.2238 44.8818 51.6401C44.7934 51.5415 44.6974 51.4455 44.8414 51.3192C45.3845 50.8492 45.9225 50.3741 46.4732 49.9117C46.5515 49.8435 46.6752 49.8284 46.7131 49.8132ZM46.6576 52.6811C46.9885 52.388 47.3067 52.0974 47.6351 51.8195C47.8094 51.6729 47.7993 51.5617 47.6629 51.3849C46.842 50.3261 46.847 50.3236 45.8619 51.2434C45.8391 51.2661 45.8139 51.2838 45.7886 51.304C45.6371 51.4202 45.5992 51.5213 45.7583 51.6856C46.0715 51.9989 46.357 52.3425 46.6576 52.6811Z" fill="white"/>
<path d="M33.6738 56.499C33.6814 56.1554 33.8532 55.933 34.1664 55.8623C34.7095 55.7385 35.2576 55.6273 35.8108 55.554C36.1745 55.506 36.4322 55.7031 36.4953 56.072C36.5155 56.1882 36.6924 56.398 36.4069 56.4485C36.2377 56.4788 36.0078 56.6885 35.9194 56.3297C35.879 56.168 35.7527 56.1882 35.6138 56.2009C34.3129 56.3146 34.2245 56.446 34.5352 57.7018C34.5933 57.9418 34.6817 58.0252 34.9141 57.9747C35.2424 57.9065 35.5708 57.8458 35.8992 57.7826C36.0255 57.7574 36.167 57.7422 36.1417 57.5603C36.0861 57.1686 36.4246 57.2722 36.5888 57.247C36.8262 57.2091 36.7656 57.4592 36.7858 57.5982C36.8414 58 36.6292 58.2476 36.2629 58.336C35.7678 58.4548 35.2652 58.5533 34.76 58.6266C34.4139 58.6771 34.1058 58.5609 34.0174 58.1844C33.8835 57.6285 33.785 57.0625 33.6738 56.499Z" fill="white"/>
<path d="M23.0528 5.92535C23.0604 6.09212 22.9467 6.10728 22.8381 6.14518C22.5047 6.25889 22.1788 6.38523 21.8454 6.49641C21.6963 6.54694 21.5827 6.56968 21.661 6.78446C21.7317 6.9765 21.8151 6.9765 21.9742 6.91585C22.4087 6.75414 22.8457 6.60759 23.2827 6.45345C23.462 6.39028 23.5782 6.35996 23.6767 6.61011C23.7853 6.89311 23.606 6.90827 23.4519 6.96386C22.881 7.17106 22.3051 7.36057 21.7393 7.57282C21.4917 7.66631 21.3907 7.6183 21.3099 7.35046C21.1356 6.7693 20.931 6.19824 20.7062 5.63477C20.6026 5.37956 20.686 5.30123 20.9108 5.22543C21.5018 5.02834 22.0879 4.81861 22.6714 4.60384C22.8507 4.53814 22.9492 4.55077 23.0275 4.75292C23.1185 4.98791 23.025 5.05613 22.8229 5.12183C22.396 5.25575 21.9767 5.41241 21.5574 5.56402C21.4336 5.6095 21.2594 5.61455 21.3351 5.84197C21.4033 6.04158 21.4968 6.06938 21.6888 5.98852C22.0121 5.8546 22.3607 5.77627 22.6789 5.6373C23.0275 5.48569 22.9619 5.79648 23.0528 5.92535Z" fill="white"/>
<path d="M12.1997 14.0162C12.1972 14.3725 12.0204 14.5468 11.8713 14.7313C10.8332 16.0149 10.8887 15.9871 9.66365 14.9561C9.07004 14.4584 9.04731 14.2663 9.54493 13.6624C9.7369 13.4274 9.93393 13.1975 10.1284 12.965C10.2345 12.8412 10.3583 12.7376 10.52 12.7073C10.722 12.6694 10.9544 12.7225 11.01 12.9069C11.0529 13.0509 10.8887 13.2127 10.7069 13.2733C10.2471 13.4274 10.1082 13.8974 9.80005 14.2006C9.74195 14.2562 9.76721 14.3522 9.83794 14.4129C10.1082 14.6378 10.3734 14.8702 10.6538 15.08C10.8837 15.2518 10.9772 15.0067 11.0454 14.8829C11.207 14.5847 11.6844 14.4558 11.5506 14.0111C11.5152 13.8898 11.3586 13.7888 11.2247 13.9808C11.1237 14.1248 10.9999 14.2512 10.8963 14.3927C10.765 14.5746 10.6513 14.519 10.5073 14.4003C10.3659 14.284 10.3457 14.1956 10.4745 14.0566C10.6286 13.8949 10.7448 13.6928 10.909 13.5487C11.0605 13.4173 11.1338 13.0333 11.3712 13.1874C11.7122 13.4098 12.1315 13.6195 12.1997 14.0162Z" fill="white"/>
<path d="M27.8441 4.24992C27.8113 3.47166 27.8113 3.47419 28.6045 3.43124C29.0364 3.40597 29.4658 3.37565 29.8978 3.34532C30.0872 3.33269 30.2666 3.27205 30.2817 3.59295C30.2943 3.89111 30.1125 3.84563 29.9508 3.85826C29.5214 3.89111 29.0894 3.91385 28.6575 3.94165C28.4857 3.95176 28.3367 3.9745 28.3594 4.21202C28.3797 4.42932 28.5211 4.41416 28.6676 4.40152C29.001 4.37626 29.337 4.35099 29.6704 4.32572C29.8296 4.31309 29.9735 4.27013 29.9887 4.53545C30.0013 4.77296 29.9154 4.85887 29.7058 4.86898C29.4027 4.88414 29.097 4.88162 28.7939 4.91446C28.6474 4.92963 28.4276 4.85382 28.4302 5.15704C28.4327 5.47794 28.6525 5.36929 28.7964 5.36423C29.2284 5.34655 29.6578 5.30864 30.0897 5.2758C30.264 5.26316 30.4055 5.26569 30.4055 5.50826C30.4055 5.70535 30.3575 5.79379 30.1403 5.8039C29.5012 5.83422 28.8621 5.87717 28.2281 5.94034C28.0109 5.96056 27.9502 5.89486 27.9427 5.69272C27.9174 5.20757 27.877 4.73001 27.8441 4.24992Z" fill="white"/>
<path d="M15.1828 9.55884C15.3975 9.87721 15.6047 10.2006 15.827 10.5089C15.9406 10.6656 15.9634 10.7591 15.7764 10.8905C15.6072 11.0067 15.5213 11.0143 15.4026 10.8374C15.0439 10.3068 14.6802 9.77867 14.3038 9.2632C14.1649 9.07369 14.1876 8.97262 14.3796 8.84628C14.7812 8.58349 15.1702 8.30302 15.5643 8.03012C15.8497 7.8305 16.1528 7.72691 16.4256 8.02001C16.7035 8.31818 16.9636 8.64666 16.605 9.06864C16.5746 9.10148 16.5595 9.14697 16.5191 9.22277C16.8929 9.3289 17.2541 9.42997 17.6229 9.53609C17.3526 9.88732 17.0546 9.9606 16.6454 9.81657C16.2109 9.66243 15.7486 9.58663 15.299 9.47545C15.491 9.16213 15.8472 9.05095 16.1073 8.82354C16.2008 8.74268 16.2564 8.67193 16.168 8.54306C16.0796 8.41672 15.9911 8.36619 15.8547 8.4622C15.6577 8.59865 15.4733 8.75784 15.2611 8.86649C14.8747 9.06864 14.8469 9.28594 15.1828 9.55884Z" fill="white"/>
<path d="M35.5382 4.52808C35.4245 5.08397 35.3336 5.48573 35.2654 5.89002C35.23 6.09722 35.1542 6.16039 34.9446 6.09975C34.7652 6.04668 34.6844 6.00878 34.74 5.78137C34.8814 5.20779 34.9698 4.6241 35.1037 4.04799C35.134 3.91407 35.0683 3.66897 35.2755 3.65886C35.4801 3.64875 35.7074 3.67908 35.8312 3.93428C36.0611 4.40679 36.3263 4.86162 36.5789 5.32402C36.6142 5.38719 36.6244 5.48321 36.7759 5.48573C36.8492 5.13198 36.9148 4.7656 37.0083 4.40679C37.0462 4.26024 36.9502 3.98482 37.3038 4.05304C37.6095 4.11116 37.5792 4.26024 37.5261 4.49018C37.3998 5.03344 37.3013 5.58428 37.1826 6.13007C37.1523 6.27157 37.2079 6.49898 36.9856 6.50151C36.7911 6.50403 36.5839 6.47624 36.4652 6.24125C36.1949 5.70557 35.8943 5.17999 35.5382 4.52808Z" fill="white"/>
<path d="M47.0982 11.4487C46.8911 11.4563 46.7319 11.3527 46.5779 11.2364C46.2848 11.0116 45.9893 10.7917 45.7064 10.5567C45.4184 10.3192 45.3528 10.0236 45.5801 9.71026C45.8352 9.36156 46.1055 9.02297 46.3783 8.68691C46.5905 8.42665 46.8608 8.36095 47.1411 8.56057C47.5175 8.83094 47.8838 9.11647 48.2425 9.4121C48.4622 9.59403 48.5481 9.85682 48.3839 10.0969C48.096 10.5188 47.7676 10.913 47.4468 11.3123C47.3634 11.4184 47.2346 11.4538 47.0982 11.4487ZM46.8633 9.02803C46.7446 9.02297 46.7067 9.12152 46.6486 9.1948C46.5097 9.36914 46.3935 9.56371 46.2369 9.71784C45.9615 9.99326 46.0272 10.16 46.3253 10.3799C47.0932 10.9459 47.0856 10.961 47.6767 10.1752C47.7575 10.0691 47.8989 9.98316 47.8686 9.81639C47.8585 9.74816 46.934 9.02803 46.8633 9.02803Z" fill="white"/>
<path d="M17.7033 41.9398C18.4611 41.9979 19.2189 42.0535 19.9767 42.1116C20.0171 41.9423 19.8049 41.9878 19.8049 41.821C20.4011 41.7023 21.0275 41.6846 21.654 41.6896C21.7499 41.6896 21.8611 41.7427 21.9394 41.7073C23.0862 41.202 24.1723 42.147 24.7811 41.9398C23.0559 42.1546 20.7976 42.3517 18.5243 42.4098C18.1757 42.4199 17.9408 42.2001 17.668 42.056C17.6831 42.0207 17.6932 41.9802 17.7033 41.9398Z" fill="#4ECB71"/>
<path d="M54.3845 20.5734C54.3542 20.7174 54.2026 20.7123 54.1066 20.778C54.0106 20.8412 53.9449 20.8513 53.8843 20.725C53.5736 20.0781 53.2579 19.4338 52.9371 18.792C52.8411 18.5999 52.9901 18.5823 53.0987 18.5292C53.6848 18.2411 54.2758 17.9632 54.8594 17.665C55.0286 17.5791 55.0993 17.6019 55.1852 17.7712C55.2736 17.9455 55.2913 18.0516 55.0892 18.1426C54.7255 18.3068 54.3794 18.514 54.0081 18.6505C53.5938 18.8046 53.5736 19.0068 53.7883 19.3555C53.9803 19.6663 54.1167 20.0099 54.2784 20.3409C54.3137 20.4142 54.3441 20.4875 54.3845 20.5734Z" fill="white"/>
<path d="M52.3333 13.5588C52.25 13.6346 52.1818 13.6977 52.111 13.7559C51.6311 14.1475 51.1461 14.5316 50.6712 14.9308C50.5272 15.0521 50.4388 15.0951 50.2923 14.9207C50.1357 14.7363 50.1736 14.6428 50.3454 14.5063C50.8455 14.1147 51.333 13.7053 51.8306 13.3111C51.9014 13.2555 51.9721 13.0964 52.0984 13.2404C52.1792 13.3339 52.2474 13.44 52.3333 13.5588Z" fill="white"/>
<path d="M18.0181 42.4504C17.811 42.4757 17.7377 42.4933 17.6645 42.4933C16.8511 42.4959 16.0377 42.4933 15.2168 42.4933C15.4593 42.0815 16.9041 42.036 18.0181 42.4504Z" fill="#4ECB71"/>
<path d="M37.1971 48.5449C37.2527 48.5803 37.2931 48.651 37.2426 48.689C37.1794 48.7344 37.1668 48.6384 37.1289 48.6056C37.1516 48.5828 37.1744 48.5626 37.1971 48.5449Z" fill="#4ECB71"/>
<path d="M5.49482 30.711C5.48724 30.6731 5.48219 30.6352 5.47461 30.5947C5.50745 30.6099 5.54029 30.625 5.57312 30.6402C5.54786 30.6655 5.52008 30.6882 5.49482 30.711Z" fill="#4ECB71"/>
<path d="M11.1359 43.2571C11.1175 43.2544 11.0991 43.2518 11.0781 43.2492C11.086 43.2466 11.0965 43.2361 11.0991 43.2387C11.1096 43.2466 11.1201 43.2571 11.128 43.2649C11.1306 43.2649 11.1359 43.2571 11.1359 43.2571Z" fill="#4ECB71"/>
<path d="M24.2994 48.6484C24.2843 48.671 24.2693 48.6936 24.2542 48.7163C24.2316 48.661 24.2366 48.6308 24.3069 48.6559L24.2994 48.6484Z" fill="#4ECB71"/>
<path d="M14.6782 20.9722C15.6077 22.2103 16.5373 23.4484 17.4694 24.6866C21.2861 29.7452 25.2418 34.6927 29.4349 39.4481C29.4879 39.5062 29.5309 39.5745 29.5764 39.6376L29.5865 39.6326C29.3995 39.7033 29.344 39.529 29.2606 39.4405C23.9535 33.8007 19.1719 27.744 14.8171 21.3436C14.7464 21.24 14.706 21.1187 14.6504 21.005L14.6782 20.9722Z" fill="#1F2120"/>
<path d="M14.7594 20.8814C14.575 20.7576 14.4841 20.5681 14.3982 20.3735L14.3906 20.3786C14.6356 20.4418 14.6937 20.6591 14.7847 20.8486C14.7872 20.8511 14.7594 20.8814 14.7594 20.8814Z" fill="#1F2120"/>
<path d="M14.2059 20.0828C14.1301 19.9717 14.0543 19.858 13.9785 19.7468C13.9911 19.7392 14.0012 19.7316 14.0139 19.7266C14.077 19.8478 14.1377 19.9691 14.2008 20.0929C14.1983 20.0904 14.2059 20.0828 14.2059 20.0828Z" fill="#1F2120"/>
<path d="M14.3988 20.3736C14.2927 20.3054 14.2472 20.1967 14.2068 20.083L14.1992 20.0906C14.3508 20.1285 14.4266 20.2169 14.3912 20.3786L14.3988 20.3736Z" fill="#1F2120"/>
<path d="M29.9707 39.903C30.0086 39.9157 30.044 39.9283 30.0818 39.9409C30.0717 39.9586 30.0616 39.9738 30.0515 39.9915C30.0263 39.9611 30.0035 39.9283 29.9783 39.898C29.9783 39.8954 29.9707 39.903 29.9707 39.903Z" fill="#1F2120"/>
<path d="M29.7734 39.7111C29.9326 39.6808 29.9578 39.7844 29.9705 39.9032L29.978 39.8981C29.8745 39.8729 29.8189 39.7996 29.7835 39.7061C29.7835 39.7036 29.7734 39.7111 29.7734 39.7111Z" fill="#1F2120"/>
<path d="M29.6862 39.5139C29.757 39.5619 29.8403 39.6023 29.7746 39.711L29.7848 39.7059C29.714 39.6579 29.6155 39.6251 29.6963 39.5088C29.6963 39.5063 29.6862 39.5139 29.6862 39.5139Z" fill="#1F2120"/>
<path d="M20.7402 34.8015C20.7604 34.8141 20.7832 34.8267 20.8034 34.8394C20.7478 34.8722 20.7352 34.8495 20.7478 34.7964C20.7503 34.7939 20.7402 34.8015 20.7402 34.8015Z" fill="#1F2120"/>
<path d="M46.7128 20.9574C45.9197 22.3117 45.0103 23.5903 44.1237 24.884C41.5699 28.6136 38.9025 32.2572 36.0229 35.7417C34.9721 37.0126 33.896 38.2583 32.7619 39.456C32.6381 39.3575 32.729 39.3019 32.7694 39.2539C37.3263 33.9476 41.3906 28.2699 45.4423 22.5796C45.8414 22.0186 46.2455 21.4627 46.6471 20.9043C46.6699 20.922 46.6926 20.9397 46.7128 20.9574Z" fill="#1F2120"/>
<path d="M47.4795 19.8022C47.2269 20.1888 47.0324 20.6133 46.7141 20.9545C46.6914 20.9368 46.6712 20.9191 46.6484 20.8989C46.9086 20.5199 47.1359 20.1156 47.4845 19.8073L47.4795 19.8022Z" fill="#1F2120"/>
<path d="M32.0955 40.0924C32.1384 39.9433 32.2142 39.8271 32.3834 39.8044L32.3784 39.7993C32.3253 39.9408 32.2597 40.0646 32.0879 40.0848L32.0955 40.0924Z" fill="#1F2120"/>
<path d="M32.0882 40.085C32.0781 40.2088 32.0276 40.2871 31.8887 40.2694L31.8962 40.277C31.9468 40.1987 31.9948 40.1153 32.0983 40.0925C32.0958 40.0925 32.0882 40.085 32.0882 40.085Z" fill="#1F2120"/>
<path d="M47.4855 19.8099C47.4906 19.7821 47.4956 19.7568 47.5007 19.729C47.4982 19.7416 47.4982 19.7543 47.4956 19.7644C47.4906 19.777 47.4855 19.7896 47.4805 19.8023L47.4855 19.8099Z" fill="#1F2120"/>
<path d="M41.7995 34.7988C41.7869 34.8519 41.7541 34.8746 41.701 34.8569C41.6934 34.8544 41.6884 34.8216 41.6934 34.8165C41.7263 34.7887 41.7616 34.7533 41.8071 34.8039L41.7995 34.7988Z" fill="#1F2120"/>
<path d="M41.9466 34.7661C41.8986 34.7762 41.8506 34.7863 41.8026 34.7964L41.8102 34.8015C41.7546 34.7155 41.8329 34.7054 41.8809 34.6802C41.9011 34.7105 41.9238 34.7383 41.9466 34.7661Z" fill="#1F2120"/>
<path d="M32.5449 39.5771C32.5626 39.5392 32.5904 39.4785 32.6333 39.5265C32.6737 39.5695 32.6258 39.6023 32.5778 39.615C32.5651 39.6023 32.555 39.5897 32.5449 39.5771Z" fill="#1F2120"/>
<path d="M32.4738 39.7035C32.446 39.6327 32.4864 39.5999 32.5445 39.5771C32.5546 39.5898 32.5648 39.6024 32.5774 39.615C32.5698 39.6757 32.537 39.706 32.4738 39.7035Z" fill="#1F2120"/>
<path d="M32.4774 39.7061C32.4749 39.7693 32.4446 39.8021 32.3789 39.7996L32.384 39.8047C32.3713 39.7289 32.3966 39.6935 32.4774 39.7061C32.4749 39.7036 32.4774 39.7061 32.4774 39.7061Z" fill="#1F2120"/>
<path d="M9.48633 33.2676C15.0662 35.6933 20.7067 37.9421 26.524 40.0369C24.8341 39.9307 13.4193 35.4002 9.48633 33.2676Z" fill="#1F2120"/>
<path d="M51.7954 33.3511C51.7525 33.5431 51.5655 33.5557 51.4367 33.6189C46.2938 36.1887 41.0575 38.5335 35.5938 40.3478C35.2023 40.4766 34.7956 40.56 34.3965 40.6636L34.4041 40.6712C37.3493 39.5215 40.3047 38.3971 43.1995 37.1211C45.9048 35.9284 48.6076 34.7282 51.3104 33.5355C51.4696 33.4648 51.6161 33.3587 51.8005 33.3587C51.803 33.3587 51.7954 33.3511 51.7954 33.3511Z" fill="#1F2120"/>
<path d="M52.3865 33.0706C52.4799 33.0403 52.5759 33.0075 52.6694 32.9771L52.6745 32.9746C52.5759 33.0049 52.4774 33.0353 52.3789 33.0656C52.3789 33.0631 52.3865 33.0706 52.3865 33.0706Z" fill="#1F2120"/>
<path d="M34.3982 40.6636C34.3781 40.6812 34.358 40.7013 34.3379 40.7189C34.3605 40.7038 34.3831 40.6862 34.4057 40.6711L34.3982 40.6636Z" fill="#1F2120"/>
<path d="M52.1715 33.1489C52.169 33.2854 52.0705 33.2525 51.9922 33.255L51.9998 33.2626C52.0604 33.2273 52.121 33.1919 52.1791 33.1565L52.1715 33.1489Z" fill="#1F2120"/>
<path d="M52.1775 33.1564C52.2457 33.1286 52.3164 33.1008 52.3846 33.073L52.3771 33.0654C52.3417 33.1716 52.2508 33.1539 52.1699 33.1513C52.1724 33.1488 52.1775 33.1564 52.1775 33.1564Z" fill="#1F2120"/>
<path d="M51.9894 33.2554C51.9717 33.3792 51.8833 33.364 51.7949 33.3514L51.8 33.359C51.8379 33.2731 51.9212 33.2781 51.9945 33.2629C51.997 33.2629 51.9894 33.2554 51.9894 33.2554Z" fill="#1F2120"/>
<path d="M52.6699 32.9784L52.6834 32.9595L52.6753 32.9757L52.6699 32.9784Z" fill="#1F2120"/>
<path d="M33.3984 41.5181C37.8214 42.218 42.2873 42.4808 46.7709 42.5263C42.2646 42.8977 37.8113 42.5439 33.3984 41.5181Z" fill="#1F2120"/>
<path d="M32.2375 42.9227C32.2021 42.8798 32.192 42.8393 32.2375 42.7964C32.2551 42.8217 32.2728 42.8444 32.2905 42.8697C32.2754 42.8874 32.2577 42.905 32.2375 42.9227Z" fill="#1F2120"/>
<path d="M23.0913 57.0955C22.6391 56.9186 22.1592 56.7418 21.6919 56.5422C21.5252 56.4714 21.6212 56.3249 21.6667 56.2086C21.8081 55.8347 21.9647 55.4683 22.0834 55.0893C22.1643 54.8391 22.2855 54.8113 22.5078 54.9048C22.8892 55.064 23.2782 55.2105 23.6672 55.352C23.8263 55.4102 23.9072 55.4784 23.8289 55.6654C23.6596 56.0772 23.5081 56.4992 23.3515 56.9161C23.3085 57.0273 23.2631 57.1258 23.0913 57.0955Z" fill="#1F2120"/>
<path d="M29.2051 42.8774C29.2177 42.8546 29.2329 42.8294 29.2455 42.8066C29.2556 42.8243 29.2682 42.842 29.2783 42.8597C29.2581 42.8698 29.2379 42.8799 29.2177 42.8925L29.2051 42.8774Z" fill="#1F2120"/>
<path d="M42.3912 55.3492C42.419 55.4983 42.323 55.5463 42.2169 55.5994C41.8885 55.7586 41.5576 55.9152 41.2393 56.0921C41.065 56.1881 40.9918 56.1376 40.9135 55.9759C40.8402 55.8243 40.8099 55.7333 41.0069 55.6499C41.3555 55.5008 41.6965 55.3315 42.03 55.1496C42.2952 55.0031 42.323 55.1976 42.3912 55.3492Z" fill="#1F2120"/>
<path d="M41.9038 54.3792C41.9139 54.4727 41.871 54.5156 41.8129 54.5459C41.4314 54.738 41.0475 54.9275 40.6661 55.122C40.4716 55.2206 40.4691 55.0412 40.4084 54.9452C40.3453 54.8416 40.3124 54.7556 40.464 54.6824C40.8353 54.508 41.1965 54.3059 41.5678 54.1341C41.823 54.0178 41.8482 54.2402 41.9038 54.3792Z" fill="#1F2120"/>
<path d="M29.5259 58.2046C29.3667 58.197 29.2556 58.1717 29.2758 58.0201C29.2859 57.9317 29.296 57.823 29.4274 57.8205C29.5436 57.818 29.6471 57.8407 29.6598 57.9847C29.6724 58.1187 29.6193 58.1919 29.5259 58.2046Z" fill="#1F2120"/>
<path d="M28.5402 56.6913C28.5452 56.8227 28.4922 56.901 28.3507 56.8909C28.227 56.8808 28.1411 56.8353 28.1512 56.6913C28.1588 56.5751 28.227 56.5246 28.3305 56.5195C28.4467 56.5119 28.5553 56.5296 28.5402 56.6913Z" fill="#1F2120"/>
<path d="M46.6582 52.6813C46.3551 52.3427 46.0697 52.0016 45.759 51.6832C45.5999 51.519 45.6377 51.4179 45.7893 51.3017C45.8146 51.2814 45.8398 51.2612 45.8626 51.241C46.8477 50.3213 46.8426 50.3238 47.6636 51.3825C47.8 51.5594 47.8076 51.6731 47.6358 51.8171C47.3074 52.0951 46.9917 52.3856 46.6582 52.6813Z" fill="#1F2120"/>
<path d="M15.182 9.55876C14.8486 9.28586 14.8764 9.06856 15.2654 8.86642C15.4775 8.75776 15.6619 8.59858 15.859 8.46213C15.9954 8.36611 16.0838 8.41665 16.1722 8.54299C16.2606 8.67185 16.205 8.74008 16.1116 8.82346C15.8514 9.05087 15.4952 9.15952 15.3033 9.47537C15.2603 9.50317 15.2199 9.53096 15.182 9.55876Z" fill="#1F2120"/>
<path d="M46.8656 9.02851C46.9338 9.02851 47.8583 9.74864 47.8709 9.81687C47.9012 9.98364 47.7598 10.067 47.6789 10.1757C47.0879 10.9615 47.0954 10.9463 46.3275 10.3803C46.0295 10.1605 45.9638 9.99374 46.2391 9.71832C46.3957 9.56166 46.5145 9.36963 46.6509 9.19528C46.709 9.122 46.7494 9.02345 46.8656 9.02851Z" fill="#1F2120"/>
</svg>
