<svg width="35" height="35" viewBox="0 0 35 35" fill="none" xmlns="http://www.w3.org/2000/svg">
<path d="M29.35 18.4H29.9C30.9564 18.4 31.9874 18.0219 32.7623 17.322C33.5406 16.6191 34 15.6426 34 14.6V4.8C34 3.75743 33.5406 2.78093 32.7623 2.078C31.9874 1.37811 30.9564 1 29.9 1H14.4C12.2409 1 10.3 2.61439 10.3 4.8V14.6C10.3 15.6426 10.7594 16.6191 11.5377 17.322C12.3126 18.0219 13.3436 18.4 14.4 18.4H23.3152L24.201 19.2H23.7H14.4C12.9899 19.2 11.6554 18.6931 10.6862 17.8177C9.72038 16.9453 9.2 15.7853 9.2 14.6V10.4V9.4H8.2H5.1C2.9409 9.4 1 11.0144 1 13.2V23C1 24.0426 1.45943 25.0191 2.23768 25.722C3.01256 26.4219 4.04361 26.8 5.1 26.8H5.65V30V32.2507L7.32029 30.7421L11.6848 26.8H20.6C21.6564 26.8 22.6874 26.4219 23.4623 25.722C24.2406 25.0191 24.7 24.0426 24.7 23V20.2V19.6507L27.6797 22.3421L29.35 23.8507V21.6V18.4Z" stroke="#4ECB71" stroke-width="2"/>
<path d="M29.35 18.4H29.9C30.9564 18.4 31.9874 18.0219 32.7623 17.322C33.5406 16.6191 34 15.6426 34 14.6V4.8C34 3.75743 33.5406 2.78093 32.7623 2.078C31.9874 1.37811 30.9564 1 29.9 1H14.4C12.2409 1 10.3 2.61439 10.3 4.8V14.6C10.3 15.6426 10.7594 16.6191 11.5377 17.322C12.3126 18.0219 13.3436 18.4 14.4 18.4H23.3152L24.201 19.2H23.7H14.4C12.9899 19.2 11.6554 18.6931 10.6862 17.8177C9.72038 16.9453 9.2 15.7853 9.2 14.6V10.4V9.4H8.2H5.1C2.9409 9.4 1 11.0144 1 13.2V23C1 24.0426 1.45943 25.0191 2.23768 25.722C3.01256 26.4219 4.04361 26.8 5.1 26.8H5.65V30V32.2507L7.32029 30.7421L11.6848 26.8H20.6C21.6564 26.8 22.6874 26.4219 23.4623 25.722C24.2406 25.0191 24.7 24.0426 24.7 23V20.2V19.6507L27.6797 22.3421L29.35 23.8507V21.6V18.4Z" stroke="#4ECB71" stroke-width="2"/>
<path d="M29.35 18.4H29.9C30.9564 18.4 31.9874 18.0219 32.7623 17.322C33.5406 16.6191 34 15.6426 34 14.6V4.8C34 3.75743 33.5406 2.78093 32.7623 2.078C31.9874 1.37811 30.9564 1 29.9 1H14.4C12.2409 1 10.3 2.61439 10.3 4.8V14.6C10.3 15.6426 10.7594 16.6191 11.5377 17.322C12.3126 18.0219 13.3436 18.4 14.4 18.4H23.3152L24.201 19.2H23.7H14.4C12.9899 19.2 11.6554 18.6931 10.6862 17.8177C9.72038 16.9453 9.2 15.7853 9.2 14.6V10.4V9.4H8.2H5.1C2.9409 9.4 1 11.0144 1 13.2V23C1 24.0426 1.45943 25.0191 2.23768 25.722C3.01256 26.4219 4.04361 26.8 5.1 26.8H5.65V30V32.2507L7.32029 30.7421L11.6848 26.8H20.6C21.6564 26.8 22.6874 26.4219 23.4623 25.722C24.2406 25.0191 24.7 24.0426 24.7 23V20.2V19.6507L27.6797 22.3421L29.35 23.8507V21.6V18.4Z" stroke="#4ECB71" stroke-width="2"/>
</svg>
