<svg width="68" height="68" viewBox="0 0 68 68" fill="none" xmlns="http://www.w3.org/2000/svg">
<circle cx="34" cy="34" r="34" fill="#4ECB71"/>
<path d="M64.9999 34.0088C64.9216 51.1581 51.1399 65.0151 33.9835 65.0025C16.8195 64.9873 2.9848 51.1885 2.99995 33.9683C3.01511 16.7962 16.8448 2.97972 34.0492 2.99993C51.15 3.02014 64.9267 16.8468 64.9999 34.0088ZM34.4963 63.7694C50.6423 63.5091 63.8153 50.2839 63.7723 33.8092C63.7268 17.572 50.3518 4.23301 34.0189 4.23048C17.5975 4.22795 4.27052 17.5416 4.22252 33.9027C4.17453 50.3395 17.6076 64.0296 34.4963 63.7694Z" fill="#4ECB71"/>
<path d="M34.4969 63.7695C17.6083 64.0297 4.17516 50.3396 4.22315 33.9027C4.27114 17.5417 17.5982 4.22805 34.0195 4.23058C50.3525 4.2331 63.7275 17.5721 63.7704 33.8118C63.8159 50.284 50.643 63.5117 34.4969 63.7695ZM18.3029 12.4755C18.7525 12.5867 19.2148 12.665 19.6493 12.8166C20.056 12.9607 20.3565 12.8874 20.6268 12.5362C20.2555 12.43 19.8968 12.329 19.523 12.2228C19.5634 12.1496 19.5811 12.1041 19.6089 12.0687C19.9675 11.6467 19.7074 11.3208 19.4295 11.0201C19.1567 10.727 18.8536 10.8306 18.5682 11.0302C18.1741 11.3056 17.7851 11.5861 17.3835 11.8463C17.1915 11.9702 17.1688 12.0738 17.3077 12.2633C17.6866 12.7787 18.0503 13.3068 18.4065 13.8375C18.5252 14.0118 18.6136 14.0067 18.7803 13.8905C18.9673 13.7617 18.9445 13.6682 18.8309 13.509C18.606 13.1982 18.3989 12.8747 18.1867 12.5589C18.2221 12.5311 18.2625 12.5033 18.3029 12.4755ZM32.2059 45.8772L32.2185 45.8924C32.3574 46.0288 32.168 46.1931 32.2716 46.3674C32.5696 45.9935 32.8601 45.6321 33.1506 45.2683C32.067 45.7635 30.9303 46.1375 30.0436 46.9562C29.834 47.1482 29.3414 47.2038 29.6218 47.6915C29.637 47.7167 29.6016 47.8026 29.5688 47.8178C28.9398 48.1134 28.6544 48.6845 28.3816 49.2707C28.3462 49.3465 28.2325 49.3844 28.1542 49.4425C28.0784 49.5007 27.9673 49.5714 28.0709 49.6649C28.3184 49.8923 28.1037 50.0136 27.9875 50.1728C27.6591 50.62 27.3333 51.0673 27.308 51.656C27.2398 51.6307 27.2322 51.6611 27.255 51.7167C27.2701 51.6939 27.2853 51.6712 27.3004 51.6484C27.356 51.5979 27.4217 51.5524 27.4646 51.4943C27.7172 51.1658 27.8991 50.7009 28.2325 50.5291C28.8135 50.2309 29.1545 49.7963 29.4147 49.2455C29.445 49.1798 29.5107 49.1242 29.5612 49.157C29.978 49.4223 30.0032 49.0079 30.127 48.8184C30.2937 48.5657 30.4175 48.2853 30.564 48.02C30.6069 47.9416 30.66 47.7824 30.7332 47.8304C31.0591 48.0477 31.0843 47.7117 31.1652 47.5879C31.5289 47.0269 31.8623 46.4483 32.2059 45.8772ZM35.2926 45.8697C35.6766 46.4533 35.9393 47.1078 36.3662 47.6637C36.4344 47.7521 36.5506 47.9189 36.5733 47.9062C36.98 47.7016 36.9446 48.0983 37.0532 48.2625C37.2124 48.5 37.3311 48.7628 37.47 49.013C37.5407 49.1419 37.6468 49.3162 37.7883 49.2252C38.0914 49.0332 38.0863 49.2985 38.1773 49.435C38.3844 49.7483 38.4854 50.1829 38.877 50.2991C39.1675 50.385 39.3367 50.5341 39.4933 50.7666C39.6878 51.0572 39.9177 51.3225 40.1299 51.6004C40.1677 51.6333 40.1804 51.7318 40.2435 51.6838C40.2915 51.6484 40.2536 51.5777 40.1981 51.5398C40.1071 50.9814 39.7712 50.5518 39.4529 50.1147C39.3897 50.0288 39.2761 49.867 39.2887 49.8519C39.6979 49.4754 39.2205 49.4173 39.0791 49.2353C39.0007 49.1368 38.9098 49.0231 38.8947 48.9069C38.8366 48.4596 38.5789 48.2019 38.1823 48.0275C37.9979 47.9467 37.7479 47.7647 37.8994 47.5601C38.0661 47.3327 37.9171 47.2998 37.811 47.2038C37.3892 46.8349 36.9623 46.4963 36.5834 46.0516C36.0353 45.4123 35.2067 45.0105 34.4969 44.5102C34.6839 45.1571 34.8455 45.7812 35.2396 46.423C35.2396 46.1804 35.2396 46.0465 35.2396 45.9126C35.2573 45.905 35.2749 45.8873 35.2926 45.8697ZM14.13 46.2638C14.1199 46.2537 14.1123 46.2436 14.1022 46.2386C14.0997 46.236 14.0896 46.2436 14.082 46.2487C14.0997 46.2512 14.1174 46.2537 14.1376 46.2563C14.0366 46.4053 14.173 46.4938 14.2361 46.5898C15.1657 48.0579 16.2342 49.4198 17.4845 50.62C22.9052 55.8303 29.3692 58.1347 36.836 57.2251C44.3457 56.3104 50.062 52.4621 54.0783 46.0693C54.1313 45.9859 54.2399 45.9076 54.1515 45.7458C53.9267 45.8115 53.7044 45.9126 53.472 45.9353C52.7269 46.0112 52.2924 46.4533 51.863 47.0421C46.5585 54.3294 37.4422 57.6597 28.6923 55.4917C23.5595 54.2182 19.4169 51.4185 16.2266 47.2013C16.0523 46.9688 15.9386 46.6706 15.5774 46.6075C15.0874 46.5216 14.61 46.3826 14.13 46.2638ZM8.57288 33.6425C8.54004 33.6273 8.5072 33.6122 8.47436 33.597C8.48194 33.6349 8.48699 33.6728 8.49457 33.7132C9.53527 35.813 11.0408 37.3493 13.448 37.7991C13.1398 37.8142 12.8342 37.8294 12.4023 37.8496C12.9049 38.2185 13.395 38.3929 13.6526 38.8477C13.9911 39.4465 14.5342 39.7573 15.1783 39.919C15.5142 40.0024 15.8527 40.0833 16.2493 40.1793C15.8856 40.4194 16.0876 40.5558 16.2973 40.667C16.8606 40.9727 17.4491 41.2203 18.0655 41.4073C18.1716 41.4402 18.3939 41.425 18.361 41.5842C18.2575 42.0769 18.6566 42.1047 18.9218 42.1906C19.4219 42.3524 20.0004 42.3448 20.4449 42.5899C21.1876 42.9992 21.8949 43.4187 22.7714 43.4465C22.933 43.4515 23.1882 43.6082 23.1275 43.7623C22.9103 44.3334 23.3574 44.1312 23.5595 44.1438C23.8752 44.1615 24.2213 44.0352 24.4966 44.2348C24.8149 44.4648 25.1155 44.4445 25.4438 44.3081C25.8328 44.1438 26.2067 44.0782 26.5502 44.4268C26.6816 44.5608 26.8837 44.5128 27.0579 44.5229C28.23 44.5936 29.3894 44.4521 30.5514 44.3207C31.395 44.2247 32.2438 44.1691 33.1809 44.0883C33.042 44.0175 32.9915 43.9821 32.9359 43.9619C30.4857 43.0902 28.1517 41.9708 25.9364 40.6114C24.8376 39.9367 23.8146 39.1231 22.5087 38.8351C22.0919 38.7416 21.6827 38.691 21.2659 38.6405C20.8718 38.5925 20.4929 38.2261 20.0661 38.0795C19.9852 38.0517 19.8539 37.9608 19.8286 38.1023C19.7629 38.4712 19.5785 38.2311 19.4598 38.1806C18.8561 37.9229 18.26 37.65 17.6613 37.3847C17.5148 37.3215 17.3658 37.2331 17.2395 37.42C17.0955 37.6323 16.9642 37.5363 16.8075 37.4175C15.8477 36.6822 14.7691 36.2249 13.5718 36.053C13.4278 36.0328 13.299 35.9899 13.1904 35.8787C12.9453 35.6336 12.6346 35.4896 12.3037 35.4239C10.9069 35.1434 9.67673 34.5269 8.57288 33.6425ZM34.8935 43.2772L34.8859 43.2696C34.8379 43.5197 34.4717 43.6208 34.5576 43.9442C36.9648 43.4288 43.8279 39.871 44.5857 38.7289C44.467 38.7668 44.3811 38.8123 44.2901 38.8224C44.1436 38.8376 43.9365 39.0801 43.8582 38.7921C43.7976 38.5697 44.0603 38.5975 44.1916 38.5495C44.5958 38.4004 45.0075 38.2716 45.4117 38.1275C45.5885 38.0644 45.74 37.9355 45.6693 37.7334C45.591 37.511 45.4117 37.6272 45.2652 37.6752C45.1591 37.7106 45.0505 37.7359 44.9444 37.7662C44.9216 37.7384 44.8989 37.7106 44.8762 37.6828C45.927 36.9905 46.6747 36.0177 47.3769 34.9994C48.4757 33.405 49.6604 31.8687 50.4712 30.0923C50.6025 29.8068 50.6935 29.5137 50.5545 29.2155C50.3626 28.8037 50.4813 28.4626 50.7667 28.1619C51.2214 27.6818 51.3932 27.1006 51.4487 26.4613C51.5169 25.678 51.6028 24.8998 52.0322 24.2074C52.1585 24.0053 52.2217 23.7627 52.0247 23.5884C51.5851 23.2043 51.671 22.7848 51.8605 22.325C51.9817 22.0293 52.0777 21.7236 52.1636 21.4153C52.449 20.4097 52.5475 19.5303 52.4313 19.0199C52.3859 19.1084 52.3505 19.1766 52.3177 19.2448C51.6382 20.6396 50.744 21.8979 49.6604 22.9895C49.092 23.5606 48.4479 24.0306 48.2559 24.8644C48.2256 24.9958 48.1523 25.0109 48.0513 24.9402C47.6472 24.6572 47.3466 24.9453 47.1394 25.1954C45.9699 26.5952 44.6665 27.8864 43.7117 29.4556C43.6157 29.6122 43.502 29.7184 43.3328 29.7992C42.3376 30.2667 41.6884 30.9969 41.6 32.1416C41.5873 32.3058 41.5394 32.4675 41.4914 32.7227C41.4434 32.5383 41.4307 32.4423 41.3954 32.3563C41.3196 32.1694 41.4232 31.8712 41.1882 31.8055C40.9281 31.7348 40.7134 31.9293 40.5239 32.1138C40.0339 32.5913 39.6626 33.1523 39.4504 33.7991C39.3594 34.0746 39.2205 34.2464 38.9932 34.3626C38.8492 34.2009 39.1371 34.0544 38.9477 33.8926C38.6572 34.0544 38.6143 34.355 38.6016 34.6305C38.584 35.0524 38.4122 35.3885 38.1849 35.7271C37.1239 37.2988 36.2575 38.974 35.5452 40.7276C35.2269 41.5135 34.9415 42.3119 34.7243 43.1306C34.7041 43.2089 34.6182 43.3176 34.7521 43.3707C34.7773 43.3808 34.843 43.31 34.8935 43.2772ZM23.7514 37.794C23.5822 37.8445 23.4433 37.7308 23.2917 37.7005C23.1351 37.6702 22.9532 37.4832 22.8194 37.703C22.6981 37.9052 22.8977 38.0189 23.0088 38.1427C23.072 38.2135 23.1553 38.2665 23.2286 38.3272C25.7545 40.3663 28.5862 41.8748 31.5719 43.1104C32.3625 43.4389 33.1556 43.7623 33.9791 43.9796C34.0625 43.8507 34.0018 43.7623 33.9791 43.6739C33.239 40.72 31.9255 38.0265 30.2331 35.5098C30.0386 35.2192 29.9022 34.9488 29.8795 34.5951C29.8643 34.3348 29.8087 34.0569 29.5536 33.9002C29.3844 34.0215 29.6092 34.2135 29.4601 34.3323C29.2 34.2211 29.1065 34.0114 29.0257 33.7764C28.7882 33.079 28.3866 32.4852 27.8334 32.0051C27.4065 31.6387 27.2247 31.7095 27.1085 32.2502C27.0807 32.374 27.116 32.5332 26.9493 32.6014C26.7523 30.9413 26.5149 30.5825 25.0422 29.7487C24.8856 29.6603 24.8275 29.5213 24.7442 29.3899C23.754 27.8435 22.4809 26.527 21.2912 25.1474C21.0967 24.92 20.8137 24.69 20.4475 24.925C20.21 25.0792 20.2252 24.8518 20.1924 24.7355C20.0357 24.2125 19.7453 23.7804 19.3386 23.4241C19.0733 23.1942 18.7803 23.0021 18.5505 22.7267C17.626 21.6175 16.7444 20.4804 16.1255 19.1639C16.0977 19.1058 16.0801 19.0073 15.9613 19.0401C15.9992 20.2353 16.2342 21.3875 16.6838 22.4968C16.8151 22.8227 16.8909 23.1538 16.5802 23.4241C16.2569 23.7046 16.3049 24.0028 16.4994 24.3237C16.7671 24.7709 16.9061 25.2586 16.949 25.7791C17.0248 26.7292 17.146 27.659 17.876 28.3842C18.0731 28.5788 18.0579 28.8668 17.9543 29.1119C17.7977 29.4884 17.8584 29.8346 18.0478 30.1681C19.6316 32.9451 21.1649 35.7599 23.7439 37.794H23.7514ZM38.0889 31.3153C38.5132 30.1151 38.7886 28.8921 38.7835 27.5605C38.3617 27.8031 38.3718 28.2604 38.0358 28.5838C38.1621 27.6742 38.2758 26.8505 38.3945 26.0267C38.4905 25.3672 38.3086 25.1701 37.619 25.2156C37.8135 24.4172 37.9272 23.6111 37.9424 22.7949C37.9474 22.5549 37.9525 22.2795 37.619 22.2466C37.2275 22.2087 37.3235 22.0445 37.465 21.812C37.7908 21.2763 37.854 20.7053 37.6544 20.1039C37.5508 19.7956 37.4069 19.6365 37.0709 19.8184C36.8082 19.9599 36.7072 19.8992 36.7324 19.5809C36.7829 18.9113 36.8032 18.2366 36.8284 17.5645C36.8385 17.3067 36.7981 17.0263 36.452 17.1097C36.0757 17.2006 36.1009 16.9353 36.0706 16.7382C36.0327 16.4906 36.1792 16.2809 36.2828 16.0636C36.3889 15.8412 36.5985 15.6087 36.3257 15.3763C36.0656 15.1539 35.9468 15.4976 35.7523 15.5506C35.7321 15.5557 35.7044 15.5355 35.6513 15.5178C35.8281 15.0907 35.9847 14.6561 36.0656 14.1988C36.1211 13.8855 36.0327 13.7642 35.7145 13.9133C35.6463 13.9436 35.573 13.9941 35.4896 13.9158C35.4341 13.7212 35.5402 13.5469 35.5831 13.3649C35.7953 12.4629 35.7119 11.6492 34.9718 10.9898C34.7394 10.7826 34.651 10.4819 34.5879 10.1787C34.4919 9.72888 34.5929 9.28417 34.6081 8.83945C34.6207 8.44022 34.6258 8.04604 34.353 7.66197C34.1231 7.90706 34.0675 8.18501 34.0524 8.46801C34.0372 8.80408 34.0448 9.14014 34.0498 9.4762C34.0574 10.0877 33.9614 10.6638 33.4941 11.1085C32.9106 11.6619 32.7818 12.334 32.9409 13.092C33.0016 13.3776 33.0496 13.6656 33.1102 13.9739C32.4105 13.8021 32.4004 13.8046 32.5646 14.4565C32.658 14.8229 32.7818 15.1792 32.903 15.5784C32.8197 15.5481 32.7742 15.5405 32.7414 15.5152C32.5772 15.4015 32.4307 15.1868 32.2059 15.3965C32.0063 15.5835 32.1326 15.7831 32.2261 15.965C32.3549 16.2228 32.5343 16.4628 32.4938 16.7711C32.4711 16.9404 32.4357 17.1804 32.2109 17.1324C31.7007 17.0237 31.7184 17.3472 31.731 17.6656C31.7537 18.2897 31.779 18.9138 31.832 19.5354C31.8623 19.8967 31.7386 19.97 31.443 19.8083C31.1753 19.6617 31.054 19.7552 30.9479 20.0231C30.6928 20.6724 30.7711 21.2789 31.1273 21.86C31.2359 22.0369 31.3167 22.2087 31.0364 22.234C30.6145 22.2719 30.6145 22.5423 30.6246 22.848C30.6499 23.6465 30.7534 24.4348 30.9479 25.2156C30.2457 25.1676 30.0866 25.3445 30.18 26.0495C30.2937 26.9035 30.4175 27.7576 30.5438 28.6596C30.2255 28.3438 30.2179 27.8637 29.7936 27.5706C29.7506 28.9199 30.079 30.1252 30.4731 31.3431C30.3417 31.3532 30.2457 31.3759 30.1548 31.3633C29.7481 31.3077 29.6749 31.4518 29.7936 31.8358C30.0386 32.6343 30.3114 33.4176 30.7029 34.1579C30.9 34.5294 31.1096 34.8958 31.3167 35.2697C31.0641 35.3683 30.8242 35.2748 30.5968 35.4239C31.3925 36.6544 32.12 37.9102 32.7363 39.2292C33.3501 40.5432 33.8604 41.895 34.31 43.2873C33.9033 33.9457 33.7442 24.6117 34.214 15.2777C34.1433 24.3717 34.3378 33.4606 34.4793 42.5621C35.328 40.0125 36.5177 37.6424 38.0055 35.3733C37.7125 35.3405 37.4953 35.3178 37.2806 35.2925C37.2629 35.1055 37.3892 35.007 37.4599 34.8882C37.9777 34.0341 38.3869 33.1346 38.6698 32.1769C38.8871 31.4164 38.8846 31.4164 38.0889 31.3153ZM59.494 33.2079C58.8195 33.6652 58.1906 34.2312 57.41 34.4536C56.094 34.825 54.8916 35.4997 53.563 35.8231C52.8102 36.0076 52.1232 36.3487 51.4791 36.7782C51.2189 36.9526 50.984 37.3543 50.6152 36.9046C50.5849 36.8692 50.408 36.9324 50.3095 36.9753C49.6957 37.2457 49.0844 37.5262 48.4681 37.794C48.3822 37.8319 48.2256 37.986 48.1953 37.8319C48.1069 37.3998 47.8669 37.6904 47.7406 37.7384C47.4451 37.8496 47.1697 38.0214 46.8868 38.1705C46.7782 38.2286 46.6848 38.3575 46.5433 38.2741C46.1139 38.024 45.8057 38.2968 45.5152 38.5293C42.6104 40.854 39.3468 42.5191 35.8862 43.8381C35.7751 43.8811 35.6387 43.8785 35.6109 43.9518C36.1035 43.9518 36.6137 43.967 37.1214 43.9493C38.2126 43.9089 39.2862 44.1919 40.3774 44.1135C40.7512 44.0857 41.168 44.207 41.4888 43.9543C41.7995 43.7092 42.1026 43.7295 42.4335 43.8432C42.6609 43.9215 42.9211 44.0857 43.1231 43.9619C43.6132 43.6663 44.1209 43.6941 44.6488 43.7345C44.7903 43.7446 45.058 43.689 44.9166 43.4844C44.7044 43.1761 44.9772 43.1533 45.101 43.0801C45.3687 42.9209 45.6794 42.9057 45.9825 42.9007C46.2983 42.8981 46.5837 42.8249 46.8111 42.5899C47.1268 42.2664 47.5284 42.1224 47.9553 42.0239C48.3898 41.9228 48.8445 41.8849 49.2587 41.7055C49.4305 41.6297 49.7033 41.5311 49.6427 41.3391C49.5366 41.0131 49.7639 41.0384 49.918 40.9879C50.5141 40.7984 51.0875 40.5609 51.6432 40.2753C51.8883 40.149 52.0651 40.0125 51.7367 39.7599C52.0373 39.6841 52.2975 39.6133 52.5627 39.5552C53.1841 39.4162 53.7777 39.2216 54.1566 38.6658C54.4597 38.2185 54.8209 37.8496 55.3135 37.6171C55.3842 37.5843 55.46 37.5439 55.4069 37.4276C55.1266 37.4125 54.8411 37.3973 54.5557 37.3847C57.0135 36.9248 58.4735 35.3354 59.494 33.2079ZM34.9264 44.3814C35.6412 44.7781 36.2904 45.1419 36.9471 45.4957C37.0406 45.5462 37.1871 45.5917 37.2654 45.5538C37.8262 45.2657 38.243 45.6018 38.685 45.852C39.0765 46.0743 39.4832 46.3017 39.9505 46.1703C40.2839 46.0768 40.577 46.1274 40.8826 46.2487C41.2236 46.3851 41.5697 46.5089 41.9182 46.6327C42.1001 46.6959 42.3527 46.7844 42.4689 46.6378C42.868 46.1274 43.2696 46.423 43.6511 46.6024C44.035 46.7844 44.4038 46.8551 44.8029 46.6833C45.2626 46.4887 45.735 46.4736 46.2149 46.5898C46.3816 46.6302 46.5787 46.7085 46.705 46.5317C46.9525 46.1855 47.3036 46.2057 47.6598 46.231C49.1526 46.3321 50.6354 46.2613 52.1055 45.9682C53.0729 45.7736 54.0177 45.5083 55.0558 45.0661C54.0227 45.0889 53.131 45.3264 52.252 45.0813C51.5801 44.8943 50.9259 44.9246 50.259 45.0611C50.1074 45.0914 49.9382 45.1874 49.8043 45.051C49.4532 44.6972 49.0137 44.7503 48.5868 44.7857C48.0109 44.8337 47.44 44.917 46.854 44.9853C46.9374 44.768 47.2455 44.816 47.3011 44.5279C46.5004 44.5886 45.735 44.6442 44.9696 44.7023C44.9671 44.5229 45.1995 44.5835 45.1995 44.3839C44.5352 44.346 43.8885 44.2828 43.2343 44.2727C42.5371 44.2626 41.8778 44.0832 41.1453 44.3334C40.5189 44.5481 39.7813 44.4496 39.0993 44.3637C37.7302 44.1893 36.3687 44.2197 34.9264 44.3814ZM33.4663 10.5981C32.7692 10.5501 32.1377 10.631 31.5112 10.7017C25.7495 11.3561 20.8643 13.7945 16.8783 18.0041C16.0876 18.8405 16.1887 18.4741 16.6711 19.5253C16.8202 19.8487 16.9187 19.9371 17.1965 19.5986C18.3863 18.1583 19.7756 16.9277 21.3063 15.8589C24.6103 13.5519 28.2755 12.2456 32.2918 11.9221C32.3979 11.9146 32.5494 11.9676 32.5949 11.8413C32.7692 11.3688 33.1607 11.0479 33.4663 10.5981ZM35.0905 10.5754C35.333 11.0049 35.717 11.2247 35.8382 11.6113C35.9317 11.912 36.1312 11.9752 36.4066 12.0055C42.2037 12.6701 46.9929 15.2499 50.8299 19.6289C51.4008 20.2808 51.3932 20.2833 51.8201 19.5C51.9514 19.26 52.0802 19.0755 51.8276 18.7874C47.4122 13.749 41.8551 11.0504 35.0905 10.5754ZM33.8276 44.3713C33.0824 44.4117 32.4509 44.4218 31.8245 44.4824C30.2786 44.6315 28.7832 45.0737 27.2398 45.2607C24.2794 45.6195 21.3164 45.7938 18.3332 45.6018C17.6942 45.5614 17.0854 45.2228 16.4438 45.3769C15.3677 45.6347 14.2892 45.5917 13.203 45.4957C13.1929 45.4957 13.1803 45.5336 13.16 45.574C13.3242 45.6372 13.4834 45.7054 13.6476 45.7635C15.7567 46.514 17.9316 46.7894 20.162 46.6504C20.4475 46.6327 20.8213 46.5165 20.9981 46.7187C21.3644 47.1356 21.7509 47.0042 22.1727 46.941C22.3899 46.9082 22.6274 46.888 22.837 46.9865C23.4509 47.2771 24.0318 47.2316 24.6179 46.8905C24.8149 46.7742 25.1559 46.6378 25.2898 46.8273C25.6333 47.3074 25.9869 47.0522 26.3481 46.9385C26.7902 46.802 27.2221 46.4458 27.6617 46.5468C28.4775 46.7338 29.0964 46.3978 29.733 46.0187C29.978 45.8722 30.2432 45.7913 30.511 45.9076C30.7661 46.0162 30.9707 45.948 31.193 45.8317C31.6022 45.6144 32.0215 45.4174 32.4307 45.2C32.8753 44.9676 33.3552 44.7932 33.8276 44.3713ZM15.6557 19.5505C15.5774 19.5783 15.5395 19.5809 15.5218 19.6011C15.4183 19.7249 15.3172 19.8487 15.2238 19.9776C12.1446 24.1594 10.5785 28.8441 10.581 34.0442C10.581 34.2363 10.4623 34.4915 10.7073 34.6102C11.0382 34.7694 11.3843 34.9109 11.7556 34.9413C11.9046 34.9539 11.8844 34.7897 11.8718 34.6785C11.8188 34.1655 11.8617 33.6551 11.8794 33.1447C12.0234 29.2661 13.1045 25.6679 15.1682 22.3881C15.6481 21.6225 16.0397 20.9251 15.686 20.0129C15.638 19.8841 15.6658 19.7274 15.6557 19.5505ZM52.8027 20.061C52.7117 20.5057 52.6688 20.8923 52.5475 21.2511C52.4288 21.6074 52.4995 21.8727 52.6966 22.1809C54.053 24.2832 54.9952 26.5649 55.561 29.0008C55.9526 30.6887 56.1369 32.4044 56.1395 34.1377C56.1395 34.2717 56.0258 34.4839 56.2683 34.5344C56.771 34.6406 57.4176 34.0998 57.41 33.5919C57.3418 29.5567 56.286 25.7943 54.293 22.2946C53.8636 21.5341 53.3963 20.7937 52.8027 20.061ZM10.8235 37.0284C10.8008 37.1017 10.7806 37.132 10.7831 37.1573C11.1468 39.914 11.9956 42.5141 13.2889 44.9726C13.3571 45.104 13.4278 45.2177 13.6046 45.2253C14.029 45.243 14.4483 45.3289 14.8752 45.2809C14.8979 45.1167 14.7969 45.0206 14.7363 44.917C13.7107 43.1281 12.9681 41.2279 12.4831 39.2267C12.3896 38.8401 12.3088 38.4459 12.1825 38.0694C11.9653 37.42 11.2757 37.3948 10.8235 37.0284ZM57.2711 36.5837C56.9756 36.7429 56.7381 36.9147 56.4704 37.0031C56.0031 37.1547 55.849 37.506 55.7757 37.933C55.5206 39.4187 55.0887 40.854 54.5355 42.2563C54.1844 43.1458 53.7373 43.9922 53.2952 44.8842C53.6943 44.8615 54.0429 44.821 54.389 44.8236C54.7047 44.8261 54.879 44.6896 54.9977 44.4016C55.2529 43.78 55.5585 43.1811 55.8035 42.557C56.5563 40.6493 57.0539 38.6784 57.2711 36.5837ZM19.3436 54.155C19.1794 54.1348 19.0329 54.2081 18.9218 54.3268C18.7778 54.481 18.5101 54.6705 18.6591 54.865C18.7753 55.0167 19.0481 55.3856 19.3259 54.9358C19.4042 54.8069 19.5305 54.9181 19.619 54.9712C19.9751 55.1859 20.3237 55.4108 20.6799 55.6231C20.8365 55.7166 20.9249 55.805 20.8036 56.0021C20.6874 56.1891 20.5687 56.2447 20.3767 56.1209C20.1065 55.949 19.8261 55.7949 19.5659 55.6105C19.3487 55.4538 19.2274 55.4791 19.0784 55.7115C18.9243 55.9516 18.9723 56.0627 19.2047 56.1866C19.4851 56.3356 19.7478 56.5252 20.0231 56.6869C20.2201 56.8031 20.2277 56.9269 20.1115 57.1189C19.9903 57.3135 19.8741 57.2832 19.7175 57.1846C19.3664 56.9623 19.0102 56.75 18.6591 56.5252C18.558 56.462 18.3989 56.3912 18.5075 56.232C18.7829 55.8353 18.3635 55.8075 18.2019 55.7166C17.9316 55.5624 17.9089 55.8859 17.8356 56.0173C17.6108 56.4291 17.7851 56.7703 18.1337 57.0078C18.5808 57.3135 19.043 57.599 19.5154 57.8669C19.9903 58.1372 20.3414 58.0261 20.6521 57.5561C20.8845 57.2023 21.0386 56.8107 21.3063 56.467C21.8292 55.7949 21.7281 55.4639 20.9906 55.0015C20.6369 54.7817 20.2858 54.5618 19.9296 54.3445C19.7554 54.2384 19.571 54.1449 19.3436 54.155ZM26.0425 60.7929C26.5603 60.8434 26.8028 60.6716 26.9316 60.3356C27.1337 59.815 27.3308 59.292 27.5278 58.7689C27.6894 58.3394 27.5657 57.9957 27.1539 57.8138C26.6007 57.5687 26.0324 57.3489 25.4565 57.1619C25.0624 57.0356 24.7113 57.167 24.5446 57.5687C24.3173 58.1095 24.1278 58.6679 23.9232 59.2187C23.7944 59.5649 23.8803 59.8732 24.191 60.0526C24.8174 60.4114 25.507 60.6059 26.0425 60.7929ZM44.7549 56.4367C44.6867 56.4468 44.5983 56.4418 44.5301 56.4746C43.8961 56.7778 43.2696 57.0912 42.6331 57.3893C42.4386 57.4803 42.5371 57.5864 42.5927 57.6951C42.9387 58.3975 43.2898 59.0949 43.6283 59.7999C43.7016 59.9515 43.7546 60.0298 43.9441 59.9313C44.5099 59.6356 45.0934 59.3779 45.6542 59.0722C46.1038 58.8271 46.1998 58.5238 45.9573 58.0715C45.74 57.6698 45.538 57.2655 45.3586 56.8486C45.2475 56.601 45.058 56.4367 44.7549 56.4367ZM31.3976 60.5428C30.9429 60.9597 30.5918 61.2806 30.2533 61.5914C30.852 61.8971 31.2182 61.5333 31.5719 61.1315C31.7941 61.7 32.0922 61.8895 32.6328 61.8339C32.9965 61.796 33.2238 61.6116 33.2592 61.2326C33.2819 60.9976 33.335 60.7525 33.1986 60.5326C33.0597 60.3103 32.8197 60.2395 32.4913 60.1663C32.8929 59.7721 33.2314 59.4411 33.5674 59.1126C32.9864 58.8523 32.5924 59.1328 32.2665 59.5902C31.9988 59.009 31.6047 58.7866 31.0919 58.8928C30.6297 58.9888 30.5615 59.3299 30.5337 59.7215C30.5008 60.2244 30.7711 60.4493 31.3976 60.5428ZM49.7134 52.8133C49.6755 52.8284 49.5517 52.8436 49.4709 52.9093C48.9228 53.3717 48.3822 53.8467 47.8391 54.3167C47.6951 54.4431 47.7911 54.5366 47.8795 54.6376C48.4024 55.2213 48.9228 55.805 49.4431 56.3887C49.529 56.4847 49.5997 56.5833 49.7488 56.4443C50.2489 55.9743 50.7743 55.5321 51.2643 55.0495C51.5397 54.7791 51.5397 54.4481 51.2745 54.1474C50.9486 53.776 50.6177 53.4046 50.2843 53.0382C50.1554 52.8941 49.9963 52.7905 49.7134 52.8133ZM36.6743 59.4992C36.788 60.0627 36.884 60.6287 37.0179 61.1846C37.1088 61.5611 37.417 61.6773 37.7605 61.6268C38.2657 61.5535 38.7684 61.4549 39.2634 61.3362C39.6322 61.2477 39.8419 60.9976 39.7863 60.5983C39.7661 60.4619 39.8267 60.2117 39.5893 60.2471C39.4251 60.2724 39.0841 60.1688 39.1422 60.5604C39.17 60.7449 39.026 60.7601 38.8997 60.7828C38.5713 60.8485 38.243 60.9066 37.9146 60.9748C37.6822 61.0228 37.5938 60.9395 37.5357 60.7019C37.225 59.4487 37.3134 59.3173 38.6143 59.201C38.7532 59.1884 38.8795 59.1682 38.9199 59.3299C39.0109 59.6887 39.2382 59.4764 39.4074 59.4487C39.6929 59.4006 39.5135 59.1884 39.4958 59.0722C39.4327 58.7007 39.175 58.5062 38.8113 58.5542C38.2606 58.6274 37.7125 58.7386 37.1669 58.8624C36.8537 58.9357 36.6819 59.1581 36.6743 59.4992ZM26.0526 8.92536C25.9617 8.79397 26.0299 8.48317 25.6762 8.63984C25.3554 8.78134 25.0094 8.85714 24.6861 8.99106C24.4916 9.07192 24.4006 9.04412 24.3324 8.84451C24.2541 8.61709 24.4309 8.61204 24.5547 8.56656C24.974 8.41242 25.3933 8.25829 25.8202 8.12437C26.0223 8.05867 26.1183 7.99045 26.0248 7.75546C25.9465 7.55584 25.848 7.54068 25.6687 7.60638C25.0852 7.82115 24.4991 8.03088 23.9081 8.22797C23.6832 8.30124 23.5999 8.37957 23.7035 8.63731C23.9283 9.20078 24.1329 9.77184 24.3072 10.353C24.388 10.6208 24.489 10.6663 24.7366 10.5754C25.3049 10.3631 25.8808 10.1736 26.4492 9.9664C26.6033 9.91081 26.7826 9.89313 26.674 9.61265C26.578 9.3625 26.4593 9.39282 26.2799 9.45599C25.843 9.61012 25.406 9.75668 24.9715 9.91839C24.8124 9.97651 24.729 9.97904 24.6583 9.787C24.58 9.5697 24.6962 9.54695 24.8427 9.49895C25.1761 9.38777 25.5045 9.26143 25.8354 9.14772C25.944 9.10982 26.0602 9.09213 26.0526 8.92536ZM15.201 17.0162C15.1354 16.6195 14.7135 16.4097 14.375 16.1874C14.1401 16.0332 14.0643 16.4148 13.9128 16.5487C13.7461 16.6953 13.6299 16.8949 13.4783 17.0566C13.347 17.1956 13.3672 17.284 13.5112 17.4002C13.6551 17.519 13.7688 17.5746 13.9002 17.3927C14.0037 17.2512 14.1275 17.1248 14.2285 16.9808C14.3624 16.7888 14.519 16.8873 14.5544 17.0111C14.6857 17.4558 14.2083 17.5847 14.0492 17.8829C13.981 18.0067 13.89 18.2518 13.6577 18.0799C13.3773 17.8702 13.112 17.6378 12.8418 17.4129C12.771 17.3548 12.7458 17.2587 12.8039 17.2006C13.112 16.8974 13.2485 16.4249 13.7107 16.2733C13.8926 16.2126 14.0568 16.0509 14.0138 15.9069C13.9583 15.725 13.7259 15.6719 13.5238 15.7073C13.3621 15.7376 13.2358 15.8412 13.1323 15.965C12.9378 16.1975 12.7407 16.4299 12.5488 16.6624C12.0511 17.2663 12.0739 17.4584 12.6675 17.9561C13.8926 18.9845 13.8395 19.0123 14.8752 17.7312C15.0217 17.5468 15.1985 17.375 15.201 17.0162ZM30.8444 7.2501C30.8772 7.73019 30.9176 8.20775 30.9404 8.68784C30.9505 8.89251 31.0111 8.95568 31.2258 8.93547C31.8623 8.87483 32.5014 8.82935 33.138 8.79902C33.3552 8.78892 33.4032 8.70048 33.4032 8.50339C33.4032 8.26082 33.2617 8.25829 33.0874 8.27092C32.658 8.30377 32.2261 8.34167 31.7941 8.35936C31.6476 8.36441 31.4304 8.47307 31.4279 8.15216C31.4254 7.84895 31.6451 7.92475 31.7916 7.90959C32.0947 7.87927 32.3979 7.8818 32.7035 7.86411C32.9132 7.854 32.999 7.76809 32.9864 7.53057C32.9738 7.26778 32.8298 7.30821 32.6681 7.32085C32.3347 7.34864 31.9988 7.37391 31.6653 7.39665C31.5188 7.40676 31.3748 7.42445 31.3572 7.20714C31.3369 6.96962 31.486 6.94941 31.6552 6.93677C32.0872 6.90898 32.5166 6.88624 32.9485 6.85339C33.1102 6.84076 33.2946 6.88624 33.2794 6.58808C33.2643 6.26717 33.0849 6.32782 32.8955 6.34045C32.4661 6.37077 32.0341 6.40109 31.6022 6.42636C30.809 6.47437 30.809 6.47437 30.8444 7.2501ZM38.5385 7.52804C38.8947 8.17996 39.1952 8.70553 39.4655 9.24374C39.5842 9.47873 39.7914 9.50653 39.9859 9.504C40.2082 9.50147 40.1526 9.27153 40.1829 9.13256C40.3016 8.58677 40.3976 8.03593 40.5264 7.49267C40.5795 7.26273 40.6073 7.11365 40.3041 7.05553C39.9505 6.98731 40.0465 7.26273 40.0086 7.40929C39.9126 7.76809 39.8495 8.13448 39.7762 8.48823C39.6247 8.4857 39.6146 8.38968 39.5792 8.32651C39.3266 7.86664 39.0614 7.40929 38.8315 6.93677C38.7077 6.68157 38.4804 6.65125 38.2758 6.66135C38.0687 6.67146 38.1343 6.91403 38.104 7.05048C37.9702 7.62406 37.8817 8.21028 37.7403 8.78386C37.6847 9.01127 37.7655 9.04918 37.9449 9.10224C38.1545 9.16288 38.2303 9.09971 38.2657 8.89251C38.3339 8.4857 38.4248 8.08394 38.5385 7.52804ZM50.0999 14.4464C50.2363 14.4515 50.3626 14.4161 50.4459 14.3125C50.7642 13.9133 51.0926 13.5166 51.3831 13.0971C51.5498 12.8545 51.4614 12.5943 51.2416 12.4123C50.8854 12.1167 50.5167 11.8312 50.1403 11.5608C49.8599 11.3612 49.5896 11.4269 49.3774 11.6872C49.1046 12.0232 48.8344 12.3618 48.5792 12.7105C48.3519 13.0238 48.4176 13.3169 48.7055 13.557C48.9884 13.792 49.284 14.0118 49.577 14.2367C49.7336 14.3529 49.8953 14.4565 50.0999 14.4464ZM20.7026 44.9398C20.6925 44.9802 20.6824 45.0181 20.6723 45.0585C20.9451 45.2026 21.18 45.4224 21.5286 45.4123C23.7994 45.3517 26.0577 45.1571 27.7854 44.9423C27.1741 45.147 26.0905 44.2045 24.9437 44.7099C24.8679 44.7427 24.7543 44.6922 24.6583 44.6922C24.0318 44.6871 23.4054 44.7048 22.8093 44.8236C22.8093 44.9903 23.0214 44.9448 22.981 45.1141C22.2182 45.056 21.4604 44.9979 20.7026 44.9398ZM57.3848 23.5732C57.3469 23.4873 57.3141 23.414 57.2787 23.3433C57.1196 23.0123 56.9831 22.6686 56.7886 22.3578C56.5739 22.0116 56.5916 21.807 57.0084 21.6528C57.3797 21.5164 57.7258 21.3067 58.0895 21.1449C58.2916 21.054 58.2739 20.9453 58.1855 20.7735C58.0996 20.6042 58.0264 20.5815 57.8597 20.6674C57.2787 20.9655 56.6876 21.2435 56.0991 21.5315C55.993 21.5846 55.8414 21.5998 55.9374 21.7943C56.2582 22.4361 56.5739 23.0805 56.8846 23.7273C56.9453 23.8511 57.0109 23.8436 57.1069 23.7804C57.2029 23.7122 57.3545 23.7172 57.3848 23.5732ZM55.3337 16.5588C55.2478 16.4401 55.1821 16.3339 55.0988 16.2404C54.9725 16.0964 54.9017 16.2556 54.831 16.3112C54.3334 16.7054 53.8484 17.1147 53.3457 17.5064C53.1715 17.6403 53.1361 17.7363 53.2927 17.9208C53.4392 18.0926 53.5276 18.0522 53.6716 17.9309C54.1465 17.5316 54.6315 17.1476 55.1114 16.7559C55.1821 16.6978 55.2478 16.6346 55.3337 16.5588ZM21.0183 45.4502C19.9044 45.0358 18.4621 45.0813 18.217 45.4957C19.038 45.4957 19.8513 45.4957 20.6647 45.4957C20.738 45.4932 20.8112 45.4755 21.0183 45.4502Z" fill="#1F2120"/>
<path d="M38.0879 31.3152C38.8836 31.4163 38.8861 31.4163 38.6638 32.1693C38.3809 33.1269 37.9742 34.029 37.4539 34.8805C37.3806 34.9993 37.2569 35.0978 37.2745 35.2848C37.4893 35.3076 37.7065 35.3328 37.9995 35.3657C36.5117 37.6347 35.322 40.0049 34.4732 42.5544C34.3343 33.4554 34.1398 24.364 34.208 15.2701C33.7382 24.6041 33.8973 33.938 34.304 43.2796C33.8544 41.8899 33.3441 40.5355 32.7303 39.2216C32.114 37.9026 31.3865 36.6442 30.5908 35.4162C30.8156 35.2671 31.0556 35.3606 31.3107 35.2621C31.1036 34.8881 30.8914 34.5243 30.6969 34.1503C30.3054 33.4099 30.0326 32.6266 29.7876 31.8282C29.6688 31.4416 29.7396 31.3001 30.1488 31.3557C30.2397 31.3683 30.3357 31.3456 30.467 31.3354C30.073 30.1175 29.7446 28.9122 29.7876 27.5629C30.2094 27.856 30.2195 28.3361 30.5378 28.652C30.4115 27.7524 30.2877 26.8984 30.174 26.0418C30.0806 25.3368 30.2397 25.1625 30.9419 25.208C30.7474 24.4247 30.6439 23.6388 30.6186 22.8404C30.6085 22.5346 30.6085 22.2668 31.0303 22.2263C31.3132 22.2011 31.2299 22.0293 31.1213 21.8524C30.7651 21.2737 30.6868 20.6648 30.9419 20.0154C31.048 19.7476 31.1693 19.6541 31.437 19.8006C31.7326 19.9623 31.8589 19.8916 31.826 19.5277C31.773 18.9061 31.7477 18.282 31.725 17.6579C31.7123 17.3395 31.6972 17.0161 32.2049 17.1247C32.4297 17.1728 32.4651 16.9352 32.4878 16.7634C32.5282 16.4551 32.3489 16.2151 32.2201 15.9574C32.1291 15.7754 32.0003 15.5733 32.1999 15.3888C32.4247 15.1816 32.5712 15.3939 32.7354 15.5076C32.7682 15.5303 32.8137 15.5379 32.897 15.5708C32.7758 15.1741 32.6495 14.8153 32.5585 14.4489C32.3944 13.797 32.4045 13.7944 33.1042 13.9662C33.0461 13.658 32.9955 13.3699 32.9349 13.0844C32.7758 12.3264 32.9046 11.6542 33.4881 11.1009C33.9554 10.6561 34.0514 10.08 34.0438 9.46855C34.0388 9.13249 34.0312 8.79642 34.0463 8.46036C34.059 8.17736 34.1171 7.89941 34.3469 7.65431C34.6197 8.03839 34.6172 8.43257 34.6021 8.8318C34.5869 9.27904 34.4859 9.72123 34.5819 10.171C34.6475 10.4742 34.7359 10.7749 34.9658 10.9821C35.7034 11.6441 35.7867 12.4552 35.5771 13.3573C35.5341 13.5367 35.4306 13.7136 35.4836 13.9081C35.5645 13.9865 35.6402 13.9359 35.7084 13.9056C36.0267 13.7565 36.1126 13.8778 36.0596 14.1911C35.9812 14.6485 35.8246 15.0831 35.6453 15.5101C35.6983 15.5278 35.7261 15.5505 35.7463 15.543C35.9408 15.4899 36.0596 15.1488 36.3197 15.3686C36.5951 15.6011 36.3829 15.8361 36.2768 16.0559C36.1732 16.2732 36.0242 16.4829 36.0646 16.7306C36.0949 16.9251 36.0697 17.193 36.446 17.102C36.7946 17.0186 36.8325 17.2991 36.8224 17.5568C36.7971 18.229 36.7744 18.9011 36.7264 19.5732C36.7037 19.8916 36.8047 19.9548 37.0649 19.8107C37.4008 19.6288 37.5473 19.788 37.6484 20.0963C37.8479 20.6976 37.7823 21.2687 37.4589 21.8044C37.3175 22.0394 37.2215 22.2011 37.613 22.239C37.9465 22.2718 37.9414 22.5472 37.9363 22.7873C37.9212 23.6034 37.805 24.4095 37.613 25.208C38.3026 25.1625 38.4845 25.3621 38.3885 26.0191C38.2698 26.8403 38.1586 27.664 38.0298 28.5762C38.3658 28.2553 38.3557 27.7979 38.7775 27.5528C38.7876 28.892 38.5123 30.115 38.0879 31.3152Z" fill="#4ECB71"/>
<path d="M23.7412 37.8014C21.1622 35.7674 19.6314 32.9525 18.0451 30.1756C17.8532 29.8395 17.7925 29.4958 17.9517 29.1194C18.0552 28.8743 18.0704 28.5862 17.8734 28.3916C17.1434 27.6664 17.0221 26.7341 16.9463 25.7865C16.9034 25.266 16.7645 24.7808 16.4967 24.3311C16.3047 24.0102 16.2567 23.712 16.5775 23.4315C16.8882 23.1612 16.8125 22.8302 16.6811 22.5042C16.2315 21.3949 15.9966 20.2427 15.9587 19.0475C16.0774 19.0147 16.0951 19.1132 16.1229 19.1714C16.7417 20.4878 17.6208 21.6249 18.5478 22.7341C18.7777 23.0096 19.0707 23.2016 19.3359 23.4315C19.7426 23.7878 20.0331 24.2199 20.1897 24.7429C20.2251 24.8592 20.2099 25.0866 20.4448 24.9325C20.8085 24.6949 21.0915 24.9274 21.2885 25.1548C22.4782 26.537 23.7513 27.8534 24.7415 29.3973C24.8248 29.5287 24.8829 29.6677 25.0396 29.7561C26.5122 30.5874 26.7496 30.9488 26.9467 32.6089C27.1159 32.5406 27.0805 32.3814 27.1058 32.2576C27.2245 31.7194 27.4064 31.6461 27.8308 32.0125C28.3865 32.4926 28.7881 33.0864 29.023 33.7838C29.1038 34.0188 29.1973 34.2285 29.4575 34.3397C29.609 34.221 29.3842 34.0289 29.5509 33.9076C29.8061 34.0643 29.8591 34.3448 29.8768 34.6025C29.8995 34.9537 30.0359 35.2266 30.2304 35.5172C31.9228 38.0314 33.2363 40.7275 33.9765 43.6813C33.9992 43.7697 34.0598 43.8582 33.9765 43.987C33.153 43.7722 32.3598 43.4463 31.5692 43.1178C28.5835 41.8822 25.7519 40.3737 23.2259 38.3346C23.1501 38.2739 23.0693 38.2209 23.0061 38.1501C22.895 38.0238 22.6955 37.9126 22.8167 37.7105C22.9506 37.4881 23.1299 37.6776 23.2891 37.7079C23.4431 37.7383 23.5795 37.852 23.7488 37.8014C23.7362 37.8545 23.7488 37.8798 23.8044 37.8444C23.7841 37.8267 23.7639 37.8141 23.7412 37.8014ZM32.7741 42.711C32.8398 42.6023 32.7539 42.5619 32.6857 42.5139C32.6377 42.4507 32.5947 42.385 32.5442 42.3244C28.3511 37.5715 24.3954 32.624 20.5787 27.5628C19.6466 26.3272 18.717 25.0866 17.7875 23.8485C17.6965 23.6564 17.6359 23.4391 17.3934 23.3759C17.4288 23.2142 17.353 23.1258 17.2015 23.0879C17.1383 22.9666 17.0777 22.8453 17.0145 22.7215C17.0019 22.7291 16.9918 22.7367 16.9792 22.7417C17.055 22.8529 17.1307 22.9666 17.2065 23.0778C17.2469 23.1915 17.2924 23.3001 17.3985 23.3684C17.4844 23.5629 17.5753 23.7524 17.7597 23.8763C17.8153 23.99 17.8557 24.1112 17.9264 24.2148C22.2787 30.6152 27.0629 36.6745 32.3699 42.3118C32.4533 42.4002 32.5089 42.5745 32.6958 42.5038C32.615 42.62 32.7135 42.6554 32.7842 42.7009C32.8196 42.7944 32.8751 42.8677 32.9787 42.8929C33.004 42.9232 33.0267 42.9561 33.0519 42.9864C33.0621 42.9687 33.0722 42.9536 33.0823 42.9359C33.0444 42.9232 33.009 42.9106 32.9711 42.898C32.9585 42.7843 32.9332 42.6807 32.7741 42.711Z" fill="#4ECB71"/>
<path d="M44.9462 37.7662C45.0523 37.7358 45.161 37.708 45.267 37.6752C45.4161 37.6272 45.5929 37.511 45.6712 37.7333C45.7419 37.9355 45.5904 38.0618 45.4136 38.1275C45.0094 38.274 44.5977 38.4004 44.1935 38.5495C44.0622 38.5975 43.7995 38.5722 43.8601 38.792C43.9384 39.0801 44.143 38.8375 44.292 38.8224C44.383 38.8148 44.4688 38.7693 44.5876 38.7289C43.8298 39.871 36.9642 43.4287 34.5594 43.9442C34.4736 43.6208 34.8398 43.5172 34.8878 43.2695C35.0267 43.2847 35.0773 43.2064 35.0874 43.0851C35.2591 43.0674 35.3273 42.941 35.3779 42.7995C35.4435 42.8021 35.4738 42.7692 35.4764 42.7061C35.537 42.7061 35.5698 42.6757 35.5774 42.6151C35.6254 42.6025 35.6734 42.5671 35.633 42.5266C35.59 42.4812 35.5622 42.5393 35.5446 42.5797C35.489 42.605 35.4461 42.6353 35.4738 42.7061C35.3955 42.6959 35.3678 42.7313 35.3804 42.8046C35.2137 42.8299 35.1354 42.9436 35.0924 43.0927C34.9889 43.1154 34.9434 43.1988 34.8903 43.2771C34.8398 43.31 34.7741 43.3807 34.7438 43.3681C34.61 43.315 34.6958 43.2064 34.716 43.128C34.9358 42.3093 35.2187 41.5109 35.537 40.725C36.2493 38.9689 37.1157 37.2936 38.1766 35.7245C38.404 35.3859 38.5757 35.0499 38.5934 34.6279C38.6061 34.3525 38.6465 34.0543 38.9395 33.8901C39.1289 34.0543 38.841 34.1983 38.9849 34.36C39.2123 34.2463 39.3512 34.072 39.4421 33.7966C39.6569 33.1497 40.0256 32.5913 40.5157 32.1112C40.7051 31.9267 40.9198 31.7322 41.18 31.8029C41.4149 31.8686 41.3114 32.1668 41.3871 32.3538C41.4225 32.4397 41.4351 32.5357 41.4831 32.7201C41.5337 32.4624 41.5791 32.3032 41.5918 32.139C41.6802 30.9943 42.3293 30.2641 43.3246 29.7966C43.4938 29.7183 43.6075 29.6122 43.7035 29.453C44.6608 27.8839 45.9617 26.5901 47.1312 25.1928C47.3409 24.9427 47.6389 24.6571 48.0431 24.9376C48.1467 25.0084 48.2174 24.9932 48.2477 24.8618C48.4422 24.028 49.0863 23.558 49.6521 22.9869C50.7358 21.8953 51.63 20.637 52.3095 19.2422C52.3423 19.174 52.3777 19.1058 52.4231 19.0173C52.5393 19.5277 52.4408 20.4071 52.1554 21.4127C52.067 21.721 51.9735 22.0267 51.8523 22.3224C51.6628 22.7822 51.5769 23.2017 52.0164 23.5858C52.2135 23.7576 52.1503 24.0027 52.024 24.2048C51.5946 24.8972 51.5087 25.6754 51.4405 26.4587C51.385 27.098 51.2132 27.6817 50.7585 28.1593C50.4731 28.46 50.3544 28.8011 50.5463 29.2129C50.6853 29.5111 50.5943 29.8042 50.463 30.0897C49.6547 31.8661 48.4675 33.4049 47.3687 34.9968C46.6664 36.0176 45.9162 36.9879 44.8679 37.6803C44.8199 37.7055 44.7416 37.7156 44.7972 37.8015C44.7543 37.751 44.7189 37.7864 44.6835 37.8142C44.6785 37.8192 44.6835 37.8521 44.6911 37.8546C44.7442 37.8723 44.777 37.8495 44.7896 37.7965C44.8477 37.7889 44.8983 37.7763 44.9462 37.7662ZM50.4857 22.81C50.1346 23.1183 49.9073 23.5226 49.6496 23.9016C49.248 24.46 48.8438 25.0185 48.4447 25.5794C44.3931 31.2698 40.3288 36.95 35.7719 42.2538C35.7315 42.3018 35.6406 42.3574 35.7643 42.4559C36.8985 41.2582 37.9746 40.01 39.0254 38.7415C41.9075 35.2571 44.5749 31.6134 47.1262 27.8839C48.0128 26.5901 48.9221 25.3141 49.7153 23.9572C50.0361 23.6161 50.2281 23.1891 50.4807 22.8025C50.4857 22.7898 50.4933 22.7772 50.4958 22.7646C50.4983 22.7519 50.5009 22.7393 50.5009 22.7292C50.4958 22.757 50.4908 22.7822 50.4857 22.81Z" fill="#4ECB71"/>
<path d="M8.57204 33.6425C9.67589 34.5269 10.906 35.1434 12.3004 35.4213C12.6288 35.487 12.942 35.6311 13.187 35.8762C13.2981 35.9874 13.4244 36.0303 13.5684 36.0505C14.7657 36.2223 15.8443 36.6797 16.8042 37.415C16.9608 37.5337 17.0922 37.6298 17.2361 37.4175C17.365 37.2305 17.514 37.3164 17.658 37.3821C18.2566 37.6475 18.8528 37.9204 19.4565 38.1781C19.5777 38.2286 19.7621 38.4687 19.8253 38.0998C19.8505 37.9583 19.9819 38.0492 20.0627 38.077C20.4896 38.2236 20.8685 38.5899 21.2625 38.638C21.6793 38.6885 22.0885 38.739 22.5053 38.8325C23.8138 39.1206 24.8343 39.9342 25.9331 40.6089C28.1509 41.9683 30.4823 43.0876 32.9325 43.9594C32.9881 43.9796 33.0386 44.0125 33.1776 44.0857C32.2379 44.1666 31.3917 44.2222 30.548 44.3182C29.3861 44.4496 28.2266 44.5911 27.0546 44.5203C26.8803 44.5102 26.6807 44.5608 26.5469 44.4243C26.2033 44.0756 25.8295 44.1413 25.4405 44.3056C25.1121 44.442 24.8115 44.4622 24.4933 44.2323C24.2179 44.0352 23.8719 44.1615 23.5561 44.1413C23.354 44.1287 22.9069 44.3308 23.1242 43.7598C23.1823 43.6031 22.9297 43.449 22.768 43.4439C21.8915 43.4161 21.1817 42.9967 20.4416 42.5873C19.997 42.3422 19.4186 42.3498 18.9184 42.1881C18.6532 42.1022 18.2516 42.0744 18.3577 41.5817C18.3905 41.425 18.1682 41.4376 18.0621 41.4048C17.4458 41.2178 16.8572 40.9702 16.2939 40.6644C16.0843 40.5507 15.8847 40.4143 16.246 40.1768C15.8494 40.0808 15.5109 39.9999 15.1749 39.9165C14.5283 39.7548 13.9852 39.444 13.6492 38.8452C13.3916 38.3903 12.9016 38.2185 12.3989 37.8471C12.8308 37.8269 13.139 37.8117 13.4446 37.7965C11.0349 37.3493 9.53191 35.813 8.49121 33.7107C8.519 33.688 8.54678 33.6652 8.57204 33.6425ZM12.4873 36.2678C16.4202 38.4004 27.8351 42.931 29.525 43.0371C23.7102 40.9424 18.0672 38.6935 12.4873 36.2678Z" fill="#4ECB71"/>
<path d="M59.4933 33.2079C58.4728 35.3355 57.0128 36.9248 54.5626 37.3872C54.8481 37.4024 55.1335 37.4176 55.4139 37.4302C55.4669 37.5464 55.3937 37.5869 55.3204 37.6197C54.8279 37.8522 54.4667 38.2211 54.1635 38.6683C53.7872 39.2242 53.191 39.4188 52.5696 39.5578C52.3069 39.6159 52.0442 39.6891 51.7437 39.7624C52.072 40.0151 51.8927 40.1515 51.6502 40.2779C51.0945 40.5634 50.5211 40.8009 49.9249 40.9904C49.7734 41.0385 49.5461 41.0132 49.6496 41.3417C49.7102 41.5312 49.4374 41.6323 49.2657 41.7081C48.8514 41.8875 48.3967 41.9228 47.9623 42.0264C47.5354 42.1275 47.1337 42.269 46.818 42.5924C46.5907 42.8249 46.3052 42.8982 45.9895 42.9032C45.6864 42.9058 45.3731 42.9234 45.1079 43.0826C44.9841 43.1559 44.7088 43.1786 44.9235 43.4869C45.065 43.6916 44.7972 43.7472 44.6558 43.7371C44.1278 43.6992 43.6201 43.6688 43.1301 43.9645C42.9255 44.0883 42.6653 43.9241 42.4405 43.8457C42.1096 43.732 41.8065 43.7118 41.4958 43.9569C41.175 44.2096 40.7582 44.0883 40.3843 44.1161C39.2931 44.1944 38.2196 43.9114 37.1284 43.9519C36.6181 43.9721 36.1079 43.9544 35.6178 43.9544C35.6456 43.8786 35.782 43.8811 35.8932 43.8407C39.3512 42.5242 42.6173 40.8591 45.5222 38.5319C45.8127 38.2994 46.1208 38.024 46.5502 38.2767C46.6917 38.3601 46.7852 38.2287 46.8938 38.1731C47.1767 38.024 47.4495 37.8522 47.7476 37.741C47.8739 37.693 48.1138 37.4024 48.2022 37.8345C48.2325 37.9861 48.3892 37.832 48.475 37.7966C49.0914 37.5287 49.7001 37.2483 50.3165 36.9779C50.415 36.9349 50.5918 36.8692 50.6221 36.9071C50.9909 37.3594 51.2284 36.9552 51.486 36.7808C52.1301 36.3487 52.8147 36.0076 53.5699 35.8257C54.8986 35.5022 56.101 34.8276 57.417 34.4562C58.1899 34.2338 58.8189 33.6653 59.4933 33.2079ZM54.9895 36.2552C55.0678 36.2527 55.1689 36.2856 55.1714 36.1516C55.2522 36.1542 55.3406 36.1718 55.3785 36.0657C55.477 36.0354 55.5756 36.0051 55.6741 35.9748L55.6816 35.9621L55.669 35.9798C55.5756 36.0101 55.4796 36.043 55.3861 36.0733C55.3179 36.1011 55.2472 36.1289 55.179 36.1567C55.1184 36.1921 55.0577 36.2274 54.9996 36.2628C54.9264 36.278 54.843 36.2729 54.8051 36.3588C54.6207 36.3563 54.4742 36.465 54.3151 36.5357C51.6098 37.7309 48.9095 38.9286 46.2042 40.1212C43.3094 41.3973 40.354 42.5217 37.4087 43.6714C37.386 43.6865 37.3633 43.7042 37.3405 43.7194C37.3607 43.7017 37.381 43.6815 37.4012 43.6638C37.8003 43.5602 38.2069 43.4768 38.5985 43.3479C44.0596 41.5337 49.2985 39.1888 54.4414 36.6191C54.5702 36.5534 54.7571 36.5433 54.8001 36.3513C54.8834 36.3614 54.9718 36.379 54.9895 36.2552Z" fill="#4ECB71"/>
<path d="M14.1296 46.2638C14.6096 46.3801 15.087 46.5216 15.5745 46.6075C15.9357 46.6732 16.0468 46.9688 16.2236 47.2013C19.414 51.4185 23.5591 54.2182 28.6893 55.4917C37.4393 57.6622 46.5555 54.3294 51.8601 47.0421C52.2895 46.4534 52.724 46.0112 53.4691 45.9354C53.7015 45.9126 53.9238 45.8115 54.1486 45.7458C54.237 45.9076 54.1284 45.9859 54.0754 46.0693C50.0565 52.4621 44.3428 56.3129 36.8331 57.2251C29.3663 58.1347 22.9023 55.8303 17.4816 50.62C16.2312 49.4173 15.1627 48.0553 14.2332 46.5898C14.1726 46.4938 14.0362 46.4053 14.1347 46.2563L14.1296 46.2638Z" fill="#4ECB71"/>
<path d="M34.9256 44.3814C36.3679 44.2197 37.7294 44.1868 39.096 44.3612C39.778 44.4471 40.5156 44.5481 41.142 44.3308C41.872 44.0807 42.5338 44.2601 43.231 44.2702C43.8878 44.2803 44.5319 44.3435 45.1962 44.3814C45.1962 44.5785 44.9638 44.5178 44.9663 44.6997C45.7317 44.6416 46.4971 44.586 47.2978 44.5254C47.2422 44.8134 46.9341 44.7654 46.8507 44.9827C47.4367 44.9145 48.0076 44.8311 48.5835 44.7831C49.0104 44.7478 49.4499 44.6947 49.8011 45.0484C49.9375 45.1849 50.1042 45.0889 50.2557 45.0586C50.9226 44.9221 51.5768 44.8918 52.2487 45.0788C53.1278 45.3239 54.0194 45.0863 55.0526 45.0636C54.0144 45.5083 53.0671 45.7736 52.1022 45.9657C50.6321 46.2613 49.1494 46.3295 47.6565 46.2285C47.3029 46.2032 46.9518 46.183 46.7017 46.5292C46.5754 46.706 46.3784 46.6277 46.2117 46.5873C45.7292 46.4685 45.2594 46.4862 44.7996 46.6808C44.4005 46.8501 44.0343 46.7793 43.6478 46.5999C43.2664 46.4205 42.8647 46.1249 42.4656 46.6353C42.352 46.7818 42.0994 46.6934 41.915 46.6302C41.5664 46.5089 41.2203 46.3826 40.8793 46.2461C40.5737 46.1249 40.2807 46.0743 39.9472 46.1678C39.4799 46.2992 39.0732 46.0718 38.6817 45.8494C38.2397 45.5993 37.8229 45.2657 37.2621 45.5513C37.1838 45.5917 37.0348 45.5437 36.9439 45.4932C36.2896 45.1445 35.6404 44.7781 34.9256 44.3814ZM36.3982 44.5178C40.8111 45.5412 45.2644 45.8949 49.7707 45.526C45.2871 45.4805 40.8212 45.2203 36.3982 44.5178Z" fill="#4ECB71"/>
<path d="M33.4656 10.598C33.1624 11.0478 32.7684 11.3687 32.5966 11.8412C32.5512 11.9676 32.3996 11.9145 32.2935 11.9221C28.2772 12.2455 24.612 13.5544 21.308 15.8588C19.7773 16.9277 18.388 18.1582 17.1983 19.5985C16.9179 19.9371 16.8219 19.8486 16.6729 19.5252C16.1904 18.4741 16.0869 18.8405 16.88 18.0041C20.866 13.7944 25.7512 11.3561 31.513 10.7016C32.1369 10.6309 32.7684 10.55 33.4656 10.598Z" fill="#4ECB71"/>
<path d="M35.0899 10.5754C41.8545 11.0504 47.4116 13.7491 51.8245 18.7875C52.0796 19.0781 51.9483 19.2625 51.8169 19.5C51.39 20.2833 51.3976 20.2808 50.8267 19.6289C46.9923 15.2474 42.2031 12.6701 36.4034 12.0056C36.1281 11.9727 35.9286 11.9121 35.8351 11.6114C35.7164 11.2248 35.3324 11.0049 35.0899 10.5754Z" fill="#4ECB71"/>
<path d="M33.8274 44.3712C33.3575 44.7932 32.8751 44.965 32.433 45.2C32.0238 45.4173 31.6045 45.6144 31.1953 45.8317C30.9755 45.9479 30.7684 46.0161 30.5133 45.9075C30.2455 45.7913 29.9803 45.8721 29.7353 46.0187C29.0987 46.3977 28.4799 46.7338 27.664 46.5468C27.2245 46.4457 26.79 46.802 26.3505 46.9384C25.9867 47.0521 25.6356 47.3073 25.2921 46.8272C25.1557 46.6377 24.8172 46.7742 24.6202 46.8904C24.0342 47.2315 23.4532 47.277 22.8394 46.9864C22.6297 46.8879 22.3948 46.9056 22.1751 46.941C21.7557 47.0041 21.3667 47.138 21.0005 46.7186C20.8237 46.5165 20.4498 46.6327 20.1644 46.6504C17.9339 46.7868 15.7591 46.5139 13.6499 45.7635C13.4857 45.7054 13.3266 45.6371 13.1624 45.574C13.1826 45.5361 13.1952 45.4956 13.2053 45.4956C14.2915 45.5916 15.3676 45.6321 16.4461 45.3769C17.0877 45.2227 17.6965 45.5613 18.3356 45.6018C21.3187 45.7938 24.2817 45.6194 27.2422 45.2606C28.7855 45.0737 30.2809 44.6315 31.8268 44.4824C32.4507 44.4243 33.0822 44.4116 33.8274 44.3712Z" fill="#4ECB71"/>
<path d="M15.655 19.5505C15.6652 19.7274 15.6399 19.8866 15.6879 20.0129C16.0415 20.9251 15.65 21.6225 15.1701 22.3881C13.1063 25.6679 12.0252 29.266 11.8812 33.1447C11.8636 33.6576 11.8206 34.168 11.8737 34.6784C11.8863 34.7896 11.904 34.9513 11.7575 34.9412C11.3887 34.9134 11.0401 34.7694 10.7092 34.6102C10.4642 34.4914 10.5829 34.2362 10.5829 34.0442C10.5778 28.8441 12.1439 24.1594 15.2231 19.9775C15.3191 19.8487 15.4201 19.7248 15.5212 19.601C15.5363 19.5808 15.5742 19.5783 15.655 19.5505Z" fill="#4ECB71"/>
<path d="M52.8021 20.0608C53.3957 20.7936 53.863 21.5339 54.2949 22.292C56.2879 25.7941 57.3437 29.5565 57.4119 33.5893C57.4195 34.0971 56.7729 34.6354 56.2702 34.5318C56.0277 34.4812 56.1414 34.269 56.1414 34.1351C56.1389 32.4017 55.957 30.686 55.5629 28.9981C54.9971 26.5622 54.0549 24.2805 52.6985 22.1782C52.5015 21.87 52.4307 21.6047 52.5495 21.2484C52.6682 20.8921 52.7111 20.5055 52.8021 20.0608Z" fill="#4ECB71"/>
<path d="M10.8224 37.0284C11.2746 37.3948 11.9642 37.42 12.1814 38.0669C12.3077 38.4434 12.3885 38.8351 12.482 39.2242C12.967 41.2279 13.7096 43.1256 14.7351 44.9145C14.7958 45.0206 14.8968 45.1141 14.8741 45.2784C14.4472 45.3264 14.0253 45.2405 13.6035 45.2228C13.4267 45.2152 13.356 45.1015 13.2878 44.9701C11.9945 42.5115 11.1457 39.9115 10.782 37.1547C10.7769 37.1295 10.7972 37.1017 10.8224 37.0284Z" fill="#4ECB71"/>
<path d="M57.2706 36.5836C57.0559 38.6758 56.5583 40.6467 55.8055 42.5545C55.5605 43.1786 55.2549 43.7774 54.9998 44.399C54.881 44.6896 54.7067 44.8235 54.391 44.821C54.0424 44.8185 53.6963 44.8564 53.2972 44.8816C53.7418 43.9872 54.1864 43.1432 54.5375 42.2538C55.0907 40.8514 55.5226 39.4162 55.7778 37.9304C55.851 37.5059 56.0051 37.1547 56.4724 37.0006C56.7351 36.9172 56.9751 36.7428 57.2706 36.5836Z" fill="#4ECB71"/>
<path d="M35.2365 45.9228C35.2365 46.0567 35.2365 46.1906 35.2365 46.4332C34.8424 45.7939 34.6783 45.1673 34.4939 44.5204C35.2037 45.0232 36.0322 45.4225 36.5803 46.0618C36.9592 46.5039 37.3861 46.8451 37.8079 47.214C37.9166 47.3075 38.0631 47.3428 37.8963 47.5703C37.7473 47.7749 37.9974 47.9569 38.1793 48.0377C38.5758 48.2121 38.8335 48.4698 38.8916 48.917C38.9067 49.0333 39.0002 49.147 39.076 49.2455C39.2174 49.4249 39.6948 49.483 39.2856 49.8621C39.2705 49.8747 39.3867 50.0364 39.4498 50.1248C39.7706 50.562 40.104 50.9941 40.195 51.55C40.1722 51.5677 40.1495 51.5879 40.1268 51.6106C39.9121 51.3327 39.6822 51.0673 39.4902 50.7768C39.3336 50.5418 39.1644 50.3952 38.8739 50.3093C38.4824 50.1931 38.3813 49.7585 38.1742 49.4451C38.0833 49.3087 38.0883 49.0434 37.7852 49.2354C37.6437 49.3239 37.5377 49.1495 37.4669 49.0232C37.328 48.773 37.2068 48.5102 37.0501 48.2727C36.9415 48.1085 36.9744 47.7118 36.5702 47.9164C36.5475 47.9291 36.4313 47.7598 36.3631 47.6739C35.9362 47.118 35.671 46.4635 35.2895 45.8798C35.2719 45.8546 35.2542 45.8318 35.2365 45.8066C35.191 45.8394 35.2037 45.8798 35.2365 45.9228Z" fill="#4ECB71"/>
<path d="M19.3426 54.1549C19.57 54.1448 19.7544 54.2383 19.9312 54.347C20.2848 54.5643 20.6384 54.7841 20.9921 55.004C21.7297 55.4638 21.8307 55.7948 21.3078 56.4695C21.0401 56.8131 20.886 57.2048 20.6536 57.5586C20.3429 58.0311 19.9918 58.1397 19.5169 57.8693C19.0446 57.6015 18.5823 57.316 18.1352 57.0102C17.7866 56.7702 17.6123 56.4316 17.8371 56.0197C17.9104 55.8858 17.9331 55.5649 18.2034 55.719C18.3651 55.81 18.7844 55.8378 18.509 56.2345C18.3979 56.3937 18.5596 56.4619 18.6606 56.5276C19.0117 56.7525 19.3679 56.9648 19.719 57.1871C19.8731 57.2857 19.9918 57.316 20.113 57.1214C20.2318 56.9319 20.2242 56.8056 20.0246 56.6893C19.7493 56.5276 19.4866 56.3406 19.2062 56.189C18.9738 56.0652 18.9258 55.954 19.0799 55.714C19.2289 55.4815 19.3477 55.4563 19.5674 55.6129C19.8276 55.7974 20.1105 55.9515 20.3783 56.1233C20.5702 56.2471 20.689 56.1916 20.8052 56.0046C20.9264 55.81 20.838 55.7216 20.6814 55.6256C20.3252 55.4108 19.9741 55.1884 19.6205 54.9736C19.5321 54.9206 19.4058 54.8094 19.3275 54.9383C19.0496 55.388 18.7768 55.0191 18.6606 54.8675C18.5116 54.6729 18.7793 54.4834 18.9233 54.3293C19.0344 54.208 19.1784 54.1347 19.3426 54.1549Z" fill="white"/>
<path d="M26.0417 60.7927C25.5061 60.6058 24.814 60.4112 24.1926 60.0524C23.8819 59.873 23.7961 59.5647 23.9249 59.2186C24.1295 58.6677 24.3215 58.1118 24.5463 57.5686C24.713 57.1668 25.0641 57.0354 25.4582 57.1618C26.0341 57.3487 26.6024 57.5686 27.1556 57.8137C27.5648 57.9956 27.6911 58.3392 27.5295 58.7688C27.3324 59.2918 27.1354 59.8149 26.9333 60.3354C26.802 60.6715 26.5595 60.8433 26.0417 60.7927ZM26.0922 60.0954C26.2639 60.1257 26.3094 60.0297 26.3498 59.9185C26.5064 59.5016 26.6605 59.0821 26.8272 58.6677C26.903 58.4807 26.8247 58.4125 26.6656 58.3544C26.2766 58.2104 25.8876 58.0663 25.5061 57.9072C25.2839 57.8137 25.1626 57.8415 25.0818 58.0916C24.9605 58.4706 24.8039 58.8395 24.665 59.211C24.6221 59.3272 24.5261 59.4738 24.6903 59.5445C25.1601 59.7416 25.64 59.9185 26.0922 60.0954Z" fill="white"/>
<path d="M27.3078 51.656C27.3305 51.0698 27.6589 50.6201 27.9873 50.1728C28.1035 50.0136 28.3182 49.8923 28.0706 49.6649C27.9671 49.5714 28.0782 49.4982 28.154 49.4426C28.2298 49.3845 28.346 49.3466 28.3813 49.2707C28.6541 48.6845 28.937 48.1135 29.5685 47.8178C29.6014 47.8027 29.6367 47.7168 29.6216 47.6915C29.3412 47.2038 29.8363 47.1482 30.0434 46.9562C30.93 46.1375 32.0667 45.7635 33.1504 45.2683C32.8599 45.6296 32.5694 45.9935 32.2713 46.3675C32.1678 46.1956 32.3572 46.0314 32.2183 45.8924C32.2385 45.8823 32.2587 45.8697 32.2789 45.8596C32.2688 45.8419 32.2562 45.8242 32.2461 45.8065C32.2334 45.8292 32.2183 45.8545 32.2056 45.8773C31.8621 46.4483 31.5287 47.0269 31.1675 47.5854C31.0866 47.7117 31.0589 48.0453 30.7355 47.8279C30.6623 47.7774 30.6092 47.9391 30.5663 48.0175C30.4198 48.2828 30.296 48.5632 30.1293 48.8159C30.003 49.0054 29.9777 49.4198 29.5635 49.1545C29.513 49.1217 29.4473 49.1773 29.417 49.243C29.1568 49.7938 28.8158 50.2309 28.2348 50.5266C27.9014 50.6984 27.722 51.1633 27.4669 51.4918C27.4215 51.5499 27.3583 51.5954 27.3027 51.6459C27.3002 51.6485 27.3078 51.656 27.3078 51.656Z" fill="#4ECB71"/>
<path d="M44.754 56.4366C45.0571 56.4341 45.2491 56.6009 45.3552 56.851C45.5371 57.2679 45.7392 57.6722 45.9539 58.074C46.1964 58.5237 46.1004 58.8295 45.6507 59.0746C45.09 59.3803 44.5065 59.6381 43.9407 59.9337C43.7512 60.0322 43.6982 59.9539 43.6249 59.8023C43.2839 59.0973 42.9353 58.3999 42.5893 57.6975C42.5362 57.5888 42.4352 57.4827 42.6297 57.3917C43.2637 57.0911 43.8927 56.7777 44.5267 56.477C44.5974 56.4417 44.6858 56.4467 44.754 56.4366ZM45.3906 58.3494C45.3224 58.2003 45.2921 58.0032 45.0319 58.1472C44.6985 58.3292 44.3574 58.4985 44.0089 58.6476C43.8118 58.7309 43.8421 58.8219 43.9154 58.9735C43.9937 59.1352 44.067 59.1883 44.2413 59.0897C44.5595 58.9129 44.8904 58.7562 45.2188 58.597C45.3224 58.5465 45.4184 58.4985 45.3906 58.3494ZM44.9031 57.3791C44.8475 57.2401 44.8222 57.0178 44.5671 57.134C44.1933 57.3058 43.8346 57.5054 43.4633 57.6823C43.3092 57.7556 43.342 57.8415 43.4077 57.9451C43.4658 58.0411 43.4708 58.2205 43.6653 58.122C44.0468 57.9299 44.4307 57.7379 44.8121 57.5459C44.8702 57.5156 44.9132 57.4726 44.9031 57.3791Z" fill="white"/>
<path d="M31.3972 60.5427C30.7708 60.4493 30.5005 60.2269 30.5359 59.7215C30.5637 59.3299 30.6319 58.9862 31.0941 58.8927C31.6044 58.7866 32.0009 59.009 32.2687 59.5901C32.5946 59.1328 32.9861 58.8548 33.5696 59.1126C33.2336 59.4411 32.8977 59.7721 32.4935 60.1663C32.8219 60.2395 33.0619 60.3103 33.2008 60.5326C33.3372 60.7525 33.2841 60.9976 33.2614 61.2326C33.226 61.6116 32.9987 61.796 32.635 61.8339C32.0919 61.8895 31.7938 61.7 31.5741 61.1315C31.2204 61.5333 30.8542 61.8971 30.2555 61.5914C30.594 61.278 30.9426 60.9597 31.3972 60.5427ZM32.5263 61.2048C32.6198 61.1921 32.6729 61.1189 32.6602 60.9875C32.6451 60.8409 32.5415 60.8207 32.4278 60.8232C32.2965 60.8257 32.2864 60.9344 32.2763 61.0228C32.2561 61.1719 32.3672 61.1972 32.5263 61.2048ZM31.5412 59.6912C31.5564 59.5295 31.4478 59.5118 31.3316 59.5194C31.228 59.5244 31.1573 59.575 31.1522 59.6912C31.1446 59.8378 31.2305 59.8833 31.3518 59.8908C31.4957 59.9009 31.5463 59.8226 31.5412 59.6912Z" fill="white"/>
<path d="M49.7129 52.8133C49.9958 52.7906 50.1549 52.8942 50.2863 53.0407C50.6197 53.4071 50.9506 53.776 51.2765 54.15C51.5417 54.4507 51.5417 54.7817 51.2664 55.0521C50.7763 55.5322 50.2509 55.9769 49.7508 56.4469C49.6017 56.5858 49.531 56.4873 49.4451 56.3913C48.9223 55.8076 48.4019 55.2239 47.8816 54.6402C47.7931 54.5416 47.6972 54.4456 47.8411 54.3193C48.3842 53.8493 48.9223 53.3743 49.4729 52.9119C49.5512 52.8436 49.675 52.8285 49.7129 52.8133ZM49.6573 55.6812C49.9882 55.3881 50.3065 55.0975 50.6349 54.8196C50.8092 54.673 50.7991 54.5619 50.6626 54.385C49.8417 53.3263 49.8468 53.3237 48.8616 54.2435C48.8389 54.2662 48.8136 54.2839 48.7884 54.3041C48.6368 54.4204 48.5989 54.5214 48.7581 54.6857C49.0713 54.999 49.3567 55.3426 49.6573 55.6812Z" fill="white"/>
<path d="M36.6735 59.4992C36.6811 59.1555 36.8529 58.9332 37.1661 58.8624C37.7092 58.7386 38.2573 58.6274 38.8105 58.5542C39.1742 58.5061 39.4319 58.7032 39.495 59.0721C39.5152 59.1884 39.692 59.3981 39.4066 59.4486C39.2374 59.479 39.0075 59.6887 38.9191 59.3299C38.8787 59.1682 38.7524 59.1884 38.6135 59.201C37.3126 59.3147 37.2242 59.4461 37.5349 60.7019C37.593 60.942 37.6814 61.0254 37.9138 60.9748C38.2421 60.9066 38.5705 60.846 38.8989 60.7828C39.0252 60.7575 39.1666 60.7424 39.1414 60.5604C39.0858 60.1688 39.4243 60.2724 39.5885 60.2471C39.8259 60.2092 39.7653 60.4594 39.7855 60.5983C39.8411 61.0001 39.6289 61.2477 39.2626 61.3362C38.7675 61.4549 38.2649 61.5535 37.7597 61.6268C37.4136 61.6773 37.1055 61.5611 37.0171 61.1846C36.8832 60.6287 36.7847 60.0627 36.6735 59.4992Z" fill="white"/>
<path d="M26.0525 8.92543C26.0601 9.0922 25.9464 9.10736 25.8378 9.14526C25.5044 9.25896 25.1785 9.3853 24.8451 9.49648C24.6961 9.54702 24.5824 9.56976 24.6607 9.78454C24.7314 9.97657 24.8148 9.97657 24.9739 9.91593C25.4084 9.75422 25.8454 9.60766 26.2824 9.45353C26.4617 9.39036 26.5779 9.36004 26.6764 9.61019C26.7851 9.89319 26.6057 9.90835 26.4516 9.96394C25.8808 10.1711 25.3048 10.3606 24.739 10.5729C24.4915 10.6664 24.3904 10.6184 24.3096 10.3505C24.1353 9.76938 23.9307 9.19832 23.7059 8.63485C23.6023 8.37964 23.6857 8.30131 23.9105 8.2255C24.5016 8.02841 25.0876 7.81869 25.6711 7.60391C25.8504 7.53822 25.949 7.55085 26.0273 7.75299C26.1182 7.98799 26.0247 8.05621 25.8227 8.12191C25.3958 8.25583 24.9765 8.41249 24.5571 8.5641C24.4334 8.60958 24.2591 8.61463 24.3349 8.84204C24.4031 9.04166 24.4965 9.06945 24.6885 8.9886C25.0118 8.85468 25.3604 8.77635 25.6787 8.63737C26.0273 8.48576 25.9616 8.79656 26.0525 8.92543Z" fill="white"/>
<path d="M15.2003 17.0162C15.1978 17.3725 15.021 17.5468 14.8719 17.7313C13.8338 19.0149 13.8893 18.9871 12.6642 17.9561C12.0706 17.4584 12.0479 17.2663 12.5455 16.6624C12.7375 16.4274 12.9345 16.1975 13.129 15.965C13.2351 15.8412 13.3589 15.7376 13.5205 15.7073C13.7226 15.6694 13.955 15.7225 14.0106 15.9069C14.0535 16.0509 13.8893 16.2127 13.7075 16.2733C13.2477 16.4274 13.1088 16.8974 12.8006 17.2006C12.7425 17.2562 12.7678 17.3522 12.8385 17.4129C13.1088 17.6378 13.374 17.8702 13.6544 18.08C13.8843 18.2518 13.9777 18.0067 14.0459 17.8829C14.2076 17.5847 14.685 17.4558 14.5511 17.0111C14.5158 16.8898 14.3592 16.7888 14.2253 16.9808C14.1242 17.1248 14.0005 17.2512 13.8969 17.3927C13.7656 17.5746 13.6519 17.519 13.5079 17.4003C13.3664 17.284 13.3462 17.1956 13.4751 17.0566C13.6292 16.8949 13.7453 16.6928 13.9095 16.5487C14.0611 16.4173 14.1343 16.0333 14.3718 16.1874C14.7128 16.4098 15.1321 16.6195 15.2003 17.0162Z" fill="white"/>
<path d="M30.8433 7.25001C30.8105 6.47176 30.8105 6.47428 31.6036 6.43133C32.0356 6.40606 32.465 6.37574 32.8969 6.34542C33.0864 6.33278 33.2657 6.27214 33.2809 6.59304C33.2935 6.8912 33.1116 6.84572 32.95 6.85836C32.5206 6.8912 32.0886 6.91394 31.6567 6.94174C31.4849 6.95185 31.3359 6.97459 31.3586 7.21211C31.3788 7.42941 31.5203 7.41425 31.6668 7.40162C32.0002 7.37635 32.3362 7.35108 32.6696 7.32581C32.8287 7.31318 32.9727 7.27022 32.9879 7.53554C33.0005 7.77306 32.9146 7.85897 32.705 7.86907C32.4018 7.88423 32.0962 7.88171 31.7931 7.91456C31.6466 7.92972 31.4268 7.85391 31.4293 8.15713C31.4319 8.47803 31.6516 8.36938 31.7956 8.36433C32.2276 8.34664 32.657 8.30874 33.0889 8.27589C33.2632 8.26325 33.4047 8.26578 33.4047 8.50835C33.4047 8.70544 33.3567 8.79388 33.1394 8.80399C32.5004 8.83431 31.8613 8.87726 31.2273 8.94043C31.01 8.96065 30.9494 8.89495 30.9418 8.69281C30.9166 8.20766 30.8762 7.7301 30.8433 7.25001Z" fill="white"/>
<path d="M18.1838 12.5588C18.3985 12.8772 18.6056 13.2006 18.8279 13.5089C18.9416 13.6655 18.9643 13.759 18.7774 13.8904C18.6081 14.0067 18.5223 14.0142 18.4035 13.8374C18.0448 13.3067 17.6811 12.7786 17.3047 12.2632C17.1658 12.0737 17.1885 11.9726 17.3805 11.8462C17.7821 11.5835 18.1711 11.303 18.5652 11.0301C18.8506 10.8305 19.1538 10.7269 19.4266 11.02C19.7044 11.3181 19.9646 11.6466 19.6059 12.0686C19.5756 12.1015 19.5604 12.1469 19.52 12.2227C19.8939 12.3289 20.2551 12.4299 20.6239 12.5361C20.3536 12.8873 20.0555 12.9606 19.6463 12.8165C19.2118 12.6624 18.7496 12.5866 18.3 12.4754C18.4919 12.1621 18.8481 12.0509 19.1083 11.8235C19.2017 11.7426 19.2573 11.6719 19.1689 11.543C19.0805 11.4167 18.9921 11.3662 18.8557 11.4622C18.6587 11.5986 18.4743 11.7578 18.2621 11.8665C17.8756 12.0686 17.8478 12.2859 18.1838 12.5588Z" fill="white"/>
<path d="M38.5381 7.528C38.4244 8.0839 38.3335 8.48566 38.2653 8.88995C38.2299 9.09714 38.1541 9.16031 37.9445 9.09967C37.7651 9.04661 37.6843 9.0087 37.7398 8.78129C37.8813 8.20771 37.9697 7.62402 38.1036 7.04791C38.1339 6.91399 38.0682 6.66889 38.2754 6.65879C38.48 6.64868 38.7073 6.679 38.8311 6.93421C39.0609 7.40672 39.3262 7.86154 39.5788 8.32394C39.6141 8.38711 39.6242 8.48313 39.7758 8.48566C39.849 8.13191 39.9147 7.76552 40.0082 7.40672C40.0461 7.26016 39.9501 6.98474 40.3037 7.05297C40.6094 7.11108 40.5791 7.26016 40.526 7.4901C40.3997 8.03336 40.3012 8.5842 40.1825 9.12999C40.1522 9.27149 40.2077 9.4989 39.9854 9.50143C39.7909 9.50396 39.5838 9.47616 39.4651 9.24117C39.1948 8.70549 38.8942 8.17992 38.5381 7.528Z" fill="white"/>
<path d="M50.099 14.4489C49.8919 14.4565 49.7328 14.3529 49.5787 14.2366C49.2857 14.0118 48.9901 13.7919 48.7072 13.5569C48.4193 13.3194 48.3536 13.0238 48.5809 12.7105C48.836 12.3618 49.1063 12.0232 49.3791 11.6871C49.5913 11.4268 49.8616 11.3612 50.142 11.5608C50.5183 11.8311 50.8846 12.1167 51.2433 12.4123C51.4631 12.5942 51.5489 12.857 51.3848 13.0971C51.0968 13.519 50.7684 13.9132 50.4476 14.3124C50.3643 14.4186 50.2354 14.4539 50.099 14.4489ZM49.8641 12.0282C49.7454 12.0232 49.7075 12.1217 49.6494 12.195C49.5105 12.3693 49.3943 12.5639 49.2377 12.718C48.9623 12.9935 49.028 13.1602 49.3261 13.3801C50.094 13.9461 50.0864 13.9612 50.6775 13.1754C50.7583 13.0693 50.8998 12.9834 50.8695 12.8166C50.8593 12.7484 49.9348 12.0282 49.8641 12.0282Z" fill="white"/>
<path d="M20.7024 44.9399C21.4601 44.998 22.2179 45.0536 22.9757 45.1117C23.0161 44.9424 22.804 44.9879 22.804 44.8211C23.4001 44.7024 24.0265 44.6847 24.653 44.6897C24.749 44.6897 24.8601 44.7428 24.9384 44.7074C26.0852 44.2021 27.1714 45.1471 27.7801 44.9399C26.0549 45.1546 23.7967 45.3517 21.5233 45.4099C21.1747 45.42 20.9398 45.2001 20.667 45.0561C20.6821 45.0207 20.6923 44.9803 20.7024 44.9399Z" fill="#4ECB71"/>
<path d="M57.384 23.5732C57.3537 23.7172 57.2022 23.7121 57.1062 23.7778C57.0102 23.841 56.9445 23.8511 56.8839 23.7248C56.5732 23.0779 56.2575 22.4336 55.9367 21.7918C55.8407 21.5997 55.9897 21.582 56.0983 21.529C56.6843 21.2409 57.2754 20.963 57.8589 20.6648C58.0282 20.5789 58.0989 20.6016 58.1848 20.7709C58.2732 20.9453 58.2909 21.0514 58.0888 21.1424C57.725 21.3066 57.379 21.5138 57.0077 21.6503C56.5934 21.8044 56.5732 22.0065 56.7879 22.3552C56.9799 22.666 57.1163 23.0097 57.278 23.3407C57.3133 23.414 57.3436 23.4872 57.384 23.5732Z" fill="white"/>
<path d="M55.3333 16.5588C55.2499 16.6346 55.1817 16.6978 55.111 16.7559C54.6311 17.1475 54.1461 17.5316 53.6712 17.9308C53.5272 18.0521 53.4388 18.0951 53.2923 17.9207C53.1357 17.7363 53.1736 17.6428 53.3453 17.5063C53.8455 17.1147 54.333 16.7053 54.8306 16.3112C54.9013 16.2556 54.9721 16.0964 55.0984 16.2404C55.1792 16.3339 55.2474 16.44 55.3333 16.5588Z" fill="white"/>
<path d="M21.0175 45.4503C20.8104 45.4755 20.7371 45.4932 20.6639 45.4932C19.8505 45.4958 19.0371 45.4932 18.2162 45.4932C18.4587 45.0814 19.9035 45.0359 21.0175 45.4503Z" fill="#4ECB71"/>
<path d="M40.1973 51.5448C40.2529 51.5801 40.2933 51.6509 40.2428 51.6888C40.1797 51.7343 40.167 51.6383 40.1292 51.6054C40.1519 51.5827 40.1746 51.5625 40.1973 51.5448Z" fill="#4ECB71"/>
<path d="M8.49405 33.7107C8.48648 33.6728 8.48142 33.6349 8.47385 33.5945C8.50668 33.6097 8.53952 33.6248 8.57236 33.64C8.5471 33.6652 8.51931 33.688 8.49405 33.7107Z" fill="#4ECB71"/>
<path d="M14.1364 46.257C14.118 46.2544 14.0996 46.2517 14.0786 46.2491C14.0865 46.2465 14.097 46.236 14.0996 46.2386C14.1101 46.2465 14.1206 46.257 14.1285 46.2649C14.1311 46.2649 14.1364 46.257 14.1364 46.257Z" fill="#4ECB71"/>
<path d="M27.2993 51.6484C27.2842 51.671 27.2691 51.6936 27.2541 51.7163C27.2315 51.661 27.2365 51.6308 27.3068 51.6559C27.3068 51.6559 27.2993 51.6484 27.2993 51.6484Z" fill="#4ECB71"/>
<path d="M17.6785 23.9724C18.6081 25.2105 19.5377 26.4487 20.4697 27.6868C24.2865 32.7455 28.2422 37.6929 32.4353 42.4484C32.4883 42.5065 32.5313 42.5747 32.5767 42.6379L32.5868 42.6328C32.3999 42.7036 32.3443 42.5292 32.261 42.4408C26.9539 36.801 22.1722 30.7442 17.8175 24.3439C17.7467 24.2403 17.7063 24.119 17.6508 24.0053L17.6785 23.9724Z" fill="#1F2120"/>
<path d="M17.7588 23.8815C17.5744 23.7577 17.4835 23.5682 17.3976 23.3736L17.39 23.3787C17.635 23.4419 17.6931 23.6592 17.7841 23.8487C17.7866 23.8512 17.7588 23.8815 17.7588 23.8815Z" fill="#1F2120"/>
<path d="M17.2058 23.083C17.13 22.9718 17.0543 22.8581 16.9785 22.7469C16.9911 22.7393 17.0012 22.7318 17.0138 22.7267C17.077 22.848 17.1376 22.9693 17.2008 23.0931C17.1982 23.0906 17.2058 23.083 17.2058 23.083Z" fill="#1F2120"/>
<path d="M17.3983 23.3736C17.2922 23.3054 17.2468 23.1967 17.2063 23.083L17.1988 23.0906C17.3503 23.1285 17.4261 23.217 17.3907 23.3787C17.3907 23.3787 17.3983 23.3736 17.3983 23.3736Z" fill="#1F2120"/>
<path d="M32.9708 42.9032C33.0087 42.9159 33.044 42.9285 33.0819 42.9411C33.0718 42.9588 33.0617 42.974 33.0516 42.9917C33.0263 42.9614 33.0036 42.9285 32.9783 42.8982C32.9783 42.8957 32.9708 42.9032 32.9708 42.9032Z" fill="#1F2120"/>
<path d="M32.7733 42.7112C32.9325 42.6809 32.9577 42.7845 32.9703 42.9032L32.9779 42.8982C32.8744 42.8729 32.8188 42.7996 32.7834 42.7061C32.7834 42.7036 32.7733 42.7112 32.7733 42.7112Z" fill="#1F2120"/>
<path d="M32.6853 42.514C32.756 42.562 32.8394 42.6025 32.7737 42.7111L32.7838 42.7061C32.7131 42.6581 32.6146 42.6252 32.6954 42.509C32.6954 42.5064 32.6853 42.514 32.6853 42.514Z" fill="#1F2120"/>
<path d="M23.7412 37.8016C23.7614 37.8142 23.7841 37.8268 23.8043 37.8395C23.7488 37.8723 23.7361 37.8496 23.7488 37.7965C23.7513 37.794 23.7412 37.8016 23.7412 37.8016Z" fill="#1F2120"/>
<path d="M49.7122 23.9572C48.9191 25.3116 48.0097 26.5901 47.1231 27.8839C44.5693 31.6134 41.9019 35.2571 39.0223 38.7415C37.9715 40.0125 36.8954 41.2582 35.7613 42.4559C35.6375 42.3574 35.7284 42.3018 35.7688 42.2538C40.3257 36.9475 44.39 31.2698 48.4416 25.5794C48.8407 25.0185 49.2449 24.4626 49.6465 23.9042C49.6693 23.9218 49.692 23.9395 49.7122 23.9572Z" fill="#1F2120"/>
<path d="M50.4802 22.8025C50.2276 23.1891 50.0331 23.6136 49.7149 23.9547C49.6921 23.937 49.6719 23.9193 49.6492 23.8991C49.9094 23.5201 50.1367 23.1158 50.4853 22.8075L50.4802 22.8025Z" fill="#1F2120"/>
<path d="M35.0945 43.0926C35.1375 42.9435 35.2132 42.8273 35.3825 42.8045L35.3774 42.7995C35.3244 42.941 35.2587 43.0648 35.0869 43.085L35.0945 43.0926Z" fill="#1F2120"/>
<path d="M35.0876 43.0851C35.0775 43.209 35.027 43.2873 34.888 43.2696L34.8956 43.2772C34.9461 43.1989 34.9941 43.1155 35.0977 43.0927C35.0952 43.0927 35.0876 43.0851 35.0876 43.0851Z" fill="#1F2120"/>
<path d="M50.4859 22.81C50.4909 22.7823 50.496 22.757 50.501 22.7292C50.4985 22.7418 50.4985 22.7545 50.496 22.7646C50.4909 22.7772 50.4859 22.7898 50.4808 22.8025C50.4808 22.8025 50.4859 22.81 50.4859 22.81Z" fill="#1F2120"/>
<path d="M44.8001 37.799C44.7874 37.8521 44.7546 37.8748 44.7015 37.8571C44.694 37.8546 44.6889 37.8217 44.694 37.8167C44.7268 37.7889 44.7622 37.7535 44.8076 37.8041C44.8076 37.8041 44.8001 37.799 44.8001 37.799Z" fill="#1F2120"/>
<path d="M44.9467 37.7662C44.8987 37.7763 44.8507 37.7865 44.8027 37.7966L44.8103 37.8016C44.7547 37.7157 44.833 37.7056 44.881 37.6803C44.9012 37.7106 44.924 37.7384 44.9467 37.7662Z" fill="#1F2120"/>
<path d="M35.5447 42.5773C35.5624 42.5393 35.5902 42.4787 35.6331 42.5267C35.6736 42.5697 35.6256 42.6025 35.5776 42.6152C35.5649 42.6025 35.5548 42.5899 35.5447 42.5773Z" fill="#1F2120"/>
<path d="M35.4742 42.7036C35.4465 42.6329 35.4869 42.6 35.545 42.5773C35.5551 42.5899 35.5652 42.6026 35.5778 42.6152C35.5702 42.6758 35.5374 42.7062 35.4742 42.7036Z" fill="#1F2120"/>
<path d="M35.4769 42.7061C35.4744 42.7693 35.4441 42.8021 35.3784 42.7996L35.3834 42.8046C35.3708 42.7288 35.3961 42.6935 35.4769 42.7061C35.4769 42.7061 35.4744 42.7036 35.4769 42.7061Z" fill="#1F2120"/>
<path d="M12.4872 36.2678C18.0671 38.6935 23.7076 40.9424 29.5249 43.0371C27.835 42.931 16.4201 38.4004 12.4872 36.2678Z" fill="#1F2120"/>
<path d="M54.7955 36.3512C54.7525 36.5432 54.5656 36.5558 54.4368 36.619C49.2939 39.1888 44.0575 41.5336 38.5939 43.3479C38.2023 43.4767 37.7956 43.5601 37.3965 43.6637L37.4041 43.6713C40.3494 42.5216 43.3048 41.3972 46.1996 40.1211C48.9049 38.9285 51.6077 37.7283 54.3105 36.5356C54.4696 36.4649 54.6161 36.3587 54.8005 36.3587C54.803 36.3587 54.7955 36.3512 54.7955 36.3512Z" fill="#1F2120"/>
<path d="M55.3865 36.0707C55.48 36.0404 55.576 36.0075 55.6695 35.9772L55.6745 35.9747C55.576 36.005 55.4775 36.0353 55.379 36.0656C55.379 36.0631 55.3865 36.0707 55.3865 36.0707Z" fill="#1F2120"/>
<path d="M37.3982 43.6636C37.3781 43.6812 37.358 43.7013 37.338 43.7189C37.3606 43.7038 37.3832 43.6863 37.4058 43.6712L37.3982 43.6636Z" fill="#1F2120"/>
<path d="M55.1717 36.149C55.1692 36.2854 55.0707 36.2525 54.9924 36.2551L54.9999 36.2627C55.0606 36.2273 55.1212 36.1919 55.1793 36.1565L55.1717 36.149Z" fill="#1F2120"/>
<path d="M55.1769 36.1566C55.2451 36.1288 55.3159 36.1011 55.3841 36.0733L55.3765 36.0657C55.3411 36.1718 55.2502 36.1541 55.1693 36.1516C55.1719 36.1491 55.1769 36.1566 55.1769 36.1566Z" fill="#1F2120"/>
<path d="M54.9898 36.2552C54.9721 36.379 54.8837 36.3638 54.7953 36.3512L54.8004 36.3588C54.8383 36.2729 54.9216 36.2779 54.9949 36.2628C54.9974 36.2628 54.9898 36.2552 54.9898 36.2552Z" fill="#1F2120"/>
<path d="M55.6696 35.9785L55.6831 35.9595L55.675 35.9758L55.6696 35.9785Z" fill="#1F2120"/>
<path d="M36.3986 44.5179C40.8215 45.2178 45.2875 45.4806 49.7711 45.5261C45.2647 45.8975 40.8114 45.5438 36.3986 44.5179Z" fill="#1F2120"/>
<path d="M35.2366 45.9226C35.2012 45.8797 35.1911 45.8393 35.2366 45.7963C35.2543 45.8216 35.272 45.8443 35.2897 45.8696C35.2745 45.8873 35.2568 45.9049 35.2366 45.9226Z" fill="#1F2120"/>
<path d="M26.0922 60.0955C25.6401 59.9186 25.1601 59.7417 24.6928 59.5421C24.5261 59.4714 24.6221 59.3248 24.6676 59.2086C24.809 58.8346 24.9656 58.4682 25.0844 58.0892C25.1652 57.8391 25.2864 57.8113 25.5087 57.9048C25.8901 58.064 26.2791 58.2105 26.6681 58.352C26.8273 58.4101 26.9081 58.4783 26.8298 58.6653C26.6606 59.0772 26.509 59.4992 26.3524 59.9161C26.3094 60.0273 26.264 60.1258 26.0922 60.0955Z" fill="#1F2120"/>
<path d="M32.2054 45.8772C32.218 45.8545 32.2332 45.8292 32.2458 45.8065C32.2559 45.8241 32.2685 45.8418 32.2786 45.8595C32.2584 45.8696 32.2382 45.8797 32.218 45.8924L32.2054 45.8772Z" fill="#1F2120"/>
<path d="M45.3906 58.3494C45.4184 58.4985 45.3224 58.5465 45.2163 58.5996C44.888 58.7588 44.5571 58.9154 44.2388 59.0923C44.0645 59.1883 43.9912 59.1378 43.9129 58.9761C43.8397 58.8245 43.8094 58.7335 44.0064 58.6501C44.355 58.501 44.696 58.3318 45.0294 58.1498C45.2946 58.0033 45.3224 58.1978 45.3906 58.3494Z" fill="#1F2120"/>
<path d="M44.9036 57.3791C44.9137 57.4726 44.8707 57.5156 44.8126 57.5459C44.4312 57.7379 44.0473 57.9275 43.6658 58.122C43.4713 58.2206 43.4688 58.0412 43.4082 57.9451C43.345 57.8415 43.3122 57.7556 43.4638 57.6824C43.8351 57.508 44.1963 57.3059 44.5676 57.134C44.8227 57.0178 44.848 57.2402 44.9036 57.3791Z" fill="#1F2120"/>
<path d="M32.5261 61.2047C32.367 61.1971 32.2558 61.1718 32.276 61.0202C32.2861 60.9318 32.2962 60.8231 32.4276 60.8206C32.5438 60.8181 32.6473 60.8408 32.66 60.9848C32.6726 61.1188 32.6196 61.1921 32.5261 61.2047Z" fill="#1F2120"/>
<path d="M31.5409 59.6913C31.546 59.8226 31.4929 59.901 31.3515 59.8909C31.2277 59.8808 31.1418 59.8353 31.1519 59.6913C31.1595 59.575 31.2277 59.5245 31.3313 59.5194C31.4475 59.5119 31.5561 59.5295 31.5409 59.6913Z" fill="#1F2120"/>
<path d="M49.6573 55.6811C49.3541 55.3425 49.0687 55.0014 48.758 54.683C48.5989 54.5188 48.6368 54.4177 48.7883 54.3015C48.8136 54.2813 48.8388 54.2611 48.8616 54.2409C49.8467 53.3211 49.8417 53.3236 50.6626 54.3824C50.799 54.5592 50.8066 54.6729 50.6348 54.817C50.3064 55.0949 49.9907 55.3855 49.6573 55.6811Z" fill="#1F2120"/>
<path d="M18.183 12.5587C17.8495 12.2858 17.8773 12.0685 18.2663 11.8664C18.4785 11.7577 18.6629 11.5985 18.8599 11.4621C18.9963 11.3661 19.0847 11.4166 19.1731 11.543C19.2616 11.6718 19.206 11.74 19.1125 11.8234C18.8523 12.0508 18.4962 12.1595 18.3042 12.4753C18.2613 12.5031 18.2208 12.5309 18.183 12.5587Z" fill="#1F2120"/>
<path d="M49.8647 12.0283C49.9329 12.0283 50.8575 12.7484 50.8701 12.8167C50.9004 12.9834 50.7589 13.0668 50.6781 13.1755C50.087 13.9613 50.0946 13.9461 49.3267 13.3801C49.0286 13.1603 48.963 12.9935 49.2383 12.7181C49.3949 12.5614 49.5136 12.3694 49.65 12.1951C49.7081 12.1218 49.7485 12.0232 49.8647 12.0283Z" fill="#1F2120"/>
</svg>
