<svg width="112" height="24" viewBox="0 0 112 24" fill="none" xmlns="http://www.w3.org/2000/svg">
<mask id="path-1-outside-1_464_8699" maskUnits="userSpaceOnUse" x="44" y="0" width="24" height="24" fill="black">
<rect fill="white" x="44" width="24" height="24"/>
<path fill-rule="evenodd" clip-rule="evenodd" d="M55.8159 1.14922C55.0609 2.00959 54.2763 3.8535 53.9192 5.60665C53.7025 6.67088 53.6111 7.534 53.5778 8.83226L53.5497 9.92675L53.1426 9.43823C52.0805 8.16386 50.6891 6.97139 49.256 6.10719C48.2827 5.52033 46.7674 4.84724 46.7361 4.9879C46.7107 5.10246 46.8604 6.16686 46.9929 6.81213C47.2197 7.91751 47.6079 9.16351 48.0511 10.2087C48.4192 11.0769 49.1105 12.377 49.5381 13.0055C49.6441 13.1613 49.652 13.1889 49.5852 13.1688C49.5409 13.1554 49.311 13.1061 49.0744 13.0591C47.8143 12.809 46.4509 12.8261 45.4382 13.1047C44.9349 13.2432 44.9446 13.2327 45.0777 13.4976C45.3882 14.1154 46.0297 14.9466 46.6316 15.5111C47.5089 16.3337 48.5162 16.9398 49.8469 17.4455L49.974 17.4938L49.7006 17.6667C49.1625 18.0071 48.7187 18.3789 47.9663 19.1197C47.5462 19.5333 47.2025 19.885 47.2025 19.9012C47.2025 19.9386 47.7327 20.0967 48.1277 20.1772C48.6292 20.2794 49.4874 20.3341 50.6881 20.3405C51.6046 20.3453 51.9171 20.3314 52.2802 20.2698C53.2277 20.1091 54.6496 19.6228 55.2923 19.2399C55.5674 19.0759 55.5934 19.0858 55.594 19.3548C55.5943 19.5678 55.7104 20.2863 55.8337 20.8393C56.0317 21.7271 56.433 22.8108 56.614 22.9462C56.6536 22.9758 56.7874 23 56.9113 23C57.1034 23 57.1497 22.9833 57.2258 22.8866C57.3475 22.7317 57.3378 22.5458 57.1909 22.2202C56.8637 21.4951 56.6493 20.6173 56.4749 19.2886L56.4539 19.1291L56.8952 19.3554C57.5661 19.6994 58.5824 20.049 59.4142 20.2219C60.3666 20.4199 62.8892 20.3839 63.9315 20.1574C64.2631 20.0854 64.7595 19.9329 64.7595 19.9031C64.7595 19.8616 63.3077 18.4367 63.057 18.2322C62.9372 18.1344 62.6495 17.9276 62.4177 17.7725L61.9963 17.4906L62.1192 17.4439C63.4642 16.9327 64.4133 16.3592 65.3454 15.4942C65.912 14.9685 66.5713 14.1166 66.8703 13.5239L67 13.2669L66.849 13.2037C66.6283 13.1115 66.0428 12.9831 65.5986 12.9295C64.663 12.8167 63.3127 12.9175 62.4008 13.1681C62.3129 13.1922 62.3285 13.153 62.5326 12.8345C63.8835 10.7266 64.855 8.07319 65.1677 5.63675C65.2035 5.35729 65.2329 5.08162 65.2329 5.02415V4.91966L64.9318 5.02833C62.7627 5.81115 60.4543 7.47657 58.8197 9.43793L58.4123 9.92675L58.3845 8.85378C58.3692 8.26366 58.3245 7.4999 58.285 7.15656C58.0257 4.90033 57.3775 2.92377 56.4456 1.54746C56.2508 1.25978 56.0303 1 55.981 1C55.9622 1 55.8879 1.06716 55.8159 1.14922ZM56.1232 2.71135C56.693 3.98205 57.1498 5.642 57.3553 7.18786C57.6044 9.06186 57.5637 10.8786 57.2268 12.9256C57.1547 13.3637 57.0865 13.7609 57.0751 13.8082C57.0638 13.8556 57.1473 13.7103 57.2608 13.4853C57.7956 12.425 58.49 11.3709 59.3313 10.3425C60.4835 8.93382 62.2874 7.44032 64.0817 6.40933C64.3337 6.2645 64.3335 6.26256 64.1565 6.94129C63.8468 8.12882 63.3134 9.5357 62.7337 10.6934C62.009 12.141 61.2176 13.2686 60.0891 14.4613L59.5527 15.0284L59.9292 14.8603C61.2746 14.2599 62.4031 13.9458 63.6407 13.8274C64.1648 13.7772 65.0423 13.7977 65.2977 13.866L65.4163 13.8978L65.1875 14.1759C64.3327 15.2154 63.0506 16.1255 61.6469 16.6893C61.0953 16.9108 60.4806 17.0932 59.7463 17.2531C59.3913 17.3305 59.1298 17.4044 59.1653 17.4174C59.2008 17.4304 59.3461 17.464 59.4881 17.4919C60.3989 17.6713 61.8199 18.3886 62.7675 19.1473C62.9473 19.2912 63.0205 19.3755 62.9913 19.4047C62.9222 19.4739 60.1092 19.4618 59.7893 19.391C58.5773 19.1225 57.1174 18.5228 56.3006 17.9578L55.981 17.7368L55.669 17.9504C54.8473 18.513 53.5397 19.0666 52.3663 19.3485C51.9828 19.4407 51.8677 19.4468 50.5073 19.4475C49.4807 19.4479 49.0429 19.4338 49.0082 19.3992C48.9717 19.3626 49.0338 19.2904 49.2535 19.1137C50.1408 18.4004 51.3965 17.7539 52.3559 17.5164C52.4918 17.4827 52.6611 17.441 52.7321 17.4237C52.8392 17.3976 52.7659 17.3717 52.3018 17.2715C50.4977 16.8822 49.2281 16.317 47.9897 15.3518C47.5785 15.0313 46.8985 14.3606 46.6962 14.076L46.5556 13.8783L46.7607 13.8433C46.8735 13.824 47.3047 13.8106 47.7188 13.8135C49.0979 13.8231 50.2583 14.0979 51.9145 14.8072C52.1038 14.8883 52.2878 14.9669 52.3233 14.9819C52.3588 14.9969 52.1614 14.768 51.8847 14.4733C51.2534 13.8008 50.9021 13.3777 50.4707 12.7708C49.5141 11.4247 48.6693 9.6987 48.0917 7.90998C47.8956 7.30263 47.6758 6.48627 47.6758 6.36524C47.6758 6.28284 48.0757 6.5031 48.8592 7.01702C50.3351 7.98515 51.6892 9.18783 52.7002 10.4286C53.4472 11.3453 54.0734 12.2841 54.5523 13.2055C54.7493 13.5843 54.898 13.8364 54.8828 13.7656C54.7893 13.3282 54.6001 12.0632 54.5352 11.4403C54.4425 10.5514 54.4309 8.82175 54.512 7.97456C54.6731 6.2924 55.1187 4.42438 55.6761 3.09465C55.9009 2.55838 55.9468 2.4638 55.982 2.4638C55.9987 2.4638 56.0622 2.57522 56.1232 2.71135Z"/>
</mask>
<path fill-rule="evenodd" clip-rule="evenodd" d="M55.8159 1.14922C55.0609 2.00959 54.2763 3.8535 53.9192 5.60665C53.7025 6.67088 53.6111 7.534 53.5778 8.83226L53.5497 9.92675L53.1426 9.43823C52.0805 8.16386 50.6891 6.97139 49.256 6.10719C48.2827 5.52033 46.7674 4.84724 46.7361 4.9879C46.7107 5.10246 46.8604 6.16686 46.9929 6.81213C47.2197 7.91751 47.6079 9.16351 48.0511 10.2087C48.4192 11.0769 49.1105 12.377 49.5381 13.0055C49.6441 13.1613 49.652 13.1889 49.5852 13.1688C49.5409 13.1554 49.311 13.1061 49.0744 13.0591C47.8143 12.809 46.4509 12.8261 45.4382 13.1047C44.9349 13.2432 44.9446 13.2327 45.0777 13.4976C45.3882 14.1154 46.0297 14.9466 46.6316 15.5111C47.5089 16.3337 48.5162 16.9398 49.8469 17.4455L49.974 17.4938L49.7006 17.6667C49.1625 18.0071 48.7187 18.3789 47.9663 19.1197C47.5462 19.5333 47.2025 19.885 47.2025 19.9012C47.2025 19.9386 47.7327 20.0967 48.1277 20.1772C48.6292 20.2794 49.4874 20.3341 50.6881 20.3405C51.6046 20.3453 51.9171 20.3314 52.2802 20.2698C53.2277 20.1091 54.6496 19.6228 55.2923 19.2399C55.5674 19.0759 55.5934 19.0858 55.594 19.3548C55.5943 19.5678 55.7104 20.2863 55.8337 20.8393C56.0317 21.7271 56.433 22.8108 56.614 22.9462C56.6536 22.9758 56.7874 23 56.9113 23C57.1034 23 57.1497 22.9833 57.2258 22.8866C57.3475 22.7317 57.3378 22.5458 57.1909 22.2202C56.8637 21.4951 56.6493 20.6173 56.4749 19.2886L56.4539 19.1291L56.8952 19.3554C57.5661 19.6994 58.5824 20.049 59.4142 20.2219C60.3666 20.4199 62.8892 20.3839 63.9315 20.1574C64.2631 20.0854 64.7595 19.9329 64.7595 19.9031C64.7595 19.8616 63.3077 18.4367 63.057 18.2322C62.9372 18.1344 62.6495 17.9276 62.4177 17.7725L61.9963 17.4906L62.1192 17.4439C63.4642 16.9327 64.4133 16.3592 65.3454 15.4942C65.912 14.9685 66.5713 14.1166 66.8703 13.5239L67 13.2669L66.849 13.2037C66.6283 13.1115 66.0428 12.9831 65.5986 12.9295C64.663 12.8167 63.3127 12.9175 62.4008 13.1681C62.3129 13.1922 62.3285 13.153 62.5326 12.8345C63.8835 10.7266 64.855 8.07319 65.1677 5.63675C65.2035 5.35729 65.2329 5.08162 65.2329 5.02415V4.91966L64.9318 5.02833C62.7627 5.81115 60.4543 7.47657 58.8197 9.43793L58.4123 9.92675L58.3845 8.85378C58.3692 8.26366 58.3245 7.4999 58.285 7.15656C58.0257 4.90033 57.3775 2.92377 56.4456 1.54746C56.2508 1.25978 56.0303 1 55.981 1C55.9622 1 55.8879 1.06716 55.8159 1.14922ZM56.1232 2.71135C56.693 3.98205 57.1498 5.642 57.3553 7.18786C57.6044 9.06186 57.5637 10.8786 57.2268 12.9256C57.1547 13.3637 57.0865 13.7609 57.0751 13.8082C57.0638 13.8556 57.1473 13.7103 57.2608 13.4853C57.7956 12.425 58.49 11.3709 59.3313 10.3425C60.4835 8.93382 62.2874 7.44032 64.0817 6.40933C64.3337 6.2645 64.3335 6.26256 64.1565 6.94129C63.8468 8.12882 63.3134 9.5357 62.7337 10.6934C62.009 12.141 61.2176 13.2686 60.0891 14.4613L59.5527 15.0284L59.9292 14.8603C61.2746 14.2599 62.4031 13.9458 63.6407 13.8274C64.1648 13.7772 65.0423 13.7977 65.2977 13.866L65.4163 13.8978L65.1875 14.1759C64.3327 15.2154 63.0506 16.1255 61.6469 16.6893C61.0953 16.9108 60.4806 17.0932 59.7463 17.2531C59.3913 17.3305 59.1298 17.4044 59.1653 17.4174C59.2008 17.4304 59.3461 17.464 59.4881 17.4919C60.3989 17.6713 61.8199 18.3886 62.7675 19.1473C62.9473 19.2912 63.0205 19.3755 62.9913 19.4047C62.9222 19.4739 60.1092 19.4618 59.7893 19.391C58.5773 19.1225 57.1174 18.5228 56.3006 17.9578L55.981 17.7368L55.669 17.9504C54.8473 18.513 53.5397 19.0666 52.3663 19.3485C51.9828 19.4407 51.8677 19.4468 50.5073 19.4475C49.4807 19.4479 49.0429 19.4338 49.0082 19.3992C48.9717 19.3626 49.0338 19.2904 49.2535 19.1137C50.1408 18.4004 51.3965 17.7539 52.3559 17.5164C52.4918 17.4827 52.6611 17.441 52.7321 17.4237C52.8392 17.3976 52.7659 17.3717 52.3018 17.2715C50.4977 16.8822 49.2281 16.317 47.9897 15.3518C47.5785 15.0313 46.8985 14.3606 46.6962 14.076L46.5556 13.8783L46.7607 13.8433C46.8735 13.824 47.3047 13.8106 47.7188 13.8135C49.0979 13.8231 50.2583 14.0979 51.9145 14.8072C52.1038 14.8883 52.2878 14.9669 52.3233 14.9819C52.3588 14.9969 52.1614 14.768 51.8847 14.4733C51.2534 13.8008 50.9021 13.3777 50.4707 12.7708C49.5141 11.4247 48.6693 9.6987 48.0917 7.90998C47.8956 7.30263 47.6758 6.48627 47.6758 6.36524C47.6758 6.28284 48.0757 6.5031 48.8592 7.01702C50.3351 7.98515 51.6892 9.18783 52.7002 10.4286C53.4472 11.3453 54.0734 12.2841 54.5523 13.2055C54.7493 13.5843 54.898 13.8364 54.8828 13.7656C54.7893 13.3282 54.6001 12.0632 54.5352 11.4403C54.4425 10.5514 54.4309 8.82175 54.512 7.97456C54.6731 6.2924 55.1187 4.42438 55.6761 3.09465C55.9009 2.55838 55.9468 2.4638 55.982 2.4638C55.9987 2.4638 56.0622 2.57522 56.1232 2.71135Z" fill="#59CE7A"/>
<path fill-rule="evenodd" clip-rule="evenodd" d="M55.8159 1.14922C55.0609 2.00959 54.2763 3.8535 53.9192 5.60665C53.7025 6.67088 53.6111 7.534 53.5778 8.83226L53.5497 9.92675L53.1426 9.43823C52.0805 8.16386 50.6891 6.97139 49.256 6.10719C48.2827 5.52033 46.7674 4.84724 46.7361 4.9879C46.7107 5.10246 46.8604 6.16686 46.9929 6.81213C47.2197 7.91751 47.6079 9.16351 48.0511 10.2087C48.4192 11.0769 49.1105 12.377 49.5381 13.0055C49.6441 13.1613 49.652 13.1889 49.5852 13.1688C49.5409 13.1554 49.311 13.1061 49.0744 13.0591C47.8143 12.809 46.4509 12.8261 45.4382 13.1047C44.9349 13.2432 44.9446 13.2327 45.0777 13.4976C45.3882 14.1154 46.0297 14.9466 46.6316 15.5111C47.5089 16.3337 48.5162 16.9398 49.8469 17.4455L49.974 17.4938L49.7006 17.6667C49.1625 18.0071 48.7187 18.3789 47.9663 19.1197C47.5462 19.5333 47.2025 19.885 47.2025 19.9012C47.2025 19.9386 47.7327 20.0967 48.1277 20.1772C48.6292 20.2794 49.4874 20.3341 50.6881 20.3405C51.6046 20.3453 51.9171 20.3314 52.2802 20.2698C53.2277 20.1091 54.6496 19.6228 55.2923 19.2399C55.5674 19.0759 55.5934 19.0858 55.594 19.3548C55.5943 19.5678 55.7104 20.2863 55.8337 20.8393C56.0317 21.7271 56.433 22.8108 56.614 22.9462C56.6536 22.9758 56.7874 23 56.9113 23C57.1034 23 57.1497 22.9833 57.2258 22.8866C57.3475 22.7317 57.3378 22.5458 57.1909 22.2202C56.8637 21.4951 56.6493 20.6173 56.4749 19.2886L56.4539 19.1291L56.8952 19.3554C57.5661 19.6994 58.5824 20.049 59.4142 20.2219C60.3666 20.4199 62.8892 20.3839 63.9315 20.1574C64.2631 20.0854 64.7595 19.9329 64.7595 19.9031C64.7595 19.8616 63.3077 18.4367 63.057 18.2322C62.9372 18.1344 62.6495 17.9276 62.4177 17.7725L61.9963 17.4906L62.1192 17.4439C63.4642 16.9327 64.4133 16.3592 65.3454 15.4942C65.912 14.9685 66.5713 14.1166 66.8703 13.5239L67 13.2669L66.849 13.2037C66.6283 13.1115 66.0428 12.9831 65.5986 12.9295C64.663 12.8167 63.3127 12.9175 62.4008 13.1681C62.3129 13.1922 62.3285 13.153 62.5326 12.8345C63.8835 10.7266 64.855 8.07319 65.1677 5.63675C65.2035 5.35729 65.2329 5.08162 65.2329 5.02415V4.91966L64.9318 5.02833C62.7627 5.81115 60.4543 7.47657 58.8197 9.43793L58.4123 9.92675L58.3845 8.85378C58.3692 8.26366 58.3245 7.4999 58.285 7.15656C58.0257 4.90033 57.3775 2.92377 56.4456 1.54746C56.2508 1.25978 56.0303 1 55.981 1C55.9622 1 55.8879 1.06716 55.8159 1.14922ZM56.1232 2.71135C56.693 3.98205 57.1498 5.642 57.3553 7.18786C57.6044 9.06186 57.5637 10.8786 57.2268 12.9256C57.1547 13.3637 57.0865 13.7609 57.0751 13.8082C57.0638 13.8556 57.1473 13.7103 57.2608 13.4853C57.7956 12.425 58.49 11.3709 59.3313 10.3425C60.4835 8.93382 62.2874 7.44032 64.0817 6.40933C64.3337 6.2645 64.3335 6.26256 64.1565 6.94129C63.8468 8.12882 63.3134 9.5357 62.7337 10.6934C62.009 12.141 61.2176 13.2686 60.0891 14.4613L59.5527 15.0284L59.9292 14.8603C61.2746 14.2599 62.4031 13.9458 63.6407 13.8274C64.1648 13.7772 65.0423 13.7977 65.2977 13.866L65.4163 13.8978L65.1875 14.1759C64.3327 15.2154 63.0506 16.1255 61.6469 16.6893C61.0953 16.9108 60.4806 17.0932 59.7463 17.2531C59.3913 17.3305 59.1298 17.4044 59.1653 17.4174C59.2008 17.4304 59.3461 17.464 59.4881 17.4919C60.3989 17.6713 61.8199 18.3886 62.7675 19.1473C62.9473 19.2912 63.0205 19.3755 62.9913 19.4047C62.9222 19.4739 60.1092 19.4618 59.7893 19.391C58.5773 19.1225 57.1174 18.5228 56.3006 17.9578L55.981 17.7368L55.669 17.9504C54.8473 18.513 53.5397 19.0666 52.3663 19.3485C51.9828 19.4407 51.8677 19.4468 50.5073 19.4475C49.4807 19.4479 49.0429 19.4338 49.0082 19.3992C48.9717 19.3626 49.0338 19.2904 49.2535 19.1137C50.1408 18.4004 51.3965 17.7539 52.3559 17.5164C52.4918 17.4827 52.6611 17.441 52.7321 17.4237C52.8392 17.3976 52.7659 17.3717 52.3018 17.2715C50.4977 16.8822 49.2281 16.317 47.9897 15.3518C47.5785 15.0313 46.8985 14.3606 46.6962 14.076L46.5556 13.8783L46.7607 13.8433C46.8735 13.824 47.3047 13.8106 47.7188 13.8135C49.0979 13.8231 50.2583 14.0979 51.9145 14.8072C52.1038 14.8883 52.2878 14.9669 52.3233 14.9819C52.3588 14.9969 52.1614 14.768 51.8847 14.4733C51.2534 13.8008 50.9021 13.3777 50.4707 12.7708C49.5141 11.4247 48.6693 9.6987 48.0917 7.90998C47.8956 7.30263 47.6758 6.48627 47.6758 6.36524C47.6758 6.28284 48.0757 6.5031 48.8592 7.01702C50.3351 7.98515 51.6892 9.18783 52.7002 10.4286C53.4472 11.3453 54.0734 12.2841 54.5523 13.2055C54.7493 13.5843 54.898 13.8364 54.8828 13.7656C54.7893 13.3282 54.6001 12.0632 54.5352 11.4403C54.4425 10.5514 54.4309 8.82175 54.512 7.97456C54.6731 6.2924 55.1187 4.42438 55.6761 3.09465C55.9009 2.55838 55.9468 2.4638 55.982 2.4638C55.9987 2.4638 56.0622 2.57522 56.1232 2.71135Z" stroke="#7FC981" mask="url(#path-1-outside-1_464_8699)"/>
<path fill-rule="evenodd" clip-rule="evenodd" d="M10.8159 1.14922C10.0609 2.00959 9.27627 3.8535 8.91924 5.60665C8.70249 6.67088 8.61113 7.534 8.57778 8.83226L8.54968 9.92675L8.14255 9.43823C7.08048 8.16386 5.68913 6.97139 4.25599 6.10719C3.28274 5.52033 1.76741 4.84724 1.73613 4.9879C1.71065 5.10246 1.86045 6.16686 1.99286 6.81213C2.21968 7.91751 2.60787 9.16351 3.0511 10.2087C3.41924 11.0769 4.11046 12.377 4.53811 13.0055C4.64406 13.1613 4.65202 13.1889 4.58519 13.1688C4.54091 13.1554 4.31103 13.1061 4.07436 13.0591C2.81429 12.809 1.45087 12.8261 0.438156 13.1047C-0.0650594 13.2432 -0.0554205 13.2327 0.0777203 13.4976C0.388196 14.1154 1.02972 14.9466 1.63165 15.5111C2.5089 16.3337 3.51619 16.9398 4.84691 17.4455L4.97398 17.4938L4.70056 17.6667C4.16253 18.0071 3.7187 18.3789 2.96628 19.1197C2.54621 19.5333 2.20247 19.885 2.20247 19.9012C2.20247 19.9386 2.73266 20.0967 3.12765 20.1772C3.62923 20.2794 4.48742 20.3341 5.68805 20.3405C6.60463 20.3453 6.91709 20.3314 7.28024 20.2698C8.22767 20.1091 9.64962 19.6228 10.2923 19.2399C10.5674 19.0759 10.5934 19.0858 10.594 19.3548C10.5943 19.5678 10.7104 20.2863 10.8337 20.8393C11.0317 21.7271 11.433 22.8108 11.614 22.9462C11.6536 22.9758 11.7874 23 11.9113 23C12.1034 23 12.1497 22.9833 12.2258 22.8866C12.3475 22.7317 12.3378 22.5458 12.1909 22.2202C11.8637 21.4951 11.6493 20.6173 11.4749 19.2886L11.4539 19.1291L11.8952 19.3554C12.5661 19.6994 13.5824 20.049 14.4142 20.2219C15.3666 20.4199 17.8892 20.3839 18.9315 20.1574C19.2631 20.0854 19.7595 19.9329 19.7595 19.9031C19.7595 19.8616 18.3077 18.4367 18.057 18.2322C17.9372 18.1344 17.6495 17.9276 17.4177 17.7725L16.9963 17.4906L17.1192 17.4439C18.4642 16.9327 19.4133 16.3592 20.3454 15.4942C20.912 14.9685 21.5713 14.1166 21.8703 13.5239L22 13.2669L21.849 13.2037C21.6283 13.1115 21.0428 12.9831 20.5986 12.9295C19.663 12.8167 18.3127 12.9175 17.4008 13.1681C17.3129 13.1922 17.3285 13.153 17.5326 12.8345C18.8835 10.7266 19.855 8.07319 20.1677 5.63675C20.2035 5.35729 20.2329 5.08162 20.2329 5.02415V4.91966L19.9318 5.02833C17.7627 5.81115 15.4543 7.47657 13.8197 9.43793L13.4123 9.92675L13.3845 8.85378C13.3692 8.26366 13.3245 7.4999 13.285 7.15656C13.0257 4.90033 12.3775 2.92377 11.4456 1.54746C11.2508 1.25978 11.0303 1 10.981 1C10.9622 1 10.8879 1.06716 10.8159 1.14922ZM11.1232 2.71135C11.693 3.98205 12.1498 5.642 12.3553 7.18786C12.6044 9.06186 12.5637 10.8786 12.2268 12.9256C12.1547 13.3637 12.0865 13.7609 12.0751 13.8082C12.0638 13.8556 12.1473 13.7103 12.2608 13.4853C12.7956 12.425 13.49 11.3709 14.3313 10.3425C15.4835 8.93382 17.2874 7.44032 19.0817 6.40933C19.3337 6.2645 19.3335 6.26256 19.1565 6.94129C18.8468 8.12882 18.3134 9.5357 17.7337 10.6934C17.009 12.141 16.2176 13.2686 15.0891 14.4613L14.5527 15.0284L14.9292 14.8603C16.2746 14.2599 17.4031 13.9458 18.6407 13.8274C19.1648 13.7772 20.0423 13.7977 20.2977 13.866L20.4163 13.8978L20.1875 14.1759C19.3327 15.2154 18.0506 16.1255 16.6469 16.6893C16.0953 16.9108 15.4806 17.0932 14.7463 17.2531C14.3913 17.3305 14.1298 17.4044 14.1653 17.4174C14.2008 17.4304 14.3461 17.464 14.4881 17.4919C15.3989 17.6713 16.8199 18.3886 17.7675 19.1473C17.9473 19.2912 18.0205 19.3755 17.9913 19.4047C17.9222 19.4739 15.1092 19.4618 14.7893 19.391C13.5773 19.1225 12.1174 18.5228 11.3006 17.9578L10.981 17.7368L10.669 17.9504C9.84726 18.513 8.53965 19.0666 7.3663 19.3485C6.9828 19.4407 6.86773 19.4468 5.50732 19.4475C4.48075 19.4479 4.04286 19.4338 4.00822 19.3992C3.97168 19.3626 4.03378 19.2904 4.2535 19.1137C5.14077 18.4004 6.39653 17.7539 7.35589 17.5164C7.49178 17.4827 7.66107 17.441 7.73207 17.4237C7.83918 17.3976 7.76585 17.3717 7.30175 17.2715C5.49768 16.8822 4.22811 16.317 2.98974 15.3518C2.57852 15.0313 1.89849 14.3606 1.69615 14.076L1.55557 13.8783L1.7607 13.8433C1.87349 13.824 2.30467 13.8106 2.71885 13.8135C4.09794 13.8231 5.25825 14.0979 6.91446 14.8072C7.1038 14.8883 7.28777 14.9669 7.32327 14.9819C7.35877 14.9969 7.16142 14.768 6.88473 14.4733C6.25345 13.8008 5.90205 13.3777 5.4707 12.7708C4.51406 11.4247 3.6693 9.6987 3.09172 7.90998C2.89562 7.30263 2.67582 6.48627 2.67582 6.36524C2.67582 6.28284 3.07571 6.5031 3.8592 7.01702C5.33506 7.98515 6.68919 9.18783 7.70018 10.4286C8.44722 11.3453 9.07338 12.2841 9.55232 13.2055C9.74928 13.5843 9.898 13.8364 9.88285 13.7656C9.7893 13.3282 9.60013 12.0632 9.5352 11.4403C9.44246 10.5514 9.43093 8.82175 9.512 7.97456C9.67307 6.2924 10.1187 4.42438 10.6761 3.09465C10.9009 2.55838 10.9468 2.4638 10.982 2.4638C10.9987 2.4638 11.0622 2.57522 11.1232 2.71135Z" fill="#060606"/>
<path fill-rule="evenodd" clip-rule="evenodd" d="M100.816 1.14922C100.061 2.00959 99.2763 3.8535 98.9192 5.60665C98.7025 6.67088 98.6111 7.534 98.5778 8.83226L98.5497 9.92675L98.1426 9.43823C97.0805 8.16386 95.6891 6.97139 94.256 6.10719C93.2827 5.52033 91.7674 4.84724 91.7361 4.9879C91.7107 5.10246 91.8604 6.16686 91.9929 6.81213C92.2197 7.91751 92.6079 9.16351 93.0511 10.2087C93.4192 11.0769 94.1105 12.377 94.5381 13.0055C94.6441 13.1613 94.652 13.1889 94.5852 13.1688C94.5409 13.1554 94.311 13.1061 94.0744 13.0591C92.8143 12.809 91.4509 12.8261 90.4382 13.1047C89.9349 13.2432 89.9446 13.2327 90.0777 13.4976C90.3882 14.1154 91.0297 14.9466 91.6316 15.5111C92.5089 16.3337 93.5162 16.9398 94.8469 17.4455L94.974 17.4938L94.7006 17.6667C94.1625 18.0071 93.7187 18.3789 92.9663 19.1197C92.5462 19.5333 92.2025 19.885 92.2025 19.9012C92.2025 19.9386 92.7327 20.0967 93.1277 20.1772C93.6292 20.2794 94.4874 20.3341 95.6881 20.3405C96.6046 20.3453 96.9171 20.3314 97.2802 20.2698C98.2277 20.1091 99.6496 19.6228 100.292 19.2399C100.567 19.0759 100.593 19.0858 100.594 19.3548C100.594 19.5678 100.71 20.2863 100.834 20.8393C101.032 21.7271 101.433 22.8108 101.614 22.9462C101.654 22.9758 101.787 23 101.911 23C102.103 23 102.15 22.9833 102.226 22.8866C102.348 22.7317 102.338 22.5458 102.191 22.2202C101.864 21.4951 101.649 20.6173 101.475 19.2886L101.454 19.1291L101.895 19.3554C102.566 19.6994 103.582 20.049 104.414 20.2219C105.367 20.4199 107.889 20.3839 108.931 20.1574C109.263 20.0854 109.76 19.9329 109.76 19.9031C109.76 19.8616 108.308 18.4367 108.057 18.2322C107.937 18.1344 107.65 17.9276 107.418 17.7725L106.996 17.4906L107.119 17.4439C108.464 16.9327 109.413 16.3592 110.345 15.4942C110.912 14.9685 111.571 14.1166 111.87 13.5239L112 13.2669L111.849 13.2037C111.628 13.1115 111.043 12.9831 110.599 12.9295C109.663 12.8167 108.313 12.9175 107.401 13.1681C107.313 13.1922 107.328 13.153 107.533 12.8345C108.884 10.7266 109.855 8.07319 110.168 5.63675C110.204 5.35729 110.233 5.08162 110.233 5.02415V4.91966L109.932 5.02833C107.763 5.81115 105.454 7.47657 103.82 9.43793L103.412 9.92675L103.384 8.85378C103.369 8.26366 103.324 7.4999 103.285 7.15656C103.026 4.90033 102.378 2.92377 101.446 1.54746C101.251 1.25978 101.03 1 100.981 1C100.962 1 100.888 1.06716 100.816 1.14922ZM101.123 2.71135C101.693 3.98205 102.15 5.642 102.355 7.18786C102.604 9.06186 102.564 10.8786 102.227 12.9256C102.155 13.3637 102.086 13.7609 102.075 13.8082C102.064 13.8556 102.147 13.7103 102.261 13.4853C102.796 12.425 103.49 11.3709 104.331 10.3425C105.484 8.93382 107.287 7.44032 109.082 6.40933C109.334 6.2645 109.333 6.26256 109.156 6.94129C108.847 8.12882 108.313 9.5357 107.734 10.6934C107.009 12.141 106.218 13.2686 105.089 14.4613L104.553 15.0284L104.929 14.8603C106.275 14.2599 107.403 13.9458 108.641 13.8274C109.165 13.7772 110.042 13.7977 110.298 13.866L110.416 13.8978L110.188 14.1759C109.333 15.2154 108.051 16.1255 106.647 16.6893C106.095 16.9108 105.481 17.0932 104.746 17.2531C104.391 17.3305 104.13 17.4044 104.165 17.4174C104.201 17.4304 104.346 17.464 104.488 17.4919C105.399 17.6713 106.82 18.3886 107.768 19.1473C107.947 19.2912 108.02 19.3755 107.991 19.4047C107.922 19.4739 105.109 19.4618 104.789 19.391C103.577 19.1225 102.117 18.5228 101.301 17.9578L100.981 17.7368L100.669 17.9504C99.8473 18.513 98.5397 19.0666 97.3663 19.3485C96.9828 19.4407 96.8677 19.4468 95.5073 19.4475C94.4807 19.4479 94.0429 19.4338 94.0082 19.3992C93.9717 19.3626 94.0338 19.2904 94.2535 19.1137C95.1408 18.4004 96.3965 17.7539 97.3559 17.5164C97.4918 17.4827 97.6611 17.441 97.7321 17.4237C97.8392 17.3976 97.7659 17.3717 97.3018 17.2715C95.4977 16.8822 94.2281 16.317 92.9897 15.3518C92.5785 15.0313 91.8985 14.3606 91.6962 14.076L91.5556 13.8783L91.7607 13.8433C91.8735 13.824 92.3047 13.8106 92.7188 13.8135C94.0979 13.8231 95.2583 14.0979 96.9145 14.8072C97.1038 14.8883 97.2878 14.9669 97.3233 14.9819C97.3588 14.9969 97.1614 14.768 96.8847 14.4733C96.2534 13.8008 95.9021 13.3777 95.4707 12.7708C94.5141 11.4247 93.6693 9.6987 93.0917 7.90998C92.8956 7.30263 92.6758 6.48627 92.6758 6.36524C92.6758 6.28284 93.0757 6.5031 93.8592 7.01702C95.3351 7.98515 96.6892 9.18783 97.7002 10.4286C98.4472 11.3453 99.0734 12.2841 99.5523 13.2055C99.7493 13.5843 99.898 13.8364 99.8828 13.7656C99.7893 13.3282 99.6001 12.0632 99.5352 11.4403C99.4425 10.5514 99.4309 8.82175 99.512 7.97456C99.6731 6.2924 100.119 4.42438 100.676 3.09465C100.901 2.55838 100.947 2.4638 100.982 2.4638C100.999 2.4638 101.062 2.57522 101.123 2.71135Z" fill="#060606"/>
</svg>
