<svg width="330" height="49" viewBox="0 0 330 49" fill="none" xmlns="http://www.w3.org/2000/svg">
<rect width="330" height="49" rx="5" fill="#4ECB71"/>
<path d="M110.106 31.204C108.893 31.204 107.794 30.9433 106.808 30.422C105.833 29.8893 105.063 29.1583 104.496 28.229C103.941 27.2883 103.663 26.2287 103.663 25.05C103.663 23.8713 103.941 22.8173 104.496 21.888C105.063 20.9473 105.833 20.2163 106.808 19.695C107.794 19.1623 108.899 18.896 110.123 18.896C111.154 18.896 112.084 19.0773 112.911 19.44C113.75 19.8027 114.452 20.324 115.019 21.004L113.251 22.636C112.446 21.7067 111.449 21.242 110.259 21.242C109.522 21.242 108.865 21.4063 108.287 21.735C107.709 22.0523 107.256 22.5 106.927 23.078C106.61 23.656 106.451 24.3133 106.451 25.05C106.451 25.7867 106.61 26.444 106.927 27.022C107.256 27.6 107.709 28.0533 108.287 28.382C108.865 28.6993 109.522 28.858 110.259 28.858C111.449 28.858 112.446 28.3877 113.251 27.447L115.019 29.079C114.452 29.7703 113.75 30.2973 112.911 30.66C112.072 31.0227 111.137 31.204 110.106 31.204ZM120.728 31.136C119.765 31.136 118.898 30.9377 118.127 30.541C117.368 30.133 116.773 29.572 116.342 28.858C115.912 28.144 115.696 27.3337 115.696 26.427C115.696 25.5203 115.912 24.71 116.342 23.996C116.773 23.282 117.368 22.7267 118.127 22.33C118.898 21.922 119.765 21.718 120.728 21.718C121.692 21.718 122.553 21.922 123.312 22.33C124.072 22.7267 124.667 23.282 125.097 23.996C125.528 24.71 125.743 25.5203 125.743 26.427C125.743 27.3337 125.528 28.144 125.097 28.858C124.667 29.572 124.072 30.133 123.312 30.541C122.553 30.9377 121.692 31.136 120.728 31.136ZM120.728 28.96C121.408 28.96 121.964 28.7333 122.394 28.28C122.836 27.8153 123.057 27.1977 123.057 26.427C123.057 25.6563 122.836 25.0443 122.394 24.591C121.964 24.1263 121.408 23.894 120.728 23.894C120.048 23.894 119.487 24.1263 119.045 24.591C118.603 25.0443 118.382 25.6563 118.382 26.427C118.382 27.1977 118.603 27.8153 119.045 28.28C119.487 28.7333 120.048 28.96 120.728 28.96ZM139.229 21.718C140.374 21.718 141.28 22.058 141.949 22.738C142.629 23.4067 142.969 24.4153 142.969 25.764V31H140.317V26.172C140.317 25.4467 140.164 24.9083 139.858 24.557C139.563 24.1943 139.138 24.013 138.583 24.013C137.96 24.013 137.467 24.217 137.104 24.625C136.741 25.0217 136.56 25.6167 136.56 26.41V31H133.908V26.172C133.908 24.7327 133.33 24.013 132.174 24.013C131.562 24.013 131.075 24.217 130.712 24.625C130.349 25.0217 130.168 25.6167 130.168 26.41V31H127.516V21.854H130.049V22.908C130.389 22.5227 130.803 22.228 131.29 22.024C131.789 21.82 132.333 21.718 132.922 21.718C133.568 21.718 134.152 21.8483 134.673 22.109C135.194 22.3583 135.614 22.7267 135.931 23.214C136.305 22.738 136.775 22.3697 137.342 22.109C137.92 21.8483 138.549 21.718 139.229 21.718ZM150.752 21.718C151.602 21.718 152.373 21.9163 153.064 22.313C153.767 22.6983 154.316 23.248 154.713 23.962C155.11 24.6647 155.308 25.4863 155.308 26.427C155.308 27.3677 155.11 28.195 154.713 28.909C154.316 29.6117 153.767 30.1613 153.064 30.558C152.373 30.9433 151.602 31.136 150.752 31.136C149.585 31.136 148.667 30.7677 147.998 30.031V34.298H145.346V21.854H147.879V22.908C148.536 22.1147 149.494 21.718 150.752 21.718ZM150.293 28.96C150.973 28.96 151.528 28.7333 151.959 28.28C152.401 27.8153 152.622 27.1977 152.622 26.427C152.622 25.6563 152.401 25.0443 151.959 24.591C151.528 24.1263 150.973 23.894 150.293 23.894C149.613 23.894 149.052 24.1263 148.61 24.591C148.179 25.0443 147.964 25.6563 147.964 26.427C147.964 27.1977 148.179 27.8153 148.61 28.28C149.052 28.7333 149.613 28.96 150.293 28.96ZM159.616 23.061C159.934 22.619 160.359 22.2847 160.891 22.058C161.435 21.8313 162.059 21.718 162.761 21.718V24.166C162.467 24.1433 162.268 24.132 162.166 24.132C161.407 24.132 160.812 24.3473 160.381 24.778C159.951 25.1973 159.735 25.832 159.735 26.682V31H157.083V21.854H159.616V23.061ZM167.977 21.718C169.394 21.718 170.482 22.058 171.241 22.738C172.001 23.4067 172.38 24.421 172.38 25.781V31H169.898V29.861C169.4 30.711 168.47 31.136 167.11 31.136C166.408 31.136 165.796 31.017 165.274 30.779C164.764 30.541 164.373 30.2123 164.101 29.793C163.829 29.3737 163.693 28.8977 163.693 28.365C163.693 27.515 164.011 26.8463 164.645 26.359C165.291 25.8717 166.283 25.628 167.62 25.628H169.728C169.728 25.05 169.553 24.608 169.201 24.302C168.85 23.9847 168.323 23.826 167.62 23.826C167.133 23.826 166.651 23.9053 166.175 24.064C165.711 24.2113 165.314 24.4153 164.985 24.676L164.033 22.823C164.532 22.4717 165.127 22.1997 165.818 22.007C166.521 21.8143 167.241 21.718 167.977 21.718ZM167.773 29.351C168.227 29.351 168.629 29.249 168.98 29.045C169.332 28.8297 169.581 28.518 169.728 28.11V27.175H167.909C166.821 27.175 166.277 27.532 166.277 28.246C166.277 28.586 166.408 28.858 166.668 29.062C166.94 29.2547 167.309 29.351 167.773 29.351ZM177.314 23.061C177.631 22.619 178.056 22.2847 178.589 22.058C179.133 21.8313 179.756 21.718 180.459 21.718V24.166C180.164 24.1433 179.966 24.132 179.864 24.132C179.104 24.132 178.509 24.3473 178.079 24.778C177.648 25.1973 177.433 25.832 177.433 26.682V31H174.781V21.854H177.314V23.061ZM192.798 31.204C191.586 31.204 190.486 30.9433 189.5 30.422C188.526 29.8893 187.755 29.1583 187.188 28.229C186.633 27.2883 186.355 26.2287 186.355 25.05C186.355 23.8713 186.633 22.8173 187.188 21.888C187.755 20.9473 188.526 20.2163 189.5 19.695C190.486 19.1623 191.591 18.896 192.815 18.896C193.847 18.896 194.776 19.0773 195.603 19.44C196.442 19.8027 197.145 20.324 197.711 21.004L195.943 22.636C195.139 21.7067 194.141 21.242 192.951 21.242C192.215 21.242 191.557 21.4063 190.979 21.735C190.401 22.0523 189.948 22.5 189.619 23.078C189.302 23.656 189.143 24.3133 189.143 25.05C189.143 25.7867 189.302 26.444 189.619 27.022C189.948 27.6 190.401 28.0533 190.979 28.382C191.557 28.6993 192.215 28.858 192.951 28.858C194.141 28.858 195.139 28.3877 195.943 27.447L197.711 29.079C197.145 29.7703 196.442 30.2973 195.603 30.66C194.765 31.0227 193.83 31.204 192.798 31.204ZM208.309 24.812C208.989 25.0273 209.522 25.39 209.907 25.9C210.292 26.3987 210.485 27.0163 210.485 27.753C210.485 28.7957 210.077 29.6003 209.261 30.167C208.456 30.7223 207.278 31 205.725 31H199.571V19.1H205.385C206.836 19.1 207.946 19.3777 208.717 19.933C209.499 20.4883 209.89 21.242 209.89 22.194C209.89 22.772 209.748 23.2877 209.465 23.741C209.193 24.1943 208.808 24.5513 208.309 24.812ZM202.308 21.174V23.979H205.045C205.725 23.979 206.241 23.86 206.592 23.622C206.943 23.384 207.119 23.0327 207.119 22.568C207.119 22.1033 206.943 21.7577 206.592 21.531C206.241 21.293 205.725 21.174 205.045 21.174H202.308ZM205.521 28.926C206.246 28.926 206.79 28.807 207.153 28.569C207.527 28.331 207.714 27.9627 207.714 27.464C207.714 26.478 206.983 25.985 205.521 25.985H202.308V28.926H205.521ZM212.57 19.1H217.976C219.268 19.1 220.407 19.3493 221.393 19.848C222.391 20.3353 223.161 21.0267 223.705 21.922C224.261 22.8173 224.538 23.86 224.538 25.05C224.538 26.24 224.261 27.2827 223.705 28.178C223.161 29.0733 222.391 29.7703 221.393 30.269C220.407 30.7563 219.268 31 217.976 31H212.57V19.1ZM217.84 28.739C219.03 28.739 219.977 28.4103 220.679 27.753C221.393 27.0843 221.75 26.1833 221.75 25.05C221.75 23.9167 221.393 23.0213 220.679 22.364C219.977 21.6953 219.03 21.361 217.84 21.361H215.324V28.739H217.84Z" fill="#030303"/>
</svg>
