<svg width="330" height="49" viewBox="0 0 330 49" fill="none" xmlns="http://www.w3.org/2000/svg">
<rect width="330" height="49" rx="5" fill="#FFD233"/>
<path d="M83.625 29.79V32H74.411V20.1H83.404V22.31H77.148V24.894H82.673V27.036H77.148V29.79H83.625ZM91.1883 22.718C92.3216 22.718 93.2339 23.058 93.9253 23.738C94.6279 24.418 94.9793 25.4267 94.9793 26.764V32H92.3273V27.172C92.3273 26.4467 92.1686 25.9083 91.8513 25.557C91.5339 25.1943 91.0749 25.013 90.4743 25.013C89.8056 25.013 89.2729 25.2227 88.8763 25.642C88.4796 26.05 88.2813 26.662 88.2813 27.478V32H85.6293V22.854H88.1623V23.925C88.5136 23.5397 88.9499 23.245 89.4713 23.041C89.9926 22.8257 90.5649 22.718 91.1883 22.718ZM106.295 22.854L102.436 32H99.6992L95.8572 22.854H98.5942L101.127 29.076L103.745 22.854H106.295ZM107.377 22.854H110.029V32H107.377V22.854ZM108.703 21.579C108.216 21.579 107.819 21.4373 107.513 21.154C107.207 20.8707 107.054 20.5193 107.054 20.1C107.054 19.6807 107.207 19.3293 107.513 19.046C107.819 18.7627 108.216 18.621 108.703 18.621C109.191 18.621 109.587 18.757 109.893 19.029C110.199 19.301 110.352 19.641 110.352 20.049C110.352 20.491 110.199 20.8593 109.893 21.154C109.587 21.4373 109.191 21.579 108.703 21.579ZM116.18 22.718C117.596 22.718 118.684 23.058 119.444 23.738C120.203 24.4067 120.583 25.421 120.583 26.781V32H118.101V30.861C117.602 31.711 116.673 32.136 115.313 32.136C114.61 32.136 113.998 32.017 113.477 31.779C112.967 31.541 112.576 31.2123 112.304 30.793C112.032 30.3737 111.896 29.8977 111.896 29.365C111.896 28.515 112.213 27.8463 112.848 27.359C113.494 26.8717 114.485 26.628 115.823 26.628H117.931C117.931 26.05 117.755 25.608 117.404 25.302C117.052 24.9847 116.525 24.826 115.823 24.826C115.335 24.826 114.854 24.9053 114.378 25.064C113.913 25.2113 113.516 25.4153 113.188 25.676L112.236 23.823C112.734 23.4717 113.329 23.1997 114.021 23.007C114.723 22.8143 115.443 22.718 116.18 22.718ZM115.976 30.351C116.429 30.351 116.831 30.249 117.183 30.045C117.534 29.8297 117.783 29.518 117.931 29.11V28.175H116.112C115.024 28.175 114.48 28.532 114.48 29.246C114.48 29.586 114.61 29.858 114.871 30.062C115.143 30.2547 115.511 30.351 115.976 30.351ZM125.516 24.061C125.833 23.619 126.258 23.2847 126.791 23.058C127.335 22.8313 127.958 22.718 128.661 22.718V25.166C128.366 25.1433 128.168 25.132 128.066 25.132C127.306 25.132 126.711 25.3473 126.281 25.778C125.85 26.1973 125.635 26.832 125.635 27.682V32H122.983V22.854H125.516V24.061ZM146.832 22.718C147.976 22.718 148.883 23.058 149.552 23.738C150.232 24.4067 150.572 25.4153 150.572 26.764V32H147.92V27.172C147.92 26.4467 147.767 25.9083 147.461 25.557C147.166 25.1943 146.741 25.013 146.186 25.013C145.562 25.013 145.069 25.217 144.707 25.625C144.344 26.0217 144.163 26.6167 144.163 27.41V32H141.511V27.172C141.511 25.7327 140.933 25.013 139.777 25.013C139.165 25.013 138.677 25.217 138.315 25.625C137.952 26.0217 137.771 26.6167 137.771 27.41V32H135.119V22.854H137.652V23.908C137.992 23.5227 138.405 23.228 138.893 23.024C139.391 22.82 139.935 22.718 140.525 22.718C141.171 22.718 141.754 22.8483 142.276 23.109C142.797 23.3583 143.216 23.7267 143.534 24.214C143.908 23.738 144.378 23.3697 144.945 23.109C145.523 22.8483 146.152 22.718 146.832 22.718ZM152.949 22.854H155.601V32H152.949V22.854ZM154.275 21.579C153.787 21.579 153.391 21.4373 153.085 21.154C152.779 20.8707 152.626 20.5193 152.626 20.1C152.626 19.6807 152.779 19.3293 153.085 19.046C153.391 18.7627 153.787 18.621 154.275 18.621C154.762 18.621 155.159 18.757 155.465 19.029C155.771 19.301 155.924 19.641 155.924 20.049C155.924 20.491 155.771 20.8593 155.465 21.154C155.159 21.4373 154.762 21.579 154.275 21.579ZM161.139 32.136C160.38 32.136 159.637 32.0453 158.912 31.864C158.187 31.6713 157.609 31.4333 157.178 31.15L158.062 29.246C158.47 29.5067 158.963 29.722 159.541 29.892C160.119 30.0507 160.686 30.13 161.241 30.13C162.363 30.13 162.924 29.8523 162.924 29.297C162.924 29.0363 162.771 28.8493 162.465 28.736C162.159 28.6227 161.689 28.5263 161.054 28.447C160.306 28.3337 159.688 28.2033 159.201 28.056C158.714 27.9087 158.289 27.648 157.926 27.274C157.575 26.9 157.399 26.3673 157.399 25.676C157.399 25.098 157.563 24.588 157.892 24.146C158.232 23.6927 158.719 23.3413 159.354 23.092C160 22.8427 160.759 22.718 161.632 22.718C162.278 22.718 162.918 22.7917 163.553 22.939C164.199 23.075 164.732 23.2677 165.151 23.517L164.267 25.404C163.462 24.9507 162.584 24.724 161.632 24.724C161.065 24.724 160.64 24.8033 160.357 24.962C160.074 25.1207 159.932 25.3247 159.932 25.574C159.932 25.8573 160.085 26.0557 160.391 26.169C160.697 26.2823 161.184 26.39 161.853 26.492C162.601 26.6167 163.213 26.7527 163.689 26.9C164.165 27.036 164.579 27.291 164.93 27.665C165.281 28.039 165.457 28.5603 165.457 29.229C165.457 29.7957 165.287 30.3 164.947 30.742C164.607 31.184 164.108 31.5297 163.451 31.779C162.805 32.017 162.034 32.136 161.139 32.136ZM176.328 32.136C175.353 32.136 174.475 31.9377 173.693 31.541C172.922 31.133 172.316 30.572 171.874 29.858C171.443 29.144 171.228 28.3337 171.228 27.427C171.228 26.5203 171.443 25.71 171.874 24.996C172.316 24.282 172.922 23.7267 173.693 23.33C174.475 22.922 175.353 22.718 176.328 22.718C177.291 22.718 178.13 22.922 178.844 23.33C179.569 23.7267 180.096 24.299 180.425 25.047L178.368 26.152C177.892 25.3133 177.206 24.894 176.311 24.894C175.619 24.894 175.047 25.1207 174.594 25.574C174.14 26.0273 173.914 26.645 173.914 27.427C173.914 28.209 174.14 28.8267 174.594 29.28C175.047 29.7333 175.619 29.96 176.311 29.96C177.217 29.96 177.903 29.5407 178.368 28.702L180.425 29.824C180.096 30.5493 179.569 31.116 178.844 31.524C178.13 31.932 177.291 32.136 176.328 32.136ZM186.187 32.136C185.224 32.136 184.357 31.9377 183.586 31.541C182.827 31.133 182.232 30.572 181.801 29.858C181.371 29.144 181.155 28.3337 181.155 27.427C181.155 26.5203 181.371 25.71 181.801 24.996C182.232 24.282 182.827 23.7267 183.586 23.33C184.357 22.922 185.224 22.718 186.187 22.718C187.151 22.718 188.012 22.922 188.771 23.33C189.531 23.7267 190.126 24.282 190.556 24.996C190.987 25.71 191.202 26.5203 191.202 27.427C191.202 28.3337 190.987 29.144 190.556 29.858C190.126 30.572 189.531 31.133 188.771 31.541C188.012 31.9377 187.151 32.136 186.187 32.136ZM186.187 29.96C186.867 29.96 187.423 29.7333 187.853 29.28C188.295 28.8153 188.516 28.1977 188.516 27.427C188.516 26.6563 188.295 26.0443 187.853 25.591C187.423 25.1263 186.867 24.894 186.187 24.894C185.507 24.894 184.946 25.1263 184.504 25.591C184.062 26.0443 183.841 26.6563 183.841 27.427C183.841 28.1977 184.062 28.8153 184.504 29.28C184.946 29.7333 185.507 29.96 186.187 29.96ZM198.534 22.718C199.667 22.718 200.58 23.058 201.271 23.738C201.974 24.418 202.325 25.4267 202.325 26.764V32H199.673V27.172C199.673 26.4467 199.514 25.9083 199.197 25.557C198.88 25.1943 198.421 25.013 197.82 25.013C197.151 25.013 196.619 25.2227 196.222 25.642C195.825 26.05 195.627 26.662 195.627 27.478V32H192.975V22.854H195.508V23.925C195.859 23.5397 196.296 23.245 196.817 23.041C197.338 22.8257 197.911 22.718 198.534 22.718ZM207.806 32.136C207.047 32.136 206.304 32.0453 205.579 31.864C204.854 31.6713 204.276 31.4333 203.845 31.15L204.729 29.246C205.137 29.5067 205.63 29.722 206.208 29.892C206.786 30.0507 207.353 30.13 207.908 30.13C209.03 30.13 209.591 29.8523 209.591 29.297C209.591 29.0363 209.438 28.8493 209.132 28.736C208.826 28.6227 208.356 28.5263 207.721 28.447C206.973 28.3337 206.355 28.2033 205.868 28.056C205.381 27.9087 204.956 27.648 204.593 27.274C204.242 26.9 204.066 26.3673 204.066 25.676C204.066 25.098 204.23 24.588 204.559 24.146C204.899 23.6927 205.386 23.3413 206.021 23.092C206.667 22.8427 207.426 22.718 208.299 22.718C208.945 22.718 209.585 22.7917 210.22 22.939C210.866 23.075 211.399 23.2677 211.818 23.517L210.934 25.404C210.129 24.9507 209.251 24.724 208.299 24.724C207.732 24.724 207.307 24.8033 207.024 24.962C206.741 25.1207 206.599 25.3247 206.599 25.574C206.599 25.8573 206.752 26.0557 207.058 26.169C207.364 26.2823 207.851 26.39 208.52 26.492C209.268 26.6167 209.88 26.7527 210.356 26.9C210.832 27.036 211.246 27.291 211.597 27.665C211.948 28.039 212.124 28.5603 212.124 29.229C212.124 29.7957 211.954 30.3 211.614 30.742C211.274 31.184 210.775 31.5297 210.118 31.779C209.472 32.017 208.701 32.136 207.806 32.136ZM222.974 22.854V32H220.458V30.912C220.107 31.3087 219.687 31.6147 219.2 31.83C218.713 32.034 218.186 32.136 217.619 32.136C216.418 32.136 215.466 31.7903 214.763 31.099C214.06 30.4077 213.709 29.382 213.709 28.022V22.854H216.361V27.631C216.361 29.1043 216.979 29.841 218.214 29.841C218.849 29.841 219.359 29.637 219.744 29.229C220.129 28.8097 220.322 28.192 220.322 27.376V22.854H222.974ZM225.431 19.386H228.083V32H225.431V19.386ZM237.107 31.558C236.847 31.7507 236.524 31.898 236.138 32C235.764 32.0907 235.368 32.136 234.948 32.136C233.86 32.136 233.016 31.8583 232.415 31.303C231.826 30.7477 231.531 29.9317 231.531 28.855V25.098H230.12V23.058H231.531V20.831H234.183V23.058H236.461V25.098H234.183V28.821C234.183 29.2063 234.28 29.5067 234.472 29.722C234.676 29.926 234.96 30.028 235.322 30.028C235.742 30.028 236.099 29.9147 236.393 29.688L237.107 31.558ZM242.285 22.718C243.702 22.718 244.79 23.058 245.549 23.738C246.308 24.4067 246.688 25.421 246.688 26.781V32H244.206V30.861C243.707 31.711 242.778 32.136 241.418 32.136C240.715 32.136 240.103 32.017 239.582 31.779C239.072 31.541 238.681 31.2123 238.409 30.793C238.137 30.3737 238.001 29.8977 238.001 29.365C238.001 28.515 238.318 27.8463 238.953 27.359C239.599 26.8717 240.591 26.628 241.928 26.628H244.036C244.036 26.05 243.86 25.608 243.509 25.302C243.158 24.9847 242.631 24.826 241.928 24.826C241.441 24.826 240.959 24.9053 240.483 25.064C240.018 25.2113 239.622 25.4153 239.293 25.676L238.341 23.823C238.84 23.4717 239.435 23.1997 240.126 23.007C240.829 22.8143 241.548 22.718 242.285 22.718ZM242.081 30.351C242.534 30.351 242.937 30.249 243.288 30.045C243.639 29.8297 243.889 29.518 244.036 29.11V28.175H242.217C241.129 28.175 240.585 28.532 240.585 29.246C240.585 29.586 240.715 29.858 240.976 30.062C241.248 30.2547 241.616 30.351 242.081 30.351ZM252.165 32.136C251.406 32.136 250.664 32.0453 249.938 31.864C249.213 31.6713 248.635 31.4333 248.204 31.15L249.088 29.246C249.496 29.5067 249.989 29.722 250.567 29.892C251.145 30.0507 251.712 30.13 252.267 30.13C253.389 30.13 253.95 29.8523 253.95 29.297C253.95 29.0363 253.797 28.8493 253.491 28.736C253.185 28.6227 252.715 28.5263 252.08 28.447C251.332 28.3337 250.715 28.2033 250.227 28.056C249.74 27.9087 249.315 27.648 248.952 27.274C248.601 26.9 248.425 26.3673 248.425 25.676C248.425 25.098 248.59 24.588 248.918 24.146C249.258 23.6927 249.746 23.3413 250.38 23.092C251.026 22.8427 251.786 22.718 252.658 22.718C253.304 22.718 253.945 22.7917 254.579 22.939C255.225 23.075 255.758 23.2677 256.177 23.517L255.293 25.404C254.489 24.9507 253.61 24.724 252.658 24.724C252.092 24.724 251.667 24.8033 251.383 24.962C251.1 25.1207 250.958 25.3247 250.958 25.574C250.958 25.8573 251.111 26.0557 251.417 26.169C251.723 26.2823 252.211 26.39 252.879 26.492C253.627 26.6167 254.239 26.7527 254.715 26.9C255.191 27.036 255.605 27.291 255.956 27.665C256.308 28.039 256.483 28.5603 256.483 29.229C256.483 29.7957 256.313 30.3 255.973 30.742C255.633 31.184 255.135 31.5297 254.477 31.779C253.831 32.017 253.061 32.136 252.165 32.136Z" fill="black"/>
</svg>
