<svg width="77" height="70" viewBox="0 0 77 70" fill="none" xmlns="http://www.w3.org/2000/svg">
<path d="M75.4032 34.4381L42.5854 2.8656L40.3857 0.748233C39.8844 0.268977 39.2066 0 38.5002 0C37.7937 0 37.1159 0.268977 36.6147 0.748233L1.59708 34.4381C1.0835 34.9305 0.677615 35.5169 0.403374 36.1628C0.129133 36.8087 -0.00790404 37.5009 0.000352042 38.1986C0.034325 41.0763 2.52284 43.3735 5.51246 43.3735H9.12208V70H67.8782V43.3735H71.5643C73.0166 43.3735 74.384 42.8258 75.4117 41.8366C75.9178 41.3511 76.3187 40.7738 76.5913 40.1381C76.8639 39.5024 77.0028 38.8209 77 38.1332C77 36.7435 76.4309 35.4273 75.4032 34.4381ZM43.2564 64.1139H33.7439V47.4366H43.2564V64.1139ZM61.7631 37.4874V64.1139H48.692V45.4745C48.692 43.6678 47.1717 42.2045 45.2947 42.2045H31.7056C29.8286 42.2045 28.3083 43.6678 28.3083 45.4745V64.1139H15.2372V37.4874H7.08371L38.5086 7.26383L40.4706 9.15229L69.9251 37.4874H61.7631Z" fill="#4ECB71"/>
</svg>
