<svg width="330" height="49" viewBox="0 0 330 49" fill="none" xmlns="http://www.w3.org/2000/svg">
<rect width="330" height="49" rx="5" fill="#FFD233"/>
<path d="M89.625 29.79V32H80.411V20.1H89.404V22.31H83.148V24.894H88.673V27.036H83.148V29.79H89.625ZM94.6399 32.136C93.8805 32.136 93.1382 32.0453 92.4129 31.864C91.6875 31.6713 91.1095 31.4333 90.6789 31.15L91.5629 29.246C91.9709 29.5067 92.4639 29.722 93.0419 29.892C93.6199 30.0507 94.1865 30.13 94.7419 30.13C95.8639 30.13 96.4249 29.8523 96.4249 29.297C96.4249 29.0363 96.2719 28.8493 95.9659 28.736C95.6599 28.6227 95.1895 28.5263 94.5549 28.447C93.8069 28.3337 93.1892 28.2033 92.7019 28.056C92.2145 27.9087 91.7895 27.648 91.4269 27.274C91.0755 26.9 90.8999 26.3673 90.8999 25.676C90.8999 25.098 91.0642 24.588 91.3929 24.146C91.7329 23.6927 92.2202 23.3413 92.8549 23.092C93.5009 22.8427 94.2602 22.718 95.1329 22.718C95.7789 22.718 96.4192 22.7917 97.0539 22.939C97.6999 23.075 98.2325 23.2677 98.6519 23.517L97.7679 25.404C96.9632 24.9507 96.0849 24.724 95.1329 24.724C94.5662 24.724 94.1412 24.8033 93.8579 24.962C93.5745 25.1207 93.4329 25.3247 93.4329 25.574C93.4329 25.8573 93.5859 26.0557 93.8919 26.169C94.1979 26.2823 94.6852 26.39 95.3539 26.492C96.1019 26.6167 96.7139 26.7527 97.1899 26.9C97.6659 27.036 98.0795 27.291 98.4309 27.665C98.7822 28.039 98.9579 28.5603 98.9579 29.229C98.9579 29.7957 98.7879 30.3 98.4479 30.742C98.1079 31.184 97.6092 31.5297 96.9519 31.779C96.3059 32.017 95.5352 32.136 94.6399 32.136ZM105.014 32.136C104.039 32.136 103.161 31.9377 102.379 31.541C101.608 31.133 101.002 30.572 100.56 29.858C100.129 29.144 99.9141 28.3337 99.9141 27.427C99.9141 26.5203 100.129 25.71 100.56 24.996C101.002 24.282 101.608 23.7267 102.379 23.33C103.161 22.922 104.039 22.718 105.014 22.718C105.977 22.718 106.816 22.922 107.53 23.33C108.255 23.7267 108.782 24.299 109.111 25.047L107.054 26.152C106.578 25.3133 105.892 24.894 104.997 24.894C104.306 24.894 103.733 25.1207 103.28 25.574C102.827 26.0273 102.6 26.645 102.6 27.427C102.6 28.209 102.827 28.8267 103.28 29.28C103.733 29.7333 104.306 29.96 104.997 29.96C105.904 29.96 106.589 29.5407 107.054 28.702L109.111 29.824C108.782 30.5493 108.255 31.116 107.53 31.524C106.816 31.932 105.977 32.136 105.014 32.136ZM113.171 24.061C113.488 23.619 113.913 23.2847 114.446 23.058C114.99 22.8313 115.613 22.718 116.316 22.718V25.166C116.021 25.1433 115.823 25.132 115.721 25.132C114.962 25.132 114.367 25.3473 113.936 25.778C113.505 26.1973 113.29 26.832 113.29 27.682V32H110.638V22.854H113.171V24.061ZM117.893 22.854H120.545V32H117.893V22.854ZM119.219 21.579C118.732 21.579 118.335 21.4373 118.029 21.154C117.723 20.8707 117.57 20.5193 117.57 20.1C117.57 19.6807 117.723 19.3293 118.029 19.046C118.335 18.7627 118.732 18.621 119.219 18.621C119.706 18.621 120.103 18.757 120.409 19.029C120.715 19.301 120.868 19.641 120.868 20.049C120.868 20.491 120.715 20.8593 120.409 21.154C120.103 21.4373 119.706 21.579 119.219 21.579ZM128.412 22.718C129.262 22.718 130.033 22.9163 130.724 23.313C131.427 23.6983 131.977 24.248 132.373 24.962C132.77 25.6647 132.968 26.4863 132.968 27.427C132.968 28.3677 132.77 29.195 132.373 29.909C131.977 30.6117 131.427 31.1613 130.724 31.558C130.033 31.9433 129.262 32.136 128.412 32.136C127.154 32.136 126.197 31.7393 125.539 30.946V32H123.006V19.386H125.658V23.823C126.327 23.0863 127.245 22.718 128.412 22.718ZM127.953 29.96C128.633 29.96 129.189 29.7333 129.619 29.28C130.061 28.8153 130.282 28.1977 130.282 27.427C130.282 26.6563 130.061 26.0443 129.619 25.591C129.189 25.1263 128.633 24.894 127.953 24.894C127.273 24.894 126.712 25.1263 126.27 25.591C125.84 26.0443 125.624 26.6563 125.624 27.427C125.624 28.1977 125.84 28.8153 126.27 29.28C126.712 29.7333 127.273 29.96 127.953 29.96ZM134.744 22.854H137.396V32H134.744V22.854ZM136.07 21.579C135.582 21.579 135.186 21.4373 134.88 21.154C134.574 20.8707 134.421 20.5193 134.421 20.1C134.421 19.6807 134.574 19.3293 134.88 19.046C135.186 18.7627 135.582 18.621 136.07 18.621C136.557 18.621 136.954 18.757 137.26 19.029C137.566 19.301 137.719 19.641 137.719 20.049C137.719 20.491 137.566 20.8593 137.26 21.154C136.954 21.4373 136.557 21.579 136.07 21.579ZM142.39 24.061C142.707 23.619 143.132 23.2847 143.665 23.058C144.209 22.8313 144.832 22.718 145.535 22.718V25.166C145.24 25.1433 145.042 25.132 144.94 25.132C144.18 25.132 143.585 25.3473 143.155 25.778C142.724 26.1973 142.509 26.832 142.509 27.682V32H139.857V22.854H142.39V24.061ZM163.706 22.718C164.85 22.718 165.757 23.058 166.426 23.738C167.106 24.4067 167.446 25.4153 167.446 26.764V32H164.794V27.172C164.794 26.4467 164.641 25.9083 164.335 25.557C164.04 25.1943 163.615 25.013 163.06 25.013C162.436 25.013 161.943 25.217 161.581 25.625C161.218 26.0217 161.037 26.6167 161.037 27.41V32H158.385V27.172C158.385 25.7327 157.807 25.013 156.651 25.013C156.039 25.013 155.551 25.217 155.189 25.625C154.826 26.0217 154.645 26.6167 154.645 27.41V32H151.993V22.854H154.526V23.908C154.866 23.5227 155.279 23.228 155.767 23.024C156.265 22.82 156.809 22.718 157.399 22.718C158.045 22.718 158.628 22.8483 159.15 23.109C159.671 23.3583 160.09 23.7267 160.408 24.214C160.782 23.738 161.252 23.3697 161.819 23.109C162.397 22.8483 163.026 22.718 163.706 22.718ZM169.823 22.854H172.475V32H169.823V22.854ZM171.149 21.579C170.661 21.579 170.265 21.4373 169.959 21.154C169.653 20.8707 169.5 20.5193 169.5 20.1C169.5 19.6807 169.653 19.3293 169.959 19.046C170.265 18.7627 170.661 18.621 171.149 18.621C171.636 18.621 172.033 18.757 172.339 19.029C172.645 19.301 172.798 19.641 172.798 20.049C172.798 20.491 172.645 20.8593 172.339 21.154C172.033 21.4373 171.636 21.579 171.149 21.579ZM185.309 22.718C186.443 22.718 187.355 23.058 188.046 23.738C188.749 24.418 189.1 25.4267 189.1 26.764V32H186.448V27.172C186.448 26.4467 186.29 25.9083 185.972 25.557C185.655 25.1943 185.196 25.013 184.595 25.013C183.927 25.013 183.394 25.2227 182.997 25.642C182.601 26.05 182.402 26.662 182.402 27.478V32H179.75V22.854H182.283V23.925C182.635 23.5397 183.071 23.245 183.592 23.041C184.114 22.8257 184.686 22.718 185.309 22.718ZM195.956 32.136C194.993 32.136 194.126 31.9377 193.355 31.541C192.596 31.133 192.001 30.572 191.57 29.858C191.139 29.144 190.924 28.3337 190.924 27.427C190.924 26.5203 191.139 25.71 191.57 24.996C192.001 24.282 192.596 23.7267 193.355 23.33C194.126 22.922 194.993 22.718 195.956 22.718C196.919 22.718 197.781 22.922 198.54 23.33C199.299 23.7267 199.894 24.282 200.325 24.996C200.756 25.71 200.971 26.5203 200.971 27.427C200.971 28.3337 200.756 29.144 200.325 29.858C199.894 30.572 199.299 31.133 198.54 31.541C197.781 31.9377 196.919 32.136 195.956 32.136ZM195.956 29.96C196.636 29.96 197.191 29.7333 197.622 29.28C198.064 28.8153 198.285 28.1977 198.285 27.427C198.285 26.6563 198.064 26.0443 197.622 25.591C197.191 25.1263 196.636 24.894 195.956 24.894C195.276 24.894 194.715 25.1263 194.273 25.591C193.831 26.0443 193.61 26.6563 193.61 27.427C193.61 28.1977 193.831 28.8153 194.273 29.28C194.715 29.7333 195.276 29.96 195.956 29.96ZM214.457 22.718C215.601 22.718 216.508 23.058 217.177 23.738C217.857 24.4067 218.197 25.4153 218.197 26.764V32H215.545V27.172C215.545 26.4467 215.392 25.9083 215.086 25.557C214.791 25.1943 214.366 25.013 213.811 25.013C213.187 25.013 212.694 25.217 212.332 25.625C211.969 26.0217 211.788 26.6167 211.788 27.41V32H209.136V27.172C209.136 25.7327 208.558 25.013 207.402 25.013C206.79 25.013 206.302 25.217 205.94 25.625C205.577 26.0217 205.396 26.6167 205.396 27.41V32H202.744V22.854H205.277V23.908C205.617 23.5227 206.03 23.228 206.518 23.024C207.016 22.82 207.56 22.718 208.15 22.718C208.796 22.718 209.379 22.8483 209.901 23.109C210.422 23.3583 210.841 23.7267 211.159 24.214C211.533 23.738 212.003 23.3697 212.57 23.109C213.148 22.8483 213.777 22.718 214.457 22.718ZM225.98 22.718C226.83 22.718 227.6 22.9163 228.292 23.313C228.994 23.6983 229.544 24.248 229.941 24.962C230.337 25.6647 230.536 26.4863 230.536 27.427C230.536 28.3677 230.337 29.195 229.941 29.909C229.544 30.6117 228.994 31.1613 228.292 31.558C227.6 31.9433 226.83 32.136 225.98 32.136C224.722 32.136 223.764 31.7393 223.107 30.946V32H220.574V19.386H223.226V23.823C223.894 23.0863 224.812 22.718 225.98 22.718ZM225.521 29.96C226.201 29.96 226.756 29.7333 227.187 29.28C227.629 28.8153 227.85 28.1977 227.85 27.427C227.85 26.6563 227.629 26.0443 227.187 25.591C226.756 25.1263 226.201 24.894 225.521 24.894C224.841 24.894 224.28 25.1263 223.838 25.591C223.407 26.0443 223.192 26.6563 223.192 27.427C223.192 28.1977 223.407 28.8153 223.838 29.28C224.28 29.7333 224.841 29.96 225.521 29.96ZM234.844 24.061C235.161 23.619 235.586 23.2847 236.119 23.058C236.663 22.8313 237.286 22.718 237.989 22.718V25.166C237.694 25.1433 237.496 25.132 237.394 25.132C236.635 25.132 236.04 25.3473 235.609 25.778C235.178 26.1973 234.963 26.832 234.963 27.682V32H232.311V22.854H234.844V24.061ZM248.442 27.461C248.442 27.495 248.425 27.733 248.391 28.175H241.472C241.596 28.7417 241.891 29.1893 242.356 29.518C242.82 29.8467 243.398 30.011 244.09 30.011C244.566 30.011 244.985 29.943 245.348 29.807C245.722 29.6597 246.067 29.433 246.385 29.127L247.796 30.657C246.934 31.643 245.676 32.136 244.022 32.136C242.99 32.136 242.078 31.9377 241.285 31.541C240.491 31.133 239.879 30.572 239.449 29.858C239.018 29.144 238.803 28.3337 238.803 27.427C238.803 26.5317 239.012 25.727 239.432 25.013C239.862 24.2877 240.446 23.7267 241.183 23.33C241.931 22.922 242.764 22.718 243.682 22.718C244.577 22.718 245.387 22.9107 246.113 23.296C246.838 23.6813 247.405 24.2367 247.813 24.962C248.232 25.676 248.442 26.509 248.442 27.461ZM243.699 24.724C243.098 24.724 242.594 24.894 242.186 25.234C241.778 25.574 241.528 26.0387 241.438 26.628H245.943C245.852 26.05 245.603 25.591 245.195 25.251C244.787 24.8997 244.288 24.724 243.699 24.724Z" fill="black"/>
</svg>
