<svg width="330" height="49" viewBox="0 0 330 49" fill="none" xmlns="http://www.w3.org/2000/svg">
<rect width="330" height="49" rx="5" fill="#FFD233"/>
<path d="M108.106 32.204C106.893 32.204 105.794 31.9433 104.808 31.422C103.833 30.8893 103.063 30.1583 102.496 29.229C101.941 28.2883 101.663 27.2287 101.663 26.05C101.663 24.8713 101.941 23.8173 102.496 22.888C103.063 21.9473 103.833 21.2163 104.808 20.695C105.794 20.1623 106.899 19.896 108.123 19.896C109.154 19.896 110.084 20.0773 110.911 20.44C111.75 20.8027 112.452 21.324 113.019 22.004L111.251 23.636C110.446 22.7067 109.449 22.242 108.259 22.242C107.522 22.242 106.865 22.4063 106.287 22.735C105.709 23.0523 105.256 23.5 104.927 24.078C104.61 24.656 104.451 25.3133 104.451 26.05C104.451 26.7867 104.61 27.444 104.927 28.022C105.256 28.6 105.709 29.0533 106.287 29.382C106.865 29.6993 107.522 29.858 108.259 29.858C109.449 29.858 110.446 29.3877 111.251 28.447L113.019 30.079C112.452 30.7703 111.75 31.2973 110.911 31.66C110.072 32.0227 109.137 32.204 108.106 32.204ZM118.728 32.136C117.765 32.136 116.898 31.9377 116.127 31.541C115.368 31.133 114.773 30.572 114.342 29.858C113.912 29.144 113.696 28.3337 113.696 27.427C113.696 26.5203 113.912 25.71 114.342 24.996C114.773 24.282 115.368 23.7267 116.127 23.33C116.898 22.922 117.765 22.718 118.728 22.718C119.692 22.718 120.553 22.922 121.312 23.33C122.072 23.7267 122.667 24.282 123.097 24.996C123.528 25.71 123.743 26.5203 123.743 27.427C123.743 28.3337 123.528 29.144 123.097 29.858C122.667 30.572 122.072 31.133 121.312 31.541C120.553 31.9377 119.692 32.136 118.728 32.136ZM118.728 29.96C119.408 29.96 119.964 29.7333 120.394 29.28C120.836 28.8153 121.057 28.1977 121.057 27.427C121.057 26.6563 120.836 26.0443 120.394 25.591C119.964 25.1263 119.408 24.894 118.728 24.894C118.048 24.894 117.487 25.1263 117.045 25.591C116.603 26.0443 116.382 26.6563 116.382 27.427C116.382 28.1977 116.603 28.8153 117.045 29.28C117.487 29.7333 118.048 29.96 118.728 29.96ZM119.442 19.233H122.298L119.221 21.681H117.147L119.442 19.233ZM134.832 19.386V32H132.299V30.946C131.642 31.7393 130.69 32.136 129.443 32.136C128.582 32.136 127.8 31.9433 127.097 31.558C126.406 31.1727 125.862 30.623 125.465 29.909C125.068 29.195 124.87 28.3677 124.87 27.427C124.87 26.4863 125.068 25.659 125.465 24.945C125.862 24.231 126.406 23.6813 127.097 23.296C127.8 22.9107 128.582 22.718 129.443 22.718C130.61 22.718 131.523 23.0863 132.18 23.823V19.386H134.832ZM129.902 29.96C130.571 29.96 131.126 29.7333 131.568 29.28C132.01 28.8153 132.231 28.1977 132.231 27.427C132.231 26.6563 132.01 26.0443 131.568 25.591C131.126 25.1263 130.571 24.894 129.902 24.894C129.222 24.894 128.661 25.1263 128.219 25.591C127.777 26.0443 127.556 26.6563 127.556 27.427C127.556 28.1977 127.777 28.8153 128.219 29.28C128.661 29.7333 129.222 29.96 129.902 29.96ZM137.287 22.854H139.939V32H137.287V22.854ZM138.613 21.579C138.125 21.579 137.729 21.4373 137.423 21.154C137.117 20.8707 136.964 20.5193 136.964 20.1C136.964 19.6807 137.117 19.3293 137.423 19.046C137.729 18.7627 138.125 18.621 138.613 18.621C139.1 18.621 139.497 18.757 139.803 19.029C140.109 19.301 140.262 19.641 140.262 20.049C140.262 20.491 140.109 20.8593 139.803 21.154C139.497 21.4373 139.1 21.579 138.613 21.579ZM151.835 22.854V30.47C151.835 32.1473 151.398 33.394 150.526 34.21C149.653 35.026 148.378 35.434 146.701 35.434C145.817 35.434 144.978 35.3263 144.185 35.111C143.391 34.8957 142.734 34.584 142.213 34.176L143.267 32.272C143.652 32.5893 144.139 32.8387 144.729 33.02C145.318 33.2127 145.907 33.309 146.497 33.309C147.415 33.309 148.089 33.0993 148.52 32.68C148.962 32.272 149.183 31.6487 149.183 30.81V30.419C148.491 31.1783 147.528 31.558 146.293 31.558C145.454 31.558 144.683 31.3767 143.981 31.014C143.289 30.64 142.74 30.1187 142.332 29.45C141.924 28.7813 141.72 28.0107 141.72 27.138C141.72 26.2653 141.924 25.4947 142.332 24.826C142.74 24.1573 143.289 23.6417 143.981 23.279C144.683 22.905 145.454 22.718 146.293 22.718C147.619 22.718 148.627 23.1543 149.319 24.027V22.854H151.835ZM146.82 29.382C147.522 29.382 148.095 29.178 148.537 28.77C148.99 28.3507 149.217 27.8067 149.217 27.138C149.217 26.4693 148.99 25.931 148.537 25.523C148.095 25.1037 147.522 24.894 146.82 24.894C146.117 24.894 145.539 25.1037 145.086 25.523C144.632 25.931 144.406 26.4693 144.406 27.138C144.406 27.8067 144.632 28.3507 145.086 28.77C145.539 29.178 146.117 29.382 146.82 29.382ZM158.655 32.136C157.692 32.136 156.825 31.9377 156.054 31.541C155.295 31.133 154.7 30.572 154.269 29.858C153.838 29.144 153.623 28.3337 153.623 27.427C153.623 26.5203 153.838 25.71 154.269 24.996C154.7 24.282 155.295 23.7267 156.054 23.33C156.825 22.922 157.692 22.718 158.655 22.718C159.618 22.718 160.48 22.922 161.239 23.33C161.998 23.7267 162.593 24.282 163.024 24.996C163.455 25.71 163.67 26.5203 163.67 27.427C163.67 28.3337 163.455 29.144 163.024 29.858C162.593 30.572 161.998 31.133 161.239 31.541C160.48 31.9377 159.618 32.136 158.655 32.136ZM158.655 29.96C159.335 29.96 159.89 29.7333 160.321 29.28C160.763 28.8153 160.984 28.1977 160.984 27.427C160.984 26.6563 160.763 26.0443 160.321 25.591C159.89 25.1263 159.335 24.894 158.655 24.894C157.975 24.894 157.414 25.1263 156.972 25.591C156.53 26.0443 156.309 26.6563 156.309 27.427C156.309 28.1977 156.53 28.8153 156.972 29.28C157.414 29.7333 157.975 29.96 158.655 29.96ZM175.663 22.718C176.513 22.718 177.284 22.9163 177.975 23.313C178.678 23.6983 179.228 24.248 179.624 24.962C180.021 25.6647 180.219 26.4863 180.219 27.427C180.219 28.3677 180.021 29.195 179.624 29.909C179.228 30.6117 178.678 31.1613 177.975 31.558C177.284 31.9433 176.513 32.136 175.663 32.136C174.496 32.136 173.578 31.7677 172.909 31.031V35.298H170.257V22.854H172.79V23.908C173.448 23.1147 174.405 22.718 175.663 22.718ZM175.204 29.96C175.884 29.96 176.44 29.7333 176.87 29.28C177.312 28.8153 177.533 28.1977 177.533 27.427C177.533 26.6563 177.312 26.0443 176.87 25.591C176.44 25.1263 175.884 24.894 175.204 24.894C174.524 24.894 173.963 25.1263 173.521 25.591C173.091 26.0443 172.875 26.6563 172.875 27.427C172.875 28.1977 173.091 28.8153 173.521 29.28C173.963 29.7333 174.524 29.96 175.204 29.96ZM186.347 32.136C185.383 32.136 184.516 31.9377 183.746 31.541C182.986 31.133 182.391 30.572 181.961 29.858C181.53 29.144 181.315 28.3337 181.315 27.427C181.315 26.5203 181.53 25.71 181.961 24.996C182.391 24.282 182.986 23.7267 183.746 23.33C184.516 22.922 185.383 22.718 186.347 22.718C187.31 22.718 188.171 22.922 188.931 23.33C189.69 23.7267 190.285 24.282 190.716 24.996C191.146 25.71 191.362 26.5203 191.362 27.427C191.362 28.3337 191.146 29.144 190.716 29.858C190.285 30.572 189.69 31.133 188.931 31.541C188.171 31.9377 187.31 32.136 186.347 32.136ZM186.347 29.96C187.027 29.96 187.582 29.7333 188.013 29.28C188.455 28.8153 188.676 28.1977 188.676 27.427C188.676 26.6563 188.455 26.0443 188.013 25.591C187.582 25.1263 187.027 24.894 186.347 24.894C185.667 24.894 185.106 25.1263 184.664 25.591C184.222 26.0443 184.001 26.6563 184.001 27.427C184.001 28.1977 184.222 28.8153 184.664 29.28C185.106 29.7333 185.667 29.96 186.347 29.96ZM196.211 32.136C195.452 32.136 194.709 32.0453 193.984 31.864C193.259 31.6713 192.681 31.4333 192.25 31.15L193.134 29.246C193.542 29.5067 194.035 29.722 194.613 29.892C195.191 30.0507 195.758 30.13 196.313 30.13C197.435 30.13 197.996 29.8523 197.996 29.297C197.996 29.0363 197.843 28.8493 197.537 28.736C197.231 28.6227 196.761 28.5263 196.126 28.447C195.378 28.3337 194.76 28.2033 194.273 28.056C193.786 27.9087 193.361 27.648 192.998 27.274C192.647 26.9 192.471 26.3673 192.471 25.676C192.471 25.098 192.635 24.588 192.964 24.146C193.304 23.6927 193.791 23.3413 194.426 23.092C195.072 22.8427 195.831 22.718 196.704 22.718C197.35 22.718 197.99 22.7917 198.625 22.939C199.271 23.075 199.804 23.2677 200.223 23.517L199.339 25.404C198.534 24.9507 197.656 24.724 196.704 24.724C196.137 24.724 195.712 24.8033 195.429 24.962C195.146 25.1207 195.004 25.3247 195.004 25.574C195.004 25.8573 195.157 26.0557 195.463 26.169C195.769 26.2823 196.256 26.39 196.925 26.492C197.673 26.6167 198.285 26.7527 198.761 26.9C199.237 27.036 199.651 27.291 200.002 27.665C200.353 28.039 200.529 28.5603 200.529 29.229C200.529 29.7957 200.359 30.3 200.019 30.742C199.679 31.184 199.18 31.5297 198.523 31.779C197.877 32.017 197.106 32.136 196.211 32.136ZM208.064 31.558C207.804 31.7507 207.481 31.898 207.095 32C206.721 32.0907 206.325 32.136 205.905 32.136C204.817 32.136 203.973 31.8583 203.372 31.303C202.783 30.7477 202.488 29.9317 202.488 28.855V25.098H201.077V23.058H202.488V20.831H205.14V23.058H207.418V25.098H205.14V28.821C205.14 29.2063 205.237 29.5067 205.429 29.722C205.633 29.926 205.917 30.028 206.279 30.028C206.699 30.028 207.056 29.9147 207.35 29.688L208.064 31.558ZM213.242 22.718C214.659 22.718 215.747 23.058 216.506 23.738C217.265 24.4067 217.645 25.421 217.645 26.781V32H215.163V30.861C214.664 31.711 213.735 32.136 212.375 32.136C211.672 32.136 211.06 32.017 210.539 31.779C210.029 31.541 209.638 31.2123 209.366 30.793C209.094 30.3737 208.958 29.8977 208.958 29.365C208.958 28.515 209.275 27.8463 209.91 27.359C210.556 26.8717 211.548 26.628 212.885 26.628H214.993C214.993 26.05 214.817 25.608 214.466 25.302C214.115 24.9847 213.588 24.826 212.885 24.826C212.398 24.826 211.916 24.9053 211.44 25.064C210.975 25.2113 210.579 25.4153 210.25 25.676L209.298 23.823C209.797 23.4717 210.392 23.1997 211.083 23.007C211.786 22.8143 212.505 22.718 213.242 22.718ZM213.038 30.351C213.491 30.351 213.894 30.249 214.245 30.045C214.596 29.8297 214.846 29.518 214.993 29.11V28.175H213.174C212.086 28.175 211.542 28.532 211.542 29.246C211.542 29.586 211.672 29.858 211.933 30.062C212.205 30.2547 212.573 30.351 213.038 30.351ZM220.045 19.386H222.697V32H220.045V19.386Z" fill="black"/>
</svg>
