<svg width="330" height="49" viewBox="0 0 330 49" fill="none" xmlns="http://www.w3.org/2000/svg">
<rect width="330" height="49" rx="5" fill="#FFD233"/>
<path d="M103.625 29.79V32H94.411V20.1H103.404V22.31H97.148V24.894H102.673V27.036H97.148V29.79H103.625ZM108.64 32.136C107.881 32.136 107.138 32.0453 106.413 31.864C105.688 31.6713 105.11 31.4333 104.679 31.15L105.563 29.246C105.971 29.5067 106.464 29.722 107.042 29.892C107.62 30.0507 108.187 30.13 108.742 30.13C109.864 30.13 110.425 29.8523 110.425 29.297C110.425 29.0363 110.272 28.8493 109.966 28.736C109.66 28.6227 109.19 28.5263 108.555 28.447C107.807 28.3337 107.189 28.2033 106.702 28.056C106.215 27.9087 105.79 27.648 105.427 27.274C105.076 26.9 104.9 26.3673 104.9 25.676C104.9 25.098 105.064 24.588 105.393 24.146C105.733 23.6927 106.22 23.3413 106.855 23.092C107.501 22.8427 108.26 22.718 109.133 22.718C109.779 22.718 110.419 22.7917 111.054 22.939C111.7 23.075 112.233 23.2677 112.652 23.517L111.768 25.404C110.963 24.9507 110.085 24.724 109.133 24.724C108.566 24.724 108.141 24.8033 107.858 24.962C107.575 25.1207 107.433 25.3247 107.433 25.574C107.433 25.8573 107.586 26.0557 107.892 26.169C108.198 26.2823 108.685 26.39 109.354 26.492C110.102 26.6167 110.714 26.7527 111.19 26.9C111.666 27.036 112.08 27.291 112.431 27.665C112.782 28.039 112.958 28.5603 112.958 29.229C112.958 29.7957 112.788 30.3 112.448 30.742C112.108 31.184 111.609 31.5297 110.952 31.779C110.306 32.017 109.535 32.136 108.64 32.136ZM119.014 32.136C118.039 32.136 117.161 31.9377 116.379 31.541C115.608 31.133 115.002 30.572 114.56 29.858C114.129 29.144 113.914 28.3337 113.914 27.427C113.914 26.5203 114.129 25.71 114.56 24.996C115.002 24.282 115.608 23.7267 116.379 23.33C117.161 22.922 118.039 22.718 119.014 22.718C119.977 22.718 120.816 22.922 121.53 23.33C122.255 23.7267 122.782 24.299 123.111 25.047L121.054 26.152C120.578 25.3133 119.892 24.894 118.997 24.894C118.306 24.894 117.733 25.1207 117.28 25.574C116.827 26.0273 116.6 26.645 116.6 27.427C116.6 28.209 116.827 28.8267 117.28 29.28C117.733 29.7333 118.306 29.96 118.997 29.96C119.904 29.96 120.589 29.5407 121.054 28.702L123.111 29.824C122.782 30.5493 122.255 31.116 121.53 31.524C120.816 31.932 119.977 32.136 119.014 32.136ZM127.171 24.061C127.488 23.619 127.913 23.2847 128.446 23.058C128.99 22.8313 129.613 22.718 130.316 22.718V25.166C130.021 25.1433 129.823 25.132 129.721 25.132C128.962 25.132 128.367 25.3473 127.936 25.778C127.505 26.1973 127.29 26.832 127.29 27.682V32H124.638V22.854H127.171V24.061ZM131.893 22.854H134.545V32H131.893V22.854ZM133.219 21.579C132.732 21.579 132.335 21.4373 132.029 21.154C131.723 20.8707 131.57 20.5193 131.57 20.1C131.57 19.6807 131.723 19.3293 132.029 19.046C132.335 18.7627 132.732 18.621 133.219 18.621C133.706 18.621 134.103 18.757 134.409 19.029C134.715 19.301 134.868 19.641 134.868 20.049C134.868 20.491 134.715 20.8593 134.409 21.154C134.103 21.4373 133.706 21.579 133.219 21.579ZM142.412 22.718C143.262 22.718 144.033 22.9163 144.724 23.313C145.427 23.6983 145.977 24.248 146.373 24.962C146.77 25.6647 146.968 26.4863 146.968 27.427C146.968 28.3677 146.77 29.195 146.373 29.909C145.977 30.6117 145.427 31.1613 144.724 31.558C144.033 31.9433 143.262 32.136 142.412 32.136C141.154 32.136 140.197 31.7393 139.539 30.946V32H137.006V19.386H139.658V23.823C140.327 23.0863 141.245 22.718 142.412 22.718ZM141.953 29.96C142.633 29.96 143.189 29.7333 143.619 29.28C144.061 28.8153 144.282 28.1977 144.282 27.427C144.282 26.6563 144.061 26.0443 143.619 25.591C143.189 25.1263 142.633 24.894 141.953 24.894C141.273 24.894 140.712 25.1263 140.27 25.591C139.84 26.0443 139.624 26.6563 139.624 27.427C139.624 28.1977 139.84 28.8153 140.27 29.28C140.712 29.7333 141.273 29.96 141.953 29.96ZM148.744 22.854H151.396V32H148.744V22.854ZM150.07 21.579C149.582 21.579 149.186 21.4373 148.88 21.154C148.574 20.8707 148.421 20.5193 148.421 20.1C148.421 19.6807 148.574 19.3293 148.88 19.046C149.186 18.7627 149.582 18.621 150.07 18.621C150.557 18.621 150.954 18.757 151.26 19.029C151.566 19.301 151.719 19.641 151.719 20.049C151.719 20.491 151.566 20.8593 151.26 21.154C150.954 21.4373 150.557 21.579 150.07 21.579ZM156.39 24.061C156.707 23.619 157.132 23.2847 157.665 23.058C158.209 22.8313 158.832 22.718 159.535 22.718V25.166C159.24 25.1433 159.042 25.132 158.94 25.132C158.18 25.132 157.585 25.3473 157.155 25.778C156.724 26.1973 156.509 26.832 156.509 27.682V32H153.857V22.854H156.39V24.061ZM177.706 22.718C178.85 22.718 179.757 23.058 180.426 23.738C181.106 24.4067 181.446 25.4153 181.446 26.764V32H178.794V27.172C178.794 26.4467 178.641 25.9083 178.335 25.557C178.04 25.1943 177.615 25.013 177.06 25.013C176.436 25.013 175.943 25.217 175.581 25.625C175.218 26.0217 175.037 26.6167 175.037 27.41V32H172.385V27.172C172.385 25.7327 171.807 25.013 170.651 25.013C170.039 25.013 169.551 25.217 169.189 25.625C168.826 26.0217 168.645 26.6167 168.645 27.41V32H165.993V22.854H168.526V23.908C168.866 23.5227 169.279 23.228 169.767 23.024C170.265 22.82 170.809 22.718 171.399 22.718C172.045 22.718 172.628 22.8483 173.15 23.109C173.671 23.3583 174.09 23.7267 174.408 24.214C174.782 23.738 175.252 23.3697 175.819 23.109C176.397 22.8483 177.026 22.718 177.706 22.718ZM183.823 22.854H186.475V32H183.823V22.854ZM185.149 21.579C184.661 21.579 184.265 21.4373 183.959 21.154C183.653 20.8707 183.5 20.5193 183.5 20.1C183.5 19.6807 183.653 19.3293 183.959 19.046C184.265 18.7627 184.661 18.621 185.149 18.621C185.636 18.621 186.033 18.757 186.339 19.029C186.645 19.301 186.798 19.641 186.798 20.049C186.798 20.491 186.645 20.8593 186.339 21.154C186.033 21.4373 185.636 21.579 185.149 21.579ZM205.463 22.718C206.608 22.718 207.515 23.058 208.183 23.738C208.863 24.4067 209.203 25.4153 209.203 26.764V32H206.551V27.172C206.551 26.4467 206.398 25.9083 206.092 25.557C205.798 25.1943 205.373 25.013 204.817 25.013C204.194 25.013 203.701 25.217 203.338 25.625C202.976 26.0217 202.794 26.6167 202.794 27.41V32H200.142V27.172C200.142 25.7327 199.564 25.013 198.408 25.013C197.796 25.013 197.309 25.217 196.946 25.625C196.584 26.0217 196.402 26.6167 196.402 27.41V32H193.75V22.854H196.283V23.908C196.623 23.5227 197.037 23.228 197.524 23.024C198.023 22.82 198.567 22.718 199.156 22.718C199.802 22.718 200.386 22.8483 200.907 23.109C201.429 23.3583 201.848 23.7267 202.165 24.214C202.539 23.738 203.01 23.3697 203.576 23.109C204.154 22.8483 204.783 22.718 205.463 22.718ZM215.269 22.718C216.686 22.718 217.774 23.058 218.533 23.738C219.293 24.4067 219.672 25.421 219.672 26.781V32H217.19V30.861C216.692 31.711 215.762 32.136 214.402 32.136C213.7 32.136 213.088 32.017 212.566 31.779C212.056 31.541 211.665 31.2123 211.393 30.793C211.121 30.3737 210.985 29.8977 210.985 29.365C210.985 28.515 211.303 27.8463 211.937 27.359C212.583 26.8717 213.575 26.628 214.912 26.628H217.02C217.02 26.05 216.845 25.608 216.493 25.302C216.142 24.9847 215.615 24.826 214.912 24.826C214.425 24.826 213.943 24.9053 213.467 25.064C213.003 25.2113 212.606 25.4153 212.277 25.676L211.325 23.823C211.824 23.4717 212.419 23.1997 213.11 23.007C213.813 22.8143 214.533 22.718 215.269 22.718ZM215.065 30.351C215.519 30.351 215.921 30.249 216.272 30.045C216.624 29.8297 216.873 29.518 217.02 29.11V28.175H215.201C214.113 28.175 213.569 28.532 213.569 29.246C213.569 29.586 213.7 29.858 213.96 30.062C214.232 30.2547 214.601 30.351 215.065 30.351ZM222.073 22.854H224.725V32H222.073V22.854ZM223.399 21.579C222.911 21.579 222.515 21.4373 222.209 21.154C221.903 20.8707 221.75 20.5193 221.75 20.1C221.75 19.6807 221.903 19.3293 222.209 19.046C222.515 18.7627 222.911 18.621 223.399 18.621C223.886 18.621 224.283 18.757 224.589 19.029C224.895 19.301 225.048 19.641 225.048 20.049C225.048 20.491 224.895 20.8593 224.589 21.154C224.283 21.4373 223.886 21.579 223.399 21.579ZM227.186 19.386H229.838V32H227.186V19.386Z" fill="black"/>
</svg>
