<svg width="330" height="49" viewBox="0 0 330 49" fill="none" xmlns="http://www.w3.org/2000/svg">
<rect width="330" height="49" rx="5" fill="#FFD233"/>
<path d="M79.625 29.79V32H70.411V20.1H79.404V22.31H73.148V24.894H78.673V27.036H73.148V29.79H79.625ZM84.6399 32.136C83.8805 32.136 83.1382 32.0453 82.4129 31.864C81.6875 31.6713 81.1095 31.4333 80.6789 31.15L81.5629 29.246C81.9709 29.5067 82.4639 29.722 83.0419 29.892C83.6199 30.0507 84.1865 30.13 84.7419 30.13C85.8639 30.13 86.4249 29.8523 86.4249 29.297C86.4249 29.0363 86.2719 28.8493 85.9659 28.736C85.6599 28.6227 85.1895 28.5263 84.5549 28.447C83.8069 28.3337 83.1892 28.2033 82.7019 28.056C82.2145 27.9087 81.7895 27.648 81.4269 27.274C81.0755 26.9 80.8999 26.3673 80.8999 25.676C80.8999 25.098 81.0642 24.588 81.3929 24.146C81.7329 23.6927 82.2202 23.3413 82.8549 23.092C83.5009 22.8427 84.2602 22.718 85.1329 22.718C85.7789 22.718 86.4192 22.7917 87.0539 22.939C87.6999 23.075 88.2325 23.2677 88.6519 23.517L87.7679 25.404C86.9632 24.9507 86.0849 24.724 85.1329 24.724C84.5662 24.724 84.1412 24.8033 83.8579 24.962C83.5745 25.1207 83.4329 25.3247 83.4329 25.574C83.4329 25.8573 83.5859 26.0557 83.8919 26.169C84.1979 26.2823 84.6852 26.39 85.3539 26.492C86.1019 26.6167 86.7139 26.7527 87.1899 26.9C87.6659 27.036 88.0795 27.291 88.4309 27.665C88.7822 28.039 88.9579 28.5603 88.9579 29.229C88.9579 29.7957 88.7879 30.3 88.4479 30.742C88.1079 31.184 87.6092 31.5297 86.9519 31.779C86.3059 32.017 85.5352 32.136 84.6399 32.136ZM95.0141 32.136C94.0395 32.136 93.1611 31.9377 92.3791 31.541C91.6085 31.133 91.0021 30.572 90.5601 29.858C90.1295 29.144 89.9141 28.3337 89.9141 27.427C89.9141 26.5203 90.1295 25.71 90.5601 24.996C91.0021 24.282 91.6085 23.7267 92.3791 23.33C93.1611 22.922 94.0395 22.718 95.0141 22.718C95.9775 22.718 96.8161 22.922 97.5301 23.33C98.2555 23.7267 98.7825 24.299 99.1111 25.047L97.0541 26.152C96.5781 25.3133 95.8925 24.894 94.9971 24.894C94.3058 24.894 93.7335 25.1207 93.2801 25.574C92.8268 26.0273 92.6001 26.645 92.6001 27.427C92.6001 28.209 92.8268 28.8267 93.2801 29.28C93.7335 29.7333 94.3058 29.96 94.9971 29.96C95.9038 29.96 96.5895 29.5407 97.0541 28.702L99.1111 29.824C98.7825 30.5493 98.2555 31.116 97.5301 31.524C96.8161 31.932 95.9775 32.136 95.0141 32.136ZM103.171 24.061C103.488 23.619 103.913 23.2847 104.446 23.058C104.99 22.8313 105.613 22.718 106.316 22.718V25.166C106.021 25.1433 105.823 25.132 105.721 25.132C104.962 25.132 104.367 25.3473 103.936 25.778C103.505 26.1973 103.29 26.832 103.29 27.682V32H100.638V22.854H103.171V24.061ZM107.893 22.854H110.545V32H107.893V22.854ZM109.219 21.579C108.732 21.579 108.335 21.4373 108.029 21.154C107.723 20.8707 107.57 20.5193 107.57 20.1C107.57 19.6807 107.723 19.3293 108.029 19.046C108.335 18.7627 108.732 18.621 109.219 18.621C109.706 18.621 110.103 18.757 110.409 19.029C110.715 19.301 110.868 19.641 110.868 20.049C110.868 20.491 110.715 20.8593 110.409 21.154C110.103 21.4373 109.706 21.579 109.219 21.579ZM118.412 22.718C119.262 22.718 120.033 22.9163 120.724 23.313C121.427 23.6983 121.977 24.248 122.373 24.962C122.77 25.6647 122.968 26.4863 122.968 27.427C122.968 28.3677 122.77 29.195 122.373 29.909C121.977 30.6117 121.427 31.1613 120.724 31.558C120.033 31.9433 119.262 32.136 118.412 32.136C117.154 32.136 116.197 31.7393 115.539 30.946V32H113.006V19.386H115.658V23.823C116.327 23.0863 117.245 22.718 118.412 22.718ZM117.953 29.96C118.633 29.96 119.189 29.7333 119.619 29.28C120.061 28.8153 120.282 28.1977 120.282 27.427C120.282 26.6563 120.061 26.0443 119.619 25.591C119.189 25.1263 118.633 24.894 117.953 24.894C117.273 24.894 116.712 25.1263 116.27 25.591C115.84 26.0443 115.624 26.6563 115.624 27.427C115.624 28.1977 115.84 28.8153 116.27 29.28C116.712 29.7333 117.273 29.96 117.953 29.96ZM124.744 22.854H127.396V32H124.744V22.854ZM126.07 21.579C125.582 21.579 125.186 21.4373 124.88 21.154C124.574 20.8707 124.421 20.5193 124.421 20.1C124.421 19.6807 124.574 19.3293 124.88 19.046C125.186 18.7627 125.582 18.621 126.07 18.621C126.557 18.621 126.954 18.757 127.26 19.029C127.566 19.301 127.719 19.641 127.719 20.049C127.719 20.491 127.566 20.8593 127.26 21.154C126.954 21.4373 126.557 21.579 126.07 21.579ZM132.39 24.061C132.707 23.619 133.132 23.2847 133.665 23.058C134.209 22.8313 134.832 22.718 135.535 22.718V25.166C135.24 25.1433 135.042 25.132 134.94 25.132C134.18 25.132 133.585 25.3473 133.155 25.778C132.724 26.1973 132.509 26.832 132.509 27.682V32H129.857V22.854H132.39V24.061ZM153.706 22.718C154.85 22.718 155.757 23.058 156.426 23.738C157.106 24.4067 157.446 25.4153 157.446 26.764V32H154.794V27.172C154.794 26.4467 154.641 25.9083 154.335 25.557C154.04 25.1943 153.615 25.013 153.06 25.013C152.436 25.013 151.943 25.217 151.581 25.625C151.218 26.0217 151.037 26.6167 151.037 27.41V32H148.385V27.172C148.385 25.7327 147.807 25.013 146.651 25.013C146.039 25.013 145.551 25.217 145.189 25.625C144.826 26.0217 144.645 26.6167 144.645 27.41V32H141.993V22.854H144.526V23.908C144.866 23.5227 145.279 23.228 145.767 23.024C146.265 22.82 146.809 22.718 147.399 22.718C148.045 22.718 148.628 22.8483 149.15 23.109C149.671 23.3583 150.09 23.7267 150.408 24.214C150.782 23.738 151.252 23.3697 151.819 23.109C152.397 22.8483 153.026 22.718 153.706 22.718ZM159.823 22.854H162.475V32H159.823V22.854ZM161.149 21.579C160.661 21.579 160.265 21.4373 159.959 21.154C159.653 20.8707 159.5 20.5193 159.5 20.1C159.5 19.6807 159.653 19.3293 159.959 19.046C160.265 18.7627 160.661 18.621 161.149 18.621C161.636 18.621 162.033 18.757 162.339 19.029C162.645 19.301 162.798 19.641 162.798 20.049C162.798 20.491 162.645 20.8593 162.339 21.154C162.033 21.4373 161.636 21.579 161.149 21.579ZM187.923 20.1L184.03 32H181.072L178.454 23.942L175.751 32H172.81L168.9 20.1H171.756L174.442 28.464L177.247 20.1H179.797L182.517 28.532L185.288 20.1H187.923ZM195.082 22.718C196.215 22.718 197.127 23.058 197.819 23.738C198.521 24.418 198.873 25.4267 198.873 26.764V32H196.221V27.172C196.221 26.4467 196.062 25.9083 195.745 25.557C195.427 25.1943 194.968 25.013 194.368 25.013C193.699 25.013 193.166 25.2227 192.77 25.642C192.373 26.05 192.175 26.662 192.175 27.478V32H189.523V19.386H192.175V23.806C192.526 23.4547 192.951 23.1883 193.45 23.007C193.948 22.8143 194.492 22.718 195.082 22.718ZM204.966 22.718C206.382 22.718 207.47 23.058 208.23 23.738C208.989 24.4067 209.369 25.421 209.369 26.781V32H206.887V30.861C206.388 31.711 205.459 32.136 204.099 32.136C203.396 32.136 202.784 32.017 202.263 31.779C201.753 31.541 201.362 31.2123 201.09 30.793C200.818 30.3737 200.682 29.8977 200.682 29.365C200.682 28.515 200.999 27.8463 201.634 27.359C202.28 26.8717 203.271 26.628 204.609 26.628H206.717C206.717 26.05 206.541 25.608 206.19 25.302C205.838 24.9847 205.311 24.826 204.609 24.826C204.121 24.826 203.64 24.9053 203.164 25.064C202.699 25.2113 202.302 25.4153 201.974 25.676L201.022 23.823C201.52 23.4717 202.115 23.1997 202.807 23.007C203.509 22.8143 204.229 22.718 204.966 22.718ZM204.762 30.351C205.215 30.351 205.617 30.249 205.969 30.045C206.32 29.8297 206.569 29.518 206.717 29.11V28.175H204.898C203.81 28.175 203.266 28.532 203.266 29.246C203.266 29.586 203.396 29.858 203.657 30.062C203.929 30.2547 204.297 30.351 204.762 30.351ZM217.668 31.558C217.407 31.7507 217.084 31.898 216.699 32C216.325 32.0907 215.928 32.136 215.509 32.136C214.421 32.136 213.577 31.8583 212.976 31.303C212.387 30.7477 212.092 29.9317 212.092 28.855V25.098H210.681V23.058H212.092V20.831H214.744V23.058H217.022V25.098H214.744V28.821C214.744 29.2063 214.84 29.5067 215.033 29.722C215.237 29.926 215.52 30.028 215.883 30.028C216.302 30.028 216.659 29.9147 216.954 29.688L217.668 31.558ZM222.234 32.136C221.474 32.136 220.732 32.0453 220.007 31.864C219.281 31.6713 218.703 31.4333 218.273 31.15L219.157 29.246C219.565 29.5067 220.058 29.722 220.636 29.892C221.214 30.0507 221.78 30.13 222.336 30.13C223.458 30.13 224.019 29.8523 224.019 29.297C224.019 29.0363 223.866 28.8493 223.56 28.736C223.254 28.6227 222.783 28.5263 222.149 28.447C221.401 28.3337 220.783 28.2033 220.296 28.056C219.808 27.9087 219.383 27.648 219.021 27.274C218.669 26.9 218.494 26.3673 218.494 25.676C218.494 25.098 218.658 24.588 218.987 24.146C219.327 23.6927 219.814 23.3413 220.449 23.092C221.095 22.8427 221.854 22.718 222.727 22.718C223.373 22.718 224.013 22.7917 224.648 22.939C225.294 23.075 225.826 23.2677 226.246 23.517L225.362 25.404C224.557 24.9507 223.679 24.724 222.727 24.724C222.16 24.724 221.735 24.8033 221.452 24.962C221.168 25.1207 221.027 25.3247 221.027 25.574C221.027 25.8573 221.18 26.0557 221.486 26.169C221.792 26.2823 222.279 26.39 222.948 26.492C223.696 26.6167 224.308 26.7527 224.784 26.9C225.26 27.036 225.673 27.291 226.025 27.665C226.376 28.039 226.552 28.5603 226.552 29.229C226.552 29.7957 226.382 30.3 226.042 30.742C225.702 31.184 225.203 31.5297 224.546 31.779C223.9 32.017 223.129 32.136 222.234 32.136ZM231.877 22.718C233.294 22.718 234.382 23.058 235.141 23.738C235.9 24.4067 236.28 25.421 236.28 26.781V32H233.798V30.861C233.299 31.711 232.37 32.136 231.01 32.136C230.307 32.136 229.695 32.017 229.174 31.779C228.664 31.541 228.273 31.2123 228.001 30.793C227.729 30.3737 227.593 29.8977 227.593 29.365C227.593 28.515 227.91 27.8463 228.545 27.359C229.191 26.8717 230.183 26.628 231.52 26.628H233.628C233.628 26.05 233.452 25.608 233.101 25.302C232.75 24.9847 232.223 24.826 231.52 24.826C231.033 24.826 230.551 24.9053 230.075 25.064C229.61 25.2113 229.214 25.4153 228.885 25.676L227.933 23.823C228.432 23.4717 229.027 23.1997 229.718 23.007C230.421 22.8143 231.14 22.718 231.877 22.718ZM231.673 30.351C232.126 30.351 232.529 30.249 232.88 30.045C233.231 29.8297 233.481 29.518 233.628 29.11V28.175H231.809C230.721 28.175 230.177 28.532 230.177 29.246C230.177 29.586 230.307 29.858 230.568 30.062C230.84 30.2547 231.208 30.351 231.673 30.351ZM244.086 22.718C244.936 22.718 245.707 22.9163 246.398 23.313C247.101 23.6983 247.65 24.248 248.047 24.962C248.444 25.6647 248.642 26.4863 248.642 27.427C248.642 28.3677 248.444 29.195 248.047 29.909C247.65 30.6117 247.101 31.1613 246.398 31.558C245.707 31.9433 244.936 32.136 244.086 32.136C242.919 32.136 242.001 31.7677 241.332 31.031V35.298H238.68V22.854H241.213V23.908C241.87 23.1147 242.828 22.718 244.086 22.718ZM243.627 29.96C244.307 29.96 244.862 29.7333 245.293 29.28C245.735 28.8153 245.956 28.1977 245.956 27.427C245.956 26.6563 245.735 26.0443 245.293 25.591C244.862 25.1263 244.307 24.894 243.627 24.894C242.947 24.894 242.386 25.1263 241.944 25.591C241.513 26.0443 241.298 26.6563 241.298 27.427C241.298 28.1977 241.513 28.8153 241.944 29.28C242.386 29.7333 242.947 29.96 243.627 29.96ZM255.823 22.718C256.673 22.718 257.444 22.9163 258.135 23.313C258.838 23.6983 259.388 24.248 259.784 24.962C260.181 25.6647 260.379 26.4863 260.379 27.427C260.379 28.3677 260.181 29.195 259.784 29.909C259.388 30.6117 258.838 31.1613 258.135 31.558C257.444 31.9433 256.673 32.136 255.823 32.136C254.656 32.136 253.738 31.7677 253.069 31.031V35.298H250.417V22.854H252.95V23.908C253.608 23.1147 254.565 22.718 255.823 22.718ZM255.364 29.96C256.044 29.96 256.6 29.7333 257.03 29.28C257.472 28.8153 257.693 28.1977 257.693 27.427C257.693 26.6563 257.472 26.0443 257.03 25.591C256.6 25.1263 256.044 24.894 255.364 24.894C254.684 24.894 254.123 25.1263 253.681 25.591C253.251 26.0443 253.035 26.6563 253.035 27.427C253.035 28.1977 253.251 28.8153 253.681 29.28C254.123 29.7333 254.684 29.96 255.364 29.96Z" fill="black"/>
</svg>
