<svg width="71" height="56" viewBox="0 0 71 56" fill="none" xmlns="http://www.w3.org/2000/svg">
<path d="M32.9472 30.3799L6.81993 10.085V49.8383H64.5355V10.0834L38.4314 30.3798L38.4314 30.3799C37.6472 30.9891 36.6824 31.3199 35.6893 31.3199C34.6962 31.3199 33.7314 30.9891 32.9472 30.3799ZM35.6777 25.8823L60.0414 6.94287H11.3141L35.6777 25.8823ZM3.58398 1.08047H67.7715C69.2199 1.08047 70.3902 2.25085 70.3902 3.69922V53.0742C70.3902 54.5226 69.2199 55.693 67.7715 55.693H3.58398C2.13562 55.693 0.965233 54.5226 0.965233 53.0742V3.69922C0.965233 2.25085 2.13562 1.08047 3.58398 1.08047Z" fill="#4ECB71" stroke="#4ECB71" stroke-width="0.3"/>
</svg>
