<svg width="75" height="75" viewBox="0 0 75 75" fill="none" xmlns="http://www.w3.org/2000/svg">
<path d="M69.4594 16.4062H42.8273V4.4707C42.8273 3.29648 41.9227 2.34375 40.8105 2.34375H34.1895C33.0762 2.34375 32.1738 3.29648 32.1738 4.4707V16.4062H5.54063C3.77813 16.4062 2.34375 17.8617 2.34375 19.6523V69.4102C2.34375 71.2008 3.77813 72.6562 5.54063 72.6562H69.4605C71.2219 72.6562 72.6562 71.2008 72.6562 69.4102V19.6523C72.6562 17.8617 71.2219 16.4062 69.4594 16.4062ZM70.5258 69.4102C70.5277 69.6948 70.4165 69.9685 70.2168 70.1713C70.0171 70.374 69.7451 70.4893 69.4605 70.4918H5.54063C5.25603 70.4893 4.98403 70.374 4.78433 70.1713C4.58462 69.9685 4.47352 69.6948 4.47539 69.4102V19.6523C4.47539 19.0547 4.95352 18.5707 5.54063 18.5707H32.4445C32.7902 19.2141 33.4395 19.6523 34.1895 19.6523H40.8105C41.5617 19.6523 42.2086 19.2141 42.5555 18.5707H69.4594C70.0477 18.5707 70.5246 19.0547 70.5246 19.6523V69.4102H70.5258Z" fill="#4ECB71"/>
<path d="M58.8133 32.9533C59.7848 32.9533 60.557 32.59 61.1277 31.8611C61.6973 31.1346 61.9832 30.0998 61.9832 28.758C61.9832 27.4209 61.6973 26.3885 61.1277 25.6572C60.5582 24.9283 59.7848 24.5615 58.8133 24.5615C57.843 24.5615 57.0672 24.9271 56.4895 25.6537C55.9117 26.3826 55.6211 27.4174 55.6211 28.758C55.6211 30.101 55.9117 31.1346 56.4895 31.8611C57.066 32.5912 57.8418 32.9533 58.8133 32.9533Z" fill="#4ECB71"/>
<path d="M66.2645 20.7324H8.73594C7.55937 20.7324 6.60547 21.7016 6.60547 22.8969V66.1648C6.60547 67.3613 7.55937 68.3293 8.73594 68.3293H66.2645C67.441 68.3293 68.3949 67.3613 68.3949 66.1648V22.8969C68.3949 21.7027 67.441 20.7324 66.2645 20.7324ZM54.9664 23.8426C55.8523 22.9156 57.1355 22.4516 58.8113 22.4516C60.4895 22.4516 61.7715 22.9156 62.6562 23.8426C63.841 24.9371 64.4328 26.5754 64.4328 28.7574C64.4328 30.8973 63.841 32.5355 62.6562 33.6723C61.7715 34.6004 60.4883 35.0645 58.8113 35.0645C57.1344 35.0645 55.8523 34.6004 54.9664 33.6723C53.7781 32.5344 53.1816 30.8973 53.1816 28.7574C53.1816 26.5754 53.7793 24.9359 54.9664 23.8426ZM43.6625 22.8172H46.1141V32.5906H51.9734V34.7316H43.6625V22.8172ZM33.7004 22.8172H36.1531V32.5906H42.0148V34.7316H33.7004V22.8172ZM22.8969 22.8172H31.5031V24.9266H25.2922V27.4566H30.9934V29.5262H25.2922V32.5906H31.7891V34.7316H22.8969V22.8172ZM11.0328 22.8172H13.4691V27.3594H18.0312V22.8172H20.4676V34.7316H18.0312V29.4125H13.4691V34.7316H11.0328V22.8172ZM65.198 62.9188C65.198 64.1152 64.2453 65.0832 63.0687 65.0832H11.9316C10.7551 65.0832 9.80117 64.1152 9.80117 62.9188V39.1215C9.80117 37.9285 10.7551 36.9594 11.9316 36.9594H63.0687C64.2453 36.9594 65.198 37.9285 65.198 39.1215V62.9188Z" fill="#4ECB71"/>
<path d="M18.5875 43.1285L17.6664 39.0938H16.1289V44.2277H17.1133V40.7543L17.1098 40.3371L17.1074 39.9211L18.059 44.2289H19.0867L20.0441 39.9211L20.0406 40.3371L20.0383 40.7543V44.2277H21.0238V39.0938H19.5027L18.5875 43.1285Z" fill="#4ECB71"/>
<path d="M23.4395 43.2305L22.6227 40.4309H21.5352L22.9086 44.3941C22.9156 44.4211 22.8934 44.4984 22.8453 44.6238C22.8156 44.7195 22.7605 44.8053 22.6859 44.8723C22.6195 44.9153 22.5442 44.9425 22.4656 44.952C22.3746 44.9626 22.2829 44.9661 22.1914 44.9625L22.0684 44.9543V45.7477C22.2169 45.759 22.3659 45.7641 22.5148 45.7629C22.9473 45.7629 23.2367 45.6762 23.3809 45.5027C23.525 45.3305 23.7207 44.8852 23.968 44.1633L25.2512 40.4297H24.2105L23.4395 43.2305Z" fill="#4ECB71"/>
<path d="M29.8508 40.3408C29.5426 40.3408 29.2895 40.4158 29.0891 40.5705C28.9481 40.6895 28.828 40.8313 28.734 40.99V40.4357H27.7871V44.2256H28.7633V42.1701C28.7633 41.9357 28.7949 41.7436 28.8594 41.5936C28.9812 41.3053 29.2074 41.1658 29.5367 41.1658C29.8039 41.1658 29.9855 41.2619 30.0816 41.4553C30.1407 41.6018 30.1675 41.7592 30.1602 41.917V44.2268H31.1621V41.6697C31.1621 41.1928 31.0391 40.8518 30.7953 40.6479C30.5504 40.4439 30.2363 40.3408 29.8508 40.3408Z" fill="#4ECB71"/>
<path d="M35.1312 43.7C35.1273 43.5536 35.1253 43.4071 35.1254 43.2606V41.5204C35.1254 41.061 34.9648 40.7516 34.6461 40.5864C34.306 40.4174 33.9301 40.333 33.5504 40.3403C32.9187 40.3403 32.4734 40.5067 32.2133 40.8407C32.0492 41.054 31.9578 41.3293 31.9391 41.6598H32.8812C32.8972 41.5334 32.9452 41.4132 33.0207 41.3106C33.118 41.1946 33.2844 41.1383 33.5176 41.1383C33.7262 41.1383 33.8844 41.1664 33.991 41.2262C34.0988 41.286 34.1539 41.3938 34.1539 41.5485C34.1539 41.6762 34.0824 41.77 33.9441 41.8274C33.8185 41.8754 33.6867 41.9054 33.5527 41.9165L33.2176 41.9586C32.8367 42.0079 32.5496 42.0875 32.3551 42.2012C31.9965 42.411 31.8184 42.7485 31.8184 43.2161C31.8184 43.5747 31.9297 43.8536 32.1523 44.0504C32.3738 44.2461 32.6551 44.3446 32.9961 44.3446C33.2633 44.3446 33.5012 44.2825 33.7121 44.1606C33.8902 44.0551 34.0461 43.9286 34.182 43.7797C34.1879 43.8665 34.1973 43.9426 34.209 44.0106C34.2207 44.0786 34.2418 44.15 34.2699 44.2262H35.334V44.0809C35.2768 44.0552 35.2272 44.0152 35.1898 43.9649C35.157 43.9192 35.1371 43.8313 35.1312 43.7ZM34.1504 42.7485C34.1434 43.0813 34.0496 43.3098 33.8703 43.4364C33.6975 43.5584 33.4912 43.6239 33.2797 43.6239C33.1553 43.6273 33.0336 43.5866 32.9363 43.509C32.8426 43.4352 32.7945 43.311 32.7945 43.1422C32.7945 42.9524 32.8719 42.8129 33.0254 42.7227C33.1168 42.6665 33.2668 42.6231 33.4754 42.5844L33.6969 42.5457C33.8082 42.5235 33.8961 42.5012 33.9605 42.4754C34.027 42.4507 34.0907 42.4189 34.1504 42.3805V42.7485Z" fill="#4ECB71"/>
<path d="M41.0793 40.785C40.9669 40.6356 40.8169 40.5187 40.6445 40.4463C40.4903 40.3809 40.3245 40.347 40.157 40.3467C39.9098 40.3467 39.6871 40.3994 39.4844 40.5037C39.2957 40.6092 39.1363 40.7721 39.0086 40.9947C38.9417 40.8178 38.8308 40.6609 38.6863 40.5389C38.5105 40.41 38.2785 40.3467 37.9938 40.3467C37.6926 40.3467 37.4465 40.4228 37.2566 40.5705C37.1488 40.6525 37.0352 40.7943 36.9133 40.99V40.4357H35.9629V44.2256H36.9543V41.9428C36.9543 41.7342 36.9801 41.5783 37.0316 41.4764C37.1289 41.2924 37.3152 41.1998 37.5953 41.1998C37.8344 41.1998 37.9961 41.2924 38.0781 41.4764C38.1238 41.5771 38.1473 41.74 38.1473 41.9662V44.2268H39.1316V41.9662C39.1316 41.7963 39.1574 41.651 39.209 41.5303C39.3121 41.3029 39.4996 41.1893 39.7703 41.1893C40.0035 41.1893 40.1641 41.2771 40.2496 41.4553C40.3 41.5666 40.3237 41.6882 40.3187 41.8104V44.2279H41.3207L41.3266 41.8338C41.3266 41.5889 41.3148 41.4014 41.2926 41.2736C41.2629 41.0956 41.1896 40.9278 41.0793 40.785Z" fill="#4ECB71"/>
<path d="M45.6059 41.855C45.5671 41.5738 45.4654 41.305 45.3082 41.0687C45.1503 40.8239 44.9259 40.6291 44.6613 40.5073C44.3846 40.3855 44.0847 40.3252 43.7824 40.3304C43.2328 40.3304 42.7875 40.505 42.4453 40.8554C42.1008 41.207 41.9297 41.712 41.9297 42.3683C41.9297 43.0737 42.1195 43.5765 42.4992 43.8894C42.8801 44.2011 43.3184 44.357 43.8176 44.357C44.4199 44.357 44.8887 44.1706 45.2227 43.8027C45.4395 43.5706 45.559 43.3386 45.5871 43.1159H44.5898C44.5404 43.2157 44.4719 43.3049 44.3883 43.3784C44.2338 43.4989 44.0413 43.56 43.8457 43.5507C43.6558 43.5556 43.4685 43.5064 43.3055 43.4089C43.0594 43.2554 42.9305 42.9905 42.9141 42.6073H45.6375C45.6465 42.3561 45.6359 42.1046 45.6059 41.855ZM42.9398 41.9523C42.9619 41.7335 43.053 41.5275 43.2 41.364C43.3383 41.221 43.5328 41.146 43.7836 41.146C44.0133 41.146 44.2066 41.2163 44.3637 41.3523C44.5195 41.4894 44.6063 41.6886 44.625 41.9523H42.9398Z" fill="#4ECB71"/>
<path d="M48.0977 40.4307H49.0891V44.2264H48.0977V40.4307Z" fill="#4ECB71"/>
<path d="M48.0977 39.0625H49.0891V39.9789H48.0977V39.0625Z" fill="#4ECB71"/>
<path d="M52.0598 41.9439C51.475 41.8127 51.134 41.7201 51.0391 41.6662C50.9932 41.6442 50.9549 41.6091 50.929 41.5653C50.9031 41.5214 50.8908 41.4709 50.8937 41.4201C50.8937 41.3299 50.9394 41.2502 51.0297 41.1834C51.1211 41.1154 51.2734 41.0814 51.4867 41.0814C51.7457 41.0814 51.9285 41.1494 52.0375 41.2842C52.0998 41.3734 52.1367 41.4779 52.1441 41.5865H53.1215C53.0781 41.1225 52.9082 40.7967 52.6129 40.6068C52.3187 40.417 51.9379 40.3232 51.4703 40.3232C50.9781 40.3232 50.5961 40.4475 50.323 40.7018C50.1944 40.8141 50.0914 40.9529 50.021 41.1086C49.9506 41.2643 49.9146 41.4333 49.9152 41.6041C49.9152 41.9018 50.002 42.1303 50.1766 42.2861C50.3488 42.449 50.6488 42.5803 51.0754 42.6893C51.6648 42.8287 52.0059 42.9295 52.0973 42.9893C52.1887 43.0455 52.2344 43.1299 52.2344 43.2424C52.2344 43.3584 52.177 43.4463 52.0645 43.5037C51.9199 43.5685 51.7621 43.5982 51.6039 43.5904C51.2746 43.5904 51.0496 43.526 50.9289 43.3924C50.8574 43.3186 50.8141 43.1932 50.7941 43.0162H49.8027C49.8027 43.4076 49.9422 43.7275 50.2223 43.9807C50.5023 44.2314 50.9371 44.358 51.5266 44.358C52.1043 44.358 52.5297 44.2385 52.8074 44.0006C52.9413 43.8881 53.0482 43.7469 53.12 43.5874C53.1918 43.4279 53.2268 43.2543 53.2223 43.0795C53.2257 42.9469 53.2019 42.8151 53.1523 42.6921C53.1028 42.5692 53.0284 42.4577 52.934 42.3646C52.7406 42.176 52.4488 42.0365 52.0598 41.9439Z" fill="#4ECB71"/>
<path d="M53.9258 43.1855H54.9664V44.2273H53.9258V43.1855Z" fill="#4ECB71"/>
<path d="M55.8789 43.1855H56.9184V44.2273H55.8789V43.1855Z" fill="#4ECB71"/>
<path d="M57.8301 43.1855H58.8695V44.2273H57.8301V43.1855Z" fill="#4ECB71"/>
</svg>
