<svg width="72" height="72" viewBox="0 0 72 72" fill="none" xmlns="http://www.w3.org/2000/svg">
<mask id="path-1-outside-1_503_1487" maskUnits="userSpaceOnUse" x="0.316406" y="-0.31543" width="72" height="72" fill="black">
<rect fill="white" x="0.316406" y="-0.31543" width="72" height="72"/>
<path fill-rule="evenodd" clip-rule="evenodd" d="M52.1102 42.6322C51.241 42.1976 46.9797 40.1034 46.1864 39.8118C45.3931 39.523 44.8156 39.3801 44.2352 40.2493C43.6577 41.1126 41.9981 43.0668 41.4935 43.6443C40.986 44.2247 40.4814 44.2947 39.6152 43.863C38.7489 43.4255 35.9547 42.5126 32.6443 39.5609C30.0689 37.2626 28.3277 34.4247 27.8231 33.5555C27.3185 32.6893 27.7677 32.2197 28.2022 31.788C28.5931 31.4001 29.0685 30.7759 29.5031 30.2714C29.9377 29.7639 30.0806 29.4022 30.3693 28.8218C30.661 28.2443 30.5152 27.7397 30.2964 27.3051C30.0806 26.8705 28.3481 22.6034 27.6247 20.868C26.9218 19.1793 26.2072 19.4097 25.6764 19.3805C25.1689 19.3572 24.5914 19.3514 24.0139 19.3514C23.4364 19.3514 22.4972 19.5672 21.7039 20.4364C20.9077 21.3026 18.6706 23.3997 18.6706 27.6668C18.6706 31.9309 21.7739 36.0522 22.2085 36.6326C22.6431 37.2101 28.3189 45.9659 37.0135 49.7197C39.0843 50.6122 40.6972 51.1459 41.9543 51.5426C44.031 52.2047 45.921 52.1114 47.4143 51.8868C49.0768 51.6389 52.5418 49.7897 53.2652 47.7655C53.9856 45.7414 53.9856 44.0059 53.7697 43.6443C53.5539 43.2826 52.9764 43.0668 52.1072 42.6322H52.1102ZM36.296 64.2243H36.2843C31.1202 64.2252 26.0508 62.837 21.6077 60.2051L20.5577 59.5809L9.64349 62.4451L12.5572 51.8051L11.8718 50.7143C8.98472 46.1186 7.45685 40.7999 7.46474 35.3726C7.47057 19.4768 20.4031 6.54427 36.3077 6.54427C44.0077 6.54427 51.2468 9.54844 56.6893 14.9968C59.3738 17.6701 61.5014 20.8493 62.9493 24.3502C64.3971 27.8512 65.1364 31.6045 65.1243 35.393C65.1185 51.2889 52.186 64.2243 36.296 64.2243ZM60.831 10.858C57.6174 7.62322 53.7937 5.05834 49.5817 3.31202C45.3696 1.56571 40.8528 0.672681 36.2931 0.68469C17.1772 0.68469 1.61391 16.2451 1.60807 35.3697C1.60516 41.483 3.20057 47.4505 6.23682 52.7093L1.31641 70.6847L19.7031 65.8605C24.7894 68.6317 30.4892 70.0837 36.2814 70.0839H36.296C55.4118 70.0839 70.9752 54.5234 70.981 35.3959C70.9951 30.838 70.1053 26.3225 68.3631 22.1106C66.6208 17.8988 64.0608 14.0741 60.831 10.858Z"/>
</mask>
<path fill-rule="evenodd" clip-rule="evenodd" d="M52.1102 42.6322C51.241 42.1976 46.9797 40.1034 46.1864 39.8118C45.3931 39.523 44.8156 39.3801 44.2352 40.2493C43.6577 41.1126 41.9981 43.0668 41.4935 43.6443C40.986 44.2247 40.4814 44.2947 39.6152 43.863C38.7489 43.4255 35.9547 42.5126 32.6443 39.5609C30.0689 37.2626 28.3277 34.4247 27.8231 33.5555C27.3185 32.6893 27.7677 32.2197 28.2022 31.788C28.5931 31.4001 29.0685 30.7759 29.5031 30.2714C29.9377 29.7639 30.0806 29.4022 30.3693 28.8218C30.661 28.2443 30.5152 27.7397 30.2964 27.3051C30.0806 26.8705 28.3481 22.6034 27.6247 20.868C26.9218 19.1793 26.2072 19.4097 25.6764 19.3805C25.1689 19.3572 24.5914 19.3514 24.0139 19.3514C23.4364 19.3514 22.4972 19.5672 21.7039 20.4364C20.9077 21.3026 18.6706 23.3997 18.6706 27.6668C18.6706 31.9309 21.7739 36.0522 22.2085 36.6326C22.6431 37.2101 28.3189 45.9659 37.0135 49.7197C39.0843 50.6122 40.6972 51.1459 41.9543 51.5426C44.031 52.2047 45.921 52.1114 47.4143 51.8868C49.0768 51.6389 52.5418 49.7897 53.2652 47.7655C53.9856 45.7414 53.9856 44.0059 53.7697 43.6443C53.5539 43.2826 52.9764 43.0668 52.1072 42.6322H52.1102ZM36.296 64.2243H36.2843C31.1202 64.2252 26.0508 62.837 21.6077 60.2051L20.5577 59.5809L9.64349 62.4451L12.5572 51.8051L11.8718 50.7143C8.98472 46.1186 7.45685 40.7999 7.46474 35.3726C7.47057 19.4768 20.4031 6.54427 36.3077 6.54427C44.0077 6.54427 51.2468 9.54844 56.6893 14.9968C59.3738 17.6701 61.5014 20.8493 62.9493 24.3502C64.3971 27.8512 65.1364 31.6045 65.1243 35.393C65.1185 51.2889 52.186 64.2243 36.296 64.2243ZM60.831 10.858C57.6174 7.62322 53.7937 5.05834 49.5817 3.31202C45.3696 1.56571 40.8528 0.672681 36.2931 0.68469C17.1772 0.68469 1.61391 16.2451 1.60807 35.3697C1.60516 41.483 3.20057 47.4505 6.23682 52.7093L1.31641 70.6847L19.7031 65.8605C24.7894 68.6317 30.4892 70.0837 36.2814 70.0839H36.296C55.4118 70.0839 70.9752 54.5234 70.981 35.3959C70.9951 30.838 70.1053 26.3225 68.3631 22.1106C66.6208 17.8988 64.0608 14.0741 60.831 10.858Z" fill="#4ECB71"/>
<path d="M52.1102 42.6322V43.0322L52.289 42.2744L52.1102 42.6322ZM46.1864 39.8118L46.3244 39.4363L46.3232 39.4359L46.1864 39.8118ZM44.2352 40.2493L44.5676 40.4717L44.5678 40.4714L44.2352 40.2493ZM41.4935 43.6443L41.7946 43.9076L41.7947 43.9075L41.4935 43.6443ZM39.6152 43.863L39.4348 44.2201L39.4367 44.221L39.6152 43.863ZM32.6443 39.5609L32.378 39.8594L32.3781 39.8595L32.6443 39.5609ZM27.8231 33.5555L28.169 33.3547L28.1687 33.3542L27.8231 33.5555ZM28.2022 31.788L27.9205 31.5041L27.9204 31.5042L28.2022 31.788ZM29.5031 30.2714L29.8062 30.5324L29.8069 30.5315L29.5031 30.2714ZM30.3693 28.8218L30.0123 28.6414L30.0112 28.6436L30.3693 28.8218ZM30.2964 27.3051L29.9381 27.483L29.9391 27.485L30.2964 27.3051ZM27.6247 20.868L27.2555 21.0217L27.2555 21.0219L27.6247 20.868ZM25.6764 19.3805L25.6984 18.9811L25.6948 18.9809L25.6764 19.3805ZM21.7039 20.4364L21.9984 20.7071L21.9993 20.706L21.7039 20.4364ZM22.2085 36.6326L21.8883 36.8724L21.8889 36.8731L22.2085 36.6326ZM37.0135 49.7197L36.8549 50.0869L36.8552 50.087L37.0135 49.7197ZM41.9543 51.5426L42.0758 51.1615L42.0747 51.1612L41.9543 51.5426ZM47.4143 51.8868L47.3553 51.4911L47.3548 51.4912L47.4143 51.8868ZM53.2652 47.7655L53.6418 47.9001L53.642 47.8996L53.2652 47.7655ZM52.1072 42.6322V42.2322L51.9283 42.99L52.1072 42.6322ZM36.2843 64.2243V63.8243H36.2842L36.2843 64.2243ZM21.6077 60.2051L21.4033 60.5489L21.4038 60.5493L21.6077 60.2051ZM20.5577 59.5809L20.762 59.2371L20.6181 59.1515L20.4561 59.194L20.5577 59.5809ZM9.64349 62.4451L9.25769 62.3395L9.07463 63.0079L9.74502 62.832L9.64349 62.4451ZM12.5572 51.8051L12.943 51.9108L12.9895 51.7412L12.8959 51.5923L12.5572 51.8051ZM11.8718 50.7143L11.5331 50.9271L11.5331 50.9271L11.8718 50.7143ZM7.46474 35.3726L7.86474 35.3732V35.3728L7.46474 35.3726ZM56.6893 14.9968L56.4063 15.2795L56.4071 15.2802L56.6893 14.9968ZM65.1243 35.393L64.7243 35.3918V35.3929L65.1243 35.393ZM36.2931 0.68469V1.08469L36.2941 1.08469L36.2931 0.68469ZM1.60807 35.3697L2.00807 35.3699L2.00807 35.3698L1.60807 35.3697ZM6.23682 52.7093L6.62263 52.8149L6.66671 52.6539L6.58323 52.5093L6.23682 52.7093ZM1.31641 70.6847L0.930599 70.5791L0.747645 71.2475L1.41792 71.0716L1.31641 70.6847ZM19.7031 65.8605L19.8944 65.5093L19.7551 65.4333L19.6016 65.4736L19.7031 65.8605ZM36.2814 70.0839L36.2814 70.4839H36.2814V70.0839ZM70.981 35.3959L70.581 35.3947V35.3958L70.981 35.3959ZM52.289 42.2744C51.8525 42.0562 50.5682 41.4231 49.2937 40.8081C48.0314 40.1991 46.7444 39.5908 46.3244 39.4363L46.0484 40.1872C46.4217 40.3245 47.662 40.9091 48.946 41.5286C50.2177 42.1423 51.4986 42.7736 51.9313 42.99L52.289 42.2744ZM46.3232 39.4359C45.9383 39.2958 45.5087 39.1496 45.0847 39.199C44.6171 39.2535 44.2354 39.5287 43.9025 40.0271L44.5678 40.4714C44.8153 40.1007 45.0126 40.0128 45.1772 39.9936C45.3854 39.9694 45.6412 40.039 46.0496 40.1877L46.3232 39.4359ZM43.9027 40.0269C43.3422 40.8647 41.701 42.7988 41.1923 43.3811L41.7947 43.9075C42.2951 43.3347 43.9731 41.3605 44.5676 40.4717L43.9027 40.0269ZM41.1924 43.381C40.9768 43.6275 40.8066 43.716 40.6407 43.7361C40.4582 43.7582 40.2008 43.7079 39.7936 43.505L39.4367 44.221C39.8958 44.4498 40.3238 44.5803 40.737 44.5303C41.1668 44.4782 41.5027 44.2414 41.7946 43.9076L41.1924 43.381ZM39.7955 43.506C38.8877 43.0475 36.1696 42.1683 32.9105 39.2624L32.3781 39.8595C35.7399 42.8569 38.6101 43.8036 39.4348 44.2201L39.7955 43.506ZM32.9107 39.2625C30.3825 37.0064 28.6665 34.2117 28.169 33.3547L27.4771 33.7564C27.9888 34.6377 29.7553 37.5189 32.378 39.8594L32.9107 39.2625ZM28.1687 33.3542C27.964 33.0027 27.9815 32.7937 28.0356 32.6477C28.1036 32.4639 28.2568 32.2977 28.4841 32.0718L27.9204 31.5042C27.7131 31.7101 27.4244 31.9944 27.2854 32.3699C27.1323 32.7832 27.1776 33.2421 27.4774 33.7569L28.1687 33.3542ZM28.484 32.0719C28.888 31.671 29.3995 31.0046 29.8062 30.5324L29.2 30.0103C28.7375 30.5473 28.2981 31.1293 27.9205 31.5041L28.484 32.0719ZM29.8069 30.5315C30.2814 29.9775 30.448 29.5616 30.7275 28.9999L30.0112 28.6436C29.7131 29.2427 29.594 29.5503 29.1992 30.0112L29.8069 30.5315ZM30.7264 29.0021C31.1012 28.2599 30.8973 27.6092 30.6537 27.1253L29.9391 27.485C30.133 27.8702 30.2207 28.2287 30.0123 28.6415L30.7264 29.0021ZM30.6547 27.1272C30.555 26.9266 30.0763 25.7724 29.5208 24.4222C28.9709 23.0857 28.3561 21.583 27.994 20.7141L27.2555 21.0219C27.6167 21.8885 28.2298 23.387 28.781 24.7266C29.3265 26.0524 29.822 27.2491 29.9382 27.483L30.6547 27.1272ZM27.994 20.7143C27.625 19.8277 27.2181 19.358 26.7568 19.1402C26.5291 19.0327 26.3133 18.9992 26.1292 18.9884C26.0392 18.9832 25.9537 18.9833 25.8825 18.9836C25.8072 18.9838 25.7507 18.984 25.6984 18.9811L25.6545 19.7799C25.7348 19.7843 25.8168 19.7837 25.8849 19.7835C25.9572 19.7833 26.0201 19.7834 26.0827 19.7871C26.2038 19.7941 26.3101 19.814 26.4153 19.8637C26.6197 19.9602 26.9216 20.2196 27.2555 21.0217L27.994 20.7143ZM25.6948 18.9809C25.1779 18.9572 24.593 18.9514 24.0139 18.9514V19.7514C24.5898 19.7514 25.1599 19.7572 25.658 19.7801L25.6948 18.9809ZM24.0139 18.9514C23.345 18.9514 22.2907 19.2002 21.4085 20.1667L21.9993 20.706C22.7038 19.9342 23.5278 19.7514 24.0139 19.7514V18.9514ZM21.4094 20.1657C20.6105 21.0348 18.2706 23.233 18.2706 27.6668H19.0706C19.0706 23.5664 21.2048 21.5704 21.9984 20.7071L21.4094 20.1657ZM18.2706 27.6668C18.2706 29.8888 19.0767 32.0507 19.9199 33.7121C20.7659 35.3792 21.6668 36.5766 21.8883 36.8724L22.5287 36.3929C22.3156 36.1082 21.4476 34.9548 20.6333 33.3501C19.8161 31.7398 19.0706 29.7089 19.0706 27.6668H18.2706ZM21.8889 36.8731C22.3011 37.4209 28.0421 46.2821 36.8549 50.0869L37.172 49.3525C28.5957 45.6497 22.985 36.9993 22.5281 36.3921L21.8889 36.8731ZM36.8552 50.087C38.9433 50.987 40.5703 51.5253 41.834 51.9241L42.0747 51.1612C40.8242 50.7666 39.2254 50.2374 37.1718 49.3524L36.8552 50.087ZM41.8328 51.9237C43.9893 52.6113 45.9469 52.512 47.4738 52.2823L47.3548 51.4912C45.8951 51.7108 44.0726 51.7981 42.0758 51.1615L41.8328 51.9237ZM47.4733 52.2824C48.3797 52.1472 49.7155 51.5931 50.9078 50.829C52.0905 50.071 53.2338 49.0419 53.6418 47.9001L52.8885 47.6309C52.5732 48.5133 51.6223 49.4209 50.4761 50.1555C49.3394 50.8839 48.1115 51.3784 47.3553 51.4911L47.4733 52.2824ZM53.642 47.8996C54.0139 46.8549 54.2011 45.8814 54.2671 45.1158C54.3 44.7334 54.3032 44.3969 54.2821 44.1251C54.2626 43.8753 54.2188 43.6161 54.1132 43.4393L53.4263 43.8493C53.4219 43.8419 53.434 43.8615 53.4492 43.9295C53.4632 43.9921 53.4759 44.0778 53.4845 44.1872C53.5015 44.4058 53.5001 44.6974 53.47 45.0471C53.4098 45.7457 53.2369 46.652 52.8883 47.6314L53.642 47.8996ZM54.1132 43.4393C53.9464 43.1598 53.6636 42.9726 53.3758 42.8148C53.089 42.6576 52.6973 42.48 52.2861 42.2744L51.9283 42.99C52.3863 43.2189 52.718 43.3666 52.9912 43.5163C53.2633 43.6655 53.3772 43.7671 53.4263 43.8493L54.1132 43.4393ZM52.1072 43.0322H52.1102V42.2322H52.1072V43.0322ZM36.296 63.8243H36.2843V64.6243H36.296V63.8243ZM36.2842 63.8243C31.1918 63.8252 26.1929 62.4563 21.8115 59.861L21.4038 60.5493C25.9087 63.2177 31.0485 64.6252 36.2844 64.6243L36.2842 63.8243ZM21.812 59.8613L20.762 59.2371L20.3533 59.9248L21.4033 60.5489L21.812 59.8613ZM20.4561 59.194L9.54196 62.0582L9.74502 62.832L20.6592 59.9678L20.4561 59.194ZM10.0293 62.5508L12.943 51.9108L12.1714 51.6995L9.25769 62.3395L10.0293 62.5508ZM12.8959 51.5923L12.2105 50.5015L11.5331 50.9271L12.2185 52.0179L12.8959 51.5923ZM12.2105 50.5015C9.36358 45.9698 7.85696 40.725 7.86474 35.3732L7.06474 35.372C7.05674 40.8748 8.60586 46.2675 11.5331 50.9271L12.2105 50.5015ZM7.86474 35.3728C7.87049 19.6978 20.6239 6.94427 36.3077 6.94427V6.14427C20.1822 6.14427 7.07065 19.2558 7.06474 35.3725L7.86474 35.3728ZM36.3077 6.94427C43.9014 6.94427 51.0388 9.90615 56.4063 15.2795L56.9723 14.7141C51.4549 9.19073 44.1139 6.14427 36.3077 6.14427V6.94427ZM56.4071 15.2802C59.054 17.9162 61.152 21.051 62.5797 24.5031L63.3189 24.1974C61.8509 20.6475 59.6935 17.424 56.9716 14.7133L56.4071 15.2802ZM62.5797 24.5031C64.0073 27.9552 64.7362 31.6561 64.7243 35.3918L65.5243 35.3943C65.5366 31.5529 64.787 27.7472 63.3189 24.1974L62.5797 24.5031ZM64.7243 35.3929C64.7186 51.068 51.9649 63.8243 36.296 63.8243V64.6243C52.407 64.6243 65.5184 51.5097 65.5243 35.3932L64.7243 35.3929ZM61.1148 10.5761C57.8638 7.30376 53.9958 4.70911 49.7349 2.94252L49.4285 3.68153C53.5917 5.40757 57.3709 7.94268 60.5472 11.1399L61.1148 10.5761ZM49.7349 2.94252C45.4739 1.17594 40.9047 0.272543 36.292 0.284691L36.2941 1.08469C40.8009 1.07282 45.2653 1.95548 49.4285 3.68153L49.7349 2.94252ZM36.2931 0.28469C16.9563 0.28469 1.21397 16.0242 1.20807 35.3696L2.00807 35.3698C2.01384 16.466 17.3982 1.08469 36.2931 1.08469V0.28469ZM1.20807 35.3695C1.20512 41.5528 2.81886 47.5894 5.89042 52.9093L6.58323 52.5093C3.58229 47.3117 2.00519 41.4133 2.00807 35.3699L1.20807 35.3695ZM5.85102 52.6037L0.930599 70.5791L1.70221 70.7903L6.62263 52.8149L5.85102 52.6037ZM1.41792 71.0716L19.8046 66.2474L19.6016 65.4736L1.21489 70.2978L1.41792 71.0716ZM19.5117 66.2118C24.6567 69.015 30.4223 70.4837 36.2814 70.4839L36.2814 69.6839C30.556 69.6837 24.922 68.2485 19.8944 65.5093L19.5117 66.2118ZM36.2814 70.4839H36.296V69.6839H36.2814V70.4839ZM36.296 70.4839C55.6328 70.4839 71.3751 54.7443 71.381 35.3961L70.581 35.3958C70.5752 54.3026 55.1908 69.6839 36.296 69.6839V70.4839ZM71.381 35.3972C71.3952 30.7864 70.4951 26.2185 68.7327 21.9577L67.9934 22.2635C69.7154 26.4265 70.5949 30.8896 70.581 35.3947L71.381 35.3972ZM68.7327 21.9577C66.9703 17.697 64.3805 13.828 61.1132 10.5746L60.5487 11.1415C63.7411 14.3203 66.2714 18.1005 67.9934 22.2635L68.7327 21.9577Z" fill="#4ECB71" mask="url(#path-1-outside-1_503_1487)"/>
</svg>
