<svg width="106" height="106" viewBox="0 0 106 106" fill="none" xmlns="http://www.w3.org/2000/svg">
<path d="M53 0C23.729 0 0 23.729 0 53C0 82.271 23.729 106 53 106C82.2709 106 106 82.271 106 53C106 23.729 82.2709 0 53 0ZM53 11.5161C75.9109 11.5161 94.4774 30.0948 94.4774 53C94.4774 75.9053 75.9109 94.4774 53 94.4774C30.089 94.4774 11.5226 75.9053 11.5226 53C11.5226 30.0948 30.089 11.5161 53 11.5161ZM73.3084 27.8328L42.5902 58.5575L32.6268 48.5941L22.851 58.3634L32.8144 68.3268L42.6548 78.1672L52.4242 68.3915L83.1489 37.6732L73.3084 27.8328Z" fill="#CB4E4E"/>
<ellipse cx="52.5" cy="53" rx="35.5" ry="34" fill="#F5F1F1"/>
<path d="M60.9537 78L52.8663 65.4443L44.9794 78H27L43.91 54.2986L27.6015 31H45.3136L53.2674 42.8171L61.0206 31H77.9974L61.7558 53.6943L79 78H60.9537Z" fill="#CB4E4E"/>
</svg>
