<svg width="330" height="49" viewBox="0 0 330 49" fill="none" xmlns="http://www.w3.org/2000/svg">
<rect width="330" height="49" rx="5" fill="#FFD233"/>
<path d="M85.28 33.275C84.8947 33.751 84.4243 34.1137 83.869 34.363C83.325 34.6123 82.7243 34.737 82.067 34.737C81.183 34.737 80.384 34.5443 79.67 34.159C78.956 33.785 78.14 33.1163 77.222 32.153C76.1453 32.017 75.182 31.6713 74.332 31.116C73.4933 30.5607 72.836 29.8467 72.36 28.974C71.8953 28.09 71.663 27.1153 71.663 26.05C71.663 24.8827 71.9407 23.8343 72.496 22.905C73.0627 21.9643 73.839 21.2277 74.825 20.695C75.8223 20.1623 76.9387 19.896 78.174 19.896C79.4093 19.896 80.52 20.1623 81.506 20.695C82.492 21.2277 83.2683 21.9643 83.835 22.905C84.4017 23.8343 84.685 24.8827 84.685 26.05C84.685 27.4327 84.294 28.6453 83.512 29.688C82.7413 30.7307 81.7157 31.456 80.435 31.864C80.7183 32.1587 80.9903 32.3683 81.251 32.493C81.523 32.629 81.812 32.697 82.118 32.697C82.8547 32.697 83.5007 32.4023 84.056 31.813L85.28 33.275ZM74.451 26.05C74.451 26.7867 74.6097 27.444 74.927 28.022C75.2557 28.6 75.7033 29.0533 76.27 29.382C76.8367 29.6993 77.4713 29.858 78.174 29.858C78.8767 29.858 79.5113 29.6993 80.078 29.382C80.6447 29.0533 81.0867 28.6 81.404 28.022C81.7327 27.444 81.897 26.7867 81.897 26.05C81.897 25.3133 81.7327 24.656 81.404 24.078C81.0867 23.5 80.6447 23.0523 80.078 22.735C79.5113 22.4063 78.8767 22.242 78.174 22.242C77.4713 22.242 76.8367 22.4063 76.27 22.735C75.7033 23.0523 75.2557 23.5 74.927 24.078C74.6097 24.656 74.451 25.3133 74.451 26.05ZM95.7818 22.854V32H93.2658V30.912C92.9144 31.3087 92.4951 31.6147 92.0078 31.83C91.5204 32.034 90.9934 32.136 90.4268 32.136C89.2254 32.136 88.2734 31.7903 87.5708 31.099C86.8681 30.4077 86.5168 29.382 86.5168 28.022V22.854H89.1688V27.631C89.1688 29.1043 89.7864 29.841 91.0218 29.841C91.6564 29.841 92.1664 29.637 92.5518 29.229C92.9371 28.8097 93.1298 28.192 93.1298 27.376V22.854H95.7818ZM98.2386 22.854H100.891V32H98.2386V22.854ZM99.5646 21.579C99.0773 21.579 98.6806 21.4373 98.3746 21.154C98.0686 20.8707 97.9156 20.5193 97.9156 20.1C97.9156 19.6807 98.0686 19.3293 98.3746 19.046C98.6806 18.7627 99.0773 18.621 99.5646 18.621C100.052 18.621 100.449 18.757 100.755 19.029C101.061 19.301 101.214 19.641 101.214 20.049C101.214 20.491 101.061 20.8593 100.755 21.154C100.449 21.4373 100.052 21.579 99.5646 21.579ZM112.311 27.461C112.311 27.495 112.294 27.733 112.26 28.175H105.341C105.466 28.7417 105.76 29.1893 106.225 29.518C106.69 29.8467 107.268 30.011 107.959 30.011C108.435 30.011 108.854 29.943 109.217 29.807C109.591 29.6597 109.937 29.433 110.254 29.127L111.665 30.657C110.804 31.643 109.546 32.136 107.891 32.136C106.86 32.136 105.947 31.9377 105.154 31.541C104.361 31.133 103.749 30.572 103.318 29.858C102.887 29.144 102.672 28.3337 102.672 27.427C102.672 26.5317 102.882 25.727 103.301 25.013C103.732 24.2877 104.315 23.7267 105.052 23.33C105.8 22.922 106.633 22.718 107.551 22.718C108.446 22.718 109.257 22.9107 109.982 23.296C110.707 23.6813 111.274 24.2367 111.682 24.962C112.101 25.676 112.311 26.509 112.311 27.461ZM107.568 24.724C106.967 24.724 106.463 24.894 106.055 25.234C105.647 25.574 105.398 26.0387 105.307 26.628H109.812C109.721 26.05 109.472 25.591 109.064 25.251C108.656 24.8997 108.157 24.724 107.568 24.724ZM116.61 24.061C116.927 23.619 117.352 23.2847 117.885 23.058C118.429 22.8313 119.052 22.718 119.755 22.718V25.166C119.46 25.1433 119.262 25.132 119.16 25.132C118.4 25.132 117.805 25.3473 117.375 25.778C116.944 26.1973 116.729 26.832 116.729 27.682V32H114.077V22.854H116.61V24.061ZM125.6 32.136C124.637 32.136 123.77 31.9377 122.999 31.541C122.24 31.133 121.645 30.572 121.214 29.858C120.784 29.144 120.568 28.3337 120.568 27.427C120.568 26.5203 120.784 25.71 121.214 24.996C121.645 24.282 122.24 23.7267 122.999 23.33C123.77 22.922 124.637 22.718 125.6 22.718C126.564 22.718 127.425 22.922 128.184 23.33C128.944 23.7267 129.539 24.282 129.969 24.996C130.4 25.71 130.615 26.5203 130.615 27.427C130.615 28.3337 130.4 29.144 129.969 29.858C129.539 30.572 128.944 31.133 128.184 31.541C127.425 31.9377 126.564 32.136 125.6 32.136ZM125.6 29.96C126.28 29.96 126.836 29.7333 127.266 29.28C127.708 28.8153 127.929 28.1977 127.929 27.427C127.929 26.6563 127.708 26.0443 127.266 25.591C126.836 25.1263 126.28 24.894 125.6 24.894C124.92 24.894 124.359 25.1263 123.917 25.591C123.475 26.0443 123.254 26.6563 123.254 27.427C123.254 28.1977 123.475 28.8153 123.917 29.28C124.359 29.7333 124.92 29.96 125.6 29.96ZM141.623 32.136C140.648 32.136 139.77 31.9377 138.988 31.541C138.217 31.133 137.611 30.572 137.169 29.858C136.738 29.144 136.523 28.3337 136.523 27.427C136.523 26.5203 136.738 25.71 137.169 24.996C137.611 24.282 138.217 23.7267 138.988 23.33C139.77 22.922 140.648 22.718 141.623 22.718C142.586 22.718 143.425 22.922 144.139 23.33C144.864 23.7267 145.391 24.299 145.72 25.047L143.663 26.152C143.187 25.3133 142.501 24.894 141.606 24.894C140.914 24.894 140.342 25.1207 139.889 25.574C139.435 26.0273 139.209 26.645 139.209 27.427C139.209 28.209 139.435 28.8267 139.889 29.28C140.342 29.7333 140.914 29.96 141.606 29.96C142.512 29.96 143.198 29.5407 143.663 28.702L145.72 29.824C145.391 30.5493 144.864 31.116 144.139 31.524C143.425 31.932 142.586 32.136 141.623 32.136ZM151.482 32.136C150.519 32.136 149.652 31.9377 148.881 31.541C148.122 31.133 147.527 30.572 147.096 29.858C146.666 29.144 146.45 28.3337 146.45 27.427C146.45 26.5203 146.666 25.71 147.096 24.996C147.527 24.282 148.122 23.7267 148.881 23.33C149.652 22.922 150.519 22.718 151.482 22.718C152.446 22.718 153.307 22.922 154.066 23.33C154.826 23.7267 155.421 24.282 155.851 24.996C156.282 25.71 156.497 26.5203 156.497 27.427C156.497 28.3337 156.282 29.144 155.851 29.858C155.421 30.572 154.826 31.133 154.066 31.541C153.307 31.9377 152.446 32.136 151.482 32.136ZM151.482 29.96C152.162 29.96 152.718 29.7333 153.148 29.28C153.59 28.8153 153.811 28.1977 153.811 27.427C153.811 26.6563 153.59 26.0443 153.148 25.591C152.718 25.1263 152.162 24.894 151.482 24.894C150.802 24.894 150.241 25.1263 149.799 25.591C149.357 26.0443 149.136 26.6563 149.136 27.427C149.136 28.1977 149.357 28.8153 149.799 29.28C150.241 29.7333 150.802 29.96 151.482 29.96ZM169.983 22.718C171.128 22.718 172.034 23.058 172.703 23.738C173.383 24.4067 173.723 25.4153 173.723 26.764V32H171.071V27.172C171.071 26.4467 170.918 25.9083 170.612 25.557C170.317 25.1943 169.892 25.013 169.337 25.013C168.714 25.013 168.221 25.217 167.858 25.625C167.495 26.0217 167.314 26.6167 167.314 27.41V32H164.662V27.172C164.662 25.7327 164.084 25.013 162.928 25.013C162.316 25.013 161.829 25.217 161.466 25.625C161.103 26.0217 160.922 26.6167 160.922 27.41V32H158.27V22.854H160.803V23.908C161.143 23.5227 161.557 23.228 162.044 23.024C162.543 22.82 163.087 22.718 163.676 22.718C164.322 22.718 164.906 22.8483 165.427 23.109C165.948 23.3583 166.368 23.7267 166.685 24.214C167.059 23.738 167.529 23.3697 168.096 23.109C168.674 22.8483 169.303 22.718 169.983 22.718ZM181.506 22.718C182.356 22.718 183.127 22.9163 183.818 23.313C184.521 23.6983 185.07 24.248 185.467 24.962C185.864 25.6647 186.062 26.4863 186.062 27.427C186.062 28.3677 185.864 29.195 185.467 29.909C185.07 30.6117 184.521 31.1613 183.818 31.558C183.127 31.9433 182.356 32.136 181.506 32.136C180.339 32.136 179.421 31.7677 178.752 31.031V35.298H176.1V22.854H178.633V23.908C179.29 23.1147 180.248 22.718 181.506 22.718ZM181.047 29.96C181.727 29.96 182.282 29.7333 182.713 29.28C183.155 28.8153 183.376 28.1977 183.376 27.427C183.376 26.6563 183.155 26.0443 182.713 25.591C182.282 25.1263 181.727 24.894 181.047 24.894C180.367 24.894 179.806 25.1263 179.364 25.591C178.933 26.0443 178.718 26.6563 178.718 27.427C178.718 28.1977 178.933 28.8153 179.364 29.28C179.806 29.7333 180.367 29.96 181.047 29.96ZM190.37 24.061C190.688 23.619 191.113 23.2847 191.645 23.058C192.189 22.8313 192.813 22.718 193.515 22.718V25.166C193.221 25.1433 193.022 25.132 192.92 25.132C192.161 25.132 191.566 25.3473 191.135 25.778C190.705 26.1973 190.489 26.832 190.489 27.682V32H187.837V22.854H190.37V24.061ZM198.731 22.718C200.148 22.718 201.236 23.058 201.995 23.738C202.755 24.4067 203.134 25.421 203.134 26.781V32H200.652V30.861C200.154 31.711 199.224 32.136 197.864 32.136C197.162 32.136 196.55 32.017 196.028 31.779C195.518 31.541 195.127 31.2123 194.855 30.793C194.583 30.3737 194.447 29.8977 194.447 29.365C194.447 28.515 194.765 27.8463 195.399 27.359C196.045 26.8717 197.037 26.628 198.374 26.628H200.482C200.482 26.05 200.307 25.608 199.955 25.302C199.604 24.9847 199.077 24.826 198.374 24.826C197.887 24.826 197.405 24.9053 196.929 25.064C196.465 25.2113 196.068 25.4153 195.739 25.676L194.787 23.823C195.286 23.4717 195.881 23.1997 196.572 23.007C197.275 22.8143 197.995 22.718 198.731 22.718ZM198.527 30.351C198.981 30.351 199.383 30.249 199.734 30.045C200.086 29.8297 200.335 29.518 200.482 29.11V28.175H198.663C197.575 28.175 197.031 28.532 197.031 29.246C197.031 29.586 197.162 29.858 197.422 30.062C197.694 30.2547 198.063 30.351 198.527 30.351ZM208.068 24.061C208.385 23.619 208.81 23.2847 209.343 23.058C209.887 22.8313 210.51 22.718 211.213 22.718V25.166C210.918 25.1433 210.72 25.132 210.618 25.132C209.858 25.132 209.263 25.3473 208.833 25.778C208.402 26.1973 208.187 26.832 208.187 27.682V32H205.535V22.854H208.068V24.061ZM223.552 32.204C222.34 32.204 221.24 31.9433 220.254 31.422C219.28 30.8893 218.509 30.1583 217.942 29.229C217.387 28.2883 217.109 27.2287 217.109 26.05C217.109 24.8713 217.387 23.8173 217.942 22.888C218.509 21.9473 219.28 21.2163 220.254 20.695C221.24 20.1623 222.345 19.896 223.569 19.896C224.601 19.896 225.53 20.0773 226.357 20.44C227.196 20.8027 227.899 21.324 228.465 22.004L226.697 23.636C225.893 22.7067 224.895 22.242 223.705 22.242C222.969 22.242 222.311 22.4063 221.733 22.735C221.155 23.0523 220.702 23.5 220.373 24.078C220.056 24.656 219.897 25.3133 219.897 26.05C219.897 26.7867 220.056 27.444 220.373 28.022C220.702 28.6 221.155 29.0533 221.733 29.382C222.311 29.6993 222.969 29.858 223.705 29.858C224.895 29.858 225.893 29.3877 226.697 28.447L228.465 30.079C227.899 30.7703 227.196 31.2973 226.357 31.66C225.519 32.0227 224.584 32.204 223.552 32.204ZM239.063 25.812C239.743 26.0273 240.276 26.39 240.661 26.9C241.046 27.3987 241.239 28.0163 241.239 28.753C241.239 29.7957 240.831 30.6003 240.015 31.167C239.21 31.7223 238.032 32 236.479 32H230.325V20.1H236.139C237.59 20.1 238.7 20.3777 239.471 20.933C240.253 21.4883 240.644 22.242 240.644 23.194C240.644 23.772 240.502 24.2877 240.219 24.741C239.947 25.1943 239.562 25.5513 239.063 25.812ZM233.062 22.174V24.979H235.799C236.479 24.979 236.995 24.86 237.346 24.622C237.697 24.384 237.873 24.0327 237.873 23.568C237.873 23.1033 237.697 22.7577 237.346 22.531C236.995 22.293 236.479 22.174 235.799 22.174H233.062ZM236.275 29.926C237 29.926 237.544 29.807 237.907 29.569C238.281 29.331 238.468 28.9627 238.468 28.464C238.468 27.478 237.737 26.985 236.275 26.985H233.062V29.926H236.275ZM243.324 20.1H248.73C250.022 20.1 251.161 20.3493 252.147 20.848C253.144 21.3353 253.915 22.0267 254.459 22.922C255.014 23.8173 255.292 24.86 255.292 26.05C255.292 27.24 255.014 28.2827 254.459 29.178C253.915 30.0733 253.144 30.7703 252.147 31.269C251.161 31.7563 250.022 32 248.73 32H243.324V20.1ZM248.594 29.739C249.784 29.739 250.73 29.4103 251.433 28.753C252.147 28.0843 252.504 27.1833 252.504 26.05C252.504 24.9167 252.147 24.0213 251.433 23.364C250.73 22.6953 249.784 22.361 248.594 22.361H246.078V29.739H248.594Z" fill="black"/>
</svg>
