<svg width="27" height="21" viewBox="0 0 27 21" fill="none" xmlns="http://www.w3.org/2000/svg">
<path d="M4.5 7.125C4.5 6.82663 4.61853 6.54048 4.82951 6.32951C5.04048 6.11853 5.32663 6 5.625 6H10.125C10.4234 6 10.7095 6.11853 10.9205 6.32951C11.1315 6.54048 11.25 6.82663 11.25 7.125C11.25 7.42337 11.1315 7.70952 10.9205 7.92049C10.7095 8.13147 10.4234 8.25 10.125 8.25H5.625C5.32663 8.25 5.04048 8.13147 4.82951 7.92049C4.61853 7.70952 4.5 7.42337 4.5 7.125Z" fill="#4ECB71"/>
<path fill-rule="evenodd" clip-rule="evenodd" d="M4.5 0.375C3.30653 0.375 2.16193 0.849106 1.31802 1.69302C0.474106 2.53693 0 3.68153 0 4.875L0 16.125C0 17.3185 0.474106 18.4631 1.31802 19.307C2.16193 20.1509 3.30653 20.625 4.5 20.625H22.5C23.6935 20.625 24.8381 20.1509 25.682 19.307C26.5259 18.4631 27 17.3185 27 16.125V4.875C27 3.68153 26.5259 2.53693 25.682 1.69302C24.8381 0.849106 23.6935 0.375 22.5 0.375H4.5ZM22.5 2.625H4.5C3.90326 2.625 3.33097 2.86205 2.90901 3.28401C2.48705 3.70597 2.25 4.27826 2.25 4.875V12.75H24.75V4.875C24.75 4.27826 24.5129 3.70597 24.091 3.28401C23.669 2.86205 23.0967 2.625 22.5 2.625ZM24.75 15H2.25V16.125C2.25 16.7217 2.48705 17.294 2.90901 17.716C3.33097 18.1379 3.90326 18.375 4.5 18.375H22.5C23.0967 18.375 23.669 18.1379 24.091 17.716C24.5129 17.294 24.75 16.7217 24.75 16.125V15Z" fill="#4ECB71"/>
</svg>
