<svg width="34" height="35" viewBox="0 0 34 35" fill="none" xmlns="http://www.w3.org/2000/svg">
<path d="M6.22128 25.4681V31.7979L12.3702 30.234L17 35L21.6298 30.234L27.7787 31.7979V25.4681L34 23.8298L30.8894 17.5L34 11.1702L27.7787 9.53191V3.20213L21.6298 4.76596L17 0L12.3702 4.76596L6.22128 3.20213V9.53191L0 11.1702L3.11064 17.5L0 23.8298L6.22128 25.4681ZM5.85958 16.0851L4.48511 13.1809L6.94468 12.5851C7.66809 12.4362 8.23475 12.0762 8.64468 11.5053C9.05461 10.9344 9.25957 10.2766 9.25957 9.53191V7.29787L11.5745 7.96808H12.3702C13.1901 7.96808 13.9135 7.64539 14.5404 7L17 4.46809L19.4596 7C20.0865 7.64539 20.8099 7.96808 21.6298 7.96808C21.9192 7.96808 22.1844 7.91844 22.4255 7.81915L24.7404 7.29787V9.53191C24.7404 10.2766 24.9454 10.9344 25.3553 11.5053C25.7653 12.0762 26.3319 12.4362 27.0553 12.5851L29.5149 13.1809L28.1404 16.0851C27.6582 17.0284 27.6582 17.9716 28.1404 18.9149L29.5149 21.8191L27.0553 22.4149C26.3319 22.5638 25.7653 22.9238 25.3553 23.4947C24.9454 24.0656 24.7404 24.7234 24.7404 25.4681V27.7021L22.4255 27.0319H21.6298C20.8099 27.0319 20.0865 27.3546 19.4596 28L17 30.5319L14.5404 28C13.9135 27.3546 13.1901 27.0319 12.3702 27.0319C12.0809 27.0319 11.8156 27.0816 11.5745 27.1809L9.25957 27.7021V25.4681C9.25957 24.7234 9.05461 24.0656 8.64468 23.4947C8.23475 22.9238 7.66809 22.5638 6.94468 22.4149L4.48511 21.8191L5.85958 18.9149C6.34184 17.9716 6.34184 17.0284 5.85958 16.0851ZM15.4809 22.9362L22.7149 15.4149C23.3901 14.7199 23.3901 13.9752 22.7149 13.1809C21.9915 12.5355 21.2681 12.5355 20.5447 13.1809L15.4809 18.4681L13.4553 16.383C12.7319 15.7376 12.0085 15.7376 11.2851 16.383C10.6582 17.1277 10.6582 17.8723 11.2851 18.617L15.4809 22.9362Z" fill="#4ECB71"/>
</svg>
