<svg width="203" height="23" viewBox="0 0 203 23" fill="none" xmlns="http://www.w3.org/2000/svg">
<path d="M13.5244 15.3802C13.5244 16.5562 13.0974 17.5852 12.2434 18.4672C11.4034 19.3352 10.1994 19.9092 8.63144 20.1892V22.5202H5.67044V20.2942C4.62044 20.2382 3.61244 20.0772 2.64644 19.8112C1.69444 19.5452 0.903437 19.2162 0.273438 18.8242L1.86944 15.2122C2.56944 15.6182 3.35344 15.9472 4.22144 16.1992C5.08944 16.4372 5.92244 16.5562 6.72044 16.5562C7.40644 16.5562 7.89644 16.4932 8.19044 16.3672C8.48444 16.2272 8.63144 16.0242 8.63144 15.7582C8.63144 15.4502 8.43544 15.2192 8.04344 15.0652C7.66544 14.9112 7.03544 14.7432 6.15344 14.5612C5.01944 14.3232 4.07444 14.0712 3.31844 13.8052C2.56244 13.5252 1.90444 13.0772 1.34444 12.4612C0.784438 11.8312 0.504438 10.9842 0.504438 9.92017C0.504438 8.68817 0.945438 7.63116 1.82744 6.74916C2.72344 5.86716 4.00444 5.30716 5.67044 5.06916V2.78016H8.63144V5.02716C10.3114 5.18116 11.7324 5.58716 12.8944 6.24516L11.4034 9.83616C9.96144 9.10816 8.59644 8.74416 7.30844 8.74416C6.03444 8.74416 5.39744 9.05216 5.39744 9.66816C5.39744 9.96216 5.58644 10.1862 5.96444 10.3402C6.34244 10.4802 6.96544 10.6342 7.83344 10.8022C8.95344 11.0122 9.89844 11.2572 10.6684 11.5372C11.4384 11.8032 12.1034 12.2442 12.6634 12.8602C13.2374 13.4762 13.5244 14.3162 13.5244 15.3802Z" fill="#FFD233"/>
<path d="M22.6642 11.1172C23.7982 11.3972 24.6662 11.9082 25.2682 12.6502C25.8842 13.3782 26.1922 14.2602 26.1922 15.2962C26.1922 16.1782 25.9472 17.0042 25.4572 17.7742C24.9812 18.5302 24.2392 19.1462 23.2312 19.6222C22.2232 20.0982 20.9702 20.3362 19.4722 20.3362C18.4362 20.3362 17.4002 20.2242 16.3642 20.0002C15.3422 19.7762 14.4462 19.4472 13.6762 19.0132L15.3562 15.3592C15.9582 15.7092 16.6022 15.9752 17.2882 16.1572C17.9882 16.3392 18.6602 16.4302 19.3042 16.4302C19.8782 16.4302 20.3402 16.3322 20.6902 16.1362C21.0402 15.9402 21.2152 15.6602 21.2152 15.2962C21.2152 14.6242 20.6342 14.2882 19.4722 14.2882H17.5192V11.2432L19.6822 9.03817H14.4322V5.30016H25.3942V8.34517L22.6642 11.1172Z" fill="#FFD233"/>
<path d="M33.9676 20.3362C32.6656 20.3362 31.5106 20.0352 30.5026 19.4332C29.5086 18.8172 28.7246 17.9352 28.1506 16.7872C27.5906 15.6252 27.3106 14.2462 27.3106 12.6502C27.3106 11.0542 27.5906 9.68217 28.1506 8.53417C28.7246 7.37217 29.5086 6.49016 30.5026 5.88816C31.5106 5.27216 32.6656 4.96416 33.9676 4.96416C35.2696 4.96416 36.4176 5.27216 37.4116 5.88816C38.4196 6.49016 39.2036 7.37217 39.7636 8.53417C40.3376 9.68217 40.6246 11.0542 40.6246 12.6502C40.6246 14.2462 40.3376 15.6252 39.7636 16.7872C39.2036 17.9352 38.4196 18.8172 37.4116 19.4332C36.4176 20.0352 35.2696 20.3362 33.9676 20.3362ZM33.9676 16.3672C35.0876 16.3672 35.6476 15.1282 35.6476 12.6502C35.6476 10.1722 35.0876 8.93316 33.9676 8.93316C32.8476 8.93316 32.2876 10.1722 32.2876 12.6502C32.2876 15.1282 32.8476 16.3672 33.9676 16.3672Z" fill="#FFD233"/>
<path d="M48.5076 20.3362C47.2057 20.3362 46.0506 20.0352 45.0426 19.4332C44.0486 18.8172 43.2647 17.9352 42.6907 16.7872C42.1306 15.6252 41.8507 14.2462 41.8507 12.6502C41.8507 11.0542 42.1306 9.68217 42.6907 8.53417C43.2647 7.37217 44.0486 6.49016 45.0426 5.88816C46.0506 5.27216 47.2057 4.96416 48.5076 4.96416C49.8096 4.96416 50.9577 5.27216 51.9517 5.88816C52.9597 6.49016 53.7436 7.37217 54.3036 8.53417C54.8777 9.68217 55.1646 11.0542 55.1646 12.6502C55.1646 14.2462 54.8777 15.6252 54.3036 16.7872C53.7436 17.9352 52.9597 18.8172 51.9517 19.4332C50.9577 20.0352 49.8096 20.3362 48.5076 20.3362ZM48.5076 16.3672C49.6276 16.3672 50.1876 15.1282 50.1876 12.6502C50.1876 10.1722 49.6276 8.93316 48.5076 8.93316C47.3876 8.93316 46.8276 10.1722 46.8276 12.6502C46.8276 15.1282 47.3876 16.3672 48.5076 16.3672Z" fill="#FFD233"/>
<path d="M63.0477 20.3362C61.7457 20.3362 60.5907 20.0352 59.5827 19.4332C58.5887 18.8172 57.8047 17.9352 57.2307 16.7872C56.6707 15.6252 56.3907 14.2462 56.3907 12.6502C56.3907 11.0542 56.6707 9.68217 57.2307 8.53417C57.8047 7.37217 58.5887 6.49016 59.5827 5.88816C60.5907 5.27216 61.7457 4.96416 63.0477 4.96416C64.3497 4.96416 65.4977 5.27216 66.4917 5.88816C67.4997 6.49016 68.2837 7.37217 68.8437 8.53417C69.4177 9.68217 69.7047 11.0542 69.7047 12.6502C69.7047 14.2462 69.4177 15.6252 68.8437 16.7872C68.2837 17.9352 67.4997 18.8172 66.4917 19.4332C65.4977 20.0352 64.3497 20.3362 63.0477 20.3362ZM63.0477 16.3672C64.1677 16.3672 64.7277 15.1282 64.7277 12.6502C64.7277 10.1722 64.1677 8.93316 63.0477 8.93316C61.9277 8.93316 61.3677 10.1722 61.3677 12.6502C61.3677 15.1282 61.9277 16.3672 63.0477 16.3672Z" fill="#FFD233"/>
<path d="M77.7726 8.13517H88.4826V11.7052H77.7726V8.13517ZM77.7726 13.5952H88.4826V17.1652H77.7726V13.5952Z" fill="#FFD233"/>
<path d="M109.355 16.2622V20.0002H97.133V5.30016H109.082V9.03817H102.005V10.7602H108.221V14.3302H102.005V16.2622H109.355Z" fill="#FFD233"/>
<path d="M125.753 5.30016V20.0002H121.679L116.093 13.3222V20.0002H111.263V5.30016H115.337L120.923 11.9782V5.30016H125.753Z" fill="#FFD233"/>
<path d="M143.849 5.30016L137.633 20.0002H132.761L126.545 5.30016H131.879L135.386 13.8892L138.977 5.30016H143.849Z" fill="#FFD233"/>
<path d="M144.342 5.30016H149.298V20.0002H144.342V5.30016ZM147.387 0.743164H151.902L147.765 4.10316H144.615L147.387 0.743164Z" fill="#FFD233"/>
<path d="M159.391 20.3362C157.809 20.3362 156.388 20.0072 155.128 19.3492C153.868 18.6912 152.881 17.7812 152.167 16.6192C151.453 15.4432 151.096 14.1202 151.096 12.6502C151.096 11.1802 151.453 9.86416 152.167 8.70216C152.881 7.52616 153.868 6.60916 155.128 5.95116C156.388 5.29316 157.809 4.96416 159.391 4.96416C160.973 4.96416 162.394 5.29316 163.654 5.95116C164.914 6.60916 165.901 7.52616 166.615 8.70216C167.329 9.86416 167.686 11.1802 167.686 12.6502C167.686 14.1202 167.329 15.4432 166.615 16.6192C165.901 17.7812 164.914 18.6912 163.654 19.3492C162.394 20.0072 160.973 20.3362 159.391 20.3362ZM159.391 16.3252C160.007 16.3252 160.56 16.1782 161.05 15.8842C161.554 15.5762 161.953 15.1492 162.247 14.6032C162.541 14.0432 162.688 13.3922 162.688 12.6502C162.688 11.9082 162.541 11.2642 162.247 10.7182C161.953 10.1582 161.554 9.73116 161.05 9.43716C160.56 9.12916 160.007 8.97516 159.391 8.97516C158.775 8.97516 158.215 9.12916 157.711 9.43716C157.221 9.73116 156.829 10.1582 156.535 10.7182C156.241 11.2642 156.094 11.9082 156.094 12.6502C156.094 13.3922 156.241 14.0432 156.535 14.6032C156.829 15.1492 157.221 15.5762 157.711 15.8842C158.215 16.1782 158.775 16.3252 159.391 16.3252Z" fill="#FFD233"/>
<path d="M188.107 15.3802C188.107 16.5562 187.68 17.5852 186.826 18.4672C185.986 19.3352 184.782 19.9092 183.214 20.1892V22.5202H180.253V20.2942C179.203 20.2382 178.195 20.0772 177.229 19.8112C176.277 19.5452 175.486 19.2162 174.856 18.8242L176.452 15.2122C177.152 15.6182 177.936 15.9472 178.804 16.1992C179.672 16.4372 180.505 16.5562 181.303 16.5562C181.989 16.5562 182.479 16.4932 182.773 16.3672C183.067 16.2272 183.214 16.0242 183.214 15.7582C183.214 15.4502 183.018 15.2192 182.626 15.0652C182.248 14.9112 181.618 14.7432 180.736 14.5612C179.602 14.3232 178.657 14.0712 177.901 13.8052C177.145 13.5252 176.487 13.0772 175.927 12.4612C175.367 11.8312 175.087 10.9842 175.087 9.92017C175.087 8.68817 175.528 7.63116 176.41 6.74916C177.306 5.86716 178.587 5.30716 180.253 5.06916V2.78016H183.214V5.02716C184.894 5.18116 186.315 5.58716 187.477 6.24516L185.986 9.83616C184.544 9.10816 183.179 8.74416 181.891 8.74416C180.617 8.74416 179.98 9.05216 179.98 9.66816C179.98 9.96216 180.169 10.1862 180.547 10.3402C180.925 10.4802 181.548 10.6342 182.416 10.8022C183.536 11.0122 184.481 11.2572 185.251 11.5372C186.021 11.8032 186.686 12.2442 187.246 12.8602C187.82 13.4762 188.107 14.3162 188.107 15.3802Z" fill="#FFD233"/>
<path d="M195.651 20.3362C194.349 20.3362 193.194 20.0352 192.186 19.4332C191.192 18.8172 190.408 17.9352 189.834 16.7872C189.274 15.6252 188.994 14.2462 188.994 12.6502C188.994 11.0542 189.274 9.68217 189.834 8.53417C190.408 7.37217 191.192 6.49016 192.186 5.88816C193.194 5.27216 194.349 4.96416 195.651 4.96416C196.953 4.96416 198.101 5.27216 199.095 5.88816C200.103 6.49016 200.887 7.37217 201.447 8.53417C202.021 9.68217 202.308 11.0542 202.308 12.6502C202.308 14.2462 202.021 15.6252 201.447 16.7872C200.887 17.9352 200.103 18.8172 199.095 19.4332C198.101 20.0352 196.953 20.3362 195.651 20.3362ZM195.651 16.3672C196.771 16.3672 197.331 15.1282 197.331 12.6502C197.331 10.1722 196.771 8.93316 195.651 8.93316C194.531 8.93316 193.971 10.1722 193.971 12.6502C193.971 15.1282 194.531 16.3672 195.651 16.3672Z" fill="#FFD233"/>
</svg>
