<svg width="29" height="27" viewBox="0 0 29 27" fill="none" xmlns="http://www.w3.org/2000/svg">
<path fill-rule="evenodd" clip-rule="evenodd" d="M14.2573 0.183135C13.2621 1.23904 12.2278 3.50202 11.7572 5.65362C11.4715 6.95971 11.351 8.019 11.3071 9.61232L11.27 10.9556L10.7334 10.356C9.33336 8.79201 7.49931 7.32852 5.61017 6.26791C4.32725 5.54768 2.32977 4.72162 2.28853 4.89424C2.25495 5.03484 2.45241 6.34114 2.62695 7.13307C2.92594 8.48968 3.43765 10.0189 4.0219 11.3016C4.50718 12.3671 5.41833 13.9626 5.98206 14.7341C6.12171 14.9252 6.1322 14.9592 6.04411 14.9344C5.98574 14.918 5.68272 14.8575 5.37074 14.7998C3.70975 14.4928 1.91251 14.5138 0.57757 14.8558C-0.0857601 15.0258 -0.0730543 15.0128 0.10245 15.338C0.511713 16.0961 1.35735 17.1163 2.15081 17.8091C3.30718 18.8186 4.63498 19.5624 6.38911 20.1831L6.55661 20.2423L6.19619 20.4546C5.48697 20.8723 4.90192 21.3287 3.9101 22.2378C3.35636 22.7454 2.90325 23.177 2.90325 23.1969C2.90325 23.2428 3.60215 23.4369 4.12282 23.5357C4.78399 23.6611 5.91523 23.7282 7.49789 23.736C8.70611 23.7419 9.11798 23.7249 9.59667 23.6493C10.8456 23.4521 12.72 22.8553 13.5671 22.3853C13.9298 22.1841 13.9641 22.1962 13.9648 22.5264C13.9653 22.7877 14.1182 23.6695 14.2808 24.3482C14.5418 25.4377 15.0708 26.7678 15.3093 26.934C15.3615 26.9703 15.5379 27 15.7012 27C15.9545 27 16.0156 26.9795 16.1158 26.8608C16.2763 26.6708 16.2634 26.4426 16.0698 26.043C15.6385 25.1531 15.3559 24.0758 15.126 22.4451L15.0984 22.2493L15.68 22.527C16.5644 22.9493 17.9041 23.3784 19.0005 23.5905C20.256 23.8335 23.5812 23.7893 24.9551 23.5114C25.3923 23.4229 26.0466 23.2358 26.0466 23.1992C26.0466 23.1483 24.1329 21.3996 23.8024 21.1486C23.6445 21.0286 23.2653 20.7747 22.9598 20.5844L22.4042 20.2384L22.5663 20.1811C24.3392 19.5538 25.5903 18.8499 26.819 17.7884C27.5658 17.1431 28.4349 16.0977 28.8291 15.3702L29 15.0548L28.801 14.9773C28.51 14.8641 27.7382 14.7065 27.1527 14.6408C25.9194 14.5023 24.1394 14.626 22.9374 14.9335C22.8216 14.9632 22.8421 14.915 23.1111 14.5241C24.8919 11.9372 26.1725 8.68074 26.5846 5.69055C26.6319 5.34759 26.6706 5.00927 26.6706 4.93873V4.81049L26.2737 4.94385C23.4145 5.9046 20.3716 7.94852 18.2168 10.3556L17.6798 10.9556L17.6432 9.63873C17.6231 8.91449 17.5641 7.97715 17.512 7.55577C17.1702 4.78677 16.3159 2.36099 15.0874 0.671883C14.8306 0.318822 14.54 0 14.4749 0C14.4502 0 14.3523 0.0824266 14.2573 0.183135ZM14.6625 2.10029C15.4135 3.65979 16.0157 5.697 16.2866 7.59419C16.615 9.8941 16.5613 12.1237 16.1172 14.636C16.0221 15.1736 15.9322 15.6611 15.9172 15.7192C15.9023 15.7773 16.0124 15.599 16.162 15.3229C16.8669 14.0216 17.7823 12.7279 18.8912 11.4658C20.4101 9.73696 22.7879 7.90403 25.1532 6.63872C25.4854 6.46098 25.485 6.4586 25.2517 7.29159C24.8436 8.749 24.1404 10.4756 23.3763 11.8965C22.4209 13.673 21.3777 15.0569 19.8902 16.5207L19.1831 17.2166L19.6794 17.0104C21.4528 16.2735 22.9404 15.888 24.5718 15.7427C25.2627 15.6811 26.4193 15.7063 26.756 15.7901L26.9124 15.8291L26.6108 16.1704C25.484 17.4461 23.7939 18.5631 21.9437 19.255C21.2166 19.5269 20.4063 19.7507 19.4383 19.947C18.9703 20.0419 18.6257 20.1326 18.6725 20.1486C18.7193 20.1646 18.9107 20.2058 19.0979 20.2401C20.2985 20.4602 22.1716 21.3405 23.4208 22.2717C23.6577 22.4483 23.7543 22.5517 23.7158 22.5876C23.6247 22.6725 19.9166 22.6576 19.495 22.5707C17.8973 22.2412 15.973 21.5053 14.8962 20.8119L14.4749 20.5406L14.0637 20.8028C12.9805 21.4932 11.2568 22.1726 9.71012 22.5186C9.2046 22.6317 9.05292 22.6393 7.25965 22.6401C5.90644 22.6406 5.32922 22.6234 5.28356 22.5808C5.2354 22.536 5.31725 22.4473 5.60688 22.2305C6.77647 21.3551 8.43179 20.5616 9.69639 20.2701C9.87553 20.2288 10.0987 20.1776 10.1923 20.1564C10.3335 20.1244 10.2368 20.0925 9.62504 19.9696C7.24694 19.4918 5.57342 18.7982 3.94102 17.6136C3.39896 17.2202 2.50255 16.3971 2.23584 16.0478L2.05052 15.8051L2.32092 15.7622C2.4696 15.7385 3.03797 15.7221 3.58394 15.7256C5.40183 15.7375 6.93133 16.0747 9.11452 16.9452C9.36411 17.0447 9.6066 17.1412 9.6534 17.1596C9.7002 17.178 9.44006 16.8971 9.07532 16.5354C8.24318 15.71 7.77998 15.1908 7.21138 14.446C5.95035 12.7939 4.8368 10.6757 4.07545 8.48043C3.81696 7.73505 3.52721 6.73314 3.52721 6.58462C3.52721 6.48349 4.05435 6.7538 5.08712 7.38453C7.03258 8.57269 8.81757 10.0487 10.1502 11.5714C11.135 12.6966 11.9604 13.8487 12.5917 14.9795C12.8513 15.4444 13.0474 15.7537 13.0274 15.6668C12.9041 15.13 12.6547 13.5775 12.5691 12.8131C12.4469 11.7221 12.4317 9.59942 12.5385 8.55969C12.7509 6.49522 13.3382 4.20265 14.073 2.57071C14.3694 1.91256 14.4298 1.79648 14.4763 1.79648C14.4982 1.79648 14.582 1.93322 14.6625 2.10029Z" fill="#4ECB71"/>
</svg>
