<svg width="24" height="24" viewBox="0 0 24 24" fill="none" xmlns="http://www.w3.org/2000/svg">
<path d="M7.4558 0.866212L7.45578 0.866213C6.26734 0.921064 5.44493 1.11063 4.72263 1.39016C3.96282 1.67665 3.27452 2.12518 2.70558 2.70457C2.12581 3.27378 1.67694 3.96241 1.39017 4.72262C1.11068 5.44479 0.920051 6.26624 0.866204 7.45696C0.813001 8.63346 0.8 9.01097 0.8 12C0.8 14.9879 0.811997 15.3655 0.866211 16.5452L0.866213 16.5452C0.921064 17.7337 1.11064 18.5551 1.39016 19.2773C1.67652 20.0375 2.12508 20.7262 2.70461 21.2955C3.27432 21.8746 3.96325 22.3227 4.72358 22.6088C5.44584 22.8893 6.26734 23.08 7.45595 23.1338L7.45597 23.1338C8.63346 23.187 9.01097 23.2 12 23.2C14.9889 23.2 15.3665 23.188 16.5452 23.1338L16.5452 23.1338C17.7335 23.0789 18.555 22.8894 19.2773 22.6088C20.0365 22.3228 20.7254 21.8754 21.2954 21.2954C21.8746 20.7257 22.3228 20.0368 22.6088 19.2764C22.8893 18.5542 23.08 17.7327 23.1338 16.5441L23.1338 16.544C23.187 15.3665 23.2 14.989 23.2 12C23.2 9.01212 23.188 8.63447 23.1338 7.45482L23.1338 7.45478C23.0789 6.26642 22.8894 5.44495 22.6088 4.72257C22.3228 3.96237 21.8753 3.27447 21.2954 2.70551C20.7254 2.12562 20.0366 1.67721 19.2775 1.3902C18.5553 1.11069 17.7338 0.920053 16.543 0.866204C15.3665 0.813001 14.989 0.8 12 0.8C9.01112 0.8 8.63347 0.811997 7.4558 0.866212ZM4.38646 4.39035L4.38648 4.39037L4.38842 4.38842C4.75328 4.02356 5.09667 3.80158 5.58465 3.61134C5.95265 3.46813 6.51324 3.29378 7.56412 3.24579C8.71947 3.193 9.06383 3.182 12 3.182C14.9362 3.182 15.2805 3.193 16.4359 3.24579C17.4869 3.29379 18.0475 3.46817 18.4155 3.61138L18.4155 3.61141L18.4188 3.61264C18.8685 3.77853 19.2754 4.04293 19.6097 4.38647L19.6096 4.38649L19.6116 4.38842C19.9764 4.75328 20.1984 5.09667 20.3887 5.58465C20.5319 5.95265 20.7062 6.51324 20.7542 7.56412C20.807 8.71947 20.818 9.06383 20.818 12C20.818 14.9362 20.807 15.2805 20.7542 16.4359C20.7062 17.4869 20.5318 18.0475 20.3886 18.4155L20.3886 18.4155L20.3874 18.4188C20.2217 18.8678 19.9571 19.2755 19.6136 19.6096L19.6135 19.6096L19.6116 19.6116C19.2467 19.9764 18.9033 20.1984 18.4154 20.3887C18.0473 20.5319 17.4868 20.7062 16.4359 20.7542C15.2805 20.807 14.9372 20.818 12 20.818C9.06283 20.818 8.71947 20.807 7.56413 20.7542C6.51314 20.7062 5.95254 20.5318 5.58454 20.3886L5.58455 20.3886L5.58123 20.3874C5.13216 20.2217 4.72451 19.9571 4.39037 19.6136L4.39043 19.6135L4.38644 19.6096C4.0429 19.2755 3.77833 18.8678 3.61263 18.4188L3.61266 18.4188L3.61138 18.4155C3.46817 18.0475 3.29379 17.4869 3.24579 16.4359C3.193 15.2805 3.182 14.9362 3.182 12C3.182 9.06383 3.193 8.71947 3.24579 7.56413C3.29379 6.51314 3.46817 5.95254 3.61138 5.58454L3.61141 5.58455L3.61265 5.5812C3.7785 5.13149 4.0429 4.72459 4.38646 4.39035ZM10.6719 15.2064L10.6716 15.2063C10.1977 15.0098 9.77334 14.7107 9.42895 14.3305C9.08456 13.9503 8.82875 13.4984 8.67994 13.0075C8.53113 12.5166 8.49302 11.9988 8.56835 11.4913C8.64368 10.9839 8.83058 10.4995 9.11559 10.073C9.40061 9.64645 9.77664 9.28842 10.2166 9.02467C10.6566 8.76092 11.1496 8.598 11.6601 8.54765C12.1706 8.4973 12.686 8.56076 13.169 8.73347C13.652 8.90618 14.0908 9.18384 14.4536 9.54647L14.4538 9.54666C15.023 10.1139 15.3776 10.8612 15.457 11.6609C15.5365 12.4605 15.3358 13.263 14.8893 13.9311C14.4428 14.5993 13.7782 15.0917 13.009 15.3243C12.2398 15.5569 11.4137 15.5152 10.6719 15.2064ZM9.75976 6.59159C9.04952 6.88578 8.40418 7.31698 7.86058 7.86058C6.76274 8.95842 6.14597 10.4474 6.14597 12C6.14597 13.5526 6.76274 15.0416 7.86058 16.1394C8.95842 17.2373 10.4474 17.854 12 17.854C13.5526 17.854 15.0416 17.2373 16.1394 16.1394C16.683 15.5958 17.1142 14.9505 17.4084 14.2402C17.7026 13.53 17.854 12.7688 17.854 12C17.854 11.2312 17.7026 10.47 17.4084 9.75976C17.1142 9.04952 16.683 8.40418 16.1394 7.86058C15.5958 7.31698 14.9505 6.88578 14.2402 6.59159C13.53 6.29739 12.7688 6.14597 12 6.14597C11.2312 6.14597 10.47 6.29739 9.75976 6.59159ZM19.0452 7.33348C19.1948 7.19239 19.3145 7.02273 19.3974 6.83453C19.4802 6.64634 19.5244 6.44344 19.5274 6.23785C19.5304 6.03225 19.4921 5.82815 19.4148 5.63762C19.3375 5.44709 19.2228 5.27401 19.0774 5.12862C18.932 4.98323 18.7589 4.86849 18.5684 4.79119C18.3778 4.71389 18.1737 4.67561 17.9682 4.6786C17.7626 4.6816 17.5597 4.72582 17.3715 4.80864C17.1833 4.89146 17.0136 5.01119 16.8725 5.16076C16.5981 5.45164 16.4479 5.83801 16.4537 6.23785C16.4596 6.63768 16.621 7.01951 16.9037 7.30226C17.1865 7.58502 17.5683 7.74645 17.9682 7.75228C18.368 7.75811 18.7544 7.60788 19.0452 7.33348Z" fill="#4ECB71" stroke="#4ECB71" stroke-width="0.4"/>
</svg>
