<svg width="39" height="39" viewBox="0 0 39 39" fill="none" xmlns="http://www.w3.org/2000/svg">
<path d="M19.8128 38.2258C9.18929 38.3895 0.739422 29.778 0.769612 19.4387C0.799801 9.14708 9.18293 0.772337 19.5125 0.773926C29.7864 0.775515 38.1998 9.16615 38.2268 19.3815C38.2554 29.743 29.9692 38.0637 19.8128 38.2258ZM9.62624 5.96026C9.90907 6.03019 10.1998 6.07946 10.4731 6.17483C10.729 6.26543 10.918 6.21934 11.088 5.9984C10.8545 5.93165 10.6289 5.86807 10.3937 5.80131C10.4191 5.75522 10.4302 5.72661 10.4477 5.70436C10.6733 5.43892 10.5097 5.23388 10.3349 5.04474C10.1633 4.86037 9.97263 4.92553 9.79308 5.0511C9.54521 5.22435 9.30051 5.40077 9.04788 5.56449C8.92712 5.64237 8.91282 5.70754 9.00021 5.82674C9.23855 6.15099 9.46735 6.48318 9.69139 6.81696C9.76607 6.92663 9.82168 6.92346 9.92655 6.85034C10.0441 6.76928 10.0298 6.71047 9.95833 6.61034C9.81691 6.41484 9.68662 6.21139 9.55315 6.01271C9.5754 5.99522 9.60082 5.97774 9.62624 5.96026ZM18.3717 26.971L18.3796 26.9806C18.467 27.0664 18.3478 27.1697 18.413 27.2794C18.6005 27.0441 18.7832 26.8168 18.9659 26.588C18.2843 26.8995 17.5692 27.1347 17.0115 27.6497C16.8797 27.7705 16.5698 27.8055 16.7462 28.1122C16.7557 28.1281 16.7335 28.1822 16.7128 28.1917C16.3172 28.3777 16.1376 28.7369 15.966 29.1056C15.9438 29.1533 15.8723 29.1772 15.823 29.2137C15.7754 29.2503 15.7054 29.2948 15.7706 29.3536C15.9263 29.4966 15.7912 29.5729 15.7182 29.6731C15.5116 29.9544 15.3066 30.2357 15.2907 30.6061C15.2478 30.5902 15.2431 30.6092 15.2574 30.6442C15.2669 30.6299 15.2764 30.6156 15.286 30.6013C15.3209 30.5695 15.3622 30.5409 15.3892 30.5043C15.5481 30.2977 15.6625 30.0053 15.8723 29.8972C16.2377 29.7096 16.4522 29.4362 16.6159 29.0897C16.635 29.0484 16.6763 29.0134 16.7081 29.0341C16.9702 29.201 16.9861 28.9403 17.064 28.8211C17.1688 28.6622 17.2467 28.4858 17.3389 28.3189C17.3659 28.2696 17.3992 28.1695 17.4453 28.1997C17.6503 28.3363 17.6662 28.1249 17.717 28.0471C17.9458 27.6942 18.1556 27.3302 18.3717 26.971ZM20.3133 26.9662C20.5548 27.3334 20.7201 27.7451 20.9886 28.0947C21.0315 28.1504 21.1046 28.2553 21.1189 28.2473C21.3747 28.1186 21.3525 28.3681 21.4208 28.4714C21.5209 28.6209 21.5956 28.7862 21.683 28.9435C21.7274 29.0246 21.7942 29.1342 21.8832 29.077C22.0738 28.9562 22.0707 29.1231 22.1279 29.2089C22.2581 29.406 22.3217 29.6794 22.568 29.7525C22.7507 29.8066 22.8572 29.9003 22.9557 30.0466C23.078 30.2294 23.2226 30.3963 23.3561 30.5711C23.3799 30.5918 23.3879 30.6537 23.4276 30.6235C23.4578 30.6013 23.4339 30.5568 23.399 30.5329C23.3418 30.1817 23.1305 29.9115 22.9303 29.6365C22.8905 29.5825 22.819 29.4807 22.827 29.4712C23.0844 29.2344 22.7841 29.1978 22.6951 29.0834C22.6458 29.0214 22.5886 28.9499 22.5791 28.8768C22.5426 28.5954 22.3805 28.4333 22.131 28.3236C22.015 28.2728 21.8577 28.1583 21.9531 28.0296C22.0579 27.8865 21.9642 27.8659 21.8975 27.8055C21.6321 27.5734 21.3636 27.3604 21.1252 27.0807C20.7805 26.6786 20.2593 26.4258 19.8128 26.1111C19.9304 26.518 20.0321 26.9106 20.2799 27.3143C20.2799 27.1618 20.2799 27.0775 20.2799 26.9933C20.2911 26.9885 20.3022 26.9774 20.3133 26.9662ZM7.00135 27.2142C6.99499 27.2078 6.99023 27.2015 6.98387 27.1983C6.98228 27.1967 6.97593 27.2015 6.97116 27.2047C6.98228 27.2063 6.99341 27.2078 7.00612 27.2094C6.94256 27.3032 7.02836 27.3588 7.06808 27.4192C7.65281 28.3427 8.32492 29.1994 9.11143 29.9544C12.5213 33.2318 16.5873 34.6814 21.2841 34.1092C26.008 33.5338 29.6037 31.1131 32.1301 27.0918C32.1635 27.0394 32.2318 26.9901 32.1762 26.8884C32.0348 26.9297 31.8949 26.9933 31.7488 27.0076C31.28 27.0553 31.0067 27.3334 30.7366 27.7037C27.3999 32.2877 21.6655 34.3826 16.1615 33.0188C12.9328 32.2177 10.327 30.4566 8.32015 27.8039C8.21052 27.6577 8.13902 27.4701 7.9118 27.4304C7.60355 27.3763 7.30324 27.2889 7.00135 27.2142ZM3.50573 19.275C3.48507 19.2654 3.46442 19.2559 3.44376 19.2464C3.44853 19.2702 3.45171 19.294 3.45647 19.3195C4.11111 20.6403 5.0581 21.6067 6.57234 21.8896C6.37849 21.8991 6.18623 21.9087 5.91453 21.9214C6.23072 22.1534 6.53897 22.2631 6.70104 22.5492C6.91396 22.9259 7.25558 23.1214 7.66075 23.2231C7.87208 23.2756 8.08499 23.3264 8.33445 23.3868C8.10565 23.5378 8.23276 23.6237 8.36464 23.6936C8.71897 23.8859 9.08919 24.0417 9.47688 24.1593C9.54362 24.18 9.68344 24.1704 9.66279 24.2706C9.59764 24.5805 9.84869 24.598 10.0155 24.652C10.3301 24.7538 10.694 24.749 10.9736 24.9032C11.4408 25.1606 11.8857 25.4245 12.437 25.442C12.5387 25.4452 12.6992 25.5437 12.6611 25.6407C12.5244 25.9999 12.8057 25.8727 12.9328 25.8807C13.1314 25.8918 13.3491 25.8123 13.5223 25.9379C13.7225 26.0825 13.9116 26.0698 14.1181 25.984C14.3628 25.8807 14.598 25.8393 14.8141 26.0587C14.8967 26.1429 15.0238 26.1127 15.1334 26.1191C15.8707 26.1636 16.6 26.0746 17.3309 25.9919C17.8616 25.9315 18.3955 25.8966 18.985 25.8457C18.8976 25.8012 18.8658 25.7789 18.8308 25.7662C17.2896 25.2179 15.8214 24.5138 14.428 23.6586C13.7368 23.2343 13.0933 22.7225 12.2718 22.5413C12.0096 22.4825 11.7522 22.4507 11.49 22.4189C11.2422 22.3887 11.0038 22.1582 10.7353 22.066C10.6845 22.0485 10.6018 21.9913 10.5859 22.0803C10.5446 22.3124 10.4286 22.1614 10.354 22.1296C9.97422 21.9675 9.59923 21.7958 9.22266 21.6289C9.1305 21.5892 9.03675 21.5336 8.95731 21.6512C8.86674 21.7847 8.78412 21.7243 8.6856 21.6496C8.08181 21.1871 7.40335 20.8994 6.6502 20.7913C6.55963 20.7786 6.4786 20.7516 6.41027 20.6816C6.25615 20.5274 6.06071 20.4368 5.85256 20.3955C4.97389 20.2191 4.20009 19.8313 3.50573 19.275ZM20.0623 25.3355L20.0575 25.3307C20.0273 25.4881 19.7969 25.5516 19.8509 25.7551C21.3652 25.4309 25.6823 23.1929 26.1589 22.4745C26.0843 22.4983 26.0302 22.527 25.973 22.5333C25.8809 22.5428 25.7506 22.6954 25.7013 22.5142C25.6632 22.3744 25.8284 22.3919 25.9111 22.3617C26.1653 22.2679 26.4243 22.1868 26.6785 22.0962C26.7897 22.0565 26.8851 21.9754 26.8406 21.8483C26.7913 21.7084 26.6785 21.7815 26.5864 21.8117C26.5196 21.834 26.4513 21.8499 26.3846 21.8689C26.3703 21.8514 26.356 21.834 26.3417 21.8165C27.0027 21.381 27.473 20.769 27.9147 20.1285C28.6059 19.1256 29.3511 18.1592 29.8611 17.0418C29.9437 16.8622 30.0009 16.6778 29.9136 16.4903C29.7928 16.2312 29.8675 16.0166 30.047 15.8275C30.333 15.5255 30.4411 15.1599 30.476 14.7578C30.5189 14.2651 30.573 13.7755 30.8431 13.34C30.9225 13.2129 30.9622 13.0603 30.8383 12.9506C30.5618 12.709 30.6159 12.4452 30.735 12.1559C30.8113 11.9699 30.8717 11.7776 30.9257 11.5837C31.1052 10.9511 31.1672 10.398 31.0941 10.0769C31.0655 10.1325 31.0433 10.1754 31.0226 10.2184C30.5952 11.0957 30.0327 11.8873 29.3511 12.5739C28.9936 12.9331 28.5884 13.2288 28.4676 13.7533C28.4486 13.8359 28.4025 13.8455 28.3389 13.8009C28.0847 13.6229 27.8956 13.8041 27.7653 13.9615C27.0297 14.842 26.2098 15.6542 25.6092 16.6413C25.5488 16.7398 25.4773 16.8066 25.3708 16.8574C24.7448 17.1515 24.3364 17.6108 24.2808 18.3308C24.2729 18.4342 24.2427 18.5359 24.2125 18.6964C24.1823 18.5804 24.1744 18.52 24.1521 18.4659C24.1045 18.3483 24.1696 18.1608 24.0218 18.1194C23.8582 18.0749 23.7231 18.1973 23.604 18.3134C23.2957 18.6138 23.0621 18.9666 22.9287 19.3735C22.8715 19.5468 22.7841 19.6548 22.6411 19.728C22.5505 19.6262 22.7316 19.534 22.6125 19.4323C22.4297 19.534 22.4027 19.7232 22.3948 19.8964C22.3837 20.1619 22.2756 20.3733 22.1326 20.5863C21.4653 21.5749 20.9203 22.6287 20.4722 23.7317C20.272 24.2261 20.0924 24.7283 19.9558 25.2433C19.9431 25.2926 19.8891 25.3609 19.9733 25.3943C19.9892 25.4007 20.0305 25.3561 20.0623 25.3355ZM13.0535 21.8864C12.9471 21.9182 12.8597 21.8467 12.7644 21.8276C12.6658 21.8085 12.5514 21.6909 12.4672 21.8292C12.391 21.9563 12.5165 22.0279 12.5864 22.1058C12.6261 22.1503 12.6786 22.1836 12.7246 22.2218C14.3136 23.5045 16.0947 24.4534 17.9728 25.2306C18.4702 25.4372 18.9691 25.6407 19.4871 25.7773C19.5395 25.6963 19.5014 25.6407 19.4871 25.585C19.0215 23.727 18.1953 22.0326 17.1307 20.4496C17.0084 20.2668 16.9226 20.0967 16.9083 19.8742C16.8987 19.7105 16.8638 19.5356 16.7033 19.4371C16.5968 19.5134 16.7382 19.6342 16.6445 19.7089C16.4808 19.6389 16.422 19.507 16.3712 19.3592C16.2218 18.9205 15.9692 18.547 15.6212 18.245C15.3527 18.0145 15.2383 18.059 15.1652 18.3992C15.1477 18.4771 15.17 18.5772 15.0651 18.6201C14.9412 17.5759 14.7918 17.3502 13.8655 16.8256C13.767 16.77 13.7304 16.6826 13.678 16.5999C13.0551 15.6272 12.2543 14.7991 11.5059 13.9313C11.3836 13.7882 11.2056 13.6436 10.9752 13.7914C10.8259 13.8884 10.8354 13.7453 10.8148 13.6722C10.7162 13.3432 10.5335 13.0714 10.2777 12.8473C10.1109 12.7026 9.92655 12.5818 9.78196 12.4086C9.20041 11.7108 8.64588 10.9956 8.2566 10.1675C8.23912 10.1309 8.22799 10.0689 8.15332 10.0896C8.17715 10.8414 8.32492 11.5662 8.60775 12.264C8.69037 12.469 8.73804 12.6772 8.5426 12.8473C8.33922 13.0237 8.36941 13.2113 8.49176 13.4131C8.66018 13.6945 8.74757 14.0012 8.77458 14.3286C8.82225 14.9263 8.89852 15.5112 9.35772 15.9673C9.48165 16.0897 9.47212 16.2709 9.40697 16.4251C9.30846 16.6619 9.34659 16.8797 9.46576 17.0895C10.462 18.8363 11.4265 20.6069 13.0488 21.8864H13.0535ZM22.0722 17.8111C22.3392 17.0561 22.5124 16.2868 22.5092 15.4492C22.2438 15.6018 22.2502 15.8895 22.0389 16.0929C22.1183 15.5207 22.1898 15.0026 22.2645 14.4844C22.3249 14.0696 22.2105 13.9456 21.7767 13.9742C21.899 13.4719 21.9706 12.9649 21.9801 12.4515C21.9833 12.3005 21.9864 12.1273 21.7767 12.1066C21.5304 12.0828 21.5908 11.9795 21.6798 11.8332C21.8847 11.4963 21.9245 11.1371 21.7989 10.7588C21.7338 10.5649 21.6432 10.4647 21.4319 10.5792C21.2667 10.6682 21.2031 10.63 21.219 10.4298C21.2508 10.0086 21.2635 9.58417 21.2794 9.16138C21.2857 8.99926 21.2603 8.82283 21.0426 8.87528C20.8059 8.9325 20.8218 8.76561 20.8027 8.64164C20.7789 8.48587 20.871 8.35395 20.9362 8.21726C21.0029 8.07739 21.1348 7.93116 20.9632 7.78493C20.7995 7.64506 20.7248 7.86122 20.6025 7.8946C20.5898 7.89778 20.5723 7.88506 20.5389 7.87394C20.6502 7.60532 20.7487 7.33194 20.7995 7.04425C20.8345 6.84716 20.7789 6.77087 20.5787 6.86465C20.5358 6.88372 20.4897 6.91551 20.4372 6.86624C20.4023 6.74385 20.469 6.63418 20.496 6.51974C20.6295 5.95231 20.5771 5.44051 20.1115 5.02567C19.9653 4.89533 19.9097 4.70619 19.87 4.51546C19.8096 4.23254 19.8732 3.9528 19.8827 3.67306C19.8907 3.42193 19.8938 3.17397 19.7222 2.93238C19.5776 3.08656 19.5427 3.26139 19.5331 3.43941C19.5236 3.65081 19.5284 3.8622 19.5316 4.0736C19.5363 4.45824 19.4759 4.82063 19.182 5.10037C18.815 5.44846 18.7339 5.87125 18.834 6.34808C18.8722 6.52769 18.9023 6.70888 18.9405 6.90279C18.5004 6.79471 18.494 6.7963 18.5973 7.20638C18.6561 7.43684 18.7339 7.66095 18.8102 7.91208C18.7578 7.89301 18.7292 7.88824 18.7085 7.87235C18.6052 7.80082 18.5131 7.66572 18.3717 7.79765C18.2461 7.91526 18.3256 8.04083 18.3844 8.15527C18.4654 8.31739 18.5782 8.46839 18.5528 8.6623C18.5385 8.76879 18.5162 8.91979 18.3748 8.88959C18.0539 8.82124 18.065 9.02469 18.0729 9.22496C18.0872 9.61755 18.1031 10.0101 18.1365 10.4011C18.1556 10.6284 18.0777 10.6745 17.8918 10.5728C17.7234 10.4806 17.6471 10.5394 17.5804 10.7079C17.4199 11.1164 17.4691 11.4979 17.6932 11.8634C17.7615 11.9747 17.8124 12.0828 17.636 12.0987C17.3706 12.1225 17.3706 12.2926 17.377 12.4849C17.3929 12.9872 17.458 13.4831 17.5804 13.9742C17.1386 13.944 17.0385 14.0553 17.0973 14.4987C17.1688 15.0359 17.2467 15.5732 17.3261 16.1406C17.1259 15.9419 17.1212 15.6399 16.8542 15.4556C16.8272 16.3043 17.0338 17.0625 17.2817 17.8286C17.199 17.8349 17.1386 17.8492 17.0814 17.8413C16.8256 17.8063 16.7796 17.8969 16.8542 18.1385C17.0084 18.6408 17.18 19.1335 17.4262 19.5992C17.5502 19.8329 17.6821 20.0633 17.8124 20.2986C17.6535 20.3606 17.5025 20.3017 17.3595 20.3955C17.86 21.1696 18.3176 21.9595 18.7053 22.7892C19.0914 23.6157 19.4124 24.4661 19.6952 25.3418C19.4394 19.4657 19.3393 13.5943 19.6348 7.72294C19.5904 13.4433 19.7127 19.1605 19.8017 24.8857C20.3356 23.2819 21.0839 21.791 22.0198 20.3637C21.8355 20.3431 21.6988 20.3288 21.5638 20.3129C21.5527 20.1952 21.6321 20.1333 21.6766 20.0586C22.0023 19.5213 22.2597 18.9555 22.4377 18.3531C22.5743 17.8747 22.5728 17.8747 22.0722 17.8111ZM35.5367 19.0016C35.1125 19.2893 34.7169 19.6453 34.2259 19.7852C33.3981 20.0188 32.6417 20.4432 31.806 20.6466C31.3325 20.7627 30.9003 20.9773 30.4951 21.2475C30.3314 21.3571 30.1837 21.6098 29.9517 21.3269C29.9326 21.3047 29.8214 21.3444 29.7594 21.3714C29.3733 21.5415 28.9888 21.7179 28.6011 21.8864C28.5471 21.9103 28.4486 22.0072 28.4295 21.9103C28.3739 21.6385 28.2229 21.8212 28.1435 21.8514C27.9576 21.9214 27.7844 22.0295 27.6064 22.1232C27.5381 22.1598 27.4793 22.2409 27.3904 22.1884C27.1202 22.031 26.9264 22.2027 26.7437 22.3489C24.9164 23.8112 22.8635 24.8587 20.6867 25.6883C20.6168 25.7154 20.531 25.7138 20.5135 25.7599C20.8234 25.7599 21.1443 25.7694 21.4637 25.7583C22.1501 25.7328 22.8254 25.9109 23.5118 25.8616C23.747 25.8441 24.0091 25.9204 24.2109 25.7615C24.4064 25.6073 24.597 25.62 24.8052 25.6915C24.9482 25.7408 25.1118 25.8441 25.239 25.7662C25.5472 25.5803 25.8666 25.5977 26.1987 25.6232C26.2876 25.6295 26.4561 25.5946 26.3671 25.4658C26.2336 25.2719 26.4052 25.2576 26.4831 25.2115C26.6515 25.1114 26.8469 25.1018 27.0376 25.0987C27.2362 25.0971 27.4158 25.051 27.5588 24.9032C27.7574 24.6997 28.01 24.6091 28.2786 24.5471C28.5519 24.4835 28.8379 24.4597 29.0984 24.3469C29.2065 24.2992 29.3781 24.2372 29.34 24.1164C29.2732 23.9114 29.4162 23.9272 29.5131 23.8955C29.8881 23.7762 30.2488 23.6268 30.5984 23.4472C30.7525 23.3678 30.8637 23.2819 30.6572 23.123C30.8462 23.0753 31.0099 23.0308 31.1767 22.9942C31.5676 22.9068 31.941 22.7844 32.1794 22.4348C32.37 22.1534 32.5972 21.9214 32.9071 21.7752C32.9516 21.7545 32.9992 21.7291 32.9659 21.6559C32.7895 21.6464 32.6099 21.6369 32.4304 21.6289C33.9764 21.3396 34.8948 20.3399 35.5367 19.0016ZM20.0829 26.0301C20.5326 26.2796 20.9409 26.5085 21.354 26.731C21.4128 26.7628 21.505 26.7914 21.5543 26.7676C21.907 26.5864 22.1692 26.7978 22.4472 26.9551C22.6935 27.095 22.9493 27.238 23.2433 27.1554C23.453 27.0966 23.6373 27.1284 23.8296 27.2047C24.0441 27.2905 24.2618 27.3684 24.481 27.4463C24.5954 27.486 24.7543 27.5416 24.8274 27.4494C25.0785 27.1284 25.3311 27.3143 25.571 27.4272C25.8126 27.5416 26.0445 27.5861 26.2956 27.478C26.5848 27.3557 26.8819 27.3461 27.1838 27.4192C27.2887 27.4447 27.4126 27.4939 27.492 27.3827C27.6478 27.1649 27.8686 27.1776 28.0927 27.1935C29.0317 27.2571 29.9644 27.2126 30.8891 27.0282C31.4977 26.9059 32.092 26.739 32.745 26.4608C32.0951 26.4751 31.5343 26.6245 30.9813 26.4703C30.5587 26.3527 30.1471 26.3718 29.7276 26.4576C29.6323 26.4767 29.5259 26.5371 29.4416 26.4513C29.2208 26.2288 28.9443 26.2621 28.6758 26.2844C28.3135 26.3146 27.9544 26.367 27.5858 26.4099C27.6382 26.2733 27.8321 26.3035 27.867 26.1223C27.3633 26.1604 26.8819 26.1954 26.4005 26.2319C26.3989 26.1191 26.545 26.1572 26.545 26.0317C26.1272 26.0078 25.7204 25.9681 25.3089 25.9617C24.8703 25.9554 24.4556 25.8425 23.9948 25.9999C23.6008 26.135 23.1368 26.073 22.7078 26.0189C21.8466 25.9093 20.9902 25.9283 20.0829 26.0301ZM19.1645 4.77931C18.726 4.74911 18.3288 4.79997 17.9347 4.84447C14.3104 5.25614 11.2374 6.78994 8.73009 9.43794C8.23276 9.96405 8.29632 9.73358 8.5998 10.3948C8.69355 10.5982 8.75552 10.6539 8.9303 10.4409C9.67868 9.5349 10.5526 8.76084 11.5155 8.08851C13.5938 6.63736 15.8993 5.81562 18.4257 5.61217C18.4924 5.6074 18.5877 5.64078 18.6163 5.56131C18.726 5.26408 18.9723 5.06223 19.1645 4.77931ZM20.1862 4.765C20.3387 5.0352 20.5802 5.17349 20.6565 5.41667C20.7153 5.60581 20.8408 5.64555 21.014 5.66462C24.6606 6.08264 27.6732 7.70546 30.0867 10.46C30.4458 10.87 30.4411 10.8716 30.7096 10.3789C30.7922 10.2279 30.8733 10.1119 30.7144 9.93067C27.9369 6.76133 24.4413 5.06381 20.1862 4.765ZM19.3917 26.0237C18.923 26.0491 18.5258 26.0555 18.1317 26.0936C17.1593 26.1874 16.2187 26.4656 15.2478 26.5832C13.3856 26.8089 11.5218 26.9186 9.64531 26.7978C9.24331 26.7723 8.86038 26.5594 8.4568 26.6563C7.77992 26.8184 7.10145 26.7914 6.41822 26.731C6.41186 26.731 6.40392 26.7549 6.39121 26.7803C6.49448 26.82 6.59459 26.8629 6.69787 26.8995C8.02461 27.3716 9.39267 27.5448 10.7957 27.4574C10.9752 27.4463 11.2104 27.3731 11.3216 27.5003C11.552 27.7626 11.7951 27.6799 12.0605 27.6402C12.1971 27.6195 12.3465 27.6068 12.4784 27.6688C12.8645 27.8516 13.2299 27.823 13.5985 27.6084C13.7225 27.5353 13.937 27.4494 14.0212 27.5686C14.2373 27.8706 14.4597 27.7101 14.6869 27.6386C14.965 27.5528 15.2367 27.3286 15.5132 27.3922C16.0264 27.5098 16.4157 27.2984 16.8161 27.06C16.9702 26.9678 17.1371 26.917 17.3055 26.9901C17.466 27.0584 17.5947 27.0155 17.7345 26.9424C17.9919 26.8057 18.2557 26.6817 18.5131 26.545C18.7927 26.3988 19.0946 26.2891 19.3917 26.0237ZM7.96106 10.4107C7.9118 10.4282 7.88797 10.4298 7.87684 10.4425C7.8117 10.5203 7.74814 10.5982 7.68935 10.6793C5.75246 13.3098 4.76733 16.2566 4.76892 19.5277C4.76892 19.6485 4.69424 19.809 4.84837 19.8837C5.05651 19.9839 5.2742 20.0729 5.50777 20.0919C5.60151 20.0999 5.5888 19.9966 5.58086 19.9266C5.54749 19.604 5.5745 19.2829 5.58562 18.9618C5.67619 16.5221 6.35625 14.2587 7.6544 12.1956C7.95629 11.714 8.20257 11.2753 7.98012 10.7015C7.94993 10.6205 7.96741 10.5219 7.96106 10.4107ZM31.3277 10.7317C31.2705 11.0115 31.2435 11.2547 31.1672 11.4804C31.0925 11.7045 31.137 11.8714 31.261 12.0653C32.1142 13.3877 32.7069 14.823 33.0628 16.3552C33.3091 17.4169 33.4251 18.4961 33.4267 19.5865C33.4267 19.6707 33.3552 19.8042 33.5077 19.836C33.8239 19.9028 34.2306 19.5627 34.2259 19.2432C34.183 16.7048 33.5188 14.3382 32.2652 12.1368C31.995 11.6584 31.7011 11.1927 31.3277 10.7317ZM4.92146 21.4048C4.90716 21.4509 4.89444 21.47 4.89603 21.4859C5.12484 23.2199 5.65871 24.8555 6.47224 26.402C6.51514 26.4846 6.55963 26.5562 6.67085 26.5609C6.93779 26.5721 7.20155 26.6261 7.47008 26.5959C7.48438 26.4926 7.42082 26.4322 7.38269 26.367C6.73759 25.2417 6.27045 24.0465 5.96538 22.7876C5.90659 22.5444 5.85574 22.2965 5.77629 22.0597C5.63965 21.6512 5.20587 21.6353 4.92146 21.4048ZM34.1385 21.1251C33.9526 21.2252 33.8032 21.3333 33.6348 21.3889C33.3409 21.4843 33.2439 21.7052 33.1978 21.9738C33.0374 22.9084 32.7657 23.8112 32.4177 24.6934C32.1968 25.2528 31.9156 25.7853 31.6375 26.3464C31.8886 26.3321 32.1079 26.3066 32.3255 26.3082C32.5241 26.3098 32.6338 26.224 32.7085 26.0428C32.8689 25.6518 33.0612 25.2751 33.2153 24.8825C33.6888 23.6825 34.0018 22.4427 34.1385 21.1251ZM10.2809 32.178C10.1776 32.1653 10.0854 32.2114 10.0155 32.2861C9.92496 32.383 9.75653 32.5023 9.85028 32.6246C9.92337 32.72 10.095 32.9521 10.2698 32.6691C10.319 32.5881 10.3985 32.658 10.4541 32.6914C10.6781 32.8265 10.8974 32.968 11.1214 33.1015C11.2199 33.1603 11.2755 33.2159 11.1993 33.3399C11.1262 33.4575 11.0515 33.4925 10.9307 33.4146C10.7607 33.3065 10.5844 33.2096 10.4207 33.0935C10.2841 32.995 10.2078 33.0109 10.114 33.1571C10.0171 33.3081 10.0473 33.378 10.1935 33.4559C10.3699 33.5497 10.5351 33.6689 10.7083 33.7706C10.8322 33.8437 10.837 33.9216 10.7639 34.0424C10.6876 34.1648 10.6146 34.1457 10.516 34.0837C10.2952 33.9439 10.0711 33.8104 9.85028 33.6689C9.78672 33.6292 9.68662 33.5847 9.75495 33.4845C9.92814 33.235 9.66438 33.2175 9.56269 33.1603C9.39267 33.0633 9.37837 33.2668 9.33229 33.3494C9.19088 33.6085 9.30052 33.8231 9.51979 33.9725C9.80102 34.1648 10.0918 34.3444 10.3889 34.5129C10.6876 34.683 10.9085 34.613 11.1039 34.3174C11.2501 34.0949 11.347 33.8485 11.5155 33.6323C11.8444 33.2096 11.7808 33.0013 11.3169 32.7105C11.0944 32.5722 10.8735 32.4339 10.6495 32.2972C10.5399 32.2305 10.4239 32.1717 10.2809 32.178ZM14.4947 36.3535C14.8204 36.3853 14.973 36.2772 15.054 36.0658C15.1811 35.7383 15.305 35.4093 15.429 35.0803C15.5307 34.8101 15.4528 34.594 15.1938 34.4795C14.8458 34.3253 14.4883 34.1871 14.1261 34.0694C13.8782 33.99 13.6573 34.0726 13.5525 34.3253C13.4095 34.6655 13.2903 35.0167 13.1616 35.3632C13.0806 35.581 13.1346 35.7749 13.33 35.8878C13.7241 36.1135 14.1578 36.2358 14.4947 36.3535ZM26.2654 33.6133C26.2225 33.6196 26.1669 33.6165 26.124 33.6371C25.7252 33.8278 25.3311 34.0249 24.9307 34.2125C24.8084 34.2697 24.8703 34.3365 24.9053 34.4048C25.123 34.8467 25.3438 35.2854 25.5567 35.7288C25.6028 35.8242 25.6362 35.8735 25.7554 35.8115C26.1113 35.6255 26.4783 35.4634 26.8311 35.2711C27.1139 35.1169 27.1743 34.9261 27.0217 34.6416C26.8851 34.3889 26.758 34.1346 26.6451 33.8723C26.5752 33.7166 26.4561 33.6133 26.2654 33.6133ZM17.8632 36.1961C17.5772 36.4584 17.3563 36.6602 17.1434 36.8557C17.52 37.048 17.7504 36.8192 17.9728 36.5664C18.1127 36.9241 18.3001 37.0433 18.6402 37.0083C18.869 36.9845 19.012 36.8684 19.0342 36.63C19.0485 36.4822 19.0819 36.328 18.9961 36.1897C18.9087 36.0499 18.7578 36.0054 18.5512 35.9593C18.8038 35.7113 19.0168 35.5031 19.2281 35.2965C18.8626 35.1328 18.6148 35.3092 18.4098 35.5969C18.2414 35.2313 17.9935 35.0914 17.6709 35.1582C17.3802 35.2186 17.3373 35.4332 17.3198 35.6795C17.2991 35.9958 17.4691 36.1373 17.8632 36.1961ZM29.3844 31.334C29.3606 31.3436 29.2828 31.3531 29.2319 31.3944C28.8871 31.6853 28.5471 31.9841 28.2055 32.2797C28.1149 32.3592 28.1753 32.418 28.2309 32.4816C28.5598 32.8488 28.8871 33.2159 29.2144 33.5831C29.2685 33.6435 29.3129 33.7055 29.4067 33.618C29.7213 33.3224 30.0518 33.0443 30.36 32.7407C30.5332 32.5706 30.5332 32.3624 30.3664 32.1732C30.1614 31.9396 29.9533 31.7059 29.7435 31.4755C29.6625 31.3849 29.5624 31.3197 29.3844 31.334ZM21.1824 35.5397C21.2539 35.8941 21.3143 36.2501 21.3985 36.5998C21.4557 36.8367 21.6496 36.9098 21.8657 36.878C22.1835 36.8319 22.4997 36.7699 22.8111 36.6952C23.0431 36.6396 23.175 36.4822 23.14 36.2311C23.1273 36.1452 23.1654 35.9879 23.0161 36.0101C22.9128 36.026 22.6983 35.9609 22.7348 36.2072C22.7523 36.3233 22.6617 36.3328 22.5823 36.3471C22.3757 36.3884 22.1692 36.425 21.9626 36.4679C21.8164 36.4981 21.7608 36.4456 21.7243 36.2962C21.5288 35.5079 21.5844 35.4252 22.4027 35.3521C22.4901 35.3442 22.5696 35.3315 22.595 35.4332C22.6522 35.6589 22.7952 35.5254 22.9017 35.5079C23.0812 35.4777 22.9684 35.3442 22.9573 35.2711C22.9175 35.0374 22.7555 34.915 22.5267 34.9452C22.1803 34.9913 21.8355 35.0612 21.4923 35.1391C21.2953 35.1852 21.1872 35.3251 21.1824 35.5397ZM14.501 3.7271C14.4438 3.64445 14.4867 3.44895 14.2643 3.54749C14.0625 3.6365 13.8448 3.68418 13.6414 3.76842C13.5191 3.81929 13.4619 3.8018 13.419 3.67624C13.3697 3.53319 13.481 3.53001 13.5588 3.5014C13.8226 3.40444 14.0863 3.30749 14.3549 3.22325C14.482 3.18192 14.5424 3.13901 14.4836 2.99119C14.4343 2.86562 14.3723 2.85609 14.2595 2.89741C13.8925 3.03252 13.5239 3.16444 13.1521 3.28841C13.0106 3.33451 12.9582 3.38378 13.0234 3.5459C13.1648 3.90035 13.2935 4.25956 13.4031 4.62513C13.4539 4.79361 13.5175 4.82222 13.6732 4.765C14.0307 4.63149 14.393 4.51228 14.7505 4.38195C14.8474 4.34698 14.9602 4.33585 14.8919 4.15943C14.8315 4.00207 14.7569 4.02114 14.644 4.06088C14.3692 4.15784 14.0943 4.25002 13.821 4.35175C13.7209 4.3883 13.6685 4.38989 13.624 4.2691C13.5747 4.13241 13.6478 4.1181 13.74 4.0879C13.9497 4.01797 14.1562 3.93849 14.3644 3.86697C14.4327 3.84313 14.5058 3.832 14.501 3.7271ZM7.67505 8.81647C7.63374 8.56693 7.36839 8.43501 7.15547 8.29514C7.00771 8.19818 6.96004 8.43819 6.8647 8.52243C6.75983 8.61462 6.68674 8.74018 6.59141 8.84191C6.50879 8.92932 6.5215 8.98495 6.61206 9.05807C6.70263 9.13277 6.77413 9.16774 6.85676 9.0533C6.9219 8.96429 6.99976 8.88482 7.06332 8.79422C7.14753 8.67343 7.24604 8.73541 7.26829 8.8133C7.35091 9.09304 7.05061 9.1741 6.9505 9.36165C6.9076 9.43953 6.8504 9.59371 6.70422 9.48563C6.52785 9.3537 6.36102 9.20748 6.191 9.06602C6.14651 9.02946 6.13062 8.96906 6.16717 8.9325C6.36102 8.74177 6.44682 8.44455 6.73759 8.34918C6.85199 8.31103 6.95527 8.20931 6.92826 8.11871C6.8933 8.00427 6.74712 7.97089 6.62001 7.99315C6.51832 8.01222 6.43887 8.07739 6.37373 8.15527C6.25138 8.3015 6.12744 8.44772 6.00669 8.59395C5.69367 8.97383 5.70797 9.09463 6.08137 9.40774C6.85199 10.0546 6.81862 10.0721 7.47008 9.26628C7.56224 9.15026 7.67346 9.04217 7.67505 8.81647ZM17.5152 2.6733C17.5359 2.9753 17.5613 3.2757 17.5756 3.57769C17.582 3.70644 17.6201 3.74617 17.7551 3.73346C18.1556 3.69531 18.5576 3.6667 18.958 3.64763C19.0946 3.64127 19.1248 3.58564 19.1248 3.46166C19.1248 3.30908 19.0358 3.30749 18.9262 3.31543C18.6561 3.3361 18.3844 3.35994 18.1127 3.37106C18.0205 3.37424 17.8839 3.44259 17.8823 3.24073C17.8807 3.05 18.0189 3.09768 18.1111 3.08815C18.3017 3.06907 18.4924 3.07066 18.6847 3.05954C18.8165 3.05318 18.8706 2.99914 18.8626 2.84973C18.8547 2.68443 18.7641 2.70986 18.6624 2.71781C18.4527 2.73529 18.2414 2.75118 18.0316 2.76549C17.9395 2.77185 17.8489 2.78297 17.8378 2.64628C17.8251 2.49687 17.9188 2.48416 18.0253 2.47621C18.297 2.45873 18.5671 2.44442 18.8388 2.42376C18.9405 2.41581 19.0565 2.44442 19.0469 2.25687C19.0374 2.05501 18.9246 2.09316 18.8054 2.10111C18.5353 2.12018 18.2636 2.13925 17.9919 2.15515C17.493 2.18535 17.493 2.18535 17.5152 2.6733ZM22.3551 2.84814C22.5791 3.25821 22.7682 3.58882 22.9382 3.92737C23.0129 4.07519 23.1432 4.09267 23.2655 4.09108C23.4053 4.08949 23.3704 3.94485 23.3895 3.85743C23.4641 3.51411 23.5245 3.16762 23.6055 2.82589C23.6389 2.68125 23.6564 2.58747 23.4657 2.55092C23.2433 2.508 23.3037 2.68125 23.2798 2.77344C23.2194 2.99914 23.1797 3.2296 23.1336 3.45213C23.0383 3.45054 23.0319 3.39014 23.0097 3.3504C22.8508 3.06112 22.684 2.77344 22.5394 2.47621C22.4615 2.31568 22.3185 2.29661 22.1898 2.30296C22.0595 2.30932 22.1008 2.46191 22.0818 2.54774C21.9976 2.90854 21.9419 3.27729 21.853 3.63809C21.818 3.78114 21.8689 3.80498 21.9817 3.83836C22.1136 3.87651 22.1612 3.83677 22.1835 3.70644C22.2264 3.45054 22.2836 3.19782 22.3551 2.84814ZM29.6276 7.20002C29.7134 7.2032 29.7928 7.18094 29.8452 7.11578C30.0454 6.86465 30.252 6.6151 30.4347 6.35126C30.5396 6.19867 30.484 6.03496 30.3457 5.92052C30.1217 5.73456 29.8897 5.55495 29.653 5.38488C29.4766 5.25932 29.3066 5.30064 29.1731 5.46435C29.0015 5.67575 28.8315 5.88873 28.671 6.10807C28.528 6.30516 28.5693 6.48954 28.7505 6.64054C28.9284 6.78835 29.1143 6.92663 29.2986 7.06809C29.3972 7.14121 29.4988 7.20637 29.6276 7.20002ZM11.1357 26.3813C11.1294 26.4068 11.123 26.4306 11.1166 26.456C11.2883 26.5466 11.436 26.6849 11.6553 26.6786C13.0837 26.6404 14.5042 26.518 15.591 26.3829C15.2065 26.5117 14.5249 25.9188 13.8035 26.2367C13.7558 26.2574 13.6843 26.2256 13.624 26.2256C13.2299 26.2224 12.8359 26.2335 12.4609 26.3082C12.4609 26.4131 12.5943 26.3845 12.5689 26.491C12.0891 26.4545 11.6124 26.4179 11.1357 26.3813ZM34.21 12.9411C34.1862 12.887 34.1655 12.8409 34.1433 12.7964C34.0432 12.5882 33.9574 12.372 33.835 12.1765C33.6999 11.9588 33.7111 11.83 33.9732 11.7331C34.2068 11.6473 34.4245 11.5153 34.6533 11.4136C34.7804 11.3564 34.7693 11.288 34.7137 11.18C34.6597 11.0735 34.6136 11.0592 34.5087 11.1132C34.1433 11.3008 33.7715 11.4756 33.4012 11.6568C33.3345 11.6902 33.2392 11.6997 33.2995 11.8221C33.5013 12.2258 33.6999 12.6311 33.8954 13.038C33.9335 13.1159 33.9748 13.1111 34.0352 13.0714C34.0956 13.0285 34.1909 13.0317 34.21 12.9411ZM32.9198 8.52879C32.8658 8.45408 32.8245 8.38733 32.772 8.32852C32.6926 8.23792 32.6481 8.33805 32.6036 8.37302C32.2906 8.62097 31.9855 8.87846 31.6693 9.12482C31.5597 9.20906 31.5374 9.26946 31.6359 9.38549C31.7281 9.49357 31.7837 9.46814 31.8743 9.39185C32.173 9.14072 32.4781 8.89912 32.78 8.65276C32.8245 8.6162 32.8658 8.57647 32.9198 8.52879ZM11.3343 26.7024C10.6336 26.4417 9.72635 26.4703 9.57222 26.731C10.0886 26.731 10.6003 26.731 11.1119 26.731C11.158 26.7294 11.204 26.7183 11.3343 26.7024Z" fill="#1F2120"/>
</svg>
