<svg width="25" height="20" viewBox="0 0 25 20" fill="none" xmlns="http://www.w3.org/2000/svg">
<path d="M12.375 8.98579L20.1 2.98066H4.65001L12.375 8.98579ZM21.7719 16.8969V4.11935L13.343 10.6729L13.343 10.6729C13.0672 10.8872 12.728 11.0035 12.3788 11.0035C12.0296 11.0035 11.6904 10.8872 11.4146 10.673C11.4146 10.673 11.4146 10.6729 11.4146 10.6729L2.97812 4.11973V16.8969H21.7719ZM1.8125 0.85H22.9375C23.4698 0.85 23.9 1.28024 23.9 1.8125V18.0625C23.9 18.5948 23.4698 19.025 22.9375 19.025H1.8125C1.28024 19.025 0.85 18.5948 0.85 18.0625V1.8125C0.85 1.28024 1.28024 0.85 1.8125 0.85Z" fill="#4ECB71" stroke="#4ECB71" stroke-width="0.3"/>
</svg>
