<svg width="27" height="22" viewBox="0 0 27 22" fill="none" xmlns="http://www.w3.org/2000/svg">
<path fill-rule="evenodd" clip-rule="evenodd" d="M4.5 0.899902C3.30653 0.899902 2.16193 1.37401 1.31802 2.21792C0.474106 3.06184 0 4.20643 0 5.3999L0 16.6499C0 17.8434 0.474106 18.988 1.31802 19.8319C2.16193 20.6758 3.30653 21.1499 4.5 21.1499H22.5C23.6935 21.1499 24.8381 20.6758 25.682 19.8319C26.5259 18.988 27 17.8434 27 16.6499V5.3999C27 4.20643 26.5259 3.06184 25.682 2.21792C24.8381 1.37401 23.6935 0.899902 22.5 0.899902H4.5ZM22.5 3.1499H4.5C3.90326 3.1499 3.33097 3.38696 2.90901 3.80891C2.48705 4.23087 2.25 4.80317 2.25 5.3999V13.2749H24.75V5.3999C24.75 4.80317 24.5129 4.23087 24.091 3.80891C23.669 3.38696 23.0967 3.1499 22.5 3.1499ZM24.75 15.5249H2.25V16.6499C2.25 17.2466 2.48705 17.8189 2.90901 18.2409C3.33097 18.6628 3.90326 18.8999 4.5 18.8999H22.5C23.0967 18.8999 23.669 18.6628 24.091 18.2409C24.5129 17.8189 24.75 17.2466 24.75 16.6499V15.5249Z" fill="#4ECB71"/>
</svg>
