<svg width="33" height="33" viewBox="0 0 33 33" fill="none" xmlns="http://www.w3.org/2000/svg">
<path d="M4.54197 8.29981C4.54197 7.30304 4.93793 6.34709 5.64276 5.64227C6.34758 4.93744 7.30353 4.54148 8.3003 4.54148H10.0086C11.001 4.54091 11.9529 4.14788 12.6565 3.44814L13.8524 2.25231C14.2016 1.90108 14.6169 1.62235 15.0743 1.43215C15.5316 1.24196 16.0221 1.14404 16.5174 1.14404C17.0127 1.14404 17.5032 1.24196 17.9605 1.43215C18.4179 1.62235 18.8331 1.90108 19.1824 2.25231L20.3782 3.44814C21.0819 4.14788 22.0338 4.54091 23.0261 4.54148H24.7345C25.7312 4.54148 26.6872 4.93744 27.392 5.64227C28.0968 6.34709 28.4928 7.30304 28.4928 8.29981V10.0081C28.4934 11.0005 28.8864 11.9524 29.5861 12.6561L30.782 13.8519C31.1332 14.2012 31.4119 14.6164 31.6021 15.0738C31.7923 15.5311 31.8902 16.0216 31.8902 16.5169C31.8902 17.0122 31.7923 17.5027 31.6021 17.96C31.4119 18.4174 31.1332 18.8326 30.782 19.1819L29.5861 20.3777C28.8864 21.0814 28.4934 22.0333 28.4928 23.0256V24.734C28.4928 25.7307 28.0968 26.6867 27.392 27.3915C26.6872 28.0963 25.7312 28.4923 24.7345 28.4923H23.0261C22.0338 28.4929 21.0819 28.8859 20.3782 29.5856L19.1824 30.7815C18.8331 31.1327 18.4179 31.4114 17.9605 31.6016C17.5032 31.7918 17.0127 31.8897 16.5174 31.8897C16.0221 31.8897 15.5316 31.7918 15.0743 31.6016C14.6169 31.4114 14.2016 31.1327 13.8524 30.7815L12.6565 29.5856C11.9529 28.8859 11.001 28.4929 10.0086 28.4923H8.3003C7.30353 28.4923 6.34758 28.0963 5.64276 27.3915C4.93793 26.6867 4.54197 25.7307 4.54197 24.734V23.0256C4.5414 22.0333 4.14837 21.0814 3.44863 20.3777L2.2528 19.1819C1.90157 18.8326 1.62284 18.4174 1.43264 17.96C1.24244 17.5027 1.14453 17.0122 1.14453 16.5169C1.14453 16.0216 1.24244 15.5311 1.43264 15.0738C1.62284 14.6164 1.90157 14.2012 2.2528 13.8519L3.44863 12.6561C4.14837 11.9524 4.5414 11.0005 4.54197 10.0081V8.29981" stroke="#4ECB71" stroke-width="2" stroke-linecap="round" stroke-linejoin="round"/>
</svg>
