<svg width="33" height="35" viewBox="0 0 33 35" fill="none" xmlns="http://www.w3.org/2000/svg">
<path d="M5.35 18.4H4.9C3.87676 18.4 2.88867 18.0079 2.1548 17.2993C1.41973 16.5896 1 15.6194 1 14.6V4.8C1 3.78063 1.41973 2.81041 2.1548 2.1007C2.88867 1.39214 3.87676 1 4.9 1H19.4C21.5139 1 23.3 2.67493 23.3 4.8V14.6C23.3 15.6194 22.8803 16.5896 22.1452 17.2993C21.4113 18.0079 20.4232 18.4 19.4 18.4H11.104L10.2754 19.2H10.7H19.4C20.6841 19.2 21.9089 18.7071 22.8066 17.8404C23.7031 16.9748 24.2 15.8084 24.2 14.6V10.4V9.4H25.2H28.1C30.2139 9.4 32 11.0749 32 13.2V23C32 24.0194 31.5803 24.9896 30.8452 25.6993C30.1113 26.4079 29.1232 26.8 28.1 26.8H27.65V30V32.3556L25.9554 30.7194L21.896 26.8H13.6C12.5768 26.8 11.5887 26.4079 10.8548 25.6993C10.1197 24.9896 9.7 24.0194 9.7 23V20.2V19.7556L7.0446 22.3194L5.35 23.9556V21.6V18.4Z" stroke="#4ECB71" stroke-width="2"/>
<path d="M5.35 18.4H4.9C3.87676 18.4 2.88867 18.0079 2.1548 17.2993C1.41973 16.5896 1 15.6194 1 14.6V4.8C1 3.78063 1.41973 2.81041 2.1548 2.1007C2.88867 1.39214 3.87676 1 4.9 1H19.4C21.5139 1 23.3 2.67493 23.3 4.8V14.6C23.3 15.6194 22.8803 16.5896 22.1452 17.2993C21.4113 18.0079 20.4232 18.4 19.4 18.4H11.104L10.2754 19.2H10.7H19.4C20.6841 19.2 21.9089 18.7071 22.8066 17.8404C23.7031 16.9748 24.2 15.8084 24.2 14.6V10.4V9.4H25.2H28.1C30.2139 9.4 32 11.0749 32 13.2V23C32 24.0194 31.5803 24.9896 30.8452 25.6993C30.1113 26.4079 29.1232 26.8 28.1 26.8H27.65V30V32.3556L25.9554 30.7194L21.896 26.8H13.6C12.5768 26.8 11.5887 26.4079 10.8548 25.6993C10.1197 24.9896 9.7 24.0194 9.7 23V20.2V19.7556L7.0446 22.3194L5.35 23.9556V21.6V18.4Z" stroke="#4ECB71" stroke-width="2"/>
<path d="M5.35 18.4H4.9C3.87676 18.4 2.88867 18.0079 2.1548 17.2993C1.41973 16.5896 1 15.6194 1 14.6V4.8C1 3.78063 1.41973 2.81041 2.1548 2.1007C2.88867 1.39214 3.87676 1 4.9 1H19.4C21.5139 1 23.3 2.67493 23.3 4.8V14.6C23.3 15.6194 22.8803 16.5896 22.1452 17.2993C21.4113 18.0079 20.4232 18.4 19.4 18.4H11.104L10.2754 19.2H10.7H19.4C20.6841 19.2 21.9089 18.7071 22.8066 17.8404C23.7031 16.9748 24.2 15.8084 24.2 14.6V10.4V9.4H25.2H28.1C30.2139 9.4 32 11.0749 32 13.2V23C32 24.0194 31.5803 24.9896 30.8452 25.6993C30.1113 26.4079 29.1232 26.8 28.1 26.8H27.65V30V32.3556L25.9554 30.7194L21.896 26.8H13.6C12.5768 26.8 11.5887 26.4079 10.8548 25.6993C10.1197 24.9896 9.7 24.0194 9.7 23V20.2V19.7556L7.0446 22.3194L5.35 23.9556V21.6V18.4Z" stroke="#4ECB71" stroke-width="2"/>
</svg>
