<svg width="28" height="28" viewBox="0 0 28 28" fill="none" xmlns="http://www.w3.org/2000/svg">
<path d="M22.9323 5.88332e-06C22.3355 -0.000956163 21.7444 0.116077 21.193 0.344374C20.6416 0.572672 20.1407 0.907729 19.7193 1.33028L16.5073 4.54328L15.7929 3.82881C15.6991 3.73502 15.5878 3.66062 15.4653 3.60986C15.3428 3.5591 15.2115 3.53297 15.0789 3.53297C14.9463 3.53297 14.815 3.5591 14.6925 3.60986C14.57 3.66062 14.4587 3.73502 14.365 3.82881L12.2226 5.97116C12.1288 6.0649 12.0544 6.1762 12.0037 6.2987C11.9529 6.4212 11.9268 6.5525 11.9268 6.6851C11.9268 6.8177 11.9529 6.94901 12.0037 7.07151C12.0544 7.19401 12.1288 7.30531 12.2226 7.39904L12.9049 8.08028L5.76547 15.2197C4.65328 16.3309 4.02605 17.1564 3.62313 17.8813C3.22124 18.6051 3.09559 19.252 3.00628 19.6986C2.91801 20.1451 2.85155 20.4182 2.58466 20.899C2.31778 21.3799 1.79751 22.0434 0.767356 23.0736C0.667332 23.1704 0.587797 23.2864 0.53348 23.4145C0.479162 23.5427 0.451172 23.6805 0.451172 23.8197C0.451172 23.9589 0.479162 24.0967 0.53348 24.2249C0.587797 24.3531 0.667332 24.469 0.767356 24.5659L2.9097 26.7082C3.00653 26.8082 3.12248 26.8878 3.25065 26.9421C3.37883 26.9964 3.51662 27.0244 3.65584 27.0244C3.79505 27.0244 3.93284 26.9964 4.06102 26.9421C4.1892 26.8878 4.30515 26.8082 4.40197 26.7082C5.43213 25.678 6.0957 25.1578 6.57651 24.8909C7.05732 24.624 7.33147 24.5586 7.77697 24.4682C8.22351 24.38 8.87047 24.2543 9.59428 23.8524C10.3191 23.4495 11.1437 22.8223 12.2559 21.7101C13.556 20.412 18.4191 15.5468 19.3953 14.5707L20.0765 15.2519C20.4711 15.6465 21.1098 15.6465 21.5044 15.2519L23.6467 13.1106C23.7408 13.017 23.8154 12.9057 23.8663 12.7832C23.9172 12.6607 23.9435 12.5293 23.9435 12.3966C23.9435 12.264 23.9172 12.1326 23.8663 12.0101C23.8154 11.8876 23.7408 11.7763 23.6467 11.6827L22.9323 10.9682L26.1453 7.75628C26.7808 7.12088 27.2137 6.31128 27.3891 5.42986C27.5644 4.54844 27.4745 3.6348 27.1305 2.80453C26.7866 1.97425 26.2041 1.26462 25.4568 0.765415C24.7095 0.266206 23.831 -0.000161694 22.9323 5.88332e-06ZM14.365 9.60578L17.8698 13.1106L10.7626 20.2178C9.7324 21.248 9.03663 21.7682 8.55582 22.0351C8.07605 22.302 7.83409 22.3674 7.38755 22.4567C6.94101 22.546 6.29509 22.6707 5.57024 23.0736C5.07178 23.3509 4.37809 23.9511 3.72074 24.5337L2.94189 23.7548C3.52343 23.0975 4.1247 22.4048 4.40197 21.9053C4.80489 21.1805 4.92951 20.5345 5.01882 20.088C5.10813 19.6415 5.17459 19.3673 5.44043 18.8865C5.70732 18.4067 6.22759 17.7432 7.25774 16.713L14.365 9.60578Z" fill="#4ECB71"/>
</svg>
