<svg width="33" height="33" viewBox="0 0 33 33" fill="none" xmlns="http://www.w3.org/2000/svg">
<mask id="path-1-outside-1_64_4606" maskUnits="userSpaceOnUse" x="0" y="0" width="33" height="33" fill="black">
<rect fill="white" width="33" height="33"/>
<path fill-rule="evenodd" clip-rule="evenodd" d="M16.2406 1.21027C15.1767 2.4226 14.0711 5.02084 13.568 7.49119C13.2626 8.99078 13.1339 10.207 13.0869 12.0364L13.0473 13.5786L12.4736 12.8902C10.977 11.0945 9.0165 9.41423 6.99708 8.19649C5.62568 7.36956 3.49045 6.42112 3.44636 6.61931C3.41047 6.78074 3.62154 8.28057 3.80812 9.18982C4.12773 10.7474 4.67473 12.5031 5.29928 13.976C5.81802 15.1992 6.79201 17.0312 7.39461 17.9169C7.5439 18.1363 7.55511 18.1753 7.46095 18.1469C7.39855 18.1281 7.07464 18.0586 6.74114 17.9923C4.9656 17.6399 3.04441 17.664 1.6174 18.0567C0.908325 18.2518 0.921907 18.237 1.10952 18.6102C1.547 19.4807 2.45096 20.652 3.29914 21.4474C4.53526 22.6066 5.95463 23.4606 7.82973 24.1731L8.00879 24.2412L7.62351 24.485C6.86538 24.9645 6.23998 25.4885 5.17976 26.5323C4.58783 27.1151 4.10347 27.6106 4.10347 27.6335C4.10347 27.6861 4.85057 27.909 5.40715 28.0224C6.11392 28.1664 7.32318 28.2435 9.01498 28.2525C10.3065 28.2593 10.7468 28.2397 11.2585 28.1529C12.5935 27.9264 14.5972 27.2413 15.5027 26.7017C15.8904 26.4706 15.9271 26.4845 15.9278 26.8636C15.9284 27.1637 16.0919 28.1761 16.2656 28.9553C16.5446 30.2063 17.1102 31.7334 17.3652 31.9242C17.4209 31.9659 17.6095 32 17.7841 32C18.0548 32 18.1201 31.9765 18.2272 31.8401C18.3988 31.622 18.3851 31.36 18.178 30.9012C17.717 29.8795 17.4149 28.6426 17.1691 26.7703L17.1397 26.5455L17.7614 26.8644C18.7067 27.3491 20.1389 27.8418 21.3109 28.0854C22.653 28.3644 26.2075 28.3137 27.6762 27.9946C28.1435 27.893 28.8429 27.6781 28.8429 27.6362C28.8429 27.5777 26.7973 25.57 26.444 25.2817C26.2752 25.1439 25.8698 24.8525 25.5432 24.634L24.9493 24.2367L25.1226 24.1709C27.0177 23.4507 28.3551 22.6425 29.6686 21.4237C30.4669 20.6828 31.3959 19.4825 31.8173 18.6472L32 18.2851L31.7872 18.1961C31.4762 18.0661 30.6512 17.8852 30.0253 17.8098C28.7069 17.6508 26.8042 17.7928 25.5193 18.1459C25.3955 18.1799 25.4174 18.1246 25.705 17.6759C27.6086 14.7057 28.9775 10.9668 29.4181 7.5336C29.4686 7.13982 29.5099 6.75138 29.5099 6.67039V6.52316L29.0857 6.67628C26.0292 7.77935 22.7765 10.1261 20.4732 12.8898L19.8991 13.5786L19.86 12.0667C19.8384 11.2352 19.7754 10.159 19.7198 9.67515C19.3544 6.49592 18.4411 3.71077 17.128 1.77142C16.8535 1.36605 16.5428 1 16.4732 1C16.4468 1 16.3421 1.09464 16.2406 1.21027ZM16.6737 3.41145C17.4765 5.20199 18.1202 7.541 18.4098 9.71925C18.7608 12.3599 18.7035 14.9198 18.2287 17.8043C18.1271 18.4216 18.0309 18.9812 18.0149 19.0479C17.999 19.1147 18.1167 18.9099 18.2766 18.593C19.0302 17.0989 20.0087 15.6136 21.1941 14.1644C22.8177 12.1795 25.3595 10.075 27.8879 8.62224C28.243 8.41816 28.2426 8.41543 27.9932 9.37182C27.5569 11.0452 26.8052 13.0276 25.9884 14.6589C24.9672 16.6987 23.852 18.2875 22.2619 19.9682L21.506 20.7673L22.0366 20.5305C23.9323 19.6844 25.5225 19.2418 27.2664 19.0749C28.0049 19.0043 29.2414 19.0331 29.6012 19.1294L29.7684 19.1741L29.4461 19.566C28.2415 21.0307 26.4349 22.3132 24.457 23.1076C23.6798 23.4198 22.8136 23.6768 21.7788 23.9021C21.2786 24.0111 20.9102 24.1153 20.9603 24.1336C21.0103 24.152 21.2149 24.1992 21.415 24.2387C22.6984 24.4913 24.7007 25.5021 26.036 26.5712C26.2893 26.774 26.3925 26.8927 26.3514 26.9339C26.254 27.0314 22.2902 27.0143 21.8395 26.9145C20.1316 26.5362 18.0745 25.6912 16.9235 24.8951L16.4732 24.5837L16.0336 24.8847C14.8757 25.6774 13.0331 26.4574 11.3798 26.8547C10.8394 26.9846 10.6773 26.9932 8.76031 26.9941C7.31378 26.9948 6.69675 26.975 6.64794 26.9261C6.59646 26.8746 6.68396 26.7728 6.99356 26.5239C8.24382 25.5188 10.0133 24.6077 11.3651 24.2731C11.5566 24.2256 11.7951 24.1669 11.8952 24.1425C12.0461 24.1057 11.9428 24.0692 11.2888 23.928C8.74673 23.3795 6.95779 22.5831 5.21281 21.223C4.63337 20.7714 3.67514 19.8263 3.39003 19.4253L3.19193 19.1466L3.48099 19.0973C3.63991 19.0701 4.24748 19.0513 4.83111 19.0553C6.77437 19.0689 8.40935 19.4562 10.7431 20.4556C11.0099 20.5699 11.2691 20.6806 11.3191 20.7017C11.3692 20.7229 11.0911 20.4004 10.7012 19.9851C9.81168 19.0374 9.31653 18.4413 8.70871 17.5861C7.36072 15.6893 6.17037 13.2573 5.35652 10.7368C5.0802 9.88098 4.77047 8.73065 4.77047 8.56012C4.77047 8.444 5.33396 8.75437 6.43796 9.47853C8.51759 10.8427 10.4257 12.5374 11.8503 14.2857C12.9029 15.5775 13.7852 16.9004 14.4601 18.1986C14.7376 18.7325 14.9472 19.0876 14.9258 18.9878C14.794 18.3715 14.5275 16.589 14.436 15.7114C14.3053 14.4587 14.289 12.0216 14.4033 10.8278C14.6302 8.45747 15.2581 5.82526 16.0436 3.95155C16.3604 3.1959 16.425 3.06262 16.4747 3.06262C16.4981 3.06262 16.5877 3.21962 16.6737 3.41145Z"/>
</mask>
<path fill-rule="evenodd" clip-rule="evenodd" d="M16.2406 1.21027C15.1767 2.4226 14.0711 5.02084 13.568 7.49119C13.2626 8.99078 13.1339 10.207 13.0869 12.0364L13.0473 13.5786L12.4736 12.8902C10.977 11.0945 9.0165 9.41423 6.99708 8.19649C5.62568 7.36956 3.49045 6.42112 3.44636 6.61931C3.41047 6.78074 3.62154 8.28057 3.80812 9.18982C4.12773 10.7474 4.67473 12.5031 5.29928 13.976C5.81802 15.1992 6.79201 17.0312 7.39461 17.9169C7.5439 18.1363 7.55511 18.1753 7.46095 18.1469C7.39855 18.1281 7.07464 18.0586 6.74114 17.9923C4.9656 17.6399 3.04441 17.664 1.6174 18.0567C0.908325 18.2518 0.921907 18.237 1.10952 18.6102C1.547 19.4807 2.45096 20.652 3.29914 21.4474C4.53526 22.6066 5.95463 23.4606 7.82973 24.1731L8.00879 24.2412L7.62351 24.485C6.86538 24.9645 6.23998 25.4885 5.17976 26.5323C4.58783 27.1151 4.10347 27.6106 4.10347 27.6335C4.10347 27.6861 4.85057 27.909 5.40715 28.0224C6.11392 28.1664 7.32318 28.2435 9.01498 28.2525C10.3065 28.2593 10.7468 28.2397 11.2585 28.1529C12.5935 27.9264 14.5972 27.2413 15.5027 26.7017C15.8904 26.4706 15.9271 26.4845 15.9278 26.8636C15.9284 27.1637 16.0919 28.1761 16.2656 28.9553C16.5446 30.2063 17.1102 31.7334 17.3652 31.9242C17.4209 31.9659 17.6095 32 17.7841 32C18.0548 32 18.1201 31.9765 18.2272 31.8401C18.3988 31.622 18.3851 31.36 18.178 30.9012C17.717 29.8795 17.4149 28.6426 17.1691 26.7703L17.1397 26.5455L17.7614 26.8644C18.7067 27.3491 20.1389 27.8418 21.3109 28.0854C22.653 28.3644 26.2075 28.3137 27.6762 27.9946C28.1435 27.893 28.8429 27.6781 28.8429 27.6362C28.8429 27.5777 26.7973 25.57 26.444 25.2817C26.2752 25.1439 25.8698 24.8525 25.5432 24.634L24.9493 24.2367L25.1226 24.1709C27.0177 23.4507 28.3551 22.6425 29.6686 21.4237C30.4669 20.6828 31.3959 19.4825 31.8173 18.6472L32 18.2851L31.7872 18.1961C31.4762 18.0661 30.6512 17.8852 30.0253 17.8098C28.7069 17.6508 26.8042 17.7928 25.5193 18.1459C25.3955 18.1799 25.4174 18.1246 25.705 17.6759C27.6086 14.7057 28.9775 10.9668 29.4181 7.5336C29.4686 7.13982 29.5099 6.75138 29.5099 6.67039V6.52316L29.0857 6.67628C26.0292 7.77935 22.7765 10.1261 20.4732 12.8898L19.8991 13.5786L19.86 12.0667C19.8384 11.2352 19.7754 10.159 19.7198 9.67515C19.3544 6.49592 18.4411 3.71077 17.128 1.77142C16.8535 1.36605 16.5428 1 16.4732 1C16.4468 1 16.3421 1.09464 16.2406 1.21027ZM16.6737 3.41145C17.4765 5.20199 18.1202 7.541 18.4098 9.71925C18.7608 12.3599 18.7035 14.9198 18.2287 17.8043C18.1271 18.4216 18.0309 18.9812 18.0149 19.0479C17.999 19.1147 18.1167 18.9099 18.2766 18.593C19.0302 17.0989 20.0087 15.6136 21.1941 14.1644C22.8177 12.1795 25.3595 10.075 27.8879 8.62224C28.243 8.41816 28.2426 8.41543 27.9932 9.37182C27.5569 11.0452 26.8052 13.0276 25.9884 14.6589C24.9672 16.6987 23.852 18.2875 22.2619 19.9682L21.506 20.7673L22.0366 20.5305C23.9323 19.6844 25.5225 19.2418 27.2664 19.0749C28.0049 19.0043 29.2414 19.0331 29.6012 19.1294L29.7684 19.1741L29.4461 19.566C28.2415 21.0307 26.4349 22.3132 24.457 23.1076C23.6798 23.4198 22.8136 23.6768 21.7788 23.9021C21.2786 24.0111 20.9102 24.1153 20.9603 24.1336C21.0103 24.152 21.2149 24.1992 21.415 24.2387C22.6984 24.4913 24.7007 25.5021 26.036 26.5712C26.2893 26.774 26.3925 26.8927 26.3514 26.9339C26.254 27.0314 22.2902 27.0143 21.8395 26.9145C20.1316 26.5362 18.0745 25.6912 16.9235 24.8951L16.4732 24.5837L16.0336 24.8847C14.8757 25.6774 13.0331 26.4574 11.3798 26.8547C10.8394 26.9846 10.6773 26.9932 8.76031 26.9941C7.31378 26.9948 6.69675 26.975 6.64794 26.9261C6.59646 26.8746 6.68396 26.7728 6.99356 26.5239C8.24382 25.5188 10.0133 24.6077 11.3651 24.2731C11.5566 24.2256 11.7951 24.1669 11.8952 24.1425C12.0461 24.1057 11.9428 24.0692 11.2888 23.928C8.74673 23.3795 6.95779 22.5831 5.21281 21.223C4.63337 20.7714 3.67514 19.8263 3.39003 19.4253L3.19193 19.1466L3.48099 19.0973C3.63991 19.0701 4.24748 19.0513 4.83111 19.0553C6.77437 19.0689 8.40935 19.4562 10.7431 20.4556C11.0099 20.5699 11.2691 20.6806 11.3191 20.7017C11.3692 20.7229 11.0911 20.4004 10.7012 19.9851C9.81168 19.0374 9.31653 18.4413 8.70871 17.5861C7.36072 15.6893 6.17037 13.2573 5.35652 10.7368C5.0802 9.88098 4.77047 8.73065 4.77047 8.56012C4.77047 8.444 5.33396 8.75437 6.43796 9.47853C8.51759 10.8427 10.4257 12.5374 11.8503 14.2857C12.9029 15.5775 13.7852 16.9004 14.4601 18.1986C14.7376 18.7325 14.9472 19.0876 14.9258 18.9878C14.794 18.3715 14.5275 16.589 14.436 15.7114C14.3053 14.4587 14.289 12.0216 14.4033 10.8278C14.6302 8.45747 15.2581 5.82526 16.0436 3.95155C16.3604 3.1959 16.425 3.06262 16.4747 3.06262C16.4981 3.06262 16.5877 3.21962 16.6737 3.41145Z" fill="#59CE7A"/>
<path fill-rule="evenodd" clip-rule="evenodd" d="M16.2406 1.21027C15.1767 2.4226 14.0711 5.02084 13.568 7.49119C13.2626 8.99078 13.1339 10.207 13.0869 12.0364L13.0473 13.5786L12.4736 12.8902C10.977 11.0945 9.0165 9.41423 6.99708 8.19649C5.62568 7.36956 3.49045 6.42112 3.44636 6.61931C3.41047 6.78074 3.62154 8.28057 3.80812 9.18982C4.12773 10.7474 4.67473 12.5031 5.29928 13.976C5.81802 15.1992 6.79201 17.0312 7.39461 17.9169C7.5439 18.1363 7.55511 18.1753 7.46095 18.1469C7.39855 18.1281 7.07464 18.0586 6.74114 17.9923C4.9656 17.6399 3.04441 17.664 1.6174 18.0567C0.908325 18.2518 0.921907 18.237 1.10952 18.6102C1.547 19.4807 2.45096 20.652 3.29914 21.4474C4.53526 22.6066 5.95463 23.4606 7.82973 24.1731L8.00879 24.2412L7.62351 24.485C6.86538 24.9645 6.23998 25.4885 5.17976 26.5323C4.58783 27.1151 4.10347 27.6106 4.10347 27.6335C4.10347 27.6861 4.85057 27.909 5.40715 28.0224C6.11392 28.1664 7.32318 28.2435 9.01498 28.2525C10.3065 28.2593 10.7468 28.2397 11.2585 28.1529C12.5935 27.9264 14.5972 27.2413 15.5027 26.7017C15.8904 26.4706 15.9271 26.4845 15.9278 26.8636C15.9284 27.1637 16.0919 28.1761 16.2656 28.9553C16.5446 30.2063 17.1102 31.7334 17.3652 31.9242C17.4209 31.9659 17.6095 32 17.7841 32C18.0548 32 18.1201 31.9765 18.2272 31.8401C18.3988 31.622 18.3851 31.36 18.178 30.9012C17.717 29.8795 17.4149 28.6426 17.1691 26.7703L17.1397 26.5455L17.7614 26.8644C18.7067 27.3491 20.1389 27.8418 21.3109 28.0854C22.653 28.3644 26.2075 28.3137 27.6762 27.9946C28.1435 27.893 28.8429 27.6781 28.8429 27.6362C28.8429 27.5777 26.7973 25.57 26.444 25.2817C26.2752 25.1439 25.8698 24.8525 25.5432 24.634L24.9493 24.2367L25.1226 24.1709C27.0177 23.4507 28.3551 22.6425 29.6686 21.4237C30.4669 20.6828 31.3959 19.4825 31.8173 18.6472L32 18.2851L31.7872 18.1961C31.4762 18.0661 30.6512 17.8852 30.0253 17.8098C28.7069 17.6508 26.8042 17.7928 25.5193 18.1459C25.3955 18.1799 25.4174 18.1246 25.705 17.6759C27.6086 14.7057 28.9775 10.9668 29.4181 7.5336C29.4686 7.13982 29.5099 6.75138 29.5099 6.67039V6.52316L29.0857 6.67628C26.0292 7.77935 22.7765 10.1261 20.4732 12.8898L19.8991 13.5786L19.86 12.0667C19.8384 11.2352 19.7754 10.159 19.7198 9.67515C19.3544 6.49592 18.4411 3.71077 17.128 1.77142C16.8535 1.36605 16.5428 1 16.4732 1C16.4468 1 16.3421 1.09464 16.2406 1.21027ZM16.6737 3.41145C17.4765 5.20199 18.1202 7.541 18.4098 9.71925C18.7608 12.3599 18.7035 14.9198 18.2287 17.8043C18.1271 18.4216 18.0309 18.9812 18.0149 19.0479C17.999 19.1147 18.1167 18.9099 18.2766 18.593C19.0302 17.0989 20.0087 15.6136 21.1941 14.1644C22.8177 12.1795 25.3595 10.075 27.8879 8.62224C28.243 8.41816 28.2426 8.41543 27.9932 9.37182C27.5569 11.0452 26.8052 13.0276 25.9884 14.6589C24.9672 16.6987 23.852 18.2875 22.2619 19.9682L21.506 20.7673L22.0366 20.5305C23.9323 19.6844 25.5225 19.2418 27.2664 19.0749C28.0049 19.0043 29.2414 19.0331 29.6012 19.1294L29.7684 19.1741L29.4461 19.566C28.2415 21.0307 26.4349 22.3132 24.457 23.1076C23.6798 23.4198 22.8136 23.6768 21.7788 23.9021C21.2786 24.0111 20.9102 24.1153 20.9603 24.1336C21.0103 24.152 21.2149 24.1992 21.415 24.2387C22.6984 24.4913 24.7007 25.5021 26.036 26.5712C26.2893 26.774 26.3925 26.8927 26.3514 26.9339C26.254 27.0314 22.2902 27.0143 21.8395 26.9145C20.1316 26.5362 18.0745 25.6912 16.9235 24.8951L16.4732 24.5837L16.0336 24.8847C14.8757 25.6774 13.0331 26.4574 11.3798 26.8547C10.8394 26.9846 10.6773 26.9932 8.76031 26.9941C7.31378 26.9948 6.69675 26.975 6.64794 26.9261C6.59646 26.8746 6.68396 26.7728 6.99356 26.5239C8.24382 25.5188 10.0133 24.6077 11.3651 24.2731C11.5566 24.2256 11.7951 24.1669 11.8952 24.1425C12.0461 24.1057 11.9428 24.0692 11.2888 23.928C8.74673 23.3795 6.95779 22.5831 5.21281 21.223C4.63337 20.7714 3.67514 19.8263 3.39003 19.4253L3.19193 19.1466L3.48099 19.0973C3.63991 19.0701 4.24748 19.0513 4.83111 19.0553C6.77437 19.0689 8.40935 19.4562 10.7431 20.4556C11.0099 20.5699 11.2691 20.6806 11.3191 20.7017C11.3692 20.7229 11.0911 20.4004 10.7012 19.9851C9.81168 19.0374 9.31653 18.4413 8.70871 17.5861C7.36072 15.6893 6.17037 13.2573 5.35652 10.7368C5.0802 9.88098 4.77047 8.73065 4.77047 8.56012C4.77047 8.444 5.33396 8.75437 6.43796 9.47853C8.51759 10.8427 10.4257 12.5374 11.8503 14.2857C12.9029 15.5775 13.7852 16.9004 14.4601 18.1986C14.7376 18.7325 14.9472 19.0876 14.9258 18.9878C14.794 18.3715 14.5275 16.589 14.436 15.7114C14.3053 14.4587 14.289 12.0216 14.4033 10.8278C14.6302 8.45747 15.2581 5.82526 16.0436 3.95155C16.3604 3.1959 16.425 3.06262 16.4747 3.06262C16.4981 3.06262 16.5877 3.21962 16.6737 3.41145Z" stroke="#7FC981" mask="url(#path-1-outside-1_64_4606)"/>
</svg>
