<svg width="38" height="30" viewBox="0 0 38 30" fill="none" xmlns="http://www.w3.org/2000/svg">
<path d="M37.8914 14.5005L33.82 4.93372C33.7161 4.68669 33.5423 4.47592 33.3203 4.32767C33.0983 4.17943 32.8378 4.10026 32.5714 4.10004H28.5V1.36668C28.5 1.00421 28.357 0.656594 28.1025 0.400292C27.848 0.143989 27.5028 0 27.1429 0H1.35714C0.997206 0 0.652012 0.143989 0.397498 0.400292C0.142984 0.656594 0 1.00421 0 1.36668V24.6002C0 24.9627 0.142984 25.3103 0.397498 25.5666C0.652012 25.8229 0.997206 25.9669 1.35714 25.9669H4.26143C4.57395 27.125 5.25622 28.1474 6.20295 28.8762C7.14969 29.6051 8.30829 30 9.5 30C10.6917 30 11.8503 29.6051 12.797 28.8762C13.7438 28.1474 14.426 27.125 14.7386 25.9669H23.2614C23.574 27.125 24.2562 28.1474 25.203 28.8762C26.1497 29.6051 27.3083 30 28.5 30C29.6917 30 30.8503 29.6051 31.797 28.8762C32.7438 28.1474 33.426 27.125 33.7386 25.9669H36.6429C37.0028 25.9669 37.348 25.8229 37.6025 25.5666C37.857 25.3103 38 24.9627 38 24.6002V15.0335C37.9996 14.8503 37.9627 14.669 37.8914 14.5005ZM28.5 6.8334H31.6757L34.58 13.6668H28.5V6.8334ZM9.5 27.3336C8.96316 27.3336 8.43839 27.1733 7.99202 26.873C7.54566 26.5726 7.19776 26.1457 6.99233 25.6463C6.78689 25.1468 6.73314 24.5972 6.83787 24.067C6.9426 23.5368 7.20111 23.0497 7.58071 22.6675C7.96031 22.2852 8.44395 22.0249 8.97047 21.9194C9.49699 21.8139 10.0427 21.8681 10.5387 22.0749C11.0347 22.2818 11.4586 22.6322 11.7568 23.0817C12.0551 23.5312 12.2143 24.0596 12.2143 24.6002C12.2143 25.3252 11.9283 26.0204 11.4193 26.533C10.9103 27.0456 10.2199 27.3336 9.5 27.3336ZM23.2614 23.2336H14.7386C14.426 22.0755 13.7438 21.0531 12.797 20.3243C11.8503 19.5954 10.6917 19.2005 9.5 19.2005C8.30829 19.2005 7.14969 19.5954 6.20295 20.3243C5.25622 21.0531 4.57395 22.0755 4.26143 23.2336H2.71429V2.73336H25.7857V19.8989C25.1677 20.2601 24.6266 20.7406 24.1935 21.3128C23.7603 21.885 23.4435 22.5378 23.2614 23.2336ZM28.5 27.3336C27.9632 27.3336 27.4384 27.1733 26.992 26.873C26.5457 26.5726 26.1978 26.1457 25.9923 25.6463C25.7869 25.1468 25.7331 24.5972 25.8379 24.067C25.9426 23.5368 26.2011 23.0497 26.5807 22.6675C26.9603 22.2852 27.4439 22.0249 27.9705 21.9194C28.497 21.8139 29.0427 21.8681 29.5387 22.0749C30.0347 22.2818 30.4586 22.6322 30.7568 23.0817C31.0551 23.5312 31.2143 24.0596 31.2143 24.6002C31.2143 25.3252 30.9283 26.0204 30.4193 26.533C29.9103 27.0456 29.2199 27.3336 28.5 27.3336ZM35.2857 23.2336H33.7386C33.4385 22.063 32.7615 21.0257 31.8137 20.2838C30.8658 19.542 29.7005 19.1374 28.5 19.1335V16.4002H35.2857V23.2336Z" fill="#4ECB71"/>
</svg>
