<svg width="330" height="49" viewBox="0 0 330 49" fill="none" xmlns="http://www.w3.org/2000/svg">
<rect width="330" height="49" rx="5" fill="#FFD233"/>
<path d="M77.28 32.275C76.8947 32.751 76.4243 33.1137 75.869 33.363C75.325 33.6123 74.7243 33.737 74.067 33.737C73.183 33.737 72.384 33.5443 71.67 33.159C70.956 32.785 70.14 32.1163 69.222 31.153C68.1453 31.017 67.182 30.6713 66.332 30.116C65.4933 29.5607 64.836 28.8467 64.36 27.974C63.8953 27.09 63.663 26.1153 63.663 25.05C63.663 23.8827 63.9407 22.8343 64.496 21.905C65.0627 20.9643 65.839 20.2277 66.825 19.695C67.8223 19.1623 68.9387 18.896 70.174 18.896C71.4093 18.896 72.52 19.1623 73.506 19.695C74.492 20.2277 75.2683 20.9643 75.835 21.905C76.4017 22.8343 76.685 23.8827 76.685 25.05C76.685 26.4327 76.294 27.6453 75.512 28.688C74.7413 29.7307 73.7157 30.456 72.435 30.864C72.7183 31.1587 72.9903 31.3683 73.251 31.493C73.523 31.629 73.812 31.697 74.118 31.697C74.8547 31.697 75.5007 31.4023 76.056 30.813L77.28 32.275ZM66.451 25.05C66.451 25.7867 66.6097 26.444 66.927 27.022C67.2557 27.6 67.7033 28.0533 68.27 28.382C68.8367 28.6993 69.4713 28.858 70.174 28.858C70.8767 28.858 71.5113 28.6993 72.078 28.382C72.6447 28.0533 73.0867 27.6 73.404 27.022C73.7327 26.444 73.897 25.7867 73.897 25.05C73.897 24.3133 73.7327 23.656 73.404 23.078C73.0867 22.5 72.6447 22.0523 72.078 21.735C71.5113 21.4063 70.8767 21.242 70.174 21.242C69.4713 21.242 68.8367 21.4063 68.27 21.735C67.7033 22.0523 67.2557 22.5 66.927 23.078C66.6097 23.656 66.451 24.3133 66.451 25.05ZM87.7818 21.854V31H85.2658V29.912C84.9144 30.3087 84.4951 30.6147 84.0078 30.83C83.5204 31.034 82.9934 31.136 82.4268 31.136C81.2254 31.136 80.2734 30.7903 79.5708 30.099C78.8681 29.4077 78.5168 28.382 78.5168 27.022V21.854H81.1688V26.631C81.1688 28.1043 81.7864 28.841 83.0218 28.841C83.6564 28.841 84.1664 28.637 84.5518 28.229C84.9371 27.8097 85.1298 27.192 85.1298 26.376V21.854H87.7818ZM90.2386 21.854H92.8906V31H90.2386V21.854ZM91.5646 20.579C91.0773 20.579 90.6806 20.4373 90.3746 20.154C90.0686 19.8707 89.9156 19.5193 89.9156 19.1C89.9156 18.6807 90.0686 18.3293 90.3746 18.046C90.6806 17.7627 91.0773 17.621 91.5646 17.621C92.052 17.621 92.4486 17.757 92.7546 18.029C93.0606 18.301 93.2136 18.641 93.2136 19.049C93.2136 19.491 93.0606 19.8593 92.7546 20.154C92.4486 20.4373 92.052 20.579 91.5646 20.579ZM104.311 26.461C104.311 26.495 104.294 26.733 104.26 27.175H97.3409C97.4656 27.7417 97.7603 28.1893 98.2249 28.518C98.6896 28.8467 99.2676 29.011 99.9589 29.011C100.435 29.011 100.854 28.943 101.217 28.807C101.591 28.6597 101.937 28.433 102.254 28.127L103.665 29.657C102.804 30.643 101.546 31.136 99.8909 31.136C98.8596 31.136 97.9473 30.9377 97.1539 30.541C96.3606 30.133 95.7486 29.572 95.3179 28.858C94.8873 28.144 94.6719 27.3337 94.6719 26.427C94.6719 25.5317 94.8816 24.727 95.3009 24.013C95.7316 23.2877 96.3153 22.7267 97.0519 22.33C97.7999 21.922 98.6329 21.718 99.5509 21.718C100.446 21.718 101.257 21.9107 101.982 22.296C102.707 22.6813 103.274 23.2367 103.682 23.962C104.101 24.676 104.311 25.509 104.311 26.461ZM99.5679 23.724C98.9673 23.724 98.4629 23.894 98.0549 24.234C97.6469 24.574 97.3976 25.0387 97.3069 25.628H101.812C101.721 25.05 101.472 24.591 101.064 24.251C100.656 23.8997 100.157 23.724 99.5679 23.724ZM108.61 23.061C108.927 22.619 109.352 22.2847 109.885 22.058C110.429 21.8313 111.052 21.718 111.755 21.718V24.166C111.46 24.1433 111.262 24.132 111.16 24.132C110.4 24.132 109.805 24.3473 109.375 24.778C108.944 25.1973 108.729 25.832 108.729 26.682V31H106.077V21.854H108.61V23.061ZM117.6 31.136C116.637 31.136 115.77 30.9377 114.999 30.541C114.24 30.133 113.645 29.572 113.214 28.858C112.784 28.144 112.568 27.3337 112.568 26.427C112.568 25.5203 112.784 24.71 113.214 23.996C113.645 23.282 114.24 22.7267 114.999 22.33C115.77 21.922 116.637 21.718 117.6 21.718C118.564 21.718 119.425 21.922 120.184 22.33C120.944 22.7267 121.539 23.282 121.969 23.996C122.4 24.71 122.615 25.5203 122.615 26.427C122.615 27.3337 122.4 28.144 121.969 28.858C121.539 29.572 120.944 30.133 120.184 30.541C119.425 30.9377 118.564 31.136 117.6 31.136ZM117.6 28.96C118.28 28.96 118.836 28.7333 119.266 28.28C119.708 27.8153 119.929 27.1977 119.929 26.427C119.929 25.6563 119.708 25.0443 119.266 24.591C118.836 24.1263 118.28 23.894 117.6 23.894C116.92 23.894 116.359 24.1263 115.917 24.591C115.475 25.0443 115.254 25.6563 115.254 26.427C115.254 27.1977 115.475 27.8153 115.917 28.28C116.359 28.7333 116.92 28.96 117.6 28.96ZM133.623 31.136C132.648 31.136 131.77 30.9377 130.988 30.541C130.217 30.133 129.611 29.572 129.169 28.858C128.738 28.144 128.523 27.3337 128.523 26.427C128.523 25.5203 128.738 24.71 129.169 23.996C129.611 23.282 130.217 22.7267 130.988 22.33C131.77 21.922 132.648 21.718 133.623 21.718C134.586 21.718 135.425 21.922 136.139 22.33C136.864 22.7267 137.391 23.299 137.72 24.047L135.663 25.152C135.187 24.3133 134.501 23.894 133.606 23.894C132.914 23.894 132.342 24.1207 131.889 24.574C131.435 25.0273 131.209 25.645 131.209 26.427C131.209 27.209 131.435 27.8267 131.889 28.28C132.342 28.7333 132.914 28.96 133.606 28.96C134.512 28.96 135.198 28.5407 135.663 27.702L137.72 28.824C137.391 29.5493 136.864 30.116 136.139 30.524C135.425 30.932 134.586 31.136 133.623 31.136ZM143.482 31.136C142.519 31.136 141.652 30.9377 140.881 30.541C140.122 30.133 139.527 29.572 139.096 28.858C138.666 28.144 138.45 27.3337 138.45 26.427C138.45 25.5203 138.666 24.71 139.096 23.996C139.527 23.282 140.122 22.7267 140.881 22.33C141.652 21.922 142.519 21.718 143.482 21.718C144.446 21.718 145.307 21.922 146.066 22.33C146.826 22.7267 147.421 23.282 147.851 23.996C148.282 24.71 148.497 25.5203 148.497 26.427C148.497 27.3337 148.282 28.144 147.851 28.858C147.421 29.572 146.826 30.133 146.066 30.541C145.307 30.9377 144.446 31.136 143.482 31.136ZM143.482 28.96C144.162 28.96 144.718 28.7333 145.148 28.28C145.59 27.8153 145.811 27.1977 145.811 26.427C145.811 25.6563 145.59 25.0443 145.148 24.591C144.718 24.1263 144.162 23.894 143.482 23.894C142.802 23.894 142.241 24.1263 141.799 24.591C141.357 25.0443 141.136 25.6563 141.136 26.427C141.136 27.1977 141.357 27.8153 141.799 28.28C142.241 28.7333 142.802 28.96 143.482 28.96ZM161.983 21.718C163.128 21.718 164.034 22.058 164.703 22.738C165.383 23.4067 165.723 24.4153 165.723 25.764V31H163.071V26.172C163.071 25.4467 162.918 24.9083 162.612 24.557C162.317 24.1943 161.892 24.013 161.337 24.013C160.714 24.013 160.221 24.217 159.858 24.625C159.495 25.0217 159.314 25.6167 159.314 26.41V31H156.662V26.172C156.662 24.7327 156.084 24.013 154.928 24.013C154.316 24.013 153.829 24.217 153.466 24.625C153.103 25.0217 152.922 25.6167 152.922 26.41V31H150.27V21.854H152.803V22.908C153.143 22.5227 153.557 22.228 154.044 22.024C154.543 21.82 155.087 21.718 155.676 21.718C156.322 21.718 156.906 21.8483 157.427 22.109C157.948 22.3583 158.368 22.7267 158.685 23.214C159.059 22.738 159.529 22.3697 160.096 22.109C160.674 21.8483 161.303 21.718 161.983 21.718ZM173.506 21.718C174.356 21.718 175.127 21.9163 175.818 22.313C176.521 22.6983 177.07 23.248 177.467 23.962C177.864 24.6647 178.062 25.4863 178.062 26.427C178.062 27.3677 177.864 28.195 177.467 28.909C177.07 29.6117 176.521 30.1613 175.818 30.558C175.127 30.9433 174.356 31.136 173.506 31.136C172.339 31.136 171.421 30.7677 170.752 30.031V34.298H168.1V21.854H170.633V22.908C171.29 22.1147 172.248 21.718 173.506 21.718ZM173.047 28.96C173.727 28.96 174.282 28.7333 174.713 28.28C175.155 27.8153 175.376 27.1977 175.376 26.427C175.376 25.6563 175.155 25.0443 174.713 24.591C174.282 24.1263 173.727 23.894 173.047 23.894C172.367 23.894 171.806 24.1263 171.364 24.591C170.933 25.0443 170.718 25.6563 170.718 26.427C170.718 27.1977 170.933 27.8153 171.364 28.28C171.806 28.7333 172.367 28.96 173.047 28.96ZM182.37 23.061C182.688 22.619 183.113 22.2847 183.645 22.058C184.189 21.8313 184.813 21.718 185.515 21.718V24.166C185.221 24.1433 185.022 24.132 184.92 24.132C184.161 24.132 183.566 24.3473 183.135 24.778C182.705 25.1973 182.489 25.832 182.489 26.682V31H179.837V21.854H182.37V23.061ZM190.731 21.718C192.148 21.718 193.236 22.058 193.995 22.738C194.755 23.4067 195.134 24.421 195.134 25.781V31H192.652V29.861C192.154 30.711 191.224 31.136 189.864 31.136C189.162 31.136 188.55 31.017 188.028 30.779C187.518 30.541 187.127 30.2123 186.855 29.793C186.583 29.3737 186.447 28.8977 186.447 28.365C186.447 27.515 186.765 26.8463 187.399 26.359C188.045 25.8717 189.037 25.628 190.374 25.628H192.482C192.482 25.05 192.307 24.608 191.955 24.302C191.604 23.9847 191.077 23.826 190.374 23.826C189.887 23.826 189.405 23.9053 188.929 24.064C188.465 24.2113 188.068 24.4153 187.739 24.676L186.787 22.823C187.286 22.4717 187.881 22.1997 188.572 22.007C189.275 21.8143 189.995 21.718 190.731 21.718ZM190.527 29.351C190.981 29.351 191.383 29.249 191.734 29.045C192.086 28.8297 192.335 28.518 192.482 28.11V27.175H190.663C189.575 27.175 189.031 27.532 189.031 28.246C189.031 28.586 189.162 28.858 189.422 29.062C189.694 29.2547 190.063 29.351 190.527 29.351ZM200.068 23.061C200.385 22.619 200.81 22.2847 201.343 22.058C201.887 21.8313 202.51 21.718 203.213 21.718V24.166C202.918 24.1433 202.72 24.132 202.618 24.132C201.858 24.132 201.263 24.3473 200.833 24.778C200.402 25.1973 200.187 25.832 200.187 26.682V31H197.535V21.854H200.068V23.061ZM213.359 21.718C214.776 21.718 215.864 22.058 216.623 22.738C217.383 23.4067 217.762 24.421 217.762 25.781V31H215.28V29.861C214.782 30.711 213.852 31.136 212.492 31.136C211.79 31.136 211.178 31.017 210.656 30.779C210.146 30.541 209.755 30.2123 209.483 29.793C209.211 29.3737 209.075 28.8977 209.075 28.365C209.075 27.515 209.393 26.8463 210.027 26.359C210.673 25.8717 211.665 25.628 213.002 25.628H215.11C215.11 25.05 214.935 24.608 214.583 24.302C214.232 23.9847 213.705 23.826 213.002 23.826C212.515 23.826 212.033 23.9053 211.557 24.064C211.093 24.2113 210.696 24.4153 210.367 24.676L209.415 22.823C209.914 22.4717 210.509 22.1997 211.2 22.007C211.903 21.8143 212.623 21.718 213.359 21.718ZM213.155 29.351C213.609 29.351 214.011 29.249 214.362 29.045C214.714 28.8297 214.963 28.518 215.11 28.11V27.175H213.291C212.203 27.175 211.659 27.532 211.659 28.246C211.659 28.586 211.79 28.858 212.05 29.062C212.322 29.2547 212.691 29.351 213.155 29.351ZM225.721 21.718C226.855 21.718 227.767 22.058 228.458 22.738C229.161 23.418 229.512 24.4267 229.512 25.764V31H226.86V26.172C226.86 25.4467 226.702 24.9083 226.384 24.557C226.067 24.1943 225.608 24.013 225.007 24.013C224.339 24.013 223.806 24.2227 223.409 24.642C223.013 25.05 222.814 25.662 222.814 26.478V31H220.162V18.386H222.814V22.806C223.166 22.4547 223.591 22.1883 224.089 22.007C224.588 21.8143 225.132 21.718 225.721 21.718ZM236.368 31.136C235.405 31.136 234.538 30.9377 233.767 30.541C233.008 30.133 232.413 29.572 231.982 28.858C231.551 28.144 231.336 27.3337 231.336 26.427C231.336 25.5203 231.551 24.71 231.982 23.996C232.413 23.282 233.008 22.7267 233.767 22.33C234.538 21.922 235.405 21.718 236.368 21.718C237.331 21.718 238.193 21.922 238.952 22.33C239.711 22.7267 240.306 23.282 240.737 23.996C241.168 24.71 241.383 25.5203 241.383 26.427C241.383 27.3337 241.168 28.144 240.737 28.858C240.306 29.572 239.711 30.133 238.952 30.541C238.193 30.9377 237.331 31.136 236.368 31.136ZM236.368 28.96C237.048 28.96 237.603 28.7333 238.034 28.28C238.476 27.8153 238.697 27.1977 238.697 26.427C238.697 25.6563 238.476 25.0443 238.034 24.591C237.603 24.1263 237.048 23.894 236.368 23.894C235.688 23.894 235.127 24.1263 234.685 24.591C234.243 25.0443 234.022 25.6563 234.022 26.427C234.022 27.1977 234.243 27.8153 234.685 28.28C235.127 28.7333 235.688 28.96 236.368 28.96ZM245.689 23.061C246.006 22.619 246.431 22.2847 246.964 22.058C247.508 21.8313 248.131 21.718 248.834 21.718V24.166C248.539 24.1433 248.341 24.132 248.239 24.132C247.479 24.132 246.884 24.3473 246.454 24.778C246.023 25.1973 245.808 25.832 245.808 26.682V31H243.156V21.854H245.689V23.061ZM254.05 21.718C255.466 21.718 256.554 22.058 257.314 22.738C258.073 23.4067 258.453 24.421 258.453 25.781V31H255.971V29.861C255.472 30.711 254.543 31.136 253.183 31.136C252.48 31.136 251.868 31.017 251.347 30.779C250.837 30.541 250.446 30.2123 250.174 29.793C249.902 29.3737 249.766 28.8977 249.766 28.365C249.766 27.515 250.083 26.8463 250.718 26.359C251.364 25.8717 252.355 25.628 253.693 25.628H255.801C255.801 25.05 255.625 24.608 255.274 24.302C254.922 23.9847 254.395 23.826 253.693 23.826C253.205 23.826 252.724 23.9053 252.248 24.064C251.783 24.2113 251.386 24.4153 251.058 24.676L250.106 22.823C250.604 22.4717 251.199 22.1997 251.891 22.007C252.593 21.8143 253.313 21.718 254.05 21.718ZM253.846 29.351C254.299 29.351 254.701 29.249 255.053 29.045C255.404 28.8297 255.653 28.518 255.801 28.11V27.175H253.982C252.894 27.175 252.35 27.532 252.35 28.246C252.35 28.586 252.48 28.858 252.741 29.062C253.013 29.2547 253.381 29.351 253.846 29.351Z" fill="black"/>
</svg>
