<svg width="41" height="41" viewBox="0 0 41 41" fill="none" xmlns="http://www.w3.org/2000/svg">
<path d="M15.375 25.625L25.625 15.375" stroke="#4ECB71" stroke-width="2" stroke-linecap="round" stroke-linejoin="round"/>
<path d="M16.2292 17.0833C16.7009 17.0833 17.0833 16.7009 17.0833 16.2292C17.0833 15.7574 16.7009 15.375 16.2292 15.375C15.7574 15.375 15.375 15.7574 15.375 16.2292C15.375 16.7009 15.7574 17.0833 16.2292 17.0833Z" fill="#4ECB71" stroke="#4ECB71" stroke-width="2" stroke-linecap="round" stroke-linejoin="round"/>
<path d="M24.7712 25.6248C25.2429 25.6248 25.6253 25.2424 25.6253 24.7707C25.6253 24.2989 25.2429 23.9165 24.7712 23.9165C24.2994 23.9165 23.917 24.2989 23.917 24.7707C23.917 25.2424 24.2994 25.6248 24.7712 25.6248Z" fill="#4ECB71" stroke="#4ECB71" stroke-width="2" stroke-linecap="round" stroke-linejoin="round"/>
<path d="M8.54197 12.2998C8.54197 11.303 8.93793 10.3471 9.64276 9.64227C10.3476 8.93744 11.3035 8.54148 12.3003 8.54148H14.0086C15.001 8.54091 15.9529 8.14788 16.6565 7.44814L17.8524 6.25231C18.2016 5.90108 18.6169 5.62235 19.0743 5.43215C19.5316 5.24196 20.0221 5.14404 20.5174 5.14404C21.0127 5.14404 21.5032 5.24196 21.9605 5.43215C22.4179 5.62235 22.8331 5.90108 23.1824 6.25231L24.3782 7.44814C25.0819 8.14788 26.0338 8.54091 27.0261 8.54148H28.7345C29.7312 8.54148 30.6872 8.93744 31.392 9.64227C32.0968 10.3471 32.4928 11.303 32.4928 12.2998V14.0081C32.4934 15.0005 32.8864 15.9524 33.5861 16.6561L34.782 17.8519C35.1332 18.2012 35.4119 18.6164 35.6021 19.0738C35.7923 19.5311 35.8902 20.0216 35.8902 20.5169C35.8902 21.0122 35.7923 21.5027 35.6021 21.96C35.4119 22.4174 35.1332 22.8326 34.782 23.1819L33.5861 24.3777C32.8864 25.0814 32.4934 26.0333 32.4928 27.0256V28.734C32.4928 29.7307 32.0968 30.6867 31.392 31.3915C30.6872 32.0963 29.7312 32.4923 28.7345 32.4923H27.0261C26.0338 32.4929 25.0819 32.8859 24.3782 33.5856L23.1824 34.7815C22.8331 35.1327 22.4179 35.4114 21.9605 35.6016C21.5032 35.7918 21.0127 35.8897 20.5174 35.8897C20.0221 35.8897 19.5316 35.7918 19.0743 35.6016C18.6169 35.4114 18.2016 35.1327 17.8524 34.7815L16.6565 33.5856C15.9529 32.8859 15.001 32.4929 14.0086 32.4923H12.3003C11.3035 32.4923 10.3476 32.0963 9.64276 31.3915C8.93793 30.6867 8.54197 29.7307 8.54197 28.734V27.0256C8.5414 26.0333 8.14837 25.0814 7.44863 24.3777L6.2528 23.1819C5.90157 22.8326 5.62284 22.4174 5.43264 21.96C5.24244 21.5027 5.14453 21.0122 5.14453 20.5169C5.14453 20.0216 5.24244 19.5311 5.43264 19.0738C5.62284 18.6164 5.90157 18.2012 6.2528 17.8519L7.44863 16.6561C8.14837 15.9524 8.5414 15.0005 8.54197 14.0081V12.2998" stroke="#4ECB71" stroke-width="2" stroke-linecap="round" stroke-linejoin="round"/>
</svg>
