<svg width="350" height="97" viewBox="0 0 350 97" fill="none" xmlns="http://www.w3.org/2000/svg">
<g filter="url(#filter0_d_7_28)">
<rect x="4" width="342" height="89" fill="black"/>
<path d="M85.524 47.38C85.524 48.556 85.097 49.585 84.243 50.467C83.403 51.335 82.199 51.909 80.631 52.189V54.52H77.67V52.294C76.62 52.238 75.612 52.077 74.646 51.811C73.694 51.545 72.903 51.216 72.273 50.824L73.869 47.212C74.569 47.618 75.353 47.947 76.221 48.199C77.089 48.437 77.922 48.556 78.72 48.556C79.406 48.556 79.896 48.493 80.19 48.367C80.484 48.227 80.631 48.024 80.631 47.758C80.631 47.45 80.435 47.219 80.043 47.065C79.665 46.911 79.035 46.743 78.153 46.561C77.019 46.323 76.074 46.071 75.318 45.805C74.562 45.525 73.904 45.077 73.344 44.461C72.784 43.831 72.504 42.984 72.504 41.92C72.504 40.688 72.945 39.631 73.827 38.749C74.723 37.867 76.004 37.307 77.67 37.069V34.78H80.631V37.027C82.311 37.181 83.732 37.587 84.894 38.245L83.403 41.836C81.961 41.108 80.596 40.744 79.308 40.744C78.034 40.744 77.397 41.052 77.397 41.668C77.397 41.962 77.586 42.186 77.964 42.34C78.342 42.48 78.965 42.634 79.833 42.802C80.953 43.012 81.898 43.257 82.668 43.537C83.438 43.803 84.103 44.244 84.663 44.86C85.237 45.476 85.524 46.316 85.524 47.38ZM94.6638 43.117C95.7978 43.397 96.6658 43.908 97.2678 44.65C97.8838 45.378 98.1918 46.26 98.1918 47.296C98.1918 48.178 97.9468 49.004 97.4568 49.774C96.9808 50.53 96.2388 51.146 95.2308 51.622C94.2228 52.098 92.9698 52.336 91.4718 52.336C90.4358 52.336 89.3998 52.224 88.3638 52C87.3418 51.776 86.4458 51.447 85.6758 51.013L87.3558 47.359C87.9578 47.709 88.6018 47.975 89.2878 48.157C89.9878 48.339 90.6598 48.43 91.3038 48.43C91.8778 48.43 92.3398 48.332 92.6898 48.136C93.0398 47.94 93.2148 47.66 93.2148 47.296C93.2148 46.624 92.6338 46.288 91.4718 46.288H89.5188V43.243L91.6818 41.038H86.4318V37.3H97.3938V40.345L94.6638 43.117ZM105.967 52.336C104.665 52.336 103.51 52.035 102.502 51.433C101.508 50.817 100.724 49.935 100.15 48.787C99.5902 47.625 99.3102 46.246 99.3102 44.65C99.3102 43.054 99.5902 41.682 100.15 40.534C100.724 39.372 101.508 38.49 102.502 37.888C103.51 37.272 104.665 36.964 105.967 36.964C107.269 36.964 108.417 37.272 109.411 37.888C110.419 38.49 111.203 39.372 111.763 40.534C112.337 41.682 112.624 43.054 112.624 44.65C112.624 46.246 112.337 47.625 111.763 48.787C111.203 49.935 110.419 50.817 109.411 51.433C108.417 52.035 107.269 52.336 105.967 52.336ZM105.967 48.367C107.087 48.367 107.647 47.128 107.647 44.65C107.647 42.172 107.087 40.933 105.967 40.933C104.847 40.933 104.287 42.172 104.287 44.65C104.287 47.128 104.847 48.367 105.967 48.367ZM120.507 52.336C119.205 52.336 118.05 52.035 117.042 51.433C116.048 50.817 115.264 49.935 114.69 48.787C114.13 47.625 113.85 46.246 113.85 44.65C113.85 43.054 114.13 41.682 114.69 40.534C115.264 39.372 116.048 38.49 117.042 37.888C118.05 37.272 119.205 36.964 120.507 36.964C121.809 36.964 122.957 37.272 123.951 37.888C124.959 38.49 125.743 39.372 126.303 40.534C126.877 41.682 127.164 43.054 127.164 44.65C127.164 46.246 126.877 47.625 126.303 48.787C125.743 49.935 124.959 50.817 123.951 51.433C122.957 52.035 121.809 52.336 120.507 52.336ZM120.507 48.367C121.627 48.367 122.187 47.128 122.187 44.65C122.187 42.172 121.627 40.933 120.507 40.933C119.387 40.933 118.827 42.172 118.827 44.65C118.827 47.128 119.387 48.367 120.507 48.367ZM135.047 52.336C133.745 52.336 132.59 52.035 131.582 51.433C130.588 50.817 129.804 49.935 129.23 48.787C128.67 47.625 128.39 46.246 128.39 44.65C128.39 43.054 128.67 41.682 129.23 40.534C129.804 39.372 130.588 38.49 131.582 37.888C132.59 37.272 133.745 36.964 135.047 36.964C136.349 36.964 137.497 37.272 138.491 37.888C139.499 38.49 140.283 39.372 140.843 40.534C141.417 41.682 141.704 43.054 141.704 44.65C141.704 46.246 141.417 47.625 140.843 48.787C140.283 49.935 139.499 50.817 138.491 51.433C137.497 52.035 136.349 52.336 135.047 52.336ZM135.047 48.367C136.167 48.367 136.727 47.128 136.727 44.65C136.727 42.172 136.167 40.933 135.047 40.933C133.927 40.933 133.367 42.172 133.367 44.65C133.367 47.128 133.927 48.367 135.047 48.367ZM181.355 48.262V52H169.133V37.3H181.082V41.038H174.005V42.76H180.221V46.33H174.005V48.262H181.355ZM197.752 37.3V52H193.678L188.092 45.322V52H183.262V37.3H187.336L192.922 43.978V37.3H197.752ZM215.848 37.3L209.632 52H204.76L198.544 37.3H203.878L207.385 45.889L210.976 37.3H215.848ZM216.342 37.3H221.298V52H216.342V37.3ZM219.387 32.743H223.902L219.765 36.103H216.615L219.387 32.743ZM231.39 52.336C229.808 52.336 228.387 52.007 227.127 51.349C225.867 50.691 224.88 49.781 224.166 48.619C223.452 47.443 223.095 46.12 223.095 44.65C223.095 43.18 223.452 41.864 224.166 40.702C224.88 39.526 225.867 38.609 227.127 37.951C228.387 37.293 229.808 36.964 231.39 36.964C232.972 36.964 234.393 37.293 235.653 37.951C236.913 38.609 237.9 39.526 238.614 40.702C239.328 41.864 239.685 43.18 239.685 44.65C239.685 46.12 239.328 47.443 238.614 48.619C237.9 49.781 236.913 50.691 235.653 51.349C234.393 52.007 232.972 52.336 231.39 52.336ZM231.39 48.325C232.006 48.325 232.559 48.178 233.049 47.884C233.553 47.576 233.952 47.149 234.246 46.603C234.54 46.043 234.687 45.392 234.687 44.65C234.687 43.908 234.54 43.264 234.246 42.718C233.952 42.158 233.553 41.731 233.049 41.437C232.559 41.129 232.006 40.975 231.39 40.975C230.774 40.975 230.214 41.129 229.71 41.437C229.22 41.731 228.828 42.158 228.534 42.718C228.24 43.264 228.093 43.908 228.093 44.65C228.093 45.392 228.24 46.043 228.534 46.603C228.828 47.149 229.22 47.576 229.71 47.884C230.214 48.178 230.774 48.325 231.39 48.325ZM260.107 47.38C260.107 48.556 259.68 49.585 258.826 50.467C257.986 51.335 256.782 51.909 255.214 52.189V54.52H252.253V52.294C251.203 52.238 250.195 52.077 249.229 51.811C248.277 51.545 247.486 51.216 246.856 50.824L248.452 47.212C249.152 47.618 249.936 47.947 250.804 48.199C251.672 48.437 252.505 48.556 253.303 48.556C253.989 48.556 254.479 48.493 254.773 48.367C255.067 48.227 255.214 48.024 255.214 47.758C255.214 47.45 255.018 47.219 254.626 47.065C254.248 46.911 253.618 46.743 252.736 46.561C251.602 46.323 250.657 46.071 249.901 45.805C249.145 45.525 248.487 45.077 247.927 44.461C247.367 43.831 247.087 42.984 247.087 41.92C247.087 40.688 247.528 39.631 248.41 38.749C249.306 37.867 250.587 37.307 252.253 37.069V34.78H255.214V37.027C256.894 37.181 258.315 37.587 259.477 38.245L257.986 41.836C256.544 41.108 255.179 40.744 253.891 40.744C252.617 40.744 251.98 41.052 251.98 41.668C251.98 41.962 252.169 42.186 252.547 42.34C252.925 42.48 253.548 42.634 254.416 42.802C255.536 43.012 256.481 43.257 257.251 43.537C258.021 43.803 258.686 44.244 259.246 44.86C259.82 45.476 260.107 46.316 260.107 47.38ZM267.651 52.336C266.349 52.336 265.194 52.035 264.186 51.433C263.192 50.817 262.408 49.935 261.834 48.787C261.274 47.625 260.994 46.246 260.994 44.65C260.994 43.054 261.274 41.682 261.834 40.534C262.408 39.372 263.192 38.49 264.186 37.888C265.194 37.272 266.349 36.964 267.651 36.964C268.953 36.964 270.101 37.272 271.095 37.888C272.103 38.49 272.887 39.372 273.447 40.534C274.021 41.682 274.308 43.054 274.308 44.65C274.308 46.246 274.021 47.625 273.447 48.787C272.887 49.935 272.103 50.817 271.095 51.433C270.101 52.035 268.953 52.336 267.651 52.336ZM267.651 48.367C268.771 48.367 269.331 47.128 269.331 44.65C269.331 42.172 268.771 40.933 267.651 40.933C266.531 40.933 265.971 42.172 265.971 44.65C265.971 47.128 266.531 48.367 267.651 48.367Z" fill="#FFD233"/>
<path d="M149.772 40.135H160.482V43.705H149.772V40.135ZM149.772 45.595H160.482V49.165H149.772V45.595Z" fill="white"/>
<path fill-rule="evenodd" clip-rule="evenodd" d="M51.2573 29.1831C50.2621 30.239 49.2278 32.502 48.7572 34.6536C48.4715 35.9597 48.351 37.019 48.3071 38.6123L48.27 39.9556L47.7334 39.356C46.3334 37.792 44.4993 36.3285 42.6102 35.2679C41.3272 34.5477 39.3298 33.7216 39.2885 33.8942C39.255 34.0348 39.4524 35.3411 39.6269 36.1331C39.9259 37.4897 40.4376 39.0188 41.0219 40.3016C41.5072 41.3671 42.4183 42.9626 42.9821 43.7341C43.1217 43.9252 43.1322 43.9592 43.0441 43.9344C42.9857 43.918 42.6827 43.8575 42.3707 43.7998C40.7098 43.4928 38.9125 43.5138 37.5776 43.8558C36.9142 44.0258 36.9269 44.0128 37.1024 44.338C37.5117 45.0961 38.3574 46.1163 39.1508 46.8091C40.3072 47.8186 41.635 48.5624 43.3891 49.1831L43.5566 49.2423L43.1962 49.4546C42.487 49.8723 41.9019 50.3287 40.9101 51.2378C40.3564 51.7454 39.9033 52.177 39.9033 52.1969C39.9033 52.2428 40.6021 52.4369 41.1228 52.5356C41.784 52.6611 42.9152 52.7282 44.4979 52.736C45.7061 52.7419 46.118 52.7249 46.5967 52.6493C47.8456 52.4521 49.72 51.8553 50.5671 51.3853C50.9298 51.1841 50.9641 51.1962 50.9648 51.5263C50.9653 51.7877 51.1182 52.6695 51.2808 53.3482C51.5418 54.4378 52.0708 55.7678 52.3093 55.934C52.3615 55.9703 52.5379 56 52.7012 56C52.9545 56 53.0156 55.9795 53.1158 55.8608C53.2763 55.6708 53.2634 55.4426 53.0698 55.043C52.6385 54.1531 52.3559 53.0758 52.126 51.4451L52.0984 51.2493L52.68 51.527C53.5644 51.9493 54.9041 52.3784 56.0005 52.5905C57.256 52.8335 60.5812 52.7893 61.9551 52.5114C62.3923 52.4229 63.0466 52.2358 63.0466 52.1992C63.0466 52.1483 61.1329 50.3996 60.8024 50.1486C60.6445 50.0286 60.2653 49.7747 59.9598 49.5844L59.4042 49.2384L59.5663 49.1811C61.3392 48.5538 62.5903 47.8499 63.819 46.7884C64.5658 46.1431 65.4349 45.0977 65.8291 44.3702L66 44.0548L65.801 43.9773C65.51 43.8641 64.7382 43.7065 64.1527 43.6408C62.9194 43.5023 61.1394 43.626 59.9374 43.9335C59.8216 43.9632 59.8421 43.915 60.1111 43.5242C61.8919 40.9372 63.1725 37.6807 63.5846 34.6906C63.6319 34.3476 63.6706 34.0093 63.6706 33.9387V33.8105L63.2737 33.9439C60.4145 34.9046 57.3716 36.9485 55.2168 39.3556L54.6798 39.9556L54.6432 38.6387C54.6231 37.9145 54.5641 36.9772 54.512 36.5558C54.1702 33.7868 53.3159 31.361 52.0874 29.6719C51.8306 29.3188 51.54 29 51.4749 29C51.4502 29 51.3523 29.0824 51.2573 29.1831ZM51.6625 31.1003C52.4135 32.6598 53.0157 34.697 53.2866 36.5942C53.615 38.8941 53.5613 41.1237 53.1172 43.636C53.0221 44.1736 52.9322 44.6611 52.9172 44.7192C52.9023 44.7773 53.0124 44.599 53.162 44.3229C53.8669 43.0216 54.7823 41.7279 55.8912 40.4658C57.4101 38.737 59.7879 36.904 62.1532 35.6387C62.4854 35.461 62.485 35.4586 62.2517 36.2916C61.8436 37.749 61.1404 39.4756 60.3763 40.8965C59.4209 42.673 58.3777 44.0569 56.8902 45.5207L56.1831 46.2166L56.6794 46.0104C58.4528 45.2735 59.9404 44.888 61.5718 44.7427C62.2627 44.6811 63.4193 44.7063 63.756 44.7901L63.9124 44.8291L63.6108 45.1704C62.484 46.4461 60.7939 47.5631 58.9437 48.255C58.2166 48.5269 57.4063 48.7507 56.4383 48.947C55.9703 49.0419 55.6257 49.1326 55.6725 49.1486C55.7193 49.1646 55.9107 49.2058 56.0979 49.2401C57.2985 49.4602 59.1716 50.3405 60.4208 51.2717C60.6577 51.4483 60.7543 51.5517 60.7158 51.5876C60.6247 51.6725 56.9166 51.6576 56.495 51.5707C54.8973 51.2412 52.973 50.5053 51.8962 49.8119L51.4749 49.5406L51.0637 49.8028C49.9805 50.4932 48.2568 51.1726 46.7101 51.5186C46.2046 51.6317 46.0529 51.6393 44.2596 51.6401C42.9064 51.6406 42.3292 51.6234 42.2836 51.5808C42.2354 51.536 42.3173 51.4473 42.6069 51.2305C43.7765 50.3551 45.4318 49.5616 46.6964 49.2701C46.8755 49.2288 47.0987 49.1776 47.1923 49.1564C47.3335 49.1244 47.2368 49.0925 46.625 48.9696C44.2469 48.4918 42.5734 47.7982 40.941 46.6136C40.399 46.2202 39.5026 45.3971 39.2358 45.0478L39.0505 44.8051L39.3209 44.7622C39.4696 44.7385 40.038 44.7221 40.5839 44.7256C42.4018 44.7375 43.9313 45.0747 46.1145 45.9452C46.3641 46.0447 46.6066 46.1412 46.6534 46.1596C46.7002 46.178 46.4401 45.8971 46.0753 45.5354C45.2432 44.71 44.78 44.1908 44.2114 43.446C42.9503 41.7939 41.8368 39.6757 41.0755 37.4804C40.817 36.7351 40.5272 35.7331 40.5272 35.5846C40.5272 35.4835 41.0543 35.7538 42.0871 36.3845C44.0326 37.5727 45.8176 39.0487 47.1502 40.5714C48.135 41.6966 48.9604 42.8487 49.5917 43.9795C49.8513 44.4444 50.0474 44.7537 50.0274 44.6668C49.9041 44.13 49.6547 42.5775 49.5691 41.8131C49.4469 40.7221 49.4317 38.5994 49.5385 37.5597C49.7509 35.4952 50.3382 33.2026 51.073 31.5707C51.3694 30.9126 51.4298 30.7965 51.4763 30.7965C51.4982 30.7965 51.582 30.9332 51.6625 31.1003Z" fill="#4ECB71"/>
<path fill-rule="evenodd" clip-rule="evenodd" d="M297.257 29.1831C296.262 30.239 295.228 32.502 294.757 34.6536C294.471 35.9597 294.351 37.019 294.307 38.6123L294.27 39.9556L293.733 39.356C292.333 37.792 290.499 36.3285 288.61 35.2679C287.327 34.5477 285.33 33.7216 285.289 33.8942C285.255 34.0348 285.452 35.3411 285.627 36.1331C285.926 37.4897 286.438 39.0188 287.022 40.3016C287.507 41.3671 288.418 42.9626 288.982 43.7341C289.122 43.9252 289.132 43.9592 289.044 43.9344C288.986 43.918 288.683 43.8575 288.371 43.7998C286.71 43.4928 284.913 43.5138 283.578 43.8558C282.914 44.0258 282.927 44.0128 283.102 44.338C283.512 45.0961 284.357 46.1163 285.151 46.8091C286.307 47.8186 287.635 48.5624 289.389 49.1831L289.557 49.2423L289.196 49.4546C288.487 49.8723 287.902 50.3287 286.91 51.2378C286.356 51.7454 285.903 52.177 285.903 52.1969C285.903 52.2428 286.602 52.4369 287.123 52.5356C287.784 52.6611 288.915 52.7282 290.498 52.736C291.706 52.7419 292.118 52.7249 292.597 52.6493C293.846 52.4521 295.72 51.8553 296.567 51.3853C296.93 51.1841 296.964 51.1962 296.965 51.5263C296.965 51.7877 297.118 52.6695 297.281 53.3482C297.542 54.4378 298.071 55.7678 298.309 55.934C298.362 55.9703 298.538 56 298.701 56C298.955 56 299.016 55.9795 299.116 55.8608C299.276 55.6708 299.263 55.4426 299.07 55.043C298.638 54.1531 298.356 53.0758 298.126 51.4451L298.098 51.2493L298.68 51.527C299.564 51.9493 300.904 52.3784 302 52.5905C303.256 52.8335 306.581 52.7893 307.955 52.5114C308.392 52.4229 309.047 52.2358 309.047 52.1992C309.047 52.1483 307.133 50.3996 306.802 50.1486C306.645 50.0286 306.265 49.7747 305.96 49.5844L305.404 49.2384L305.566 49.1811C307.339 48.5538 308.59 47.8499 309.819 46.7884C310.566 46.1431 311.435 45.0977 311.829 44.3702L312 44.0548L311.801 43.9773C311.51 43.8641 310.738 43.7065 310.153 43.6408C308.919 43.5023 307.139 43.626 305.937 43.9335C305.822 43.9632 305.842 43.915 306.111 43.5242C307.892 40.9372 309.172 37.6807 309.585 34.6906C309.632 34.3476 309.671 34.0093 309.671 33.9387V33.8105L309.274 33.9439C306.414 34.9046 303.372 36.9485 301.217 39.3556L300.68 39.9556L300.643 38.6387C300.623 37.9145 300.564 36.9772 300.512 36.5558C300.17 33.7868 299.316 31.361 298.087 29.6719C297.831 29.3188 297.54 29 297.475 29C297.45 29 297.352 29.0824 297.257 29.1831ZM297.662 31.1003C298.413 32.6598 299.016 34.697 299.287 36.5942C299.615 38.8941 299.561 41.1237 299.117 43.636C299.022 44.1736 298.932 44.6611 298.917 44.7192C298.902 44.7773 299.012 44.599 299.162 44.3229C299.867 43.0216 300.782 41.7279 301.891 40.4658C303.41 38.737 305.788 36.904 308.153 35.6387C308.485 35.461 308.485 35.4586 308.252 36.2916C307.844 37.749 307.14 39.4756 306.376 40.8965C305.421 42.673 304.378 44.0569 302.89 45.5207L302.183 46.2166L302.679 46.0104C304.453 45.2735 305.94 44.888 307.572 44.7427C308.263 44.6811 309.419 44.7063 309.756 44.7901L309.912 44.8291L309.611 45.1704C308.484 46.4461 306.794 47.5631 304.944 48.255C304.217 48.5269 303.406 48.7507 302.438 48.947C301.97 49.0419 301.626 49.1326 301.673 49.1486C301.719 49.1646 301.911 49.2058 302.098 49.2401C303.298 49.4602 305.172 50.3405 306.421 51.2717C306.658 51.4483 306.754 51.5517 306.716 51.5876C306.625 51.6725 302.917 51.6576 302.495 51.5707C300.897 51.2412 298.973 50.5053 297.896 49.8119L297.475 49.5406L297.064 49.8028C295.98 50.4932 294.257 51.1726 292.71 51.5186C292.205 51.6317 292.053 51.6393 290.26 51.6401C288.906 51.6406 288.329 51.6234 288.284 51.5808C288.235 51.536 288.317 51.4473 288.607 51.2305C289.776 50.3551 291.432 49.5616 292.696 49.2701C292.876 49.2288 293.099 49.1776 293.192 49.1564C293.333 49.1244 293.237 49.0925 292.625 48.9696C290.247 48.4918 288.573 47.7982 286.941 46.6136C286.399 46.2202 285.503 45.3971 285.236 45.0478L285.051 44.8051L285.321 44.7622C285.47 44.7385 286.038 44.7221 286.584 44.7256C288.402 44.7375 289.931 45.0747 292.115 45.9452C292.364 46.0447 292.607 46.1412 292.653 46.1596C292.7 46.178 292.44 45.8971 292.075 45.5354C291.243 44.71 290.78 44.1908 290.211 43.446C288.95 41.7939 287.837 39.6757 287.075 37.4804C286.817 36.7351 286.527 35.7331 286.527 35.5846C286.527 35.4835 287.054 35.7538 288.087 36.3845C290.033 37.5727 291.818 39.0487 293.15 40.5714C294.135 41.6966 294.96 42.8487 295.592 43.9795C295.851 44.4444 296.047 44.7537 296.027 44.6668C295.904 44.13 295.655 42.5775 295.569 41.8131C295.447 40.7221 295.432 38.5994 295.539 37.5597C295.751 35.4952 296.338 33.2026 297.073 31.5707C297.369 30.9126 297.43 30.7965 297.476 30.7965C297.498 30.7965 297.582 30.9332 297.662 31.1003Z" fill="#4ECB71"/>
<rect x="4.5" y="0.5" width="341" height="88" stroke="black"/>
</g>
<defs>
<filter id="filter0_d_7_28" x="0" y="0" width="350" height="97" filterUnits="userSpaceOnUse" color-interpolation-filters="sRGB">
<feFlood flood-opacity="0" result="BackgroundImageFix"/>
<feColorMatrix in="SourceAlpha" type="matrix" values="0 0 0 0 0 0 0 0 0 0 0 0 0 0 0 0 0 0 127 0" result="hardAlpha"/>
<feOffset dy="4"/>
<feGaussianBlur stdDeviation="2"/>
<feComposite in2="hardAlpha" operator="out"/>
<feColorMatrix type="matrix" values="0 0 0 0 0 0 0 0 0 0 0 0 0 0 0 0 0 0 0.25 0"/>
<feBlend mode="normal" in2="BackgroundImageFix" result="effect1_dropShadow_7_28"/>
<feBlend mode="normal" in="SourceGraphic" in2="effect1_dropShadow_7_28" result="shape"/>
</filter>
</defs>
</svg>
